<?xml version="1.0" encoding="UTF-8" standalone="no"?><svg xmlns="http://www.w3.org/2000/svg" xmlns:xlink="http://www.w3.org/1999/xlink" contentScriptType="application/ecmascript" contentStyleType="text/css" height="427px" preserveAspectRatio="none" style="width:706px;height:427px;" version="1.1" viewBox="0 0 706 427" width="706px" zoomAndPan="magnify"><defs><filter height="300%" id="ftswtls" width="300%" x="-1" y="-1"><feGaussianBlur result="blurOut" stdDeviation="2.0"/><feColorMatrix in="blurOut" result="blurOut2" type="matrix" values="0 0 0 0 0 0 0 0 0 0 0 0 0 0 0 0 0 0 .4 0"/><feOffset dx="4.0" dy="4.0" in="blurOut2" result="blurOut3"/><feBlend in="SourceGraphic" in2="blurOut3" mode="normal"/></filter></defs><g><!--class aat_300263534--><rect fill="#FEFECE" filter="url(#ftswtls)" height="44.7734" style="stroke: #A80036; stroke-width: 1.5;" width="218" x="6" y="374"/><text fill="#000000" font-family="sans-serif" font-size="12" lengthAdjust="spacingAndGlyphs" textLength="97" x="66.5" y="390.1387">aat:300263534</text><line style="stroke: #A80036; stroke-width: 1.5;" x1="7" x2="223" y1="397.9688" y2="397.9688"/><text fill="#000000" font-family="sans-serif" font-size="11" lengthAdjust="spacingAndGlyphs" textLength="206" x="12" y="412.1792">"departments [organizational units]"</text><!--class _department_class_--><rect fill="#FEFECE" filter="url(#ftswtls)" height="44.7734" style="stroke: #A80036; stroke-width: 1.5;" width="138" x="261" y="252"/><text fill="#000000" font-family="sans-serif" font-size="12" lengthAdjust="spacingAndGlyphs" textLength="132" x="264" y="268.1387">&lt;department_class&gt;</text><line style="stroke: #A80036; stroke-width: 1.5;" x1="262" x2="398" y1="275.9688" y2="275.9688"/><text fill="#000000" font-family="sans-serif" font-size="11" lengthAdjust="spacingAndGlyphs" textLength="99" x="267" y="290.1792">a crm:E74_Group</text><!--class _department_name_--><rect fill="#FEFECE" filter="url(#ftswtls)" height="23.9688" style="stroke: #A80036; stroke-width: 1.5;" width="141" x="259.5" y="384.5"/><text fill="#000000" font-family="sans-serif" font-size="12" lengthAdjust="spacingAndGlyphs" textLength="135" x="262.5" y="400.6387">&lt;department_name&gt;</text><!--class _institution_--><rect fill="#FEFECE" filter="url(#ftswtls)" height="23.9688" style="stroke: #A80036; stroke-width: 1.5;" width="89" x="435.5" y="384.5"/><text fill="#000000" font-family="sans-serif" font-size="12" lengthAdjust="spacingAndGlyphs" textLength="83" x="438.5" y="400.6387">&lt;institution&gt;</text><!--class _collection_class_--><rect fill="#FEFECE" filter="url(#ftswtls)" height="44.7734" style="stroke: #A80036; stroke-width: 1.5;" width="164" x="397" y="130"/><text fill="#000000" font-family="sans-serif" font-size="12" lengthAdjust="spacingAndGlyphs" textLength="118" x="420" y="146.1387">&lt;collection_class&gt;</text><line style="stroke: #A80036; stroke-width: 1.5;" x1="398" x2="560" y1="153.9688" y2="153.9688"/><text fill="#000000" font-family="sans-serif" font-size="11" lengthAdjust="spacingAndGlyphs" textLength="152" x="403" y="168.1792">a crm:E19_Physical_Object</text><!--class _collection_name_--><rect fill="#FEFECE" filter="url(#ftswtls)" height="23.9688" style="stroke: #A80036; stroke-width: 1.5;" width="127" x="565.5" y="262.5"/><text fill="#000000" font-family="sans-serif" font-size="12" lengthAdjust="spacingAndGlyphs" textLength="121" x="568.5" y="278.6387">&lt;collection_name&gt;</text><!--class _entity_uri_--><rect fill="#FEFECE" filter="url(#ftswtls)" height="44.7734" style="stroke: #A80036; stroke-width: 1.5;" width="175" x="391.5" y="8"/><text fill="#000000" font-family="sans-serif" font-size="12" lengthAdjust="spacingAndGlyphs" textLength="77" x="440.5" y="24.1387">&lt;entity_uri&gt;</text><line style="stroke: #A80036; stroke-width: 1.5;" x1="392.5" x2="565.5" y1="31.9688" y2="31.9688"/><text fill="#000000" font-family="sans-serif" font-size="11" lengthAdjust="spacingAndGlyphs" textLength="163" x="397.5" y="46.1792">a crm:E22_Man-Made_Object</text><path d="M272.606,297.124 C252.356,305.532 229.73,315.833 210,327 C187.462,339.757 163.835,356.7761 145.781,370.6586 " fill="none" style="stroke: #A80036; stroke-width: 1.0;"/><polygon fill="#A80036" points="141.783,373.7514,151.3488,371.4073,145.7374,370.6916,146.4532,365.0802,141.783,373.7514" style="stroke: #A80036; stroke-width: 1.0;"/><text fill="#000000" font-family="sans-serif" font-size="13" lengthAdjust="spacingAndGlyphs" textLength="110" x="211" y="340.0669">crm:p2_has_type</text><path d="M330,297.231 C330,320.8914 330,358.1779 330,379.3681 " fill="none" style="stroke: #A80036; stroke-width: 1.0;"/><polygon fill="#A80036" points="330,384.3906,334,375.3906,330,379.3906,326,375.3906,330,384.3906" style="stroke: #A80036; stroke-width: 1.0;"/><text fill="#000000" font-family="sans-serif" font-size="13" lengthAdjust="spacingAndGlyphs" textLength="58" x="331" y="340.0669">rdfs:label</text><path d="M359.354,297.251 C371.426,306.32 385.484,317.042 398,327 C420.883,345.2061 446.678,366.9647 463.121,380.997 " fill="none" style="stroke: #A80036; stroke-width: 1.0;"/><polygon fill="#A80036" points="467.093,384.3912,462.8482,375.504,463.2914,381.1435,457.6519,381.5867,467.093,384.3912" style="stroke: #A80036; stroke-width: 1.0;"/><text fill="#000000" font-family="sans-serif" font-size="13" lengthAdjust="spacingAndGlyphs" textLength="285" x="420" y="340.0669">crm:P107i_is_current_or_former_member_of</text><path d="M396.946,162.232 C370.248,169.417 343.317,182.244 327,205 C318.475,216.89 318.827,233.152 321.497,246.848 " fill="none" style="stroke: #A80036; stroke-width: 1.0;"/><polygon fill="#A80036" points="322.574,251.765,324.5554,242.1175,321.504,246.8808,316.7407,243.8295,322.574,251.765" style="stroke: #A80036; stroke-width: 1.0;"/><text fill="#000000" font-family="sans-serif" font-size="13" lengthAdjust="spacingAndGlyphs" textLength="257" x="328" y="218.0669">crm:P49_has_former_or_current_keeper</text><path d="M543.05,175.104 C559.617,182.758 576.555,192.63 590,205 C605.924,219.652 617.056,242.338 623.24,257.543 " fill="none" style="stroke: #A80036; stroke-width: 1.0;"/><polygon fill="#A80036" points="625.147,262.39,625.5753,252.5505,623.3169,257.737,618.1304,255.4786,625.147,262.39" style="stroke: #A80036; stroke-width: 1.0;"/><text fill="#000000" font-family="sans-serif" font-size="13" lengthAdjust="spacingAndGlyphs" textLength="58" x="605" y="218.0669">rdfs:label</text><path d="M479,53.231 C479,73.365 479,103.366 479,124.919 " fill="none" style="stroke: #A80036; stroke-width: 1.0;"/><polygon fill="#A80036" points="479,129.931,483,120.931,479,124.931,475,120.931,479,129.931" style="stroke: #A80036; stroke-width: 1.0;"/><text fill="#000000" font-family="sans-serif" font-size="13" lengthAdjust="spacingAndGlyphs" textLength="152" x="480" y="96.0669">crm:P46i_forms_part_of</text></g></svg>