<?xml version="1.0" encoding="UTF-8" standalone="no"?><svg xmlns="http://www.w3.org/2000/svg" xmlns:xlink="http://www.w3.org/1999/xlink" contentScriptType="application/ecmascript" contentStyleType="text/css" height="412px" preserveAspectRatio="none" style="width:385px;height:412px;" version="1.1" viewBox="0 0 385 412" width="385px" zoomAndPan="magnify"><defs><filter height="300%" id="fufidgz" width="300%" x="-1" y="-1"><feGaussianBlur result="blurOut" stdDeviation="2.0"/><feColorMatrix in="blurOut" result="blurOut2" type="matrix" values="0 0 0 0 0 0 0 0 0 0 0 0 0 0 0 0 0 0 .4 0"/><feOffset dx="4.0" dy="4.0" in="blurOut2" result="blurOut3"/><feBlend in="SourceGraphic" in2="blurOut3" mode="normal"/></filter></defs><g><!--class _technique_class_--><rect fill="#FEFECE" filter="url(#fufidgz)" height="44.7734" style="stroke: #A80036; stroke-width: 1.5;" width="127" x="104" y="256.5"/><text fill="#000000" font-family="sans-serif" font-size="12" lengthAdjust="spacingAndGlyphs" textLength="121" x="107" y="272.6387">&lt;technique_class&gt;</text><line style="stroke: #A80036; stroke-width: 1.5;" x1="105" x2="230" y1="280.4688" y2="280.4688"/><text fill="#000000" font-family="sans-serif" font-size="11" lengthAdjust="spacingAndGlyphs" textLength="91" x="110" y="294.6792">a crm:E55_Type</text><!--class _lod_technique_term_--><rect fill="#FEFECE" filter="url(#fufidgz)" height="23.9688" style="stroke: #A80036; stroke-width: 1.5;" width="149" x="6" y="380"/><text fill="#000000" font-family="sans-serif" font-size="12" lengthAdjust="spacingAndGlyphs" textLength="143" x="9" y="396.1387">&lt;lod_technique_term&gt;</text><!--class _technique_name_--><rect fill="#FEFECE" filter="url(#fufidgz)" height="23.9688" style="stroke: #A80036; stroke-width: 1.5;" width="130" x="190.25" y="380"/><text fill="#000000" font-family="sans-serif" font-size="12" lengthAdjust="spacingAndGlyphs" textLength="124" x="193.25" y="396.1387">&lt;technique_name&gt;</text><!--class _entity_uri_--><rect fill="#FEFECE" filter="url(#fufidgz)" height="44.7734" style="stroke: #A80036; stroke-width: 1.5;" width="175" x="80" y="8.5"/><text fill="#000000" font-family="sans-serif" font-size="12" lengthAdjust="spacingAndGlyphs" textLength="77" x="129" y="24.6387">&lt;entity_uri&gt;</text><line style="stroke: #A80036; stroke-width: 1.5;" x1="81" x2="254" y1="32.4688" y2="32.4688"/><text fill="#000000" font-family="sans-serif" font-size="11" lengthAdjust="spacingAndGlyphs" textLength="163" x="86" y="46.6792">a crm:E22_Man-Made_Object</text><!--class _production_class_--><rect fill="#FEFECE" filter="url(#fufidgz)" height="44.7734" style="stroke: #A80036; stroke-width: 1.5;" width="136" x="99.25" y="132.5"/><text fill="#000000" font-family="sans-serif" font-size="12" lengthAdjust="spacingAndGlyphs" textLength="126" x="104.25" y="148.6387">&lt;production_class&gt;</text><line style="stroke: #A80036; stroke-width: 1.5;" x1="100.25" x2="234.25" y1="156.4688" y2="156.4688"/><text fill="#000000" font-family="sans-serif" font-size="11" lengthAdjust="spacingAndGlyphs" textLength="124" x="105.25" y="170.6792">a crm:E12_Production</text><path d="M131.753,301.541 C120.4,309.8707 108.62,320.2459 100.25,332 C91.1374,344.7966 85.927,362.0655 83.1243,374.6122 " fill="none" style="stroke: #A80036; stroke-width: 1.0;"/><polygon fill="#A80036" points="82.0662,379.6734,87.8235,371.6825,83.0895,374.7792,79.9928,370.0453,82.0662,379.6734" style="stroke: #A80036; stroke-width: 1.0;"/><text fill="#000000" font-family="sans-serif" font-size="13" lengthAdjust="spacingAndGlyphs" textLength="109" x="101.25" y="345.0669">skos:broadMatch</text><path d="M189.105,301.514 C197.911,310.6027 207.932,321.4985 216.25,332 C227.288,345.9353 238.315,362.9794 245.813,375.1588 " fill="none" style="stroke: #A80036; stroke-width: 1.0;"/><polygon fill="#A80036" points="248.604,379.7331,247.3298,369.967,245.9992,375.4652,240.5011,374.1346,248.604,379.7331" style="stroke: #A80036; stroke-width: 1.0;"/><text fill="#000000" font-family="sans-serif" font-size="13" lengthAdjust="spacingAndGlyphs" textLength="92" x="230.25" y="345.0669">skos:prefLabel</text><path d="M167.25,53.53 C167.25,74.049 167.25,105.009 167.25,127.134 " fill="none" style="stroke: #A80036; stroke-width: 1.0;"/><polygon fill="#A80036" points="167.25,132.275,171.25,123.275,167.25,127.275,163.25,123.275,167.25,132.275" style="stroke: #A80036; stroke-width: 1.0;"/><text fill="#000000" font-family="sans-serif" font-size="13" lengthAdjust="spacingAndGlyphs" textLength="184" x="168.25" y="97.0669">crm:P108i_was_produced_by</text><path d="M167.25,177.53 C167.25,198.049 167.25,229.009 167.25,251.134 " fill="none" style="stroke: #A80036; stroke-width: 1.0;"/><polygon fill="#A80036" points="167.25,256.275,171.25,247.275,167.25,251.275,163.25,247.275,167.25,256.275" style="stroke: #A80036; stroke-width: 1.0;"/><text fill="#000000" font-family="sans-serif" font-size="13" lengthAdjust="spacingAndGlyphs" textLength="216" x="168.25" y="221.0669">crm:P32_used_general_technique</text></g></svg>