<?xml version="1.0" encoding="UTF-8" standalone="no"?><svg xmlns="http://www.w3.org/2000/svg" xmlns:xlink="http://www.w3.org/1999/xlink" contentScriptType="application/ecmascript" contentStyleType="text/css" height="305px" preserveAspectRatio="none" style="width:342px;height:305px;" version="1.1" viewBox="0 0 342 305" width="342px" zoomAndPan="magnify"><defs><filter height="300%" id="flohuw1" width="300%" x="-1" y="-1"><feGaussianBlur result="blurOut" stdDeviation="2.0"/><feColorMatrix in="blurOut" result="blurOut2" type="matrix" values="0 0 0 0 0 0 0 0 0 0 0 0 0 0 0 0 0 0 .4 0"/><feOffset dx="4.0" dy="4.0" in="blurOut2" result="blurOut3"/><feBlend in="SourceGraphic" in2="blurOut3" mode="normal"/></filter></defs><g><!--class _catalog_class_--><rect fill="#FEFECE" filter="url(#flohuw1)" height="44.7734" style="stroke: #A80036; stroke-width: 1.5;" width="171" x="82" y="130"/><text fill="#000000" font-family="sans-serif" font-size="12" lengthAdjust="spacingAndGlyphs" textLength="105" x="115" y="146.1387">&lt;catalog_class&gt;</text><line style="stroke: #A80036; stroke-width: 1.5;" x1="83" x2="252" y1="153.9688" y2="153.9688"/><text fill="#000000" font-family="sans-serif" font-size="11" lengthAdjust="spacingAndGlyphs" textLength="159" x="88" y="168.1792">a crm:E33_Linguistic_Object</text><!--class aat_300026061--><rect fill="#FEFECE" filter="url(#flohuw1)" height="44.7734" style="stroke: #A80036; stroke-width: 1.5;" width="145" x="6" y="252"/><text fill="#000000" font-family="sans-serif" font-size="12" lengthAdjust="spacingAndGlyphs" textLength="97" x="30" y="268.1387">aat:300026061</text><line style="stroke: #A80036; stroke-width: 1.5;" x1="7" x2="150" y1="275.9688" y2="275.9688"/><text fill="#000000" font-family="sans-serif" font-size="11" lengthAdjust="spacingAndGlyphs" textLength="133" x="12" y="290.1792">"catalogues raisonnés"</text><!--class _catalog_reference_--><rect fill="#FEFECE" filter="url(#flohuw1)" height="23.9688" style="stroke: #A80036; stroke-width: 1.5;" width="140" x="186.5" y="262.5"/><text fill="#000000" font-family="sans-serif" font-size="12" lengthAdjust="spacingAndGlyphs" textLength="134" x="189.5" y="278.6387">&lt;catalog_reference&gt;</text><!--class _entity_uri_--><rect fill="#FEFECE" filter="url(#flohuw1)" height="44.7734" style="stroke: #A80036; stroke-width: 1.5;" width="175" x="80" y="8"/><text fill="#000000" font-family="sans-serif" font-size="12" lengthAdjust="spacingAndGlyphs" textLength="77" x="129" y="24.1387">&lt;entity_uri&gt;</text><line style="stroke: #A80036; stroke-width: 1.5;" x1="81" x2="254" y1="31.9688" y2="31.9688"/><text fill="#000000" font-family="sans-serif" font-size="11" lengthAdjust="spacingAndGlyphs" textLength="163" x="86" y="46.1792">a crm:E22_Man-Made_Object</text><path d="M132.173,175.106 C121.095,183.313 109.646,193.494 101.5,205 C92.733,217.3831 87.1162,233.3549 83.6298,246.7606 " fill="none" style="stroke: #A80036; stroke-width: 1.0;"/><polygon fill="#A80036" points="82.3516,251.9491,88.3883,244.1672,83.5476,247.0942,80.6205,242.2536,82.3516,251.9491" style="stroke: #A80036; stroke-width: 1.0;"/><text fill="#000000" font-family="sans-serif" font-size="13" lengthAdjust="spacingAndGlyphs" textLength="110" x="102.5" y="218.0669">crm:P2_has_type</text><path d="M190.965,175.195 C199.82,183.993 209.643,194.537 217.5,205 C230.198,221.9102 241.777,243.3651 248.961,257.7162 " fill="none" style="stroke: #A80036; stroke-width: 1.0;"/><polygon fill="#A80036" points="251.224,262.294,250.8218,252.4534,249.0084,257.8117,243.6501,255.9983,251.224,262.294" style="stroke: #A80036; stroke-width: 1.0;"/><text fill="#000000" font-family="sans-serif" font-size="13" lengthAdjust="spacingAndGlyphs" textLength="58" x="229.5" y="218.0669">rdfs:label</text><path d="M167.5,53.231 C167.5,73.365 167.5,103.366 167.5,124.919 " fill="none" style="stroke: #A80036; stroke-width: 1.0;"/><polygon fill="#A80036" points="167.5,129.931,171.5,120.931,167.5,124.931,163.5,120.931,167.5,129.931" style="stroke: #A80036; stroke-width: 1.0;"/><text fill="#000000" font-family="sans-serif" font-size="13" lengthAdjust="spacingAndGlyphs" textLength="173" x="168.5" y="96.0669">crm:p67i_is_referred_to_by</text></g></svg>