<?xml version="1.0" encoding="UTF-8" standalone="no"?><svg xmlns="http://www.w3.org/2000/svg" xmlns:xlink="http://www.w3.org/1999/xlink" contentScriptType="application/ecmascript" contentStyleType="text/css" height="284px" preserveAspectRatio="none" style="width:462px;height:284px;" version="1.1" viewBox="0 0 462 284" width="462px" zoomAndPan="magnify"><defs><filter height="300%" id="ftmvihw" width="300%" x="-1" y="-1"><feGaussianBlur result="blurOut" stdDeviation="2.0"/><feColorMatrix in="blurOut" result="blurOut2" type="matrix" values="0 0 0 0 0 0 0 0 0 0 0 0 0 0 0 0 0 0 .4 0"/><feOffset dx="4.0" dy="4.0" in="blurOut2" result="blurOut3"/><feBlend in="SourceGraphic" in2="blurOut3" mode="normal"/></filter></defs><g><!--class _gender_type_class_--><rect fill="#FEFECE" filter="url(#ftmvihw)" height="44.7734" style="stroke: #A80036; stroke-width: 1.5;" width="142" x="53.5" y="8"/><text fill="#000000" font-family="sans-serif" font-size="12" lengthAdjust="spacingAndGlyphs" textLength="136" x="56.5" y="24.1387">&lt;gender_type_class&gt;</text><line style="stroke: #A80036; stroke-width: 1.5;" x1="54.5" x2="194.5" y1="31.9688" y2="31.9688"/><text fill="#000000" font-family="sans-serif" font-size="11" lengthAdjust="spacingAndGlyphs" textLength="91" x="59.5" y="46.1792">a crm:E55_Type</text><!--class aat_300055147--><rect fill="#FEFECE" filter="url(#ftmvihw)" height="44.7734" style="stroke: #A80036; stroke-width: 1.5;" width="103" x="6" y="130"/><text fill="#000000" font-family="sans-serif" font-size="12" lengthAdjust="spacingAndGlyphs" textLength="97" x="9" y="146.1387">aat:300055147</text><line style="stroke: #A80036; stroke-width: 1.5;" x1="7" x2="108" y1="153.9688" y2="153.9688"/><text fill="#000000" font-family="sans-serif" font-size="11" lengthAdjust="spacingAndGlyphs" textLength="56" x="12" y="168.1792">"sex role"</text><!--class _gender_type_--><rect fill="#FEFECE" filter="url(#ftmvihw)" height="23.9688" style="stroke: #A80036; stroke-width: 1.5;" width="104" x="156.5" y="140.5"/><text fill="#000000" font-family="sans-serif" font-size="12" lengthAdjust="spacingAndGlyphs" textLength="98" x="159.5" y="156.6387">&lt;gender_type&gt;</text><!--class _gender_class_--><rect fill="#FEFECE" filter="url(#ftmvihw)" height="44.7734" style="stroke: #A80036; stroke-width: 1.5;" width="109" x="296" y="130"/><text fill="#000000" font-family="sans-serif" font-size="12" lengthAdjust="spacingAndGlyphs" textLength="103" x="299" y="146.1387">&lt;gender_class&gt;</text><line style="stroke: #A80036; stroke-width: 1.5;" x1="297" x2="404" y1="153.9688" y2="153.9688"/><text fill="#000000" font-family="sans-serif" font-size="11" lengthAdjust="spacingAndGlyphs" textLength="91" x="302" y="168.1792">a crm:E55_Type</text><!--class _gender_--><rect fill="#FEFECE" filter="url(#ftmvihw)" height="23.9688" style="stroke: #A80036; stroke-width: 1.5;" width="71" x="315" y="252"/><text fill="#000000" font-family="sans-serif" font-size="12" lengthAdjust="spacingAndGlyphs" textLength="65" x="318" y="268.1387">&lt;gender&gt;</text><!--class _entity_uri_--><rect fill="#FEFECE" filter="url(#ftmvihw)" height="44.7734" style="stroke: #A80036; stroke-width: 1.5;" width="105" x="298" y="8"/><text fill="#000000" font-family="sans-serif" font-size="12" lengthAdjust="spacingAndGlyphs" textLength="77" x="312" y="24.1387">&lt;entity_uri&gt;</text><line style="stroke: #A80036; stroke-width: 1.5;" x1="299" x2="402" y1="31.9688" y2="31.9688"/><text fill="#000000" font-family="sans-serif" font-size="11" lengthAdjust="spacingAndGlyphs" textLength="93" x="304" y="46.1792">a crm:E39_Actor</text><path d="M82.1024,53.095 C71.0995,60.92 60.6284,70.883 54.5,83 C48.0497,95.754 48.3095,111.611 50.4043,124.856 " fill="none" style="stroke: #A80036; stroke-width: 1.0;"/><polygon fill="#A80036" points="51.3241,129.98,53.6694,120.4145,50.4398,125.0588,45.7955,121.8293,51.3241,129.98" style="stroke: #A80036; stroke-width: 1.0;"/><text fill="#000000" font-family="sans-serif" font-size="13" lengthAdjust="spacingAndGlyphs" textLength="109" x="55.5" y="96.0669">skos:broadMatch</text><path d="M145.008,53.006 C153.072,61.948 162.14,72.644 169.5,83 C181.75,100.238 193.422,121.625 200.75,135.87 " fill="none" style="stroke: #A80036; stroke-width: 1.0;"/><polygon fill="#A80036" points="203.063,140.412,202.5416,130.577,200.7933,135.9568,195.4134,134.2085,203.063,140.412" style="stroke: #A80036; stroke-width: 1.0;"/><text fill="#000000" font-family="sans-serif" font-size="13" lengthAdjust="spacingAndGlyphs" textLength="92" x="181.5" y="96.0669">skos:prefLabel</text><path d="M350.5,175.134 C350.5,196.213 350.5,227.783 350.5,246.7869 " fill="none" style="stroke: #A80036; stroke-width: 1.0;"/><polygon fill="#A80036" points="350.5,251.7946,354.5,242.7946,350.5,246.7946,346.5,242.7946,350.5,251.7946" style="stroke: #A80036; stroke-width: 1.0;"/><text fill="#000000" font-family="sans-serif" font-size="13" lengthAdjust="spacingAndGlyphs" textLength="58" x="351.5" y="218.0669">rdfs:label</text><path d="M350.5,53.231 C350.5,73.365 350.5,103.366 350.5,124.919 " fill="none" style="stroke: #A80036; stroke-width: 1.0;"/><polygon fill="#A80036" points="350.5,129.931,354.5,120.931,350.5,124.931,346.5,120.931,350.5,129.931" style="stroke: #A80036; stroke-width: 1.0;"/><text fill="#000000" font-family="sans-serif" font-size="13" lengthAdjust="spacingAndGlyphs" textLength="110" x="351.5" y="96.0669">crm:P2_has_type</text></g></svg>