<?xml version="1.0" encoding="UTF-8" standalone="no"?><svg xmlns="http://www.w3.org/2000/svg" xmlns:xlink="http://www.w3.org/1999/xlink" contentScriptType="application/ecmascript" contentStyleType="text/css" height="745px" preserveAspectRatio="none" style="width:3270px;height:745px;" version="1.1" viewBox="0 0 3270 745" width="3270px" zoomAndPan="magnify"><defs><filter height="300%" id="fjh5keb" width="300%" x="-1" y="-1"><feGaussianBlur result="blurOut" stdDeviation="2.0"/><feColorMatrix in="blurOut" result="blurOut2" type="matrix" values="0 0 0 0 0 0 0 0 0 0 0 0 0 0 0 0 0 0 .4 0"/><feOffset dx="4.0" dy="4.0" in="blurOut2" result="blurOut3"/><feBlend in="SourceGraphic" in2="blurOut3" mode="normal"/></filter></defs><g><!--class _http___ycba_org5002_prov_1_--><rect fill="#FEFECE" filter="url(#fjh5keb)" height="44.7734" style="stroke: #A80036; stroke-width: 1.5;" width="388" x="463.5" y="284.5"/><text fill="#000000" font-family="sans-serif" font-size="12" lengthAdjust="spacingAndGlyphs" textLength="189" x="563" y="300.6387">&lt;http://ycba.org5002_prov-1&gt;</text><line style="stroke: #A80036; stroke-width: 1.5;" x1="464.5" x2="850.5" y1="308.4688" y2="308.4688"/><text fill="#000000" font-family="sans-serif" font-size="11" lengthAdjust="spacingAndGlyphs" textLength="46" x="469.5" y="322.6792">a &lt;http:</text><text fill="#000000" font-family="sans-serif" font-size="11" font-style="italic" lengthAdjust="spacingAndGlyphs" textLength="218" x="515.5" y="322.6792">crmE10_Transfer_of_Custody&gt;, &lt;http:</text><text fill="#000000" font-family="sans-serif" font-size="11" lengthAdjust="spacingAndGlyphs" textLength="112" x="733.5" y="322.6792">crmE8_Acquisition&gt;</text><!--class _http___ycba_org5002_--><rect fill="#FEFECE" filter="url(#fjh5keb)" height="57.5781" style="stroke: #A80036; stroke-width: 1.5;" width="245" x="1346" y="428"/><text fill="#000000" font-family="sans-serif" font-size="12" lengthAdjust="spacingAndGlyphs" textLength="144" x="1396.5" y="444.1387">&lt;http://ycba.org5002&gt;</text><line style="stroke: #A80036; stroke-width: 1.5;" x1="1347" x2="1590" y1="451.9688" y2="451.9688"/><text fill="#000000" font-family="sans-serif" font-size="11" lengthAdjust="spacingAndGlyphs" textLength="211" x="1352" y="466.1792">a &lt;http://crmE22_Man-Made_Object&gt;</text><text fill="#000000" font-family="sans-serif" font-size="11" lengthAdjust="spacingAndGlyphs" textLength="233" x="1352" y="478.9839">&lt;http://crmrlabel&gt; "The Earl of Newport"</text><!--class _http___ycba_org_partiessecond_earl_of_newport_--><rect fill="#FEFECE" filter="url(#fjh5keb)" height="23.9688" style="stroke: #A80036; stroke-width: 1.5;" width="317" x="208" y="445"/><text fill="#000000" font-family="sans-serif" font-size="12" lengthAdjust="spacingAndGlyphs" textLength="311" x="211" y="461.1387">&lt;http://ycba.org/partiessecond_earl_of_newport&gt;</text><!--class _http___ycba_org_partiesfirst_earl_of_newport_--><rect fill="#FEFECE" filter="url(#fjh5keb)" height="23.9688" style="stroke: #A80036; stroke-width: 1.5;" width="295" x="885" y="445"/><text fill="#000000" font-family="sans-serif" font-size="12" lengthAdjust="spacingAndGlyphs" textLength="289" x="888" y="461.1387">&lt;http://ycba.org/partiesfirst_earl_of_newport&gt;</text><!--class _aaaby_descent_--><rect fill="#FEFECE" filter="url(#fjh5keb)" height="23.9688" style="stroke: #A80036; stroke-width: 1.5;" width="121" x="597" y="445"/><text fill="#000000" font-family="sans-serif" font-size="12" lengthAdjust="spacingAndGlyphs" textLength="115" x="600" y="461.1387">&lt;aaaby_descent&gt;</text><!--class _5002_initial_ownership_--><rect fill="#FEFECE" filter="url(#fjh5keb)" height="23.9688" style="stroke: #A80036; stroke-width: 1.5;" width="167" x="6" y="445"/><text fill="#000000" font-family="sans-serif" font-size="12" lengthAdjust="spacingAndGlyphs" textLength="161" x="9" y="461.1387">&lt;5002_initial_ownership&gt;</text><!--class _http___ycba_org5002_initial_ownership_--><rect fill="#FEFECE" filter="url(#fjh5keb)" height="57.5781" style="stroke: #A80036; stroke-width: 1.5;" width="654" x="1521.5" y="278"/><text fill="#000000" font-family="sans-serif" font-size="12" lengthAdjust="spacingAndGlyphs" textLength="253" x="1722" y="294.1387">&lt;http://ycba.org5002_initial_ownership&gt;</text><line style="stroke: #A80036; stroke-width: 1.5;" x1="1522.5" x2="2174.5" y1="301.9688" y2="301.9688"/><text fill="#000000" font-family="sans-serif" font-size="11" lengthAdjust="spacingAndGlyphs" textLength="46" x="1527.5" y="316.1792">a &lt;http:</text><text fill="#000000" font-family="sans-serif" font-size="11" font-style="italic" lengthAdjust="spacingAndGlyphs" textLength="218" x="1573.5" y="316.1792">crmE10_Transfer_of_Custody&gt;, &lt;http:</text><text fill="#000000" font-family="sans-serif" font-size="11" lengthAdjust="spacingAndGlyphs" textLength="112" x="1791.5" y="316.1792">crmE8_Acquisition&gt;</text><text fill="#000000" font-family="sans-serif" font-size="11" lengthAdjust="spacingAndGlyphs" textLength="642" x="1527.5" y="328.9839">&lt;http://crmP3_has_note&gt; "Earls of Newport by descent to 4th Earl, who died in 1679, when title became extinct"</text><!--class _aaacreation_--><rect fill="#FEFECE" filter="url(#fjh5keb)" height="23.9688" style="stroke: #A80036; stroke-width: 1.5;" width="102" x="2071.5" y="445"/><text fill="#000000" font-family="sans-serif" font-size="12" lengthAdjust="spacingAndGlyphs" textLength="96" x="2074.5" y="461.1387">&lt;aaacreation&gt;</text><!--class _http___ycba_org_parties500303557_--><rect fill="#FEFECE" filter="url(#fjh5keb)" height="57.5781" style="stroke: #A80036; stroke-width: 1.5;" width="279" x="1329" y="578"/><text fill="#000000" font-family="sans-serif" font-size="12" lengthAdjust="spacingAndGlyphs" textLength="232" x="1352.5" y="594.1387">&lt;http://ycba.org/parties500303557&gt;</text><line style="stroke: #A80036; stroke-width: 1.5;" x1="1330" x2="1607" y1="601.9688" y2="601.9688"/><text fill="#000000" font-family="sans-serif" font-size="11" lengthAdjust="spacingAndGlyphs" textLength="176" x="1335" y="616.1792">a &lt;http://crmE40_Legal_Body&gt;</text><text fill="#000000" font-family="sans-serif" font-size="11" lengthAdjust="spacingAndGlyphs" textLength="267" x="1335" y="628.9839">&lt;http://crmrlabel&gt; "Yale Center for British Art"</text><!--class _http___geonames_org4839366_--><rect fill="#FEFECE" filter="url(#fjh5keb)" height="23.9688" style="stroke: #A80036; stroke-width: 1.5;" width="211" x="1363" y="713"/><text fill="#000000" font-family="sans-serif" font-size="12" lengthAdjust="spacingAndGlyphs" textLength="205" x="1366" y="729.1387">&lt;http://geonames.org4839366&gt;</text><!--class _http___museumprovenance_orgprovenance_record_--><rect fill="#FEFECE" filter="url(#fjh5keb)" height="57.5781" style="stroke: #A80036; stroke-width: 1.5;" width="337" x="1693" y="143"/><text fill="#000000" font-family="sans-serif" font-size="12" lengthAdjust="spacingAndGlyphs" textLength="331" x="1696" y="159.1387">&lt;http://museumprovenance.orgprovenance_record&gt;</text><line style="stroke: #A80036; stroke-width: 1.5;" x1="1694" x2="2029" y1="166.9688" y2="166.9688"/><text fill="#000000" font-family="sans-serif" font-size="11" lengthAdjust="spacingAndGlyphs" textLength="139" x="1699" y="181.1792">a &lt;http://crmE55_Type&gt;</text><text fill="#000000" font-family="sans-serif" font-size="11" lengthAdjust="spacingAndGlyphs" textLength="281" x="1699" y="193.9839">&lt;http://crmrlabel&gt; "A written provenance record"</text><!--class _http___ycba_org_partieslady_caroline_damer_and_husband_--><rect fill="#FEFECE" filter="url(#fjh5keb)" height="44.7734" style="stroke: #A80036; stroke-width: 1.5;" width="384" x="2582.5" y="14.5"/><text fill="#000000" font-family="sans-serif" font-size="12" lengthAdjust="spacingAndGlyphs" textLength="378" x="2585.5" y="30.6387">&lt;http://ycba.org/partieslady_caroline_damer_and_husband&gt;</text><line style="stroke: #A80036; stroke-width: 1.5;" x1="2583.5" x2="2965.5" y1="38.4688" y2="38.4688"/><text fill="#000000" font-family="sans-serif" font-size="11" lengthAdjust="spacingAndGlyphs" textLength="176" x="2588.5" y="52.6792">a &lt;http://crmE40_Legal_Body&gt;</text><!--class _http___ycba_orghenry_dawson_damer_--><rect fill="#FEFECE" filter="url(#fjh5keb)" height="23.9688" style="stroke: #A80036; stroke-width: 1.5;" width="251" x="2462" y="160"/><text fill="#000000" font-family="sans-serif" font-size="12" lengthAdjust="spacingAndGlyphs" textLength="245" x="2465" y="176.1387">&lt;http://ycba.orghenry_dawson-damer&gt;</text><!--class _http___ycba_orglady_caroline_damer_--><rect fill="#FEFECE" filter="url(#fjh5keb)" height="23.9688" style="stroke: #A80036; stroke-width: 1.5;" width="245" x="2839" y="160"/><text fill="#000000" font-family="sans-serif" font-size="12" lengthAdjust="spacingAndGlyphs" textLength="239" x="2842" y="176.1387">&lt;http://ycba.orglady_caroline_damer&gt;</text><!--class _http___ycba_org5002_provenance_--><rect fill="#FEFECE" filter="url(#fjh5keb)" height="57.5781" style="stroke: #A80036; stroke-width: 1.5;" width="230" x="1746.5" y="8"/><text fill="#000000" font-family="sans-serif" font-size="12" lengthAdjust="spacingAndGlyphs" textLength="224" x="1749.5" y="24.1387">&lt;http://ycba.org5002_provenance&gt;</text><line style="stroke: #A80036; stroke-width: 1.5;" x1="1747.5" x2="1975.5" y1="31.9688" y2="31.9688"/><text fill="#000000" font-family="sans-serif" font-size="11" lengthAdjust="spacingAndGlyphs" textLength="169" x="1752.5" y="46.1792">a &lt;http://crmE31_Document&gt;</text><text fill="#000000" font-family="sans-serif" font-size="11" lengthAdjust="spacingAndGlyphs" textLength="172" x="1752.5" y="58.9839">&lt;http://crmP3_has_note&gt; "..."</text><!--class _http___ycba_org5002_provenance_period_--><rect fill="#FEFECE" filter="url(#fjh5keb)" height="44.7734" style="stroke: #A80036; stroke-width: 1.5;" width="276" x="2150.5" y="149.5"/><text fill="#000000" font-family="sans-serif" font-size="12" lengthAdjust="spacingAndGlyphs" textLength="270" x="2153.5" y="165.6387">&lt;http://ycba.org5002_provenance_period&gt;</text><line style="stroke: #A80036; stroke-width: 1.5;" x1="2151.5" x2="2425.5" y1="173.4688" y2="173.4688"/><text fill="#000000" font-family="sans-serif" font-size="11" lengthAdjust="spacingAndGlyphs" textLength="141" x="2156.5" y="187.6792">a &lt;http://crmE4_Period&gt;</text><!--class _http___museumprovenance_orgartwork_history_--><rect fill="#FEFECE" filter="url(#fjh5keb)" height="57.5781" style="stroke: #A80036; stroke-width: 1.5;" width="328" x="2210.5" y="278"/><text fill="#000000" font-family="sans-serif" font-size="12" lengthAdjust="spacingAndGlyphs" textLength="305" x="2222" y="294.1387">&lt;http://museumprovenance.orgartwork_history&gt;</text><line style="stroke: #A80036; stroke-width: 1.5;" x1="2211.5" x2="2537.5" y1="301.9688" y2="301.9688"/><text fill="#000000" font-family="sans-serif" font-size="11" lengthAdjust="spacingAndGlyphs" textLength="139" x="2216.5" y="316.1792">a &lt;http://crmE55_Type&gt;</text><text fill="#000000" font-family="sans-serif" font-size="11" lengthAdjust="spacingAndGlyphs" textLength="316" x="2216.5" y="328.9839">&lt;http://crmrlabel&gt; "The period of existence for a work"</text><!--class _5002_prov_1_--><rect fill="#FEFECE" filter="url(#fjh5keb)" height="23.9688" style="stroke: #A80036; stroke-width: 1.5;" width="103" x="2574" y="295"/><text fill="#000000" font-family="sans-serif" font-size="12" lengthAdjust="spacingAndGlyphs" textLength="97" x="2577" y="311.1387">&lt;5002_prov-1&gt;</text><path d="M851.679,319.454 C962.996,328.314 1090.47,343.031 1141.5,366 C1161.02,374.787 1158.33,388.464 1177.5,398 C1227.88,423.065 1288.24,437.3 1340.9,445.383 " fill="none" style="stroke: #A80036; stroke-width: 1.0;"/><polygon fill="#A80036" points="1345.97,446.146,1337.6642,440.8532,1341.0255,445.4031,1336.4756,448.7644,1345.97,446.146" style="stroke: #A80036; stroke-width: 1.0;"/><text fill="#000000" font-family="sans-serif" font-size="13" lengthAdjust="spacingAndGlyphs" textLength="221" x="1199.5" y="379.0669">&lt;http://crmP24_acquired_title_of&gt;</text><text fill="#000000" font-family="sans-serif" font-size="13" lengthAdjust="spacingAndGlyphs" textLength="263" x="1178.5" y="394.1997">&lt;http://crmP30_custody_transferred_of&gt;</text><path d="M500.229,329.518 C454.517,338.594 412.338,350.673 395.5,366 C374.55,385.071 368.667,419.33 367.057,439.633 " fill="none" style="stroke: #A80036; stroke-width: 1.0;"/><polygon fill="#A80036" points="366.721,444.721,371.3063,436.0047,367.051,439.7319,363.3238,435.4766,366.721,444.721" style="stroke: #A80036; stroke-width: 1.0;"/><text fill="#000000" font-family="sans-serif" font-size="13" lengthAdjust="spacingAndGlyphs" textLength="238" x="402" y="379.0669">&lt;http://crmP22_transferred_title_to&gt;</text><text fill="#000000" font-family="sans-serif" font-size="13" lengthAdjust="spacingAndGlyphs" textLength="249" x="396.5" y="394.1997">&lt;http://crmP29_custody_received_by&gt;</text><path d="M741.597,329.627 C769.647,338.699 800.384,350.746 826.5,366 C844.985,376.797 844.005,387.22 862.5,398 C898.836,419.179 944.069,434.14 978.74,443.557 " fill="none" style="stroke: #A80036; stroke-width: 1.0;"/><polygon fill="#A80036" points="983.776,444.906,976.1181,438.7128,978.9464,443.6118,974.0474,446.4402,983.776,444.906" style="stroke: #A80036; stroke-width: 1.0;"/><text fill="#000000" font-family="sans-serif" font-size="13" lengthAdjust="spacingAndGlyphs" textLength="255" x="872.5" y="379.0669">&lt;http://crmP23_transferred_title_from&gt;</text><text fill="#000000" font-family="sans-serif" font-size="13" lengthAdjust="spacingAndGlyphs" textLength="273" x="863.5" y="394.1997">&lt;http://crmP28_custody_surrendered_by&gt;</text><path d="M656.108,329.748 C655.48,340.629 654.81,354.005 654.5,366 C654.133,380.217 654.133,383.783 654.5,398 C654.866,412.16 655.734,428.246 656.442,439.879 " fill="none" style="stroke: #A80036; stroke-width: 1.0;"/><polygon fill="#A80036" points="656.754,444.888,660.1856,435.6563,656.4426,439.8977,652.2012,436.1546,656.754,444.888" style="stroke: #A80036; stroke-width: 1.0;"/><text fill="#000000" font-family="sans-serif" font-size="13" lengthAdjust="spacingAndGlyphs" textLength="166" x="655.5" y="386.5669">&lt;http://crmP2_has_type&gt;</text><path d="M463.348,315.475 C346.851,322.861 211.642,337.426 160.5,366 C129.94,383.075 107.856,419.175 97.0277,440.095 " fill="none" style="stroke: #A80036; stroke-width: 1.0;"/><polygon fill="#A80036" points="94.6419,444.816,102.2718,438.5883,96.8975,440.3537,95.1321,434.9793,94.6419,444.816" style="stroke: #A80036; stroke-width: 1.0;"/><text fill="#000000" font-family="sans-serif" font-size="13" lengthAdjust="spacingAndGlyphs" textLength="206" x="161.5" y="386.5669">&lt;http://crmP120i_occurs_after&gt;</text><path d="M1829.9,336.157 C1813.91,359.511 1791.43,390.119 1778.5,398 C1747.91,416.644 1667.59,431.383 1596.38,441.337 " fill="none" style="stroke: #A80036; stroke-width: 1.0;"/><polygon fill="#A80036" points="1591.27,442.046,1600.7336,444.7736,1596.2227,441.3601,1599.6362,436.8492,1591.27,442.046" style="stroke: #A80036; stroke-width: 1.0;"/><text fill="#000000" font-family="sans-serif" font-size="13" lengthAdjust="spacingAndGlyphs" textLength="221" x="1829.5" y="379.0669">&lt;http://crmP24_acquired_title_of&gt;</text><text fill="#000000" font-family="sans-serif" font-size="13" lengthAdjust="spacingAndGlyphs" textLength="263" x="1808.5" y="394.1997">&lt;http://crmP30_custody_transferred_of&gt;</text><path d="M1641.62,336.008 C1600.68,343.912 1558.37,353.789 1519.5,366 C1487.25,376.131 1482.93,388.461 1450.5,398 C1364.7,423.236 1265.68,437.593 1185.56,445.708 " fill="none" style="stroke: #A80036; stroke-width: 1.0;"/><polygon fill="#A80036" points="1180.31,446.233,1189.6649,449.3128,1185.2849,445.7329,1188.8648,441.3529,1180.31,446.233" style="stroke: #A80036; stroke-width: 1.0;"/><text fill="#000000" font-family="sans-serif" font-size="13" lengthAdjust="spacingAndGlyphs" textLength="238" x="1526" y="379.0669">&lt;http://crmP22_transferred_title_to&gt;</text><text fill="#000000" font-family="sans-serif" font-size="13" lengthAdjust="spacingAndGlyphs" textLength="249" x="1520.5" y="394.1997">&lt;http://crmP29_custody_received_by&gt;</text><path d="M2034.25,336.113 C2052.07,343.865 2068.9,353.654 2083.5,366 C2105.94,384.976 2115.85,419.268 2119.92,439.603 " fill="none" style="stroke: #A80036; stroke-width: 1.0;"/><polygon fill="#A80036" points="2120.88,444.699,2123.1502,435.1154,2119.9572,439.7849,2115.2876,436.5919,2120.88,444.699" style="stroke: #A80036; stroke-width: 1.0;"/><text fill="#000000" font-family="sans-serif" font-size="13" lengthAdjust="spacingAndGlyphs" textLength="166" x="2108.5" y="386.5669">&lt;http://crmP2_has_type&gt;</text><path d="M1468.5,636.08 C1468.5,658.4421 1468.5,688.9749 1468.5,707.5464 " fill="none" style="stroke: #A80036; stroke-width: 1.0;"/><polygon fill="#A80036" points="1468.5,712.9037,1472.5,703.9037,1468.5,707.9037,1464.5,703.9037,1468.5,712.9037" style="stroke: #A80036; stroke-width: 1.0;"/><text fill="#000000" font-family="sans-serif" font-size="13" lengthAdjust="spacingAndGlyphs" textLength="319" x="1469.5" y="679.0669">&lt;http://crmP53_has_former_or_current_location&gt;</text><path d="M1468.5,486.186 C1468.5,510.875 1468.5,546.781 1468.5,572.844 " fill="none" style="stroke: #A80036; stroke-width: 1.0;"/><polygon fill="#A80036" points="1468.5,577.919,1472.5,568.919,1468.5,572.919,1464.5,568.919,1468.5,577.919" style="stroke: #A80036; stroke-width: 1.0;"/><text fill="#000000" font-family="sans-serif" font-size="13" lengthAdjust="spacingAndGlyphs" textLength="243" x="1469.5" y="529.0669">&lt;http://crmP50_has_current_keeper&gt;</text><text fill="#000000" font-family="sans-serif" font-size="13" lengthAdjust="spacingAndGlyphs" textLength="237" x="1472.5" y="544.1997">&lt;http://crmP52_has_current_owner&gt;</text><path d="M2630.7,59.565 C2612.66,68.153 2596.4,79.923 2584.5,96 C2571.92,112.99 2576.49,138.563 2581.52,155.02 " fill="none" style="stroke: #A80036; stroke-width: 1.0;"/><polygon fill="#A80036" points="2583.08,159.814,2584.103,150.0184,2581.5349,155.0587,2576.4946,152.4906,2583.08,159.814" style="stroke: #A80036; stroke-width: 1.0;"/><text fill="#000000" font-family="sans-serif" font-size="13" lengthAdjust="spacingAndGlyphs" textLength="332" x="2585.5" y="109.0669">&lt;http://crmP107_has_current_or_former_member&gt;</text><path d="M2859.88,59.617 C2882.1,68.242 2904.75,80.038 2922.5,96 C2940.3,112.008 2951.25,138.067 2956.85,154.869 " fill="none" style="stroke: #A80036; stroke-width: 1.0;"/><polygon fill="#A80036" points="2958.42,159.765,2959.4803,149.9734,2956.893,155.0039,2951.8625,152.4166,2958.42,159.765" style="stroke: #A80036; stroke-width: 1.0;"/><text fill="#000000" font-family="sans-serif" font-size="13" lengthAdjust="spacingAndGlyphs" textLength="332" x="2937.5" y="109.0669">&lt;http://crmP107_has_current_or_former_member&gt;</text><path d="M1861.5,66.206 C1861.5,87.101 1861.5,115.649 1861.5,137.671 " fill="none" style="stroke: #A80036; stroke-width: 1.0;"/><polygon fill="#A80036" points="1861.5,142.835,1865.5,133.835,1861.5,137.835,1857.5,133.835,1861.5,142.835" style="stroke: #A80036; stroke-width: 1.0;"/><text fill="#000000" font-family="sans-serif" font-size="13" lengthAdjust="spacingAndGlyphs" textLength="166" x="1862.5" y="109.0669">&lt;http://crmP2_has_type&gt;</text><path d="M1785.83,66.06 C1701.64,101.574 1568.89,171.292 1503.5,278 C1476.05,322.792 1469.51,384.779 1468.29,422.54 " fill="none" style="stroke: #A80036; stroke-width: 1.0;"/><polygon fill="#A80036" points="1468.15,427.931,1472.3876,419.0404,1468.2828,422.9328,1464.3905,418.8279,1468.15,427.931" style="stroke: #A80036; stroke-width: 1.0;"/><text fill="#000000" font-family="sans-serif" font-size="13" lengthAdjust="spacingAndGlyphs" textLength="178" x="1539.5" y="244.0669">&lt;http://crmP129_is_about&gt;</text><path d="M1951.53,66.043 C2029.55,90.343 2141.08,125.082 2214.12,147.834 " fill="none" style="stroke: #A80036; stroke-width: 1.0;"/><polygon fill="#A80036" points="2219.32,149.451,2211.9156,142.9568,2214.546,147.9649,2209.5378,150.5953,2219.32,149.451" style="stroke: #A80036; stroke-width: 1.0;"/><text fill="#000000" font-family="sans-serif" font-size="13" lengthAdjust="spacingAndGlyphs" textLength="188" x="2102.5" y="109.0669">&lt;http://crmP70_documents&gt;</text><path d="M2217.32,194.517 C2143.75,216.754 2028.38,251.626 1946.28,276.443 " fill="none" style="stroke: #A80036; stroke-width: 1.0;"/><polygon fill="#A80036" points="1941.42,277.914,1951.1915,279.1458,1946.2072,276.4707,1948.8823,271.4863,1941.42,277.914" style="stroke: #A80036; stroke-width: 1.0;"/><text fill="#000000" font-family="sans-serif" font-size="13" lengthAdjust="spacingAndGlyphs" textLength="179" x="2096.5" y="244.0669">&lt;http://crmP9_consists_of&gt;</text><path d="M2302.51,194.665 C2316.31,216.008 2337.57,248.883 2353.41,273.385 " fill="none" style="stroke: #A80036; stroke-width: 1.0;"/><polygon fill="#A80036" points="2356.3,277.858,2354.7745,268.128,2353.5861,273.6586,2348.0555,272.4702,2356.3,277.858" style="stroke: #A80036; stroke-width: 1.0;"/><text fill="#000000" font-family="sans-serif" font-size="13" lengthAdjust="spacingAndGlyphs" textLength="166" x="2338.5" y="244.0669">&lt;http://crmP2_has_type&gt;</text><path d="M2402.62,194.517 C2438.95,203.433 2478.71,215.415 2513.5,231 C2549.74,247.234 2587.14,274.899 2608.25,291.708 " fill="none" style="stroke: #A80036; stroke-width: 1.0;"/><polygon fill="#A80036" points="2612.25,294.919,2607.7342,286.1664,2608.3504,291.7896,2602.7272,292.4058,2612.25,294.919" style="stroke: #A80036; stroke-width: 1.0;"/><text fill="#000000" font-family="sans-serif" font-size="13" lengthAdjust="spacingAndGlyphs" textLength="179" x="2544.5" y="244.0669">&lt;http://crmP9_consists_of&gt;</text></g></svg>