<?xml version="1.0" encoding="UTF-8" standalone="no"?><svg xmlns="http://www.w3.org/2000/svg" xmlns:xlink="http://www.w3.org/1999/xlink" contentScriptType="application/ecmascript" contentStyleType="text/css" height="320px" preserveAspectRatio="none" style="width:300px;height:320px;" version="1.1" viewBox="0 0 300 320" width="300px" zoomAndPan="magnify"><defs><filter height="300%" id="fky93mw" width="300%" x="-1" y="-1"><feGaussianBlur result="blurOut" stdDeviation="2.0"/><feColorMatrix in="blurOut" result="blurOut2" type="matrix" values="0 0 0 0 0 0 0 0 0 0 0 0 0 0 0 0 0 0 .4 0"/><feOffset dx="4.0" dy="4.0" in="blurOut2" result="blurOut3"/><feBlend in="SourceGraphic" in2="blurOut3" mode="normal"/></filter></defs><g><!--class aat_300404621--><rect fill="#FEFECE" filter="url(#fky93mw)" height="44.7734" style="stroke: #A80036; stroke-width: 1.5;" width="135" x="6" y="267"/><text fill="#000000" font-family="sans-serif" font-size="12" lengthAdjust="spacingAndGlyphs" textLength="97" x="25" y="283.1387">aat:300404621</text><line style="stroke: #A80036; stroke-width: 1.5;" x1="7" x2="140" y1="290.9688" y2="290.9688"/><text fill="#000000" font-family="sans-serif" font-size="11" lengthAdjust="spacingAndGlyphs" textLength="123" x="12" y="305.1792">"repository numbers"</text><!--class _identifier_url_--><rect fill="#FEFECE" filter="url(#fky93mw)" height="44.7734" style="stroke: #A80036; stroke-width: 1.5;" width="126" x="86.5" y="130"/><text fill="#000000" font-family="sans-serif" font-size="12" lengthAdjust="spacingAndGlyphs" textLength="97" x="101" y="146.1387">&lt;identifier_url&gt;</text><line style="stroke: #A80036; stroke-width: 1.5;" x1="87.5" x2="211.5" y1="153.9688" y2="153.9688"/><text fill="#000000" font-family="sans-serif" font-size="11" lengthAdjust="spacingAndGlyphs" textLength="114" x="92.5" y="168.1792">a crm:E42_Identifier</text><!--class _identifier_--><rect fill="#FEFECE" filter="url(#fky93mw)" height="23.9688" style="stroke: #A80036; stroke-width: 1.5;" width="81" x="185" y="277.5"/><text fill="#000000" font-family="sans-serif" font-size="12" lengthAdjust="spacingAndGlyphs" textLength="75" x="188" y="293.6387">&lt;identifier&gt;</text><!--class _entity_uri_--><rect fill="#FEFECE" filter="url(#fky93mw)" height="44.7734" style="stroke: #A80036; stroke-width: 1.5;" width="175" x="62" y="8"/><text fill="#000000" font-family="sans-serif" font-size="12" lengthAdjust="spacingAndGlyphs" textLength="77" x="111" y="24.1387">&lt;entity_uri&gt;</text><line style="stroke: #A80036; stroke-width: 1.5;" x1="63" x2="236" y1="31.9688" y2="31.9688"/><text fill="#000000" font-family="sans-serif" font-size="11" lengthAdjust="spacingAndGlyphs" textLength="163" x="68" y="46.1792">a crm:E22_Man-Made_Object</text><path d="M100.1301,175.091 C88.324,182.746 77.2076,192.62 70.5,205 C61.1687,222.222 62.516,244.5073 65.8728,261.723 " fill="none" style="stroke: #A80036; stroke-width: 1.0;"/><polygon fill="#A80036" points="66.9695,266.8919,69.0143,257.2576,65.9317,262.0008,61.1885,258.9182,66.9695,266.8919" style="stroke: #A80036; stroke-width: 1.0;"/><text fill="#000000" font-family="sans-serif" font-size="13" lengthAdjust="spacingAndGlyphs" textLength="110" x="71.5" y="225.5669">crm:P2_has_type</text><path d="M166.46,175.201 C173.104,184.172 180.545,194.836 186.5,205 C199.694,227.5193 211.908,255.2434 219.035,272.3957 " fill="none" style="stroke: #A80036; stroke-width: 1.0;"/><polygon fill="#A80036" points="221.078,277.3619,221.3525,267.5169,219.1755,272.738,213.9543,270.5609,221.078,277.3619" style="stroke: #A80036; stroke-width: 1.0;"/><text fill="#000000" font-family="sans-serif" font-size="13" lengthAdjust="spacingAndGlyphs" textLength="58" x="203.5" y="218.0669">rdfs:label</text><text fill="#000000" font-family="sans-serif" font-size="13" lengthAdjust="spacingAndGlyphs" textLength="55" x="205" y="233.1997">rdf:value</text><path d="M149.5,53.231 C149.5,73.365 149.5,103.366 149.5,124.919 " fill="none" style="stroke: #A80036; stroke-width: 1.0;"/><polygon fill="#A80036" points="149.5,129.931,153.5,120.931,149.5,124.931,145.5,120.931,149.5,129.931" style="stroke: #A80036; stroke-width: 1.0;"/><text fill="#000000" font-family="sans-serif" font-size="13" lengthAdjust="spacingAndGlyphs" textLength="149" x="150.5" y="96.0669">crm:P1_is_identified_by</text></g></svg>