<?xml version="1.0" encoding="UTF-8" standalone="no"?><svg xmlns="http://www.w3.org/2000/svg" xmlns:xlink="http://www.w3.org/1999/xlink" contentScriptType="application/ecmascript" contentStyleType="text/css" height="305px" preserveAspectRatio="none" style="width:310px;height:305px;" version="1.1" viewBox="0 0 310 305" width="310px" zoomAndPan="magnify"><defs><filter height="300%" id="furaihw" width="300%" x="-1" y="-1"><feGaussianBlur result="blurOut" stdDeviation="2.0"/><feColorMatrix in="blurOut" result="blurOut2" type="matrix" values="0 0 0 0 0 0 0 0 0 0 0 0 0 0 0 0 0 0 .4 0"/><feOffset dx="4.0" dy="4.0" in="blurOut2" result="blurOut3"/><feBlend in="SourceGraphic" in2="blurOut3" mode="normal"/></filter></defs><g><!--class _rights_statement_class_--><rect fill="#FEFECE" filter="url(#furaihw)" height="44.7734" style="stroke: #A80036; stroke-width: 1.5;" width="171" x="49.5" y="130"/><text fill="#000000" font-family="sans-serif" font-size="12" lengthAdjust="spacingAndGlyphs" textLength="165" x="52.5" y="146.1387">&lt;rights_statement_class&gt;</text><line style="stroke: #A80036; stroke-width: 1.5;" x1="50.5" x2="219.5" y1="153.9688" y2="153.9688"/><text fill="#000000" font-family="sans-serif" font-size="11" lengthAdjust="spacingAndGlyphs" textLength="159" x="55.5" y="168.1792">a crm:E33_Linguistic_Object</text><!--class aat_300055547--><rect fill="#FEFECE" filter="url(#furaihw)" height="44.7734" style="stroke: #A80036; stroke-width: 1.5;" width="104" x="6" y="252"/><text fill="#000000" font-family="sans-serif" font-size="12" lengthAdjust="spacingAndGlyphs" textLength="97" x="9.5" y="268.1387">aat:300055547</text><line style="stroke: #A80036; stroke-width: 1.5;" x1="7" x2="109" y1="275.9688" y2="275.9688"/><text fill="#000000" font-family="sans-serif" font-size="11" lengthAdjust="spacingAndGlyphs" textLength="92" x="12" y="290.1792">"legal concepts"</text><!--class _rights_statement_--><rect fill="#FEFECE" filter="url(#furaihw)" height="23.9688" style="stroke: #A80036; stroke-width: 1.5;" width="133" x="145.5" y="262.5"/><text fill="#000000" font-family="sans-serif" font-size="12" lengthAdjust="spacingAndGlyphs" textLength="127" x="148.5" y="278.6387">&lt;rights_statement&gt;</text><!--class _entity_uri_--><rect fill="#FEFECE" filter="url(#furaihw)" height="44.7734" style="stroke: #A80036; stroke-width: 1.5;" width="175" x="47.5" y="8"/><text fill="#000000" font-family="sans-serif" font-size="12" lengthAdjust="spacingAndGlyphs" textLength="77" x="96.5" y="24.1387">&lt;entity_uri&gt;</text><line style="stroke: #A80036; stroke-width: 1.5;" x1="48.5" x2="221.5" y1="31.9688" y2="31.9688"/><text fill="#000000" font-family="sans-serif" font-size="11" lengthAdjust="spacingAndGlyphs" textLength="163" x="53.5" y="46.1792">a crm:E22_Man-Made_Object</text><path d="M86.2412,175.211 C74.5845,182.866 63.6123,192.711 57,205 C50.234,217.5751 50.0343,233.4219 51.7302,246.7055 " fill="none" style="stroke: #A80036; stroke-width: 1.0;"/><polygon fill="#A80036" points="52.4947,251.8463,55.1272,242.3558,51.7591,246.9007,47.2142,243.5327,52.4947,251.8463" style="stroke: #A80036; stroke-width: 1.0;"/><text fill="#000000" font-family="sans-serif" font-size="13" lengthAdjust="spacingAndGlyphs" textLength="110" x="58" y="218.0669">crm:P2_has_type</text><path d="M151.857,175.149 C158.672,184.202 166.457,194.94 173,205 C184.395,222.5217 196.076,243.5187 203.645,257.6072 " fill="none" style="stroke: #A80036; stroke-width: 1.0;"/><polygon fill="#A80036" points="206.047,262.1052,205.3342,252.2822,203.6909,257.6951,198.278,256.0519,206.047,262.1052" style="stroke: #A80036; stroke-width: 1.0;"/><text fill="#000000" font-family="sans-serif" font-size="13" lengthAdjust="spacingAndGlyphs" textLength="55" x="185" y="218.0669">rdf:value</text><path d="M135,53.231 C135,73.365 135,103.366 135,124.919 " fill="none" style="stroke: #A80036; stroke-width: 1.0;"/><polygon fill="#A80036" points="135,129.931,139,120.931,135,124.931,131,120.931,135,129.931" style="stroke: #A80036; stroke-width: 1.0;"/><text fill="#000000" font-family="sans-serif" font-size="13" lengthAdjust="spacingAndGlyphs" textLength="173" x="136" y="96.0669">crm:P67i_is_referred_to_by</text></g></svg>