<?xml version="1.0" encoding="UTF-8" standalone="no"?><svg xmlns="http://www.w3.org/2000/svg" xmlns:xlink="http://www.w3.org/1999/xlink" contentScriptType="application/ecmascript" contentStyleType="text/css" height="549px" preserveAspectRatio="none" style="width:764px;height:549px;" version="1.1" viewBox="0 0 764 549" width="764px" zoomAndPan="magnify"><defs><filter height="300%" id="fil8ol4" width="300%" x="-1" y="-1"><feGaussianBlur result="blurOut" stdDeviation="2.0"/><feColorMatrix in="blurOut" result="blurOut2" type="matrix" values="0 0 0 0 0 0 0 0 0 0 0 0 0 0 0 0 0 0 .4 0"/><feOffset dx="4.0" dy="4.0" in="blurOut2" result="blurOut3"/><feBlend in="SourceGraphic" in2="blurOut3" mode="normal"/></filter></defs><g><!--class _vase_--><rect fill="#FEFECE" filter="url(#fil8ol4)" height="44.7734" style="stroke: #A80036; stroke-width: 1.5;" width="175" x="366" y="8"/><text fill="#000000" font-family="sans-serif" font-size="12" lengthAdjust="spacingAndGlyphs" textLength="49" x="429" y="24.1387">&lt;vase&gt;</text><line style="stroke: #A80036; stroke-width: 1.5;" x1="367" x2="540" y1="31.9688" y2="31.9688"/><text fill="#000000" font-family="sans-serif" font-size="11" lengthAdjust="spacingAndGlyphs" textLength="163" x="372" y="46.1792">a crm:E22_Man-Made_Object</text><!--class _lot_--><rect fill="#FEFECE" filter="url(#fil8ol4)" height="44.7734" style="stroke: #A80036; stroke-width: 1.5;" width="131" x="206" y="130"/><text fill="#000000" font-family="sans-serif" font-size="12" lengthAdjust="spacingAndGlyphs" textLength="36" x="253.5" y="146.1387">&lt;lot&gt;</text><line style="stroke: #A80036; stroke-width: 1.5;" x1="207" x2="336" y1="153.9688" y2="153.9688"/><text fill="#000000" font-family="sans-serif" font-size="11" lengthAdjust="spacingAndGlyphs" textLength="119" x="212" y="168.1792">a crm:E78_Collection</text><!--class _transaction_of_vase_--><rect fill="#FEFECE" filter="url(#fil8ol4)" height="44.7734" style="stroke: #A80036; stroke-width: 1.5;" width="309" x="425" y="374"/><text fill="#000000" font-family="sans-serif" font-size="12" lengthAdjust="spacingAndGlyphs" textLength="145" x="507" y="390.1387">&lt;transaction_of_vase&gt;</text><line style="stroke: #A80036; stroke-width: 1.5;" x1="426" x2="733" y1="397.9688" y2="397.9688"/><text fill="#000000" font-family="sans-serif" font-size="11" lengthAdjust="spacingAndGlyphs" textLength="297" x="431" y="412.1792">a crm:E8_Acquisition, crm:E10_Transfer_of_Custody</text><!--class _sale_of_lot_--><rect fill="#FEFECE" filter="url(#fil8ol4)" height="44.7734" style="stroke: #A80036; stroke-width: 1.5;" width="130" x="206.5" y="252"/><text fill="#000000" font-family="sans-serif" font-size="12" lengthAdjust="spacingAndGlyphs" textLength="86" x="228.5" y="268.1387">&lt;sale_of_lot&gt;</text><line style="stroke: #A80036; stroke-width: 1.5;" x1="207.5" x2="335.5" y1="275.9688" y2="275.9688"/><text fill="#000000" font-family="sans-serif" font-size="11" lengthAdjust="spacingAndGlyphs" textLength="118" x="212.5" y="290.1792">a crm:E8_Acquisition</text><!--class _transaction_of_candlestick_--><rect fill="#FEFECE" filter="url(#fil8ol4)" height="44.7734" style="stroke: #A80036; stroke-width: 1.5;" width="309" x="81" y="374"/><text fill="#000000" font-family="sans-serif" font-size="12" lengthAdjust="spacingAndGlyphs" textLength="187" x="142" y="390.1387">&lt;transaction_of_candlestick&gt;</text><line style="stroke: #A80036; stroke-width: 1.5;" x1="82" x2="389" y1="397.9688" y2="397.9688"/><text fill="#000000" font-family="sans-serif" font-size="11" lengthAdjust="spacingAndGlyphs" textLength="297" x="87" y="412.1792">a crm:E8_Acquisition, crm:E10_Transfer_of_Custody</text><!--class _candlestick_--><rect fill="#FEFECE" filter="url(#fil8ol4)" height="44.7734" style="stroke: #A80036; stroke-width: 1.5;" width="175" x="6" y="496"/><text fill="#000000" font-family="sans-serif" font-size="12" lengthAdjust="spacingAndGlyphs" textLength="91" x="48" y="512.1387">&lt;candlestick&gt;</text><line style="stroke: #A80036; stroke-width: 1.5;" x1="7" x2="180" y1="519.9688" y2="519.9688"/><text fill="#000000" font-family="sans-serif" font-size="11" lengthAdjust="spacingAndGlyphs" textLength="163" x="12" y="534.1792">a crm:E22_Man-Made_Object</text><path d="M420.541,53.231 C388.974,74.045 341.414,105.403 308.549,127.072 " fill="none" style="stroke: #A80036; stroke-width: 1.0;"/><polygon fill="#A80036" points="304.214,129.931,313.9298,128.3177,308.3887,127.1793,309.5271,121.6382,304.214,129.931" style="stroke: #A80036; stroke-width: 1.0;"/><text fill="#000000" font-family="sans-serif" font-size="13" lengthAdjust="spacingAndGlyphs" textLength="152" x="374.5" y="96.0669">crm:p46i_forms_part_of</text><path d="M582.314,373.667 C588.132,319.546 596.278,176.799 535.5,83 C528.479,72.164 518.29,63.195 507.466,55.947 " fill="none" style="stroke: #A80036; stroke-width: 1.0;"/><polygon fill="#A80036" points="503.127,53.152,508.5252,61.3897,507.3298,55.8606,512.8589,54.6651,503.127,53.152" style="stroke: #A80036; stroke-width: 1.0;"/><text fill="#000000" font-family="sans-serif" font-size="13" lengthAdjust="spacingAndGlyphs" textLength="181" x="582.5" y="218.0669">crm:P24_transferred_title_of</text><path d="M318.138,297.057 C349.149,311.09 390.932,329.427 428.5,344 C454.041,353.908 482.386,363.847 507.555,372.315 " fill="none" style="stroke: #A80036; stroke-width: 1.0;"/><polygon fill="#A80036" points="512.545,373.988,505.2844,367.3334,507.8046,372.3979,502.7402,374.9181,512.545,373.988" style="stroke: #A80036; stroke-width: 1.0;"/><text fill="#000000" font-family="sans-serif" font-size="13" lengthAdjust="spacingAndGlyphs" textLength="117" x="429.5" y="340.0669">crm:P10i_contains</text><path d="M264.981,297.231 C258.94,317.365 249.94,347.366 243.474,368.919 " fill="none" style="stroke: #A80036; stroke-width: 1.0;"/><polygon fill="#A80036" points="241.971,373.931,248.3866,366.4584,243.4066,369.1415,240.7234,364.1615,241.971,373.931" style="stroke: #A80036; stroke-width: 1.0;"/><text fill="#000000" font-family="sans-serif" font-size="13" lengthAdjust="spacingAndGlyphs" textLength="117" x="257.5" y="340.0669">crm:P10i_contains</text><path d="M271.5,175.231 C271.5,195.365 271.5,225.366 271.5,246.919 " fill="none" style="stroke: #A80036; stroke-width: 1.0;"/><polygon fill="#A80036" points="271.5,251.931,275.5,242.931,271.5,246.931,267.5,242.931,271.5,251.931" style="stroke: #A80036; stroke-width: 1.0;"/><text fill="#000000" font-family="sans-serif" font-size="13" lengthAdjust="spacingAndGlyphs" textLength="149" x="272.5" y="218.0669">crm:P16i_was_used_for</text><path d="M209.785,419.231 C185.357,439.875 148.653,470.8915 123.036,492.5396 " fill="none" style="stroke: #A80036; stroke-width: 1.0;"/><polygon fill="#A80036" points="119.024,495.9306,128.4801,493.1769,122.8431,492.7034,123.3166,487.0664,119.024,495.9306" style="stroke: #A80036; stroke-width: 1.0;"/><text fill="#000000" font-family="sans-serif" font-size="13" lengthAdjust="spacingAndGlyphs" textLength="181" x="174.5" y="462.0669">crm:P24_transferred_title_of</text><path d="M82.8305,495.9612 C70.2675,467.7636 52.43,416.88 63.5,374 C86.7228,284.045 176.83,213.298 230.532,178.045 " fill="none" style="stroke: #A80036; stroke-width: 1.0;"/><polygon fill="#A80036" points="234.972,175.156,225.2464,176.7092,230.7804,177.8818,229.6077,183.4158,234.972,175.156" style="stroke: #A80036; stroke-width: 1.0;"/><text fill="#000000" font-family="sans-serif" font-size="13" lengthAdjust="spacingAndGlyphs" textLength="152" x="83.5" y="340.0669">crm:p46i_forms_part_of</text></g></svg>