<?xml version="1.0" encoding="UTF-8" standalone="no"?><svg xmlns="http://www.w3.org/2000/svg" xmlns:xlink="http://www.w3.org/1999/xlink" contentScriptType="application/ecmascript" contentStyleType="text/css" height="406px" preserveAspectRatio="none" style="width:356px;height:406px;" version="1.1" viewBox="0 0 356 406" width="356px" zoomAndPan="magnify"><defs><filter height="300%" id="fd4wevq" width="300%" x="-1" y="-1"><feGaussianBlur result="blurOut" stdDeviation="2.0"/><feColorMatrix in="blurOut" result="blurOut2" type="matrix" values="0 0 0 0 0 0 0 0 0 0 0 0 0 0 0 0 0 0 .4 0"/><feOffset dx="4.0" dy="4.0" in="blurOut2" result="blurOut3"/><feBlend in="SourceGraphic" in2="blurOut3" mode="normal"/></filter></defs><g><!--class _sort_name_class_--><rect fill="#FEFECE" filter="url(#fd4wevq)" height="44.7734" style="stroke: #A80036; stroke-width: 1.5;" width="173" x="15.5" y="130"/><text fill="#000000" font-family="sans-serif" font-size="12" lengthAdjust="spacingAndGlyphs" textLength="124" x="40" y="146.1387">&lt;sort_name_class&gt;</text><line style="stroke: #A80036; stroke-width: 1.5;" x1="16.5" x2="187.5" y1="153.9688" y2="153.9688"/><text fill="#000000" font-family="sans-serif" font-size="11" lengthAdjust="spacingAndGlyphs" textLength="161" x="21.5" y="168.1792">a crm:E82_Actor_Appellation</text><!--class _sort_name_--><rect fill="#FEFECE" filter="url(#fd4wevq)" height="23.9688" style="stroke: #A80036; stroke-width: 1.5;" width="92" x="6" y="262.5"/><text fill="#000000" font-family="sans-serif" font-size="12" lengthAdjust="spacingAndGlyphs" textLength="86" x="9" y="278.6387">&lt;sort_name&gt;</text><!--class _sort_name_type_url_--><rect fill="#FEFECE" filter="url(#fd4wevq)" height="44.7734" style="stroke: #A80036; stroke-width: 1.5;" width="147" x="133.5" y="252"/><text fill="#000000" font-family="sans-serif" font-size="12" lengthAdjust="spacingAndGlyphs" textLength="141" x="136.5" y="268.1387">&lt;sort_name_type_url&gt;</text><line style="stroke: #A80036; stroke-width: 1.5;" x1="134.5" x2="279.5" y1="275.9688" y2="275.9688"/><text fill="#000000" font-family="sans-serif" font-size="11" lengthAdjust="spacingAndGlyphs" textLength="91" x="139.5" y="290.1792">a crm:E55_Type</text><!--class _entity_uri_--><rect fill="#FEFECE" filter="url(#fd4wevq)" height="44.7734" style="stroke: #A80036; stroke-width: 1.5;" width="105" x="49.5" y="8"/><text fill="#000000" font-family="sans-serif" font-size="12" lengthAdjust="spacingAndGlyphs" textLength="77" x="63.5" y="24.1387">&lt;entity_uri&gt;</text><line style="stroke: #A80036; stroke-width: 1.5;" x1="50.5" x2="153.5" y1="31.9688" y2="31.9688"/><text fill="#000000" font-family="sans-serif" font-size="11" lengthAdjust="spacingAndGlyphs" textLength="93" x="55.5" y="46.1792">a crm:E39_Actor</text><!--class aac_types_sort_name_type--><rect fill="#FEFECE" filter="url(#fd4wevq)" height="23.9688" style="stroke: #A80036; stroke-width: 1.5;" width="172" x="40" y="374"/><text fill="#000000" font-family="sans-serif" font-size="12" lengthAdjust="spacingAndGlyphs" textLength="166" x="43" y="390.1387">aac_types:sort_name_type</text><!--class _sort_type_--><rect fill="#FEFECE" filter="url(#fd4wevq)" height="23.9688" style="stroke: #A80036; stroke-width: 1.5;" width="84" x="247" y="374"/><text fill="#000000" font-family="sans-serif" font-size="12" lengthAdjust="spacingAndGlyphs" textLength="78" x="250" y="390.1387">&lt;sort_type&gt;</text><path d="M90.3546,175.004 C85.6221,184.127 80.2741,194.954 76,205 C68.5306,222.556 61.5015,243.306 57.0046,257.332 " fill="none" style="stroke: #A80036; stroke-width: 1.0;"/><polygon fill="#A80036" points="55.4663,262.176,62.002,254.8082,56.9792,257.4104,54.377,252.3876,55.4663,262.176" style="stroke: #A80036; stroke-width: 1.0;"/><text fill="#000000" font-family="sans-serif" font-size="13" lengthAdjust="spacingAndGlyphs" textLength="58" x="77" y="218.0669">rdfs:label</text><path d="M121.015,175.231 C138.929,195.705 165.771,226.382 184.69,248.003 " fill="none" style="stroke: #A80036; stroke-width: 1.0;"/><polygon fill="#A80036" points="188.127,251.931,185.2103,242.5239,184.8343,248.1683,179.1899,247.7923,188.127,251.931" style="stroke: #A80036; stroke-width: 1.0;"/><text fill="#000000" font-family="sans-serif" font-size="13" lengthAdjust="spacingAndGlyphs" textLength="110" x="162" y="218.0669">crm:P2_has_type</text><path d="M102,53.231 C102,73.365 102,103.366 102,124.919 " fill="none" style="stroke: #A80036; stroke-width: 1.0;"/><polygon fill="#A80036" points="102,129.931,106,120.931,102,124.931,98,120.931,102,129.931" style="stroke: #A80036; stroke-width: 1.0;"/><text fill="#000000" font-family="sans-serif" font-size="13" lengthAdjust="spacingAndGlyphs" textLength="165" x="103" y="96.0669">crm:P131_is_identified_by</text><path d="M165.34,297.004 C153.797,304.9229 142.413,314.9603 135,327 C127.309,339.4907 125.422,356.2736 125.243,368.5719 " fill="none" style="stroke: #A80036; stroke-width: 1.0;"/><polygon fill="#A80036" points="125.266,373.8754,129.2261,364.8578,125.2439,368.8754,121.2262,364.8932,125.266,373.8754" style="stroke: #A80036; stroke-width: 1.0;"/><text fill="#000000" font-family="sans-serif" font-size="13" lengthAdjust="spacingAndGlyphs" textLength="109" x="136" y="340.0669">skos:broadMatch</text><path d="M225.927,297.148 C233.616,306.2008 242.449,316.9388 250,327 C260.417,340.8796 271.367,357.3529 279.003,369.1902 " fill="none" style="stroke: #A80036; stroke-width: 1.0;"/><polygon fill="#A80036" points="281.86,373.6422,280.3665,363.9072,279.1599,369.4339,273.6332,368.2274,281.86,373.6422" style="stroke: #A80036; stroke-width: 1.0;"/><text fill="#000000" font-family="sans-serif" font-size="13" lengthAdjust="spacingAndGlyphs" textLength="92" x="263" y="340.0669">skos:prefLabel</text></g></svg>