<?xml version="1.0" encoding="UTF-8" standalone="no"?><svg xmlns="http://www.w3.org/2000/svg" xmlns:xlink="http://www.w3.org/1999/xlink" contentScriptType="application/ecmascript" contentStyleType="text/css" height="427px" preserveAspectRatio="none" style="width:404px;height:427px;" version="1.1" viewBox="0 0 404 427" width="404px" zoomAndPan="magnify"><defs><filter height="300%" id="fovxdtu" width="300%" x="-1" y="-1"><feGaussianBlur result="blurOut" stdDeviation="2.0"/><feColorMatrix in="blurOut" result="blurOut2" type="matrix" values="0 0 0 0 0 0 0 0 0 0 0 0 0 0 0 0 0 0 .4 0"/><feOffset dx="4.0" dy="4.0" in="blurOut2" result="blurOut3"/><feBlend in="SourceGraphic" in2="blurOut3" mode="normal"/></filter></defs><g><!--class _middle_name_class_--><rect fill="#FEFECE" filter="url(#fovxdtu)" height="44.7734" style="stroke: #A80036; stroke-width: 1.5;" width="173" x="151" y="130"/><text fill="#000000" font-family="sans-serif" font-size="12" lengthAdjust="spacingAndGlyphs" textLength="140" x="167.5" y="146.1387">&lt;middle_name_class&gt;</text><line style="stroke: #A80036; stroke-width: 1.5;" x1="152" x2="323" y1="153.9688" y2="153.9688"/><text fill="#000000" font-family="sans-serif" font-size="11" lengthAdjust="spacingAndGlyphs" textLength="161" x="157" y="168.1792">a crm:E82_Actor_Appellation</text><!--class _middle_name_type_class_--><rect fill="#FEFECE" filter="url(#fovxdtu)" height="44.7734" style="stroke: #A80036; stroke-width: 1.5;" width="179" x="46" y="252"/><text fill="#000000" font-family="sans-serif" font-size="12" lengthAdjust="spacingAndGlyphs" textLength="173" x="49" y="268.1387">&lt;middle_name_type_class&gt;</text><line style="stroke: #A80036; stroke-width: 1.5;" x1="47" x2="224" y1="275.9688" y2="275.9688"/><text fill="#000000" font-family="sans-serif" font-size="11" lengthAdjust="spacingAndGlyphs" textLength="91" x="52" y="290.1792">a crm:E55_Type</text><!--class _middle_name_--><rect fill="#FEFECE" filter="url(#fovxdtu)" height="23.9688" style="stroke: #A80036; stroke-width: 1.5;" width="108" x="260.5" y="262.5"/><text fill="#000000" font-family="sans-serif" font-size="12" lengthAdjust="spacingAndGlyphs" textLength="102" x="263.5" y="278.6387">&lt;middle_name&gt;</text><!--class aat_300404654--><rect fill="#FEFECE" filter="url(#fovxdtu)" height="44.7734" style="stroke: #A80036; stroke-width: 1.5;" width="103" x="6" y="374"/><text fill="#000000" font-family="sans-serif" font-size="12" lengthAdjust="spacingAndGlyphs" textLength="97" x="9" y="390.1387">aat:300404654</text><line style="stroke: #A80036; stroke-width: 1.5;" x1="7" x2="108" y1="397.9688" y2="397.9688"/><text fill="#000000" font-family="sans-serif" font-size="11" lengthAdjust="spacingAndGlyphs" textLength="76" x="12" y="412.1792">"first names"</text><!--class _middle_name_type_--><rect fill="#FEFECE" filter="url(#fovxdtu)" height="23.9688" style="stroke: #A80036; stroke-width: 1.5;" width="141" x="144" y="384.5"/><text fill="#000000" font-family="sans-serif" font-size="12" lengthAdjust="spacingAndGlyphs" textLength="135" x="147" y="400.6387">&lt;middle_name_type&gt;</text><!--class _entity_uri_--><rect fill="#FEFECE" filter="url(#fovxdtu)" height="44.7734" style="stroke: #A80036; stroke-width: 1.5;" width="105" x="185" y="8"/><text fill="#000000" font-family="sans-serif" font-size="12" lengthAdjust="spacingAndGlyphs" textLength="77" x="199" y="24.1387">&lt;entity_uri&gt;</text><line style="stroke: #A80036; stroke-width: 1.5;" x1="186" x2="289" y1="31.9688" y2="31.9688"/><text fill="#000000" font-family="sans-serif" font-size="11" lengthAdjust="spacingAndGlyphs" textLength="93" x="191" y="46.1792">a crm:E39_Actor</text><path d="M186.214,175.208 C173.215,182.903 160.424,192.769 151.5,205 C142.73,217.019 138.684,233.112 136.851,246.679 " fill="none" style="stroke: #A80036; stroke-width: 1.0;"/><polygon fill="#A80036" points="136.233,251.933,141.2573,243.4621,136.8173,246.9673,133.3121,242.5272,136.233,251.933" style="stroke: #A80036; stroke-width: 1.0;"/><text fill="#000000" font-family="sans-serif" font-size="13" lengthAdjust="spacingAndGlyphs" textLength="110" x="152.5" y="218.0669">crm:P2_has_type</text><path d="M251.444,175.231 C266.819,199.192 291.161,237.128 304.662,258.168 " fill="none" style="stroke: #A80036; stroke-width: 1.0;"/><polygon fill="#A80036" points="307.371,262.391,305.8756,252.6563,304.6701,258.1833,299.1432,256.9778,307.371,262.391" style="stroke: #A80036; stroke-width: 1.0;"/><text fill="#000000" font-family="sans-serif" font-size="13" lengthAdjust="spacingAndGlyphs" textLength="58" x="282.5" y="218.0669">rdfs:label</text><path d="M89.7047,297.223 C78.2112,304.961 67.242,314.845 60.5,327 C53.5677,339.4981 52.4779,355.3401 53.2753,368.6404 " fill="none" style="stroke: #A80036; stroke-width: 1.0;"/><polygon fill="#A80036" points="53.6833,373.7889,56.9595,364.5009,53.2882,368.8045,48.9845,365.1332,53.6833,373.7889" style="stroke: #A80036; stroke-width: 1.0;"/><text fill="#000000" font-family="sans-serif" font-size="13" lengthAdjust="spacingAndGlyphs" textLength="109" x="61.5" y="340.0669">skos:broadMatch</text><path d="M153.339,297.042 C160.528,306.079 168.708,316.833 175.5,327 C187.111,344.3797 198.749,365.4041 206.25,379.5379 " fill="none" style="stroke: #A80036; stroke-width: 1.0;"/><polygon fill="#A80036" points="208.629,384.0517,207.9712,374.2248,206.2977,379.6285,200.894,377.955,208.629,384.0517" style="stroke: #A80036; stroke-width: 1.0;"/><text fill="#000000" font-family="sans-serif" font-size="13" lengthAdjust="spacingAndGlyphs" textLength="92" x="187.5" y="340.0669">skos:prefLabel</text><path d="M237.5,53.231 C237.5,73.365 237.5,103.366 237.5,124.919 " fill="none" style="stroke: #A80036; stroke-width: 1.0;"/><polygon fill="#A80036" points="237.5,129.931,241.5,120.931,237.5,124.931,233.5,120.931,237.5,129.931" style="stroke: #A80036; stroke-width: 1.0;"/><text fill="#000000" font-family="sans-serif" font-size="13" lengthAdjust="spacingAndGlyphs" textLength="165" x="238.5" y="96.0669">crm:P131_is_identified_by</text></g></svg>