<?xml version="1.0" encoding="UTF-8" standalone="no"?><svg xmlns="http://www.w3.org/2000/svg" xmlns:xlink="http://www.w3.org/1999/xlink" contentScriptType="application/ecmascript" contentStyleType="text/css" height="305px" preserveAspectRatio="none" style="width:1611px;height:305px;" version="1.1" viewBox="0 0 1611 305" width="1611px" zoomAndPan="magnify"><defs><filter height="300%" id="fr0snkr" width="300%" x="-1" y="-1"><feGaussianBlur result="blurOut" stdDeviation="2.0"/><feColorMatrix in="blurOut" result="blurOut2" type="matrix" values="0 0 0 0 0 0 0 0 0 0 0 0 0 0 0 0 0 0 .4 0"/><feOffset dx="4.0" dy="4.0" in="blurOut2" result="blurOut3"/><feBlend in="SourceGraphic" in2="blurOut3" mode="normal"/></filter></defs><g><!--class _vase_--><rect fill="#FEFECE" filter="url(#fr0snkr)" height="44.7734" style="stroke: #A80036; stroke-width: 1.5;" width="175" x="318.5" y="130"/><text fill="#000000" font-family="sans-serif" font-size="12" lengthAdjust="spacingAndGlyphs" textLength="49" x="381.5" y="146.1387">&lt;vase&gt;</text><line style="stroke: #A80036; stroke-width: 1.5;" x1="319.5" x2="492.5" y1="153.9688" y2="153.9688"/><text fill="#000000" font-family="sans-serif" font-size="11" lengthAdjust="spacingAndGlyphs" textLength="163" x="324.5" y="168.1792">a crm:E22_Man-Made_Object</text><!--class _vase_addition_--><rect fill="#FEFECE" filter="url(#fr0snkr)" height="44.7734" style="stroke: #A80036; stroke-width: 1.5;" width="150" x="562" y="252"/><text fill="#000000" font-family="sans-serif" font-size="12" lengthAdjust="spacingAndGlyphs" textLength="106" x="584" y="268.1387">&lt;vase_addition&gt;</text><line style="stroke: #A80036; stroke-width: 1.5;" x1="563" x2="711" y1="275.9688" y2="275.9688"/><text fill="#000000" font-family="sans-serif" font-size="11" lengthAdjust="spacingAndGlyphs" textLength="138" x="568" y="290.1792">a crm:E79_Part_Addition</text><!--class _John_--><rect fill="#FEFECE" filter="url(#fr0snkr)" height="44.7734" style="stroke: #A80036; stroke-width: 1.5;" width="116" x="6" y="8"/><text fill="#000000" font-family="sans-serif" font-size="12" lengthAdjust="spacingAndGlyphs" textLength="47" x="40.5" y="24.1387">&lt;John&gt;</text><line style="stroke: #A80036; stroke-width: 1.5;" x1="7" x2="121" y1="31.9688" y2="31.9688"/><text fill="#000000" font-family="sans-serif" font-size="11" lengthAdjust="spacingAndGlyphs" textLength="104" x="12" y="46.1792">a crm:E21_Person</text><!--class _George_--><rect fill="#FEFECE" filter="url(#fr0snkr)" height="44.7734" style="stroke: #A80036; stroke-width: 1.5;" width="116" x="157" y="8"/><text fill="#000000" font-family="sans-serif" font-size="12" lengthAdjust="spacingAndGlyphs" textLength="66" x="182" y="24.1387">&lt;George&gt;</text><line style="stroke: #A80036; stroke-width: 1.5;" x1="158" x2="272" y1="31.9688" y2="31.9688"/><text fill="#000000" font-family="sans-serif" font-size="11" lengthAdjust="spacingAndGlyphs" textLength="104" x="163" y="46.1792">a crm:E21_Person</text><!--class _transaction_of_candlestick_--><rect fill="#FEFECE" filter="url(#fr0snkr)" height="44.7734" style="stroke: #A80036; stroke-width: 1.5;" width="309" x="1198.5" y="8"/><text fill="#000000" font-family="sans-serif" font-size="12" lengthAdjust="spacingAndGlyphs" textLength="187" x="1259.5" y="24.1387">&lt;transaction_of_candlestick&gt;</text><line style="stroke: #A80036; stroke-width: 1.5;" x1="1199.5" x2="1506.5" y1="31.9688" y2="31.9688"/><text fill="#000000" font-family="sans-serif" font-size="11" lengthAdjust="spacingAndGlyphs" textLength="297" x="1204.5" y="46.1792">a crm:E8_Acquisition, crm:E10_Transfer_of_Custody</text><!--class _sale_of_lot_--><rect fill="#FEFECE" filter="url(#fr0snkr)" height="44.7734" style="stroke: #A80036; stroke-width: 1.5;" width="100" x="994" y="130"/><text fill="#000000" font-family="sans-serif" font-size="12" lengthAdjust="spacingAndGlyphs" textLength="86" x="1001" y="146.1387">&lt;sale_of_lot&gt;</text><line style="stroke: #A80036; stroke-width: 1.5;" x1="995" x2="1093" y1="153.9688" y2="153.9688"/><text fill="#000000" font-family="sans-serif" font-size="11" lengthAdjust="spacingAndGlyphs" textLength="88" x="1000" y="168.1792">a crm:E5_Event</text><!--class _candlestick_--><rect fill="#FEFECE" filter="url(#fr0snkr)" height="44.7734" style="stroke: #A80036; stroke-width: 1.5;" width="175" x="1399.5" y="130"/><text fill="#000000" font-family="sans-serif" font-size="12" lengthAdjust="spacingAndGlyphs" textLength="91" x="1441.5" y="146.1387">&lt;candlestick&gt;</text><line style="stroke: #A80036; stroke-width: 1.5;" x1="1400.5" x2="1573.5" y1="153.9688" y2="153.9688"/><text fill="#000000" font-family="sans-serif" font-size="11" lengthAdjust="spacingAndGlyphs" textLength="163" x="1405.5" y="168.1792">a crm:E22_Man-Made_Object</text><!--class _candlestick_addition_--><rect fill="#FEFECE" filter="url(#fr0snkr)" height="44.7734" style="stroke: #A80036; stroke-width: 1.5;" width="154" x="1182" y="252"/><text fill="#000000" font-family="sans-serif" font-size="12" lengthAdjust="spacingAndGlyphs" textLength="148" x="1185" y="268.1387">&lt;candlestick_addition&gt;</text><line style="stroke: #A80036; stroke-width: 1.5;" x1="1183" x2="1335" y1="275.9688" y2="275.9688"/><text fill="#000000" font-family="sans-serif" font-size="11" lengthAdjust="spacingAndGlyphs" textLength="138" x="1188" y="290.1792">a crm:E79_Part_Addition</text><!--class _transaction_of_vase_--><rect fill="#FEFECE" filter="url(#fr0snkr)" height="44.7734" style="stroke: #A80036; stroke-width: 1.5;" width="309" x="308.5" y="8"/><text fill="#000000" font-family="sans-serif" font-size="12" lengthAdjust="spacingAndGlyphs" textLength="145" x="390.5" y="24.1387">&lt;transaction_of_vase&gt;</text><line style="stroke: #A80036; stroke-width: 1.5;" x1="309.5" x2="616.5" y1="31.9688" y2="31.9688"/><text fill="#000000" font-family="sans-serif" font-size="11" lengthAdjust="spacingAndGlyphs" textLength="297" x="314.5" y="46.1792">a crm:E8_Acquisition, crm:E10_Transfer_of_Custody</text><!--class _Jane_--><rect fill="#FEFECE" filter="url(#fr0snkr)" height="44.7734" style="stroke: #A80036; stroke-width: 1.5;" width="116" x="6" y="130"/><text fill="#000000" font-family="sans-serif" font-size="12" lengthAdjust="spacingAndGlyphs" textLength="47" x="40.5" y="146.1387">&lt;Jane&gt;</text><line style="stroke: #A80036; stroke-width: 1.5;" x1="7" x2="121" y1="153.9688" y2="153.9688"/><text fill="#000000" font-family="sans-serif" font-size="11" lengthAdjust="spacingAndGlyphs" textLength="104" x="12" y="168.1792">a crm:E21_Person</text><!--class _lot_--><rect fill="#FEFECE" filter="url(#fr0snkr)" height="44.7734" style="stroke: #A80036; stroke-width: 1.5;" width="131" x="924.5" y="8"/><text fill="#000000" font-family="sans-serif" font-size="12" lengthAdjust="spacingAndGlyphs" textLength="36" x="972" y="24.1387">&lt;lot&gt;</text><line style="stroke: #A80036; stroke-width: 1.5;" x1="925.5" x2="1054.5" y1="31.9688" y2="31.9688"/><text fill="#000000" font-family="sans-serif" font-size="11" lengthAdjust="spacingAndGlyphs" textLength="119" x="930.5" y="46.1792">a crm:E78_Collection</text><path d="M447.565,175.092 C487.921,196.056 549.051,227.8124 590.886,249.5444 " fill="none" style="stroke: #A80036; stroke-width: 1.0;"/><polygon fill="#A80036" points="595.38,251.8791,589.2364,244.1813,590.9427,249.5747,585.5493,251.2809,595.38,251.8791" style="stroke: #A80036; stroke-width: 1.0;"/><text fill="#000000" font-family="sans-serif" font-size="13" lengthAdjust="spacingAndGlyphs" textLength="164" x="537" y="218.0669">crm:P111i_was_added_by</text><path d="M1297.4,53.092 C1241.23,74.904 1154.99,108.399 1099.03,130.131 " fill="none" style="stroke: #A80036; stroke-width: 1.0;"/><polygon fill="#A80036" points="1094.04,132.065,1103.878,132.5282,1098.6995,130.2515,1100.9763,125.073,1094.04,132.065" style="stroke: #A80036; stroke-width: 1.0;"/><text fill="#000000" font-family="sans-serif" font-size="13" lengthAdjust="spacingAndGlyphs" textLength="160" x="1219" y="96.0669">crm:P106i_forms_part_of</text><path d="M1377.27,53.231 C1400.32,73.875 1434.95,104.891 1459.13,126.54 " fill="none" style="stroke: #A80036; stroke-width: 1.0;"/><polygon fill="#A80036" points="1462.91,129.931,1458.8825,120.9433,1459.1884,126.5919,1453.5399,126.8978,1462.91,129.931" style="stroke: #A80036; stroke-width: 1.0;"/><text fill="#000000" font-family="sans-serif" font-size="13" lengthAdjust="spacingAndGlyphs" textLength="181" x="1429" y="96.0669">crm:P24_transferred_title_of</text><path d="M1445.97,175.092 C1406.14,196.056 1345.81,227.8124 1304.52,249.5444 " fill="none" style="stroke: #A80036; stroke-width: 1.0;"/><polygon fill="#A80036" points="1300.08,251.8791,1309.9073,251.2273,1304.5047,249.5505,1306.1815,244.1479,1300.08,251.8791" style="stroke: #A80036; stroke-width: 1.0;"/><text fill="#000000" font-family="sans-serif" font-size="13" lengthAdjust="spacingAndGlyphs" textLength="164" x="1387" y="218.0669">crm:P111i_was_added_by</text><path d="M382.57,53.046 C368.874,60.336 356.386,70.057 348,83 C338.002,98.432 349.544,114.191 364.893,126.698 " fill="none" style="stroke: #A80036; stroke-width: 1.0;"/><polygon fill="#A80036" points="368.866,129.805,364.2405,121.1099,364.9273,126.7249,359.3123,127.4118,368.866,129.805" style="stroke: #A80036; stroke-width: 1.0;"/><text fill="#000000" font-family="sans-serif" font-size="13" lengthAdjust="spacingAndGlyphs" textLength="181" x="349" y="96.0669">crm:P24_transferred_title_of</text><path d="M572.948,53.044 C641.894,66.547 732.633,84.308 813,100 C881.439,113.363 899.143,113.944 967,130 C974.023,131.662 981.37,133.536 988.62,135.467 " fill="none" style="stroke: #A80036; stroke-width: 1.0;"/><polygon fill="#A80036" points="993.618,136.811,985.9656,130.6109,988.7896,135.5125,983.888,138.3364,993.618,136.811" style="stroke: #A80036; stroke-width: 1.0;"/><text fill="#000000" font-family="sans-serif" font-size="13" lengthAdjust="spacingAndGlyphs" textLength="160" x="814" y="96.0669">crm:P106i_forms_part_of</text><path d="M984.251,53.1 C981.667,67.068 980.476,85.314 987,100 C991.42,109.951 998.818,118.792 1006.84,126.22 " fill="none" style="stroke: #A80036; stroke-width: 1.0;"/><polygon fill="#A80036" points="1010.83,129.752,1006.7569,120.7848,1007.0915,126.4318,1001.4446,126.7664,1010.83,129.752" style="stroke: #A80036; stroke-width: 1.0;"/><text fill="#000000" font-family="sans-serif" font-size="13" lengthAdjust="spacingAndGlyphs" textLength="149" x="988" y="96.0669">crm:P16i_was_used_for</text><path d="M1055.69,41.323 C1085.06,48.603 1118.32,61.214 1142,83 C1174.82,113.185 1159.2,136.685 1182,175 C1197.69,201.3585 1219.52,228.6307 1235.93,247.7762 " fill="none" style="stroke: #A80036; stroke-width: 1.0;"/><polygon fill="#A80036" points="1239.56,251.9768,1236.708,242.5499,1236.2932,248.1915,1230.6516,247.7767,1239.56,251.9768" style="stroke: #A80036; stroke-width: 1.0;"/><text fill="#000000" font-family="sans-serif" font-size="13" lengthAdjust="spacingAndGlyphs" textLength="198" x="1183" y="157.0669">crm:P110i_was_augmented_by</text><path d="M924.236,51.743 C879.17,67.886 819.848,93.816 776,130 C737.187,162.029 745.724,186.558 710,222 C700.096,231.8263 688.139,241.1057 676.794,249.0092 " fill="none" style="stroke: #A80036; stroke-width: 1.0;"/><polygon fill="#A80036" points="672.647,251.8573,682.3301,250.0581,676.7682,249.0261,677.8002,243.4642,672.647,251.8573" style="stroke: #A80036; stroke-width: 1.0;"/><text fill="#000000" font-family="sans-serif" font-size="13" lengthAdjust="spacingAndGlyphs" textLength="198" x="777" y="157.0669">crm:P110i_was_augmented_by</text></g></svg>