<?xml version="1.0" encoding="UTF-8" standalone="no"?><svg xmlns="http://www.w3.org/2000/svg" xmlns:xlink="http://www.w3.org/1999/xlink" contentScriptType="application/ecmascript" contentStyleType="text/css" height="406px" preserveAspectRatio="none" style="width:314px;height:406px;" version="1.1" viewBox="0 0 314 406" width="314px" zoomAndPan="magnify"><defs><filter height="300%" id="f5pzgco" width="300%" x="-1" y="-1"><feGaussianBlur result="blurOut" stdDeviation="2.0"/><feColorMatrix in="blurOut" result="blurOut2" type="matrix" values="0 0 0 0 0 0 0 0 0 0 0 0 0 0 0 0 0 0 .4 0"/><feOffset dx="4.0" dy="4.0" in="blurOut2" result="blurOut3"/><feBlend in="SourceGraphic" in2="blurOut3" mode="normal"/></filter></defs><g><!--class _id_number_id_--><rect fill="#FEFECE" filter="url(#f5pzgco)" height="44.7734" style="stroke: #A80036; stroke-width: 1.5;" width="126" x="38.5" y="130"/><text fill="#000000" font-family="sans-serif" font-size="12" lengthAdjust="spacingAndGlyphs" textLength="102" x="50.5" y="146.1387">&lt;id_number_id&gt;</text><line style="stroke: #A80036; stroke-width: 1.5;" x1="39.5" x2="163.5" y1="153.9688" y2="153.9688"/><text fill="#000000" font-family="sans-serif" font-size="11" lengthAdjust="spacingAndGlyphs" textLength="114" x="44.5" y="168.1792">a crm:E42_Identifier</text><!--class _id_number_--><rect fill="#FEFECE" filter="url(#f5pzgco)" height="23.9688" style="stroke: #A80036; stroke-width: 1.5;" width="91" x="6" y="262.5"/><text fill="#000000" font-family="sans-serif" font-size="12" lengthAdjust="spacingAndGlyphs" textLength="85" x="9" y="278.6387">&lt;id_number&gt;</text><!--class _identifier_type_--><rect fill="#FEFECE" filter="url(#f5pzgco)" height="44.7734" style="stroke: #A80036; stroke-width: 1.5;" width="114" x="132.5" y="252"/><text fill="#000000" font-family="sans-serif" font-size="12" lengthAdjust="spacingAndGlyphs" textLength="108" x="135.5" y="268.1387">&lt;identifier_type&gt;</text><line style="stroke: #A80036; stroke-width: 1.5;" x1="133.5" x2="245.5" y1="275.9688" y2="275.9688"/><text fill="#000000" font-family="sans-serif" font-size="11" lengthAdjust="spacingAndGlyphs" textLength="91" x="138.5" y="290.1792">a crm:E55_Type</text><!--class _entity_uri_--><rect fill="#FEFECE" filter="url(#f5pzgco)" height="44.7734" style="stroke: #A80036; stroke-width: 1.5;" width="105" x="49" y="8"/><text fill="#000000" font-family="sans-serif" font-size="12" lengthAdjust="spacingAndGlyphs" textLength="77" x="63" y="24.1387">&lt;entity_uri&gt;</text><line style="stroke: #A80036; stroke-width: 1.5;" x1="50" x2="153" y1="31.9688" y2="31.9688"/><text fill="#000000" font-family="sans-serif" font-size="11" lengthAdjust="spacingAndGlyphs" textLength="93" x="55" y="46.1792">a crm:E39_Actor</text><!--class _id_number_label_--><rect fill="#FEFECE" filter="url(#f5pzgco)" height="23.9688" style="stroke: #A80036; stroke-width: 1.5;" width="127" x="126" y="374"/><text fill="#000000" font-family="sans-serif" font-size="12" lengthAdjust="spacingAndGlyphs" textLength="121" x="129" y="390.1387">&lt;id_number_label&gt;</text><path d="M84.7851,175.08 C78.5912,183.946 71.9902,194.569 67.5,205 C60.1681,222.033 55.9048,242.959 53.6494,257.168 " fill="none" style="stroke: #A80036; stroke-width: 1.0;"/><polygon fill="#A80036" points="52.8549,262.446,58.1501,254.1417,53.5992,257.5017,50.2392,252.9508,52.8549,262.446" style="stroke: #A80036; stroke-width: 1.0;"/><text fill="#000000" font-family="sans-serif" font-size="13" lengthAdjust="spacingAndGlyphs" textLength="58" x="68.5" y="218.0669">rdfs:label</text><path d="M117.436,175.231 C132.388,195.62 154.76,226.127 170.605,247.734 " fill="none" style="stroke: #A80036; stroke-width: 1.0;"/><polygon fill="#A80036" points="173.682,251.931,171.588,242.3073,170.7263,247.8982,165.1355,247.0364,173.682,251.931" style="stroke: #A80036; stroke-width: 1.0;"/><text fill="#000000" font-family="sans-serif" font-size="13" lengthAdjust="spacingAndGlyphs" textLength="110" x="152.5" y="218.0669">crm:P2_has_type</text><path d="M101.5,53.231 C101.5,73.365 101.5,103.366 101.5,124.919 " fill="none" style="stroke: #A80036; stroke-width: 1.0;"/><polygon fill="#A80036" points="101.5,129.931,105.5,120.931,101.5,124.931,97.5,120.931,101.5,129.931" style="stroke: #A80036; stroke-width: 1.0;"/><text fill="#000000" font-family="sans-serif" font-size="13" lengthAdjust="spacingAndGlyphs" textLength="211" x="102.5" y="96.0669">crm:P48_has_preferred_identifier</text><path d="M189.5,297.134 C189.5,318.213 189.5,349.783 189.5,368.7869 " fill="none" style="stroke: #A80036; stroke-width: 1.0;"/><polygon fill="#A80036" points="189.5,373.7946,193.5,364.7946,189.5,368.7946,185.5,364.7946,189.5,373.7946" style="stroke: #A80036; stroke-width: 1.0;"/><text fill="#000000" font-family="sans-serif" font-size="13" lengthAdjust="spacingAndGlyphs" textLength="92" x="190.5" y="340.0669">skos:prefLabel</text></g></svg>