<?xml version="1.0" encoding="UTF-8" standalone="no"?><svg xmlns="http://www.w3.org/2000/svg" xmlns:xlink="http://www.w3.org/1999/xlink" contentScriptType="application/ecmascript" contentStyleType="text/css" height="305px" preserveAspectRatio="none" style="width:333px;height:305px;" version="1.1" viewBox="0 0 333 305" width="333px" zoomAndPan="magnify"><defs><filter height="300%" id="fsnoksx" width="300%" x="-1" y="-1"><feGaussianBlur result="blurOut" stdDeviation="2.0"/><feColorMatrix in="blurOut" result="blurOut2" type="matrix" values="0 0 0 0 0 0 0 0 0 0 0 0 0 0 0 0 0 0 .4 0"/><feOffset dx="4.0" dy="4.0" in="blurOut2" result="blurOut3"/><feBlend in="SourceGraphic" in2="blurOut3" mode="normal"/></filter></defs><g><!--class aat_300266036--><rect fill="#FEFECE" filter="url(#fsnoksx)" height="44.7734" style="stroke: #A80036; stroke-width: 1.5;" width="103" x="6" y="252"/><text fill="#000000" font-family="sans-serif" font-size="12" lengthAdjust="spacingAndGlyphs" textLength="97" x="9" y="268.1387">aat:300266036</text><line style="stroke: #A80036; stroke-width: 1.5;" x1="7" x2="108" y1="275.9688" y2="275.9688"/><text fill="#000000" font-family="sans-serif" font-size="11" lengthAdjust="spacingAndGlyphs" textLength="76" x="12" y="290.1792">"dimensions"</text><!--class _dimension_class_--><rect fill="#FEFECE" filter="url(#fsnoksx)" height="44.7734" style="stroke: #A80036; stroke-width: 1.5;" width="171" x="60" y="130"/><text fill="#000000" font-family="sans-serif" font-size="12" lengthAdjust="spacingAndGlyphs" textLength="122" x="84.5" y="146.1387">&lt;dimension_class&gt;</text><line style="stroke: #A80036; stroke-width: 1.5;" x1="61" x2="230" y1="153.9688" y2="153.9688"/><text fill="#000000" font-family="sans-serif" font-size="11" lengthAdjust="spacingAndGlyphs" textLength="159" x="66" y="168.1792">a crm:E33_Linguistic_Object</text><!--class _dimension_reference_--><rect fill="#FEFECE" filter="url(#fsnoksx)" height="44.7734" style="stroke: #A80036; stroke-width: 1.5;" width="180" x="144.5" y="252"/><text fill="#000000" font-family="sans-serif" font-size="12" lengthAdjust="spacingAndGlyphs" textLength="151" x="159" y="268.1387">&lt;dimension_reference&gt;</text><line style="stroke: #A80036; stroke-width: 1.5;" x1="145.5" x2="323.5" y1="275.9688" y2="275.9688"/><text fill="#000000" font-family="sans-serif" font-size="11" lengthAdjust="spacingAndGlyphs" textLength="168" x="150.5" y="290.1792">"dimension string goes here"</text><!--class _entity_uri_--><rect fill="#FEFECE" filter="url(#fsnoksx)" height="44.7734" style="stroke: #A80036; stroke-width: 1.5;" width="175" x="58" y="8"/><text fill="#000000" font-family="sans-serif" font-size="12" lengthAdjust="spacingAndGlyphs" textLength="77" x="107" y="24.1387">&lt;entity_uri&gt;</text><line style="stroke: #A80036; stroke-width: 1.5;" x1="59" x2="232" y1="31.9688" y2="31.9688"/><text fill="#000000" font-family="sans-serif" font-size="11" lengthAdjust="spacingAndGlyphs" textLength="163" x="64" y="46.1792">a crm:E22_Man-Made_Object</text><path d="M110.085,175.044 C99.0002,183.247 87.5701,193.44 79.5,205 C70.8523,217.3869 65.4653,233.3589 62.1881,246.7638 " fill="none" style="stroke: #A80036; stroke-width: 1.0;"/><polygon fill="#A80036" points="60.9919,251.9519,66.9118,244.0807,62.1153,247.0797,59.1163,242.2833,60.9919,251.9519" style="stroke: #A80036; stroke-width: 1.0;"/><text fill="#000000" font-family="sans-serif" font-size="13" lengthAdjust="spacingAndGlyphs" textLength="110" x="80.5" y="218.0669">crm:P2_has_type</text><path d="M168.965,175.195 C177.82,183.993 187.643,194.537 195.5,205 C205.38,218.1571 214.582,234.0655 221.564,247.2385 " fill="none" style="stroke: #A80036; stroke-width: 1.0;"/><polygon fill="#A80036" points="224.033,251.9578,223.4051,242.129,221.7151,247.5275,216.3166,245.8376,224.033,251.9578" style="stroke: #A80036; stroke-width: 1.0;"/><text fill="#000000" font-family="sans-serif" font-size="13" lengthAdjust="spacingAndGlyphs" textLength="55" x="207.5" y="218.0669">rdf:value</text><path d="M145.5,53.231 C145.5,73.365 145.5,103.366 145.5,124.919 " fill="none" style="stroke: #A80036; stroke-width: 1.0;"/><polygon fill="#A80036" points="145.5,129.931,149.5,120.931,145.5,124.931,141.5,120.931,145.5,129.931" style="stroke: #A80036; stroke-width: 1.0;"/><text fill="#000000" font-family="sans-serif" font-size="13" lengthAdjust="spacingAndGlyphs" textLength="173" x="146.5" y="96.0669">crm:P67i_is_referred_to_by</text></g></svg>