<?xml version="1.0" encoding="UTF-8" standalone="no"?><svg xmlns="http://www.w3.org/2000/svg" xmlns:xlink="http://www.w3.org/1999/xlink" contentScriptType="application/ecmascript" contentStyleType="text/css" height="412px" preserveAspectRatio="none" style="width:389px;height:412px;" version="1.1" viewBox="0 0 389 412" width="389px" zoomAndPan="magnify"><defs><filter height="300%" id="fxbr8rj" width="300%" x="-1" y="-1"><feGaussianBlur result="blurOut" stdDeviation="2.0"/><feColorMatrix in="blurOut" result="blurOut2" type="matrix" values="0 0 0 0 0 0 0 0 0 0 0 0 0 0 0 0 0 0 .4 0"/><feOffset dx="4.0" dy="4.0" in="blurOut2" result="blurOut3"/><feBlend in="SourceGraphic" in2="blurOut3" mode="normal"/></filter></defs><g><!--class _entity_uri_--><rect fill="#FEFECE" filter="url(#fxbr8rj)" height="44.7734" style="stroke: #A80036; stroke-width: 1.5;" width="100" x="76" y="8.5"/><text fill="#000000" font-family="sans-serif" font-size="12" lengthAdjust="spacingAndGlyphs" textLength="77" x="87.5" y="24.6387">&lt;entity_uri&gt;</text><line style="stroke: #A80036; stroke-width: 1.5;" x1="77" x2="175" y1="32.4688" y2="32.4688"/><text fill="#000000" font-family="sans-serif" font-size="11" lengthAdjust="spacingAndGlyphs" textLength="88" x="82" y="46.6792">a crm:E5_Event</text><!--class _event_class_--><rect fill="#FEFECE" filter="url(#fxbr8rj)" height="44.7734" style="stroke: #A80036; stroke-width: 1.5;" width="138" x="57" y="132.5"/><text fill="#000000" font-family="sans-serif" font-size="12" lengthAdjust="spacingAndGlyphs" textLength="93" x="79.5" y="148.6387">&lt;event_class&gt;</text><line style="stroke: #A80036; stroke-width: 1.5;" x1="58" x2="194" y1="156.4688" y2="156.4688"/><text fill="#000000" font-family="sans-serif" font-size="11" lengthAdjust="spacingAndGlyphs" textLength="126" x="63" y="170.6792">a crm:E41_Appellation</text><!--class _event_name_--><rect fill="#FEFECE" filter="url(#fxbr8rj)" height="23.9688" style="stroke: #A80036; stroke-width: 1.5;" width="102" x="6" y="267"/><text fill="#000000" font-family="sans-serif" font-size="12" lengthAdjust="spacingAndGlyphs" textLength="96" x="9" y="283.1387">&lt;event_name&gt;</text><!--class _preferred_name_type_url_--><rect fill="#FEFECE" filter="url(#fxbr8rj)" height="44.7734" style="stroke: #A80036; stroke-width: 1.5;" width="181" x="143.75" y="256.5"/><text fill="#000000" font-family="sans-serif" font-size="12" lengthAdjust="spacingAndGlyphs" textLength="175" x="146.75" y="272.6387">&lt;preferred_name_type_url&gt;</text><line style="stroke: #A80036; stroke-width: 1.5;" x1="144.75" x2="323.75" y1="280.4688" y2="280.4688"/><text fill="#000000" font-family="sans-serif" font-size="11" lengthAdjust="spacingAndGlyphs" textLength="91" x="149.75" y="294.6792">a crm:E55_Type</text><!--class aac_types_primary_name_type--><rect fill="#FEFECE" filter="url(#fxbr8rj)" height="23.9688" style="stroke: #A80036; stroke-width: 1.5;" width="193" x="49.75" y="380"/><text fill="#000000" font-family="sans-serif" font-size="12" lengthAdjust="spacingAndGlyphs" textLength="187" x="52.75" y="396.1387">aac_types:primary_name_type</text><!--class _type_label_--><rect fill="#FEFECE" filter="url(#fxbr8rj)" height="23.9688" style="stroke: #A80036; stroke-width: 1.5;" width="89" x="277.75" y="380"/><text fill="#000000" font-family="sans-serif" font-size="12" lengthAdjust="spacingAndGlyphs" textLength="83" x="280.75" y="396.1387">&lt;type_label&gt;</text><path d="M126,53.53 C126,74.049 126,105.009 126,127.134 " fill="none" style="stroke: #A80036; stroke-width: 1.0;"/><polygon fill="#A80036" points="126,132.275,130,123.275,126,127.275,122,123.275,126,132.275" style="stroke: #A80036; stroke-width: 1.0;"/><text fill="#000000" font-family="sans-serif" font-size="13" lengthAdjust="spacingAndGlyphs" textLength="149" x="127" y="97.0669">crm:P1_is_identified_by</text><path d="M111.035,177.662 C104.8888,186.865 97.8557,197.805 92,208 C81.5425,226.207 70.9568,247.94 64.2082,262.307 " fill="none" style="stroke: #A80036; stroke-width: 1.0;"/><polygon fill="#A80036" points="62.0724,266.882,69.5049,260.4199,64.1881,262.3517,62.2563,257.0349,62.0724,266.882" style="stroke: #A80036; stroke-width: 1.0;"/><text fill="#000000" font-family="sans-serif" font-size="13" lengthAdjust="spacingAndGlyphs" textLength="58" x="93" y="221.0669">rdfs:label</text><path d="M145.06,177.53 C163.607,198.482 191.791,230.32 211.446,252.522 " fill="none" style="stroke: #A80036; stroke-width: 1.0;"/><polygon fill="#A80036" points="214.768,256.275,211.798,246.8846,211.454,252.531,205.8076,252.1871,214.768,256.275" style="stroke: #A80036; stroke-width: 1.0;"/><text fill="#000000" font-family="sans-serif" font-size="13" lengthAdjust="spacingAndGlyphs" textLength="110" x="188" y="221.0669">crm:P2_has_type</text><path d="M198.605,301.614 C187.26,309.9493 175.459,320.3096 167,332 C157.742,344.7944 152.23,362.0636 149.192,374.611 " fill="none" style="stroke: #A80036; stroke-width: 1.0;"/><polygon fill="#A80036" points="148.039,379.6725,153.9395,371.7868,149.1504,374.7976,146.1396,370.0085,148.039,379.6725" style="stroke: #A80036; stroke-width: 1.0;"/><text fill="#000000" font-family="sans-serif" font-size="13" lengthAdjust="spacingAndGlyphs" textLength="109" x="168" y="345.0669">skos:broadMatch</text><path d="M255.855,301.514 C264.661,310.6027 274.682,321.4985 283,332 C294.038,345.9353 305.065,362.9794 312.563,375.1588 " fill="none" style="stroke: #A80036; stroke-width: 1.0;"/><polygon fill="#A80036" points="315.354,379.7331,314.0798,369.967,312.7492,375.4652,307.2511,374.1346,315.354,379.7331" style="stroke: #A80036; stroke-width: 1.0;"/><text fill="#000000" font-family="sans-serif" font-size="13" lengthAdjust="spacingAndGlyphs" textLength="92" x="296" y="345.0669">skos:prefLabel</text></g></svg>