<?xml version="1.0" encoding="UTF-8" standalone="no"?><svg xmlns="http://www.w3.org/2000/svg" xmlns:xlink="http://www.w3.org/1999/xlink" contentScriptType="application/ecmascript" contentStyleType="text/css" height="406px" preserveAspectRatio="none" style="width:273px;height:406px;" version="1.1" viewBox="0 0 273 406" width="273px" zoomAndPan="magnify"><defs><filter height="300%" id="fgdhu1w" width="300%" x="-1" y="-1"><feGaussianBlur result="blurOut" stdDeviation="2.0"/><feColorMatrix in="blurOut" result="blurOut2" type="matrix" values="0 0 0 0 0 0 0 0 0 0 0 0 0 0 0 0 0 0 .4 0"/><feOffset dx="4.0" dy="4.0" in="blurOut2" result="blurOut3"/><feBlend in="SourceGraphic" in2="blurOut3" mode="normal"/></filter></defs><g><!--class _identifier_url_--><rect fill="#FEFECE" filter="url(#fgdhu1w)" height="44.7734" style="stroke: #A80036; stroke-width: 1.5;" width="126" x="33.5" y="130"/><text fill="#000000" font-family="sans-serif" font-size="12" lengthAdjust="spacingAndGlyphs" textLength="97" x="48" y="146.1387">&lt;identifier_url&gt;</text><line style="stroke: #A80036; stroke-width: 1.5;" x1="34.5" x2="158.5" y1="153.9688" y2="153.9688"/><text fill="#000000" font-family="sans-serif" font-size="11" lengthAdjust="spacingAndGlyphs" textLength="114" x="39.5" y="168.1792">a crm:E42_Identifier</text><!--class _identifier_--><rect fill="#FEFECE" filter="url(#fgdhu1w)" height="23.9688" style="stroke: #A80036; stroke-width: 1.5;" width="81" x="6" y="262.5"/><text fill="#000000" font-family="sans-serif" font-size="12" lengthAdjust="spacingAndGlyphs" textLength="75" x="9" y="278.6387">&lt;identifier&gt;</text><!--class _identifier_type_--><rect fill="#FEFECE" filter="url(#fgdhu1w)" height="44.7734" style="stroke: #A80036; stroke-width: 1.5;" width="114" x="122.5" y="252"/><text fill="#000000" font-family="sans-serif" font-size="12" lengthAdjust="spacingAndGlyphs" textLength="108" x="125.5" y="268.1387">&lt;identifier_type&gt;</text><line style="stroke: #A80036; stroke-width: 1.5;" x1="123.5" x2="235.5" y1="275.9688" y2="275.9688"/><text fill="#000000" font-family="sans-serif" font-size="11" lengthAdjust="spacingAndGlyphs" textLength="91" x="128.5" y="290.1792">a crm:E55_Type</text><!--class _entity_uri_--><rect fill="#FEFECE" filter="url(#fgdhu1w)" height="44.7734" style="stroke: #A80036; stroke-width: 1.5;" width="105" x="44" y="8"/><text fill="#000000" font-family="sans-serif" font-size="12" lengthAdjust="spacingAndGlyphs" textLength="77" x="58" y="24.1387">&lt;entity_uri&gt;</text><line style="stroke: #A80036; stroke-width: 1.5;" x1="45" x2="148" y1="31.9688" y2="31.9688"/><text fill="#000000" font-family="sans-serif" font-size="11" lengthAdjust="spacingAndGlyphs" textLength="93" x="50" y="46.1792">a crm:E39_Actor</text><!--class _identifier_type_label_--><rect fill="#FEFECE" filter="url(#fgdhu1w)" height="23.9688" style="stroke: #A80036; stroke-width: 1.5;" width="150" x="104.5" y="374"/><text fill="#000000" font-family="sans-serif" font-size="12" lengthAdjust="spacingAndGlyphs" textLength="144" x="107.5" y="390.1387">&lt;identifier_type_label&gt;</text><path d="M77.6322,175.279 C70.9671,184.005 64.0143,194.478 59.5,205 C52.2532,221.891 49.0296,242.844 47.606,257.098 " fill="none" style="stroke: #A80036; stroke-width: 1.0;"/><polygon fill="#A80036" points="47.129,262.395,51.9203,253.7901,47.5776,257.4152,43.9526,253.0724,47.129,262.395" style="stroke: #A80036; stroke-width: 1.0;"/><text fill="#000000" font-family="sans-serif" font-size="13" lengthAdjust="spacingAndGlyphs" textLength="58" x="60.5" y="218.0669">rdfs:label</text><path d="M111.531,175.231 C125.633,195.62 146.734,226.127 161.678,247.734 " fill="none" style="stroke: #A80036; stroke-width: 1.0;"/><polygon fill="#A80036" points="164.581,251.931,162.7502,242.2538,161.7364,247.8191,156.1711,246.8052,164.581,251.931" style="stroke: #A80036; stroke-width: 1.0;"/><text fill="#000000" font-family="sans-serif" font-size="13" lengthAdjust="spacingAndGlyphs" textLength="110" x="144.5" y="218.0669">crm:P2_has_type</text><path d="M96.5,53.231 C96.5,73.365 96.5,103.366 96.5,124.919 " fill="none" style="stroke: #A80036; stroke-width: 1.0;"/><polygon fill="#A80036" points="96.5,129.931,100.5,120.931,96.5,124.931,92.5,120.931,96.5,129.931" style="stroke: #A80036; stroke-width: 1.0;"/><text fill="#000000" font-family="sans-serif" font-size="13" lengthAdjust="spacingAndGlyphs" textLength="149" x="97.5" y="96.0669">crm:P1_is_identified_by</text><path d="M179.5,297.134 C179.5,318.213 179.5,349.783 179.5,368.7869 " fill="none" style="stroke: #A80036; stroke-width: 1.0;"/><polygon fill="#A80036" points="179.5,373.7946,183.5,364.7946,179.5,368.7946,175.5,364.7946,179.5,373.7946" style="stroke: #A80036; stroke-width: 1.0;"/><text fill="#000000" font-family="sans-serif" font-size="13" lengthAdjust="spacingAndGlyphs" textLength="92" x="180.5" y="340.0669">skos:prefLabel</text></g></svg>