<?xml version="1.0" encoding="UTF-8" standalone="no"?><svg xmlns="http://www.w3.org/2000/svg" xmlns:xlink="http://www.w3.org/1999/xlink" contentScriptType="application/ecmascript" contentStyleType="text/css" height="284px" preserveAspectRatio="none" style="width:276px;height:284px;" version="1.1" viewBox="0 0 276 284" width="276px" zoomAndPan="magnify"><defs><filter height="300%" id="fkh2sne" width="300%" x="-1" y="-1"><feGaussianBlur result="blurOut" stdDeviation="2.0"/><feColorMatrix in="blurOut" result="blurOut2" type="matrix" values="0 0 0 0 0 0 0 0 0 0 0 0 0 0 0 0 0 0 .4 0"/><feOffset dx="4.0" dy="4.0" in="blurOut2" result="blurOut3"/><feBlend in="SourceGraphic" in2="blurOut3" mode="normal"/></filter></defs><g><!--class _owner_class_--><rect fill="#FEFECE" filter="url(#fkh2sne)" height="44.7734" style="stroke: #A80036; stroke-width: 1.5;" width="140" x="23.5" y="130"/><text fill="#000000" font-family="sans-serif" font-size="12" lengthAdjust="spacingAndGlyphs" textLength="96" x="45.5" y="146.1387">&lt;owner_class&gt;</text><line style="stroke: #A80036; stroke-width: 1.5;" x1="24.5" x2="162.5" y1="153.9688" y2="153.9688"/><text fill="#000000" font-family="sans-serif" font-size="11" lengthAdjust="spacingAndGlyphs" textLength="128" x="29.5" y="168.1792">a crm:E40_Legal_Body</text><!--class _owner_name_--><rect fill="#FEFECE" filter="url(#fkh2sne)" height="23.9688" style="stroke: #A80036; stroke-width: 1.5;" width="105" x="41" y="252"/><text fill="#000000" font-family="sans-serif" font-size="12" lengthAdjust="spacingAndGlyphs" textLength="99" x="44" y="268.1387">&lt;owner_name&gt;</text><!--class _entity_uri_--><rect fill="#FEFECE" filter="url(#fkh2sne)" height="44.7734" style="stroke: #A80036; stroke-width: 1.5;" width="175" x="6" y="8"/><text fill="#000000" font-family="sans-serif" font-size="12" lengthAdjust="spacingAndGlyphs" textLength="77" x="55" y="24.1387">&lt;entity_uri&gt;</text><line style="stroke: #A80036; stroke-width: 1.5;" x1="7" x2="180" y1="31.9688" y2="31.9688"/><text fill="#000000" font-family="sans-serif" font-size="11" lengthAdjust="spacingAndGlyphs" textLength="163" x="12" y="46.1792">a crm:E22_Man-Made_Object</text><path d="M93.5,175.134 C93.5,196.213 93.5,227.783 93.5,246.7869 " fill="none" style="stroke: #A80036; stroke-width: 1.0;"/><polygon fill="#A80036" points="93.5,251.7946,97.5,242.7946,93.5,246.7946,89.5,242.7946,93.5,251.7946" style="stroke: #A80036; stroke-width: 1.0;"/><text fill="#000000" font-family="sans-serif" font-size="13" lengthAdjust="spacingAndGlyphs" textLength="58" x="94.5" y="218.0669">rdfs:label</text><path d="M93.5,53.231 C93.5,73.365 93.5,103.366 93.5,124.919 " fill="none" style="stroke: #A80036; stroke-width: 1.0;"/><polygon fill="#A80036" points="93.5,129.931,97.5,120.931,93.5,124.931,89.5,120.931,93.5,129.931" style="stroke: #A80036; stroke-width: 1.0;"/><text fill="#000000" font-family="sans-serif" font-size="13" lengthAdjust="spacingAndGlyphs" textLength="181" x="94.5" y="96.0669">crm:P52_has_current_owner</text></g></svg>