<?xml version="1.0" encoding="UTF-8" standalone="no"?><svg xmlns="http://www.w3.org/2000/svg" xmlns:xlink="http://www.w3.org/1999/xlink" contentScriptType="application/ecmascript" contentStyleType="text/css" height="406px" preserveAspectRatio="none" style="width:677px;height:406px;" version="1.1" viewBox="0 0 677 406" width="677px" zoomAndPan="magnify"><defs><filter height="300%" id="fjtnp6s" width="300%" x="-1" y="-1"><feGaussianBlur result="blurOut" stdDeviation="2.0"/><feColorMatrix in="blurOut" result="blurOut2" type="matrix" values="0 0 0 0 0 0 0 0 0 0 0 0 0 0 0 0 0 0 .4 0"/><feOffset dx="4.0" dy="4.0" in="blurOut2" result="blurOut3"/><feBlend in="SourceGraphic" in2="blurOut3" mode="normal"/></filter></defs><g><!--class _owner_--><rect fill="#FEFECE" filter="url(#fjtnp6s)" height="23.9688" style="stroke: #A80036; stroke-width: 1.5;" width="64" x="6" y="262.5"/><text fill="#000000" font-family="sans-serif" font-size="12" lengthAdjust="spacingAndGlyphs" textLength="58" x="9" y="278.6387">&lt;owner&gt;</text><!--class _acquisition_event_--><rect fill="#FEFECE" filter="url(#fjtnp6s)" height="44.7734" style="stroke: #A80036; stroke-width: 1.5;" width="135" x="226.5" y="130"/><text fill="#000000" font-family="sans-serif" font-size="12" lengthAdjust="spacingAndGlyphs" textLength="129" x="229.5" y="146.1387">&lt;acquisition_event&gt;</text><line style="stroke: #A80036; stroke-width: 1.5;" x1="227.5" x2="360.5" y1="153.9688" y2="153.9688"/><text fill="#000000" font-family="sans-serif" font-size="11" lengthAdjust="spacingAndGlyphs" textLength="118" x="232.5" y="168.1792">a crm:E8_Acquisition</text><!--class _acquisition_timespan_--><rect fill="#FEFECE" filter="url(#fjtnp6s)" height="44.7734" style="stroke: #A80036; stroke-width: 1.5;" width="158" x="215" y="252"/><text fill="#000000" font-family="sans-serif" font-size="12" lengthAdjust="spacingAndGlyphs" textLength="152" x="218" y="268.1387">&lt;acquisition_timespan&gt;</text><line style="stroke: #A80036; stroke-width: 1.5;" x1="216" x2="372" y1="275.9688" y2="275.9688"/><text fill="#000000" font-family="sans-serif" font-size="11" lengthAdjust="spacingAndGlyphs" textLength="125" x="221" y="290.1792">a crm:E52_Time-Span</text><!--class _display_date_--><rect fill="#FEFECE" filter="url(#fjtnp6s)" height="23.9688" style="stroke: #A80036; stroke-width: 1.5;" width="104" x="89" y="374"/><text fill="#000000" font-family="sans-serif" font-size="12" lengthAdjust="spacingAndGlyphs" textLength="98" x="92" y="390.1387">&lt;display_date&gt;</text><!--class _latest_date_--><rect fill="#FEFECE" filter="url(#fjtnp6s)" height="23.9688" style="stroke: #A80036; stroke-width: 1.5;" width="97" x="245.5" y="374"/><text fill="#000000" font-family="sans-serif" font-size="12" lengthAdjust="spacingAndGlyphs" textLength="91" x="248.5" y="390.1387">&lt;latest_date&gt;</text><!--class _earliest_date_--><rect fill="#FEFECE" filter="url(#fjtnp6s)" height="23.9688" style="stroke: #A80036; stroke-width: 1.5;" width="108" x="452" y="374"/><text fill="#000000" font-family="sans-serif" font-size="12" lengthAdjust="spacingAndGlyphs" textLength="102" x="455" y="390.1387">&lt;earliest_date&gt;</text><!--class _entity_uri_--><rect fill="#FEFECE" filter="url(#fjtnp6s)" height="44.7734" style="stroke: #A80036; stroke-width: 1.5;" width="175" x="6.5" y="8"/><text fill="#000000" font-family="sans-serif" font-size="12" lengthAdjust="spacingAndGlyphs" textLength="77" x="55.5" y="24.1387">&lt;entity_uri&gt;</text><line style="stroke: #A80036; stroke-width: 1.5;" x1="7.5" x2="180.5" y1="31.9688" y2="31.9688"/><text fill="#000000" font-family="sans-serif" font-size="11" lengthAdjust="spacingAndGlyphs" textLength="163" x="12.5" y="46.1792">a crm:E22_Man-Made_Object</text><path d="M226.419,169.691 C175.62,182.187 112.966,198.416 102,205 C79.2971,218.631 59.6004,242.605 48.2592,258.269 " fill="none" style="stroke: #A80036; stroke-width: 1.0;"/><polygon fill="#A80036" points="45.2864,262.451,53.7612,257.4332,48.1834,258.3758,47.2408,252.798,45.2864,262.451" style="stroke: #A80036; stroke-width: 1.0;"/><text fill="#000000" font-family="sans-serif" font-size="13" lengthAdjust="spacingAndGlyphs" textLength="182" x="103" y="218.0669">crm:P22_transferred_title_to</text><path d="M294,175.231 C294,195.365 294,225.366 294,246.919 " fill="none" style="stroke: #A80036; stroke-width: 1.0;"/><polygon fill="#A80036" points="294,251.931,298,242.931,294,246.931,290,242.931,294,251.931" style="stroke: #A80036; stroke-width: 1.0;"/><text fill="#000000" font-family="sans-serif" font-size="13" lengthAdjust="spacingAndGlyphs" textLength="147" x="295" y="218.0669">crm:P4_has_time-span</text><path d="M218.101,297.023 C200.864,304.4849 183.64,314.283 170,327 C157.788,338.3862 149.992,356.0465 145.594,368.8895 " fill="none" style="stroke: #A80036; stroke-width: 1.0;"/><polygon fill="#A80036" points="144.02,373.7233,150.6101,366.4041,145.5681,368.969,143.0032,363.9271,144.02,373.7233" style="stroke: #A80036; stroke-width: 1.0;"/><text fill="#000000" font-family="sans-serif" font-size="13" lengthAdjust="spacingAndGlyphs" textLength="111" x="171" y="340.0669">crm:P3_has_note</text><path d="M292.166,297.093 C291.242,310.5762 290.426,328.2975 291,344 C291.295,352.0707 291.915,361.0171 292.516,368.4883 " fill="none" style="stroke: #A80036; stroke-width: 1.0;"/><polygon fill="#A80036" points="292.965,373.8751,296.2024,364.5735,292.549,368.8924,288.2301,365.2391,292.965,373.8751" style="stroke: #A80036; stroke-width: 1.0;"/><text fill="#000000" font-family="sans-serif" font-size="13" lengthAdjust="spacingAndGlyphs" textLength="170" x="292" y="340.0669">crm:P82b_end_of_the_end</text><path d="M373.27,287.132 C404.684,294.651 439.734,306.9494 467,327 C481.801,337.8842 492.736,356.1817 499.201,369.3165 " fill="none" style="stroke: #A80036; stroke-width: 1.0;"/><polygon fill="#A80036" points="501.38,373.8987,501.1282,364.0531,499.2332,369.383,493.9032,367.488,501.38,373.8987" style="stroke: #A80036; stroke-width: 1.0;"/><text fill="#000000" font-family="sans-serif" font-size="13" lengthAdjust="spacingAndGlyphs" textLength="192" x="484" y="340.0669">crm:P82a_begin_of_the_begin</text><path d="M73.1203,53.247 C56.7367,71.922 35.2124,100.44 26,130 C12.1226,174.529 24.8449,230.367 32.7674,257.383 " fill="none" style="stroke: #A80036; stroke-width: 1.0;"/><polygon fill="#A80036" points="34.2786,262.39,35.5056,252.6179,32.833,257.6035,27.8473,254.9309,34.2786,262.39" style="stroke: #A80036; stroke-width: 1.0;"/><text fill="#000000" font-family="sans-serif" font-size="13" lengthAdjust="spacingAndGlyphs" textLength="181" x="27" y="157.0669">crm:P52_has_current_owner</text><path d="M130.218,53.231 C165.049,74.13 217.598,105.659 253.729,127.337 " fill="none" style="stroke: #A80036; stroke-width: 1.0;"/><polygon fill="#A80036" points="258.051,129.931,252.3912,121.8708,253.7634,127.3587,248.2755,128.731,258.051,129.931" style="stroke: #A80036; stroke-width: 1.0;"/><text fill="#000000" font-family="sans-serif" font-size="13" lengthAdjust="spacingAndGlyphs" textLength="246" x="207" y="96.0669">crm:P24i_changed_ownership_through</text></g></svg>