<?xml version="1.0" encoding="UTF-8" standalone="no"?><svg xmlns="http://www.w3.org/2000/svg" xmlns:xlink="http://www.w3.org/1999/xlink" contentScriptType="application/ecmascript" contentStyleType="text/css" height="320px" preserveAspectRatio="none" style="width:296px;height:320px;" version="1.1" viewBox="0 0 296 320" width="296px" zoomAndPan="magnify"><defs><filter height="300%" id="ftlr49n" width="300%" x="-1" y="-1"><feGaussianBlur result="blurOut" stdDeviation="2.0"/><feColorMatrix in="blurOut" result="blurOut2" type="matrix" values="0 0 0 0 0 0 0 0 0 0 0 0 0 0 0 0 0 0 .4 0"/><feOffset dx="4.0" dy="4.0" in="blurOut2" result="blurOut3"/><feBlend in="SourceGraphic" in2="blurOut3" mode="normal"/></filter></defs><g><!--class _identifier_url_--><rect fill="#FEFECE" filter="url(#ftlr49n)" height="44.7734" style="stroke: #A80036; stroke-width: 1.5;" width="126" x="82.5" y="130"/><text fill="#000000" font-family="sans-serif" font-size="12" lengthAdjust="spacingAndGlyphs" textLength="97" x="97" y="146.1387">&lt;identifier_url&gt;</text><line style="stroke: #A80036; stroke-width: 1.5;" x1="83.5" x2="207.5" y1="153.9688" y2="153.9688"/><text fill="#000000" font-family="sans-serif" font-size="11" lengthAdjust="spacingAndGlyphs" textLength="114" x="88.5" y="168.1792">a crm:E42_Identifier</text><!--class aat_300312355--><rect fill="#FEFECE" filter="url(#ftlr49n)" height="44.7734" style="stroke: #A80036; stroke-width: 1.5;" width="127" x="6" y="267"/><text fill="#000000" font-family="sans-serif" font-size="12" lengthAdjust="spacingAndGlyphs" textLength="97" x="21" y="283.1387">aat:300312355</text><line style="stroke: #A80036; stroke-width: 1.5;" x1="7" x2="132" y1="290.9688" y2="290.9688"/><text fill="#000000" font-family="sans-serif" font-size="11" lengthAdjust="spacingAndGlyphs" textLength="115" x="12" y="305.1792">"accession number"</text><!--class _identifier_--><rect fill="#FEFECE" filter="url(#ftlr49n)" height="23.9688" style="stroke: #A80036; stroke-width: 1.5;" width="81" x="181" y="277.5"/><text fill="#000000" font-family="sans-serif" font-size="12" lengthAdjust="spacingAndGlyphs" textLength="75" x="184" y="293.6387">&lt;identifier&gt;</text><!--class _entity_uri_--><rect fill="#FEFECE" filter="url(#ftlr49n)" height="44.7734" style="stroke: #A80036; stroke-width: 1.5;" width="175" x="58" y="8"/><text fill="#000000" font-family="sans-serif" font-size="12" lengthAdjust="spacingAndGlyphs" textLength="77" x="107" y="24.1387">&lt;entity_uri&gt;</text><line style="stroke: #A80036; stroke-width: 1.5;" x1="59" x2="232" y1="31.9688" y2="31.9688"/><text fill="#000000" font-family="sans-serif" font-size="11" lengthAdjust="spacingAndGlyphs" textLength="163" x="64" y="46.1792">a crm:E22_Man-Made_Object</text><path d="M96.1301,175.091 C84.324,182.746 73.2076,192.62 66.5,205 C57.1687,222.222 58.516,244.5073 61.8728,261.723 " fill="none" style="stroke: #A80036; stroke-width: 1.0;"/><polygon fill="#A80036" points="62.9695,266.8919,65.0143,257.2576,61.9317,262.0008,57.1885,258.9182,62.9695,266.8919" style="stroke: #A80036; stroke-width: 1.0;"/><text fill="#000000" font-family="sans-serif" font-size="13" lengthAdjust="spacingAndGlyphs" textLength="110" x="67.5" y="225.5669">crm:P2_has_type</text><path d="M162.46,175.201 C169.104,184.172 176.545,194.836 182.5,205 C195.694,227.5193 207.908,255.2434 215.035,272.3957 " fill="none" style="stroke: #A80036; stroke-width: 1.0;"/><polygon fill="#A80036" points="217.078,277.3619,217.3525,267.5169,215.1755,272.738,209.9543,270.5609,217.078,277.3619" style="stroke: #A80036; stroke-width: 1.0;"/><text fill="#000000" font-family="sans-serif" font-size="13" lengthAdjust="spacingAndGlyphs" textLength="58" x="199.5" y="218.0669">rdfs:label</text><text fill="#000000" font-family="sans-serif" font-size="13" lengthAdjust="spacingAndGlyphs" textLength="55" x="201" y="233.1997">rdf:value</text><path d="M145.5,53.231 C145.5,73.365 145.5,103.366 145.5,124.919 " fill="none" style="stroke: #A80036; stroke-width: 1.0;"/><polygon fill="#A80036" points="145.5,129.931,149.5,120.931,145.5,124.931,141.5,120.931,145.5,129.931" style="stroke: #A80036; stroke-width: 1.0;"/><text fill="#000000" font-family="sans-serif" font-size="13" lengthAdjust="spacingAndGlyphs" textLength="149" x="146.5" y="96.0669">crm:P1_is_identified_by</text></g></svg>