<?xml version="1.0" encoding="UTF-8" standalone="no"?><svg xmlns="http://www.w3.org/2000/svg" xmlns:xlink="http://www.w3.org/1999/xlink" contentScriptType="application/ecmascript" contentStyleType="text/css" height="406px" preserveAspectRatio="none" style="width:771px;height:406px;" version="1.1" viewBox="0 0 771 406" width="771px" zoomAndPan="magnify"><defs><filter height="300%" id="fuywf5k" width="300%" x="-1" y="-1"><feGaussianBlur result="blurOut" stdDeviation="2.0"/><feColorMatrix in="blurOut" result="blurOut2" type="matrix" values="0 0 0 0 0 0 0 0 0 0 0 0 0 0 0 0 0 0 .4 0"/><feOffset dx="4.0" dy="4.0" in="blurOut2" result="blurOut3"/><feBlend in="SourceGraphic" in2="blurOut3" mode="normal"/></filter></defs><g><!--class _death_timespan_--><rect fill="#FEFECE" filter="url(#fuywf5k)" height="44.7734" style="stroke: #A80036; stroke-width: 1.5;" width="137" x="202" y="252"/><text fill="#000000" font-family="sans-serif" font-size="12" lengthAdjust="spacingAndGlyphs" textLength="121" x="210" y="268.1387">&lt;death_timespan&gt;</text><line style="stroke: #A80036; stroke-width: 1.5;" x1="203" x2="338" y1="275.9688" y2="275.9688"/><text fill="#000000" font-family="sans-serif" font-size="11" lengthAdjust="spacingAndGlyphs" textLength="125" x="208" y="290.1792">a crm:E52_Time-Span</text><!--class _display_deathdate_--><rect fill="#FEFECE" filter="url(#fuywf5k)" height="23.9688" style="stroke: #A80036; stroke-width: 1.5;" width="141" x="6" y="374"/><text fill="#000000" font-family="sans-serif" font-size="12" lengthAdjust="spacingAndGlyphs" textLength="135" x="9" y="390.1387">&lt;display_deathdate&gt;</text><!--class _earliest_deathdate_--><rect fill="#FEFECE" filter="url(#fuywf5k)" height="23.9688" style="stroke: #A80036; stroke-width: 1.5;" width="145" x="182" y="374"/><text fill="#000000" font-family="sans-serif" font-size="12" lengthAdjust="spacingAndGlyphs" textLength="139" x="185" y="390.1387">&lt;earliest_deathdate&gt;</text><!--class _latest_deathdate_--><rect fill="#FEFECE" filter="url(#fuywf5k)" height="23.9688" style="stroke: #A80036; stroke-width: 1.5;" width="134" x="421.5" y="374"/><text fill="#000000" font-family="sans-serif" font-size="12" lengthAdjust="spacingAndGlyphs" textLength="128" x="424.5" y="390.1387">&lt;latest_deathdate&gt;</text><!--class _death_location_class_--><rect fill="#FEFECE" filter="url(#fuywf5k)" height="44.7734" style="stroke: #A80036; stroke-width: 1.5;" width="157" x="605" y="252"/><text fill="#000000" font-family="sans-serif" font-size="12" lengthAdjust="spacingAndGlyphs" textLength="151" x="608" y="268.1387">&lt;death_location_class&gt;</text><line style="stroke: #A80036; stroke-width: 1.5;" x1="606" x2="761" y1="275.9688" y2="275.9688"/><text fill="#000000" font-family="sans-serif" font-size="11" lengthAdjust="spacingAndGlyphs" textLength="94" x="611" y="290.1792">a crm:E53_Place</text><!--class _death_location_--><rect fill="#FEFECE" filter="url(#fuywf5k)" height="23.9688" style="stroke: #A80036; stroke-width: 1.5;" width="119" x="641" y="374"/><text fill="#000000" font-family="sans-serif" font-size="12" lengthAdjust="spacingAndGlyphs" textLength="113" x="644" y="390.1387">&lt;death_location&gt;</text><!--class _death_event_--><rect fill="#FEFECE" filter="url(#fuywf5k)" height="44.7734" style="stroke: #A80036; stroke-width: 1.5;" width="174" x="341.5" y="130"/><text fill="#000000" font-family="sans-serif" font-size="12" lengthAdjust="spacingAndGlyphs" textLength="98" x="379.5" y="146.1387">&lt;death_event&gt;</text><line style="stroke: #A80036; stroke-width: 1.5;" x1="342.5" x2="514.5" y1="153.9688" y2="153.9688"/><text fill="#000000" font-family="sans-serif" font-size="11" lengthAdjust="spacingAndGlyphs" textLength="162" x="347.5" y="168.1792">a crm:E64_End_of_Existence</text><!--class _entity_uri_--><rect fill="#FEFECE" filter="url(#fuywf5k)" height="44.7734" style="stroke: #A80036; stroke-width: 1.5;" width="105" x="376" y="8"/><text fill="#000000" font-family="sans-serif" font-size="12" lengthAdjust="spacingAndGlyphs" textLength="77" x="390" y="24.1387">&lt;entity_uri&gt;</text><line style="stroke: #A80036; stroke-width: 1.5;" x1="377" x2="480" y1="31.9688" y2="31.9688"/><text fill="#000000" font-family="sans-serif" font-size="11" lengthAdjust="spacingAndGlyphs" textLength="93" x="382" y="46.1792">a crm:E39_Actor</text><path d="M232.172,297.134 C193.125,319.1732 133.759,352.681 100.7658,371.3036 " fill="none" style="stroke: #A80036; stroke-width: 1.0;"/><polygon fill="#A80036" points="96.0949,373.94,105.8988,372.9997,100.4492,371.4824,101.9665,366.0328,96.0949,373.94" style="stroke: #A80036; stroke-width: 1.0;"/><text fill="#000000" font-family="sans-serif" font-size="13" lengthAdjust="spacingAndGlyphs" textLength="58" x="174.5" y="340.0669">rdfs:label</text><path d="M260.606,297.077 C256.974,306.1188 253.309,316.8678 251.5,327 C249.01,340.9443 250.156,357.0507 251.698,368.7469 " fill="none" style="stroke: #A80036; stroke-width: 1.0;"/><polygon fill="#A80036" points="252.422,373.7869,255.101,364.3094,251.7107,368.8378,247.1823,365.4475,252.422,373.7869" style="stroke: #A80036; stroke-width: 1.0;"/><text fill="#000000" font-family="sans-serif" font-size="13" lengthAdjust="spacingAndGlyphs" textLength="192" x="252.5" y="340.0669">crm:p82a_begin_of_the_begin</text><path d="M339.208,283.797 C374.771,290.78 417.349,303.5836 449.5,327 C464.351,337.816 475.277,356.126 481.726,369.2823 " fill="none" style="stroke: #A80036; stroke-width: 1.0;"/><polygon fill="#A80036" points="483.898,373.8728,483.6626,364.0268,481.7587,369.3536,476.4319,367.4496,483.898,373.8728" style="stroke: #A80036; stroke-width: 1.0;"/><text fill="#000000" font-family="sans-serif" font-size="13" lengthAdjust="spacingAndGlyphs" textLength="170" x="467.5" y="340.0669">crm:p82b_end_of_the_end</text><path d="M686.859,297.134 C690.131,318.213 695.033,349.783 697.983,368.7869 " fill="none" style="stroke: #A80036; stroke-width: 1.0;"/><polygon fill="#A80036" points="698.76,373.7946,701.3315,364.2874,697.9927,368.8538,693.4263,365.515,698.76,373.7946" style="stroke: #A80036; stroke-width: 1.0;"/><text fill="#000000" font-family="sans-serif" font-size="13" lengthAdjust="spacingAndGlyphs" textLength="58" x="695.5" y="340.0669">rdfs:label</text><path d="M399.887,175.231 C372.595,195.96 331.532,227.147 303.013,248.806 " fill="none" style="stroke: #A80036; stroke-width: 1.0;"/><polygon fill="#A80036" points="298.9,251.931,308.4864,249.6723,302.8816,248.9066,303.6473,243.3018,298.9,251.931" style="stroke: #A80036; stroke-width: 1.0;"/><text fill="#000000" font-family="sans-serif" font-size="13" lengthAdjust="spacingAndGlyphs" textLength="147" x="360.5" y="218.0669">crm:P4_has_time-span</text><path d="M474.383,175.092 C519.022,196.099 586.687,227.941 632.875,249.676 " fill="none" style="stroke: #A80036; stroke-width: 1.0;"/><polygon fill="#A80036" points="637.556,251.879,631.118,244.4257,633.0325,249.7487,627.7095,251.6633,637.556,251.879" style="stroke: #A80036; stroke-width: 1.0;"/><text fill="#000000" font-family="sans-serif" font-size="13" lengthAdjust="spacingAndGlyphs" textLength="141" x="572.5" y="218.0669">crm:P7_took_place_at</text><path d="M428.5,53.231 C428.5,73.365 428.5,103.366 428.5,124.919 " fill="none" style="stroke: #A80036; stroke-width: 1.0;"/><polygon fill="#A80036" points="428.5,129.931,432.5,120.931,428.5,124.931,424.5,120.931,428.5,129.931" style="stroke: #A80036; stroke-width: 1.0;"/><text fill="#000000" font-family="sans-serif" font-size="13" lengthAdjust="spacingAndGlyphs" textLength="267" x="429.5" y="96.0669">crm:P93i_was_taken_out_of_existence_by</text></g></svg>