<?xml version="1.0" encoding="UTF-8" standalone="no"?><svg xmlns="http://www.w3.org/2000/svg" xmlns:xlink="http://www.w3.org/1999/xlink" contentScriptType="application/ecmascript" contentStyleType="text/css" height="305px" preserveAspectRatio="none" style="width:330px;height:305px;" version="1.1" viewBox="0 0 330 305" width="330px" zoomAndPan="magnify"><defs><filter height="300%" id="fw0gcsu" width="300%" x="-1" y="-1"><feGaussianBlur result="blurOut" stdDeviation="2.0"/><feColorMatrix in="blurOut" result="blurOut2" type="matrix" values="0 0 0 0 0 0 0 0 0 0 0 0 0 0 0 0 0 0 .4 0"/><feOffset dx="4.0" dy="4.0" in="blurOut2" result="blurOut3"/><feBlend in="SourceGraphic" in2="blurOut3" mode="normal"/></filter></defs><g><!--class aat_300266036--><rect fill="#FEFECE" filter="url(#fw0gcsu)" height="44.7734" style="stroke: #A80036; stroke-width: 1.5;" width="103" x="6" y="252"/><text fill="#000000" font-family="sans-serif" font-size="12" lengthAdjust="spacingAndGlyphs" textLength="97" x="9" y="268.1387">aat:300266036</text><line style="stroke: #A80036; stroke-width: 1.5;" x1="7" x2="108" y1="275.9688" y2="275.9688"/><text fill="#000000" font-family="sans-serif" font-size="11" lengthAdjust="spacingAndGlyphs" textLength="76" x="12" y="290.1792">"dimensions"</text><!--class _dimension_class_--><rect fill="#FEFECE" filter="url(#fw0gcsu)" height="44.7734" style="stroke: #A80036; stroke-width: 1.5;" width="171" x="59" y="130"/><text fill="#000000" font-family="sans-serif" font-size="12" lengthAdjust="spacingAndGlyphs" textLength="122" x="83.5" y="146.1387">&lt;dimension_class&gt;</text><line style="stroke: #A80036; stroke-width: 1.5;" x1="60" x2="229" y1="153.9688" y2="153.9688"/><text fill="#000000" font-family="sans-serif" font-size="11" lengthAdjust="spacingAndGlyphs" textLength="159" x="65" y="168.1792">a crm:E33_Linguistic_Object</text><!--class _dimension_reference_--><rect fill="#FEFECE" filter="url(#fw0gcsu)" height="44.7734" style="stroke: #A80036; stroke-width: 1.5;" width="177" x="144" y="252"/><text fill="#000000" font-family="sans-serif" font-size="12" lengthAdjust="spacingAndGlyphs" textLength="151" x="157" y="268.1387">&lt;dimension_reference&gt;</text><line style="stroke: #A80036; stroke-width: 1.5;" x1="145" x2="320" y1="275.9688" y2="275.9688"/><text fill="#000000" font-family="sans-serif" font-size="11" lengthAdjust="spacingAndGlyphs" textLength="165" x="150" y="290.1792">"dimension value goes here"</text><!--class _entity_uri_--><rect fill="#FEFECE" filter="url(#fw0gcsu)" height="44.7734" style="stroke: #A80036; stroke-width: 1.5;" width="175" x="57" y="8"/><text fill="#000000" font-family="sans-serif" font-size="12" lengthAdjust="spacingAndGlyphs" textLength="77" x="106" y="24.1387">&lt;entity_uri&gt;</text><line style="stroke: #A80036; stroke-width: 1.5;" x1="58" x2="231" y1="31.9688" y2="31.9688"/><text fill="#000000" font-family="sans-serif" font-size="11" lengthAdjust="spacingAndGlyphs" textLength="163" x="63" y="46.1792">a crm:E22_Man-Made_Object</text><path d="M108.016,175.081 C96.8593,183.225 85.4499,193.374 77.5,205 C69.0424,217.3686 64.1122,233.3396 61.2642,246.7485 " fill="none" style="stroke: #A80036; stroke-width: 1.0;"/><polygon fill="#A80036" points="60.2367,251.9385,65.9086,243.8868,61.2078,247.0337,58.0609,242.333,60.2367,251.9385" style="stroke: #A80036; stroke-width: 1.0;"/><text fill="#000000" font-family="sans-serif" font-size="13" lengthAdjust="spacingAndGlyphs" textLength="110" x="78.5" y="218.0669">crm:P2_has_type</text><path d="M167.218,175.008 C175.956,183.865 185.698,194.5 193.5,205 C203.314,218.2068 212.512,234.1182 219.508,247.2804 " fill="none" style="stroke: #A80036; stroke-width: 1.0;"/><polygon fill="#A80036" points="221.983,251.9952,221.3415,242.1673,219.659,247.5681,214.2582,245.8856,221.983,251.9952" style="stroke: #A80036; stroke-width: 1.0;"/><text fill="#000000" font-family="sans-serif" font-size="13" lengthAdjust="spacingAndGlyphs" textLength="55" x="204.5" y="218.0669">rdf:value</text><path d="M144.5,53.231 C144.5,73.365 144.5,103.366 144.5,124.919 " fill="none" style="stroke: #A80036; stroke-width: 1.0;"/><polygon fill="#A80036" points="144.5,129.931,148.5,120.931,144.5,124.931,140.5,120.931,144.5,129.931" style="stroke: #A80036; stroke-width: 1.0;"/><text fill="#000000" font-family="sans-serif" font-size="13" lengthAdjust="spacingAndGlyphs" textLength="173" x="145.5" y="96.0669">crm:p67i_is_referred_to_by</text></g></svg>