<?xml version="1.0" encoding="UTF-8" standalone="no"?><svg xmlns="http://www.w3.org/2000/svg" xmlns:xlink="http://www.w3.org/1999/xlink" contentScriptType="application/ecmascript" contentStyleType="text/css" height="427px" preserveAspectRatio="none" style="width:329px;height:427px;" version="1.1" viewBox="0 0 329 427" width="329px" zoomAndPan="magnify"><defs><filter height="300%" id="fkylpeq" width="300%" x="-1" y="-1"><feGaussianBlur result="blurOut" stdDeviation="2.0"/><feColorMatrix in="blurOut" result="blurOut2" type="matrix" values="0 0 0 0 0 0 0 0 0 0 0 0 0 0 0 0 0 0 .4 0"/><feOffset dx="4.0" dy="4.0" in="blurOut2" result="blurOut3"/><feBlend in="SourceGraphic" in2="blurOut3" mode="normal"/></filter></defs><g><!--class _gender_type_class_--><rect fill="#FEFECE" filter="url(#fkylpeq)" height="44.7734" style="stroke: #A80036; stroke-width: 1.5;" width="142" x="61.5" y="252"/><text fill="#000000" font-family="sans-serif" font-size="12" lengthAdjust="spacingAndGlyphs" textLength="136" x="64.5" y="268.1387">&lt;gender_type_class&gt;</text><line style="stroke: #A80036; stroke-width: 1.5;" x1="62.5" x2="202.5" y1="275.9688" y2="275.9688"/><text fill="#000000" font-family="sans-serif" font-size="11" lengthAdjust="spacingAndGlyphs" textLength="91" x="67.5" y="290.1792">a crm:E55_Type</text><!--class aat_300055147--><rect fill="#FEFECE" filter="url(#fkylpeq)" height="44.7734" style="stroke: #A80036; stroke-width: 1.5;" width="103" x="6" y="374"/><text fill="#000000" font-family="sans-serif" font-size="12" lengthAdjust="spacingAndGlyphs" textLength="97" x="9" y="390.1387">aat:300055147</text><line style="stroke: #A80036; stroke-width: 1.5;" x1="7" x2="108" y1="397.9688" y2="397.9688"/><text fill="#000000" font-family="sans-serif" font-size="11" lengthAdjust="spacingAndGlyphs" textLength="56" x="12" y="412.1792">"sex role"</text><!--class _gender_type_--><rect fill="#FEFECE" filter="url(#fkylpeq)" height="23.9688" style="stroke: #A80036; stroke-width: 1.5;" width="104" x="156.5" y="384.5"/><text fill="#000000" font-family="sans-serif" font-size="12" lengthAdjust="spacingAndGlyphs" textLength="98" x="159.5" y="400.6387">&lt;gender_type&gt;</text><!--class _gender_class_--><rect fill="#FEFECE" filter="url(#fkylpeq)" height="44.7734" style="stroke: #A80036; stroke-width: 1.5;" width="109" x="154" y="130"/><text fill="#000000" font-family="sans-serif" font-size="12" lengthAdjust="spacingAndGlyphs" textLength="103" x="157" y="146.1387">&lt;gender_class&gt;</text><line style="stroke: #A80036; stroke-width: 1.5;" x1="155" x2="262" y1="153.9688" y2="153.9688"/><text fill="#000000" font-family="sans-serif" font-size="11" lengthAdjust="spacingAndGlyphs" textLength="91" x="160" y="168.1792">a crm:E55_Type</text><!--class _gender_--><rect fill="#FEFECE" filter="url(#fkylpeq)" height="23.9688" style="stroke: #A80036; stroke-width: 1.5;" width="71" x="249" y="262.5"/><text fill="#000000" font-family="sans-serif" font-size="12" lengthAdjust="spacingAndGlyphs" textLength="65" x="252" y="278.6387">&lt;gender&gt;</text><!--class _entity_uri_--><rect fill="#FEFECE" filter="url(#fkylpeq)" height="44.7734" style="stroke: #A80036; stroke-width: 1.5;" width="105" x="156" y="8"/><text fill="#000000" font-family="sans-serif" font-size="12" lengthAdjust="spacingAndGlyphs" textLength="77" x="170" y="24.1387">&lt;entity_uri&gt;</text><line style="stroke: #A80036; stroke-width: 1.5;" x1="157" x2="260" y1="31.9688" y2="31.9688"/><text fill="#000000" font-family="sans-serif" font-size="11" lengthAdjust="spacingAndGlyphs" textLength="93" x="162" y="46.1792">a crm:E39_Actor</text><path d="M83.7412,297.211 C72.0845,304.866 61.1123,314.711 54.5,327 C47.7282,339.5858 47.9681,355.4332 50.1324,368.7146 " fill="none" style="stroke: #A80036; stroke-width: 1.0;"/><polygon fill="#A80036" points="51.0841,373.8543,53.3785,364.2764,50.1737,368.9379,45.5122,365.7331,51.0841,373.8543" style="stroke: #A80036; stroke-width: 1.0;"/><text fill="#000000" font-family="sans-serif" font-size="13" lengthAdjust="spacingAndGlyphs" textLength="109" x="55.5" y="340.0669">skos:broadMatch</text><path d="M148.864,297.201 C155.493,306.262 163.081,316.992 169.5,327 C180.784,344.5936 192.486,365.5767 200.09,379.6423 " fill="none" style="stroke: #A80036; stroke-width: 1.0;"/><polygon fill="#A80036" points="202.505,384.1323,201.7635,374.3114,200.1361,379.7291,194.7184,378.1016,202.505,384.1323" style="stroke: #A80036; stroke-width: 1.0;"/><text fill="#000000" font-family="sans-serif" font-size="13" lengthAdjust="spacingAndGlyphs" textLength="92" x="181.5" y="340.0669">skos:prefLabel</text><path d="M159.13,175.091 C147.324,182.746 136.208,192.62 129.5,205 C122.691,217.566 122.929,233.412 125.101,246.698 " fill="none" style="stroke: #A80036; stroke-width: 1.0;"/><polygon fill="#A80036" points="126.057,251.84,128.3465,242.261,125.1441,246.924,120.481,243.7216,126.057,251.84" style="stroke: #A80036; stroke-width: 1.0;"/><text fill="#000000" font-family="sans-serif" font-size="13" lengthAdjust="spacingAndGlyphs" textLength="110" x="130.5" y="218.0669">crm:P2_has_type</text><path d="M224.864,175.201 C231.493,184.262 239.081,194.992 245.5,205 C256.784,222.594 268.486,243.577 276.09,257.642 " fill="none" style="stroke: #A80036; stroke-width: 1.0;"/><polygon fill="#A80036" points="278.505,262.132,277.7638,252.3111,276.1362,257.7287,270.7186,256.1011,278.505,262.132" style="stroke: #A80036; stroke-width: 1.0;"/><text fill="#000000" font-family="sans-serif" font-size="13" lengthAdjust="spacingAndGlyphs" textLength="58" x="257.5" y="218.0669">rdfs:label</text><path d="M208.5,53.231 C208.5,73.365 208.5,103.366 208.5,124.919 " fill="none" style="stroke: #A80036; stroke-width: 1.0;"/><polygon fill="#A80036" points="208.5,129.931,212.5,120.931,208.5,124.931,204.5,120.931,208.5,129.931" style="stroke: #A80036; stroke-width: 1.0;"/><text fill="#000000" font-family="sans-serif" font-size="13" lengthAdjust="spacingAndGlyphs" textLength="110" x="209.5" y="96.0669">crm:P2_has_type</text></g></svg>