<?xml version="1.0" encoding="UTF-8" standalone="no"?><svg xmlns="http://www.w3.org/2000/svg" xmlns:xlink="http://www.w3.org/1999/xlink" contentScriptType="application/ecmascript" contentStyleType="text/css" height="263px" preserveAspectRatio="none" style="width:254px;height:263px;" version="1.1" viewBox="0 0 254 263" width="254px" zoomAndPan="magnify"><defs><filter height="300%" id="ffl7w50" width="300%" x="-1" y="-1"><feGaussianBlur result="blurOut" stdDeviation="2.0"/><feColorMatrix in="blurOut" result="blurOut2" type="matrix" values="0 0 0 0 0 0 0 0 0 0 0 0 0 0 0 0 0 0 .4 0"/><feOffset dx="4.0" dy="4.0" in="blurOut2" result="blurOut3"/><feBlend in="SourceGraphic" in2="blurOut3" mode="normal"/></filter></defs><g><!--class _entity_uri_--><rect fill="#FEFECE" filter="url(#ffl7w50)" height="44.7734" style="stroke: #A80036; stroke-width: 1.5;" width="105" x="69.5" y="8"/><text fill="#000000" font-family="sans-serif" font-size="12" lengthAdjust="spacingAndGlyphs" textLength="77" x="83.5" y="24.1387">&lt;entity_uri&gt;</text><line style="stroke: #A80036; stroke-width: 1.5;" x1="70.5" x2="173.5" y1="31.9688" y2="31.9688"/><text fill="#000000" font-family="sans-serif" font-size="11" lengthAdjust="spacingAndGlyphs" textLength="93" x="75.5" y="46.1792">a crm:E39_Actor</text><!--class _lod_identifier_--><rect fill="#FEFECE" filter="url(#ffl7w50)" height="23.9688" style="stroke: #A80036; stroke-width: 1.5;" width="106" x="69" y="130"/><text fill="#000000" font-family="sans-serif" font-size="12" lengthAdjust="spacingAndGlyphs" textLength="100" x="72" y="146.1387">&lt;lod_identifier&gt;</text><!--class _lod_source_--><rect fill="#FEFECE" filter="url(#ffl7w50)" height="23.9688" style="stroke: #A80036; stroke-width: 1.5;" width="94" x="6" y="231"/><text fill="#000000" font-family="sans-serif" font-size="12" lengthAdjust="spacingAndGlyphs" textLength="88" x="9" y="247.1387">&lt;lod_source&gt;</text><!--class _lod_label_--><rect fill="#FEFECE" filter="url(#ffl7w50)" height="23.9688" style="stroke: #A80036; stroke-width: 1.5;" width="81" x="151.5" y="231"/><text fill="#000000" font-family="sans-serif" font-size="12" lengthAdjust="spacingAndGlyphs" textLength="75" x="154.5" y="247.1387">&lt;lod_label&gt;</text><path d="M122,53.134 C122,74.213 122,105.783 122,124.787 " fill="none" style="stroke: #A80036; stroke-width: 1.0;"/><polygon fill="#A80036" points="122,129.795,126,120.795,122,124.795,118,120.795,122,129.795" style="stroke: #A80036; stroke-width: 1.0;"/><text fill="#000000" font-family="sans-serif" font-size="13" lengthAdjust="spacingAndGlyphs" textLength="105" x="123" y="96.0669">skos:closeMatch</text><path d="M86.9708,154.103 C72.8902,160.483 58.0968,170.0717 50,184 C42.6396,196.6615 44.5973,213.6267 47.6687,225.9359 " fill="none" style="stroke: #A80036; stroke-width: 1.0; stroke-dasharray: 7.0,7.0;"/><polygon fill="#A80036" points="49.0293,230.9001,50.5079,221.1629,47.7076,226.078,42.7925,223.2776,49.0293,230.9001" style="stroke: #A80036; stroke-width: 1.0;"/><text fill="#000000" font-family="sans-serif" font-size="13" lengthAdjust="spacingAndGlyphs" textLength="97" x="51" y="197.0669">skos:inScheme</text><path d="M130.589,154.013 C136.908,162.1979 145.641,173.6845 153,184 C163.079,198.1271 174.068,214.5713 181.805,226.3348 " fill="none" style="stroke: #A80036; stroke-width: 1.0; stroke-dasharray: 7.0,7.0;"/><polygon fill="#A80036" points="184.705,230.7556,183.1142,221.0361,181.963,226.5745,176.4245,225.4233,184.705,230.7556" style="stroke: #A80036; stroke-width: 1.0;"/><text fill="#000000" font-family="sans-serif" font-size="13" lengthAdjust="spacingAndGlyphs" textLength="88" x="165" y="197.0669">skos:preflabel</text></g></svg>