<?xml version="1.0" encoding="UTF-8" standalone="no"?><svg xmlns="http://www.w3.org/2000/svg" xmlns:xlink="http://www.w3.org/1999/xlink" contentScriptType="application/ecmascript" contentStyleType="text/css" height="406px" preserveAspectRatio="none" style="width:578px;height:406px;" version="1.1" viewBox="0 0 578 406" width="578px" zoomAndPan="magnify"><defs><filter height="300%" id="f76nd4i" width="300%" x="-1" y="-1"><feGaussianBlur result="blurOut" stdDeviation="2.0"/><feColorMatrix in="blurOut" result="blurOut2" type="matrix" values="0 0 0 0 0 0 0 0 0 0 0 0 0 0 0 0 0 0 .4 0"/><feOffset dx="4.0" dy="4.0" in="blurOut2" result="blurOut3"/><feBlend in="SourceGraphic" in2="blurOut3" mode="normal"/></filter></defs><g><!--class _production_timespan_--><rect fill="#FEFECE" filter="url(#f76nd4i)" height="44.7734" style="stroke: #A80036; stroke-width: 1.5;" width="158" x="115" y="252"/><text fill="#000000" font-family="sans-serif" font-size="12" lengthAdjust="spacingAndGlyphs" textLength="152" x="118" y="268.1387">&lt;production_timespan&gt;</text><line style="stroke: #A80036; stroke-width: 1.5;" x1="116" x2="272" y1="275.9688" y2="275.9688"/><text fill="#000000" font-family="sans-serif" font-size="11" lengthAdjust="spacingAndGlyphs" textLength="125" x="121" y="290.1792">a crm:E52_Time-Span</text><!--class _display_date_--><rect fill="#FEFECE" filter="url(#f76nd4i)" height="23.9688" style="stroke: #A80036; stroke-width: 1.5;" width="104" x="6" y="374"/><text fill="#000000" font-family="sans-serif" font-size="12" lengthAdjust="spacingAndGlyphs" textLength="98" x="9" y="390.1387">&lt;display_date&gt;</text><!--class _latest_date_--><rect fill="#FEFECE" filter="url(#f76nd4i)" height="23.9688" style="stroke: #A80036; stroke-width: 1.5;" width="97" x="145.5" y="374"/><text fill="#000000" font-family="sans-serif" font-size="12" lengthAdjust="spacingAndGlyphs" textLength="91" x="148.5" y="390.1387">&lt;latest_date&gt;</text><!--class _earliest_date_--><rect fill="#FEFECE" filter="url(#f76nd4i)" height="23.9688" style="stroke: #A80036; stroke-width: 1.5;" width="108" x="352" y="374"/><text fill="#000000" font-family="sans-serif" font-size="12" lengthAdjust="spacingAndGlyphs" textLength="102" x="355" y="390.1387">&lt;earliest_date&gt;</text><!--class _entity_uri_--><rect fill="#FEFECE" filter="url(#f76nd4i)" height="44.7734" style="stroke: #A80036; stroke-width: 1.5;" width="175" x="106.5" y="8"/><text fill="#000000" font-family="sans-serif" font-size="12" lengthAdjust="spacingAndGlyphs" textLength="77" x="155.5" y="24.1387">&lt;entity_uri&gt;</text><line style="stroke: #A80036; stroke-width: 1.5;" x1="107.5" x2="280.5" y1="31.9688" y2="31.9688"/><text fill="#000000" font-family="sans-serif" font-size="11" lengthAdjust="spacingAndGlyphs" textLength="163" x="112.5" y="46.1792">a crm:E22_Man-Made_Object</text><!--class _production_event_--><rect fill="#FEFECE" filter="url(#f76nd4i)" height="44.7734" style="stroke: #A80036; stroke-width: 1.5;" width="136" x="126" y="130"/><text fill="#000000" font-family="sans-serif" font-size="12" lengthAdjust="spacingAndGlyphs" textLength="129" x="129.5" y="146.1387">&lt;production_event&gt;</text><line style="stroke: #A80036; stroke-width: 1.5;" x1="127" x2="261" y1="153.9688" y2="153.9688"/><text fill="#000000" font-family="sans-serif" font-size="11" lengthAdjust="spacingAndGlyphs" textLength="124" x="132" y="168.1792">a crm:E12_Production</text><path d="M162.738,297.143 C150.175,306.1058 135.689,316.7795 123,327 C105.4939,341.0999 86.406,358.3773 73.4735,370.3902 " fill="none" style="stroke: #A80036; stroke-width: 1.0;"/><polygon fill="#A80036" points="69.6662,373.94,78.9766,370.7281,73.3232,370.5303,73.521,364.8769,69.6662,373.94" style="stroke: #A80036; stroke-width: 1.0;"/><text fill="#000000" font-family="sans-serif" font-size="13" lengthAdjust="spacingAndGlyphs" textLength="58" x="124" y="340.0669">rdfs:label</text><path d="M192.166,297.093 C191.242,310.5762 190.426,328.2975 191,344 C191.295,352.0707 191.915,361.0171 192.516,368.4883 " fill="none" style="stroke: #A80036; stroke-width: 1.0;"/><polygon fill="#A80036" points="192.965,373.8751,196.2024,364.5735,192.549,368.8924,188.2301,365.2391,192.965,373.8751" style="stroke: #A80036; stroke-width: 1.0;"/><text fill="#000000" font-family="sans-serif" font-size="13" lengthAdjust="spacingAndGlyphs" textLength="170" x="192" y="340.0669">crm:p82b_end_of_the_end</text><path d="M273.27,287.132 C304.684,294.651 339.734,306.9494 367,327 C381.801,337.8842 392.736,356.1817 399.201,369.3165 " fill="none" style="stroke: #A80036; stroke-width: 1.0;"/><polygon fill="#A80036" points="401.38,373.8987,401.1282,364.0531,399.2332,369.383,393.9032,367.488,401.38,373.8987" style="stroke: #A80036; stroke-width: 1.0;"/><text fill="#000000" font-family="sans-serif" font-size="13" lengthAdjust="spacingAndGlyphs" textLength="192" x="385" y="340.0669">crm:p82a_begin_of_the_begin</text><path d="M194,53.231 C194,73.365 194,103.366 194,124.919 " fill="none" style="stroke: #A80036; stroke-width: 1.0;"/><polygon fill="#A80036" points="194,129.931,198,120.931,194,124.931,190,120.931,194,129.931" style="stroke: #A80036; stroke-width: 1.0;"/><text fill="#000000" font-family="sans-serif" font-size="13" lengthAdjust="spacingAndGlyphs" textLength="184" x="195" y="96.0669">crm:P108i_was_produced_by</text><path d="M194,175.231 C194,195.365 194,225.366 194,246.919 " fill="none" style="stroke: #A80036; stroke-width: 1.0;"/><polygon fill="#A80036" points="194,251.931,198,242.931,194,246.931,190,242.931,194,251.931" style="stroke: #A80036; stroke-width: 1.0;"/><text fill="#000000" font-family="sans-serif" font-size="13" lengthAdjust="spacingAndGlyphs" textLength="142" x="195" y="218.0669">crm:P4_has_timespan</text></g></svg>