<?xml version="1.0" encoding="UTF-8" standalone="no"?><svg xmlns="http://www.w3.org/2000/svg" xmlns:xlink="http://www.w3.org/1999/xlink" contentScriptType="application/ecmascript" contentStyleType="text/css" height="528px" preserveAspectRatio="none" style="width:534px;height:528px;" version="1.1" viewBox="0 0 534 528" width="534px" zoomAndPan="magnify"><defs><filter height="300%" id="f3ubq2u" width="300%" x="-1" y="-1"><feGaussianBlur result="blurOut" stdDeviation="2.0"/><feColorMatrix in="blurOut" result="blurOut2" type="matrix" values="0 0 0 0 0 0 0 0 0 0 0 0 0 0 0 0 0 0 .4 0"/><feOffset dx="4.0" dy="4.0" in="blurOut2" result="blurOut3"/><feBlend in="SourceGraphic" in2="blurOut3" mode="normal"/></filter></defs><g><!--class _author_class_--><rect fill="#FEFECE" filter="url(#f3ubq2u)" height="44.7734" style="stroke: #A80036; stroke-width: 1.5;" width="106" x="318.5" y="374"/><text fill="#000000" font-family="sans-serif" font-size="12" lengthAdjust="spacingAndGlyphs" textLength="100" x="321.5" y="390.1387">&lt;author_class&gt;</text><line style="stroke: #A80036; stroke-width: 1.5;" x1="319.5" x2="423.5" y1="397.9688" y2="397.9688"/><text fill="#000000" font-family="sans-serif" font-size="11" lengthAdjust="spacingAndGlyphs" textLength="93" x="324.5" y="412.1792">a crm:E39_Actor</text><!--class _alt_desc_author_lod_id_--><rect fill="#FEFECE" filter="url(#f3ubq2u)" height="23.9688" style="stroke: #A80036; stroke-width: 1.5;" width="168" x="196.5" y="496"/><text fill="#000000" font-family="sans-serif" font-size="12" lengthAdjust="spacingAndGlyphs" textLength="162" x="199.5" y="512.1387">&lt;alt_desc_author_lod_id&gt;</text><!--class _alt_desc_author_--><rect fill="#FEFECE" filter="url(#f3ubq2u)" height="23.9688" style="stroke: #A80036; stroke-width: 1.5;" width="126" x="399.5" y="496"/><text fill="#000000" font-family="sans-serif" font-size="12" lengthAdjust="spacingAndGlyphs" textLength="120" x="402.5" y="512.1387">&lt;alt_desc_author&gt;</text><!--class aat_300080091--><rect fill="#FEFECE" filter="url(#f3ubq2u)" height="44.7734" style="stroke: #A80036; stroke-width: 1.5;" width="103" x="6" y="252"/><text fill="#000000" font-family="sans-serif" font-size="12" lengthAdjust="spacingAndGlyphs" textLength="97" x="9" y="268.1387">aat:300080091</text><line style="stroke: #A80036; stroke-width: 1.5;" x1="7" x2="108" y1="275.9688" y2="275.9688"/><text fill="#000000" font-family="sans-serif" font-size="11" lengthAdjust="spacingAndGlyphs" textLength="73" x="12" y="290.1792">"description"</text><!--class _description_class_--><rect fill="#FEFECE" filter="url(#f3ubq2u)" height="44.7734" style="stroke: #A80036; stroke-width: 1.5;" width="171" x="124" y="130"/><text fill="#000000" font-family="sans-serif" font-size="12" lengthAdjust="spacingAndGlyphs" textLength="128" x="145.5" y="146.1387">&lt;description_class&gt;</text><line style="stroke: #A80036; stroke-width: 1.5;" x1="125" x2="294" y1="153.9688" y2="153.9688"/><text fill="#000000" font-family="sans-serif" font-size="11" lengthAdjust="spacingAndGlyphs" textLength="159" x="130" y="168.1792">a crm:E33_Linguistic_Object</text><!--class _alt_description_--><rect fill="#FEFECE" filter="url(#f3ubq2u)" height="23.9688" style="stroke: #A80036; stroke-width: 1.5;" width="118" x="150.5" y="262.5"/><text fill="#000000" font-family="sans-serif" font-size="12" lengthAdjust="spacingAndGlyphs" textLength="112" x="153.5" y="278.6387">&lt;alt_description&gt;</text><!--class _authorship_event_--><rect fill="#FEFECE" filter="url(#f3ubq2u)" height="44.7734" style="stroke: #A80036; stroke-width: 1.5;" width="135" x="304" y="252"/><text fill="#000000" font-family="sans-serif" font-size="12" lengthAdjust="spacingAndGlyphs" textLength="129" x="307" y="268.1387">&lt;authorship_event&gt;</text><line style="stroke: #A80036; stroke-width: 1.5;" x1="305" x2="438" y1="275.9688" y2="275.9688"/><text fill="#000000" font-family="sans-serif" font-size="11" lengthAdjust="spacingAndGlyphs" textLength="112" x="310" y="290.1792">a crm:E65_Creation</text><!--class _entity_uri_--><rect fill="#FEFECE" filter="url(#f3ubq2u)" height="44.7734" style="stroke: #A80036; stroke-width: 1.5;" width="175" x="122" y="8"/><text fill="#000000" font-family="sans-serif" font-size="12" lengthAdjust="spacingAndGlyphs" textLength="77" x="171" y="24.1387">&lt;entity_uri&gt;</text><line style="stroke: #A80036; stroke-width: 1.5;" x1="123" x2="296" y1="31.9688" y2="31.9688"/><text fill="#000000" font-family="sans-serif" font-size="11" lengthAdjust="spacingAndGlyphs" textLength="163" x="128" y="46.1792">a crm:E22_Man-Made_Object</text><path d="M341.095,419.243 C330.568,427.7339 319.231,438.0582 310.5,449 C300.229,461.871 291.956,478.808 286.72,491.0535 " fill="none" style="stroke: #A80036; stroke-width: 1.0;"/><polygon fill="#A80036" points="284.664,495.9889,291.8165,489.2183,286.5862,491.3731,284.4313,486.1428,284.664,495.9889" style="stroke: #A80036; stroke-width: 1.0;"/><text fill="#000000" font-family="sans-serif" font-size="13" lengthAdjust="spacingAndGlyphs" textLength="107" x="311.5" y="462.0669">skos:exactMatch</text><path d="M395.295,419.134 C404.525,428.0088 414.915,438.622 423.5,449 C434.698,462.5369 445.704,479.3134 453.153,491.3354 " fill="none" style="stroke: #A80036; stroke-width: 1.0;"/><polygon fill="#A80036" points="455.924,495.8529,454.629,486.0896,453.3102,491.5905,447.8092,490.2717,455.924,495.8529" style="stroke: #A80036; stroke-width: 1.0;"/><text fill="#000000" font-family="sans-serif" font-size="13" lengthAdjust="spacingAndGlyphs" textLength="58" x="437.5" y="462.0669">rdfs:label</text><path d="M136.115,175.021 C119.337,182.496 102.6072,192.301 89.5,205 C77.7455,216.388 69.8501,232.933 64.8429,246.91 " fill="none" style="stroke: #A80036; stroke-width: 1.0;"/><polygon fill="#A80036" points="63.1271,251.929,69.825,244.7083,64.7456,247.1982,62.2557,242.1188,63.1271,251.929" style="stroke: #A80036; stroke-width: 1.0;"/><text fill="#000000" font-family="sans-serif" font-size="13" lengthAdjust="spacingAndGlyphs" textLength="110" x="90.5" y="218.0669">crm:P2_has_type</text><path d="M209.5,175.231 C209.5,198.891 209.5,236.178 209.5,257.368 " fill="none" style="stroke: #A80036; stroke-width: 1.0;"/><polygon fill="#A80036" points="209.5,262.391,213.5,253.391,209.5,257.391,205.5,253.391,209.5,262.391" style="stroke: #A80036; stroke-width: 1.0;"/><text fill="#000000" font-family="sans-serif" font-size="13" lengthAdjust="spacingAndGlyphs" textLength="55" x="210.5" y="218.0669">rdf:value</text><path d="M238.837,175.231 C266.821,195.96 308.923,227.147 338.164,248.806 " fill="none" style="stroke: #A80036; stroke-width: 1.0;"/><polygon fill="#A80036" points="342.381,251.931,337.5285,243.3605,338.3627,248.9555,332.7677,249.7897,342.381,251.931" style="stroke: #A80036; stroke-width: 1.0;"/><text fill="#000000" font-family="sans-serif" font-size="13" lengthAdjust="spacingAndGlyphs" textLength="165" x="301.5" y="218.0669">crm:P94i_was_created_by</text><path d="M209.5,53.231 C209.5,73.365 209.5,103.366 209.5,124.919 " fill="none" style="stroke: #A80036; stroke-width: 1.0;"/><polygon fill="#A80036" points="209.5,129.931,213.5,120.931,209.5,124.931,205.5,120.931,209.5,129.931" style="stroke: #A80036; stroke-width: 1.0;"/><text fill="#000000" font-family="sans-serif" font-size="13" lengthAdjust="spacingAndGlyphs" textLength="153" x="210.5" y="96.0669">crm:P129i_is_subject_of</text><path d="M371.5,297.231 C371.5,317.365 371.5,347.366 371.5,368.919 " fill="none" style="stroke: #A80036; stroke-width: 1.0;"/><polygon fill="#A80036" points="371.5,373.931,375.5,364.931,371.5,368.931,367.5,364.931,371.5,373.931" style="stroke: #A80036; stroke-width: 1.0;"/><text fill="#000000" font-family="sans-serif" font-size="13" lengthAdjust="spacingAndGlyphs" textLength="154" x="372.5" y="340.0669">crm:P14_carried_out_by</text></g></svg>