<?xml version="1.0" encoding="UTF-8" standalone="no"?><svg xmlns="http://www.w3.org/2000/svg" xmlns:xlink="http://www.w3.org/1999/xlink" contentScriptType="application/ecmascript" contentStyleType="text/css" height="564px" preserveAspectRatio="none" style="width:1704px;height:564px;" version="1.1" viewBox="0 0 1704 564" width="1704px" zoomAndPan="magnify"><defs><filter height="300%" id="fimgmvg" width="300%" x="-1" y="-1"><feGaussianBlur result="blurOut" stdDeviation="2.0"/><feColorMatrix in="blurOut" result="blurOut2" type="matrix" values="0 0 0 0 0 0 0 0 0 0 0 0 0 0 0 0 0 0 .4 0"/><feOffset dx="4.0" dy="4.0" in="blurOut2" result="blurOut3"/><feBlend in="SourceGraphic" in2="blurOut3" mode="normal"/></filter></defs><g><!--class _vase_--><rect fill="#FEFECE" filter="url(#fimgmvg)" height="44.7734" style="stroke: #A80036; stroke-width: 1.5;" width="175" x="6" y="511"/><text fill="#000000" font-family="sans-serif" font-size="12" lengthAdjust="spacingAndGlyphs" textLength="49" x="69" y="527.1387">&lt;vase&gt;</text><line style="stroke: #A80036; stroke-width: 1.5;" x1="7" x2="180" y1="534.9688" y2="534.9688"/><text fill="#000000" font-family="sans-serif" font-size="11" lengthAdjust="spacingAndGlyphs" textLength="163" x="12" y="549.1792">a crm:E22_Man-Made_Object</text><!--class _greg_--><rect fill="#FEFECE" filter="url(#fimgmvg)" height="44.7734" style="stroke: #A80036; stroke-width: 1.5;" width="116" x="793.5" y="511"/><text fill="#000000" font-family="sans-serif" font-size="12" lengthAdjust="spacingAndGlyphs" textLength="49" x="827" y="527.1387">&lt;greg&gt;</text><line style="stroke: #A80036; stroke-width: 1.5;" x1="794.5" x2="908.5" y1="534.9688" y2="534.9688"/><text fill="#000000" font-family="sans-serif" font-size="11" lengthAdjust="spacingAndGlyphs" textLength="104" x="799.5" y="549.1792">a crm:E21_Person</text><!--class _leslie_--><rect fill="#FEFECE" filter="url(#fimgmvg)" height="44.7734" style="stroke: #A80036; stroke-width: 1.5;" width="116" x="464.5" y="511"/><text fill="#000000" font-family="sans-serif" font-size="12" lengthAdjust="spacingAndGlyphs" textLength="52" x="496.5" y="527.1387">&lt;leslie&gt;</text><line style="stroke: #A80036; stroke-width: 1.5;" x1="465.5" x2="579.5" y1="534.9688" y2="534.9688"/><text fill="#000000" font-family="sans-serif" font-size="11" lengthAdjust="spacingAndGlyphs" textLength="104" x="470.5" y="549.1792">a crm:E21_Person</text><!--class _transaction_of_candlestick_--><rect fill="#FEFECE" filter="url(#fimgmvg)" height="44.7734" style="stroke: #A80036; stroke-width: 1.5;" width="309" x="912" y="374"/><text fill="#000000" font-family="sans-serif" font-size="12" lengthAdjust="spacingAndGlyphs" textLength="187" x="973" y="390.1387">&lt;transaction_of_candlestick&gt;</text><line style="stroke: #A80036; stroke-width: 1.5;" x1="913" x2="1220" y1="397.9688" y2="397.9688"/><text fill="#000000" font-family="sans-serif" font-size="11" lengthAdjust="spacingAndGlyphs" textLength="297" x="918" y="412.1792">a crm:E8_Acquisition, crm:E10_Transfer_of_Custody</text><!--class _candlestick_--><rect fill="#FEFECE" filter="url(#fimgmvg)" height="44.7734" style="stroke: #A80036; stroke-width: 1.5;" width="175" x="1349" y="511"/><text fill="#000000" font-family="sans-serif" font-size="12" lengthAdjust="spacingAndGlyphs" textLength="91" x="1391" y="527.1387">&lt;candlestick&gt;</text><line style="stroke: #A80036; stroke-width: 1.5;" x1="1350" x2="1523" y1="534.9688" y2="534.9688"/><text fill="#000000" font-family="sans-serif" font-size="11" lengthAdjust="spacingAndGlyphs" textLength="163" x="1355" y="549.1792">a crm:E22_Man-Made_Object</text><!--class _sales_price_--><rect fill="#FEFECE" filter="url(#fimgmvg)" height="44.7734" style="stroke: #A80036; stroke-width: 1.5;" width="119" x="694" y="374"/><text fill="#000000" font-family="sans-serif" font-size="12" lengthAdjust="spacingAndGlyphs" textLength="90" x="708.5" y="390.1387">&lt;sales_price&gt;</text><line style="stroke: #A80036; stroke-width: 1.5;" x1="695" x2="812" y1="397.9688" y2="397.9688"/><text fill="#000000" font-family="sans-serif" font-size="11" lengthAdjust="spacingAndGlyphs" textLength="107" x="700" y="412.1792">a crm:E97_Amount</text><!--class _sale_of_lot_--><rect fill="#FEFECE" filter="url(#fimgmvg)" height="44.7734" style="stroke: #A80036; stroke-width: 1.5;" width="108" x="699.5" y="130"/><text fill="#000000" font-family="sans-serif" font-size="12" lengthAdjust="spacingAndGlyphs" textLength="86" x="710.5" y="146.1387">&lt;sale_of_lot&gt;</text><line style="stroke: #A80036; stroke-width: 1.5;" x1="700.5" x2="806.5" y1="153.9688" y2="153.9688"/><text fill="#000000" font-family="sans-serif" font-size="11" lengthAdjust="spacingAndGlyphs" textLength="96" x="705.5" y="168.1792">a crm:E7_Activity</text><!--class _purchase_transaction_--><rect fill="#FEFECE" filter="url(#fimgmvg)" height="44.7734" style="stroke: #A80036; stroke-width: 1.5;" width="163" x="672" y="252"/><text fill="#000000" font-family="sans-serif" font-size="12" lengthAdjust="spacingAndGlyphs" textLength="157" x="675" y="268.1387">&lt;purchase_transaction&gt;</text><line style="stroke: #A80036; stroke-width: 1.5;" x1="673" x2="834" y1="275.9688" y2="275.9688"/><text fill="#000000" font-family="sans-serif" font-size="11" lengthAdjust="spacingAndGlyphs" textLength="117" x="678" y="290.1792">a crm:E96_Purchase</text><!--class _transaction_of_vase_--><rect fill="#FEFECE" filter="url(#fimgmvg)" height="44.7734" style="stroke: #A80036; stroke-width: 1.5;" width="309" x="223" y="374"/><text fill="#000000" font-family="sans-serif" font-size="12" lengthAdjust="spacingAndGlyphs" textLength="145" x="305" y="390.1387">&lt;transaction_of_vase&gt;</text><line style="stroke: #A80036; stroke-width: 1.5;" x1="224" x2="531" y1="397.9688" y2="397.9688"/><text fill="#000000" font-family="sans-serif" font-size="11" lengthAdjust="spacingAndGlyphs" textLength="297" x="229" y="412.1792">a crm:E8_Acquisition, crm:E10_Transfer_of_Custody</text><!--class _lot_--><rect fill="#FEFECE" filter="url(#fimgmvg)" height="44.7734" style="stroke: #A80036; stroke-width: 1.5;" width="131" x="688" y="8"/><text fill="#000000" font-family="sans-serif" font-size="12" lengthAdjust="spacingAndGlyphs" textLength="36" x="735.5" y="24.1387">&lt;lot&gt;</text><line style="stroke: #A80036; stroke-width: 1.5;" x1="689" x2="818" y1="31.9688" y2="31.9688"/><text fill="#000000" font-family="sans-serif" font-size="11" lengthAdjust="spacingAndGlyphs" textLength="119" x="694" y="46.1792">a crm:E78_Collection</text><path d="M1071.07,419.313 C1073.62,437.89 1073.84,464.1716 1059.5,481 C1040.86,502.8735 968.943,517.1041 914.857,524.9492 " fill="none" style="stroke: #A80036; stroke-width: 1.0;"/><polygon fill="#A80036" points="909.68,525.6885,919.1552,528.3755,914.6297,524.9814,918.0238,520.4559,909.68,525.6885" style="stroke: #A80036; stroke-width: 1.0;"/><text fill="#000000" font-family="sans-serif" font-size="13" lengthAdjust="spacingAndGlyphs" textLength="193" x="1073.5" y="462.0669">crm:p29_custody_received_by</text><text fill="#000000" font-family="sans-serif" font-size="13" lengthAdjust="spacingAndGlyphs" textLength="182" x="1079" y="477.1997">crm:p22_transferred_title_to</text><path d="M911.858,418.457 C884.416,425.78 856.854,435.663 832.5,449 C814.859,458.6607 818.3,471.6357 800.5,481 C732.82,516.6043 644.554,527.9465 585.825,531.3707 " fill="none" style="stroke: #A80036; stroke-width: 1.0;"/><polygon fill="#A80036" points="580.59,531.6595,589.7969,535.1571,585.5824,531.3838,589.3557,527.1693,580.59,531.6595" style="stroke: #A80036; stroke-width: 1.0;"/><text fill="#000000" font-family="sans-serif" font-size="13" lengthAdjust="spacingAndGlyphs" textLength="217" x="833.5" y="462.0669">crm:p28_custody_surrendered_by</text><text fill="#000000" font-family="sans-serif" font-size="13" lengthAdjust="spacingAndGlyphs" textLength="199" x="842.5" y="477.1997">crm:p23_transferred_title_from</text><path d="M1179.27,419.065 C1210.98,426.79 1245.1,436.707 1275.5,449 C1301.72,459.602 1305.54,467.7002 1330.5,481 C1348.16,490.4105 1367.8,500.1475 1385.32,508.5879 " fill="none" style="stroke: #A80036; stroke-width: 1.0;"/><polygon fill="#A80036" points="1390.21,510.9328,1383.8379,503.4231,1385.7055,508.7628,1380.3658,510.6304,1390.21,510.9328" style="stroke: #A80036; stroke-width: 1.0;"/><text fill="#000000" font-family="sans-serif" font-size="13" lengthAdjust="spacingAndGlyphs" textLength="181" x="1331.5" y="469.5669">crm:P24_transferred_title_of</text><path d="M753.5,175.231 C753.5,195.365 753.5,225.366 753.5,246.919 " fill="none" style="stroke: #A80036; stroke-width: 1.0;"/><polygon fill="#A80036" points="753.5,251.931,757.5,242.931,753.5,246.931,749.5,242.931,753.5,251.931" style="stroke: #A80036; stroke-width: 1.0;"/><text fill="#000000" font-family="sans-serif" font-size="13" lengthAdjust="spacingAndGlyphs" textLength="109" x="754.5" y="218.0669">crm:P9i_contains</text><path d="M685.844,297.092 C619.256,318.344 517.918,350.686 449.776,372.433 " fill="none" style="stroke: #A80036; stroke-width: 1.0;"/><polygon fill="#A80036" points="444.929,373.98,454.7191,375.0544,449.6923,372.4599,452.2868,367.4331,444.929,373.98" style="stroke: #A80036; stroke-width: 1.0;"/><text fill="#000000" font-family="sans-serif" font-size="13" lengthAdjust="spacingAndGlyphs" textLength="109" x="589.5" y="340.0669">crm:P9i_contains</text><path d="M835.246,295.457 C866.157,303.927 901.374,314.699 932.5,327 C964.313,339.572 998.635,357.202 1024.58,371.427 " fill="none" style="stroke: #A80036; stroke-width: 1.0;"/><polygon fill="#A80036" points="1028.99,373.86,1023.0401,366.0115,1024.6115,371.4457,1019.1773,373.0172,1028.99,373.86" style="stroke: #A80036; stroke-width: 1.0;"/><text fill="#000000" font-family="sans-serif" font-size="13" lengthAdjust="spacingAndGlyphs" textLength="109" x="971.5" y="340.0669">crm:P9i_contains</text><path d="M753.5,297.231 C753.5,317.365 753.5,347.366 753.5,368.919 " fill="none" style="stroke: #A80036; stroke-width: 1.0;"/><polygon fill="#A80036" points="753.5,373.931,757.5,364.931,753.5,368.931,749.5,364.931,753.5,373.931" style="stroke: #A80036; stroke-width: 1.0;"/><text fill="#000000" font-family="sans-serif" font-size="13" lengthAdjust="spacingAndGlyphs" textLength="169" x="754.5" y="340.0669">crm:p179_has_sales_price</text><path d="M222.825,414.305 C195.785,422.027 169.112,433.119 146.5,449 C126.423,463.1011 112.246,487.4751 103.6383,506.2608 " fill="none" style="stroke: #A80036; stroke-width: 1.0;"/><polygon fill="#A80036" points="101.5696,510.9068,108.8846,504.3121,103.6034,506.3391,101.5764,501.0579,101.5696,510.9068" style="stroke: #A80036; stroke-width: 1.0;"/><text fill="#000000" font-family="sans-serif" font-size="13" lengthAdjust="spacingAndGlyphs" textLength="181" x="147.5" y="469.5669">crm:P24_transferred_title_of</text><path d="M489.138,419.033 C515.1,426.469 542,436.253 565.5,449 C584.317,459.207 582.365,471.4024 601.5,481 C660.69,510.688 735.96,523.2645 788.371,528.5907 " fill="none" style="stroke: #A80036; stroke-width: 1.0;"/><polygon fill="#A80036" points="793.37,529.0838,784.8067,524.2186,788.3942,528.5924,784.0204,532.1799,793.37,529.0838" style="stroke: #A80036; stroke-width: 1.0;"/><text fill="#000000" font-family="sans-serif" font-size="13" lengthAdjust="spacingAndGlyphs" textLength="193" x="602.5" y="462.0669">crm:p29_custody_received_by</text><text fill="#000000" font-family="sans-serif" font-size="13" lengthAdjust="spacingAndGlyphs" textLength="182" x="608" y="477.1997">crm:p22_transferred_title_to</text><path d="M356.878,419.267 C342.57,437.081 328.4,462.2996 342.5,481 C356.802,499.9683 413.457,514.0657 459.436,522.6705 " fill="none" style="stroke: #A80036; stroke-width: 1.0;"/><polygon fill="#A80036" points="464.417,523.5892,456.2921,518.0227,459.5,522.6821,454.8406,525.89,464.417,523.5892" style="stroke: #A80036; stroke-width: 1.0;"/><text fill="#000000" font-family="sans-serif" font-size="13" lengthAdjust="spacingAndGlyphs" textLength="217" x="343.5" y="462.0669">crm:p28_custody_surrendered_by</text><text fill="#000000" font-family="sans-serif" font-size="13" lengthAdjust="spacingAndGlyphs" textLength="199" x="352.5" y="477.1997">crm:p23_transferred_title_from</text><path d="M687.748,36.077 C515.529,48.94 64.5,88.628 64.5,151.5 C64.5,151.5 64.5,151.5 64.5,397.5 C64.5,435.865 75.8337,479.022 84.3304,505.9861 " fill="none" style="stroke: #A80036; stroke-width: 1.0;"/><polygon fill="#A80036" points="85.8806,510.8277,86.9456,501.0366,84.3559,506.0658,79.3266,503.4761,85.8806,510.8277" style="stroke: #A80036; stroke-width: 1.0;"/><text fill="#000000" font-family="sans-serif" font-size="13" lengthAdjust="spacingAndGlyphs" textLength="163" x="65.5" y="279.0669">crm:P46_is_composed_of</text><path d="M753.5,53.231 C753.5,73.365 753.5,103.366 753.5,124.919 " fill="none" style="stroke: #A80036; stroke-width: 1.0;"/><polygon fill="#A80036" points="753.5,129.931,757.5,120.931,753.5,124.931,749.5,120.931,753.5,129.931" style="stroke: #A80036; stroke-width: 1.0;"/><text fill="#000000" font-family="sans-serif" font-size="13" lengthAdjust="spacingAndGlyphs" textLength="149" x="754.5" y="96.0669">crm:P16i_was_used_for</text><path d="M819.162,34.64 C1008.07,44.543 1539.5,78.857 1539.5,151.5 C1539.5,151.5 1539.5,151.5 1539.5,397.5 C1539.5,435.878 1540.14,450.013 1517.5,481 C1509.69,491.6903 1498.92,500.7056 1487.79,508.0559 " fill="none" style="stroke: #A80036; stroke-width: 1.0;"/><polygon fill="#A80036" points="1483.34,510.895,1493.0795,509.4314,1487.5565,508.2078,1488.7801,502.6849,1483.34,510.895" style="stroke: #A80036; stroke-width: 1.0;"/><text fill="#000000" font-family="sans-serif" font-size="13" lengthAdjust="spacingAndGlyphs" textLength="163" x="1540.5" y="279.0669">crm:P46_is_composed_of</text></g></svg>