<?xml version="1.0" encoding="UTF-8" standalone="no"?><svg xmlns="http://www.w3.org/2000/svg" xmlns:xlink="http://www.w3.org/1999/xlink" contentScriptType="application/ecmascript" contentStyleType="text/css" height="528px" preserveAspectRatio="none" style="width:777px;height:528px;" version="1.1" viewBox="0 0 777 528" width="777px" zoomAndPan="magnify"><defs><filter height="300%" id="fuf5d7n" width="300%" x="-1" y="-1"><feGaussianBlur result="blurOut" stdDeviation="2.0"/><feColorMatrix in="blurOut" result="blurOut2" type="matrix" values="0 0 0 0 0 0 0 0 0 0 0 0 0 0 0 0 0 0 .4 0"/><feOffset dx="4.0" dy="4.0" in="blurOut2" result="blurOut3"/><feBlend in="SourceGraphic" in2="blurOut3" mode="normal"/></filter></defs><g><!--class _author_class_--><rect fill="#FEFECE" filter="url(#fuf5d7n)" height="44.7734" style="stroke: #A80036; stroke-width: 1.5;" width="106" x="49" y="374"/><text fill="#000000" font-family="sans-serif" font-size="12" lengthAdjust="spacingAndGlyphs" textLength="100" x="52" y="390.1387">&lt;author_class&gt;</text><line style="stroke: #A80036; stroke-width: 1.5;" x1="50" x2="154" y1="397.9688" y2="397.9688"/><text fill="#000000" font-family="sans-serif" font-size="11" lengthAdjust="spacingAndGlyphs" textLength="93" x="55" y="412.1792">a crm:E39_Actor</text><!--class _author_--><rect fill="#FEFECE" filter="url(#fuf5d7n)" height="23.9688" style="stroke: #A80036; stroke-width: 1.5;" width="68" x="6" y="496"/><text fill="#000000" font-family="sans-serif" font-size="12" lengthAdjust="spacingAndGlyphs" textLength="62" x="9" y="512.1387">&lt;author&gt;</text><!--class _author_lod_id_--><rect fill="#FEFECE" filter="url(#fuf5d7n)" height="23.9688" style="stroke: #A80036; stroke-width: 1.5;" width="110" x="109" y="496"/><text fill="#000000" font-family="sans-serif" font-size="12" lengthAdjust="spacingAndGlyphs" textLength="104" x="112" y="512.1387">&lt;author_lod_id&gt;</text><!--class _description_class_--><rect fill="#FEFECE" filter="url(#fuf5d7n)" height="44.7734" style="stroke: #A80036; stroke-width: 1.5;" width="171" x="375.5" y="130"/><text fill="#000000" font-family="sans-serif" font-size="12" lengthAdjust="spacingAndGlyphs" textLength="128" x="397" y="146.1387">&lt;description_class&gt;</text><line style="stroke: #A80036; stroke-width: 1.5;" x1="376.5" x2="545.5" y1="153.9688" y2="153.9688"/><text fill="#000000" font-family="sans-serif" font-size="11" lengthAdjust="spacingAndGlyphs" textLength="159" x="381.5" y="168.1792">a crm:E33_Linguistic_Object</text><!--class aat_300404670--><rect fill="#FEFECE" filter="url(#fuf5d7n)" height="23.9688" style="stroke: #A80036; stroke-width: 1.5;" width="103" x="257.5" y="262.5"/><text fill="#000000" font-family="sans-serif" font-size="12" lengthAdjust="spacingAndGlyphs" textLength="97" x="260.5" y="278.6387">aat:300404670</text><!--class aat_300080102--><rect fill="#FEFECE" filter="url(#fuf5d7n)" height="23.9688" style="stroke: #A80036; stroke-width: 1.5;" width="103" x="409.5" y="262.5"/><text fill="#000000" font-family="sans-serif" font-size="12" lengthAdjust="spacingAndGlyphs" textLength="97" x="412.5" y="278.6387">aat:300080102</text><!--class _description_--><rect fill="#FEFECE" filter="url(#fuf5d7n)" height="23.9688" style="stroke: #A80036; stroke-width: 1.5;" width="96" x="605" y="262.5"/><text fill="#000000" font-family="sans-serif" font-size="12" lengthAdjust="spacingAndGlyphs" textLength="90" x="608" y="278.6387">&lt;description&gt;</text><!--class _authorship_event_--><rect fill="#FEFECE" filter="url(#fuf5d7n)" height="44.7734" style="stroke: #A80036; stroke-width: 1.5;" width="135" x="34.5" y="252"/><text fill="#000000" font-family="sans-serif" font-size="12" lengthAdjust="spacingAndGlyphs" textLength="129" x="37.5" y="268.1387">&lt;authorship_event&gt;</text><line style="stroke: #A80036; stroke-width: 1.5;" x1="35.5" x2="168.5" y1="275.9688" y2="275.9688"/><text fill="#000000" font-family="sans-serif" font-size="11" lengthAdjust="spacingAndGlyphs" textLength="112" x="40.5" y="290.1792">a crm:E65_Creation</text><!--class _entity_uri_--><rect fill="#FEFECE" filter="url(#fuf5d7n)" height="44.7734" style="stroke: #A80036; stroke-width: 1.5;" width="105" x="537.5" y="8"/><text fill="#000000" font-family="sans-serif" font-size="12" lengthAdjust="spacingAndGlyphs" textLength="77" x="551.5" y="24.1387">&lt;entity_uri&gt;</text><line style="stroke: #A80036; stroke-width: 1.5;" x1="538.5" x2="641.5" y1="31.9688" y2="31.9688"/><text fill="#000000" font-family="sans-serif" font-size="11" lengthAdjust="spacingAndGlyphs" textLength="93" x="543.5" y="46.1792">a crm:E39_Actor</text><path d="M81.9371,419.436 C74.6552,428.1817 66.801,438.6263 61,449 C53.4995,462.4129 47.8093,479.0131 44.2566,491.0127 " fill="none" style="stroke: #A80036; stroke-width: 1.0;"/><polygon fill="#A80036" points="42.8659,495.8511,49.1965,488.3064,44.2472,491.0457,41.5079,486.0963,42.8659,495.8511" style="stroke: #A80036; stroke-width: 1.0;"/><text fill="#000000" font-family="sans-serif" font-size="13" lengthAdjust="spacingAndGlyphs" textLength="58" x="62" y="462.0669">rdfs:label</text><path d="M114.249,419.134 C126.287,440.3932 144.366,472.3235 155.094,491.2714 " fill="none" style="stroke: #A80036; stroke-width: 1.0;"/><polygon fill="#A80036" points="157.655,495.7946,156.7015,485.992,155.1915,491.4436,149.7399,489.9336,157.655,495.7946" style="stroke: #A80036; stroke-width: 1.0;"/><text fill="#000000" font-family="sans-serif" font-size="13" lengthAdjust="spacingAndGlyphs" textLength="107" x="142" y="462.0669">skos:exactMatch</text><path d="M383.853,175.088 C367.21,182.498 350.794,192.257 338,205 C323.532,219.411 315.873,242.154 312.131,257.437 " fill="none" style="stroke: #A80036; stroke-width: 1.0;"/><polygon fill="#A80036" points="311.008,262.312,316.9268,254.44,312.1307,257.4397,309.1311,252.6436,311.008,262.312" style="stroke: #A80036; stroke-width: 1.0;"/><text fill="#000000" font-family="sans-serif" font-size="13" lengthAdjust="spacingAndGlyphs" textLength="110" x="339" y="218.0669">crm:P2_has_type</text><path d="M459.249,175.09 C458.355,188.572 457.543,206.294 458,222 C458.346,233.893 459.141,247.31 459.825,257.468 " fill="none" style="stroke: #A80036; stroke-width: 1.0;"/><polygon fill="#A80036" points="460.17,262.457,463.5407,253.2029,459.8256,257.4689,455.5597,253.7539,460.17,262.457" style="stroke: #A80036; stroke-width: 1.0;"/><text fill="#000000" font-family="sans-serif" font-size="13" lengthAdjust="spacingAndGlyphs" textLength="110" x="459" y="218.0669">crm:P2_has_type</text><path d="M516.685,175.088 C535.497,183.358 556.223,193.581 574,205 C598.641,220.828 623.599,243.911 638.688,258.818 " fill="none" style="stroke: #A80036; stroke-width: 1.0;"/><polygon fill="#A80036" points="642.306,262.423,638.7538,253.2371,638.764,258.8939,633.1072,258.9042,642.306,262.423" style="stroke: #A80036; stroke-width: 1.0;"/><text fill="#000000" font-family="sans-serif" font-size="13" lengthAdjust="spacingAndGlyphs" textLength="55" x="599" y="218.0669">rdf:value</text><path d="M375.203,160.378 C296.745,167.977 187.522,182.243 151,205 C134.918,215.021 122.561,232.45 114.279,247.219 " fill="none" style="stroke: #A80036; stroke-width: 1.0;"/><polygon fill="#A80036" points="111.84,251.706,119.6518,245.708,114.2274,247.3128,112.6226,241.8883,111.84,251.706" style="stroke: #A80036; stroke-width: 1.0;"/><text fill="#000000" font-family="sans-serif" font-size="13" lengthAdjust="spacingAndGlyphs" textLength="165" x="152" y="218.0669">crm:P94i_was_created_by</text><path d="M641.013,53.119 C652.961,60.736 664.181,70.585 671,83 C702.704,140.726 674.509,223.291 660.175,257.604 " fill="none" style="stroke: #A80036; stroke-width: 1.0;"/><polygon fill="#A80036" points="658.169,262.307,665.3775,255.596,660.1295,257.7074,658.0181,252.4593,658.169,262.307" style="stroke: #A80036; stroke-width: 1.0;"/><text fill="#000000" font-family="sans-serif" font-size="13" lengthAdjust="spacingAndGlyphs" textLength="89" x="687" y="157.0669">dc:description</text><path d="M551.545,53.148 C538.275,61.558 523.793,71.854 512,83 C498.737,95.535 486.438,111.852 477.242,125.416 " fill="none" style="stroke: #A80036; stroke-width: 1.0;"/><polygon fill="#A80036" points="474.245,129.901,482.5705,124.6393,477.0225,125.7434,475.9183,120.1953,474.245,129.901" style="stroke: #A80036; stroke-width: 1.0;"/><text fill="#000000" font-family="sans-serif" font-size="13" lengthAdjust="spacingAndGlyphs" textLength="153" x="513" y="96.0669">crm:P129i_is_subject_of</text><path d="M102,297.231 C102,317.365 102,347.366 102,368.919 " fill="none" style="stroke: #A80036; stroke-width: 1.0;"/><polygon fill="#A80036" points="102,373.931,106,364.931,102,368.931,98,364.931,102,373.931" style="stroke: #A80036; stroke-width: 1.0;"/><text fill="#000000" font-family="sans-serif" font-size="13" lengthAdjust="spacingAndGlyphs" textLength="154" x="103" y="340.0669">crm:P14_carried_out_by</text></g></svg>