<?xml version="1.0" encoding="UTF-8" standalone="no"?><svg xmlns="http://www.w3.org/2000/svg" xmlns:xlink="http://www.w3.org/1999/xlink" contentScriptType="application/ecmascript" contentStyleType="text/css" height="284px" preserveAspectRatio="none" style="width:312px;height:284px;" version="1.1" viewBox="0 0 312 284" width="312px" zoomAndPan="magnify"><defs><filter height="300%" id="fcrvpsz" width="300%" x="-1" y="-1"><feGaussianBlur result="blurOut" stdDeviation="2.0"/><feColorMatrix in="blurOut" result="blurOut2" type="matrix" values="0 0 0 0 0 0 0 0 0 0 0 0 0 0 0 0 0 0 .4 0"/><feOffset dx="4.0" dy="4.0" in="blurOut2" result="blurOut3"/><feBlend in="SourceGraphic" in2="blurOut3" mode="normal"/></filter></defs><g><!--class _material_class_--><rect fill="#FEFECE" filter="url(#fcrvpsz)" height="44.7734" style="stroke: #A80036; stroke-width: 1.5;" width="121" x="85.5" y="130"/><text fill="#000000" font-family="sans-serif" font-size="12" lengthAdjust="spacingAndGlyphs" textLength="109" x="91.5" y="146.1387">&lt;material_class&gt;</text><line style="stroke: #A80036; stroke-width: 1.5;" x1="86.5" x2="205.5" y1="153.9688" y2="153.9688"/><text fill="#000000" font-family="sans-serif" font-size="11" lengthAdjust="spacingAndGlyphs" textLength="109" x="91.5" y="168.1792">a crm:E57_Material</text><!--class _material_name_--><rect fill="#FEFECE" filter="url(#fcrvpsz)" height="23.9688" style="stroke: #A80036; stroke-width: 1.5;" width="118" x="6" y="252"/><text fill="#000000" font-family="sans-serif" font-size="12" lengthAdjust="spacingAndGlyphs" textLength="112" x="9" y="268.1387">&lt;material_name&gt;</text><!--class _lod_material_term_--><rect fill="#FEFECE" filter="url(#fcrvpsz)" height="23.9688" style="stroke: #A80036; stroke-width: 1.5;" width="137" x="159.5" y="252"/><text fill="#000000" font-family="sans-serif" font-size="12" lengthAdjust="spacingAndGlyphs" textLength="131" x="162.5" y="268.1387">&lt;lod_material_term&gt;</text><!--class _entity_uri_--><rect fill="#FEFECE" filter="url(#fcrvpsz)" height="44.7734" style="stroke: #A80036; stroke-width: 1.5;" width="175" x="58.5" y="8"/><text fill="#000000" font-family="sans-serif" font-size="12" lengthAdjust="spacingAndGlyphs" textLength="77" x="107.5" y="24.1387">&lt;entity_uri&gt;</text><line style="stroke: #A80036; stroke-width: 1.5;" x1="59.5" x2="232.5" y1="31.9688" y2="31.9688"/><text fill="#000000" font-family="sans-serif" font-size="11" lengthAdjust="spacingAndGlyphs" textLength="163" x="64.5" y="46.1792">a crm:E22_Man-Made_Object</text><path d="M118.651,175.197 C109.057,183.7575 98.7508,194.1393 91,205 C81.8014,217.8893 74.7458,234.5529 70.3209,246.7094 " fill="none" style="stroke: #A80036; stroke-width: 1.0;"/><polygon fill="#A80036" points="68.5871,251.6192,75.3558,244.4648,70.2521,246.9046,67.8123,241.8009,68.5871,251.6192" style="stroke: #A80036; stroke-width: 1.0;"/><text fill="#000000" font-family="sans-serif" font-size="13" lengthAdjust="spacingAndGlyphs" textLength="92" x="92" y="218.0669">skos:prefLabel</text><path d="M164.927,175.148 C172.616,184.2008 181.449,194.9388 189,205 C199.417,218.8796 210.367,235.3529 218.003,247.1902 " fill="none" style="stroke: #A80036; stroke-width: 1.0;"/><polygon fill="#A80036" points="220.86,251.6422,219.3665,241.9072,218.1599,247.4339,212.6332,246.2274,220.86,251.6422" style="stroke: #A80036; stroke-width: 1.0;"/><text fill="#000000" font-family="sans-serif" font-size="13" lengthAdjust="spacingAndGlyphs" textLength="109" x="202" y="218.0669">skos:broadMatch</text><path d="M146,53.231 C146,73.365 146,103.366 146,124.919 " fill="none" style="stroke: #A80036; stroke-width: 1.0;"/><polygon fill="#A80036" points="146,129.931,150,120.931,146,124.931,142,120.931,146,129.931" style="stroke: #A80036; stroke-width: 1.0;"/><text fill="#000000" font-family="sans-serif" font-size="13" lengthAdjust="spacingAndGlyphs" textLength="131" x="147" y="96.0669">crm:P45_consists_of</text></g></svg>