<?xml version="1.0" encoding="UTF-8" standalone="no"?><svg xmlns="http://www.w3.org/2000/svg" xmlns:xlink="http://www.w3.org/1999/xlink" contentScriptType="application/ecmascript" contentStyleType="text/css" height="427px" preserveAspectRatio="none" style="width:878px;height:427px;" version="1.1" viewBox="0 0 878 427" width="878px" zoomAndPan="magnify"><defs><filter height="300%" id="fi3lao2" width="300%" x="-1" y="-1"><feGaussianBlur result="blurOut" stdDeviation="2.0"/><feColorMatrix in="blurOut" result="blurOut2" type="matrix" values="0 0 0 0 0 0 0 0 0 0 0 0 0 0 0 0 0 0 .4 0"/><feOffset dx="4.0" dy="4.0" in="blurOut2" result="blurOut3"/><feBlend in="SourceGraphic" in2="blurOut3" mode="normal"/></filter></defs><g><!--class _birth_location_--><rect fill="#FEFECE" filter="url(#fi3lao2)" height="44.7734" style="stroke: #A80036; stroke-width: 1.5;" width="111" x="183" y="252"/><text fill="#000000" font-family="sans-serif" font-size="12" lengthAdjust="spacingAndGlyphs" textLength="105" x="186" y="268.1387">&lt;birth_location&gt;</text><line style="stroke: #A80036; stroke-width: 1.5;" x1="184" x2="293" y1="275.9688" y2="275.9688"/><text fill="#000000" font-family="sans-serif" font-size="11" lengthAdjust="spacingAndGlyphs" textLength="94" x="189" y="290.1792">a crm:E53_Place</text><!--class _birth_location_uri_--><rect fill="#FEFECE" filter="url(#fi3lao2)" height="23.9688" style="stroke: #A80036; stroke-width: 1.5;" width="133" x="6" y="384.5"/><text fill="#000000" font-family="sans-serif" font-size="12" lengthAdjust="spacingAndGlyphs" textLength="127" x="9" y="400.6387">&lt;birth_location_uri&gt;</text><!--class _location_name_--><rect fill="#FEFECE" filter="url(#fi3lao2)" height="44.7734" style="stroke: #A80036; stroke-width: 1.5;" width="174" x="233.5" y="374"/><text fill="#000000" font-family="sans-serif" font-size="12" lengthAdjust="spacingAndGlyphs" textLength="111" x="265" y="390.1387">&lt;location_name&gt;</text><line style="stroke: #A80036; stroke-width: 1.5;" x1="234.5" x2="406.5" y1="397.9688" y2="397.9688"/><text fill="#000000" font-family="sans-serif" font-size="11" lengthAdjust="spacingAndGlyphs" textLength="162" x="239.5" y="412.1792">a crm:E44_Place_Appellation</text><!--class aat_300379842--><rect fill="#FEFECE" filter="url(#fi3lao2)" height="44.7734" style="stroke: #A80036; stroke-width: 1.5;" width="103" x="567" y="8"/><text fill="#000000" font-family="sans-serif" font-size="12" lengthAdjust="spacingAndGlyphs" textLength="97" x="570" y="24.1387">aat:300379842</text><line style="stroke: #A80036; stroke-width: 1.5;" x1="568" x2="669" y1="31.9688" y2="31.9688"/><text fill="#000000" font-family="sans-serif" font-size="11" lengthAdjust="spacingAndGlyphs" textLength="68" x="573" y="46.1792">"nationality"</text><!--class _birth_timespan_--><rect fill="#FEFECE" filter="url(#fi3lao2)" height="44.7734" style="stroke: #A80036; stroke-width: 1.5;" width="137" x="484" y="252"/><text fill="#000000" font-family="sans-serif" font-size="12" lengthAdjust="spacingAndGlyphs" textLength="113" x="496" y="268.1387">&lt;birth_timespan&gt;</text><line style="stroke: #A80036; stroke-width: 1.5;" x1="485" x2="620" y1="275.9688" y2="275.9688"/><text fill="#000000" font-family="sans-serif" font-size="11" lengthAdjust="spacingAndGlyphs" textLength="125" x="490" y="290.1792">a crm:E52_Time-Span</text><!--class _display_date_--><rect fill="#FEFECE" filter="url(#fi3lao2)" height="23.9688" style="stroke: #A80036; stroke-width: 1.5;" width="104" x="500.5" y="384.5"/><text fill="#000000" font-family="sans-serif" font-size="12" lengthAdjust="spacingAndGlyphs" textLength="98" x="503.5" y="400.6387">&lt;display_date&gt;</text><!--class _birth_date_--><rect fill="#FEFECE" filter="url(#fi3lao2)" height="23.9688" style="stroke: #A80036; stroke-width: 1.5;" width="90" x="660.5" y="384.5"/><text fill="#000000" font-family="sans-serif" font-size="12" lengthAdjust="spacingAndGlyphs" textLength="84" x="663.5" y="400.6387">&lt;birth_date&gt;</text><!--class _entity_uri_--><rect fill="#FEFECE" filter="url(#fi3lao2)" height="44.7734" style="stroke: #A80036; stroke-width: 1.5;" width="105" x="427" y="8"/><text fill="#000000" font-family="sans-serif" font-size="12" lengthAdjust="spacingAndGlyphs" textLength="77" x="441" y="24.1387">&lt;entity_uri&gt;</text><line style="stroke: #A80036; stroke-width: 1.5;" x1="428" x2="531" y1="31.9688" y2="31.9688"/><text fill="#000000" font-family="sans-serif" font-size="11" lengthAdjust="spacingAndGlyphs" textLength="93" x="433" y="46.1792">a crm:E39_Actor</text><!--class _birth_event_--><rect fill="#FEFECE" filter="url(#fi3lao2)" height="44.7734" style="stroke: #A80036; stroke-width: 1.5;" width="103" x="428" y="130"/><text fill="#000000" font-family="sans-serif" font-size="12" lengthAdjust="spacingAndGlyphs" textLength="90" x="434.5" y="146.1387">&lt;birth_event&gt;</text><line style="stroke: #A80036; stroke-width: 1.5;" x1="429" x2="530" y1="153.9688" y2="153.9688"/><text fill="#000000" font-family="sans-serif" font-size="11" lengthAdjust="spacingAndGlyphs" textLength="91" x="434" y="168.1792">a crm:E67_Birth</text><path d="M182.92,284.229 C154.143,291.35 120.348,304.147 97.5,327 C83.47,341.0336 77.2483,363.5633 74.5329,378.9233 " fill="none" style="stroke: #A80036; stroke-width: 1.0;"/><polygon fill="#A80036" points="73.6832,384.2289,79.0564,375.9749,74.474,379.2918,71.1571,374.7095,73.6832,384.2289" style="stroke: #A80036; stroke-width: 1.0;"/><text fill="#000000" font-family="sans-serif" font-size="13" lengthAdjust="spacingAndGlyphs" textLength="105" x="98.5" y="340.0669">skos:closeMatch</text><path d="M222.625,297.029 C214.31,311.137 207.541,329.567 216.5,344 C223.535,355.3343 233.888,364.2507 245.372,371.2417 " fill="none" style="stroke: #A80036; stroke-width: 1.0;"/><polygon fill="#A80036" points="250,373.9251,244.2194,365.9511,245.6741,371.4177,240.2076,372.8725,250,373.9251" style="stroke: #A80036; stroke-width: 1.0;"/><text fill="#000000" font-family="sans-serif" font-size="13" lengthAdjust="spacingAndGlyphs" textLength="157" x="217.5" y="340.0669">crm:P87_is_identified_by</text><path d="M358.222,373.9017 C376.032,360.8561 391.104,343.5921 379.5,327 C361.357,301.058 328.685,288.14 299.358,281.726 " fill="none" style="stroke: #A80036; stroke-width: 1.0;"/><polygon fill="#A80036" points="294.305,280.678,302.3048,286.4229,299.2007,281.6937,303.9299,278.5897,294.305,280.678" style="stroke: #A80036; stroke-width: 1.0;"/><text fill="#000000" font-family="sans-serif" font-size="13" lengthAdjust="spacingAndGlyphs" textLength="92" x="385.5" y="340.0669">skos:prefLabel</text><path d="M550.749,297.09 C549.855,310.572 549.043,328.2937 549.5,344 C549.846,355.8926 550.641,369.3104 551.325,379.4681 " fill="none" style="stroke: #A80036; stroke-width: 1.0;"/><polygon fill="#A80036" points="551.67,384.4574,555.0393,375.2028,551.3249,379.4693,547.0584,375.7549,551.67,384.4574" style="stroke: #A80036; stroke-width: 1.0;"/><text fill="#000000" font-family="sans-serif" font-size="13" lengthAdjust="spacingAndGlyphs" textLength="111" x="550.5" y="340.0669">crm:P3_has_note</text><path d="M618.875,297.099 C635.7,304.716 652.853,314.57 666.5,327 C682.498,341.5712 693.612,364.2762 699.772,379.5076 " fill="none" style="stroke: #A80036; stroke-width: 1.0;"/><polygon fill="#A80036" points="701.671,384.364,702.1189,374.5253,699.8502,379.7073,694.6682,377.4386,701.671,384.364" style="stroke: #A80036; stroke-width: 1.0;"/><text fill="#000000" font-family="sans-serif" font-size="13" lengthAdjust="spacingAndGlyphs" textLength="195" x="682.5" y="340.0669">crm:P82_at_some_time_within</text><path d="M479.5,53.231 C479.5,73.365 479.5,103.366 479.5,124.919 " fill="none" style="stroke: #A80036; stroke-width: 1.0;"/><polygon fill="#A80036" points="479.5,129.931,483.5,120.931,479.5,124.931,475.5,120.931,479.5,129.931" style="stroke: #A80036; stroke-width: 1.0;"/><text fill="#000000" font-family="sans-serif" font-size="13" lengthAdjust="spacingAndGlyphs" textLength="123" x="480.5" y="96.0669">crm:P98i_was_born</text><path d="M427.892,174.743 C407.063,183.648 382.933,194.386 361.5,205 C333.663,218.786 303.151,235.766 279.48,249.372 " fill="none" style="stroke: #A80036; stroke-width: 1.0;"/><polygon fill="#A80036" points="275.142,251.871,284.9371,250.8436,279.4743,249.3748,280.9432,243.912,275.142,251.871" style="stroke: #A80036; stroke-width: 1.0;"/><text fill="#000000" font-family="sans-serif" font-size="13" lengthAdjust="spacingAndGlyphs" textLength="141" x="362.5" y="218.0669">crm:P7_took_place_at</text><path d="M492.72,175.231 C505.071,195.535 523.527,225.873 536.661,247.463 " fill="none" style="stroke: #A80036; stroke-width: 1.0;"/><polygon fill="#A80036" points="539.379,251.931,538.1187,242.1631,536.7803,247.6594,531.2841,246.321,539.379,251.931" style="stroke: #A80036; stroke-width: 1.0;"/><text fill="#000000" font-family="sans-serif" font-size="13" lengthAdjust="spacingAndGlyphs" textLength="147" x="521.5" y="218.0669">crm:P4_has_time-span</text></g></svg>