<?xml version="1.0" encoding="UTF-8" standalone="no"?><svg xmlns="http://www.w3.org/2000/svg" xmlns:xlink="http://www.w3.org/1999/xlink" contentScriptType="application/ecmascript" contentStyleType="text/css" height="427px" preserveAspectRatio="none" style="width:463px;height:427px;" version="1.1" viewBox="0 0 463 427" width="463px" zoomAndPan="magnify"><defs><filter height="300%" id="f91si4s" width="300%" x="-1" y="-1"><feGaussianBlur result="blurOut" stdDeviation="2.0"/><feColorMatrix in="blurOut" result="blurOut2" type="matrix" values="0 0 0 0 0 0 0 0 0 0 0 0 0 0 0 0 0 0 .4 0"/><feOffset dx="4.0" dy="4.0" in="blurOut2" result="blurOut3"/><feBlend in="SourceGraphic" in2="blurOut3" mode="normal"/></filter></defs><g><!--class _title_class_--><rect fill="#FEFECE" filter="url(#f91si4s)" height="44.7734" style="stroke: #A80036; stroke-width: 1.5;" width="103" x="6" y="252"/><text fill="#000000" font-family="sans-serif" font-size="12" lengthAdjust="spacingAndGlyphs" textLength="82" x="16.5" y="268.1387">&lt;title_class&gt;</text><line style="stroke: #A80036; stroke-width: 1.5;" x1="7" x2="108" y1="275.9688" y2="275.9688"/><text fill="#000000" font-family="sans-serif" font-size="11" lengthAdjust="spacingAndGlyphs" textLength="91" x="12" y="290.1792">a crm:E55_Type</text><!--class _title_type_--><rect fill="#FEFECE" filter="url(#f91si4s)" height="23.9688" style="stroke: #A80036; stroke-width: 1.5;" width="83" x="16" y="384.5"/><text fill="#000000" font-family="sans-serif" font-size="12" lengthAdjust="spacingAndGlyphs" textLength="77" x="19" y="400.6387">&lt;title_type&gt;</text><!--class aat_300404012--><rect fill="#FEFECE" filter="url(#f91si4s)" height="44.7734" style="stroke: #A80036; stroke-width: 1.5;" width="103" x="158" y="374"/><text fill="#000000" font-family="sans-serif" font-size="12" lengthAdjust="spacingAndGlyphs" textLength="97" x="161" y="390.1387">aat:300404012</text><line style="stroke: #A80036; stroke-width: 1.5;" x1="159" x2="260" y1="397.9688" y2="397.9688"/><text fill="#000000" font-family="sans-serif" font-size="11" lengthAdjust="spacingAndGlyphs" textLength="69" x="164" y="412.1792">"unique ids"</text><!--class _alternate_title_id_class_--><rect fill="#FEFECE" filter="url(#f91si4s)" height="44.7734" style="stroke: #A80036; stroke-width: 1.5;" width="169" x="144" y="252"/><text fill="#000000" font-family="sans-serif" font-size="12" lengthAdjust="spacingAndGlyphs" textLength="163" x="147" y="268.1387">&lt;alternate_title_id_class&gt;</text><line style="stroke: #A80036; stroke-width: 1.5;" x1="145" x2="312" y1="275.9688" y2="275.9688"/><text fill="#000000" font-family="sans-serif" font-size="11" lengthAdjust="spacingAndGlyphs" textLength="114" x="150" y="290.1792">a crm:E42_Identifier</text><!--class _alternate_title_id_--><rect fill="#FEFECE" filter="url(#f91si4s)" height="23.9688" style="stroke: #A80036; stroke-width: 1.5;" width="131" x="296" y="384.5"/><text fill="#000000" font-family="sans-serif" font-size="12" lengthAdjust="spacingAndGlyphs" textLength="125" x="299" y="400.6387">&lt;alternate_title_id&gt;</text><!--class _entity_uri_--><rect fill="#FEFECE" filter="url(#f91si4s)" height="44.7734" style="stroke: #A80036; stroke-width: 1.5;" width="175" x="136" y="8"/><text fill="#000000" font-family="sans-serif" font-size="12" lengthAdjust="spacingAndGlyphs" textLength="77" x="185" y="24.1387">&lt;entity_uri&gt;</text><line style="stroke: #A80036; stroke-width: 1.5;" x1="137" x2="310" y1="31.9688" y2="31.9688"/><text fill="#000000" font-family="sans-serif" font-size="11" lengthAdjust="spacingAndGlyphs" textLength="163" x="142" y="46.1792">a crm:E22_Man-Made_Object</text><!--class _alternate_title_uri_--><rect fill="#FEFECE" filter="url(#f91si4s)" height="44.7734" style="stroke: #A80036; stroke-width: 1.5;" width="136" x="155.5" y="130"/><text fill="#000000" font-family="sans-serif" font-size="12" lengthAdjust="spacingAndGlyphs" textLength="130" x="158.5" y="146.1387">&lt;alternate_title_uri&gt;</text><line style="stroke: #A80036; stroke-width: 1.5;" x1="156.5" x2="290.5" y1="153.9688" y2="153.9688"/><text fill="#000000" font-family="sans-serif" font-size="11" lengthAdjust="spacingAndGlyphs" textLength="88" x="161.5" y="168.1792">a crm:E35_Title</text><!--class _title_text_--><rect fill="#FEFECE" filter="url(#f91si4s)" height="23.9688" style="stroke: #A80036; stroke-width: 1.5;" width="80" x="374.5" y="262.5"/><text fill="#000000" font-family="sans-serif" font-size="12" lengthAdjust="spacingAndGlyphs" textLength="74" x="377.5" y="278.6387">&lt;title_text&gt;</text><path d="M57.5,297.231 C57.5,320.8914 57.5,358.1779 57.5,379.3681 " fill="none" style="stroke: #A80036; stroke-width: 1.0;"/><polygon fill="#A80036" points="57.5,384.3906,61.5,375.3906,57.5,379.3906,53.5,375.3906,57.5,384.3906" style="stroke: #A80036; stroke-width: 1.0;"/><text fill="#000000" font-family="sans-serif" font-size="13" lengthAdjust="spacingAndGlyphs" textLength="92" x="58.5" y="340.0669">skos:prefLabel</text><path d="M216.937,297.172 C212.771,306.139 208.586,316.808 206.5,327 C203.723,340.5717 204.09,355.96 205.318,368.7086 " fill="none" style="stroke: #A80036; stroke-width: 1.0;"/><polygon fill="#A80036" points="205.89,373.9976,208.8993,364.6197,205.3525,369.0266,200.9456,365.4798,205.89,373.9976" style="stroke: #A80036; stroke-width: 1.0;"/><text fill="#000000" font-family="sans-serif" font-size="13" lengthAdjust="spacingAndGlyphs" textLength="110" x="207.5" y="340.0669">crm:P2_has_type</text><path d="M279.78,297.045 C294.724,304.966 310.296,314.994 322.5,327 C337.838,342.0892 349.047,364.482 355.413,379.5156 " fill="none" style="stroke: #A80036; stroke-width: 1.0;"/><polygon fill="#A80036" points="357.385,384.3106,357.6608,374.4656,355.4831,379.6865,350.2622,377.5087,357.385,384.3106" style="stroke: #A80036; stroke-width: 1.0;"/><text fill="#000000" font-family="sans-serif" font-size="13" lengthAdjust="spacingAndGlyphs" textLength="55" x="337.5" y="340.0669">rdf:value</text><path d="M223.5,53.231 C223.5,73.365 223.5,103.366 223.5,124.919 " fill="none" style="stroke: #A80036; stroke-width: 1.0;"/><polygon fill="#A80036" points="223.5,129.931,227.5,120.931,223.5,124.931,219.5,120.931,223.5,129.931" style="stroke: #A80036; stroke-width: 1.0;"/><text fill="#000000" font-family="sans-serif" font-size="13" lengthAdjust="spacingAndGlyphs" textLength="122" x="224.5" y="96.0669">crm:P102_has_title</text><path d="M155.462,173.381 C136.31,181.158 116.39,191.524 100.5,205 C87.0304,216.423 76.4163,233.158 69.1035,247.227 " fill="none" style="stroke: #A80036; stroke-width: 1.0;"/><polygon fill="#A80036" points="66.7507,251.884,74.3789,245.6541,69.005,247.421,67.2381,242.0472,66.7507,251.884" style="stroke: #A80036; stroke-width: 1.0;"/><text fill="#000000" font-family="sans-serif" font-size="13" lengthAdjust="spacingAndGlyphs" textLength="110" x="101.5" y="218.0669">crm:P2_has_type</text><path d="M291.594,165.404 C319.902,173.018 351.646,185.315 375.5,205 C392.285,218.851 403.265,241.926 409.176,257.421 " fill="none" style="stroke: #A80036; stroke-width: 1.0;"/><polygon fill="#A80036" points="410.988,262.361,411.6449,252.5341,409.2666,257.6667,404.1339,255.2884,410.988,262.361" style="stroke: #A80036; stroke-width: 1.0;"/><text fill="#000000" font-family="sans-serif" font-size="13" lengthAdjust="spacingAndGlyphs" textLength="55" x="391.5" y="218.0669">rdf:value</text><path d="M221.219,175.118 C220.126,188.611 219.29,206.334 220.5,222 C221.117,229.99 222.264,238.615 223.501,246.479 " fill="none" style="stroke: #A80036; stroke-width: 1.0;"/><polygon fill="#A80036" points="224.367,251.786,226.8643,242.259,223.5612,246.8514,218.9689,243.5483,224.367,251.786" style="stroke: #A80036; stroke-width: 1.0;"/><text fill="#000000" font-family="sans-serif" font-size="13" lengthAdjust="spacingAndGlyphs" textLength="149" x="221.5" y="218.0669">crm:P1_is_identified_by</text></g></svg>