<?xml version="1.0" encoding="UTF-8" standalone="no"?><svg xmlns="http://www.w3.org/2000/svg" xmlns:xlink="http://www.w3.org/1999/xlink" contentScriptType="application/ecmascript" contentStyleType="text/css" height="455px" preserveAspectRatio="none" style="width:1098px;height:455px;" version="1.1" viewBox="0 0 1098 455" width="1098px" zoomAndPan="magnify"><defs><filter height="300%" id="fmf70pe" width="300%" x="-1" y="-1"><feGaussianBlur result="blurOut" stdDeviation="2.0"/><feColorMatrix in="blurOut" result="blurOut2" type="matrix" values="0 0 0 0 0 0 0 0 0 0 0 0 0 0 0 0 0 0 .4 0"/><feOffset dx="4.0" dy="4.0" in="blurOut2" result="blurOut3"/><feBlend in="SourceGraphic" in2="blurOut3" mode="normal"/></filter></defs><g><!--class _vase_--><rect fill="#FEFECE" filter="url(#fmf70pe)" height="44.7734" style="stroke: #A80036; stroke-width: 1.5;" width="175" x="845.5" y="205"/><text fill="#000000" font-family="sans-serif" font-size="12" lengthAdjust="spacingAndGlyphs" textLength="49" x="908.5" y="221.1387">&lt;vase&gt;</text><line style="stroke: #A80036; stroke-width: 1.5;" x1="846.5" x2="1019.5" y1="228.9688" y2="228.9688"/><text fill="#000000" font-family="sans-serif" font-size="11" lengthAdjust="spacingAndGlyphs" textLength="163" x="851.5" y="243.1792">a crm:E22_Man-Made_Object</text><!--class _vase_addition_--><rect fill="#FEFECE" filter="url(#fmf70pe)" height="44.7734" style="stroke: #A80036; stroke-width: 1.5;" width="150" x="731" y="402"/><text fill="#000000" font-family="sans-serif" font-size="12" lengthAdjust="spacingAndGlyphs" textLength="106" x="753" y="418.1387">&lt;vase_addition&gt;</text><line style="stroke: #A80036; stroke-width: 1.5;" x1="732" x2="880" y1="425.9688" y2="425.9688"/><text fill="#000000" font-family="sans-serif" font-size="11" lengthAdjust="spacingAndGlyphs" textLength="138" x="737" y="440.1792">a crm:E79_Part_Addition</text><!--class _John_--><rect fill="#FEFECE" filter="url(#fmf70pe)" height="44.7734" style="stroke: #A80036; stroke-width: 1.5;" width="116" x="6" y="8"/><text fill="#000000" font-family="sans-serif" font-size="12" lengthAdjust="spacingAndGlyphs" textLength="47" x="40.5" y="24.1387">&lt;John&gt;</text><line style="stroke: #A80036; stroke-width: 1.5;" x1="7" x2="121" y1="31.9688" y2="31.9688"/><text fill="#000000" font-family="sans-serif" font-size="11" lengthAdjust="spacingAndGlyphs" textLength="104" x="12" y="46.1792">a crm:E21_Person</text><!--class _George_--><rect fill="#FEFECE" filter="url(#fmf70pe)" height="44.7734" style="stroke: #A80036; stroke-width: 1.5;" width="116" x="157" y="8"/><text fill="#000000" font-family="sans-serif" font-size="12" lengthAdjust="spacingAndGlyphs" textLength="66" x="182" y="24.1387">&lt;George&gt;</text><line style="stroke: #A80036; stroke-width: 1.5;" x1="158" x2="272" y1="31.9688" y2="31.9688"/><text fill="#000000" font-family="sans-serif" font-size="11" lengthAdjust="spacingAndGlyphs" textLength="104" x="163" y="46.1792">a crm:E21_Person</text><!--class _transaction_of_candlestick_--><rect fill="#FEFECE" filter="url(#fmf70pe)" height="44.7734" style="stroke: #A80036; stroke-width: 1.5;" width="309" x="308.5" y="8"/><text fill="#000000" font-family="sans-serif" font-size="12" lengthAdjust="spacingAndGlyphs" textLength="187" x="369.5" y="24.1387">&lt;transaction_of_candlestick&gt;</text><line style="stroke: #A80036; stroke-width: 1.5;" x1="309.5" x2="616.5" y1="31.9688" y2="31.9688"/><text fill="#000000" font-family="sans-serif" font-size="11" lengthAdjust="spacingAndGlyphs" textLength="297" x="314.5" y="46.1792">a crm:E8_Acquisition, crm:E10_Transfer_of_Custody</text><!--class _sale_of_lot_--><rect fill="#FEFECE" filter="url(#fmf70pe)" height="44.7734" style="stroke: #A80036; stroke-width: 1.5;" width="100" x="560" y="130"/><text fill="#000000" font-family="sans-serif" font-size="12" lengthAdjust="spacingAndGlyphs" textLength="86" x="567" y="146.1387">&lt;sale_of_lot&gt;</text><line style="stroke: #A80036; stroke-width: 1.5;" x1="561" x2="659" y1="153.9688" y2="153.9688"/><text fill="#000000" font-family="sans-serif" font-size="11" lengthAdjust="spacingAndGlyphs" textLength="88" x="566" y="168.1792">a crm:E5_Event</text><!--class _candlestick_--><rect fill="#FEFECE" filter="url(#fmf70pe)" height="44.7734" style="stroke: #A80036; stroke-width: 1.5;" width="175" x="228.5" y="205"/><text fill="#000000" font-family="sans-serif" font-size="12" lengthAdjust="spacingAndGlyphs" textLength="91" x="270.5" y="221.1387">&lt;candlestick&gt;</text><line style="stroke: #A80036; stroke-width: 1.5;" x1="229.5" x2="402.5" y1="228.9688" y2="228.9688"/><text fill="#000000" font-family="sans-serif" font-size="11" lengthAdjust="spacingAndGlyphs" textLength="163" x="234.5" y="243.1792">a crm:E22_Man-Made_Object</text><!--class _candlestick_addition_--><rect fill="#FEFECE" filter="url(#fmf70pe)" height="44.7734" style="stroke: #A80036; stroke-width: 1.5;" width="154" x="306" y="402"/><text fill="#000000" font-family="sans-serif" font-size="12" lengthAdjust="spacingAndGlyphs" textLength="148" x="309" y="418.1387">&lt;candlestick_addition&gt;</text><line style="stroke: #A80036; stroke-width: 1.5;" x1="307" x2="459" y1="425.9688" y2="425.9688"/><text fill="#000000" font-family="sans-serif" font-size="11" lengthAdjust="spacingAndGlyphs" textLength="138" x="312" y="440.1792">a crm:E79_Part_Addition</text><!--class _transaction_of_vase_--><rect fill="#FEFECE" filter="url(#fmf70pe)" height="44.7734" style="stroke: #A80036; stroke-width: 1.5;" width="309" x="717.5" y="8"/><text fill="#000000" font-family="sans-serif" font-size="12" lengthAdjust="spacingAndGlyphs" textLength="145" x="799.5" y="24.1387">&lt;transaction_of_vase&gt;</text><line style="stroke: #A80036; stroke-width: 1.5;" x1="718.5" x2="1025.5" y1="31.9688" y2="31.9688"/><text fill="#000000" font-family="sans-serif" font-size="11" lengthAdjust="spacingAndGlyphs" textLength="297" x="723.5" y="46.1792">a crm:E8_Acquisition, crm:E10_Transfer_of_Custody</text><!--class _lot_--><rect fill="#FEFECE" filter="url(#fmf70pe)" height="44.7734" style="stroke: #A80036; stroke-width: 1.5;" width="131" x="544.5" y="280"/><text fill="#000000" font-family="sans-serif" font-size="12" lengthAdjust="spacingAndGlyphs" textLength="36" x="592" y="296.1387">&lt;lot&gt;</text><line style="stroke: #A80036; stroke-width: 1.5;" x1="545.5" x2="674.5" y1="303.9688" y2="303.9688"/><text fill="#000000" font-family="sans-serif" font-size="11" lengthAdjust="spacingAndGlyphs" textLength="119" x="550.5" y="318.1792">a crm:E78_Collection</text><!--class _Jane_--><rect fill="#FEFECE" filter="url(#fmf70pe)" height="44.7734" style="stroke: #A80036; stroke-width: 1.5;" width="116" x="6" y="130"/><text fill="#000000" font-family="sans-serif" font-size="12" lengthAdjust="spacingAndGlyphs" textLength="47" x="40.5" y="146.1387">&lt;Jane&gt;</text><line style="stroke: #A80036; stroke-width: 1.5;" x1="7" x2="121" y1="153.9688" y2="153.9688"/><text fill="#000000" font-family="sans-serif" font-size="11" lengthAdjust="spacingAndGlyphs" textLength="104" x="12" y="168.1792">a crm:E21_Person</text><path d="M933.523,250.249 C933.154,280.528 928.378,335.74 901,372 C892.643,383.0677 881.192,392.0378 869.129,399.1988 " fill="none" style="stroke: #A80036; stroke-width: 1.0;"/><polygon fill="#A80036" points="864.662,401.7557,874.4599,400.7556,869.0012,399.2715,870.4853,393.8128,864.662,401.7557" style="stroke: #A80036; stroke-width: 1.0;"/><text fill="#000000" font-family="sans-serif" font-size="13" lengthAdjust="spacingAndGlyphs" textLength="164" x="933" y="307.0669">crm:P111i_was_added_by</text><path d="M482.168,53.058 C495.241,67.177 513.328,85.61 531,100 C542.863,109.659 556.59,119.128 569.24,127.259 " fill="none" style="stroke: #A80036; stroke-width: 1.0;"/><polygon fill="#A80036" points="573.485,129.963,568.0444,121.7533,569.2683,127.2761,563.7454,128.5,573.485,129.963" style="stroke: #A80036; stroke-width: 1.0;"/><text fill="#000000" font-family="sans-serif" font-size="13" lengthAdjust="spacingAndGlyphs" textLength="160" x="532" y="96.0669">crm:P106i_forms_part_of</text><path d="M360.034,53.106 C345.618,60.366 332.505,70.059 323,83 C298.084,116.921 302.973,168.47 309.201,199.671 " fill="none" style="stroke: #A80036; stroke-width: 1.0;"/><polygon fill="#A80036" points="310.289,204.874,312.3606,195.2455,309.2648,199.98,304.5302,196.8842,310.289,204.874" style="stroke: #A80036; stroke-width: 1.0;"/><text fill="#000000" font-family="sans-serif" font-size="13" lengthAdjust="spacingAndGlyphs" textLength="181" x="324" y="96.0669">crm:P24_transferred_title_of</text><path d="M323.426,250.113 C335.752,285.986 360.4,357.7252 373.805,396.7389 " fill="none" style="stroke: #A80036; stroke-width: 1.0;"/><polygon fill="#A80036" points="375.541,401.7897,376.3994,391.9783,373.9163,397.061,368.8335,394.5779,375.541,401.7897" style="stroke: #A80036; stroke-width: 1.0;"/><text fill="#000000" font-family="sans-serif" font-size="13" lengthAdjust="spacingAndGlyphs" textLength="164" x="350" y="307.0669">crm:P111i_was_added_by</text><path d="M884.948,53.247 C889.88,62.225 895.217,72.882 899,83 C913.686,122.283 923.498,170.047 928.661,199.355 " fill="none" style="stroke: #A80036; stroke-width: 1.0;"/><polygon fill="#A80036" points="929.571,204.607,931.9747,195.056,928.7168,199.6805,924.0923,196.4226,929.571,204.607" style="stroke: #A80036; stroke-width: 1.0;"/><text fill="#000000" font-family="sans-serif" font-size="13" lengthAdjust="spacingAndGlyphs" textLength="181" x="906" y="96.0669">crm:P24_transferred_title_of</text><path d="M807.501,53.07 C783.754,61.616 756.844,72.022 733,83 C704.365,96.184 673.364,113.47 649.648,127.378 " fill="none" style="stroke: #A80036; stroke-width: 1.0;"/><polygon fill="#A80036" points="645.307,129.935,655.0922,128.8174,649.6161,127.399,651.0346,121.9228,645.307,129.935" style="stroke: #A80036; stroke-width: 1.0;"/><text fill="#000000" font-family="sans-serif" font-size="13" lengthAdjust="spacingAndGlyphs" textLength="160" x="734" y="96.0669">crm:P106i_forms_part_of</text><path d="M610,175.02 C610,201.436 610,246.233 610,274.814 " fill="none" style="stroke: #A80036; stroke-width: 1.0;"/><polygon fill="#A80036" points="610,279.954,614,270.954,610,274.954,606,270.954,610,279.954" style="stroke: #A80036; stroke-width: 1.0;"/><text fill="#000000" font-family="sans-serif" font-size="13" lengthAdjust="spacingAndGlyphs" textLength="191" x="611" y="232.0669">crm:P16_used_specific_object</text><path d="M544.246,321.995 C519.234,330.347 491,341.421 467,355 C446.013,366.8742 424.99,384.0238 409.225,398.1926 " fill="none" style="stroke: #A80036; stroke-width: 1.0;"/><polygon fill="#A80036" points="405.334,401.7255,414.6866,398.6388,409.0364,398.3651,409.31,392.7149,405.334,401.7255" style="stroke: #A80036; stroke-width: 1.0;"/><text fill="#000000" font-family="sans-serif" font-size="13" lengthAdjust="spacingAndGlyphs" textLength="198" x="468" y="368.0669">crm:P110i_was_augmented_by</text><path d="M634.402,325.159 C651.263,339.497 674.605,358.1402 697,372 C713.43,382.1683 732.186,391.7004 749.453,399.7326 " fill="none" style="stroke: #A80036; stroke-width: 1.0;"/><polygon fill="#A80036" points="754.28,401.9576,747.7807,394.5577,749.7391,399.8647,744.4321,401.8231,754.28,401.9576" style="stroke: #A80036; stroke-width: 1.0;"/><text fill="#000000" font-family="sans-serif" font-size="13" lengthAdjust="spacingAndGlyphs" textLength="198" x="698" y="368.0669">crm:P110i_was_augmented_by</text></g></svg>