<?xml version="1.0" encoding="UTF-8" standalone="no"?><svg xmlns="http://www.w3.org/2000/svg" xmlns:xlink="http://www.w3.org/1999/xlink" contentScriptType="application/ecmascript" contentStyleType="text/css" height="406px" preserveAspectRatio="none" style="width:500px;height:406px;" version="1.1" viewBox="0 0 500 406" width="500px" zoomAndPan="magnify"><defs><filter height="300%" id="fo4tnhg" width="300%" x="-1" y="-1"><feGaussianBlur result="blurOut" stdDeviation="2.0"/><feColorMatrix in="blurOut" result="blurOut2" type="matrix" values="0 0 0 0 0 0 0 0 0 0 0 0 0 0 0 0 0 0 .4 0"/><feOffset dx="4.0" dy="4.0" in="blurOut2" result="blurOut3"/><feBlend in="SourceGraphic" in2="blurOut3" mode="normal"/></filter></defs><g><!--class aat_300179869--><rect fill="#FEFECE" filter="url(#fo4tnhg)" height="44.7734" style="stroke: #A80036; stroke-width: 1.5;" width="195" x="202.5" y="252"/><text fill="#000000" font-family="sans-serif" font-size="12" lengthAdjust="spacingAndGlyphs" textLength="97" x="251.5" y="268.1387">aat:300179869</text><line style="stroke: #A80036; stroke-width: 1.5;" x1="203.5" x2="396.5" y1="275.9688" y2="275.9688"/><text fill="#000000" font-family="sans-serif" font-size="11" lengthAdjust="spacingAndGlyphs" textLength="183" x="208.5" y="290.1792">"Visual Works [hierarchy name]"</text><!--class _classification_class_--><rect fill="#FEFECE" filter="url(#fo4tnhg)" height="44.7734" style="stroke: #A80036; stroke-width: 1.5;" width="145" x="7.5" y="252"/><text fill="#000000" font-family="sans-serif" font-size="12" lengthAdjust="spacingAndGlyphs" textLength="139" x="10.5" y="268.1387">&lt;classification_class&gt;</text><line style="stroke: #A80036; stroke-width: 1.5;" x1="8.5" x2="151.5" y1="275.9688" y2="275.9688"/><text fill="#000000" font-family="sans-serif" font-size="11" lengthAdjust="spacingAndGlyphs" textLength="91" x="13.5" y="290.1792">a crm:E55_Type</text><!--class _classification_name_--><rect fill="#FEFECE" filter="url(#fo4tnhg)" height="23.9688" style="stroke: #A80036; stroke-width: 1.5;" width="148" x="6" y="374"/><text fill="#000000" font-family="sans-serif" font-size="12" lengthAdjust="spacingAndGlyphs" textLength="142" x="9" y="390.1387">&lt;classification_name&gt;</text><!--class _classification_event_--><rect fill="#FEFECE" filter="url(#fo4tnhg)" height="44.7734" style="stroke: #A80036; stroke-width: 1.5;" width="176" x="212" y="130"/><text fill="#000000" font-family="sans-serif" font-size="12" lengthAdjust="spacingAndGlyphs" textLength="142" x="229" y="146.1387">&lt;classification_event&gt;</text><line style="stroke: #A80036; stroke-width: 1.5;" x1="213" x2="387" y1="153.9688" y2="153.9688"/><text fill="#000000" font-family="sans-serif" font-size="11" lengthAdjust="spacingAndGlyphs" textLength="164" x="218" y="168.1792">a crm:E17_Type_Assignment</text><!--class _entity_uri_--><rect fill="#FEFECE" filter="url(#fo4tnhg)" height="44.7734" style="stroke: #A80036; stroke-width: 1.5;" width="175" x="50.5" y="8"/><text fill="#000000" font-family="sans-serif" font-size="12" lengthAdjust="spacingAndGlyphs" textLength="77" x="99.5" y="24.1387">&lt;entity_uri&gt;</text><line style="stroke: #A80036; stroke-width: 1.5;" x1="51.5" x2="224.5" y1="31.9688" y2="31.9688"/><text fill="#000000" font-family="sans-serif" font-size="11" lengthAdjust="spacingAndGlyphs" textLength="163" x="56.5" y="46.1792">a crm:E22_Man-Made_Object</text><path d="M80,297.134 C80,318.213 80,349.783 80,368.7869 " fill="none" style="stroke: #A80036; stroke-width: 1.0;"/><polygon fill="#A80036" points="80,373.7946,84,364.7946,80,368.7946,76,364.7946,80,373.7946" style="stroke: #A80036; stroke-width: 1.0;"/><text fill="#000000" font-family="sans-serif" font-size="13" lengthAdjust="spacingAndGlyphs" textLength="58" x="81" y="340.0669">rdfs:label</text><path d="M300,175.231 C300,195.365 300,225.366 300,246.919 " fill="none" style="stroke: #A80036; stroke-width: 1.0;"/><polygon fill="#A80036" points="300,251.931,304,242.931,300,246.931,296,242.931,300,251.931" style="stroke: #A80036; stroke-width: 1.0;"/><text fill="#000000" font-family="sans-serif" font-size="13" lengthAdjust="spacingAndGlyphs" textLength="198" x="301" y="218.0669">crm:P21_had_general_purpose</text><path d="M238.161,175.002 C216.968,183.297 193.453,193.558 173,205 C150.547,217.56 127.241,234.736 109.577,248.746 " fill="none" style="stroke: #A80036; stroke-width: 1.0;"/><polygon fill="#A80036" points="105.6684,251.867,115.1967,249.3746,109.5748,248.7461,110.2033,243.1243,105.6684,251.867" style="stroke: #A80036; stroke-width: 1.0;"/><text fill="#000000" font-family="sans-serif" font-size="13" lengthAdjust="spacingAndGlyphs" textLength="117" x="174" y="218.0669">crm:P42_assigned</text><path d="M121.743,53.214 C108.491,72.317 90.7481,101.458 83,130 C72.3064,169.392 74.0694,217.126 76.7262,246.398 " fill="none" style="stroke: #A80036; stroke-width: 1.0; stroke-dasharray: 7.0,7.0;"/><polygon fill="#A80036" points="77.2299,251.642,80.3528,242.3014,76.7528,246.6648,72.3893,243.0648,77.2299,251.642" style="stroke: #A80036; stroke-width: 1.0;"/><text fill="#000000" font-family="sans-serif" font-size="13" lengthAdjust="spacingAndGlyphs" textLength="110" x="84" y="157.0669">crm:P2_has_type</text><path d="M167.337,53.231 C195.321,73.96 237.423,105.147 266.664,126.806 " fill="none" style="stroke: #A80036; stroke-width: 1.0;"/><polygon fill="#A80036" points="270.881,129.931,266.0285,121.3605,266.8627,126.9555,261.2677,127.7897,270.881,129.931" style="stroke: #A80036; stroke-width: 1.0;"/><text fill="#000000" font-family="sans-serif" font-size="13" lengthAdjust="spacingAndGlyphs" textLength="174" x="229" y="96.0669">crm:P41i_was_classified_by</text></g></svg>