<?xml version="1.0" encoding="UTF-8" standalone="no"?><svg xmlns="http://www.w3.org/2000/svg" xmlns:xlink="http://www.w3.org/1999/xlink" contentScriptType="application/ecmascript" contentStyleType="text/css" height="305px" preserveAspectRatio="none" style="width:331px;height:305px;" version="1.1" viewBox="0 0 331 305" width="331px" zoomAndPan="magnify"><defs><filter height="300%" id="f4ezxv5" width="300%" x="-1" y="-1"><feGaussianBlur result="blurOut" stdDeviation="2.0"/><feColorMatrix in="blurOut" result="blurOut2" type="matrix" values="0 0 0 0 0 0 0 0 0 0 0 0 0 0 0 0 0 0 .4 0"/><feOffset dx="4.0" dy="4.0" in="blurOut2" result="blurOut3"/><feBlend in="SourceGraphic" in2="blurOut3" mode="normal"/></filter></defs><g><!--class _image_--><rect fill="#FEFECE" filter="url(#f4ezxv5)" height="44.7734" style="stroke: #A80036; stroke-width: 1.5;" width="111" x="74.5" y="130"/><text fill="#000000" font-family="sans-serif" font-size="12" lengthAdjust="spacingAndGlyphs" textLength="58" x="101" y="146.1387">&lt;image&gt;</text><line style="stroke: #A80036; stroke-width: 1.5;" x1="75.5" x2="184.5" y1="153.9688" y2="153.9688"/><text fill="#000000" font-family="sans-serif" font-size="11" lengthAdjust="spacingAndGlyphs" textLength="99" x="80.5" y="168.1792">a crm:E38_Image</text><!--class _description_--><rect fill="#FEFECE" filter="url(#f4ezxv5)" height="23.9688" style="stroke: #A80036; stroke-width: 1.5;" width="96" x="6" y="262.5"/><text fill="#000000" font-family="sans-serif" font-size="12" lengthAdjust="spacingAndGlyphs" textLength="90" x="9" y="278.6387">&lt;description&gt;</text><!--class _right_--><rect fill="#FEFECE" filter="url(#f4ezxv5)" height="44.7734" style="stroke: #A80036; stroke-width: 1.5;" width="104" x="155" y="252"/><text fill="#000000" font-family="sans-serif" font-size="12" lengthAdjust="spacingAndGlyphs" textLength="49" x="182.5" y="268.1387">&lt;right&gt;</text><line style="stroke: #A80036; stroke-width: 1.5;" x1="156" x2="258" y1="275.9688" y2="275.9688"/><text fill="#000000" font-family="sans-serif" font-size="11" lengthAdjust="spacingAndGlyphs" textLength="92" x="161" y="290.1792">a crm:E30_Right</text><!--class _entity_uri_--><rect fill="#FEFECE" filter="url(#f4ezxv5)" height="44.7734" style="stroke: #A80036; stroke-width: 1.5;" width="105" x="77.5" y="8"/><text fill="#000000" font-family="sans-serif" font-size="12" lengthAdjust="spacingAndGlyphs" textLength="77" x="91.5" y="24.1387">&lt;entity_uri&gt;</text><line style="stroke: #A80036; stroke-width: 1.5;" x1="78.5" x2="181.5" y1="31.9688" y2="31.9688"/><text fill="#000000" font-family="sans-serif" font-size="11" lengthAdjust="spacingAndGlyphs" textLength="93" x="83.5" y="46.1792">a crm:E39_Actor</text><path d="M80.6301,175.091 C68.824,182.746 57.7076,192.62 51,205 C42.313,221.0329 45.0966,242.4057 48.7336,256.9869 " fill="none" style="stroke: #A80036; stroke-width: 1.0;"/><polygon fill="#A80036" points="50.0925,262.0291,51.6127,252.2983,48.7914,257.2014,43.8883,254.3801,50.0925,262.0291" style="stroke: #A80036; stroke-width: 1.0;"/><text fill="#000000" font-family="sans-serif" font-size="13" lengthAdjust="spacingAndGlyphs" textLength="111" x="52" y="218.0669">crm:P3_has_note</text><path d="M146.857,175.149 C153.672,184.202 161.457,194.94 168,205 C176.838,218.5889 185.847,234.2682 192.976,247.194 " fill="none" style="stroke: #A80036; stroke-width: 1.0;"/><polygon fill="#A80036" points="195.514,251.8226,194.6945,242.0079,193.1102,247.4384,187.6797,245.854,195.514,251.8226" style="stroke: #A80036; stroke-width: 1.0;"/><text fill="#000000" font-family="sans-serif" font-size="13" lengthAdjust="spacingAndGlyphs" textLength="151" x="179" y="218.0669">crm:P104_is_subject_to</text><path d="M130,53.231 C130,73.365 130,103.366 130,124.919 " fill="none" style="stroke: #A80036; stroke-width: 1.0;"/><polygon fill="#A80036" points="130,129.931,134,120.931,130,124.931,126,120.931,130,129.931" style="stroke: #A80036; stroke-width: 1.0;"/><text fill="#000000" font-family="sans-serif" font-size="13" lengthAdjust="spacingAndGlyphs" textLength="195" x="131" y="96.0669">crm:P138i_has_representation</text></g></svg>