<?xml version="1.0" encoding="UTF-8" standalone="no"?><svg xmlns="http://www.w3.org/2000/svg" xmlns:xlink="http://www.w3.org/1999/xlink" contentScriptType="application/ecmascript" contentStyleType="text/css" height="400px" preserveAspectRatio="none" style="width:489px;height:400px;" version="1.1" viewBox="0 0 489 400" width="489px" zoomAndPan="magnify"><defs><filter height="300%" id="fsn7cf2" width="300%" x="-1" y="-1"><feGaussianBlur result="blurOut" stdDeviation="2.0"/><feColorMatrix in="blurOut" result="blurOut2" type="matrix" values="0 0 0 0 0 0 0 0 0 0 0 0 0 0 0 0 0 0 .4 0"/><feOffset dx="4.0" dy="4.0" in="blurOut2" result="blurOut3"/><feBlend in="SourceGraphic" in2="blurOut3" mode="normal"/></filter></defs><g><!--class _dimension_type_--><rect fill="#FEFECE" filter="url(#fsn7cf2)" height="23.9688" style="stroke: #A80036; stroke-width: 1.5;" width="123" x="10" y="267"/><text fill="#000000" font-family="sans-serif" font-size="12" lengthAdjust="spacingAndGlyphs" textLength="117" x="13" y="283.1387">&lt;dimension_type&gt;</text><!--class _dimension_name_--><rect fill="#FEFECE" filter="url(#fsn7cf2)" height="23.9688" style="stroke: #A80036; stroke-width: 1.5;" width="131" x="6" y="368"/><text fill="#000000" font-family="sans-serif" font-size="12" lengthAdjust="spacingAndGlyphs" textLength="125" x="9" y="384.1387">&lt;dimension_name&gt;</text><!--class _dimension_class_--><rect fill="#FEFECE" filter="url(#fsn7cf2)" height="44.7734" style="stroke: #A80036; stroke-width: 1.5;" width="136" x="155.5" y="130"/><text fill="#000000" font-family="sans-serif" font-size="12" lengthAdjust="spacingAndGlyphs" textLength="122" x="162.5" y="146.1387">&lt;dimension_class&gt;</text><line style="stroke: #A80036; stroke-width: 1.5;" x1="156.5" x2="290.5" y1="153.9688" y2="153.9688"/><text fill="#000000" font-family="sans-serif" font-size="11" lengthAdjust="spacingAndGlyphs" textLength="124" x="161.5" y="168.1792">a crm:E54_Dimension</text><!--class _value_--><rect fill="#FEFECE" filter="url(#fsn7cf2)" height="23.9688" style="stroke: #A80036; stroke-width: 1.5;" width="59" x="194" y="267"/><text fill="#000000" font-family="sans-serif" font-size="12" lengthAdjust="spacingAndGlyphs" textLength="53" x="197" y="283.1387">&lt;value&gt;</text><!--class _unit_--><rect fill="#FEFECE" filter="url(#fsn7cf2)" height="23.9688" style="stroke: #A80036; stroke-width: 1.5;" width="50" x="364.5" y="267"/><text fill="#000000" font-family="sans-serif" font-size="12" lengthAdjust="spacingAndGlyphs" textLength="44" x="367.5" y="283.1387">&lt;unit&gt;</text><!--class _entity_uri_--><rect fill="#FEFECE" filter="url(#fsn7cf2)" height="44.7734" style="stroke: #A80036; stroke-width: 1.5;" width="175" x="136" y="8"/><text fill="#000000" font-family="sans-serif" font-size="12" lengthAdjust="spacingAndGlyphs" textLength="77" x="185" y="24.1387">&lt;entity_uri&gt;</text><line style="stroke: #A80036; stroke-width: 1.5;" x1="137" x2="310" y1="31.9688" y2="31.9688"/><text fill="#000000" font-family="sans-serif" font-size="11" lengthAdjust="spacingAndGlyphs" textLength="163" x="142" y="46.1792">a crm:E22_Man-Made_Object</text><path d="M71.5,291.357 C71.5,308.8868 71.5,342.6117 71.5,362.7298 " fill="none" style="stroke: #A80036; stroke-width: 1.0;"/><polygon fill="#A80036" points="71.5,367.7759,75.5,358.7759,71.5,362.7759,67.5,358.7759,71.5,367.7759" style="stroke: #A80036; stroke-width: 1.0;"/><text fill="#000000" font-family="sans-serif" font-size="13" lengthAdjust="spacingAndGlyphs" textLength="92" x="72.5" y="334.0669">skos:prefLabel</text><path d="M221.864,175.126 C220.796,191.984 219.732,215.98 220.5,237 C220.795,245.071 221.415,254.017 222.016,261.488 " fill="none" style="stroke: #A80036; stroke-width: 1.0;"/><polygon fill="#A80036" points="222.465,266.875,225.7029,257.5736,222.0493,261.8923,217.7306,258.2387,222.465,266.875" style="stroke: #A80036; stroke-width: 1.0;"/><text fill="#000000" font-family="sans-serif" font-size="13" lengthAdjust="spacingAndGlyphs" textLength="55" x="256" y="218.0669">rdf:value</text><text fill="#000000" font-family="sans-serif" font-size="13" lengthAdjust="spacingAndGlyphs" textLength="124" x="221.5" y="233.1997">crm:P90_has_value</text><path d="M155.429,170.989 C135.722,178.758 115.502,189.719 100.5,205 C85.1355,220.65 77.6305,245.446 74.1737,261.721 " fill="none" style="stroke: #A80036; stroke-width: 1.0;"/><polygon fill="#A80036" points="73.1511,266.888,78.8234,258.8366,74.1225,261.9833,70.9758,257.2824,73.1511,266.888" style="stroke: #A80036; stroke-width: 1.0;"/><text fill="#000000" font-family="sans-serif" font-size="13" lengthAdjust="spacingAndGlyphs" textLength="110" x="101.5" y="225.5669">crm:P2_has_type</text><path d="M291.732,171.297 C312.335,179.124 333.874,190.041 350.5,205 C367.827,220.591 378.855,245.735 384.609,262.065 " fill="none" style="stroke: #A80036; stroke-width: 1.0;"/><polygon fill="#A80036" points="386.227,266.829,387.1216,257.0209,384.6197,262.0944,379.5462,259.5925,386.227,266.829" style="stroke: #A80036; stroke-width: 1.0;"/><text fill="#000000" font-family="sans-serif" font-size="13" lengthAdjust="spacingAndGlyphs" textLength="114" x="374.5" y="225.5669">crm:P90_has_unit</text><path d="M223.5,53.231 C223.5,73.365 223.5,103.366 223.5,124.919 " fill="none" style="stroke: #A80036; stroke-width: 1.0;"/><polygon fill="#A80036" points="223.5,129.931,227.5,120.931,223.5,124.931,219.5,120.931,223.5,129.931" style="stroke: #A80036; stroke-width: 1.0;"/><text fill="#000000" font-family="sans-serif" font-size="13" lengthAdjust="spacingAndGlyphs" textLength="156" x="224.5" y="96.0669">crm:P43_has_dimension</text></g></svg>