<?xml version="1.0" encoding="UTF-8" standalone="no"?><svg xmlns="http://www.w3.org/2000/svg" xmlns:xlink="http://www.w3.org/1999/xlink" contentScriptType="application/ecmascript" contentStyleType="text/css" height="406px" preserveAspectRatio="none" style="width:279px;height:406px;" version="1.1" viewBox="0 0 279 406" width="279px" zoomAndPan="magnify"><defs><filter height="300%" id="fjdv0vx" width="300%" x="-1" y="-1"><feGaussianBlur result="blurOut" stdDeviation="2.0"/><feColorMatrix in="blurOut" result="blurOut2" type="matrix" values="0 0 0 0 0 0 0 0 0 0 0 0 0 0 0 0 0 0 .4 0"/><feOffset dx="4.0" dy="4.0" in="blurOut2" result="blurOut3"/><feBlend in="SourceGraphic" in2="blurOut3" mode="normal"/></filter></defs><g><!--class _entity_uri_--><rect fill="#FEFECE" filter="url(#fjdv0vx)" height="44.7734" style="stroke: #A80036; stroke-width: 1.5;" width="175" x="6" y="8"/><text fill="#000000" font-family="sans-serif" font-size="12" lengthAdjust="spacingAndGlyphs" textLength="77" x="55" y="24.1387">&lt;entity_uri&gt;</text><line style="stroke: #A80036; stroke-width: 1.5;" x1="7" x2="180" y1="31.9688" y2="31.9688"/><text fill="#000000" font-family="sans-serif" font-size="11" lengthAdjust="spacingAndGlyphs" textLength="163" x="12" y="46.1792">a crm:E22_Man-Made_Object</text><!--class _production_event_--><rect fill="#FEFECE" filter="url(#fjdv0vx)" height="44.7734" style="stroke: #A80036; stroke-width: 1.5;" width="136" x="25.5" y="130"/><text fill="#000000" font-family="sans-serif" font-size="12" lengthAdjust="spacingAndGlyphs" textLength="129" x="29" y="146.1387">&lt;production_event&gt;</text><line style="stroke: #A80036; stroke-width: 1.5;" x1="26.5" x2="160.5" y1="153.9688" y2="153.9688"/><text fill="#000000" font-family="sans-serif" font-size="11" lengthAdjust="spacingAndGlyphs" textLength="124" x="31.5" y="168.1792">a crm:E12_Production</text><!--class _actor_class_--><rect fill="#FEFECE" filter="url(#fjdv0vx)" height="44.7734" style="stroke: #A80036; stroke-width: 1.5;" width="100" x="43.5" y="252"/><text fill="#000000" font-family="sans-serif" font-size="12" lengthAdjust="spacingAndGlyphs" textLength="91" x="48" y="268.1387">&lt;actor_class&gt;</text><line style="stroke: #A80036; stroke-width: 1.5;" x1="44.5" x2="142.5" y1="275.9688" y2="275.9688"/><text fill="#000000" font-family="sans-serif" font-size="11" lengthAdjust="spacingAndGlyphs" textLength="88" x="49.5" y="290.1792">a &lt;actor_type&gt;</text><!--class _actor_name_--><rect fill="#FEFECE" filter="url(#fjdv0vx)" height="23.9688" style="stroke: #A80036; stroke-width: 1.5;" width="100" x="43.5" y="374"/><text fill="#000000" font-family="sans-serif" font-size="12" lengthAdjust="spacingAndGlyphs" textLength="94" x="46.5" y="390.1387">&lt;actor_name&gt;</text><path d="M93.5,53.231 C93.5,73.365 93.5,103.366 93.5,124.919 " fill="none" style="stroke: #A80036; stroke-width: 1.0;"/><polygon fill="#A80036" points="93.5,129.931,97.5,120.931,93.5,124.931,89.5,120.931,93.5,129.931" style="stroke: #A80036; stroke-width: 1.0;"/><text fill="#000000" font-family="sans-serif" font-size="13" lengthAdjust="spacingAndGlyphs" textLength="184" x="94.5" y="96.0669">crm:P108i_was_produced_by</text><path d="M93.5,175.231 C93.5,195.365 93.5,225.366 93.5,246.919 " fill="none" style="stroke: #A80036; stroke-width: 1.0;"/><polygon fill="#A80036" points="93.5,251.931,97.5,242.931,93.5,246.931,89.5,242.931,93.5,251.931" style="stroke: #A80036; stroke-width: 1.0;"/><text fill="#000000" font-family="sans-serif" font-size="13" lengthAdjust="spacingAndGlyphs" textLength="154" x="94.5" y="218.0669">crm:P14_carried_out_by</text><path d="M93.5,297.134 C93.5,318.213 93.5,349.783 93.5,368.7869 " fill="none" style="stroke: #A80036; stroke-width: 1.0;"/><polygon fill="#A80036" points="93.5,373.7946,97.5,364.7946,93.5,368.7946,89.5,364.7946,93.5,373.7946" style="stroke: #A80036; stroke-width: 1.0;"/><text fill="#000000" font-family="sans-serif" font-size="13" lengthAdjust="spacingAndGlyphs" textLength="58" x="94.5" y="340.0669">rdfs:label</text></g></svg>