<?xml version="1.0" encoding="UTF-8" standalone="no"?><svg xmlns="http://www.w3.org/2000/svg" xmlns:xlink="http://www.w3.org/1999/xlink" contentScriptType="application/ecmascript" contentStyleType="text/css" height="528px" preserveAspectRatio="none" style="width:628px;height:528px;" version="1.1" viewBox="0 0 628 528" width="628px" zoomAndPan="magnify"><defs><filter height="300%" id="fp3rqcc" width="300%" x="-1" y="-1"><feGaussianBlur result="blurOut" stdDeviation="2.0"/><feColorMatrix in="blurOut" result="blurOut2" type="matrix" values="0 0 0 0 0 0 0 0 0 0 0 0 0 0 0 0 0 0 .4 0"/><feOffset dx="4.0" dy="4.0" in="blurOut2" result="blurOut3"/><feBlend in="SourceGraphic" in2="blurOut3" mode="normal"/></filter></defs><g><!--class _author_class_--><rect fill="#FEFECE" filter="url(#fp3rqcc)" height="44.7734" style="stroke: #A80036; stroke-width: 1.5;" width="106" x="49" y="374"/><text fill="#000000" font-family="sans-serif" font-size="12" lengthAdjust="spacingAndGlyphs" textLength="100" x="52" y="390.1387">&lt;author_class&gt;</text><line style="stroke: #A80036; stroke-width: 1.5;" x1="50" x2="154" y1="397.9688" y2="397.9688"/><text fill="#000000" font-family="sans-serif" font-size="11" lengthAdjust="spacingAndGlyphs" textLength="93" x="55" y="412.1792">a crm:E39_Actor</text><!--class _author_--><rect fill="#FEFECE" filter="url(#fp3rqcc)" height="23.9688" style="stroke: #A80036; stroke-width: 1.5;" width="68" x="6" y="496"/><text fill="#000000" font-family="sans-serif" font-size="12" lengthAdjust="spacingAndGlyphs" textLength="62" x="9" y="512.1387">&lt;author&gt;</text><!--class _author_lod_id_--><rect fill="#FEFECE" filter="url(#fp3rqcc)" height="23.9688" style="stroke: #A80036; stroke-width: 1.5;" width="110" x="109" y="496"/><text fill="#000000" font-family="sans-serif" font-size="12" lengthAdjust="spacingAndGlyphs" textLength="104" x="112" y="512.1387">&lt;author_lod_id&gt;</text><!--class _description_class_--><rect fill="#FEFECE" filter="url(#fp3rqcc)" height="44.7734" style="stroke: #A80036; stroke-width: 1.5;" width="171" x="236.5" y="130"/><text fill="#000000" font-family="sans-serif" font-size="12" lengthAdjust="spacingAndGlyphs" textLength="128" x="258" y="146.1387">&lt;description_class&gt;</text><line style="stroke: #A80036; stroke-width: 1.5;" x1="237.5" x2="406.5" y1="153.9688" y2="153.9688"/><text fill="#000000" font-family="sans-serif" font-size="11" lengthAdjust="spacingAndGlyphs" textLength="159" x="242.5" y="168.1792">a crm:E33_Linguistic_Object</text><!--class aac_types_primary_description--><rect fill="#FEFECE" filter="url(#fp3rqcc)" height="23.9688" style="stroke: #A80036; stroke-width: 1.5;" width="195" x="211.5" y="262.5"/><text fill="#000000" font-family="sans-serif" font-size="12" lengthAdjust="spacingAndGlyphs" textLength="189" x="214.5" y="278.6387">aac_types:primary_description</text><!--class _description_--><rect fill="#FEFECE" filter="url(#fp3rqcc)" height="23.9688" style="stroke: #A80036; stroke-width: 1.5;" width="96" x="467" y="262.5"/><text fill="#000000" font-family="sans-serif" font-size="12" lengthAdjust="spacingAndGlyphs" textLength="90" x="470" y="278.6387">&lt;description&gt;</text><!--class _authorship_event_--><rect fill="#FEFECE" filter="url(#fp3rqcc)" height="44.7734" style="stroke: #A80036; stroke-width: 1.5;" width="135" x="34.5" y="252"/><text fill="#000000" font-family="sans-serif" font-size="12" lengthAdjust="spacingAndGlyphs" textLength="129" x="37.5" y="268.1387">&lt;authorship_event&gt;</text><line style="stroke: #A80036; stroke-width: 1.5;" x1="35.5" x2="168.5" y1="275.9688" y2="275.9688"/><text fill="#000000" font-family="sans-serif" font-size="11" lengthAdjust="spacingAndGlyphs" textLength="112" x="40.5" y="290.1792">a crm:E65_Creation</text><!--class _entity_uri_--><rect fill="#FEFECE" filter="url(#fp3rqcc)" height="44.7734" style="stroke: #A80036; stroke-width: 1.5;" width="175" x="350.5" y="8"/><text fill="#000000" font-family="sans-serif" font-size="12" lengthAdjust="spacingAndGlyphs" textLength="77" x="399.5" y="24.1387">&lt;entity_uri&gt;</text><line style="stroke: #A80036; stroke-width: 1.5;" x1="351.5" x2="524.5" y1="31.9688" y2="31.9688"/><text fill="#000000" font-family="sans-serif" font-size="11" lengthAdjust="spacingAndGlyphs" textLength="163" x="356.5" y="46.1792">a crm:E22_Man-Made_Object</text><path d="M81.9371,419.436 C74.6552,428.1817 66.801,438.6263 61,449 C53.4995,462.4129 47.8093,479.0131 44.2566,491.0127 " fill="none" style="stroke: #A80036; stroke-width: 1.0;"/><polygon fill="#A80036" points="42.8659,495.8511,49.1965,488.3064,44.2472,491.0457,41.5079,486.0963,42.8659,495.8511" style="stroke: #A80036; stroke-width: 1.0;"/><text fill="#000000" font-family="sans-serif" font-size="13" lengthAdjust="spacingAndGlyphs" textLength="58" x="62" y="462.0669">rdfs:label</text><path d="M114.249,419.134 C126.287,440.3932 144.366,472.3235 155.094,491.2714 " fill="none" style="stroke: #A80036; stroke-width: 1.0;"/><polygon fill="#A80036" points="157.655,495.7946,156.7015,485.992,155.1915,491.4436,149.7399,489.9336,157.655,495.7946" style="stroke: #A80036; stroke-width: 1.0;"/><text fill="#000000" font-family="sans-serif" font-size="13" lengthAdjust="spacingAndGlyphs" textLength="105" x="142" y="462.0669">skos:closeMatch</text><path d="M313.662,175.212 C310.602,184.275 307.517,195.003 306,205 C303.319,222.663 304.813,243.158 306.508,257.095 " fill="none" style="stroke: #A80036; stroke-width: 1.0;"/><polygon fill="#A80036" points="307.184,262.276,309.9857,252.834,306.5369,257.318,302.0529,253.8693,307.184,262.276" style="stroke: #A80036; stroke-width: 1.0;"/><text fill="#000000" font-family="sans-serif" font-size="13" lengthAdjust="spacingAndGlyphs" textLength="110" x="307" y="218.0669">crm:P2_has_type</text><path d="M367.645,175.085 C385.001,183.788 404.741,194.295 422,205 C449.408,222.001 479.085,244.678 497.363,259.188 " fill="none" style="stroke: #A80036; stroke-width: 1.0;"/><polygon fill="#A80036" points="501.308,262.334,496.7657,253.5952,497.3989,259.2165,491.7776,259.8497,501.308,262.334" style="stroke: #A80036; stroke-width: 1.0;"/><text fill="#000000" font-family="sans-serif" font-size="13" lengthAdjust="spacingAndGlyphs" textLength="55" x="447" y="218.0669">rdf:value</text><path d="M236.104,159.706 C199.733,166.274 159.127,179.329 130,205 C117.896,215.668 110.93,232.352 106.973,246.584 " fill="none" style="stroke: #A80036; stroke-width: 1.0;"/><polygon fill="#A80036" points="105.6472,251.701,111.7771,243.9923,106.9015,246.8609,104.0329,241.9853,105.6472,251.701" style="stroke: #A80036; stroke-width: 1.0;"/><text fill="#000000" font-family="sans-serif" font-size="13" lengthAdjust="spacingAndGlyphs" textLength="165" x="131" y="218.0669">crm:P94i_was_created_by</text><path d="M489.013,53.119 C500.961,60.736 512.181,70.585 519,83 C550.441,140.247 531.005,222.503 520.468,257.141 " fill="none" style="stroke: #A80036; stroke-width: 1.0; stroke-dasharray: 7.0,7.0;"/><polygon fill="#A80036" points="518.863,262.28,525.3653,254.8827,520.3543,257.5076,517.7294,252.4966,518.863,262.28" style="stroke: #A80036; stroke-width: 1.0;"/><text fill="#000000" font-family="sans-serif" font-size="13" lengthAdjust="spacingAndGlyphs" textLength="89" x="538" y="157.0669">dc:description</text><path d="M397.484,53.054 C384.481,61.258 370.693,71.449 360,83 C348.727,95.177 339.568,111.307 333.068,124.856 " fill="none" style="stroke: #A80036; stroke-width: 1.0;"/><polygon fill="#A80036" points="330.795,129.719,338.2302,123.26,332.9126,125.1895,330.983,119.8719,330.795,129.719" style="stroke: #A80036; stroke-width: 1.0;"/><text fill="#000000" font-family="sans-serif" font-size="13" lengthAdjust="spacingAndGlyphs" textLength="153" x="361" y="96.0669">crm:P129i_is_subject_of</text><path d="M102,297.231 C102,317.365 102,347.366 102,368.919 " fill="none" style="stroke: #A80036; stroke-width: 1.0;"/><polygon fill="#A80036" points="102,373.931,106,364.931,102,368.931,98,364.931,102,373.931" style="stroke: #A80036; stroke-width: 1.0;"/><text fill="#000000" font-family="sans-serif" font-size="13" lengthAdjust="spacingAndGlyphs" textLength="154" x="103" y="340.0669">crm:P14_carried_out_by</text></g></svg>