<?xml version="1.0" encoding="UTF-8" standalone="no"?><svg xmlns="http://www.w3.org/2000/svg" xmlns:xlink="http://www.w3.org/1999/xlink" contentScriptType="application/ecmascript" contentStyleType="text/css" height="528px" preserveAspectRatio="none" style="width:730px;height:528px;" version="1.1" viewBox="0 0 730 528" width="730px" zoomAndPan="magnify"><defs><filter height="300%" id="fgfqqlb" width="300%" x="-1" y="-1"><feGaussianBlur result="blurOut" stdDeviation="2.0"/><feColorMatrix in="blurOut" result="blurOut2" type="matrix" values="0 0 0 0 0 0 0 0 0 0 0 0 0 0 0 0 0 0 .4 0"/><feOffset dx="4.0" dy="4.0" in="blurOut2" result="blurOut3"/><feBlend in="SourceGraphic" in2="blurOut3" mode="normal"/></filter></defs><g><!--class _death_timespan_--><rect fill="#FEFECE" filter="url(#fgfqqlb)" height="44.7734" style="stroke: #A80036; stroke-width: 1.5;" width="137" x="142.5" y="252"/><text fill="#000000" font-family="sans-serif" font-size="12" lengthAdjust="spacingAndGlyphs" textLength="121" x="150.5" y="268.1387">&lt;death_timespan&gt;</text><line style="stroke: #A80036; stroke-width: 1.5;" x1="143.5" x2="278.5" y1="275.9688" y2="275.9688"/><text fill="#000000" font-family="sans-serif" font-size="11" lengthAdjust="spacingAndGlyphs" textLength="125" x="148.5" y="290.1792">a crm:E52_Time-Span</text><!--class _display_date_--><rect fill="#FEFECE" filter="url(#fgfqqlb)" height="23.9688" style="stroke: #A80036; stroke-width: 1.5;" width="104" x="6" y="384.5"/><text fill="#000000" font-family="sans-serif" font-size="12" lengthAdjust="spacingAndGlyphs" textLength="98" x="9" y="400.6387">&lt;display_date&gt;</text><!--class _death_date_--><rect fill="#FEFECE" filter="url(#fgfqqlb)" height="23.9688" style="stroke: #A80036; stroke-width: 1.5;" width="98" x="162" y="384.5"/><text fill="#000000" font-family="sans-serif" font-size="12" lengthAdjust="spacingAndGlyphs" textLength="92" x="165" y="400.6387">&lt;death_date&gt;</text><!--class _death_location_class_--><rect fill="#FEFECE" filter="url(#fgfqqlb)" height="44.7734" style="stroke: #A80036; stroke-width: 1.5;" width="157" x="369.5" y="252"/><text fill="#000000" font-family="sans-serif" font-size="12" lengthAdjust="spacingAndGlyphs" textLength="151" x="372.5" y="268.1387">&lt;death_location_class&gt;</text><line style="stroke: #A80036; stroke-width: 1.5;" x1="370.5" x2="525.5" y1="275.9688" y2="275.9688"/><text fill="#000000" font-family="sans-serif" font-size="11" lengthAdjust="spacingAndGlyphs" textLength="94" x="375.5" y="290.1792">a crm:E53_Place</text><!--class _location_name_--><rect fill="#FEFECE" filter="url(#fgfqqlb)" height="44.7734" style="stroke: #A80036; stroke-width: 1.5;" width="174" x="361" y="374"/><text fill="#000000" font-family="sans-serif" font-size="12" lengthAdjust="spacingAndGlyphs" textLength="111" x="392.5" y="390.1387">&lt;location_name&gt;</text><line style="stroke: #A80036; stroke-width: 1.5;" x1="362" x2="534" y1="397.9688" y2="397.9688"/><text fill="#000000" font-family="sans-serif" font-size="11" lengthAdjust="spacingAndGlyphs" textLength="162" x="367" y="412.1792">a crm:E44_Place_Appellation</text><!--class _death_location_uri_--><rect fill="#FEFECE" filter="url(#fgfqqlb)" height="23.9688" style="stroke: #A80036; stroke-width: 1.5;" width="141" x="576.5" y="384.5"/><text fill="#000000" font-family="sans-serif" font-size="12" lengthAdjust="spacingAndGlyphs" textLength="135" x="579.5" y="400.6387">&lt;death_location_uri&gt;</text><!--class _death_event_--><rect fill="#FEFECE" filter="url(#fgfqqlb)" height="44.7734" style="stroke: #A80036; stroke-width: 1.5;" width="109" x="298.5" y="130"/><text fill="#000000" font-family="sans-serif" font-size="12" lengthAdjust="spacingAndGlyphs" textLength="98" x="304" y="146.1387">&lt;death_event&gt;</text><line style="stroke: #A80036; stroke-width: 1.5;" x1="299.5" x2="406.5" y1="153.9688" y2="153.9688"/><text fill="#000000" font-family="sans-serif" font-size="11" lengthAdjust="spacingAndGlyphs" textLength="97" x="304.5" y="168.1792">a crm:E69_Death</text><!--class _entity_uri_--><rect fill="#FEFECE" filter="url(#fgfqqlb)" height="44.7734" style="stroke: #A80036; stroke-width: 1.5;" width="105" x="300.5" y="8"/><text fill="#000000" font-family="sans-serif" font-size="12" lengthAdjust="spacingAndGlyphs" textLength="77" x="314.5" y="24.1387">&lt;entity_uri&gt;</text><line style="stroke: #A80036; stroke-width: 1.5;" x1="301.5" x2="404.5" y1="31.9688" y2="31.9688"/><text fill="#000000" font-family="sans-serif" font-size="11" lengthAdjust="spacingAndGlyphs" textLength="93" x="306.5" y="46.1792">a crm:E39_Actor</text><!--class _death_location_--><rect fill="#FEFECE" filter="url(#fgfqqlb)" height="23.9688" style="stroke: #A80036; stroke-width: 1.5;" width="119" x="388.5" y="496"/><text fill="#000000" font-family="sans-serif" font-size="12" lengthAdjust="spacingAndGlyphs" textLength="113" x="391.5" y="512.1387">&lt;death_location&gt;</text><path d="M142.268,293.22 C122.51,300.986 102.2162,311.887 87,327 C72.5112,341.39 64.857,364.138 61.1221,379.428 " fill="none" style="stroke: #A80036; stroke-width: 1.0;"/><polygon fill="#A80036" points="60.0015,384.305,65.9158,376.4297,61.1215,379.4321,58.1191,374.6377,60.0015,384.305" style="stroke: #A80036; stroke-width: 1.0;"/><text fill="#000000" font-family="sans-serif" font-size="13" lengthAdjust="spacingAndGlyphs" textLength="111" x="88" y="340.0669">crm:P3_has_note</text><path d="M209.249,297.09 C208.355,310.572 207.543,328.294 208,344 C208.346,355.893 209.141,369.31 209.825,379.468 " fill="none" style="stroke: #A80036; stroke-width: 1.0;"/><polygon fill="#A80036" points="210.17,384.457,213.5407,375.2029,209.8256,379.4689,205.5597,375.7539,210.17,384.457" style="stroke: #A80036; stroke-width: 1.0;"/><text fill="#000000" font-family="sans-serif" font-size="13" lengthAdjust="spacingAndGlyphs" textLength="195" x="209" y="340.0669">crm:P82_at_some_time_within</text><path d="M446.465,297.037 C445.881,306.259 445.287,317.152 445,327 C444.6,340.743 445.172,356.029 445.92,368.668 " fill="none" style="stroke: #A80036; stroke-width: 1.0;"/><polygon fill="#A80036" points="446.249,373.91,449.678,364.6773,445.9361,368.9198,441.6937,365.1779,446.249,373.91" style="stroke: #A80036; stroke-width: 1.0;"/><text fill="#000000" font-family="sans-serif" font-size="13" lengthAdjust="spacingAndGlyphs" textLength="157" x="446" y="340.0669">crm:P87_is_identified_by</text><path d="M526.551,288.499 C554.511,296.125 584.786,308.139 608,327 C624.89,340.723 635.845,363.829 641.722,379.366 " fill="none" style="stroke: #A80036; stroke-width: 1.0;"/><polygon fill="#A80036" points="643.521,384.32,644.2081,374.4951,641.814,379.6204,636.6887,377.2263,643.521,384.32" style="stroke: #A80036; stroke-width: 1.0;"/><text fill="#000000" font-family="sans-serif" font-size="13" lengthAdjust="spacingAndGlyphs" textLength="105" x="624" y="340.0669">skos:closeMatch</text><path d="M298.498,168.108 C277.339,176.083 254.321,187.918 238,205 C227.068,216.442 220.395,232.836 216.419,246.718 " fill="none" style="stroke: #A80036; stroke-width: 1.0;"/><polygon fill="#A80036" points="215.073,251.705,221.28,244.0582,216.3759,246.8777,213.5564,241.9736,215.073,251.705" style="stroke: #A80036; stroke-width: 1.0;"/><text fill="#000000" font-family="sans-serif" font-size="13" lengthAdjust="spacingAndGlyphs" textLength="147" x="239" y="218.0669">crm:P4_has_time-span</text><path d="M370.204,175.231 C386.412,195.705 410.698,226.382 427.815,248.003 " fill="none" style="stroke: #A80036; stroke-width: 1.0;"/><polygon fill="#A80036" points="430.924,251.931,428.4724,242.3921,427.8199,248.0112,422.2008,247.3587,430.924,251.931" style="stroke: #A80036; stroke-width: 1.0;"/><text fill="#000000" font-family="sans-serif" font-size="13" lengthAdjust="spacingAndGlyphs" textLength="141" x="408" y="218.0669">crm:P7_took_place_at</text><path d="M353,53.231 C353,73.365 353,103.366 353,124.919 " fill="none" style="stroke: #A80036; stroke-width: 1.0;"/><polygon fill="#A80036" points="353,129.931,357,120.931,353,124.931,349,120.931,353,129.931" style="stroke: #A80036; stroke-width: 1.0;"/><text fill="#000000" font-family="sans-serif" font-size="13" lengthAdjust="spacingAndGlyphs" textLength="116" x="354" y="96.0669">crm:P100i_died_in</text><path d="M448,419.134 C448,440.213 448,471.783 448,490.7869 " fill="none" style="stroke: #A80036; stroke-width: 1.0;"/><polygon fill="#A80036" points="448,495.7946,452,486.7946,448,490.7946,444,486.7946,448,495.7946" style="stroke: #A80036; stroke-width: 1.0;"/><text fill="#000000" font-family="sans-serif" font-size="13" lengthAdjust="spacingAndGlyphs" textLength="92" x="449" y="462.0669">skos:prefLabel</text></g></svg>