<?xml version="1.0" encoding="UTF-8" standalone="no"?><svg xmlns="http://www.w3.org/2000/svg" xmlns:xlink="http://www.w3.org/1999/xlink" contentScriptType="application/ecmascript" contentStyleType="text/css" height="427px" preserveAspectRatio="none" style="width:505px;height:427px;" version="1.1" viewBox="0 0 505 427" width="505px" zoomAndPan="magnify"><defs><filter height="300%" id="fn7n8rl" width="300%" x="-1" y="-1"><feGaussianBlur result="blurOut" stdDeviation="2.0"/><feColorMatrix in="blurOut" result="blurOut2" type="matrix" values="0 0 0 0 0 0 0 0 0 0 0 0 0 0 0 0 0 0 .4 0"/><feOffset dx="4.0" dy="4.0" in="blurOut2" result="blurOut3"/><feBlend in="SourceGraphic" in2="blurOut3" mode="normal"/></filter></defs><g><!--class _nationality_type_class_--><rect fill="#FEFECE" filter="url(#fn7n8rl)" height="44.7734" style="stroke: #A80036; stroke-width: 1.5;" width="162" x="51.5" y="252"/><text fill="#000000" font-family="sans-serif" font-size="12" lengthAdjust="spacingAndGlyphs" textLength="156" x="54.5" y="268.1387">&lt;nationality_type_class&gt;</text><line style="stroke: #A80036; stroke-width: 1.5;" x1="52.5" x2="212.5" y1="275.9688" y2="275.9688"/><text fill="#000000" font-family="sans-serif" font-size="11" lengthAdjust="spacingAndGlyphs" textLength="91" x="57.5" y="290.1792">a crm:E55_Type</text><!--class aat_300379842--><rect fill="#FEFECE" filter="url(#fn7n8rl)" height="44.7734" style="stroke: #A80036; stroke-width: 1.5;" width="103" x="6" y="374"/><text fill="#000000" font-family="sans-serif" font-size="12" lengthAdjust="spacingAndGlyphs" textLength="97" x="9" y="390.1387">aat:300379842</text><line style="stroke: #A80036; stroke-width: 1.5;" x1="7" x2="108" y1="397.9688" y2="397.9688"/><text fill="#000000" font-family="sans-serif" font-size="11" lengthAdjust="spacingAndGlyphs" textLength="68" x="12" y="412.1792">"nationality"</text><!--class _nationality_type_--><rect fill="#FEFECE" filter="url(#fn7n8rl)" height="23.9688" style="stroke: #A80036; stroke-width: 1.5;" width="124" x="146.5" y="384.5"/><text fill="#000000" font-family="sans-serif" font-size="12" lengthAdjust="spacingAndGlyphs" textLength="118" x="149.5" y="400.6387">&lt;nationality_type&gt;</text><!--class _entity_uri_--><rect fill="#FEFECE" filter="url(#fn7n8rl)" height="44.7734" style="stroke: #A80036; stroke-width: 1.5;" width="105" x="166" y="8"/><text fill="#000000" font-family="sans-serif" font-size="12" lengthAdjust="spacingAndGlyphs" textLength="77" x="180" y="24.1387">&lt;entity_uri&gt;</text><line style="stroke: #A80036; stroke-width: 1.5;" x1="167" x2="270" y1="31.9688" y2="31.9688"/><text fill="#000000" font-family="sans-serif" font-size="11" lengthAdjust="spacingAndGlyphs" textLength="93" x="172" y="46.1792">a crm:E39_Actor</text><!--class _nationality_class_--><rect fill="#FEFECE" filter="url(#fn7n8rl)" height="44.7734" style="stroke: #A80036; stroke-width: 1.5;" width="129" x="154" y="130"/><text fill="#000000" font-family="sans-serif" font-size="12" lengthAdjust="spacingAndGlyphs" textLength="123" x="157" y="146.1387">&lt;nationality_class&gt;</text><line style="stroke: #A80036; stroke-width: 1.5;" x1="155" x2="282" y1="153.9688" y2="153.9688"/><text fill="#000000" font-family="sans-serif" font-size="11" lengthAdjust="spacingAndGlyphs" textLength="99" x="160" y="168.1792">a crm:E74_Group</text><!--class _nationality_--><rect fill="#FEFECE" filter="url(#fn7n8rl)" height="23.9688" style="stroke: #A80036; stroke-width: 1.5;" width="91" x="249" y="262.5"/><text fill="#000000" font-family="sans-serif" font-size="12" lengthAdjust="spacingAndGlyphs" textLength="85" x="252" y="278.6387">&lt;nationality&gt;</text><path d="M83.7412,297.211 C72.0845,304.866 61.1123,314.711 54.5,327 C47.7282,339.5858 47.9681,355.4332 50.1324,368.7146 " fill="none" style="stroke: #A80036; stroke-width: 1.0;"/><polygon fill="#A80036" points="51.0841,373.8543,53.3785,364.2764,50.1737,368.9379,45.5122,365.7331,51.0841,373.8543" style="stroke: #A80036; stroke-width: 1.0;"/><text fill="#000000" font-family="sans-serif" font-size="13" lengthAdjust="spacingAndGlyphs" textLength="109" x="55.5" y="340.0669">skos:broadMatch</text><path d="M148.864,297.201 C155.493,306.262 163.081,316.992 169.5,327 C180.784,344.5936 192.486,365.5767 200.09,379.6423 " fill="none" style="stroke: #A80036; stroke-width: 1.0;"/><polygon fill="#A80036" points="202.505,384.1323,201.7635,374.3114,200.1361,379.7291,194.7184,378.1016,202.505,384.1323" style="stroke: #A80036; stroke-width: 1.0;"/><text fill="#000000" font-family="sans-serif" font-size="13" lengthAdjust="spacingAndGlyphs" textLength="92" x="181.5" y="340.0669">skos:prefLabel</text><path d="M218.5,53.231 C218.5,73.365 218.5,103.366 218.5,124.919 " fill="none" style="stroke: #A80036; stroke-width: 1.0;"/><polygon fill="#A80036" points="218.5,129.931,222.5,120.931,218.5,124.931,214.5,120.931,218.5,129.931" style="stroke: #A80036; stroke-width: 1.0;"/><text fill="#000000" font-family="sans-serif" font-size="13" lengthAdjust="spacingAndGlyphs" textLength="285" x="219.5" y="96.0669">crm:P107i_is_current_or_former_member_of</text><path d="M234.864,175.201 C241.493,184.262 249.081,194.992 255.5,205 C266.784,222.594 278.486,243.577 286.09,257.642 " fill="none" style="stroke: #A80036; stroke-width: 1.0;"/><polygon fill="#A80036" points="288.505,262.132,287.7638,252.3111,286.1362,257.7287,280.7186,256.1011,288.505,262.132" style="stroke: #A80036; stroke-width: 1.0;"/><text fill="#000000" font-family="sans-serif" font-size="13" lengthAdjust="spacingAndGlyphs" textLength="92" x="267.5" y="218.0669">skos:prefLabel</text><path d="M166.622,175.086 C154.379,182.704 142.782,192.56 135.5,205 C128.227,217.425 127.156,233.399 128.051,246.795 " fill="none" style="stroke: #A80036; stroke-width: 1.0;"/><polygon fill="#A80036" points="128.501,251.98,131.7069,242.6675,128.0682,246.9988,123.7369,243.3601,128.501,251.98" style="stroke: #A80036; stroke-width: 1.0;"/><text fill="#000000" font-family="sans-serif" font-size="13" lengthAdjust="spacingAndGlyphs" textLength="110" x="136.5" y="218.0669">crm:P2_has_type</text></g></svg>