<?xml version="1.0" encoding="UTF-8" standalone="no"?><svg xmlns="http://www.w3.org/2000/svg" xmlns:xlink="http://www.w3.org/1999/xlink" contentScriptType="application/ecmascript" contentStyleType="text/css" height="406px" preserveAspectRatio="none" style="width:595px;height:406px;" version="1.1" viewBox="0 0 595 406" width="595px" zoomAndPan="magnify"><defs><filter height="300%" id="fku16zh" width="300%" x="-1" y="-1"><feGaussianBlur result="blurOut" stdDeviation="2.0"/><feColorMatrix in="blurOut" result="blurOut2" type="matrix" values="0 0 0 0 0 0 0 0 0 0 0 0 0 0 0 0 0 0 .4 0"/><feOffset dx="4.0" dy="4.0" in="blurOut2" result="blurOut3"/><feBlend in="SourceGraphic" in2="blurOut3" mode="normal"/></filter></defs><g><!--class _production_timespan_--><rect fill="#FEFECE" filter="url(#fku16zh)" height="44.7734" style="stroke: #A80036; stroke-width: 1.5;" width="158" x="132" y="252"/><text fill="#000000" font-family="sans-serif" font-size="12" lengthAdjust="spacingAndGlyphs" textLength="152" x="135" y="268.1387">&lt;production_timespan&gt;</text><line style="stroke: #A80036; stroke-width: 1.5;" x1="133" x2="289" y1="275.9688" y2="275.9688"/><text fill="#000000" font-family="sans-serif" font-size="11" lengthAdjust="spacingAndGlyphs" textLength="125" x="138" y="290.1792">a crm:E52_Time-Span</text><!--class _display_date_--><rect fill="#FEFECE" filter="url(#fku16zh)" height="23.9688" style="stroke: #A80036; stroke-width: 1.5;" width="104" x="6" y="374"/><text fill="#000000" font-family="sans-serif" font-size="12" lengthAdjust="spacingAndGlyphs" textLength="98" x="9" y="390.1387">&lt;display_date&gt;</text><!--class _latest_date_--><rect fill="#FEFECE" filter="url(#fku16zh)" height="23.9688" style="stroke: #A80036; stroke-width: 1.5;" width="97" x="162.5" y="374"/><text fill="#000000" font-family="sans-serif" font-size="12" lengthAdjust="spacingAndGlyphs" textLength="91" x="165.5" y="390.1387">&lt;latest_date&gt;</text><!--class _earliest_date_--><rect fill="#FEFECE" filter="url(#fku16zh)" height="23.9688" style="stroke: #A80036; stroke-width: 1.5;" width="108" x="369" y="374"/><text fill="#000000" font-family="sans-serif" font-size="12" lengthAdjust="spacingAndGlyphs" textLength="102" x="372" y="390.1387">&lt;earliest_date&gt;</text><!--class _entity_uri_--><rect fill="#FEFECE" filter="url(#fku16zh)" height="44.7734" style="stroke: #A80036; stroke-width: 1.5;" width="175" x="123.5" y="8"/><text fill="#000000" font-family="sans-serif" font-size="12" lengthAdjust="spacingAndGlyphs" textLength="77" x="172.5" y="24.1387">&lt;entity_uri&gt;</text><line style="stroke: #A80036; stroke-width: 1.5;" x1="124.5" x2="297.5" y1="31.9688" y2="31.9688"/><text fill="#000000" font-family="sans-serif" font-size="11" lengthAdjust="spacingAndGlyphs" textLength="163" x="129.5" y="46.1792">a crm:E22_Man-Made_Object</text><!--class _production_event_--><rect fill="#FEFECE" filter="url(#fku16zh)" height="44.7734" style="stroke: #A80036; stroke-width: 1.5;" width="136" x="143" y="130"/><text fill="#000000" font-family="sans-serif" font-size="12" lengthAdjust="spacingAndGlyphs" textLength="129" x="146.5" y="146.1387">&lt;production_event&gt;</text><line style="stroke: #A80036; stroke-width: 1.5;" x1="144" x2="278" y1="153.9688" y2="153.9688"/><text fill="#000000" font-family="sans-serif" font-size="11" lengthAdjust="spacingAndGlyphs" textLength="124" x="149" y="168.1792">a crm:E12_Production</text><path d="M135.101,297.023 C117.864,304.4849 100.6399,314.283 87,327 C74.7875,338.3862 66.9919,356.0465 62.5944,368.8895 " fill="none" style="stroke: #A80036; stroke-width: 1.0;"/><polygon fill="#A80036" points="61.0205,373.7233,67.6106,366.4041,62.5686,368.969,60.0037,363.9271,61.0205,373.7233" style="stroke: #A80036; stroke-width: 1.0;"/><text fill="#000000" font-family="sans-serif" font-size="13" lengthAdjust="spacingAndGlyphs" textLength="111" x="88" y="340.0669">crm:p3_has_note</text><path d="M209.166,297.093 C208.242,310.5762 207.426,328.2975 208,344 C208.295,352.0707 208.915,361.0171 209.516,368.4883 " fill="none" style="stroke: #A80036; stroke-width: 1.0;"/><polygon fill="#A80036" points="209.965,373.8751,213.2024,364.5735,209.549,368.8924,205.2301,365.2391,209.965,373.8751" style="stroke: #A80036; stroke-width: 1.0;"/><text fill="#000000" font-family="sans-serif" font-size="13" lengthAdjust="spacingAndGlyphs" textLength="170" x="209" y="340.0669">crm:p82b_end_of_the_end</text><path d="M290.27,287.132 C321.684,294.651 356.734,306.9494 384,327 C398.801,337.8842 409.736,356.1817 416.201,369.3165 " fill="none" style="stroke: #A80036; stroke-width: 1.0;"/><polygon fill="#A80036" points="418.38,373.8987,418.1282,364.0531,416.2332,369.383,410.9032,367.488,418.38,373.8987" style="stroke: #A80036; stroke-width: 1.0;"/><text fill="#000000" font-family="sans-serif" font-size="13" lengthAdjust="spacingAndGlyphs" textLength="192" x="402" y="340.0669">crm:p82a_begin_of_the_begin</text><path d="M211,53.231 C211,73.365 211,103.366 211,124.919 " fill="none" style="stroke: #A80036; stroke-width: 1.0;"/><polygon fill="#A80036" points="211,129.931,215,120.931,211,124.931,207,120.931,211,129.931" style="stroke: #A80036; stroke-width: 1.0;"/><text fill="#000000" font-family="sans-serif" font-size="13" lengthAdjust="spacingAndGlyphs" textLength="184" x="212" y="96.0669">crm:P108i_was_produced_by</text><path d="M211,175.231 C211,195.365 211,225.366 211,246.919 " fill="none" style="stroke: #A80036; stroke-width: 1.0;"/><polygon fill="#A80036" points="211,251.931,215,242.931,211,246.931,207,242.931,211,251.931" style="stroke: #A80036; stroke-width: 1.0;"/><text fill="#000000" font-family="sans-serif" font-size="13" lengthAdjust="spacingAndGlyphs" textLength="142" x="212" y="218.0669">crm:P4_has_timespan</text></g></svg>