<?xml version="1.0" encoding="UTF-8" standalone="no"?><svg xmlns="http://www.w3.org/2000/svg" xmlns:xlink="http://www.w3.org/1999/xlink" contentScriptType="application/ecmascript" contentStyleType="text/css" height="522px" preserveAspectRatio="none" style="width:610px;height:522px;" version="1.1" viewBox="0 0 610 522" width="610px" zoomAndPan="magnify"><defs><filter height="300%" id="f58gevj" width="300%" x="-1" y="-1"><feGaussianBlur result="blurOut" stdDeviation="2.0"/><feColorMatrix in="blurOut" result="blurOut2" type="matrix" values="0 0 0 0 0 0 0 0 0 0 0 0 0 0 0 0 0 0 .4 0"/><feOffset dx="4.0" dy="4.0" in="blurOut2" result="blurOut3"/><feBlend in="SourceGraphic" in2="blurOut3" mode="normal"/></filter></defs><g><!--class _part_class_--><rect fill="#FEFECE" filter="url(#f58gevj)" height="44.7734" style="stroke: #A80036; stroke-width: 1.5;" width="159" x="342" y="130"/><text fill="#000000" font-family="sans-serif" font-size="12" lengthAdjust="spacingAndGlyphs" textLength="84" x="379.5" y="146.1387">&lt;part_class&gt;</text><line style="stroke: #A80036; stroke-width: 1.5;" x1="343" x2="500" y1="153.9688" y2="153.9688"/><text fill="#000000" font-family="sans-serif" font-size="11" lengthAdjust="spacingAndGlyphs" textLength="147" x="348" y="168.1792">a crm:E18_Physical_Thing</text><!--class _dimension_class_--><rect fill="#FEFECE" filter="url(#f58gevj)" height="44.7734" style="stroke: #A80036; stroke-width: 1.5;" width="136" x="155.5" y="252"/><text fill="#000000" font-family="sans-serif" font-size="12" lengthAdjust="spacingAndGlyphs" textLength="122" x="162.5" y="268.1387">&lt;dimension_class&gt;</text><line style="stroke: #A80036; stroke-width: 1.5;" x1="156.5" x2="290.5" y1="275.9688" y2="275.9688"/><text fill="#000000" font-family="sans-serif" font-size="11" lengthAdjust="spacingAndGlyphs" textLength="124" x="161.5" y="290.1792">a crm:E54_Dimension</text><!--class _part_--><rect fill="#FEFECE" filter="url(#f58gevj)" height="23.9688" style="stroke: #A80036; stroke-width: 1.5;" width="52" x="395.5" y="262.5"/><text fill="#000000" font-family="sans-serif" font-size="12" lengthAdjust="spacingAndGlyphs" textLength="46" x="398.5" y="278.6387">&lt;part&gt;</text><!--class _part_type_--><rect fill="#FEFECE" filter="url(#f58gevj)" height="23.9688" style="stroke: #A80036; stroke-width: 1.5;" width="85" x="483" y="262.5"/><text fill="#000000" font-family="sans-serif" font-size="12" lengthAdjust="spacingAndGlyphs" textLength="79" x="486" y="278.6387">&lt;part_type&gt;</text><!--class _dimension_type_--><rect fill="#FEFECE" filter="url(#f58gevj)" height="23.9688" style="stroke: #A80036; stroke-width: 1.5;" width="123" x="10" y="389"/><text fill="#000000" font-family="sans-serif" font-size="12" lengthAdjust="spacingAndGlyphs" textLength="117" x="13" y="405.1387">&lt;dimension_type&gt;</text><!--class _dimension_name_--><rect fill="#FEFECE" filter="url(#f58gevj)" height="23.9688" style="stroke: #A80036; stroke-width: 1.5;" width="131" x="6" y="490"/><text fill="#000000" font-family="sans-serif" font-size="12" lengthAdjust="spacingAndGlyphs" textLength="125" x="9" y="506.1387">&lt;dimension_name&gt;</text><!--class _value_--><rect fill="#FEFECE" filter="url(#f58gevj)" height="23.9688" style="stroke: #A80036; stroke-width: 1.5;" width="59" x="194" y="389"/><text fill="#000000" font-family="sans-serif" font-size="12" lengthAdjust="spacingAndGlyphs" textLength="53" x="197" y="405.1387">&lt;value&gt;</text><!--class _unit_--><rect fill="#FEFECE" filter="url(#f58gevj)" height="23.9688" style="stroke: #A80036; stroke-width: 1.5;" width="50" x="364.5" y="389"/><text fill="#000000" font-family="sans-serif" font-size="12" lengthAdjust="spacingAndGlyphs" textLength="44" x="367.5" y="405.1387">&lt;unit&gt;</text><!--class _entity_uri_--><rect fill="#FEFECE" filter="url(#f58gevj)" height="44.7734" style="stroke: #A80036; stroke-width: 1.5;" width="175" x="334" y="8"/><text fill="#000000" font-family="sans-serif" font-size="12" lengthAdjust="spacingAndGlyphs" textLength="77" x="383" y="24.1387">&lt;entity_uri&gt;</text><line style="stroke: #A80036; stroke-width: 1.5;" x1="335" x2="508" y1="31.9688" y2="31.9688"/><text fill="#000000" font-family="sans-serif" font-size="11" lengthAdjust="spacingAndGlyphs" textLength="163" x="340" y="46.1792">a crm:E22_Man-Made_Object</text><path d="M341.714,164.272 C311.899,171.649 279.49,184.074 255.5,205 C243.078,215.835 235.143,232.523 230.282,246.715 " fill="none" style="stroke: #A80036; stroke-width: 1.0;"/><polygon fill="#A80036" points="228.627,251.815,235.2091,244.4886,230.1699,247.059,227.5995,242.0199,228.627,251.815" style="stroke: #A80036; stroke-width: 1.0;"/><text fill="#000000" font-family="sans-serif" font-size="13" lengthAdjust="spacingAndGlyphs" textLength="156" x="256.5" y="218.0669">crm:P43_has_dimension</text><path d="M421.5,175.231 C421.5,198.891 421.5,236.178 421.5,257.368 " fill="none" style="stroke: #A80036; stroke-width: 1.0;"/><polygon fill="#A80036" points="421.5,262.391,425.5,253.391,421.5,257.391,417.5,253.391,421.5,262.391" style="stroke: #A80036; stroke-width: 1.0;"/><text fill="#000000" font-family="sans-serif" font-size="13" lengthAdjust="spacingAndGlyphs" textLength="58" x="422.5" y="218.0669">rdfs:label</text><path d="M453.716,175.14 C464.916,183.62 477.031,193.964 486.5,205 C500.431,221.235 511.891,243.186 518.703,257.818 " fill="none" style="stroke: #A80036; stroke-width: 1.0;"/><polygon fill="#A80036" points="520.832,262.48,520.732,252.6316,518.755,257.9318,513.4549,255.9548,520.832,262.48" style="stroke: #A80036; stroke-width: 1.0;"/><text fill="#000000" font-family="sans-serif" font-size="13" lengthAdjust="spacingAndGlyphs" textLength="110" x="499.5" y="218.0669">crm:P2_has_type</text><path d="M71.5,413.357 C71.5,430.8868 71.5,464.6117 71.5,484.7298 " fill="none" style="stroke: #A80036; stroke-width: 1.0;"/><polygon fill="#A80036" points="71.5,489.7759,75.5,480.7759,71.5,484.7759,67.5,480.7759,71.5,489.7759" style="stroke: #A80036; stroke-width: 1.0;"/><text fill="#000000" font-family="sans-serif" font-size="13" lengthAdjust="spacingAndGlyphs" textLength="92" x="72.5" y="456.0669">skos:prefLabel</text><path d="M221.864,297.126 C220.796,313.984 219.732,337.98 220.5,359 C220.795,367.071 221.415,376.017 222.016,383.488 " fill="none" style="stroke: #A80036; stroke-width: 1.0;"/><polygon fill="#A80036" points="222.465,388.875,225.7029,379.5736,222.0493,383.8923,217.7306,380.2387,222.465,388.875" style="stroke: #A80036; stroke-width: 1.0;"/><text fill="#000000" font-family="sans-serif" font-size="13" lengthAdjust="spacingAndGlyphs" textLength="124" x="221.5" y="340.0669">crm:P90_has_value</text><text fill="#000000" font-family="sans-serif" font-size="13" lengthAdjust="spacingAndGlyphs" textLength="55" x="256" y="355.1997">rdf:value</text><path d="M155.429,292.989 C135.722,300.758 115.502,311.719 100.5,327 C85.1355,342.65 77.6305,367.446 74.1737,383.721 " fill="none" style="stroke: #A80036; stroke-width: 1.0;"/><polygon fill="#A80036" points="73.1511,388.888,78.8234,380.8366,74.1225,383.9833,70.9758,379.2824,73.1511,388.888" style="stroke: #A80036; stroke-width: 1.0;"/><text fill="#000000" font-family="sans-serif" font-size="13" lengthAdjust="spacingAndGlyphs" textLength="110" x="101.5" y="347.5669">crm:P2_has_type</text><path d="M291.732,293.297 C312.335,301.124 333.874,312.041 350.5,327 C367.827,342.591 378.855,367.735 384.609,384.065 " fill="none" style="stroke: #A80036; stroke-width: 1.0;"/><polygon fill="#A80036" points="386.227,388.829,387.1216,379.0209,384.6197,384.0944,379.5462,381.5925,386.227,388.829" style="stroke: #A80036; stroke-width: 1.0;"/><text fill="#000000" font-family="sans-serif" font-size="13" lengthAdjust="spacingAndGlyphs" textLength="114" x="374.5" y="347.5669">crm:P90_has_unit</text><path d="M421.5,53.231 C421.5,73.365 421.5,103.366 421.5,124.919 " fill="none" style="stroke: #A80036; stroke-width: 1.0;"/><polygon fill="#A80036" points="421.5,129.931,425.5,120.931,421.5,124.931,417.5,120.931,421.5,129.931" style="stroke: #A80036; stroke-width: 1.0;"/><text fill="#000000" font-family="sans-serif" font-size="13" lengthAdjust="spacingAndGlyphs" textLength="163" x="422.5" y="96.0669">crm:p46_is_composed_of</text></g></svg>