<?xml version="1.0" encoding="UTF-8" standalone="no"?><svg xmlns="http://www.w3.org/2000/svg" xmlns:xlink="http://www.w3.org/1999/xlink" contentScriptType="application/ecmascript" contentStyleType="text/css" height="284px" preserveAspectRatio="none" style="width:477px;height:284px;" version="1.1" viewBox="0 0 477 284" width="477px" zoomAndPan="magnify"><defs><filter height="300%" id="fshiq3m" width="300%" x="-1" y="-1"><feGaussianBlur result="blurOut" stdDeviation="2.0"/><feColorMatrix in="blurOut" result="blurOut2" type="matrix" values="0 0 0 0 0 0 0 0 0 0 0 0 0 0 0 0 0 0 .4 0"/><feOffset dx="4.0" dy="4.0" in="blurOut2" result="blurOut3"/><feBlend in="SourceGraphic" in2="blurOut3" mode="normal"/></filter></defs><g><!--class _entity_uri_--><rect fill="#FEFECE" filter="url(#fshiq3m)" height="44.7734" style="stroke: #A80036; stroke-width: 1.5;" width="175" x="159.5" y="8"/><text fill="#000000" font-family="sans-serif" font-size="12" lengthAdjust="spacingAndGlyphs" textLength="77" x="208.5" y="24.1387">&lt;entity_uri&gt;</text><line style="stroke: #A80036; stroke-width: 1.5;" x1="160.5" x2="333.5" y1="31.9688" y2="31.9688"/><text fill="#000000" font-family="sans-serif" font-size="11" lengthAdjust="spacingAndGlyphs" textLength="163" x="165.5" y="46.1792">a crm:E22_Man-Made_Object</text><!--class _location_class_--><rect fill="#FEFECE" filter="url(#fshiq3m)" height="44.7734" style="stroke: #A80036; stroke-width: 1.5;" width="114" x="190" y="130"/><text fill="#000000" font-family="sans-serif" font-size="12" lengthAdjust="spacingAndGlyphs" textLength="108" x="193" y="146.1387">&lt;location_class&gt;</text><line style="stroke: #A80036; stroke-width: 1.5;" x1="191" x2="303" y1="153.9688" y2="153.9688"/><text fill="#000000" font-family="sans-serif" font-size="11" lengthAdjust="spacingAndGlyphs" textLength="94" x="196" y="168.1792">a crm:E53_Place</text><!--class _lod_location_term_--><rect fill="#FEFECE" filter="url(#fshiq3m)" height="23.9688" style="stroke: #A80036; stroke-width: 1.5;" width="136" x="6" y="252"/><text fill="#000000" font-family="sans-serif" font-size="12" lengthAdjust="spacingAndGlyphs" textLength="130" x="9" y="268.1387">&lt;lod_location_term&gt;</text><!--class _location_webpage_--><rect fill="#FEFECE" filter="url(#fshiq3m)" height="23.9688" style="stroke: #A80036; stroke-width: 1.5;" width="139" x="177.5" y="252"/><text fill="#000000" font-family="sans-serif" font-size="12" lengthAdjust="spacingAndGlyphs" textLength="133" x="180.5" y="268.1387">&lt;location_webpage&gt;</text><!--class _location_name_--><rect fill="#FEFECE" filter="url(#fshiq3m)" height="23.9688" style="stroke: #A80036; stroke-width: 1.5;" width="117" x="351.5" y="252"/><text fill="#000000" font-family="sans-serif" font-size="12" lengthAdjust="spacingAndGlyphs" textLength="111" x="354.5" y="268.1387">&lt;location_name&gt;</text><path d="M247,53.231 C247,73.365 247,103.366 247,124.919 " fill="none" style="stroke: #A80036; stroke-width: 1.0;"/><polygon fill="#A80036" points="247,129.931,251,120.931,247,124.931,243,120.931,247,129.931" style="stroke: #A80036; stroke-width: 1.0;"/><text fill="#000000" font-family="sans-serif" font-size="13" lengthAdjust="spacingAndGlyphs" textLength="193" x="248" y="96.0669">crm:P55_has_current_location</text><path d="M189.984,172.61 C169.459,180.8906 146.758,191.7564 128,205 C111.036,216.9772 95.3041,234.9933 85.2485,247.7636 " fill="none" style="stroke: #A80036; stroke-width: 1.0;"/><polygon fill="#A80036" points="82.0623,251.877,90.7359,247.2113,85.1242,247.9241,84.4114,242.3124,82.0623,251.877" style="stroke: #A80036; stroke-width: 1.0;"/><text fill="#000000" font-family="sans-serif" font-size="13" lengthAdjust="spacingAndGlyphs" textLength="109" x="129" y="218.0669">skos:broadMatch</text><path d="M247,175.134 C247,196.213 247,227.783 247,246.7869 " fill="none" style="stroke: #A80036; stroke-width: 1.0;"/><polygon fill="#A80036" points="247,251.7946,251,242.7946,247,246.7946,243,242.7946,247,251.7946" style="stroke: #A80036; stroke-width: 1.0;"/><text fill="#000000" font-family="sans-serif" font-size="13" lengthAdjust="spacingAndGlyphs" textLength="60" x="248" y="218.0669">foaf:page</text><path d="M279.204,175.134 C311.789,197.0238 361.215,230.227 389.045,248.9226 " fill="none" style="stroke: #A80036; stroke-width: 1.0;"/><polygon fill="#A80036" points="393.32,251.7946,388.0803,243.4552,389.1698,249.0062,383.6188,250.0956,393.32,251.7946" style="stroke: #A80036; stroke-width: 1.0;"/><text fill="#000000" font-family="sans-serif" font-size="13" lengthAdjust="spacingAndGlyphs" textLength="58" x="349" y="218.0669">rdfs:label</text></g></svg>