<?xml version="1.0" encoding="UTF-8" standalone="no"?><svg xmlns="http://www.w3.org/2000/svg" xmlns:xlink="http://www.w3.org/1999/xlink" contentScriptType="application/ecmascript" contentStyleType="text/css" height="406px" preserveAspectRatio="none" style="width:587px;height:406px;" version="1.1" viewBox="0 0 587 406" width="587px" zoomAndPan="magnify"><defs><filter height="300%" id="f5mgmp3" width="300%" x="-1" y="-1"><feGaussianBlur result="blurOut" stdDeviation="2.0"/><feColorMatrix in="blurOut" result="blurOut2" type="matrix" values="0 0 0 0 0 0 0 0 0 0 0 0 0 0 0 0 0 0 .4 0"/><feOffset dx="4.0" dy="4.0" in="blurOut2" result="blurOut3"/><feBlend in="SourceGraphic" in2="blurOut3" mode="normal"/></filter></defs><g><!--class _rights_statement_class_--><rect fill="#FEFECE" filter="url(#f5mgmp3)" height="44.7734" style="stroke: #A80036; stroke-width: 1.5;" width="171" x="48" y="252"/><text fill="#000000" font-family="sans-serif" font-size="12" lengthAdjust="spacingAndGlyphs" textLength="165" x="51" y="268.1387">&lt;rights_statement_class&gt;</text><line style="stroke: #A80036; stroke-width: 1.5;" x1="49" x2="218" y1="275.9688" y2="275.9688"/><text fill="#000000" font-family="sans-serif" font-size="11" lengthAdjust="spacingAndGlyphs" textLength="159" x="54" y="290.1792">a crm:E33_Linguistic_Object</text><!--class aat_300055547--><rect fill="#FEFECE" filter="url(#f5mgmp3)" height="23.9688" style="stroke: #A80036; stroke-width: 1.5;" width="103" x="6" y="374"/><text fill="#000000" font-family="sans-serif" font-size="12" lengthAdjust="spacingAndGlyphs" textLength="97" x="9" y="390.1387">aat:300055547</text><!--class _rights_statement_--><rect fill="#FEFECE" filter="url(#f5mgmp3)" height="23.9688" style="stroke: #A80036; stroke-width: 1.5;" width="133" x="144" y="374"/><text fill="#000000" font-family="sans-serif" font-size="12" lengthAdjust="spacingAndGlyphs" textLength="127" x="147" y="390.1387">&lt;rights_statement&gt;</text><!--class _image_--><rect fill="#FEFECE" filter="url(#f5mgmp3)" height="44.7734" style="stroke: #A80036; stroke-width: 1.5;" width="111" x="293" y="130"/><text fill="#000000" font-family="sans-serif" font-size="12" lengthAdjust="spacingAndGlyphs" textLength="58" x="319.5" y="146.1387">&lt;image&gt;</text><line style="stroke: #A80036; stroke-width: 1.5;" x1="294" x2="403" y1="153.9688" y2="153.9688"/><text fill="#000000" font-family="sans-serif" font-size="11" lengthAdjust="spacingAndGlyphs" textLength="99" x="299" y="168.1792">a crm:E38_Image</text><!--class _description_--><rect fill="#FEFECE" filter="url(#f5mgmp3)" height="23.9688" style="stroke: #A80036; stroke-width: 1.5;" width="96" x="300.5" y="262.5"/><text fill="#000000" font-family="sans-serif" font-size="12" lengthAdjust="spacingAndGlyphs" textLength="90" x="303.5" y="278.6387">&lt;description&gt;</text><!--class _right_--><rect fill="#FEFECE" filter="url(#f5mgmp3)" height="44.7734" style="stroke: #A80036; stroke-width: 1.5;" width="104" x="431.5" y="252"/><text fill="#000000" font-family="sans-serif" font-size="12" lengthAdjust="spacingAndGlyphs" textLength="49" x="459" y="268.1387">&lt;right&gt;</text><line style="stroke: #A80036; stroke-width: 1.5;" x1="432.5" x2="534.5" y1="275.9688" y2="275.9688"/><text fill="#000000" font-family="sans-serif" font-size="11" lengthAdjust="spacingAndGlyphs" textLength="92" x="437.5" y="290.1792">a crm:E30_Right</text><!--class _entity_uri_--><rect fill="#FEFECE" filter="url(#f5mgmp3)" height="44.7734" style="stroke: #A80036; stroke-width: 1.5;" width="175" x="261" y="8"/><text fill="#000000" font-family="sans-serif" font-size="12" lengthAdjust="spacingAndGlyphs" textLength="77" x="310" y="24.1387">&lt;entity_uri&gt;</text><line style="stroke: #A80036; stroke-width: 1.5;" x1="262" x2="435" y1="31.9688" y2="31.9688"/><text fill="#000000" font-family="sans-serif" font-size="11" lengthAdjust="spacingAndGlyphs" textLength="163" x="267" y="46.1792">a crm:E22_Man-Made_Object</text><path d="M84.7412,297.211 C73.0845,304.8663 62.1123,314.7107 55.5,327 C48.5659,339.8875 50.1442,356.8223 52.8076,369.0628 " fill="none" style="stroke: #A80036; stroke-width: 1.0;"/><polygon fill="#A80036" points="53.9938,373.9959,55.7787,364.3101,52.8248,369.1345,48.0005,366.1805,53.9938,373.9959" style="stroke: #A80036; stroke-width: 1.0;"/><text fill="#000000" font-family="sans-serif" font-size="13" lengthAdjust="spacingAndGlyphs" textLength="110" x="56.5" y="340.0669">crm:P2_has_type</text><path d="M149.799,297.148 C156.599,306.2935 164.524,317.0995 171.5,327 C181.496,341.1858 192.495,357.6232 200.257,369.3691 " fill="none" style="stroke: #A80036; stroke-width: 1.0;"/><polygon fill="#A80036" points="203.167,373.7825,201.5521,364.0669,200.4146,369.6083,194.8733,368.4708,203.167,373.7825" style="stroke: #A80036; stroke-width: 1.0;"/><text fill="#000000" font-family="sans-serif" font-size="13" lengthAdjust="spacingAndGlyphs" textLength="55" x="183.5" y="340.0669">rdf:value</text><path d="M292.785,157.049 C253.252,162.224 201.098,174.769 165.5,205 C152.936,215.67 144.998,232.355 140.171,246.586 " fill="none" style="stroke: #A80036; stroke-width: 1.0;"/><polygon fill="#A80036" points="138.531,251.703,145.0886,244.3546,140.058,246.9419,137.4708,241.9114,138.531,251.703" style="stroke: #A80036; stroke-width: 1.0;"/><text fill="#000000" font-family="sans-serif" font-size="13" lengthAdjust="spacingAndGlyphs" textLength="173" x="166.5" y="218.0669">crm:P67i_is_referred_to_by</text><path d="M348.5,175.231 C348.5,198.891 348.5,236.178 348.5,257.368 " fill="none" style="stroke: #A80036; stroke-width: 1.0;"/><polygon fill="#A80036" points="348.5,262.391,352.5,253.391,348.5,257.391,344.5,253.391,348.5,262.391" style="stroke: #A80036; stroke-width: 1.0;"/><text fill="#000000" font-family="sans-serif" font-size="13" lengthAdjust="spacingAndGlyphs" textLength="58" x="349.5" y="218.0669">rdfs:label</text><path d="M379.049,175.134 C391.04,184.008 404.722,194.622 416.5,205 C431.787,218.471 447.783,234.732 460.311,248.03 " fill="none" style="stroke: #A80036; stroke-width: 1.0;"/><polygon fill="#A80036" points="463.749,251.698,460.5124,242.3961,460.3296,248.05,454.6757,247.8672,463.749,251.698" style="stroke: #A80036; stroke-width: 1.0;"/><text fill="#000000" font-family="sans-serif" font-size="13" lengthAdjust="spacingAndGlyphs" textLength="151" x="435.5" y="218.0669">crm:P104_is_subject_to</text><path d="M348.5,53.231 C348.5,73.365 348.5,103.366 348.5,124.919 " fill="none" style="stroke: #A80036; stroke-width: 1.0;"/><polygon fill="#A80036" points="348.5,129.931,352.5,120.931,348.5,124.931,344.5,120.931,348.5,129.931" style="stroke: #A80036; stroke-width: 1.0;"/><text fill="#000000" font-family="sans-serif" font-size="13" lengthAdjust="spacingAndGlyphs" textLength="195" x="349.5" y="96.0669">crm:P138i_has_representation</text></g></svg>