<?xml version="1.0" encoding="UTF-8" standalone="no"?><svg xmlns="http://www.w3.org/2000/svg" xmlns:xlink="http://www.w3.org/1999/xlink" contentScriptType="application/ecmascript" contentStyleType="text/css" height="406px" preserveAspectRatio="none" style="width:257px;height:406px;" version="1.1" viewBox="0 0 257 406" width="257px" zoomAndPan="magnify"><defs><filter height="300%" id="fhuyt35" width="300%" x="-1" y="-1"><feGaussianBlur result="blurOut" stdDeviation="2.0"/><feColorMatrix in="blurOut" result="blurOut2" type="matrix" values="0 0 0 0 0 0 0 0 0 0 0 0 0 0 0 0 0 0 .4 0"/><feOffset dx="4.0" dy="4.0" in="blurOut2" result="blurOut3"/><feBlend in="SourceGraphic" in2="blurOut3" mode="normal"/></filter></defs><g><!--class _title_class_--><rect fill="#FEFECE" filter="url(#fhuyt35)" height="44.7734" style="stroke: #A80036; stroke-width: 1.5;" width="103" x="6" y="252"/><text fill="#000000" font-family="sans-serif" font-size="12" lengthAdjust="spacingAndGlyphs" textLength="82" x="16.5" y="268.1387">&lt;title_class&gt;</text><line style="stroke: #A80036; stroke-width: 1.5;" x1="7" x2="108" y1="275.9688" y2="275.9688"/><text fill="#000000" font-family="sans-serif" font-size="11" lengthAdjust="spacingAndGlyphs" textLength="91" x="12" y="290.1792">a crm:E55_Type</text><!--class _field_label_--><rect fill="#FEFECE" filter="url(#fhuyt35)" height="23.9688" style="stroke: #A80036; stroke-width: 1.5;" width="88" x="13.5" y="374"/><text fill="#000000" font-family="sans-serif" font-size="12" lengthAdjust="spacingAndGlyphs" textLength="82" x="16.5" y="390.1387">&lt;field_label&gt;</text><!--class _entity_uri_--><rect fill="#FEFECE" filter="url(#fhuyt35)" height="44.7734" style="stroke: #A80036; stroke-width: 1.5;" width="175" x="46" y="8"/><text fill="#000000" font-family="sans-serif" font-size="12" lengthAdjust="spacingAndGlyphs" textLength="77" x="95" y="24.1387">&lt;entity_uri&gt;</text><line style="stroke: #A80036; stroke-width: 1.5;" x1="47" x2="220" y1="31.9688" y2="31.9688"/><text fill="#000000" font-family="sans-serif" font-size="11" lengthAdjust="spacingAndGlyphs" textLength="163" x="52" y="46.1792">a crm:E22_Man-Made_Object</text><!--class _alternate_title_uri_--><rect fill="#FEFECE" filter="url(#fhuyt35)" height="44.7734" style="stroke: #A80036; stroke-width: 1.5;" width="136" x="65.5" y="130"/><text fill="#000000" font-family="sans-serif" font-size="12" lengthAdjust="spacingAndGlyphs" textLength="130" x="68.5" y="146.1387">&lt;alternate_title_uri&gt;</text><line style="stroke: #A80036; stroke-width: 1.5;" x1="66.5" x2="200.5" y1="153.9688" y2="153.9688"/><text fill="#000000" font-family="sans-serif" font-size="11" lengthAdjust="spacingAndGlyphs" textLength="88" x="71.5" y="168.1792">a crm:E35_Title</text><!--class _title_--><rect fill="#FEFECE" filter="url(#fhuyt35)" height="23.9688" style="stroke: #A80036; stroke-width: 1.5;" width="50" x="184.5" y="262.5"/><text fill="#000000" font-family="sans-serif" font-size="12" lengthAdjust="spacingAndGlyphs" textLength="44" x="187.5" y="278.6387">&lt;title&gt;</text><path d="M57.5,297.134 C57.5,318.213 57.5,349.783 57.5,368.7869 " fill="none" style="stroke: #A80036; stroke-width: 1.0;"/><polygon fill="#A80036" points="57.5,373.7946,61.5,364.7946,57.5,368.7946,53.5,364.7946,57.5,373.7946" style="stroke: #A80036; stroke-width: 1.0;"/><text fill="#000000" font-family="sans-serif" font-size="13" lengthAdjust="spacingAndGlyphs" textLength="92" x="58.5" y="340.0669">skos:prefLabel</text><path d="M133.5,53.231 C133.5,73.365 133.5,103.366 133.5,124.919 " fill="none" style="stroke: #A80036; stroke-width: 1.0;"/><polygon fill="#A80036" points="133.5,129.931,137.5,120.931,133.5,124.931,129.5,120.931,133.5,129.931" style="stroke: #A80036; stroke-width: 1.0;"/><text fill="#000000" font-family="sans-serif" font-size="13" lengthAdjust="spacingAndGlyphs" textLength="122" x="134.5" y="96.0669">crm:P102_has_title</text><path d="M84.1301,175.091 C72.324,182.746 61.2076,192.62 54.5,205 C47.6915,217.566 47.9291,233.412 50.1013,246.698 " fill="none" style="stroke: #A80036; stroke-width: 1.0;"/><polygon fill="#A80036" points="51.0566,251.84,53.3462,242.261,50.1437,246.924,45.4807,243.7216,51.0566,251.84" style="stroke: #A80036; stroke-width: 1.0;"/><text fill="#000000" font-family="sans-serif" font-size="13" lengthAdjust="spacingAndGlyphs" textLength="110" x="55.5" y="218.0669">crm:P2_has_type</text><path d="M149.864,175.201 C156.493,184.262 164.081,194.992 170.5,205 C181.784,222.594 193.486,243.577 201.09,257.642 " fill="none" style="stroke: #A80036; stroke-width: 1.0;"/><polygon fill="#A80036" points="203.505,262.132,202.7638,252.3111,201.1362,257.7287,195.7186,256.1011,203.505,262.132" style="stroke: #A80036; stroke-width: 1.0;"/><text fill="#000000" font-family="sans-serif" font-size="13" lengthAdjust="spacingAndGlyphs" textLength="58" x="182.5" y="218.0669">rdfs:label</text></g></svg>