<?xml version="1.0" encoding="UTF-8" standalone="no"?><svg xmlns="http://www.w3.org/2000/svg" xmlns:xlink="http://www.w3.org/1999/xlink" contentScriptType="application/ecmascript" contentStyleType="text/css" height="305px" preserveAspectRatio="none" style="width:335px;height:305px;" version="1.1" viewBox="0 0 335 305" width="335px" zoomAndPan="magnify"><defs><filter height="300%" id="frh6827" width="300%" x="-1" y="-1"><feGaussianBlur result="blurOut" stdDeviation="2.0"/><feColorMatrix in="blurOut" result="blurOut2" type="matrix" values="0 0 0 0 0 0 0 0 0 0 0 0 0 0 0 0 0 0 .4 0"/><feOffset dx="4.0" dy="4.0" in="blurOut2" result="blurOut3"/><feBlend in="SourceGraphic" in2="blurOut3" mode="normal"/></filter></defs><g><!--class _entity_uri_--><rect fill="#FEFECE" filter="url(#frh6827)" height="44.7734" style="stroke: #A80036; stroke-width: 1.5;" width="175" x="73" y="8"/><text fill="#000000" font-family="sans-serif" font-size="12" lengthAdjust="spacingAndGlyphs" textLength="77" x="122" y="24.1387">&lt;entity_uri&gt;</text><line style="stroke: #A80036; stroke-width: 1.5;" x1="74" x2="247" y1="31.9688" y2="31.9688"/><text fill="#000000" font-family="sans-serif" font-size="11" lengthAdjust="spacingAndGlyphs" textLength="163" x="79" y="46.1792">a crm:E22_Man-Made_Object</text><!--class _material_string_class_--><rect fill="#FEFECE" filter="url(#frh6827)" height="44.7734" style="stroke: #A80036; stroke-width: 1.5;" width="171" x="75" y="130"/><text fill="#000000" font-family="sans-serif" font-size="12" lengthAdjust="spacingAndGlyphs" textLength="151" x="85" y="146.1387">&lt;material_string_class&gt;</text><line style="stroke: #A80036; stroke-width: 1.5;" x1="76" x2="245" y1="153.9688" y2="153.9688"/><text fill="#000000" font-family="sans-serif" font-size="11" lengthAdjust="spacingAndGlyphs" textLength="159" x="81" y="168.1792">a crm:E33_Linguistic_Object</text><!--class aat_300264237--><rect fill="#FEFECE" filter="url(#frh6827)" height="44.7734" style="stroke: #A80036; stroke-width: 1.5;" width="143" x="6" y="252"/><text fill="#000000" font-family="sans-serif" font-size="12" lengthAdjust="spacingAndGlyphs" textLength="97" x="29" y="268.1387">aat:300264237</text><line style="stroke: #A80036; stroke-width: 1.5;" x1="7" x2="148" y1="275.9688" y2="275.9688"/><text fill="#000000" font-family="sans-serif" font-size="11" lengthAdjust="spacingAndGlyphs" textLength="131" x="12" y="290.1792">"material components"</text><!--class _material_string_--><rect fill="#FEFECE" filter="url(#frh6827)" height="23.9688" style="stroke: #A80036; stroke-width: 1.5;" width="119" x="184" y="262.5"/><text fill="#000000" font-family="sans-serif" font-size="12" lengthAdjust="spacingAndGlyphs" textLength="113" x="187" y="278.6387">&lt;material_string&gt;</text><path d="M160.5,53.231 C160.5,73.365 160.5,103.366 160.5,124.919 " fill="none" style="stroke: #A80036; stroke-width: 1.0;"/><polygon fill="#A80036" points="160.5,129.931,164.5,120.931,160.5,124.931,156.5,120.931,160.5,129.931" style="stroke: #A80036; stroke-width: 1.0;"/><text fill="#000000" font-family="sans-serif" font-size="13" lengthAdjust="spacingAndGlyphs" textLength="173" x="161.5" y="96.0669">crm:P67i_is_referred_to_by</text><path d="M118.879,175.028 C107.338,182.948 95.9451,192.98 88.5,205 C80.8292,217.3843 77.9512,233.3562 77.0495,246.7617 " fill="none" style="stroke: #A80036; stroke-width: 1.0;"/><polygon fill="#A80036" points="76.7883,251.95,81.2361,243.1627,77.0399,246.9563,73.2462,242.7601,76.7883,251.95" style="stroke: #A80036; stroke-width: 1.0;"/><text fill="#000000" font-family="sans-serif" font-size="13" lengthAdjust="spacingAndGlyphs" textLength="110" x="89.5" y="218.0669">crm:P2_has_type</text><path d="M180.516,175.065 C188.395,184.017 197.268,194.703 204.5,205 C216.654,222.3054 228.346,243.6783 235.704,257.9025 " fill="none" style="stroke: #A80036; stroke-width: 1.0;"/><polygon fill="#A80036" points="238.028,262.436,237.4825,252.6023,235.7474,257.9864,230.3632,256.2513,238.028,262.436" style="stroke: #A80036; stroke-width: 1.0;"/><text fill="#000000" font-family="sans-serif" font-size="13" lengthAdjust="spacingAndGlyphs" textLength="55" x="215.5" y="218.0669">rdf:value</text></g></svg>