<?xml version="1.0" encoding="UTF-8" standalone="no"?><svg xmlns="http://www.w3.org/2000/svg" xmlns:xlink="http://www.w3.org/1999/xlink" contentScriptType="application/ecmascript" contentStyleType="text/css" height="528px" preserveAspectRatio="none" style="width:790px;height:528px;" version="1.1" viewBox="0 0 790 528" width="790px" zoomAndPan="magnify"><defs><filter height="300%" id="fhciuci" width="300%" x="-1" y="-1"><feGaussianBlur result="blurOut" stdDeviation="2.0"/><feColorMatrix in="blurOut" result="blurOut2" type="matrix" values="0 0 0 0 0 0 0 0 0 0 0 0 0 0 0 0 0 0 .4 0"/><feOffset dx="4.0" dy="4.0" in="blurOut2" result="blurOut3"/><feBlend in="SourceGraphic" in2="blurOut3" mode="normal"/></filter></defs><g><!--class _author_class_--><rect fill="#FEFECE" filter="url(#fhciuci)" height="44.7734" style="stroke: #A80036; stroke-width: 1.5;" width="106" x="49" y="374"/><text fill="#000000" font-family="sans-serif" font-size="12" lengthAdjust="spacingAndGlyphs" textLength="100" x="52" y="390.1387">&lt;author_class&gt;</text><line style="stroke: #A80036; stroke-width: 1.5;" x1="50" x2="154" y1="397.9688" y2="397.9688"/><text fill="#000000" font-family="sans-serif" font-size="11" lengthAdjust="spacingAndGlyphs" textLength="93" x="55" y="412.1792">a crm:E39_Actor</text><!--class _author_--><rect fill="#FEFECE" filter="url(#fhciuci)" height="23.9688" style="stroke: #A80036; stroke-width: 1.5;" width="68" x="6" y="496"/><text fill="#000000" font-family="sans-serif" font-size="12" lengthAdjust="spacingAndGlyphs" textLength="62" x="9" y="512.1387">&lt;author&gt;</text><!--class _author_lod_id_--><rect fill="#FEFECE" filter="url(#fhciuci)" height="23.9688" style="stroke: #A80036; stroke-width: 1.5;" width="110" x="109" y="496"/><text fill="#000000" font-family="sans-serif" font-size="12" lengthAdjust="spacingAndGlyphs" textLength="104" x="112" y="512.1387">&lt;author_lod_id&gt;</text><!--class aat_300404670--><rect fill="#FEFECE" filter="url(#fhciuci)" height="44.7734" style="stroke: #A80036; stroke-width: 1.5;" width="114" x="246" y="252"/><text fill="#000000" font-family="sans-serif" font-size="12" lengthAdjust="spacingAndGlyphs" textLength="97" x="254.5" y="268.1387">aat:300404670</text><line style="stroke: #A80036; stroke-width: 1.5;" x1="247" x2="359" y1="275.9688" y2="275.9688"/><text fill="#000000" font-family="sans-serif" font-size="11" lengthAdjust="spacingAndGlyphs" textLength="102" x="252" y="290.1792">"preferred terms"</text><!--class _description_class_--><rect fill="#FEFECE" filter="url(#fhciuci)" height="44.7734" style="stroke: #A80036; stroke-width: 1.5;" width="171" x="386.5" y="130"/><text fill="#000000" font-family="sans-serif" font-size="12" lengthAdjust="spacingAndGlyphs" textLength="128" x="408" y="146.1387">&lt;description_class&gt;</text><line style="stroke: #A80036; stroke-width: 1.5;" x1="387.5" x2="556.5" y1="153.9688" y2="153.9688"/><text fill="#000000" font-family="sans-serif" font-size="11" lengthAdjust="spacingAndGlyphs" textLength="159" x="392.5" y="168.1792">a crm:E33_Linguistic_Object</text><!--class aat_300080102--><rect fill="#FEFECE" filter="url(#fhciuci)" height="44.7734" style="stroke: #A80036; stroke-width: 1.5;" width="164" x="395" y="252"/><text fill="#000000" font-family="sans-serif" font-size="12" lengthAdjust="spacingAndGlyphs" textLength="97" x="428.5" y="268.1387">aat:300080102</text><line style="stroke: #A80036; stroke-width: 1.5;" x1="396" x2="558" y1="275.9688" y2="275.9688"/><text fill="#000000" font-family="sans-serif" font-size="11" lengthAdjust="spacingAndGlyphs" textLength="152" x="401" y="290.1792">"biographies [documents]"</text><!--class _description_--><rect fill="#FEFECE" filter="url(#fhciuci)" height="23.9688" style="stroke: #A80036; stroke-width: 1.5;" width="96" x="627" y="262.5"/><text fill="#000000" font-family="sans-serif" font-size="12" lengthAdjust="spacingAndGlyphs" textLength="90" x="630" y="278.6387">&lt;description&gt;</text><!--class _authorship_event_--><rect fill="#FEFECE" filter="url(#fhciuci)" height="44.7734" style="stroke: #A80036; stroke-width: 1.5;" width="135" x="34.5" y="252"/><text fill="#000000" font-family="sans-serif" font-size="12" lengthAdjust="spacingAndGlyphs" textLength="129" x="37.5" y="268.1387">&lt;authorship_event&gt;</text><line style="stroke: #A80036; stroke-width: 1.5;" x1="35.5" x2="168.5" y1="275.9688" y2="275.9688"/><text fill="#000000" font-family="sans-serif" font-size="11" lengthAdjust="spacingAndGlyphs" textLength="112" x="40.5" y="290.1792">a crm:E65_Creation</text><!--class _entity_uri_--><rect fill="#FEFECE" filter="url(#fhciuci)" height="44.7734" style="stroke: #A80036; stroke-width: 1.5;" width="105" x="548.5" y="8"/><text fill="#000000" font-family="sans-serif" font-size="12" lengthAdjust="spacingAndGlyphs" textLength="77" x="562.5" y="24.1387">&lt;entity_uri&gt;</text><line style="stroke: #A80036; stroke-width: 1.5;" x1="549.5" x2="652.5" y1="31.9688" y2="31.9688"/><text fill="#000000" font-family="sans-serif" font-size="11" lengthAdjust="spacingAndGlyphs" textLength="93" x="554.5" y="46.1792">a crm:E39_Actor</text><path d="M81.9371,419.436 C74.6552,428.1817 66.801,438.6263 61,449 C53.4995,462.4129 47.8093,479.0131 44.2566,491.0127 " fill="none" style="stroke: #A80036; stroke-width: 1.0;"/><polygon fill="#A80036" points="42.8659,495.8511,49.1965,488.3064,44.2472,491.0457,41.5079,486.0963,42.8659,495.8511" style="stroke: #A80036; stroke-width: 1.0;"/><text fill="#000000" font-family="sans-serif" font-size="13" lengthAdjust="spacingAndGlyphs" textLength="58" x="62" y="462.0669">rdfs:label</text><path d="M114.249,419.134 C126.287,440.3932 144.366,472.3235 155.094,491.2714 " fill="none" style="stroke: #A80036; stroke-width: 1.0;"/><polygon fill="#A80036" points="157.655,495.7946,156.7015,485.992,155.1915,491.4436,149.7399,489.9336,157.655,495.7946" style="stroke: #A80036; stroke-width: 1.0;"/><text fill="#000000" font-family="sans-serif" font-size="13" lengthAdjust="spacingAndGlyphs" textLength="107" x="142" y="462.0669">skos:exactMatch</text><path d="M401.024,175.012 C382.869,182.63 364.202,192.505 349,205 C335.08,216.441 323.734,233.176 315.793,247.24 " fill="none" style="stroke: #A80036; stroke-width: 1.0;"/><polygon fill="#A80036" points="313.232,251.896,321.0752,245.9391,315.6424,247.5153,314.0661,242.0825,313.232,251.896" style="stroke: #A80036; stroke-width: 1.0;"/><text fill="#000000" font-family="sans-serif" font-size="13" lengthAdjust="spacingAndGlyphs" textLength="110" x="350" y="218.0669">crm:P2_has_type</text><path d="M469.719,175.118 C468.626,188.611 467.79,206.334 469,222 C469.617,229.99 470.764,238.615 472.001,246.479 " fill="none" style="stroke: #A80036; stroke-width: 1.0;"/><polygon fill="#A80036" points="472.867,251.786,475.3643,242.259,472.0612,246.8514,467.4689,243.5483,472.867,251.786" style="stroke: #A80036; stroke-width: 1.0;"/><text fill="#000000" font-family="sans-serif" font-size="13" lengthAdjust="spacingAndGlyphs" textLength="110" x="470" y="218.0669">crm:P2_has_type</text><path d="M525.846,175.109 C544.996,183.55 566.406,193.877 585,205 C612.03,221.17 640.522,243.97 658.031,258.743 " fill="none" style="stroke: #A80036; stroke-width: 1.0;"/><polygon fill="#A80036" points="662.238,262.317,657.9693,253.4413,658.4276,259.0795,652.7894,259.5379,662.238,262.317" style="stroke: #A80036; stroke-width: 1.0;"/><text fill="#000000" font-family="sans-serif" font-size="13" lengthAdjust="spacingAndGlyphs" textLength="55" x="610" y="218.0669">rdf:value</text><path d="M386.486,160.823 C307.485,168.788 196.817,183.351 159,205 C141.478,215.031 127.008,232.635 117.032,247.485 " fill="none" style="stroke: #A80036; stroke-width: 1.0;"/><polygon fill="#A80036" points="114.082,251.994,122.3563,246.652,116.8191,247.8097,115.6614,242.2726,114.082,251.994" style="stroke: #A80036; stroke-width: 1.0;"/><text fill="#000000" font-family="sans-serif" font-size="13" lengthAdjust="spacingAndGlyphs" textLength="165" x="160" y="218.0669">crm:P94i_was_created_by</text><path d="M652.013,53.119 C663.961,60.736 675.181,70.585 682,83 C713.455,140.273 692.228,222.515 680.87,257.145 " fill="none" style="stroke: #A80036; stroke-width: 1.0; stroke-dasharray: 7.0,7.0;"/><polygon fill="#A80036" points="679.141,262.283,685.8021,255.0284,680.7354,257.544,678.2198,252.4773,679.141,262.283" style="stroke: #A80036; stroke-width: 1.0;"/><text fill="#000000" font-family="sans-serif" font-size="13" lengthAdjust="spacingAndGlyphs" textLength="89" x="700" y="157.0669">dc:description</text><path d="M562.545,53.148 C549.275,61.558 534.793,71.854 523,83 C509.737,95.535 497.438,111.852 488.242,125.416 " fill="none" style="stroke: #A80036; stroke-width: 1.0;"/><polygon fill="#A80036" points="485.245,129.901,493.5705,124.6393,488.0225,125.7434,486.9183,120.1953,485.245,129.901" style="stroke: #A80036; stroke-width: 1.0;"/><text fill="#000000" font-family="sans-serif" font-size="13" lengthAdjust="spacingAndGlyphs" textLength="153" x="524" y="96.0669">crm:P129i_is_subject_of</text><path d="M102,297.231 C102,317.365 102,347.366 102,368.919 " fill="none" style="stroke: #A80036; stroke-width: 1.0;"/><polygon fill="#A80036" points="102,373.931,106,364.931,102,368.931,98,364.931,102,373.931" style="stroke: #A80036; stroke-width: 1.0;"/><text fill="#000000" font-family="sans-serif" font-size="13" lengthAdjust="spacingAndGlyphs" textLength="154" x="103" y="340.0669">crm:P14_carried_out_by</text></g></svg>