<?xml version="1.0" encoding="UTF-8" standalone="no"?><svg xmlns="http://www.w3.org/2000/svg" xmlns:xlink="http://www.w3.org/1999/xlink" contentScriptType="application/ecmascript" contentStyleType="text/css" height="549px" preserveAspectRatio="none" style="width:393px;height:549px;" version="1.1" viewBox="0 0 393 549" width="393px" zoomAndPan="magnify"><defs><filter height="300%" id="fymbny3" width="300%" x="-1" y="-1"><feGaussianBlur result="blurOut" stdDeviation="2.0"/><feColorMatrix in="blurOut" result="blurOut2" type="matrix" values="0 0 0 0 0 0 0 0 0 0 0 0 0 0 0 0 0 0 .4 0"/><feOffset dx="4.0" dy="4.0" in="blurOut2" result="blurOut3"/><feBlend in="SourceGraphic" in2="blurOut3" mode="normal"/></filter></defs><g><!--class _name_suffix_class_--><rect fill="#FEFECE" filter="url(#fymbny3)" height="44.7734" style="stroke: #A80036; stroke-width: 1.5;" width="173" x="17" y="252"/><text fill="#000000" font-family="sans-serif" font-size="12" lengthAdjust="spacingAndGlyphs" textLength="131" x="38" y="268.1387">&lt;name_suffix_class&gt;</text><line style="stroke: #A80036; stroke-width: 1.5;" x1="18" x2="189" y1="275.9688" y2="275.9688"/><text fill="#000000" font-family="sans-serif" font-size="11" lengthAdjust="spacingAndGlyphs" textLength="161" x="23" y="290.1792">a crm:E82_Actor_Appellation</text><!--class _name_suffix_--><rect fill="#FEFECE" filter="url(#fymbny3)" height="23.9688" style="stroke: #A80036; stroke-width: 1.5;" width="99" x="6" y="384.5"/><text fill="#000000" font-family="sans-serif" font-size="12" lengthAdjust="spacingAndGlyphs" textLength="93" x="9" y="400.6387">&lt;name_suffix&gt;</text><!--class _name_suffix_type_class_--><rect fill="#FEFECE" filter="url(#fymbny3)" height="44.7734" style="stroke: #A80036; stroke-width: 1.5;" width="170" x="140.5" y="374"/><text fill="#000000" font-family="sans-serif" font-size="12" lengthAdjust="spacingAndGlyphs" textLength="164" x="143.5" y="390.1387">&lt;name_suffix_type_class&gt;</text><line style="stroke: #A80036; stroke-width: 1.5;" x1="141.5" x2="309.5" y1="397.9688" y2="397.9688"/><text fill="#000000" font-family="sans-serif" font-size="11" lengthAdjust="spacingAndGlyphs" textLength="91" x="146.5" y="412.1792">a crm:E55_Type</text><!--class _name_--><rect fill="#FEFECE" filter="url(#fymbny3)" height="44.7734" style="stroke: #A80036; stroke-width: 1.5;" width="173" x="17" y="130"/><text fill="#000000" font-family="sans-serif" font-size="12" lengthAdjust="spacingAndGlyphs" textLength="55" x="76" y="146.1387">&lt;name&gt;</text><line style="stroke: #A80036; stroke-width: 1.5;" x1="18" x2="189" y1="153.9688" y2="153.9688"/><text fill="#000000" font-family="sans-serif" font-size="11" lengthAdjust="spacingAndGlyphs" textLength="161" x="23" y="168.1792">a crm:E82_Actor_Appellation</text><!--class _entity_uri_--><rect fill="#FEFECE" filter="url(#fymbny3)" height="44.7734" style="stroke: #A80036; stroke-width: 1.5;" width="105" x="51" y="8"/><text fill="#000000" font-family="sans-serif" font-size="12" lengthAdjust="spacingAndGlyphs" textLength="77" x="65" y="24.1387">&lt;entity_uri&gt;</text><line style="stroke: #A80036; stroke-width: 1.5;" x1="52" x2="155" y1="31.9688" y2="31.9688"/><text fill="#000000" font-family="sans-serif" font-size="11" lengthAdjust="spacingAndGlyphs" textLength="93" x="57" y="46.1792">a crm:E39_Actor</text><!--class aat_300404662--><rect fill="#FEFECE" filter="url(#fymbny3)" height="44.7734" style="stroke: #A80036; stroke-width: 1.5;" width="167" x="50" y="496"/><text fill="#000000" font-family="sans-serif" font-size="12" lengthAdjust="spacingAndGlyphs" textLength="97" x="85" y="512.1387">aat:300404662</text><line style="stroke: #A80036; stroke-width: 1.5;" x1="51" x2="216" y1="519.9688" y2="519.9688"/><text fill="#000000" font-family="sans-serif" font-size="11" lengthAdjust="spacingAndGlyphs" textLength="155" x="56" y="534.1792">"suffixes [name additions]"</text><!--class _name_suffix_type_--><rect fill="#FEFECE" filter="url(#fymbny3)" height="23.9688" style="stroke: #A80036; stroke-width: 1.5;" width="132" x="252.5" y="506.5"/><text fill="#000000" font-family="sans-serif" font-size="12" lengthAdjust="spacingAndGlyphs" textLength="126" x="255.5" y="522.6387">&lt;name_suffix_type&gt;</text><path d="M94.8076,297.231 C85.3034,320.992 70.3024,358.494 61.8453,379.637 " fill="none" style="stroke: #A80036; stroke-width: 1.0;"/><polygon fill="#A80036" points="59.9438,384.391,67.0004,377.5205,61.8009,379.7487,59.5727,374.5491,59.9438,384.391" style="stroke: #A80036; stroke-width: 1.0;"/><text fill="#000000" font-family="sans-serif" font-size="13" lengthAdjust="spacingAndGlyphs" textLength="55" x="83.5" y="340.0669">rdf:value</text><path d="M125.593,297.231 C146.495,317.79 177.855,348.636 199.851,370.272 " fill="none" style="stroke: #A80036; stroke-width: 1.0;"/><polygon fill="#A80036" points="203.571,373.931,199.9613,364.7675,200.007,370.4242,194.3503,370.4699,203.571,373.931" style="stroke: #A80036; stroke-width: 1.0;"/><text fill="#000000" font-family="sans-serif" font-size="13" lengthAdjust="spacingAndGlyphs" textLength="110" x="173.5" y="340.0669">crm:P2_has_type</text><path d="M103.5,175.231 C103.5,195.365 103.5,225.366 103.5,246.919 " fill="none" style="stroke: #A80036; stroke-width: 1.0;"/><polygon fill="#A80036" points="103.5,251.931,107.5,242.931,103.5,246.931,99.5,242.931,103.5,251.931" style="stroke: #A80036; stroke-width: 1.0;"/><text fill="#000000" font-family="sans-serif" font-size="13" lengthAdjust="spacingAndGlyphs" textLength="171" x="104.5" y="218.0669">crm:P106_is_composed_of</text><path d="M103.5,53.231 C103.5,73.365 103.5,103.366 103.5,124.919 " fill="none" style="stroke: #A80036; stroke-width: 1.0;"/><polygon fill="#A80036" points="103.5,129.931,107.5,120.931,103.5,124.931,99.5,120.931,103.5,129.931" style="stroke: #A80036; stroke-width: 1.0;"/><text fill="#000000" font-family="sans-serif" font-size="13" lengthAdjust="spacingAndGlyphs" textLength="165" x="104.5" y="96.0669">crm:P131_is_identified_by</text><path d="M194.463,419.248 C183.994,427.667 172.858,437.944 164.5,449 C154.965,461.6126 147.513,477.6248 142.308,490.9962 " fill="none" style="stroke: #A80036; stroke-width: 1.0;"/><polygon fill="#A80036" points="140.492,495.7917,147.4202,488.7917,142.2628,491.1158,139.9387,485.9584,140.492,495.7917" style="stroke: #A80036; stroke-width: 1.0;"/><text fill="#000000" font-family="sans-serif" font-size="13" lengthAdjust="spacingAndGlyphs" textLength="109" x="165.5" y="462.0669">skos:broadMatch</text><path d="M251.231,419.18 C260.736,427.894 271.204,438.384 279.5,449 C292.521,465.6629 304.033,487.169 311.113,501.5996 " fill="none" style="stroke: #A80036; stroke-width: 1.0;"/><polygon fill="#A80036" points="313.34,506.205,313.0231,496.3612,311.1633,501.7037,305.8209,499.8439,313.34,506.205" style="stroke: #A80036; stroke-width: 1.0;"/><text fill="#000000" font-family="sans-serif" font-size="13" lengthAdjust="spacingAndGlyphs" textLength="92" x="292.5" y="462.0669">skos:prefLabel</text></g></svg>