<?xml version="1.0" encoding="UTF-8" standalone="no"?><svg xmlns="http://www.w3.org/2000/svg" xmlns:xlink="http://www.w3.org/1999/xlink" contentScriptType="application/ecmascript" contentStyleType="text/css" height="427px" preserveAspectRatio="none" style="width:405px;height:427px;" version="1.1" viewBox="0 0 405 427" width="405px" zoomAndPan="magnify"><defs><filter height="300%" id="fih8dzi" width="300%" x="-1" y="-1"><feGaussianBlur result="blurOut" stdDeviation="2.0"/><feColorMatrix in="blurOut" result="blurOut2" type="matrix" values="0 0 0 0 0 0 0 0 0 0 0 0 0 0 0 0 0 0 .4 0"/><feOffset dx="4.0" dy="4.0" in="blurOut2" result="blurOut3"/><feBlend in="SourceGraphic" in2="blurOut3" mode="normal"/></filter></defs><g><!--class aat_300404670--><rect fill="#FEFECE" filter="url(#fih8dzi)" height="44.7734" style="stroke: #A80036; stroke-width: 1.5;" width="114" x="6" y="374"/><text fill="#000000" font-family="sans-serif" font-size="12" lengthAdjust="spacingAndGlyphs" textLength="97" x="14.5" y="390.1387">aat:300404670</text><line style="stroke: #A80036; stroke-width: 1.5;" x1="7" x2="119" y1="397.9688" y2="397.9688"/><text fill="#000000" font-family="sans-serif" font-size="11" lengthAdjust="spacingAndGlyphs" textLength="102" x="12" y="412.1792">"preferred terms"</text><!--class _entity_uri_--><rect fill="#FEFECE" filter="url(#fih8dzi)" height="44.7734" style="stroke: #A80036; stroke-width: 1.5;" width="105" x="185.5" y="8"/><text fill="#000000" font-family="sans-serif" font-size="12" lengthAdjust="spacingAndGlyphs" textLength="77" x="199.5" y="24.1387">&lt;entity_uri&gt;</text><line style="stroke: #A80036; stroke-width: 1.5;" x1="186.5" x2="289.5" y1="31.9688" y2="31.9688"/><text fill="#000000" font-family="sans-serif" font-size="11" lengthAdjust="spacingAndGlyphs" textLength="93" x="191.5" y="46.1792">a crm:E39_Actor</text><!--class _actor_class_--><rect fill="#FEFECE" filter="url(#fih8dzi)" height="44.7734" style="stroke: #A80036; stroke-width: 1.5;" width="173" x="151.5" y="130"/><text fill="#000000" font-family="sans-serif" font-size="12" lengthAdjust="spacingAndGlyphs" textLength="91" x="192.5" y="146.1387">&lt;actor_class&gt;</text><line style="stroke: #A80036; stroke-width: 1.5;" x1="152.5" x2="323.5" y1="153.9688" y2="153.9688"/><text fill="#000000" font-family="sans-serif" font-size="11" lengthAdjust="spacingAndGlyphs" textLength="161" x="157.5" y="168.1792">a crm:E82_Actor_Appellation</text><!--class _preferred_name_type_url_--><rect fill="#FEFECE" filter="url(#fih8dzi)" height="44.7734" style="stroke: #A80036; stroke-width: 1.5;" width="181" x="47.5" y="252"/><text fill="#000000" font-family="sans-serif" font-size="12" lengthAdjust="spacingAndGlyphs" textLength="175" x="50.5" y="268.1387">&lt;preferred_name_type_url&gt;</text><line style="stroke: #A80036; stroke-width: 1.5;" x1="48.5" x2="227.5" y1="275.9688" y2="275.9688"/><text fill="#000000" font-family="sans-serif" font-size="11" lengthAdjust="spacingAndGlyphs" textLength="91" x="53.5" y="290.1792">a crm:E55_Type</text><!--class _type_label_--><rect fill="#FEFECE" filter="url(#fih8dzi)" height="23.9688" style="stroke: #A80036; stroke-width: 1.5;" width="89" x="169.5" y="384.5"/><text fill="#000000" font-family="sans-serif" font-size="12" lengthAdjust="spacingAndGlyphs" textLength="83" x="172.5" y="400.6387">&lt;type_label&gt;</text><!--class _actor_name_--><rect fill="#FEFECE" filter="url(#fih8dzi)" height="23.9688" style="stroke: #A80036; stroke-width: 1.5;" width="100" x="264" y="262.5"/><text fill="#000000" font-family="sans-serif" font-size="12" lengthAdjust="spacingAndGlyphs" textLength="94" x="267" y="278.6387">&lt;actor_name&gt;</text><path d="M238,53.231 C238,73.365 238,103.366 238,124.919 " fill="none" style="stroke: #A80036; stroke-width: 1.0;"/><polygon fill="#A80036" points="238,129.931,242,120.931,238,124.931,234,120.931,238,129.931" style="stroke: #A80036; stroke-width: 1.0;"/><text fill="#000000" font-family="sans-serif" font-size="13" lengthAdjust="spacingAndGlyphs" textLength="165" x="239" y="96.0669">crm:P131_is_identified_by</text><path d="M89.2412,297.211 C77.5845,304.866 66.6123,314.711 60,327 C53.2282,339.5858 53.4681,355.4332 55.6324,368.7146 " fill="none" style="stroke: #A80036; stroke-width: 1.0;"/><polygon fill="#A80036" points="56.5841,373.8543,58.8785,364.2764,55.6737,368.9379,51.0122,365.7331,56.5841,373.8543" style="stroke: #A80036; stroke-width: 1.0;"/><text fill="#000000" font-family="sans-serif" font-size="13" lengthAdjust="spacingAndGlyphs" textLength="109" x="61" y="340.0669">skos:broadMatch</text><path d="M154.364,297.201 C160.993,306.262 168.581,316.992 175,327 C186.284,344.5936 197.986,365.5767 205.59,379.6423 " fill="none" style="stroke: #A80036; stroke-width: 1.0;"/><polygon fill="#A80036" points="208.005,384.1323,207.2635,374.3114,205.6361,379.7291,200.2184,378.1016,208.005,384.1323" style="stroke: #A80036; stroke-width: 1.0;"/><text fill="#000000" font-family="sans-serif" font-size="13" lengthAdjust="spacingAndGlyphs" textLength="92" x="187" y="340.0669">skos:prefLabel</text><path d="M251.763,175.231 C266.875,199.092 290.764,236.811 304.122,257.903 " fill="none" style="stroke: #A80036; stroke-width: 1.0;"/><polygon fill="#A80036" points="306.964,262.391,305.5273,252.6475,304.2885,258.1671,298.7689,256.9283,306.964,262.391" style="stroke: #A80036; stroke-width: 1.0;"/><text fill="#000000" font-family="sans-serif" font-size="13" lengthAdjust="spacingAndGlyphs" textLength="58" x="282" y="218.0669">rdfs:label</text><path d="M186.49,175.047 C173.489,182.741 160.753,192.646 152,205 C143.451,217.066 139.868,233.161 138.461,246.718 " fill="none" style="stroke: #A80036; stroke-width: 1.0;"/><polygon fill="#A80036" points="138.009,251.967,142.7657,243.343,138.4376,246.9854,134.7952,242.6573,138.009,251.967" style="stroke: #A80036; stroke-width: 1.0;"/><text fill="#000000" font-family="sans-serif" font-size="13" lengthAdjust="spacingAndGlyphs" textLength="110" x="153" y="218.0669">crm:P2_has_type</text></g></svg>