<?xml version="1.0" encoding="UTF-8" standalone="no"?><svg xmlns="http://www.w3.org/2000/svg" xmlns:xlink="http://www.w3.org/1999/xlink" contentScriptType="application/ecmascript" contentStyleType="text/css" height="305px" preserveAspectRatio="none" style="width:290px;height:305px;" version="1.1" viewBox="0 0 290 305" width="290px" zoomAndPan="magnify"><defs><filter height="300%" id="f60cj4k" width="300%" x="-1" y="-1"><feGaussianBlur result="blurOut" stdDeviation="2.0"/><feColorMatrix in="blurOut" result="blurOut2" type="matrix" values="0 0 0 0 0 0 0 0 0 0 0 0 0 0 0 0 0 0 .4 0"/><feOffset dx="4.0" dy="4.0" in="blurOut2" result="blurOut3"/><feBlend in="SourceGraphic" in2="blurOut3" mode="normal"/></filter></defs><g><!--class aat_300404670--><rect fill="#FEFECE" filter="url(#f60cj4k)" height="44.7734" style="stroke: #A80036; stroke-width: 1.5;" width="114" x="6" y="252"/><text fill="#000000" font-family="sans-serif" font-size="12" lengthAdjust="spacingAndGlyphs" textLength="97" x="14.5" y="268.1387">aat:300404670</text><line style="stroke: #A80036; stroke-width: 1.5;" x1="7" x2="119" y1="275.9688" y2="275.9688"/><text fill="#000000" font-family="sans-serif" font-size="11" lengthAdjust="spacingAndGlyphs" textLength="102" x="12" y="290.1792">"preferred terms"</text><!--class _entity_uri_--><rect fill="#FEFECE" filter="url(#f60cj4k)" height="44.7734" style="stroke: #A80036; stroke-width: 1.5;" width="100" x="89" y="8"/><text fill="#000000" font-family="sans-serif" font-size="12" lengthAdjust="spacingAndGlyphs" textLength="77" x="100.5" y="24.1387">&lt;entity_uri&gt;</text><line style="stroke: #A80036; stroke-width: 1.5;" x1="90" x2="188" y1="31.9688" y2="31.9688"/><text fill="#000000" font-family="sans-serif" font-size="11" lengthAdjust="spacingAndGlyphs" textLength="88" x="95" y="46.1792">a crm:E5_Event</text><!--class _event_name_class_--><rect fill="#FEFECE" filter="url(#f60cj4k)" height="44.7734" style="stroke: #A80036; stroke-width: 1.5;" width="140" x="69" y="130"/><text fill="#000000" font-family="sans-serif" font-size="12" lengthAdjust="spacingAndGlyphs" textLength="134" x="72" y="146.1387">&lt;event_name_class&gt;</text><line style="stroke: #A80036; stroke-width: 1.5;" x1="70" x2="208" y1="153.9688" y2="153.9688"/><text fill="#000000" font-family="sans-serif" font-size="11" lengthAdjust="spacingAndGlyphs" textLength="126" x="75" y="168.1792">a crm:E41_Appellation</text><!--class _event_name_--><rect fill="#FEFECE" filter="url(#f60cj4k)" height="23.9688" style="stroke: #A80036; stroke-width: 1.5;" width="102" x="164" y="262.5"/><text fill="#000000" font-family="sans-serif" font-size="12" lengthAdjust="spacingAndGlyphs" textLength="96" x="167" y="278.6387">&lt;event_name&gt;</text><path d="M139,53.231 C139,73.365 139,103.366 139,124.919 " fill="none" style="stroke: #A80036; stroke-width: 1.0;"/><polygon fill="#A80036" points="139,129.931,143,120.931,139,124.931,135,120.931,139,129.931" style="stroke: #A80036; stroke-width: 1.0;"/><text fill="#000000" font-family="sans-serif" font-size="13" lengthAdjust="spacingAndGlyphs" textLength="149" x="140" y="96.0669">crm:P1_is_identified_by</text><path d="M89.6301,175.091 C77.824,182.746 66.7076,192.62 60,205 C53.1915,217.566 53.4291,233.4122 55.6013,246.6978 " fill="none" style="stroke: #A80036; stroke-width: 1.0;"/><polygon fill="#A80036" points="56.5566,251.8395,58.8451,242.2602,55.6432,246.9236,50.9797,243.7217,56.5566,251.8395" style="stroke: #A80036; stroke-width: 1.0;"/><text fill="#000000" font-family="sans-serif" font-size="13" lengthAdjust="spacingAndGlyphs" textLength="110" x="61" y="218.0669">crm:P2_has_type</text><path d="M155.364,175.201 C161.993,184.262 169.581,194.992 176,205 C187.284,222.5936 198.986,243.5767 206.59,257.6423 " fill="none" style="stroke: #A80036; stroke-width: 1.0;"/><polygon fill="#A80036" points="209.005,262.1323,208.2635,252.3114,206.6361,257.7291,201.2184,256.1016,209.005,262.1323" style="stroke: #A80036; stroke-width: 1.0;"/><text fill="#000000" font-family="sans-serif" font-size="13" lengthAdjust="spacingAndGlyphs" textLength="55" x="187" y="218.0669">rdf:value</text></g></svg>