<?xml version="1.0" encoding="UTF-8" standalone="no"?><svg xmlns="http://www.w3.org/2000/svg" xmlns:xlink="http://www.w3.org/1999/xlink" contentScriptType="application/ecmascript" contentStyleType="text/css" height="412px" preserveAspectRatio="none" style="width:680px;height:412px;" version="1.1" viewBox="0 0 680 412" width="680px" zoomAndPan="magnify"><defs><filter height="300%" id="fnx282k" width="300%" x="-1" y="-1"><feGaussianBlur result="blurOut" stdDeviation="2.0"/><feColorMatrix in="blurOut" result="blurOut2" type="matrix" values="0 0 0 0 0 0 0 0 0 0 0 0 0 0 0 0 0 0 .4 0"/><feOffset dx="4.0" dy="4.0" in="blurOut2" result="blurOut3"/><feBlend in="SourceGraphic" in2="blurOut3" mode="normal"/></filter></defs><g><!--class _owner_--><rect fill="#FEFECE" filter="url(#fnx282k)" height="23.9688" style="stroke: #A80036; stroke-width: 1.5;" width="64" x="6" y="267"/><text fill="#000000" font-family="sans-serif" font-size="12" lengthAdjust="spacingAndGlyphs" textLength="58" x="9" y="283.1387">&lt;owner&gt;</text><!--class _acquisition_event_--><rect fill="#FEFECE" filter="url(#fnx282k)" height="44.7734" style="stroke: #A80036; stroke-width: 1.5;" width="135" x="227.75" y="132.5"/><text fill="#000000" font-family="sans-serif" font-size="12" lengthAdjust="spacingAndGlyphs" textLength="129" x="230.75" y="148.6387">&lt;acquisition_event&gt;</text><line style="stroke: #A80036; stroke-width: 1.5;" x1="228.75" x2="361.75" y1="156.4688" y2="156.4688"/><text fill="#000000" font-family="sans-serif" font-size="11" lengthAdjust="spacingAndGlyphs" textLength="118" x="233.75" y="170.6792">a crm:E8_Acquisition</text><!--class _acquisition_timespan_--><rect fill="#FEFECE" filter="url(#fnx282k)" height="44.7734" style="stroke: #A80036; stroke-width: 1.5;" width="158" x="216" y="256.5"/><text fill="#000000" font-family="sans-serif" font-size="12" lengthAdjust="spacingAndGlyphs" textLength="152" x="219" y="272.6387">&lt;acquisition_timespan&gt;</text><line style="stroke: #A80036; stroke-width: 1.5;" x1="217" x2="373" y1="280.4688" y2="280.4688"/><text fill="#000000" font-family="sans-serif" font-size="11" lengthAdjust="spacingAndGlyphs" textLength="125" x="222" y="294.6792">a crm:E52_Time-Span</text><!--class _display_date_--><rect fill="#FEFECE" filter="url(#fnx282k)" height="23.9688" style="stroke: #A80036; stroke-width: 1.5;" width="104" x="89" y="380"/><text fill="#000000" font-family="sans-serif" font-size="12" lengthAdjust="spacingAndGlyphs" textLength="98" x="92" y="396.1387">&lt;display_date&gt;</text><!--class _latest_date_--><rect fill="#FEFECE" filter="url(#fnx282k)" height="23.9688" style="stroke: #A80036; stroke-width: 1.5;" width="97" x="246.75" y="380"/><text fill="#000000" font-family="sans-serif" font-size="12" lengthAdjust="spacingAndGlyphs" textLength="91" x="249.75" y="396.1387">&lt;latest_date&gt;</text><!--class _earliest_date_--><rect fill="#FEFECE" filter="url(#fnx282k)" height="23.9688" style="stroke: #A80036; stroke-width: 1.5;" width="108" x="454" y="380"/><text fill="#000000" font-family="sans-serif" font-size="12" lengthAdjust="spacingAndGlyphs" textLength="102" x="457" y="396.1387">&lt;earliest_date&gt;</text><!--class _entity_uri_--><rect fill="#FEFECE" filter="url(#fnx282k)" height="44.7734" style="stroke: #A80036; stroke-width: 1.5;" width="175" x="6.75" y="8.5"/><text fill="#000000" font-family="sans-serif" font-size="12" lengthAdjust="spacingAndGlyphs" textLength="77" x="55.75" y="24.6387">&lt;entity_uri&gt;</text><line style="stroke: #A80036; stroke-width: 1.5;" x1="7.75" x2="180.75" y1="32.4688" y2="32.4688"/><text fill="#000000" font-family="sans-serif" font-size="11" lengthAdjust="spacingAndGlyphs" textLength="163" x="12.75" y="46.6792">a crm:E22_Man-Made_Object</text><path d="M227.564,172.201 C176.398,184.823 113.024,201.292 102,208 C78.9843,222.006 59.2455,246.702 47.9965,262.703 " fill="none" style="stroke: #A80036; stroke-width: 1.0;"/><polygon fill="#A80036" points="45.0531,266.97,53.4569,261.8342,47.8928,262.8547,46.8724,257.2906,45.0531,266.97" style="stroke: #A80036; stroke-width: 1.0;"/><text fill="#000000" font-family="sans-serif" font-size="13" lengthAdjust="spacingAndGlyphs" textLength="182" x="103" y="221.0669">crm:P22_transferred_title_to</text><path d="M295,177.53 C295,198.049 295,229.009 295,251.134 " fill="none" style="stroke: #A80036; stroke-width: 1.0;"/><polygon fill="#A80036" points="295,256.275,299,247.275,295,251.275,291,247.275,295,256.275" style="stroke: #A80036; stroke-width: 1.0;"/><text fill="#000000" font-family="sans-serif" font-size="13" lengthAdjust="spacingAndGlyphs" textLength="147" x="296" y="221.0669">crm:P4_has_time-span</text><path d="M218.752,301.545 C201.269,309.0974 183.791,319.0463 170,332 C157.515,343.7271 149.701,361.9815 145.373,375.0796 " fill="none" style="stroke: #A80036; stroke-width: 1.0;"/><polygon fill="#A80036" points="143.831,379.9958,150.3412,372.6054,145.3274,375.225,142.7078,370.2112,143.831,379.9958" style="stroke: #A80036; stroke-width: 1.0;"/><text fill="#000000" font-family="sans-serif" font-size="13" lengthAdjust="spacingAndGlyphs" textLength="111" x="171" y="345.0669">crm:P3_has_note</text><path d="M293.179,301.754 C292.242,315.5704 291.409,333.8328 292,350 C292.295,358.0707 292.915,367.0171 293.516,374.4883 " fill="none" style="stroke: #A80036; stroke-width: 1.0;"/><polygon fill="#A80036" points="293.965,379.8751,297.2024,370.5735,293.549,374.8924,289.2301,371.2391,293.965,379.8751" style="stroke: #A80036; stroke-width: 1.0;"/><text fill="#000000" font-family="sans-serif" font-size="13" lengthAdjust="spacingAndGlyphs" textLength="170" x="293" y="345.0669">crm:P82b_end_of_the_end</text><path d="M374.371,291.589 C406.092,299.163 441.532,311.6105 469,332 C483.927,343.0807 494.84,361.6921 501.265,375.0505 " fill="none" style="stroke: #A80036; stroke-width: 1.0;"/><polygon fill="#A80036" points="503.428,379.7107,503.2671,369.8632,501.3229,375.1754,496.0106,373.2313,503.428,379.7107" style="stroke: #A80036; stroke-width: 1.0;"/><text fill="#000000" font-family="sans-serif" font-size="13" lengthAdjust="spacingAndGlyphs" textLength="192" x="487" y="345.0669">crm:P82a_begin_of_the_begin</text><path d="M73.4442,53.755 C57.0178,72.742 35.2641,101.901 26,132 C12.0422,177.348 24.8013,234.14 32.7497,261.612 " fill="none" style="stroke: #A80036; stroke-width: 1.0;"/><polygon fill="#A80036" points="34.2659,266.703,35.5306,256.9357,32.8388,261.911,27.8634,259.2191,34.2659,266.703" style="stroke: #A80036; stroke-width: 1.0;"/><text fill="#000000" font-family="sans-serif" font-size="13" lengthAdjust="spacingAndGlyphs" textLength="181" x="27" y="159.0669">crm:P52_has_current_owner</text><path d="M129.472,53.53 C164.669,74.894 218.515,107.576 255.163,129.821 " fill="none" style="stroke: #A80036; stroke-width: 1.0;"/><polygon fill="#A80036" points="259.545,132.48,253.9267,124.3908,255.2707,129.8857,249.7758,131.2297,259.545,132.48" style="stroke: #A80036; stroke-width: 1.0;"/><text fill="#000000" font-family="sans-serif" font-size="13" lengthAdjust="spacingAndGlyphs" textLength="246" x="208" y="97.0669">crm:P24i_changed_ownership_through</text></g></svg>