<?xml version="1.0" encoding="UTF-8" standalone="no"?><svg xmlns="http://www.w3.org/2000/svg" xmlns:xlink="http://www.w3.org/1999/xlink" contentScriptType="application/ecmascript" contentStyleType="text/css" height="284px" preserveAspectRatio="none" style="width:586px;height:284px;" version="1.1" viewBox="0 0 586 284" width="586px" zoomAndPan="magnify"><defs><filter height="300%" id="fljd9kz" width="300%" x="-1" y="-1"><feGaussianBlur result="blurOut" stdDeviation="2.0"/><feColorMatrix in="blurOut" result="blurOut2" type="matrix" values="0 0 0 0 0 0 0 0 0 0 0 0 0 0 0 0 0 0 .4 0"/><feOffset dx="4.0" dy="4.0" in="blurOut2" result="blurOut3"/><feBlend in="SourceGraphic" in2="blurOut3" mode="normal"/></filter></defs><g><!--class _sort_name_type_class_--><rect fill="#FEFECE" filter="url(#fljd9kz)" height="44.7734" style="stroke: #A80036; stroke-width: 1.5;" width="163" x="89.5" y="8"/><text fill="#000000" font-family="sans-serif" font-size="12" lengthAdjust="spacingAndGlyphs" textLength="157" x="92.5" y="24.1387">&lt;sort_name_type_class&gt;</text><line style="stroke: #A80036; stroke-width: 1.5;" x1="90.5" x2="251.5" y1="31.9688" y2="31.9688"/><text fill="#000000" font-family="sans-serif" font-size="11" lengthAdjust="spacingAndGlyphs" textLength="91" x="95.5" y="46.1792">a crm:E55_Type</text><!--class aac_types_sort_name_type--><rect fill="#FEFECE" filter="url(#fljd9kz)" height="23.9688" style="stroke: #A80036; stroke-width: 1.5;" width="172" x="6" y="140.5"/><text fill="#000000" font-family="sans-serif" font-size="12" lengthAdjust="spacingAndGlyphs" textLength="166" x="9" y="156.6387">aac_types:sort_name_type</text><!--class _sort_type_--><rect fill="#FEFECE" filter="url(#fljd9kz)" height="23.9688" style="stroke: #A80036; stroke-width: 1.5;" width="84" x="213" y="140.5"/><text fill="#000000" font-family="sans-serif" font-size="12" lengthAdjust="spacingAndGlyphs" textLength="78" x="216" y="156.6387">&lt;sort_type&gt;</text><!--class _sort_name_class_--><rect fill="#FEFECE" filter="url(#fljd9kz)" height="44.7734" style="stroke: #A80036; stroke-width: 1.5;" width="173" x="332.5" y="130"/><text fill="#000000" font-family="sans-serif" font-size="12" lengthAdjust="spacingAndGlyphs" textLength="124" x="357" y="146.1387">&lt;sort_name_class&gt;</text><line style="stroke: #A80036; stroke-width: 1.5;" x1="333.5" x2="504.5" y1="153.9688" y2="153.9688"/><text fill="#000000" font-family="sans-serif" font-size="11" lengthAdjust="spacingAndGlyphs" textLength="161" x="338.5" y="168.1792">a crm:E82_Actor_Appellation</text><!--class _sort_name_--><rect fill="#FEFECE" filter="url(#fljd9kz)" height="23.9688" style="stroke: #A80036; stroke-width: 1.5;" width="92" x="295" y="252"/><text fill="#000000" font-family="sans-serif" font-size="12" lengthAdjust="spacingAndGlyphs" textLength="86" x="298" y="268.1387">&lt;sort_name&gt;</text><!--class _sort_name_type_url_--><rect fill="#FEFECE" filter="url(#fljd9kz)" height="23.9688" style="stroke: #A80036; stroke-width: 1.5;" width="147" x="422.5" y="252"/><text fill="#000000" font-family="sans-serif" font-size="12" lengthAdjust="spacingAndGlyphs" textLength="141" x="425.5" y="268.1387">&lt;sort_name_type_url&gt;</text><!--class _entity_uri_--><rect fill="#FEFECE" filter="url(#fljd9kz)" height="44.7734" style="stroke: #A80036; stroke-width: 1.5;" width="105" x="366.5" y="8"/><text fill="#000000" font-family="sans-serif" font-size="12" lengthAdjust="spacingAndGlyphs" textLength="77" x="380.5" y="24.1387">&lt;entity_uri&gt;</text><line style="stroke: #A80036; stroke-width: 1.5;" x1="367.5" x2="470.5" y1="31.9688" y2="31.9688"/><text fill="#000000" font-family="sans-serif" font-size="11" lengthAdjust="spacingAndGlyphs" textLength="93" x="372.5" y="46.1792">a crm:E39_Actor</text><path d="M130.316,53.113 C119.086,61.037 108.06,71.049 101,83 C91.546,99.004 90.2399,120.734 90.6815,135.392 " fill="none" style="stroke: #A80036; stroke-width: 1.0;"/><polygon fill="#A80036" points="90.9114,140.449,94.4984,131.2766,90.6843,135.4542,86.5067,131.64,90.9114,140.449" style="stroke: #A80036; stroke-width: 1.0;"/><text fill="#000000" font-family="sans-serif" font-size="13" lengthAdjust="spacingAndGlyphs" textLength="109" x="102" y="96.0669">skos:broadMatch</text><path d="M191.508,53.006 C199.572,61.948 208.64,72.644 216,83 C228.25,100.238 239.922,121.625 247.25,135.87 " fill="none" style="stroke: #A80036; stroke-width: 1.0;"/><polygon fill="#A80036" points="249.563,140.412,249.0416,130.577,247.2933,135.9568,241.9134,134.2085,249.563,140.412" style="stroke: #A80036; stroke-width: 1.0;"/><text fill="#000000" font-family="sans-serif" font-size="13" lengthAdjust="spacingAndGlyphs" textLength="92" x="228" y="96.0669">skos:prefLabel</text><path d="M403.59,175.134 C388.446,196.3932 365.701,228.3235 352.204,247.2714 " fill="none" style="stroke: #A80036; stroke-width: 1.0;"/><polygon fill="#A80036" points="348.982,251.7946,357.4622,246.7861,351.8834,247.7225,350.947,242.1437,348.982,251.7946" style="stroke: #A80036; stroke-width: 1.0;"/><text fill="#000000" font-family="sans-serif" font-size="13" lengthAdjust="spacingAndGlyphs" textLength="58" x="381" y="218.0669">rdfs:label</text><path d="M434.213,175.134 C449.162,196.3932 471.616,228.3235 484.94,247.2714 " fill="none" style="stroke: #A80036; stroke-width: 1.0;"/><polygon fill="#A80036" points="488.12,251.7946,486.215,242.1317,485.2439,247.7046,479.671,246.7335,488.12,251.7946" style="stroke: #A80036; stroke-width: 1.0;"/><text fill="#000000" font-family="sans-serif" font-size="13" lengthAdjust="spacingAndGlyphs" textLength="110" x="468" y="218.0669">crm:P2_has_type</text><path d="M419,53.231 C419,73.365 419,103.366 419,124.919 " fill="none" style="stroke: #A80036; stroke-width: 1.0;"/><polygon fill="#A80036" points="419,129.931,423,120.931,419,124.931,415,120.931,419,129.931" style="stroke: #A80036; stroke-width: 1.0;"/><text fill="#000000" font-family="sans-serif" font-size="13" lengthAdjust="spacingAndGlyphs" textLength="165" x="420" y="96.0669">crm:P131_is_identified_by</text></g></svg>