<?xml version="1.0" encoding="UTF-8" standalone="no"?><svg xmlns="http://www.w3.org/2000/svg" xmlns:xlink="http://www.w3.org/1999/xlink" contentScriptType="application/ecmascript" contentStyleType="text/css" height="305px" preserveAspectRatio="none" style="width:332px;height:305px;" version="1.1" viewBox="0 0 332 305" width="332px" zoomAndPan="magnify"><defs><filter height="300%" id="f9rhy6g" width="300%" x="-1" y="-1"><feGaussianBlur result="blurOut" stdDeviation="2.0"/><feColorMatrix in="blurOut" result="blurOut2" type="matrix" values="0 0 0 0 0 0 0 0 0 0 0 0 0 0 0 0 0 0 .4 0"/><feOffset dx="4.0" dy="4.0" in="blurOut2" result="blurOut3"/><feBlend in="SourceGraphic" in2="blurOut3" mode="normal"/></filter></defs><g><!--class aat_300404670--><rect fill="#FEFECE" filter="url(#f9rhy6g)" height="44.7734" style="stroke: #A80036; stroke-width: 1.5;" width="114" x="161" y="252"/><text fill="#000000" font-family="sans-serif" font-size="12" lengthAdjust="spacingAndGlyphs" textLength="97" x="169.5" y="268.1387">aat:300404670</text><line style="stroke: #A80036; stroke-width: 1.5;" x1="162" x2="274" y1="275.9688" y2="275.9688"/><text fill="#000000" font-family="sans-serif" font-size="11" lengthAdjust="spacingAndGlyphs" textLength="102" x="167" y="290.1792">"preferred terms"</text><!--class _entity_uri_--><rect fill="#FEFECE" filter="url(#f9rhy6g)" height="44.7734" style="stroke: #A80036; stroke-width: 1.5;" width="105" x="43.5" y="8"/><text fill="#000000" font-family="sans-serif" font-size="12" lengthAdjust="spacingAndGlyphs" textLength="77" x="57.5" y="24.1387">&lt;entity_uri&gt;</text><line style="stroke: #A80036; stroke-width: 1.5;" x1="44.5" x2="147.5" y1="31.9688" y2="31.9688"/><text fill="#000000" font-family="sans-serif" font-size="11" lengthAdjust="spacingAndGlyphs" textLength="93" x="49.5" y="46.1792">a crm:E39_Actor</text><!--class _actor_name_--><rect fill="#FEFECE" filter="url(#f9rhy6g)" height="23.9688" style="stroke: #A80036; stroke-width: 1.5;" width="100" x="6" y="262.5"/><text fill="#000000" font-family="sans-serif" font-size="12" lengthAdjust="spacingAndGlyphs" textLength="94" x="9" y="278.6387">&lt;actor_name&gt;</text><!--class _actor_class_--><rect fill="#FEFECE" filter="url(#f9rhy6g)" height="44.7734" style="stroke: #A80036; stroke-width: 1.5;" width="173" x="131.5" y="130"/><text fill="#000000" font-family="sans-serif" font-size="12" lengthAdjust="spacingAndGlyphs" textLength="91" x="172.5" y="146.1387">&lt;actor_class&gt;</text><line style="stroke: #A80036; stroke-width: 1.5;" x1="132.5" x2="303.5" y1="153.9688" y2="153.9688"/><text fill="#000000" font-family="sans-serif" font-size="11" lengthAdjust="spacingAndGlyphs" textLength="161" x="137.5" y="168.1792">a crm:E82_Actor_Appellation</text><path d="M83.6375,53.353 C73.4022,72.78 59.6561,102.314 54,130 C44.7425,175.314 49.9617,230.3611 53.5309,257.2021 " fill="none" style="stroke: #A80036; stroke-width: 1.0; stroke-dasharray: 7.0,7.0;"/><polygon fill="#A80036" points="54.2179,262.183,56.9502,252.7207,53.5345,257.2299,49.0253,253.8142,54.2179,262.183" style="stroke: #A80036; stroke-width: 1.0;"/><text fill="#000000" font-family="sans-serif" font-size="13" lengthAdjust="spacingAndGlyphs" textLength="58" x="55" y="157.0669">rdfs:label</text><path d="M118.093,53.231 C138.995,73.79 170.355,104.636 192.351,126.272 " fill="none" style="stroke: #A80036; stroke-width: 1.0;"/><polygon fill="#A80036" points="196.071,129.931,192.4613,120.7675,192.507,126.4242,186.8503,126.4699,196.071,129.931" style="stroke: #A80036; stroke-width: 1.0;"/><text fill="#000000" font-family="sans-serif" font-size="13" lengthAdjust="spacingAndGlyphs" textLength="165" x="166" y="96.0669">crm:P131_is_identified_by</text><path d="M218,175.231 C218,195.365 218,225.3661 218,246.9192 " fill="none" style="stroke: #A80036; stroke-width: 1.0;"/><polygon fill="#A80036" points="218,251.9306,222,242.9306,218,246.9306,214,242.9306,218,251.9306" style="stroke: #A80036; stroke-width: 1.0;"/><text fill="#000000" font-family="sans-serif" font-size="13" lengthAdjust="spacingAndGlyphs" textLength="110" x="219" y="218.0669">crm:P2_has_type</text><path d="M188.663,175.231 C155.774,199.5931 103.3826,238.4018 75.2909,259.2105 " fill="none" style="stroke: #A80036; stroke-width: 1.0;"/><polygon fill="#A80036" points="70.9977,262.3906,80.6106,260.2479,75.0155,259.4145,75.8489,253.8194,70.9977,262.3906" style="stroke: #A80036; stroke-width: 1.0;"/><text fill="#000000" font-family="sans-serif" font-size="13" lengthAdjust="spacingAndGlyphs" textLength="55" x="148" y="218.0669">rdf:value</text></g></svg>