<?xml version="1.0" encoding="UTF-8" standalone="no"?><svg xmlns="http://www.w3.org/2000/svg" xmlns:xlink="http://www.w3.org/1999/xlink" contentScriptType="application/ecmascript" contentStyleType="text/css" height="427px" preserveAspectRatio="none" style="width:593px;height:427px;" version="1.1" viewBox="0 0 593 427" width="593px" zoomAndPan="magnify"><defs><filter height="300%" id="fo2wji0" width="300%" x="-1" y="-1"><feGaussianBlur result="blurOut" stdDeviation="2.0"/><feColorMatrix in="blurOut" result="blurOut2" type="matrix" values="0 0 0 0 0 0 0 0 0 0 0 0 0 0 0 0 0 0 .4 0"/><feOffset dx="4.0" dy="4.0" in="blurOut2" result="blurOut3"/><feBlend in="SourceGraphic" in2="blurOut3" mode="normal"/></filter></defs><g><!--class aat_300263534--><rect fill="#FEFECE" filter="url(#fo2wji0)" height="44.7734" style="stroke: #A80036; stroke-width: 1.5;" width="218" x="6" y="374"/><text fill="#000000" font-family="sans-serif" font-size="12" lengthAdjust="spacingAndGlyphs" textLength="97" x="66.5" y="390.1387">aat:300263534</text><line style="stroke: #A80036; stroke-width: 1.5;" x1="7" x2="223" y1="397.9688" y2="397.9688"/><text fill="#000000" font-family="sans-serif" font-size="11" lengthAdjust="spacingAndGlyphs" textLength="206" x="12" y="412.1792">"departments [organizational units]"</text><!--class _department_class_--><rect fill="#FEFECE" filter="url(#fo2wji0)" height="44.7734" style="stroke: #A80036; stroke-width: 1.5;" width="138" x="153" y="252"/><text fill="#000000" font-family="sans-serif" font-size="12" lengthAdjust="spacingAndGlyphs" textLength="132" x="156" y="268.1387">&lt;department_class&gt;</text><line style="stroke: #A80036; stroke-width: 1.5;" x1="154" x2="290" y1="275.9688" y2="275.9688"/><text fill="#000000" font-family="sans-serif" font-size="11" lengthAdjust="spacingAndGlyphs" textLength="99" x="159" y="290.1792">a crm:E74_Group</text><!--class _department_name_--><rect fill="#FEFECE" filter="url(#fo2wji0)" height="23.9688" style="stroke: #A80036; stroke-width: 1.5;" width="141" x="259.5" y="384.5"/><text fill="#000000" font-family="sans-serif" font-size="12" lengthAdjust="spacingAndGlyphs" textLength="135" x="262.5" y="400.6387">&lt;department_name&gt;</text><!--class _collection_class_--><rect fill="#FEFECE" filter="url(#fo2wji0)" height="44.7734" style="stroke: #A80036; stroke-width: 1.5;" width="164" x="289" y="130"/><text fill="#000000" font-family="sans-serif" font-size="12" lengthAdjust="spacingAndGlyphs" textLength="118" x="312" y="146.1387">&lt;collection_class&gt;</text><line style="stroke: #A80036; stroke-width: 1.5;" x1="290" x2="452" y1="153.9688" y2="153.9688"/><text fill="#000000" font-family="sans-serif" font-size="11" lengthAdjust="spacingAndGlyphs" textLength="152" x="295" y="168.1792">a crm:E19_Physical_Object</text><!--class _collection_name_--><rect fill="#FEFECE" filter="url(#fo2wji0)" height="23.9688" style="stroke: #A80036; stroke-width: 1.5;" width="127" x="457.5" y="262.5"/><text fill="#000000" font-family="sans-serif" font-size="12" lengthAdjust="spacingAndGlyphs" textLength="121" x="460.5" y="278.6387">&lt;collection_name&gt;</text><!--class _entity_uri_--><rect fill="#FEFECE" filter="url(#fo2wji0)" height="44.7734" style="stroke: #A80036; stroke-width: 1.5;" width="175" x="283.5" y="8"/><text fill="#000000" font-family="sans-serif" font-size="12" lengthAdjust="spacingAndGlyphs" textLength="77" x="332.5" y="24.1387">&lt;entity_uri&gt;</text><line style="stroke: #A80036; stroke-width: 1.5;" x1="284.5" x2="457.5" y1="31.9688" y2="31.9688"/><text fill="#000000" font-family="sans-serif" font-size="11" lengthAdjust="spacingAndGlyphs" textLength="163" x="289.5" y="46.1792">a crm:E22_Man-Made_Object</text><path d="M202.005,297.212 C193.62,306.368 183.794,317.164 175,327 C162.395,341.0984 148.469,356.9782 137.208,369.8961 " fill="none" style="stroke: #A80036; stroke-width: 1.0;"/><polygon fill="#A80036" points="133.804,373.8048,142.7309,369.6441,137.0875,370.034,136.6976,364.3906,133.804,373.8048" style="stroke: #A80036; stroke-width: 1.0;"/><text fill="#000000" font-family="sans-serif" font-size="13" lengthAdjust="spacingAndGlyphs" textLength="110" x="176" y="340.0669">crm:p2_has_type</text><path d="M256.615,297.085 C268.41,305.489 281.103,315.798 291,327 C305.164,343.0326 316.573,365.0282 323.309,379.7254 " fill="none" style="stroke: #A80036; stroke-width: 1.0;"/><polygon fill="#A80036" points="325.412,384.4108,325.376,374.562,323.3646,379.8492,318.0775,377.8378,325.412,384.4108" style="stroke: #A80036; stroke-width: 1.0;"/><text fill="#000000" font-family="sans-serif" font-size="13" lengthAdjust="spacingAndGlyphs" textLength="58" x="304" y="340.0669">rdfs:label</text><path d="M288.946,162.232 C262.248,169.417 235.317,182.244 219,205 C210.475,216.89 210.827,233.152 213.497,246.848 " fill="none" style="stroke: #A80036; stroke-width: 1.0;"/><polygon fill="#A80036" points="214.574,251.765,216.5554,242.1175,213.504,246.8808,208.7407,243.8295,214.574,251.765" style="stroke: #A80036; stroke-width: 1.0;"/><text fill="#000000" font-family="sans-serif" font-size="13" lengthAdjust="spacingAndGlyphs" textLength="257" x="220" y="218.0669">crm:P49_has_former_or_current_keeper</text><path d="M435.05,175.104 C451.617,182.758 468.555,192.63 482,205 C497.924,219.652 509.056,242.338 515.24,257.543 " fill="none" style="stroke: #A80036; stroke-width: 1.0;"/><polygon fill="#A80036" points="517.147,262.39,517.5753,252.5505,515.3169,257.737,510.1304,255.4786,517.147,262.39" style="stroke: #A80036; stroke-width: 1.0;"/><text fill="#000000" font-family="sans-serif" font-size="13" lengthAdjust="spacingAndGlyphs" textLength="58" x="497" y="218.0669">rdfs:label</text><path d="M371,53.231 C371,73.365 371,103.366 371,124.919 " fill="none" style="stroke: #A80036; stroke-width: 1.0;"/><polygon fill="#A80036" points="371,129.931,375,120.931,371,124.931,367,120.931,371,129.931" style="stroke: #A80036; stroke-width: 1.0;"/><text fill="#000000" font-family="sans-serif" font-size="13" lengthAdjust="spacingAndGlyphs" textLength="152" x="372" y="96.0669">crm:P46i_forms_part_of</text></g></svg>