<?xml version="1.0" encoding="UTF-8" standalone="no"?><svg xmlns="http://www.w3.org/2000/svg" xmlns:xlink="http://www.w3.org/1999/xlink" contentScriptType="application/ecmascript" contentStyleType="text/css" height="284px" preserveAspectRatio="none" style="width:305px;height:284px;" version="1.1" viewBox="0 0 305 284" width="305px" zoomAndPan="magnify"><defs><filter height="300%" id="fia8uyw" width="300%" x="-1" y="-1"><feGaussianBlur result="blurOut" stdDeviation="2.0"/><feColorMatrix in="blurOut" result="blurOut2" type="matrix" values="0 0 0 0 0 0 0 0 0 0 0 0 0 0 0 0 0 0 .4 0"/><feOffset dx="4.0" dy="4.0" in="blurOut2" result="blurOut3"/><feBlend in="SourceGraphic" in2="blurOut3" mode="normal"/></filter></defs><g><!--class _entity_uri_--><rect fill="#FEFECE" filter="url(#fia8uyw)" height="44.7734" style="stroke: #A80036; stroke-width: 1.5;" width="175" x="68" y="8"/><text fill="#000000" font-family="sans-serif" font-size="12" lengthAdjust="spacingAndGlyphs" textLength="77" x="117" y="24.1387">&lt;entity_uri&gt;</text><line style="stroke: #A80036; stroke-width: 1.5;" x1="69" x2="242" y1="31.9688" y2="31.9688"/><text fill="#000000" font-family="sans-serif" font-size="11" lengthAdjust="spacingAndGlyphs" textLength="163" x="74" y="46.1792">a crm:E22_Man-Made_Object</text><!--class _concept_class_--><rect fill="#FEFECE" filter="url(#fia8uyw)" height="44.7734" style="stroke: #A80036; stroke-width: 1.5;" width="115" x="98" y="130"/><text fill="#000000" font-family="sans-serif" font-size="12" lengthAdjust="spacingAndGlyphs" textLength="109" x="101" y="146.1387">&lt;concept_class&gt;</text><line style="stroke: #A80036; stroke-width: 1.5;" x1="99" x2="212" y1="153.9688" y2="153.9688"/><text fill="#000000" font-family="sans-serif" font-size="11" lengthAdjust="spacingAndGlyphs" textLength="103" x="104" y="168.1792">a &lt;concept_type&gt;</text><!--class _lod_concept_term_--><rect fill="#FEFECE" filter="url(#fia8uyw)" height="23.9688" style="stroke: #A80036; stroke-width: 1.5;" width="137" x="6" y="252"/><text fill="#000000" font-family="sans-serif" font-size="12" lengthAdjust="spacingAndGlyphs" textLength="131" x="9" y="268.1387">&lt;lod_concept_term&gt;</text><!--class _concept_name_--><rect fill="#FEFECE" filter="url(#fia8uyw)" height="23.9688" style="stroke: #A80036; stroke-width: 1.5;" width="118" x="178.5" y="252"/><text fill="#000000" font-family="sans-serif" font-size="12" lengthAdjust="spacingAndGlyphs" textLength="112" x="181.5" y="268.1387">&lt;concept_name&gt;</text><path d="M155.5,53.231 C155.5,73.365 155.5,103.366 155.5,124.919 " fill="none" style="stroke: #A80036; stroke-width: 1.0;"/><polygon fill="#A80036" points="155.5,129.931,159.5,120.931,155.5,124.931,151.5,120.931,155.5,129.931" style="stroke: #A80036; stroke-width: 1.0;"/><text fill="#000000" font-family="sans-serif" font-size="13" lengthAdjust="spacingAndGlyphs" textLength="111" x="156.5" y="96.0669">crm:P128_carries</text><path d="M113.84,175.004 C102.2972,182.9229 90.9134,192.9603 83.5,205 C75.8089,217.4907 73.9216,234.2736 73.743,246.5719 " fill="none" style="stroke: #A80036; stroke-width: 1.0;"/><polygon fill="#A80036" points="73.7664,251.8754,77.7265,242.8578,73.7443,246.8754,69.7266,242.8932,73.7664,251.8754" style="stroke: #A80036; stroke-width: 1.0;"/><text fill="#000000" font-family="sans-serif" font-size="13" lengthAdjust="spacingAndGlyphs" textLength="109" x="84.5" y="218.0669">skos:broadMatch</text><path d="M174.427,175.148 C182.116,184.2008 190.949,194.9388 198.5,205 C208.917,218.8796 219.867,235.3529 227.503,247.1902 " fill="none" style="stroke: #A80036; stroke-width: 1.0;"/><polygon fill="#A80036" points="230.36,251.6422,228.8665,241.9072,227.6599,247.4339,222.1332,246.2274,230.36,251.6422" style="stroke: #A80036; stroke-width: 1.0;"/><text fill="#000000" font-family="sans-serif" font-size="13" lengthAdjust="spacingAndGlyphs" textLength="92" x="211.5" y="218.0669">skos:prefLabel</text></g></svg>