<?xml version="1.0" encoding="UTF-8" standalone="no"?><svg xmlns="http://www.w3.org/2000/svg" xmlns:xlink="http://www.w3.org/1999/xlink" contentScriptType="application/ecmascript" contentStyleType="text/css" height="320px" preserveAspectRatio="none" style="width:290px;height:320px;" version="1.1" viewBox="0 0 290 320" width="290px" zoomAndPan="magnify"><defs><filter height="300%" id="f1vj8sh" width="300%" x="-1" y="-1"><feGaussianBlur result="blurOut" stdDeviation="2.0"/><feColorMatrix in="blurOut" result="blurOut2" type="matrix" values="0 0 0 0 0 0 0 0 0 0 0 0 0 0 0 0 0 0 .4 0"/><feOffset dx="4.0" dy="4.0" in="blurOut2" result="blurOut3"/><feBlend in="SourceGraphic" in2="blurOut3" mode="normal"/></filter></defs><g><!--class _identifier_url_--><rect fill="#FEFECE" filter="url(#f1vj8sh)" height="44.7734" style="stroke: #A80036; stroke-width: 1.5;" width="126" x="76" y="130"/><text fill="#000000" font-family="sans-serif" font-size="12" lengthAdjust="spacingAndGlyphs" textLength="97" x="90.5" y="146.1387">&lt;identifier_url&gt;</text><line style="stroke: #A80036; stroke-width: 1.5;" x1="77" x2="201" y1="153.9688" y2="153.9688"/><text fill="#000000" font-family="sans-serif" font-size="11" lengthAdjust="spacingAndGlyphs" textLength="114" x="82" y="168.1792">a crm:E42_Identifier</text><!--class aat_300404670--><rect fill="#FEFECE" filter="url(#f1vj8sh)" height="44.7734" style="stroke: #A80036; stroke-width: 1.5;" width="114" x="6" y="267"/><text fill="#000000" font-family="sans-serif" font-size="12" lengthAdjust="spacingAndGlyphs" textLength="97" x="14.5" y="283.1387">aat:300404670</text><line style="stroke: #A80036; stroke-width: 1.5;" x1="7" x2="119" y1="290.9688" y2="290.9688"/><text fill="#000000" font-family="sans-serif" font-size="11" lengthAdjust="spacingAndGlyphs" textLength="102" x="12" y="305.1792">"preferred terms"</text><!--class _identifier_--><rect fill="#FEFECE" filter="url(#f1vj8sh)" height="23.9688" style="stroke: #A80036; stroke-width: 1.5;" width="81" x="174.5" y="277.5"/><text fill="#000000" font-family="sans-serif" font-size="12" lengthAdjust="spacingAndGlyphs" textLength="75" x="177.5" y="293.6387">&lt;identifier&gt;</text><!--class _entity_uri_--><rect fill="#FEFECE" filter="url(#f1vj8sh)" height="44.7734" style="stroke: #A80036; stroke-width: 1.5;" width="105" x="86.5" y="8"/><text fill="#000000" font-family="sans-serif" font-size="12" lengthAdjust="spacingAndGlyphs" textLength="77" x="100.5" y="24.1387">&lt;entity_uri&gt;</text><line style="stroke: #A80036; stroke-width: 1.5;" x1="87.5" x2="190.5" y1="31.9688" y2="31.9688"/><text fill="#000000" font-family="sans-serif" font-size="11" lengthAdjust="spacingAndGlyphs" textLength="93" x="92.5" y="46.1792">a crm:E39_Actor</text><path d="M89.6301,175.091 C77.824,182.746 66.7076,192.62 60,205 C50.6687,222.222 52.016,244.5073 55.3728,261.723 " fill="none" style="stroke: #A80036; stroke-width: 1.0;"/><polygon fill="#A80036" points="56.4695,266.8919,58.5143,257.2576,55.4317,262.0008,50.6885,258.9182,56.4695,266.8919" style="stroke: #A80036; stroke-width: 1.0;"/><text fill="#000000" font-family="sans-serif" font-size="13" lengthAdjust="spacingAndGlyphs" textLength="110" x="61" y="225.5669">crm:P2_has_type</text><path d="M155.96,175.201 C162.604,184.172 170.045,194.836 176,205 C189.194,227.5193 201.408,255.2434 208.535,272.3957 " fill="none" style="stroke: #A80036; stroke-width: 1.0;"/><polygon fill="#A80036" points="210.578,277.3619,210.8525,267.5169,208.6755,272.738,203.4543,270.5609,210.578,277.3619" style="stroke: #A80036; stroke-width: 1.0;"/><text fill="#000000" font-family="sans-serif" font-size="13" lengthAdjust="spacingAndGlyphs" textLength="58" x="194" y="218.0669">rdfs:label</text><text fill="#000000" font-family="sans-serif" font-size="13" lengthAdjust="spacingAndGlyphs" textLength="55" x="195.5" y="233.1997">rdf:value</text><path d="M139,53.231 C139,73.365 139,103.366 139,124.919 " fill="none" style="stroke: #A80036; stroke-width: 1.0;"/><polygon fill="#A80036" points="139,129.931,143,120.931,139,124.931,135,120.931,139,129.931" style="stroke: #A80036; stroke-width: 1.0;"/><text fill="#000000" font-family="sans-serif" font-size="13" lengthAdjust="spacingAndGlyphs" textLength="149" x="140" y="96.0669">crm:P1_is_identified_by</text></g></svg>