<?xml version="1.0" encoding="UTF-8" standalone="no"?><svg xmlns="http://www.w3.org/2000/svg" xmlns:xlink="http://www.w3.org/1999/xlink" contentScriptType="application/ecmascript" contentStyleType="text/css" height="305px" preserveAspectRatio="none" style="width:1281px;height:305px;" version="1.1" viewBox="0 0 1281 305" width="1281px" zoomAndPan="magnify"><defs><filter height="300%" id="fyv701p" width="300%" x="-1" y="-1"><feGaussianBlur result="blurOut" stdDeviation="2.0"/><feColorMatrix in="blurOut" result="blurOut2" type="matrix" values="0 0 0 0 0 0 0 0 0 0 0 0 0 0 0 0 0 0 .4 0"/><feOffset dx="4.0" dy="4.0" in="blurOut2" result="blurOut3"/><feBlend in="SourceGraphic" in2="blurOut3" mode="normal"/></filter></defs><g><!--class _vase_--><rect fill="#FEFECE" filter="url(#fyv701p)" height="44.7734" style="stroke: #A80036; stroke-width: 1.5;" width="175" x="16" y="130"/><text fill="#000000" font-family="sans-serif" font-size="12" lengthAdjust="spacingAndGlyphs" textLength="49" x="79" y="146.1387">&lt;vase&gt;</text><line style="stroke: #A80036; stroke-width: 1.5;" x1="17" x2="190" y1="153.9688" y2="153.9688"/><text fill="#000000" font-family="sans-serif" font-size="11" lengthAdjust="spacingAndGlyphs" textLength="163" x="22" y="168.1792">a crm:E22_Man-Made_Object</text><!--class _vase_addition_--><rect fill="#FEFECE" filter="url(#fyv701p)" height="44.7734" style="stroke: #A80036; stroke-width: 1.5;" width="150" x="259.5" y="252"/><text fill="#000000" font-family="sans-serif" font-size="12" lengthAdjust="spacingAndGlyphs" textLength="106" x="281.5" y="268.1387">&lt;vase_addition&gt;</text><line style="stroke: #A80036; stroke-width: 1.5;" x1="260.5" x2="408.5" y1="275.9688" y2="275.9688"/><text fill="#000000" font-family="sans-serif" font-size="11" lengthAdjust="spacingAndGlyphs" textLength="138" x="265.5" y="290.1792">a crm:E79_Part_Addition</text><!--class _transaction_of_candlestick_--><rect fill="#FEFECE" filter="url(#fyv701p)" height="44.7734" style="stroke: #A80036; stroke-width: 1.5;" width="309" x="808" y="8"/><text fill="#000000" font-family="sans-serif" font-size="12" lengthAdjust="spacingAndGlyphs" textLength="187" x="869" y="24.1387">&lt;transaction_of_candlestick&gt;</text><line style="stroke: #A80036; stroke-width: 1.5;" x1="809" x2="1116" y1="31.9688" y2="31.9688"/><text fill="#000000" font-family="sans-serif" font-size="11" lengthAdjust="spacingAndGlyphs" textLength="297" x="814" y="46.1792">a crm:E8_Acquisition, crm:E10_Transfer_of_Custody</text><!--class _sale_of_lot_--><rect fill="#FEFECE" filter="url(#fyv701p)" height="44.7734" style="stroke: #A80036; stroke-width: 1.5;" width="100" x="691.5" y="130"/><text fill="#000000" font-family="sans-serif" font-size="12" lengthAdjust="spacingAndGlyphs" textLength="86" x="698.5" y="146.1387">&lt;sale_of_lot&gt;</text><line style="stroke: #A80036; stroke-width: 1.5;" x1="692.5" x2="790.5" y1="153.9688" y2="153.9688"/><text fill="#000000" font-family="sans-serif" font-size="11" lengthAdjust="spacingAndGlyphs" textLength="88" x="697.5" y="168.1792">a crm:E5_Event</text><!--class _candlestick_--><rect fill="#FEFECE" filter="url(#fyv701p)" height="44.7734" style="stroke: #A80036; stroke-width: 1.5;" width="175" x="1097" y="130"/><text fill="#000000" font-family="sans-serif" font-size="12" lengthAdjust="spacingAndGlyphs" textLength="91" x="1139" y="146.1387">&lt;candlestick&gt;</text><line style="stroke: #A80036; stroke-width: 1.5;" x1="1098" x2="1271" y1="153.9688" y2="153.9688"/><text fill="#000000" font-family="sans-serif" font-size="11" lengthAdjust="spacingAndGlyphs" textLength="163" x="1103" y="168.1792">a crm:E22_Man-Made_Object</text><!--class _candlestick_addition_--><rect fill="#FEFECE" filter="url(#fyv701p)" height="44.7734" style="stroke: #A80036; stroke-width: 1.5;" width="154" x="879.5" y="252"/><text fill="#000000" font-family="sans-serif" font-size="12" lengthAdjust="spacingAndGlyphs" textLength="148" x="882.5" y="268.1387">&lt;candlestick_addition&gt;</text><line style="stroke: #A80036; stroke-width: 1.5;" x1="880.5" x2="1032.5" y1="275.9688" y2="275.9688"/><text fill="#000000" font-family="sans-serif" font-size="11" lengthAdjust="spacingAndGlyphs" textLength="138" x="885.5" y="290.1792">a crm:E79_Part_Addition</text><!--class _transaction_of_vase_--><rect fill="#FEFECE" filter="url(#fyv701p)" height="44.7734" style="stroke: #A80036; stroke-width: 1.5;" width="309" x="6" y="8"/><text fill="#000000" font-family="sans-serif" font-size="12" lengthAdjust="spacingAndGlyphs" textLength="145" x="88" y="24.1387">&lt;transaction_of_vase&gt;</text><line style="stroke: #A80036; stroke-width: 1.5;" x1="7" x2="314" y1="31.9688" y2="31.9688"/><text fill="#000000" font-family="sans-serif" font-size="11" lengthAdjust="spacingAndGlyphs" textLength="297" x="12" y="46.1792">a crm:E8_Acquisition, crm:E10_Transfer_of_Custody</text><!--class _lot_--><rect fill="#FEFECE" filter="url(#fyv701p)" height="44.7734" style="stroke: #A80036; stroke-width: 1.5;" width="131" x="622" y="8"/><text fill="#000000" font-family="sans-serif" font-size="12" lengthAdjust="spacingAndGlyphs" textLength="36" x="669.5" y="24.1387">&lt;lot&gt;</text><line style="stroke: #A80036; stroke-width: 1.5;" x1="623" x2="752" y1="31.9688" y2="31.9688"/><text fill="#000000" font-family="sans-serif" font-size="11" lengthAdjust="spacingAndGlyphs" textLength="119" x="628" y="46.1792">a crm:E78_Collection</text><path d="M145.065,175.092 C185.421,196.056 246.551,227.8124 288.386,249.5444 " fill="none" style="stroke: #A80036; stroke-width: 1.0;"/><polygon fill="#A80036" points="292.88,251.8791,286.7364,244.1813,288.4427,249.5747,283.0493,251.2809,292.88,251.8791" style="stroke: #A80036; stroke-width: 1.0;"/><text fill="#000000" font-family="sans-serif" font-size="13" lengthAdjust="spacingAndGlyphs" textLength="164" x="234.5" y="218.0669">crm:P111i_was_added_by</text><path d="M926.333,53.006 C902.897,66.771 871.61,84.828 843.5,100 C826.267,109.302 807.157,119.088 790.18,127.601 " fill="none" style="stroke: #A80036; stroke-width: 1.0;"/><polygon fill="#A80036" points="785.452,129.967,795.2906,129.5173,789.9236,127.7298,791.711,122.3628,785.452,129.967" style="stroke: #A80036; stroke-width: 1.0;"/><text fill="#000000" font-family="sans-serif" font-size="13" lengthAdjust="spacingAndGlyphs" textLength="160" x="874.5" y="96.0669">crm:P106i_forms_part_of</text><path d="M1002.446,53.092 C1041.07,73.971 1099.5,105.555 1139.69,127.28 " fill="none" style="stroke: #A80036; stroke-width: 1.0;"/><polygon fill="#A80036" points="1144.5,129.879,1138.4762,122.0871,1140.0989,127.5062,1134.6798,129.1289,1144.5,129.879" style="stroke: #A80036; stroke-width: 1.0;"/><text fill="#000000" font-family="sans-serif" font-size="13" lengthAdjust="spacingAndGlyphs" textLength="181" x="1087.5" y="96.0669">crm:P24_transferred_title_of</text><path d="M1143.47,175.092 C1103.64,196.056 1043.31,227.8124 1002.016,249.5444 " fill="none" style="stroke: #A80036; stroke-width: 1.0;"/><polygon fill="#A80036" points="997.58,251.8791,1007.4073,251.2273,1002.0047,249.5505,1003.6815,244.1479,997.58,251.8791" style="stroke: #A80036; stroke-width: 1.0;"/><text fill="#000000" font-family="sans-serif" font-size="13" lengthAdjust="spacingAndGlyphs" textLength="164" x="1084.5" y="218.0669">crm:P111i_was_added_by</text><path d="M80.07,53.046 C66.3743,60.336 53.8857,70.057 45.5,83 C35.5021,98.432 47.0439,114.191 62.3926,126.698 " fill="none" style="stroke: #A80036; stroke-width: 1.0;"/><polygon fill="#A80036" points="66.3661,129.805,61.7406,121.1099,62.4274,126.7249,56.8124,127.4118,66.3661,129.805" style="stroke: #A80036; stroke-width: 1.0;"/><text fill="#000000" font-family="sans-serif" font-size="13" lengthAdjust="spacingAndGlyphs" textLength="181" x="46.5" y="96.0669">crm:P24_transferred_title_of</text><path d="M270.448,53.044 C339.394,66.547 430.133,84.308 510.5,100 C578.939,113.363 596.643,113.944 664.5,130 C671.523,131.662 678.87,133.536 686.12,135.467 " fill="none" style="stroke: #A80036; stroke-width: 1.0;"/><polygon fill="#A80036" points="691.118,136.811,683.4656,130.6109,686.2896,135.5125,681.388,138.3364,691.118,136.811" style="stroke: #A80036; stroke-width: 1.0;"/><text fill="#000000" font-family="sans-serif" font-size="13" lengthAdjust="spacingAndGlyphs" textLength="160" x="511.5" y="96.0669">crm:P106i_forms_part_of</text><path d="M681.751,53.1 C679.167,67.068 677.976,85.314 684.5,100 C688.92,109.951 696.318,118.792 704.345,126.22 " fill="none" style="stroke: #A80036; stroke-width: 1.0;"/><polygon fill="#A80036" points="708.326,129.752,704.2472,120.7874,704.5854,126.4342,698.9387,126.7724,708.326,129.752" style="stroke: #A80036; stroke-width: 1.0;"/><text fill="#000000" font-family="sans-serif" font-size="13" lengthAdjust="spacingAndGlyphs" textLength="149" x="685.5" y="96.0669">crm:P16i_was_used_for</text><path d="M753.195,41.323 C782.562,48.603 815.815,61.214 839.5,83 C872.315,113.185 856.699,136.685 879.5,175 C895.186,201.3585 917.017,228.6307 933.429,247.7762 " fill="none" style="stroke: #A80036; stroke-width: 1.0;"/><polygon fill="#A80036" points="937.055,251.9768,934.203,242.5499,933.7882,248.1915,928.1466,247.7767,937.055,251.9768" style="stroke: #A80036; stroke-width: 1.0;"/><text fill="#000000" font-family="sans-serif" font-size="13" lengthAdjust="spacingAndGlyphs" textLength="198" x="880.5" y="157.0669">crm:P110i_was_augmented_by</text><path d="M621.736,51.743 C576.67,67.886 517.348,93.816 473.5,130 C434.687,162.029 443.224,186.558 407.5,222 C397.596,231.8263 385.639,241.1057 374.294,249.0092 " fill="none" style="stroke: #A80036; stroke-width: 1.0;"/><polygon fill="#A80036" points="370.147,251.8573,379.8301,250.0581,374.2682,249.0261,375.3002,243.4642,370.147,251.8573" style="stroke: #A80036; stroke-width: 1.0;"/><text fill="#000000" font-family="sans-serif" font-size="13" lengthAdjust="spacingAndGlyphs" textLength="198" x="474.5" y="157.0669">crm:P110i_was_augmented_by</text></g></svg>