<?xml version="1.0" encoding="UTF-8" standalone="no"?><svg xmlns="http://www.w3.org/2000/svg" xmlns:xlink="http://www.w3.org/1999/xlink" contentScriptType="application/ecmascript" contentStyleType="text/css" height="305px" preserveAspectRatio="none" style="width:319px;height:305px;" version="1.1" viewBox="0 0 319 305" width="319px" zoomAndPan="magnify"><defs><filter height="300%" id="f4lisfj" width="300%" x="-1" y="-1"><feGaussianBlur result="blurOut" stdDeviation="2.0"/><feColorMatrix in="blurOut" result="blurOut2" type="matrix" values="0 0 0 0 0 0 0 0 0 0 0 0 0 0 0 0 0 0 .4 0"/><feOffset dx="4.0" dy="4.0" in="blurOut2" result="blurOut3"/><feBlend in="SourceGraphic" in2="blurOut3" mode="normal"/></filter></defs><g><!--class _entity_uri_--><rect fill="#FEFECE" filter="url(#f4lisfj)" height="44.7734" style="stroke: #A80036; stroke-width: 1.5;" width="175" x="56.5" y="8"/><text fill="#000000" font-family="sans-serif" font-size="12" lengthAdjust="spacingAndGlyphs" textLength="77" x="105.5" y="24.1387">&lt;entity_uri&gt;</text><line style="stroke: #A80036; stroke-width: 1.5;" x1="57.5" x2="230.5" y1="31.9688" y2="31.9688"/><text fill="#000000" font-family="sans-serif" font-size="11" lengthAdjust="spacingAndGlyphs" textLength="163" x="62.5" y="46.1792">a crm:E22_Man-Made_Object</text><!--class _credit_line_class_--><rect fill="#FEFECE" filter="url(#f4lisfj)" height="44.7734" style="stroke: #A80036; stroke-width: 1.5;" width="171" x="58.5" y="130"/><text fill="#000000" font-family="sans-serif" font-size="12" lengthAdjust="spacingAndGlyphs" textLength="122" x="83" y="146.1387">&lt;credit_line_class&gt;</text><line style="stroke: #A80036; stroke-width: 1.5;" x1="59.5" x2="228.5" y1="153.9688" y2="153.9688"/><text fill="#000000" font-family="sans-serif" font-size="11" lengthAdjust="spacingAndGlyphs" textLength="159" x="64.5" y="168.1792">a crm:E33_Linguistic_Object</text><!--class aat_300026687--><rect fill="#FEFECE" filter="url(#f4lisfj)" height="44.7734" style="stroke: #A80036; stroke-width: 1.5;" width="124" x="6" y="252"/><text fill="#000000" font-family="sans-serif" font-size="12" lengthAdjust="spacingAndGlyphs" textLength="97" x="19.5" y="268.1387">aat:300026687</text><line style="stroke: #A80036; stroke-width: 1.5;" x1="7" x2="129" y1="275.9688" y2="275.9688"/><text fill="#000000" font-family="sans-serif" font-size="11" lengthAdjust="spacingAndGlyphs" textLength="112" x="12" y="290.1792">"acknowledgments"</text><!--class _credit_line_--><rect fill="#FEFECE" filter="url(#f4lisfj)" height="23.9688" style="stroke: #A80036; stroke-width: 1.5;" width="90" x="175" y="262.5"/><text fill="#000000" font-family="sans-serif" font-size="12" lengthAdjust="spacingAndGlyphs" textLength="84" x="178" y="278.6387">&lt;credit_line&gt;</text><path d="M144,53.231 C144,73.365 144,103.366 144,124.919 " fill="none" style="stroke: #A80036; stroke-width: 1.0;"/><polygon fill="#A80036" points="144,129.931,148,120.931,144,124.931,140,120.931,144,129.931" style="stroke: #A80036; stroke-width: 1.0;"/><text fill="#000000" font-family="sans-serif" font-size="13" lengthAdjust="spacingAndGlyphs" textLength="173" x="145" y="96.0669">crm:P67i_is_referred_to_by</text><path d="M94.6301,175.091 C82.824,182.746 71.7076,192.62 65,205 C58.1915,217.566 58.4291,233.4122 60.6013,246.6978 " fill="none" style="stroke: #A80036; stroke-width: 1.0;"/><polygon fill="#A80036" points="61.5566,251.8395,63.8451,242.2602,60.6432,246.9236,55.9797,243.7217,61.5566,251.8395" style="stroke: #A80036; stroke-width: 1.0;"/><text fill="#000000" font-family="sans-serif" font-size="13" lengthAdjust="spacingAndGlyphs" textLength="110" x="66" y="218.0669">crm:P2_has_type</text><path d="M160.364,175.201 C166.993,184.262 174.581,194.992 181,205 C192.284,222.5936 203.986,243.5767 211.59,257.6423 " fill="none" style="stroke: #A80036; stroke-width: 1.0;"/><polygon fill="#A80036" points="214.005,262.1323,213.2635,252.3114,211.6361,257.7291,206.2184,256.1016,214.005,262.1323" style="stroke: #A80036; stroke-width: 1.0;"/><text fill="#000000" font-family="sans-serif" font-size="13" lengthAdjust="spacingAndGlyphs" textLength="55" x="192" y="218.0669">rdf:value</text></g></svg>