<?xml version="1.0" encoding="UTF-8" standalone="no"?><svg xmlns="http://www.w3.org/2000/svg" xmlns:xlink="http://www.w3.org/1999/xlink" contentScriptType="application/ecmascript" contentStyleType="text/css" height="310px" preserveAspectRatio="none" style="width:332px;height:310px;" version="1.1" viewBox="0 0 332 310" width="332px" zoomAndPan="magnify"><defs><filter height="300%" id="fk48yul" width="300%" x="-1" y="-1"><feGaussianBlur result="blurOut" stdDeviation="2.0"/><feColorMatrix in="blurOut" result="blurOut2" type="matrix" values="0 0 0 0 0 0 0 0 0 0 0 0 0 0 0 0 0 0 .4 0"/><feOffset dx="4.0" dy="4.0" in="blurOut2" result="blurOut3"/><feBlend in="SourceGraphic" in2="blurOut3" mode="normal"/></filter></defs><g><!--class _image_--><rect fill="#FEFECE" filter="url(#fk48yul)" height="44.7734" style="stroke: #A80036; stroke-width: 1.5;" width="111" x="75.75" y="132.5"/><text fill="#000000" font-family="sans-serif" font-size="12" lengthAdjust="spacingAndGlyphs" textLength="58" x="102.25" y="148.6387">&lt;image&gt;</text><line style="stroke: #A80036; stroke-width: 1.5;" x1="76.75" x2="185.75" y1="156.4688" y2="156.4688"/><text fill="#000000" font-family="sans-serif" font-size="11" lengthAdjust="spacingAndGlyphs" textLength="99" x="81.75" y="170.6792">a crm:E38_Image</text><!--class _description_--><rect fill="#FEFECE" filter="url(#fk48yul)" height="23.9688" style="stroke: #A80036; stroke-width: 1.5;" width="96" x="6" y="267"/><text fill="#000000" font-family="sans-serif" font-size="12" lengthAdjust="spacingAndGlyphs" textLength="90" x="9" y="283.1387">&lt;description&gt;</text><!--class _right_--><rect fill="#FEFECE" filter="url(#fk48yul)" height="44.7734" style="stroke: #A80036; stroke-width: 1.5;" width="104" x="156" y="256.5"/><text fill="#000000" font-family="sans-serif" font-size="12" lengthAdjust="spacingAndGlyphs" textLength="49" x="183.5" y="272.6387">&lt;right&gt;</text><line style="stroke: #A80036; stroke-width: 1.5;" x1="157" x2="259" y1="280.4688" y2="280.4688"/><text fill="#000000" font-family="sans-serif" font-size="11" lengthAdjust="spacingAndGlyphs" textLength="92" x="162" y="294.6792">a crm:E30_Right</text><!--class _entity_uri_--><rect fill="#FEFECE" filter="url(#fk48yul)" height="44.7734" style="stroke: #A80036; stroke-width: 1.5;" width="175" x="43.75" y="8.5"/><text fill="#000000" font-family="sans-serif" font-size="12" lengthAdjust="spacingAndGlyphs" textLength="77" x="92.75" y="24.6387">&lt;entity_uri&gt;</text><line style="stroke: #A80036; stroke-width: 1.5;" x1="44.75" x2="217.75" y1="32.4688" y2="32.4688"/><text fill="#000000" font-family="sans-serif" font-size="11" lengthAdjust="spacingAndGlyphs" textLength="163" x="49.75" y="46.6792">a crm:E22_Man-Made_Object</text><path d="M81.4257,177.504 C69.3153,185.27 57.874,195.333 51,208 C42.0089,224.5678 45.0026,246.7282 48.7659,261.6391 " fill="none" style="stroke: #A80036; stroke-width: 1.0;"/><polygon fill="#A80036" points="50.1664,266.7808,51.6604,257.0459,48.8523,261.9566,43.9416,259.1485,50.1664,266.7808" style="stroke: #A80036; stroke-width: 1.0;"/><text fill="#000000" font-family="sans-serif" font-size="13" lengthAdjust="spacingAndGlyphs" textLength="111" x="52" y="221.0669">crm:P3_has_note</text><path d="M147.697,177.595 C154.561,186.787 162.426,197.737 169,208 C178.101,222.2084 187.333,238.6665 194.528,252.053 " fill="none" style="stroke: #A80036; stroke-width: 1.0;"/><polygon fill="#A80036" points="196.887,256.4674,196.1729,246.6445,194.5304,252.0576,189.1173,250.415,196.887,256.4674" style="stroke: #A80036; stroke-width: 1.0;"/><text fill="#000000" font-family="sans-serif" font-size="13" lengthAdjust="spacingAndGlyphs" textLength="151" x="180" y="221.0669">crm:P104_is_subject_to</text><path d="M131,53.53 C131,74.049 131,105.009 131,127.134 " fill="none" style="stroke: #A80036; stroke-width: 1.0;"/><polygon fill="#A80036" points="131,132.275,135,123.275,131,127.275,127,123.275,131,132.275" style="stroke: #A80036; stroke-width: 1.0;"/><text fill="#000000" font-family="sans-serif" font-size="13" lengthAdjust="spacingAndGlyphs" textLength="195" x="132" y="97.0669">crm:P138i_has_representation</text></g></svg>