<?xml version="1.0" encoding="UTF-8" standalone="no"?><svg xmlns="http://www.w3.org/2000/svg" xmlns:xlink="http://www.w3.org/1999/xlink" contentScriptType="application/ecmascript" contentStyleType="text/css" height="549px" preserveAspectRatio="none" style="width:984px;height:549px;" version="1.1" viewBox="0 0 984 549" width="984px" zoomAndPan="magnify"><defs><filter height="300%" id="fqq5q3d" width="300%" x="-1" y="-1"><feGaussianBlur result="blurOut" stdDeviation="2.0"/><feColorMatrix in="blurOut" result="blurOut2" type="matrix" values="0 0 0 0 0 0 0 0 0 0 0 0 0 0 0 0 0 0 .4 0"/><feOffset dx="4.0" dy="4.0" in="blurOut2" result="blurOut3"/><feBlend in="SourceGraphic" in2="blurOut3" mode="normal"/></filter></defs><g><!--class aat_300387567--><rect fill="#FEFECE" filter="url(#fqq5q3d)" height="44.7734" style="stroke: #A80036; stroke-width: 1.5;" width="149" x="6" y="496"/><text fill="#000000" font-family="sans-serif" font-size="12" lengthAdjust="spacingAndGlyphs" textLength="97" x="32" y="512.1387">aat:300387567</text><line style="stroke: #A80036; stroke-width: 1.5;" x1="7" x2="154" y1="519.9688" y2="519.9688"/><text fill="#000000" font-family="sans-serif" font-size="11" lengthAdjust="spacingAndGlyphs" textLength="137" x="12" y="534.1792">"longitude [geographic]"</text><!--class _lng_--><rect fill="#FEFECE" filter="url(#fqq5q3d)" height="44.7734" style="stroke: #A80036; stroke-width: 1.5;" width="190" x="35.5" y="374"/><text fill="#000000" font-family="sans-serif" font-size="12" lengthAdjust="spacingAndGlyphs" textLength="39" x="111" y="390.1387">&lt;lng&gt;</text><line style="stroke: #A80036; stroke-width: 1.5;" x1="36.5" x2="224.5" y1="397.9688" y2="397.9688"/><text fill="#000000" font-family="sans-serif" font-size="11" lengthAdjust="spacingAndGlyphs" textLength="178" x="41.5" y="412.1792">a crm:E47_Spatial_Coordinates</text><!--class _creation_lng_--><rect fill="#FEFECE" filter="url(#fqq5q3d)" height="23.9688" style="stroke: #A80036; stroke-width: 1.5;" width="103" x="221" y="506.5"/><text fill="#000000" font-family="sans-serif" font-size="12" lengthAdjust="spacingAndGlyphs" textLength="97" x="224" y="522.6387">&lt;creation_lng&gt;</text><!--class _entity_uri_--><rect fill="#FEFECE" filter="url(#fqq5q3d)" height="44.7734" style="stroke: #A80036; stroke-width: 1.5;" width="175" x="422" y="8"/><text fill="#000000" font-family="sans-serif" font-size="12" lengthAdjust="spacingAndGlyphs" textLength="77" x="471" y="24.1387">&lt;entity_uri&gt;</text><line style="stroke: #A80036; stroke-width: 1.5;" x1="423" x2="596" y1="31.9688" y2="31.9688"/><text fill="#000000" font-family="sans-serif" font-size="11" lengthAdjust="spacingAndGlyphs" textLength="163" x="428" y="46.1792">a crm:E22_Man-Made_Object</text><!--class _production_event_--><rect fill="#FEFECE" filter="url(#fqq5q3d)" height="44.7734" style="stroke: #A80036; stroke-width: 1.5;" width="136" x="441.5" y="130"/><text fill="#000000" font-family="sans-serif" font-size="12" lengthAdjust="spacingAndGlyphs" textLength="129" x="445" y="146.1387">&lt;production_event&gt;</text><line style="stroke: #A80036; stroke-width: 1.5;" x1="442.5" x2="576.5" y1="153.9688" y2="153.9688"/><text fill="#000000" font-family="sans-serif" font-size="11" lengthAdjust="spacingAndGlyphs" textLength="124" x="447.5" y="168.1792">a crm:E12_Production</text><!--class aat_300387565--><rect fill="#FEFECE" filter="url(#fqq5q3d)" height="44.7734" style="stroke: #A80036; stroke-width: 1.5;" width="139" x="390" y="496"/><text fill="#000000" font-family="sans-serif" font-size="12" lengthAdjust="spacingAndGlyphs" textLength="97" x="411" y="512.1387">aat:300387565</text><line style="stroke: #A80036; stroke-width: 1.5;" x1="391" x2="528" y1="519.9688" y2="519.9688"/><text fill="#000000" font-family="sans-serif" font-size="11" lengthAdjust="spacingAndGlyphs" textLength="127" x="396" y="534.1792">"latitude [geographic]"</text><!--class _creation_location_class_--><rect fill="#FEFECE" filter="url(#fqq5q3d)" height="44.7734" style="stroke: #A80036; stroke-width: 1.5;" width="172" x="423.5" y="252"/><text fill="#000000" font-family="sans-serif" font-size="12" lengthAdjust="spacingAndGlyphs" textLength="166" x="426.5" y="268.1387">&lt;creation_location_class&gt;</text><line style="stroke: #A80036; stroke-width: 1.5;" x1="424.5" x2="594.5" y1="275.9688" y2="275.9688"/><text fill="#000000" font-family="sans-serif" font-size="11" lengthAdjust="spacingAndGlyphs" textLength="94" x="429.5" y="290.1792">a crm:E53_Place</text><!--class _lat_--><rect fill="#FEFECE" filter="url(#fqq5q3d)" height="44.7734" style="stroke: #A80036; stroke-width: 1.5;" width="190" x="431.5" y="374"/><text fill="#000000" font-family="sans-serif" font-size="12" lengthAdjust="spacingAndGlyphs" textLength="36" x="508.5" y="390.1387">&lt;lat&gt;</text><line style="stroke: #A80036; stroke-width: 1.5;" x1="432.5" x2="620.5" y1="397.9688" y2="397.9688"/><text fill="#000000" font-family="sans-serif" font-size="11" lengthAdjust="spacingAndGlyphs" textLength="178" x="437.5" y="412.1792">a crm:E47_Spatial_Coordinates</text><!--class _creation_lat_--><rect fill="#FEFECE" filter="url(#fqq5q3d)" height="23.9688" style="stroke: #A80036; stroke-width: 1.5;" width="100" x="602.5" y="506.5"/><text fill="#000000" font-family="sans-serif" font-size="12" lengthAdjust="spacingAndGlyphs" textLength="94" x="605.5" y="522.6387">&lt;creation_lat&gt;</text><!--class _creation_location_name_--><rect fill="#FEFECE" filter="url(#fqq5q3d)" height="23.9688" style="stroke: #A80036; stroke-width: 1.5;" width="175" x="800" y="384.5"/><text fill="#000000" font-family="sans-serif" font-size="12" lengthAdjust="spacingAndGlyphs" textLength="169" x="803" y="400.6387">&lt;creation_location_name&gt;</text><path d="M100.1681,419.156 C91.1275,427.367 82.3449,437.537 77.5,449 C71.977,462.0677 72.2466,477.8143 74.1124,490.9134 " fill="none" style="stroke: #A80036; stroke-width: 1.0;"/><polygon fill="#A80036" points="74.93,495.9774,77.4442,486.4549,74.133,491.0413,69.5465,487.7301,74.93,495.9774" style="stroke: #A80036; stroke-width: 1.0;"/><text fill="#000000" font-family="sans-serif" font-size="13" lengthAdjust="spacingAndGlyphs" textLength="110" x="78.5" y="462.0669">crm:P2_has_type</text><path d="M157.31,419.131 C168.551,428.274 181.721,439.082 193.5,449 C215.391,467.4314 240.278,489.1377 256.17,503.0968 " fill="none" style="stroke: #A80036; stroke-width: 1.0;"/><polygon fill="#A80036" points="260.009,506.472,255.8909,497.5254,256.2539,503.1706,250.6087,503.5336,260.009,506.472" style="stroke: #A80036; stroke-width: 1.0;"/><text fill="#000000" font-family="sans-serif" font-size="13" lengthAdjust="spacingAndGlyphs" textLength="55" x="214.5" y="462.0669">rdf:value</text><path d="M509.5,53.231 C509.5,73.365 509.5,103.366 509.5,124.919 " fill="none" style="stroke: #A80036; stroke-width: 1.0;"/><polygon fill="#A80036" points="509.5,129.931,513.5,120.931,509.5,124.931,505.5,120.931,509.5,129.931" style="stroke: #A80036; stroke-width: 1.0;"/><text fill="#000000" font-family="sans-serif" font-size="13" lengthAdjust="spacingAndGlyphs" textLength="184" x="510.5" y="96.0669">crm:P108i_was_produced_by</text><path d="M509.5,175.231 C509.5,195.365 509.5,225.366 509.5,246.919 " fill="none" style="stroke: #A80036; stroke-width: 1.0;"/><polygon fill="#A80036" points="509.5,251.931,513.5,242.931,509.5,246.931,505.5,242.931,509.5,251.931" style="stroke: #A80036; stroke-width: 1.0;"/><text fill="#000000" font-family="sans-serif" font-size="13" lengthAdjust="spacingAndGlyphs" textLength="141" x="510.5" y="218.0669">crm:P7_took_place_at</text><path d="M484.102,419.095 C473.1,426.92 462.628,436.883 456.5,449 C450.05,461.7536 450.31,477.6114 452.404,490.8565 " fill="none" style="stroke: #A80036; stroke-width: 1.0;"/><polygon fill="#A80036" points="453.324,495.9796,455.6704,486.4143,452.4403,491.0583,447.7963,487.8282,453.324,495.9796" style="stroke: #A80036; stroke-width: 1.0;"/><text fill="#000000" font-family="sans-serif" font-size="13" lengthAdjust="spacingAndGlyphs" textLength="110" x="457.5" y="462.0669">crm:P2_has_type</text><path d="M549.318,419.231 C574.687,443.3926 614.977,481.7639 636.953,502.693 " fill="none" style="stroke: #A80036; stroke-width: 1.0;"/><polygon fill="#A80036" points="640.835,506.3906,637.0749,497.2878,637.2137,502.9429,631.5586,503.0818,640.835,506.3906" style="stroke: #A80036; stroke-width: 1.0;"/><text fill="#000000" font-family="sans-serif" font-size="13" lengthAdjust="spacingAndGlyphs" textLength="55" x="598.5" y="462.0669">rdf:value</text><path d="M446.938,297.106 C408.601,313.119 361.004,338.375 329.5,374 C295.73,412.187 280.678,472.8234 275.17,501.486 " fill="none" style="stroke: #A80036; stroke-width: 1.0; stroke-dasharray: 7.0,7.0;"/><polygon fill="#A80036" points="274.25,506.4533,279.8217,498.332,275.1603,501.5369,271.9554,496.8755,274.25,506.4533" style="stroke: #A80036; stroke-width: 1.0;"/><text fill="#000000" font-family="sans-serif" font-size="13" lengthAdjust="spacingAndGlyphs" textLength="82" x="330.5" y="401.0669">schema:long</text><path d="M423.385,281.187 C316.736,289.123 146.687,305.053 127.5,327 C117.731,338.174 118.19,354.714 121.231,368.741 " fill="none" style="stroke: #A80036; stroke-width: 1.0;"/><polygon fill="#A80036" points="122.454,373.781,124.2196,364.0917,121.2753,368.9219,116.4451,365.9776,122.454,373.781" style="stroke: #A80036; stroke-width: 1.0;"/><text fill="#000000" font-family="sans-serif" font-size="13" lengthAdjust="spacingAndGlyphs" textLength="157" x="128.5" y="340.0669">crm:p87_is_identified_by</text><path d="M595.522,293.939 C633.289,302.766 677.946,314.204 717.5,327 C767.998,343.336 824.86,367.464 858.356,382.295 " fill="none" style="stroke: #A80036; stroke-width: 1.0;"/><polygon fill="#A80036" points="863.125,384.414,856.5246,377.1041,858.5558,382.3837,853.2761,384.4149,863.125,384.414" style="stroke: #A80036; stroke-width: 1.0;"/><text fill="#000000" font-family="sans-serif" font-size="13" lengthAdjust="spacingAndGlyphs" textLength="58" x="766.5" y="340.0669">rdfs:label</text><path d="M595.768,283.185 C623.86,290.268 652.229,303.298 669.5,327 C708.452,380.458 676.491,466.068 660.391,501.4239 " fill="none" style="stroke: #A80036; stroke-width: 1.0; stroke-dasharray: 7.0,7.0;"/><polygon fill="#A80036" points="658.141,506.2659,665.5611,499.7897,660.248,501.7315,658.3062,496.4184,658.141,506.2659" style="stroke: #A80036; stroke-width: 1.0;"/><text fill="#000000" font-family="sans-serif" font-size="13" lengthAdjust="spacingAndGlyphs" textLength="71" x="689.5" y="401.0669">schema:lat</text><path d="M506.034,297.275 C504.494,310.826 503.606,328.556 506.5,344 C508.08,352.432 510.997,361.258 514.124,369.174 " fill="none" style="stroke: #A80036; stroke-width: 1.0;"/><polygon fill="#A80036" points="516.088,373.973,516.3826,364.1285,514.1949,369.3452,508.9782,367.1575,516.088,373.973" style="stroke: #A80036; stroke-width: 1.0;"/><text fill="#000000" font-family="sans-serif" font-size="13" lengthAdjust="spacingAndGlyphs" textLength="157" x="507.5" y="340.0669">crm:p87_is_identified_by</text></g></svg>