<?xml version="1.0" encoding="UTF-8" standalone="no"?><svg xmlns="http://www.w3.org/2000/svg" xmlns:xlink="http://www.w3.org/1999/xlink" contentScriptType="application/ecmascript" contentStyleType="text/css" height="284px" preserveAspectRatio="none" style="width:365px;height:284px;" version="1.1" viewBox="0 0 365 284" width="365px" zoomAndPan="magnify"><defs><filter height="300%" id="fuu8hbq" width="300%" x="-1" y="-1"><feGaussianBlur result="blurOut" stdDeviation="2.0"/><feColorMatrix in="blurOut" result="blurOut2" type="matrix" values="0 0 0 0 0 0 0 0 0 0 0 0 0 0 0 0 0 0 .4 0"/><feOffset dx="4.0" dy="4.0" in="blurOut2" result="blurOut3"/><feBlend in="SourceGraphic" in2="blurOut3" mode="normal"/></filter></defs><g><!--class _classification_class_--><rect fill="#FEFECE" filter="url(#fuu8hbq)" height="44.7734" style="stroke: #A80036; stroke-width: 1.5;" width="145" x="103.5" y="130"/><text fill="#000000" font-family="sans-serif" font-size="12" lengthAdjust="spacingAndGlyphs" textLength="139" x="106.5" y="146.1387">&lt;classification_class&gt;</text><line style="stroke: #A80036; stroke-width: 1.5;" x1="104.5" x2="247.5" y1="153.9688" y2="153.9688"/><text fill="#000000" font-family="sans-serif" font-size="11" lengthAdjust="spacingAndGlyphs" textLength="91" x="109.5" y="168.1792">a crm:E55_Type</text><!--class _classification_name_--><rect fill="#FEFECE" filter="url(#fuu8hbq)" height="23.9688" style="stroke: #A80036; stroke-width: 1.5;" width="148" x="6" y="252"/><text fill="#000000" font-family="sans-serif" font-size="12" lengthAdjust="spacingAndGlyphs" textLength="142" x="9" y="268.1387">&lt;classification_name&gt;</text><!--class _lod_classification_term_--><rect fill="#FEFECE" filter="url(#fuu8hbq)" height="23.9688" style="stroke: #A80036; stroke-width: 1.5;" width="167" x="189.5" y="252"/><text fill="#000000" font-family="sans-serif" font-size="12" lengthAdjust="spacingAndGlyphs" textLength="161" x="192.5" y="268.1387">&lt;lod_classification_term&gt;</text><!--class _entity_uri_--><rect fill="#FEFECE" filter="url(#fuu8hbq)" height="44.7734" style="stroke: #A80036; stroke-width: 1.5;" width="175" x="88.5" y="8"/><text fill="#000000" font-family="sans-serif" font-size="12" lengthAdjust="spacingAndGlyphs" textLength="77" x="137.5" y="24.1387">&lt;entity_uri&gt;</text><line style="stroke: #A80036; stroke-width: 1.5;" x1="89.5" x2="262.5" y1="31.9688" y2="31.9688"/><text fill="#000000" font-family="sans-serif" font-size="11" lengthAdjust="spacingAndGlyphs" textLength="163" x="94.5" y="46.1792">a crm:E22_Man-Made_Object</text><path d="M157.033,175.134 C138.237,196.5733 109.926,228.8654 93.3696,247.7503 " fill="none" style="stroke: #A80036; stroke-width: 1.0;"/><polygon fill="#A80036" points="89.8239,251.7946,98.7647,247.664,93.12,248.0349,92.7492,242.3902,89.8239,251.7946" style="stroke: #A80036; stroke-width: 1.0;"/><text fill="#000000" font-family="sans-serif" font-size="13" lengthAdjust="spacingAndGlyphs" textLength="92" x="129" y="218.0669">skos:prefLabel</text><path d="M200.529,175.223 C210.088,184.1095 220.909,194.708 230,205 C242.121,218.722 254.409,235.6667 262.727,247.6896 " fill="none" style="stroke: #A80036; stroke-width: 1.0;"/><polygon fill="#A80036" points="265.604,251.8813,263.8074,242.1977,262.7739,247.7593,257.2123,246.7258,265.604,251.8813" style="stroke: #A80036; stroke-width: 1.0;"/><text fill="#000000" font-family="sans-serif" font-size="13" lengthAdjust="spacingAndGlyphs" textLength="109" x="245" y="218.0669">skos:broadMatch</text><path d="M176,53.231 C176,73.365 176,103.366 176,124.919 " fill="none" style="stroke: #A80036; stroke-width: 1.0;"/><polygon fill="#A80036" points="176,129.931,180,120.931,176,124.931,172,120.931,176,129.931" style="stroke: #A80036; stroke-width: 1.0;"/><text fill="#000000" font-family="sans-serif" font-size="13" lengthAdjust="spacingAndGlyphs" textLength="110" x="177" y="96.0669">crm:P2_has_type</text></g></svg>