<?xml version="1.0" encoding="UTF-8" standalone="no"?><svg xmlns="http://www.w3.org/2000/svg" xmlns:xlink="http://www.w3.org/1999/xlink" contentScriptType="application/ecmascript" contentStyleType="text/css" height="406px" preserveAspectRatio="none" style="width:457px;height:406px;" version="1.1" viewBox="0 0 457 406" width="457px" zoomAndPan="magnify"><defs><filter height="300%" id="fhdos1s" width="300%" x="-1" y="-1"><feGaussianBlur result="blurOut" stdDeviation="2.0"/><feColorMatrix in="blurOut" result="blurOut2" type="matrix" values="0 0 0 0 0 0 0 0 0 0 0 0 0 0 0 0 0 0 .4 0"/><feOffset dx="4.0" dy="4.0" in="blurOut2" result="blurOut3"/><feBlend in="SourceGraphic" in2="blurOut3" mode="normal"/></filter></defs><g><!--class _entity_uri_--><rect fill="#FEFECE" filter="url(#fhdos1s)" height="44.7734" style="stroke: #A80036; stroke-width: 1.5;" width="105" x="238" y="8"/><text fill="#000000" font-family="sans-serif" font-size="12" lengthAdjust="spacingAndGlyphs" textLength="77" x="252" y="24.1387">&lt;entity_uri&gt;</text><line style="stroke: #A80036; stroke-width: 1.5;" x1="239" x2="342" y1="31.9688" y2="31.9688"/><text fill="#000000" font-family="sans-serif" font-size="11" lengthAdjust="spacingAndGlyphs" textLength="93" x="244" y="46.1792">a crm:E39_Actor</text><!--class _actor_class_--><rect fill="#FEFECE" filter="url(#fhdos1s)" height="44.7734" style="stroke: #A80036; stroke-width: 1.5;" width="173" x="204" y="130"/><text fill="#000000" font-family="sans-serif" font-size="12" lengthAdjust="spacingAndGlyphs" textLength="91" x="245" y="146.1387">&lt;actor_class&gt;</text><line style="stroke: #A80036; stroke-width: 1.5;" x1="205" x2="376" y1="153.9688" y2="153.9688"/><text fill="#000000" font-family="sans-serif" font-size="11" lengthAdjust="spacingAndGlyphs" textLength="161" x="210" y="168.1792">a crm:E82_Actor_Appellation</text><!--class _preferred_name_type_url_--><rect fill="#FEFECE" filter="url(#fhdos1s)" height="44.7734" style="stroke: #A80036; stroke-width: 1.5;" width="181" x="100" y="252"/><text fill="#000000" font-family="sans-serif" font-size="12" lengthAdjust="spacingAndGlyphs" textLength="175" x="103" y="268.1387">&lt;preferred_name_type_url&gt;</text><line style="stroke: #A80036; stroke-width: 1.5;" x1="101" x2="280" y1="275.9688" y2="275.9688"/><text fill="#000000" font-family="sans-serif" font-size="11" lengthAdjust="spacingAndGlyphs" textLength="91" x="106" y="290.1792">a crm:E55_Type</text><!--class aac_types_primary_name_type--><rect fill="#FEFECE" filter="url(#fhdos1s)" height="23.9688" style="stroke: #A80036; stroke-width: 1.5;" width="193" x="6" y="374"/><text fill="#000000" font-family="sans-serif" font-size="12" lengthAdjust="spacingAndGlyphs" textLength="187" x="9" y="390.1387">aac_types:primary_name_type</text><!--class _type_label_--><rect fill="#FEFECE" filter="url(#fhdos1s)" height="23.9688" style="stroke: #A80036; stroke-width: 1.5;" width="89" x="234" y="374"/><text fill="#000000" font-family="sans-serif" font-size="12" lengthAdjust="spacingAndGlyphs" textLength="83" x="237" y="390.1387">&lt;type_label&gt;</text><!--class _actor_name_--><rect fill="#FEFECE" filter="url(#fhdos1s)" height="23.9688" style="stroke: #A80036; stroke-width: 1.5;" width="100" x="316.5" y="262.5"/><text fill="#000000" font-family="sans-serif" font-size="12" lengthAdjust="spacingAndGlyphs" textLength="94" x="319.5" y="278.6387">&lt;actor_name&gt;</text><path d="M290.5,53.231 C290.5,73.365 290.5,103.366 290.5,124.919 " fill="none" style="stroke: #A80036; stroke-width: 1.0;"/><polygon fill="#A80036" points="290.5,129.931,294.5,120.931,290.5,124.931,286.5,120.931,290.5,129.931" style="stroke: #A80036; stroke-width: 1.0;"/><text fill="#000000" font-family="sans-serif" font-size="13" lengthAdjust="spacingAndGlyphs" textLength="165" x="291.5" y="96.0669">crm:P131_is_identified_by</text><path d="M155.771,297.037 C144.606,305.3023 132.953,315.5362 124.5,327 C115.217,339.5901 109.385,356.5649 106.077,368.8958 " fill="none" style="stroke: #A80036; stroke-width: 1.0;"/><polygon fill="#A80036" points="104.8115,373.8698,110.9075,366.1342,106.0446,369.0242,103.1546,364.1613,104.8115,373.8698" style="stroke: #A80036; stroke-width: 1.0;"/><text fill="#000000" font-family="sans-serif" font-size="13" lengthAdjust="spacingAndGlyphs" textLength="109" x="125.5" y="340.0669">skos:broadMatch</text><path d="M212.576,297.063 C221.319,306.0142 231.235,316.7009 239.5,327 C250.495,340.7017 261.528,357.4566 269.039,369.4287 " fill="none" style="stroke: #A80036; stroke-width: 1.0;"/><polygon fill="#A80036" points="271.835,373.9252,270.4785,364.1702,269.1944,369.6794,263.6852,368.3952,271.835,373.9252" style="stroke: #A80036; stroke-width: 1.0;"/><text fill="#000000" font-family="sans-serif" font-size="13" lengthAdjust="spacingAndGlyphs" textLength="92" x="253.5" y="340.0669">skos:prefLabel</text><path d="M304.263,175.231 C319.375,199.092 343.264,236.811 356.622,257.903 " fill="none" style="stroke: #A80036; stroke-width: 1.0;"/><polygon fill="#A80036" points="359.464,262.391,358.0273,252.6475,356.7885,258.1671,351.2689,256.9283,359.464,262.391" style="stroke: #A80036; stroke-width: 1.0;"/><text fill="#000000" font-family="sans-serif" font-size="13" lengthAdjust="spacingAndGlyphs" textLength="58" x="334.5" y="218.0669">rdfs:label</text><path d="M238.99,175.047 C225.989,182.741 213.253,192.646 204.5,205 C195.951,217.066 192.368,233.161 190.961,246.718 " fill="none" style="stroke: #A80036; stroke-width: 1.0;"/><polygon fill="#A80036" points="190.509,251.967,195.2657,243.343,190.9376,246.9854,187.2952,242.6573,190.509,251.967" style="stroke: #A80036; stroke-width: 1.0;"/><text fill="#000000" font-family="sans-serif" font-size="13" lengthAdjust="spacingAndGlyphs" textLength="110" x="205.5" y="218.0669">crm:P2_has_type</text></g></svg>