<?xml version="1.0" encoding="UTF-8" standalone="no"?><svg xmlns="http://www.w3.org/2000/svg" xmlns:xlink="http://www.w3.org/1999/xlink" contentScriptType="application/ecmascript" contentStyleType="text/css" height="263px" preserveAspectRatio="none" style="width:201px;height:263px;" version="1.1" viewBox="0 0 201 263" width="201px" zoomAndPan="magnify"><defs><filter height="300%" id="ffvvz4e" width="300%" x="-1" y="-1"><feGaussianBlur result="blurOut" stdDeviation="2.0"/><feColorMatrix in="blurOut" result="blurOut2" type="matrix" values="0 0 0 0 0 0 0 0 0 0 0 0 0 0 0 0 0 0 .4 0"/><feOffset dx="4.0" dy="4.0" in="blurOut2" result="blurOut3"/><feBlend in="SourceGraphic" in2="blurOut3" mode="normal"/></filter></defs><g><!--class _entity_uri_--><rect fill="#FEFECE" filter="url(#ffvvz4e)" height="44.7734" style="stroke: #A80036; stroke-width: 1.5;" width="175" x="6" y="8"/><text fill="#000000" font-family="sans-serif" font-size="12" lengthAdjust="spacingAndGlyphs" textLength="77" x="55" y="24.1387">&lt;entity_uri&gt;</text><line style="stroke: #A80036; stroke-width: 1.5;" x1="7" x2="180" y1="31.9688" y2="31.9688"/><text fill="#000000" font-family="sans-serif" font-size="11" lengthAdjust="spacingAndGlyphs" textLength="163" x="12" y="46.1792">a crm:E22_Man-Made_Object</text><!--class _subject_class_--><rect fill="#FEFECE" filter="url(#ffvvz4e)" height="23.9688" style="stroke: #A80036; stroke-width: 1.5;" width="110" x="38.5" y="130"/><text fill="#000000" font-family="sans-serif" font-size="12" lengthAdjust="spacingAndGlyphs" textLength="104" x="41.5" y="146.1387">&lt;subject_class&gt;</text><!--class _subject_name_--><rect fill="#FEFECE" filter="url(#ffvvz4e)" height="23.9688" style="stroke: #A80036; stroke-width: 1.5;" width="113" x="37" y="231"/><text fill="#000000" font-family="sans-serif" font-size="12" lengthAdjust="spacingAndGlyphs" textLength="107" x="40" y="247.1387">&lt;subject_name&gt;</text><path d="M93.5,53.134 C93.5,74.213 93.5,105.783 93.5,124.787 " fill="none" style="stroke: #A80036; stroke-width: 1.0;"/><polygon fill="#A80036" points="93.5,129.795,97.5,120.795,93.5,124.795,89.5,120.795,93.5,129.795" style="stroke: #A80036; stroke-width: 1.0;"/><text fill="#000000" font-family="sans-serif" font-size="13" lengthAdjust="spacingAndGlyphs" textLength="106" x="94.5" y="96.0669">crm:P62_depicts</text><path d="M93.5,154.357 C93.5,171.8868 93.5,205.6117 93.5,225.7298 " fill="none" style="stroke: #A80036; stroke-width: 1.0;"/><polygon fill="#A80036" points="93.5,230.7759,97.5,221.7759,93.5,225.7759,89.5,221.7759,93.5,230.7759" style="stroke: #A80036; stroke-width: 1.0;"/><text fill="#000000" font-family="sans-serif" font-size="13" lengthAdjust="spacingAndGlyphs" textLength="92" x="94.5" y="197.0669">skos:prefLabel</text></g></svg>