<?xml version="1.0" encoding="UTF-8" standalone="no"?><svg xmlns="http://www.w3.org/2000/svg" xmlns:xlink="http://www.w3.org/1999/xlink" contentScriptType="application/ecmascript" contentStyleType="text/css" height="305px" preserveAspectRatio="none" style="width:605px;height:305px;" version="1.1" viewBox="0 0 605 305" width="605px" zoomAndPan="magnify"><defs><filter height="300%" id="feh65n4" width="300%" x="-1" y="-1"><feGaussianBlur result="blurOut" stdDeviation="2.0"/><feColorMatrix in="blurOut" result="blurOut2" type="matrix" values="0 0 0 0 0 0 0 0 0 0 0 0 0 0 0 0 0 0 .4 0"/><feOffset dx="4.0" dy="4.0" in="blurOut2" result="blurOut3"/><feBlend in="SourceGraphic" in2="blurOut3" mode="normal"/></filter></defs><g><!--class aat_300179869--><rect fill="#FEFECE" filter="url(#feh65n4)" height="44.7734" style="stroke: #A80036; stroke-width: 1.5;" width="195" x="6" y="252"/><text fill="#000000" font-family="sans-serif" font-size="12" lengthAdjust="spacingAndGlyphs" textLength="97" x="55" y="268.1387">aat:300179869</text><line style="stroke: #A80036; stroke-width: 1.5;" x1="7" x2="200" y1="275.9688" y2="275.9688"/><text fill="#000000" font-family="sans-serif" font-size="11" lengthAdjust="spacingAndGlyphs" textLength="183" x="12" y="290.1792">"Visual Works [hierarchy name]"</text><!--class _classification_class_--><rect fill="#FEFECE" filter="url(#feh65n4)" height="44.7734" style="stroke: #A80036; stroke-width: 1.5;" width="145" x="343" y="8"/><text fill="#000000" font-family="sans-serif" font-size="12" lengthAdjust="spacingAndGlyphs" textLength="139" x="346" y="24.1387">&lt;classification_class&gt;</text><line style="stroke: #A80036; stroke-width: 1.5;" x1="344" x2="487" y1="31.9688" y2="31.9688"/><text fill="#000000" font-family="sans-serif" font-size="11" lengthAdjust="spacingAndGlyphs" textLength="91" x="349" y="46.1792">a crm:E55_Type</text><!--class _classification_name_--><rect fill="#FEFECE" filter="url(#feh65n4)" height="23.9688" style="stroke: #A80036; stroke-width: 1.5;" width="148" x="245.5" y="140.5"/><text fill="#000000" font-family="sans-serif" font-size="12" lengthAdjust="spacingAndGlyphs" textLength="142" x="248.5" y="156.6387">&lt;classification_name&gt;</text><!--class _lod_classification_term_--><rect fill="#FEFECE" filter="url(#feh65n4)" height="23.9688" style="stroke: #A80036; stroke-width: 1.5;" width="167" x="429" y="140.5"/><text fill="#000000" font-family="sans-serif" font-size="12" lengthAdjust="spacingAndGlyphs" textLength="161" x="432" y="156.6387">&lt;lod_classification_term&gt;</text><!--class _classification_event_--><rect fill="#FEFECE" filter="url(#feh65n4)" height="44.7734" style="stroke: #A80036; stroke-width: 1.5;" width="176" x="15.5" y="130"/><text fill="#000000" font-family="sans-serif" font-size="12" lengthAdjust="spacingAndGlyphs" textLength="142" x="32.5" y="146.1387">&lt;classification_event&gt;</text><line style="stroke: #A80036; stroke-width: 1.5;" x1="16.5" x2="190.5" y1="153.9688" y2="153.9688"/><text fill="#000000" font-family="sans-serif" font-size="11" lengthAdjust="spacingAndGlyphs" textLength="164" x="21.5" y="168.1792">a crm:E17_Type_Assignment</text><!--class _entity_uri_--><rect fill="#FEFECE" filter="url(#feh65n4)" height="44.7734" style="stroke: #A80036; stroke-width: 1.5;" width="175" x="16" y="8"/><text fill="#000000" font-family="sans-serif" font-size="12" lengthAdjust="spacingAndGlyphs" textLength="77" x="65" y="24.1387">&lt;entity_uri&gt;</text><line style="stroke: #A80036; stroke-width: 1.5;" x1="17" x2="190" y1="31.9688" y2="31.9688"/><text fill="#000000" font-family="sans-serif" font-size="11" lengthAdjust="spacingAndGlyphs" textLength="163" x="22" y="46.1792">a crm:E22_Man-Made_Object</text><path d="M398.115,53.231 C378.866,77.292 348.343,115.446 331.555,136.432 " fill="none" style="stroke: #A80036; stroke-width: 1.0;"/><polygon fill="#A80036" points="328.388,140.391,337.1325,135.8596,331.5104,136.4858,330.8842,130.8637,328.388,140.391" style="stroke: #A80036; stroke-width: 1.0;"/><text fill="#000000" font-family="sans-serif" font-size="13" lengthAdjust="spacingAndGlyphs" textLength="58" x="374.5" y="96.0669">rdfs:label</text><path d="M433.066,53.231 C452.516,77.292 483.356,115.446 500.32,136.432 " fill="none" style="stroke: #A80036; stroke-width: 1.0;"/><polygon fill="#A80036" points="503.52,140.391,500.9736,130.877,500.3771,136.5023,494.7517,135.9057,503.52,140.391" style="stroke: #A80036; stroke-width: 1.0;"/><text fill="#000000" font-family="sans-serif" font-size="13" lengthAdjust="spacingAndGlyphs" textLength="109" x="471.5" y="96.0669">skos:broadMatch</text><path d="M103.5,175.231 C103.5,195.365 103.5,225.3661 103.5,246.9192 " fill="none" style="stroke: #A80036; stroke-width: 1.0;"/><polygon fill="#A80036" points="103.5,251.9306,107.5,242.9306,103.5,246.9306,99.5,242.9306,103.5,251.9306" style="stroke: #A80036; stroke-width: 1.0;"/><text fill="#000000" font-family="sans-serif" font-size="13" lengthAdjust="spacingAndGlyphs" textLength="198" x="104.5" y="218.0669">crm:P21_had_general_purpose</text><path d="M101.7486,53.09 C100.8548,66.572 100.0429,84.294 100.5,100 C100.7328,108.001 101.1688,116.693 101.6376,124.617 " fill="none" style="stroke: #A80036; stroke-width: 1.0;"/><polygon fill="#A80036" points="101.9653,129.963,105.4049,120.7343,101.6582,124.9724,97.42,121.2257,101.9653,129.963" style="stroke: #A80036; stroke-width: 1.0;"/><text fill="#000000" font-family="sans-serif" font-size="13" lengthAdjust="spacingAndGlyphs" textLength="174" x="101.5" y="96.0669">crm:P41i_was_classified_by</text></g></svg>