<?xml version="1.0" encoding="UTF-8" standalone="no"?><svg xmlns="http://www.w3.org/2000/svg" xmlns:xlink="http://www.w3.org/1999/xlink" contentScriptType="application/ecmascript" contentStyleType="text/css" height="406px" preserveAspectRatio="none" style="width:533px;height:406px;" version="1.1" viewBox="0 0 533 406" width="533px" zoomAndPan="magnify"><defs><filter height="300%" id="frxfrih" width="300%" x="-1" y="-1"><feGaussianBlur result="blurOut" stdDeviation="2.0"/><feColorMatrix in="blurOut" result="blurOut2" type="matrix" values="0 0 0 0 0 0 0 0 0 0 0 0 0 0 0 0 0 0 .4 0"/><feOffset dx="4.0" dy="4.0" in="blurOut2" result="blurOut3"/><feBlend in="SourceGraphic" in2="blurOut3" mode="normal"/></filter></defs><g><!--class aat_300179869--><rect fill="#FEFECE" filter="url(#frxfrih)" height="44.7734" style="stroke: #A80036; stroke-width: 1.5;" width="195" x="96" y="252"/><text fill="#000000" font-family="sans-serif" font-size="12" lengthAdjust="spacingAndGlyphs" textLength="97" x="145" y="268.1387">aat:300179869</text><line style="stroke: #A80036; stroke-width: 1.5;" x1="97" x2="290" y1="275.9688" y2="275.9688"/><text fill="#000000" font-family="sans-serif" font-size="11" lengthAdjust="spacingAndGlyphs" textLength="183" x="102" y="290.1792">"Visual Works [hierarchy name]"</text><!--class _classification_class_--><rect fill="#FEFECE" filter="url(#frxfrih)" height="44.7734" style="stroke: #A80036; stroke-width: 1.5;" width="145" x="343" y="252"/><text fill="#000000" font-family="sans-serif" font-size="12" lengthAdjust="spacingAndGlyphs" textLength="139" x="346" y="268.1387">&lt;classification_class&gt;</text><line style="stroke: #A80036; stroke-width: 1.5;" x1="344" x2="487" y1="275.9688" y2="275.9688"/><text fill="#000000" font-family="sans-serif" font-size="11" lengthAdjust="spacingAndGlyphs" textLength="91" x="349" y="290.1792">a crm:E55_Type</text><!--class _classification_name_--><rect fill="#FEFECE" filter="url(#frxfrih)" height="23.9688" style="stroke: #A80036; stroke-width: 1.5;" width="148" x="341.5" y="374"/><text fill="#000000" font-family="sans-serif" font-size="12" lengthAdjust="spacingAndGlyphs" textLength="142" x="344.5" y="390.1387">&lt;classification_name&gt;</text><!--class _lod_classification_term_--><rect fill="#FEFECE" filter="url(#frxfrih)" height="23.9688" style="stroke: #A80036; stroke-width: 1.5;" width="167" x="49" y="374"/><text fill="#000000" font-family="sans-serif" font-size="12" lengthAdjust="spacingAndGlyphs" textLength="161" x="52" y="390.1387">&lt;lod_classification_term&gt;</text><!--class _classification_event_--><rect fill="#FEFECE" filter="url(#frxfrih)" height="44.7734" style="stroke: #A80036; stroke-width: 1.5;" width="176" x="105.5" y="130"/><text fill="#000000" font-family="sans-serif" font-size="12" lengthAdjust="spacingAndGlyphs" textLength="142" x="122.5" y="146.1387">&lt;classification_event&gt;</text><line style="stroke: #A80036; stroke-width: 1.5;" x1="106.5" x2="280.5" y1="153.9688" y2="153.9688"/><text fill="#000000" font-family="sans-serif" font-size="11" lengthAdjust="spacingAndGlyphs" textLength="164" x="111.5" y="168.1792">a crm:E17_Type_Assignment</text><!--class _entity_uri_--><rect fill="#FEFECE" filter="url(#frxfrih)" height="44.7734" style="stroke: #A80036; stroke-width: 1.5;" width="175" x="6" y="8"/><text fill="#000000" font-family="sans-serif" font-size="12" lengthAdjust="spacingAndGlyphs" textLength="77" x="55" y="24.1387">&lt;entity_uri&gt;</text><line style="stroke: #A80036; stroke-width: 1.5;" x1="7" x2="180" y1="31.9688" y2="31.9688"/><text fill="#000000" font-family="sans-serif" font-size="11" lengthAdjust="spacingAndGlyphs" textLength="163" x="12" y="46.1792">a crm:E22_Man-Made_Object</text><path d="M415.5,297.134 C415.5,318.213 415.5,349.783 415.5,368.7869 " fill="none" style="stroke: #A80036; stroke-width: 1.0;"/><polygon fill="#A80036" points="415.5,373.7946,419.5,364.7946,415.5,368.7946,411.5,364.7946,415.5,373.7946" style="stroke: #A80036; stroke-width: 1.0;"/><text fill="#000000" font-family="sans-serif" font-size="13" lengthAdjust="spacingAndGlyphs" textLength="58" x="416.5" y="340.0669">rdfs:label</text><path d="M359.926,297.003 C302.189,319.3431 213.733,353.5688 165.935,372.0633 " fill="none" style="stroke: #A80036; stroke-width: 1.0;"/><polygon fill="#A80036" points="161.157,373.912,170.994,374.3948,165.8201,372.1077,168.1072,366.9338,161.157,373.912" style="stroke: #A80036; stroke-width: 1.0;"/><text fill="#000000" font-family="sans-serif" font-size="13" lengthAdjust="spacingAndGlyphs" textLength="109" x="275.5" y="340.0669">skos:broadMatch</text><path d="M191.965,175.037 C191.381,184.259 190.787,195.152 190.5,205 C190.1,218.743 190.672,234.029 191.42,246.668 " fill="none" style="stroke: #A80036; stroke-width: 1.0;"/><polygon fill="#A80036" points="191.749,251.91,195.178,242.6773,191.4361,246.9198,187.1937,243.1779,191.749,251.91" style="stroke: #A80036; stroke-width: 1.0;"/><text fill="#000000" font-family="sans-serif" font-size="13" lengthAdjust="spacingAndGlyphs" textLength="198" x="191.5" y="218.0669">crm:P21_had_general_purpose</text><path d="M281.731,157.091 C320.737,163.043 364.467,176.336 394.5,205 C405.8,215.785 411.067,232.472 413.501,246.675 " fill="none" style="stroke: #A80036; stroke-width: 1.0;"/><polygon fill="#A80036" points="414.275,251.781,416.8796,242.2828,413.5249,246.8376,408.9701,243.4829,414.275,251.781" style="stroke: #A80036; stroke-width: 1.0;"/><text fill="#000000" font-family="sans-serif" font-size="13" lengthAdjust="spacingAndGlyphs" textLength="125" x="407.5" y="218.0669">crm:P42_assignede</text><path d="M111.609,53.231 C128.671,73.705 154.235,104.382 172.253,126.003 " fill="none" style="stroke: #A80036; stroke-width: 1.0;"/><polygon fill="#A80036" points="175.525,129.931,172.8359,120.4564,172.3239,126.09,166.6903,125.5781,175.525,129.931" style="stroke: #A80036; stroke-width: 1.0;"/><text fill="#000000" font-family="sans-serif" font-size="13" lengthAdjust="spacingAndGlyphs" textLength="174" x="150.5" y="96.0669">crm:P41i_was_classified_by</text><path d="M86.9021,53.235 C73.9903,99.531 49.0981,210.69 78.5,297 C87.9847,324.8424 107.497,353.1479 120.285,369.8832 " fill="none" style="stroke: #A80036; stroke-width: 1.0; stroke-dasharray: 7.0,7.0;"/><polygon fill="#A80036" points="123.381,373.8813,121.0326,364.3165,120.3194,369.9282,114.7077,369.2151,123.381,373.8813" style="stroke: #A80036; stroke-width: 1.0;"/><text fill="#000000" font-family="sans-serif" font-size="13" lengthAdjust="spacingAndGlyphs" textLength="110" x="66.5" y="218.0669">crm:P2_has_type</text></g></svg>