<?xml version="1.0" encoding="UTF-8" standalone="no"?><svg xmlns="http://www.w3.org/2000/svg" xmlns:xlink="http://www.w3.org/1999/xlink" contentScriptType="application/ecmascript" contentStyleType="text/css" height="406px" preserveAspectRatio="none" style="width:424px;height:406px;" version="1.1" viewBox="0 0 424 406" width="424px" zoomAndPan="magnify"><defs><filter height="300%" id="fg2du1v" width="300%" x="-1" y="-1"><feGaussianBlur result="blurOut" stdDeviation="2.0"/><feColorMatrix in="blurOut" result="blurOut2" type="matrix" values="0 0 0 0 0 0 0 0 0 0 0 0 0 0 0 0 0 0 .4 0"/><feOffset dx="4.0" dy="4.0" in="blurOut2" result="blurOut3"/><feBlend in="SourceGraphic" in2="blurOut3" mode="normal"/></filter></defs><g><!--class _entity_uri_--><rect fill="#FEFECE" filter="url(#fg2du1v)" height="44.7734" style="stroke: #A80036; stroke-width: 1.5;" width="105" x="204.5" y="8"/><text fill="#000000" font-family="sans-serif" font-size="12" lengthAdjust="spacingAndGlyphs" textLength="77" x="218.5" y="24.1387">&lt;entity_uri&gt;</text><line style="stroke: #A80036; stroke-width: 1.5;" x1="205.5" x2="308.5" y1="31.9688" y2="31.9688"/><text fill="#000000" font-family="sans-serif" font-size="11" lengthAdjust="spacingAndGlyphs" textLength="93" x="210.5" y="46.1792">a crm:E39_Actor</text><!--class _actor_class_--><rect fill="#FEFECE" filter="url(#fg2du1v)" height="44.7734" style="stroke: #A80036; stroke-width: 1.5;" width="173" x="170.5" y="130"/><text fill="#000000" font-family="sans-serif" font-size="12" lengthAdjust="spacingAndGlyphs" textLength="91" x="211.5" y="146.1387">&lt;actor_class&gt;</text><line style="stroke: #A80036; stroke-width: 1.5;" x1="171.5" x2="342.5" y1="153.9688" y2="153.9688"/><text fill="#000000" font-family="sans-serif" font-size="11" lengthAdjust="spacingAndGlyphs" textLength="161" x="176.5" y="168.1792">a crm:E82_Actor_Appellation</text><!--class _sort_name_type_url_--><rect fill="#FEFECE" filter="url(#fg2du1v)" height="44.7734" style="stroke: #A80036; stroke-width: 1.5;" width="147" x="101.5" y="252"/><text fill="#000000" font-family="sans-serif" font-size="12" lengthAdjust="spacingAndGlyphs" textLength="141" x="104.5" y="268.1387">&lt;sort_name_type_url&gt;</text><line style="stroke: #A80036; stroke-width: 1.5;" x1="102.5" x2="247.5" y1="275.9688" y2="275.9688"/><text fill="#000000" font-family="sans-serif" font-size="11" lengthAdjust="spacingAndGlyphs" textLength="91" x="107.5" y="290.1792">a crm:E55_Type</text><!--class aac_types_sort_name_type--><rect fill="#FEFECE" filter="url(#fg2du1v)" height="23.9688" style="stroke: #A80036; stroke-width: 1.5;" width="172" x="6" y="374"/><text fill="#000000" font-family="sans-serif" font-size="12" lengthAdjust="spacingAndGlyphs" textLength="166" x="9" y="390.1387">aac_types:sort_name_type</text><!--class _type_label_--><rect fill="#FEFECE" filter="url(#fg2du1v)" height="23.9688" style="stroke: #A80036; stroke-width: 1.5;" width="89" x="213.5" y="374"/><text fill="#000000" font-family="sans-serif" font-size="12" lengthAdjust="spacingAndGlyphs" textLength="83" x="216.5" y="390.1387">&lt;type_label&gt;</text><!--class _actor_name_--><rect fill="#FEFECE" filter="url(#fg2du1v)" height="23.9688" style="stroke: #A80036; stroke-width: 1.5;" width="100" x="284" y="262.5"/><text fill="#000000" font-family="sans-serif" font-size="12" lengthAdjust="spacingAndGlyphs" textLength="94" x="287" y="278.6387">&lt;actor_name&gt;</text><path d="M257,53.231 C257,73.365 257,103.366 257,124.919 " fill="none" style="stroke: #A80036; stroke-width: 1.0;"/><polygon fill="#A80036" points="257,129.931,261,120.931,257,124.931,253,120.931,257,129.931" style="stroke: #A80036; stroke-width: 1.0;"/><text fill="#000000" font-family="sans-serif" font-size="13" lengthAdjust="spacingAndGlyphs" textLength="165" x="258" y="96.0669">crm:P131_is_identified_by</text><path d="M134.65,297.081 C123.157,305.056 111.685,315.1051 104,327 C95.9669,339.4329 93.1737,356.223 92.2675,368.5387 " fill="none" style="stroke: #A80036; stroke-width: 1.0;"/><polygon fill="#A80036" points="91.9719,373.8507,96.4661,365.087,92.2499,368.8584,88.4785,364.6422,91.9719,373.8507" style="stroke: #A80036; stroke-width: 1.0;"/><text fill="#000000" font-family="sans-serif" font-size="13" lengthAdjust="spacingAndGlyphs" textLength="109" x="105" y="340.0669">skos:broadMatch</text><path d="M194.412,297.094 C202.288,306.1391 211.319,316.8854 219,327 C229.495,340.8203 240.436,357.3006 248.049,369.1555 " fill="none" style="stroke: #A80036; stroke-width: 1.0;"/><polygon fill="#A80036" points="250.895,373.615,249.4236,363.8767,248.2045,369.4006,242.6806,368.1815,250.895,373.615" style="stroke: #A80036; stroke-width: 1.0;"/><text fill="#000000" font-family="sans-serif" font-size="13" lengthAdjust="spacingAndGlyphs" textLength="92" x="232" y="340.0669">skos:prefLabel</text><path d="M273.857,175.149 C280.672,184.202 288.457,194.94 295,205 C306.395,222.522 318.076,243.519 325.645,257.607 " fill="none" style="stroke: #A80036; stroke-width: 1.0;"/><polygon fill="#A80036" points="328.047,262.105,327.3322,252.2821,325.6901,257.6954,320.2768,256.0532,328.047,262.105" style="stroke: #A80036; stroke-width: 1.0;"/><text fill="#000000" font-family="sans-serif" font-size="13" lengthAdjust="spacingAndGlyphs" textLength="58" x="307" y="218.0669">rdfs:label</text><path d="M204.944,175.268 C193.009,182.848 181.832,192.642 175,205 C168.092,217.496 167.664,233.338 169.157,246.639 " fill="none" style="stroke: #A80036; stroke-width: 1.0;"/><polygon fill="#A80036" points="169.842,251.787,172.6192,242.3378,169.1821,246.8307,164.6892,243.3936,169.842,251.787" style="stroke: #A80036; stroke-width: 1.0;"/><text fill="#000000" font-family="sans-serif" font-size="13" lengthAdjust="spacingAndGlyphs" textLength="110" x="176" y="218.0669">crm:P2_has_type</text></g></svg>