<?xml version="1.0" encoding="UTF-8" standalone="no"?><svg xmlns="http://www.w3.org/2000/svg" xmlns:xlink="http://www.w3.org/1999/xlink" contentScriptType="application/ecmascript" contentStyleType="text/css" height="305px" preserveAspectRatio="none" style="width:705px;height:305px;" version="1.1" viewBox="0 0 705 305" width="705px" zoomAndPan="magnify"><defs><filter height="300%" id="f1d80r5" width="300%" x="-1" y="-1"><feGaussianBlur result="blurOut" stdDeviation="2.0"/><feColorMatrix in="blurOut" result="blurOut2" type="matrix" values="0 0 0 0 0 0 0 0 0 0 0 0 0 0 0 0 0 0 .4 0"/><feOffset dx="4.0" dy="4.0" in="blurOut2" result="blurOut3"/><feBlend in="SourceGraphic" in2="blurOut3" mode="normal"/></filter></defs><g><!--class aat_300179869--><rect fill="#FEFECE" filter="url(#f1d80r5)" height="44.7734" style="stroke: #A80036; stroke-width: 1.5;" width="195" x="6" y="252"/><text fill="#000000" font-family="sans-serif" font-size="12" lengthAdjust="spacingAndGlyphs" textLength="97" x="55" y="268.1387">aat:300179869</text><line style="stroke: #A80036; stroke-width: 1.5;" x1="7" x2="200" y1="275.9688" y2="275.9688"/><text fill="#000000" font-family="sans-serif" font-size="11" lengthAdjust="spacingAndGlyphs" textLength="183" x="12" y="290.1792">"Visual Works [hierarchy name]"</text><!--class _classification_class_--><rect fill="#FEFECE" filter="url(#f1d80r5)" height="44.7734" style="stroke: #A80036; stroke-width: 1.5;" width="145" x="463" y="8"/><text fill="#000000" font-family="sans-serif" font-size="12" lengthAdjust="spacingAndGlyphs" textLength="139" x="466" y="24.1387">&lt;classification_class&gt;</text><line style="stroke: #A80036; stroke-width: 1.5;" x1="464" x2="607" y1="31.9688" y2="31.9688"/><text fill="#000000" font-family="sans-serif" font-size="11" lengthAdjust="spacingAndGlyphs" textLength="91" x="469" y="46.1792">a crm:E55_Type</text><!--class _classification_name_--><rect fill="#FEFECE" filter="url(#f1d80r5)" height="23.9688" style="stroke: #A80036; stroke-width: 1.5;" width="148" x="548.5" y="140.5"/><text fill="#000000" font-family="sans-serif" font-size="12" lengthAdjust="spacingAndGlyphs" textLength="142" x="551.5" y="156.6387">&lt;classification_name&gt;</text><!--class _lod_classification_term_--><rect fill="#FEFECE" filter="url(#f1d80r5)" height="23.9688" style="stroke: #A80036; stroke-width: 1.5;" width="167" x="291" y="140.5"/><text fill="#000000" font-family="sans-serif" font-size="12" lengthAdjust="spacingAndGlyphs" textLength="161" x="294" y="156.6387">&lt;lod_classification_term&gt;</text><!--class _classification_event_--><rect fill="#FEFECE" filter="url(#f1d80r5)" height="44.7734" style="stroke: #A80036; stroke-width: 1.5;" width="176" x="15.5" y="130"/><text fill="#000000" font-family="sans-serif" font-size="12" lengthAdjust="spacingAndGlyphs" textLength="142" x="32.5" y="146.1387">&lt;classification_event&gt;</text><line style="stroke: #A80036; stroke-width: 1.5;" x1="16.5" x2="190.5" y1="153.9688" y2="153.9688"/><text fill="#000000" font-family="sans-serif" font-size="11" lengthAdjust="spacingAndGlyphs" textLength="164" x="21.5" y="168.1792">a crm:E17_Type_Assignment</text><!--class _entity_uri_--><rect fill="#FEFECE" filter="url(#f1d80r5)" height="44.7734" style="stroke: #A80036; stroke-width: 1.5;" width="175" x="167" y="8"/><text fill="#000000" font-family="sans-serif" font-size="12" lengthAdjust="spacingAndGlyphs" textLength="77" x="216" y="24.1387">&lt;entity_uri&gt;</text><line style="stroke: #A80036; stroke-width: 1.5;" x1="168" x2="341" y1="31.9688" y2="31.9688"/><text fill="#000000" font-family="sans-serif" font-size="11" lengthAdjust="spacingAndGlyphs" textLength="163" x="173" y="46.1792">a crm:E22_Man-Made_Object</text><path d="M557.723,53.072 C566.278,61.938 575.826,72.561 583.5,83 C596.025,100.039 607.64,121.467 614.879,135.777 " fill="none" style="stroke: #A80036; stroke-width: 1.0;"/><polygon fill="#A80036" points="617.162,140.34,616.7123,130.5014,614.9248,135.8684,609.5578,134.081,617.162,140.34" style="stroke: #A80036; stroke-width: 1.0;"/><text fill="#000000" font-family="sans-serif" font-size="13" lengthAdjust="spacingAndGlyphs" textLength="58" x="595.5" y="96.0669">rdfs:label</text><path d="M505.332,53.149 C492.672,62.294 477.823,73.1 464.5,83 C439.654,101.462 411.281,123.161 393.145,137.11 " fill="none" style="stroke: #A80036; stroke-width: 1.0;"/><polygon fill="#A80036" points="388.764,140.483,398.3354,138.1619,392.7258,137.4327,393.455,131.8231,388.764,140.483" style="stroke: #A80036; stroke-width: 1.0;"/><text fill="#000000" font-family="sans-serif" font-size="13" lengthAdjust="spacingAndGlyphs" textLength="109" x="465.5" y="96.0669">skos:broadMatch</text><path d="M103.5,175.231 C103.5,195.365 103.5,225.3661 103.5,246.9192 " fill="none" style="stroke: #A80036; stroke-width: 1.0;"/><polygon fill="#A80036" points="103.5,251.9306,107.5,242.9306,103.5,246.9306,99.5,242.9306,103.5,251.9306" style="stroke: #A80036; stroke-width: 1.0;"/><text fill="#000000" font-family="sans-serif" font-size="13" lengthAdjust="spacingAndGlyphs" textLength="198" x="104.5" y="218.0669">crm:P21_had_general_purpose</text><path d="M166.919,49.559 C148.337,57.116 130.448,67.827 117.5,83 C107.832,94.33 104.2153,110.538 103.0707,124.343 " fill="none" style="stroke: #A80036; stroke-width: 1.0;"/><polygon fill="#A80036" points="102.7371,129.697,107.2874,120.9623,103.0471,124.7066,99.3028,120.4663,102.7371,129.697" style="stroke: #A80036; stroke-width: 1.0;"/><text fill="#000000" font-family="sans-serif" font-size="13" lengthAdjust="spacingAndGlyphs" textLength="174" x="118.5" y="96.0669">crm:P41i_was_classified_by</text><path d="M272.917,53.038 C284.958,66.815 301.229,84.874 316.5,100 C329.737,113.112 345.608,127.094 357.399,137.176 " fill="none" style="stroke: #A80036; stroke-width: 1.0; stroke-dasharray: 7.0,7.0;"/><polygon fill="#A80036" points="361.231,140.438,356.9695,131.5589,357.4232,137.1975,351.7846,137.6513,361.231,140.438" style="stroke: #A80036; stroke-width: 1.0;"/><text fill="#000000" font-family="sans-serif" font-size="13" lengthAdjust="spacingAndGlyphs" textLength="110" x="317.5" y="96.0669">crm:P2_has_type</text></g></svg>