<?xml version="1.0" encoding="UTF-8" standalone="no"?><svg xmlns="http://www.w3.org/2000/svg" xmlns:xlink="http://www.w3.org/1999/xlink" contentScriptType="application/ecmascript" contentStyleType="text/css" height="528px" preserveAspectRatio="none" style="width:589px;height:528px;" version="1.1" viewBox="0 0 589 528" width="589px" zoomAndPan="magnify"><defs><filter height="300%" id="f4ibkep" width="300%" x="-1" y="-1"><feGaussianBlur result="blurOut" stdDeviation="2.0"/><feColorMatrix in="blurOut" result="blurOut2" type="matrix" values="0 0 0 0 0 0 0 0 0 0 0 0 0 0 0 0 0 0 .4 0"/><feOffset dx="4.0" dy="4.0" in="blurOut2" result="blurOut3"/><feBlend in="SourceGraphic" in2="blurOut3" mode="normal"/></filter></defs><g><!--class _author_class_--><rect fill="#FEFECE" filter="url(#f4ibkep)" height="44.7734" style="stroke: #A80036; stroke-width: 1.5;" width="106" x="373" y="374"/><text fill="#000000" font-family="sans-serif" font-size="12" lengthAdjust="spacingAndGlyphs" textLength="100" x="376" y="390.1387">&lt;author_class&gt;</text><line style="stroke: #A80036; stroke-width: 1.5;" x1="374" x2="478" y1="397.9688" y2="397.9688"/><text fill="#000000" font-family="sans-serif" font-size="11" lengthAdjust="spacingAndGlyphs" textLength="93" x="379" y="412.1792">a crm:E39_Actor</text><!--class _alt_desc_author_lod_id_--><rect fill="#FEFECE" filter="url(#f4ibkep)" height="23.9688" style="stroke: #A80036; stroke-width: 1.5;" width="168" x="251" y="496"/><text fill="#000000" font-family="sans-serif" font-size="12" lengthAdjust="spacingAndGlyphs" textLength="162" x="254" y="512.1387">&lt;alt_desc_author_lod_id&gt;</text><!--class _alt_desc_author_--><rect fill="#FEFECE" filter="url(#f4ibkep)" height="23.9688" style="stroke: #A80036; stroke-width: 1.5;" width="126" x="454" y="496"/><text fill="#000000" font-family="sans-serif" font-size="12" lengthAdjust="spacingAndGlyphs" textLength="120" x="457" y="512.1387">&lt;alt_desc_author&gt;</text><!--class _description_class_--><rect fill="#FEFECE" filter="url(#f4ibkep)" height="44.7734" style="stroke: #A80036; stroke-width: 1.5;" width="171" x="178.5" y="130"/><text fill="#000000" font-family="sans-serif" font-size="12" lengthAdjust="spacingAndGlyphs" textLength="128" x="200" y="146.1387">&lt;description_class&gt;</text><line style="stroke: #A80036; stroke-width: 1.5;" x1="179.5" x2="348.5" y1="153.9688" y2="153.9688"/><text fill="#000000" font-family="sans-serif" font-size="11" lengthAdjust="spacingAndGlyphs" textLength="159" x="184.5" y="168.1792">a crm:E33_Linguistic_Object</text><!--class aat_300080102--><rect fill="#FEFECE" filter="url(#f4ibkep)" height="44.7734" style="stroke: #A80036; stroke-width: 1.5;" width="164" x="6" y="252"/><text fill="#000000" font-family="sans-serif" font-size="12" lengthAdjust="spacingAndGlyphs" textLength="97" x="39.5" y="268.1387">aat:300080102</text><line style="stroke: #A80036; stroke-width: 1.5;" x1="7" x2="169" y1="275.9688" y2="275.9688"/><text fill="#000000" font-family="sans-serif" font-size="11" lengthAdjust="spacingAndGlyphs" textLength="152" x="12" y="290.1792">"biographies [documents]"</text><!--class _alt_description_--><rect fill="#FEFECE" filter="url(#f4ibkep)" height="23.9688" style="stroke: #A80036; stroke-width: 1.5;" width="118" x="205" y="262.5"/><text fill="#000000" font-family="sans-serif" font-size="12" lengthAdjust="spacingAndGlyphs" textLength="112" x="208" y="278.6387">&lt;alt_description&gt;</text><!--class _authorship_event_--><rect fill="#FEFECE" filter="url(#f4ibkep)" height="44.7734" style="stroke: #A80036; stroke-width: 1.5;" width="135" x="358.5" y="252"/><text fill="#000000" font-family="sans-serif" font-size="12" lengthAdjust="spacingAndGlyphs" textLength="129" x="361.5" y="268.1387">&lt;authorship_event&gt;</text><line style="stroke: #A80036; stroke-width: 1.5;" x1="359.5" x2="492.5" y1="275.9688" y2="275.9688"/><text fill="#000000" font-family="sans-serif" font-size="11" lengthAdjust="spacingAndGlyphs" textLength="112" x="364.5" y="290.1792">a crm:E65_Creation</text><!--class _entity_uri_--><rect fill="#FEFECE" filter="url(#f4ibkep)" height="44.7734" style="stroke: #A80036; stroke-width: 1.5;" width="105" x="211.5" y="8"/><text fill="#000000" font-family="sans-serif" font-size="12" lengthAdjust="spacingAndGlyphs" textLength="77" x="225.5" y="24.1387">&lt;entity_uri&gt;</text><line style="stroke: #A80036; stroke-width: 1.5;" x1="212.5" x2="315.5" y1="31.9688" y2="31.9688"/><text fill="#000000" font-family="sans-serif" font-size="11" lengthAdjust="spacingAndGlyphs" textLength="93" x="217.5" y="46.1792">a crm:E39_Actor</text><path d="M395.595,419.243 C385.068,427.7339 373.731,438.0582 365,449 C354.729,461.871 346.456,478.808 341.22,491.0535 " fill="none" style="stroke: #A80036; stroke-width: 1.0;"/><polygon fill="#A80036" points="339.164,495.9889,346.3165,489.2183,341.0862,491.3731,338.9313,486.1428,339.164,495.9889" style="stroke: #A80036; stroke-width: 1.0;"/><text fill="#000000" font-family="sans-serif" font-size="13" lengthAdjust="spacingAndGlyphs" textLength="107" x="366" y="462.0669">skos:exactMatch</text><path d="M449.795,419.134 C459.025,428.0088 469.415,438.622 478,449 C489.198,462.5369 500.204,479.3134 507.653,491.3354 " fill="none" style="stroke: #A80036; stroke-width: 1.0;"/><polygon fill="#A80036" points="510.424,495.8529,509.129,486.0896,507.8102,491.5905,502.3092,490.2717,510.424,495.8529" style="stroke: #A80036; stroke-width: 1.0;"/><text fill="#000000" font-family="sans-serif" font-size="13" lengthAdjust="spacingAndGlyphs" textLength="58" x="492" y="462.0669">rdfs:label</text><path d="M198.315,175.028 C179.751,182.829 160.209,192.794 144,205 C128.543,216.64 114.738,233.41 104.7026,247.444 " fill="none" style="stroke: #A80036; stroke-width: 1.0;"/><polygon fill="#A80036" points="101.7115,251.702,110.1583,246.6373,104.5858,247.6108,103.6123,242.0383,101.7115,251.702" style="stroke: #A80036; stroke-width: 1.0;"/><text fill="#000000" font-family="sans-serif" font-size="13" lengthAdjust="spacingAndGlyphs" textLength="110" x="145" y="218.0669">crm:P2_has_type</text><path d="M264,175.231 C264,198.891 264,236.178 264,257.368 " fill="none" style="stroke: #A80036; stroke-width: 1.0;"/><polygon fill="#A80036" points="264,262.391,268,253.391,264,257.391,260,253.391,264,262.391" style="stroke: #A80036; stroke-width: 1.0;"/><text fill="#000000" font-family="sans-serif" font-size="13" lengthAdjust="spacingAndGlyphs" textLength="55" x="265" y="218.0669">rdf:value</text><path d="M293.337,175.231 C321.321,195.96 363.423,227.147 392.664,248.806 " fill="none" style="stroke: #A80036; stroke-width: 1.0;"/><polygon fill="#A80036" points="396.881,251.931,392.0285,243.3605,392.8627,248.9555,387.2677,249.7897,396.881,251.931" style="stroke: #A80036; stroke-width: 1.0;"/><text fill="#000000" font-family="sans-serif" font-size="13" lengthAdjust="spacingAndGlyphs" textLength="165" x="356" y="218.0669">crm:P94i_was_created_by</text><path d="M264,53.231 C264,73.365 264,103.366 264,124.919 " fill="none" style="stroke: #A80036; stroke-width: 1.0;"/><polygon fill="#A80036" points="264,129.931,268,120.931,264,124.931,260,120.931,264,129.931" style="stroke: #A80036; stroke-width: 1.0;"/><text fill="#000000" font-family="sans-serif" font-size="13" lengthAdjust="spacingAndGlyphs" textLength="153" x="265" y="96.0669">crm:P129i_is_subject_of</text><path d="M426,297.231 C426,317.365 426,347.366 426,368.919 " fill="none" style="stroke: #A80036; stroke-width: 1.0;"/><polygon fill="#A80036" points="426,373.931,430,364.931,426,368.931,422,364.931,426,373.931" style="stroke: #A80036; stroke-width: 1.0;"/><text fill="#000000" font-family="sans-serif" font-size="13" lengthAdjust="spacingAndGlyphs" textLength="154" x="427" y="340.0669">crm:P14_carried_out_by</text></g></svg>