<?xml version="1.0" encoding="UTF-8" standalone="no"?><svg xmlns="http://www.w3.org/2000/svg" xmlns:xlink="http://www.w3.org/1999/xlink" contentScriptType="application/ecmascript" contentStyleType="text/css" height="745px" preserveAspectRatio="none" style="width:4360px;height:745px;" version="1.1" viewBox="0 0 4360 745" width="4360px" zoomAndPan="magnify"><defs><filter height="300%" id="fvhwegl" width="300%" x="-1" y="-1"><feGaussianBlur result="blurOut" stdDeviation="2.0"/><feColorMatrix in="blurOut" result="blurOut2" type="matrix" values="0 0 0 0 0 0 0 0 0 0 0 0 0 0 0 0 0 0 .4 0"/><feOffset dx="4.0" dy="4.0" in="blurOut2" result="blurOut3"/><feBlend in="SourceGraphic" in2="blurOut3" mode="normal"/></filter></defs><g><!--class _http___ycba_org5002_prov_1_--><rect fill="#FEFECE" filter="url(#fvhwegl)" height="44.7734" style="stroke: #A80036; stroke-width: 1.5;" width="388" x="434.5" y="284.5"/><text fill="#000000" font-family="sans-serif" font-size="12" lengthAdjust="spacingAndGlyphs" textLength="189" x="534" y="300.6387">&lt;http://ycba.org5002_prov-1&gt;</text><line style="stroke: #A80036; stroke-width: 1.5;" x1="435.5" x2="821.5" y1="308.4688" y2="308.4688"/><text fill="#000000" font-family="sans-serif" font-size="11" lengthAdjust="spacingAndGlyphs" textLength="46" x="440.5" y="322.6792">a &lt;http:</text><text fill="#000000" font-family="sans-serif" font-size="11" font-style="italic" lengthAdjust="spacingAndGlyphs" textLength="218" x="486.5" y="322.6792">crmE10_Transfer_of_Custody&gt;, &lt;http:</text><text fill="#000000" font-family="sans-serif" font-size="11" lengthAdjust="spacingAndGlyphs" textLength="112" x="704.5" y="322.6792">crmE8_Acquisition&gt;</text><!--class _http___ycba_org5002_--><rect fill="#FEFECE" filter="url(#fvhwegl)" height="57.5781" style="stroke: #A80036; stroke-width: 1.5;" width="245" x="2292" y="428"/><text fill="#000000" font-family="sans-serif" font-size="12" lengthAdjust="spacingAndGlyphs" textLength="144" x="2342.5" y="444.1387">&lt;http://ycba.org5002&gt;</text><line style="stroke: #A80036; stroke-width: 1.5;" x1="2293" x2="2536" y1="451.9688" y2="451.9688"/><text fill="#000000" font-family="sans-serif" font-size="11" lengthAdjust="spacingAndGlyphs" textLength="211" x="2298" y="466.1792">a &lt;http://crmE22_Man-Made_Object&gt;</text><text fill="#000000" font-family="sans-serif" font-size="11" lengthAdjust="spacingAndGlyphs" textLength="233" x="2298" y="478.9839">&lt;http://crmrlabel&gt; "The Earl of Newport"</text><!--class _http___ycba_org_partiessecond_earl_of_newport_--><rect fill="#FEFECE" filter="url(#fvhwegl)" height="23.9688" style="stroke: #A80036; stroke-width: 1.5;" width="317" x="445" y="445"/><text fill="#000000" font-family="sans-serif" font-size="12" lengthAdjust="spacingAndGlyphs" textLength="311" x="448" y="461.1387">&lt;http://ycba.org/partiessecond_earl_of_newport&gt;</text><!--class _http___ycba_org_partiesfirst_earl_of_newport_--><rect fill="#FEFECE" filter="url(#fvhwegl)" height="23.9688" style="stroke: #A80036; stroke-width: 1.5;" width="295" x="1203" y="445"/><text fill="#000000" font-family="sans-serif" font-size="12" lengthAdjust="spacingAndGlyphs" textLength="289" x="1206" y="461.1387">&lt;http://ycba.org/partiesfirst_earl_of_newport&gt;</text><!--class _aaaby_descent_--><rect fill="#FEFECE" filter="url(#fvhwegl)" height="23.9688" style="stroke: #A80036; stroke-width: 1.5;" width="121" x="801" y="445"/><text fill="#000000" font-family="sans-serif" font-size="12" lengthAdjust="spacingAndGlyphs" textLength="115" x="804" y="461.1387">&lt;aaaby_descent&gt;</text><!--class _5002_initial_ownership_--><rect fill="#FEFECE" filter="url(#fvhwegl)" height="23.9688" style="stroke: #A80036; stroke-width: 1.5;" width="167" x="6" y="445"/><text fill="#000000" font-family="sans-serif" font-size="12" lengthAdjust="spacingAndGlyphs" textLength="161" x="9" y="461.1387">&lt;5002_initial_ownership&gt;</text><!--class _http___ycba_org5002_prov_2_--><rect fill="#FEFECE" filter="url(#fvhwegl)" height="57.5781" style="stroke: #A80036; stroke-width: 1.5;" width="654" x="1347.5" y="278"/><text fill="#000000" font-family="sans-serif" font-size="12" lengthAdjust="spacingAndGlyphs" textLength="189" x="1580" y="294.1387">&lt;http://ycba.org5002_prov-2&gt;</text><line style="stroke: #A80036; stroke-width: 1.5;" x1="1348.5" x2="2000.5" y1="301.9688" y2="301.9688"/><text fill="#000000" font-family="sans-serif" font-size="11" lengthAdjust="spacingAndGlyphs" textLength="46" x="1353.5" y="316.1792">a &lt;http:</text><text fill="#000000" font-family="sans-serif" font-size="11" font-style="italic" lengthAdjust="spacingAndGlyphs" textLength="218" x="1399.5" y="316.1792">crmE10_Transfer_of_Custody&gt;, &lt;http:</text><text fill="#000000" font-family="sans-serif" font-size="11" lengthAdjust="spacingAndGlyphs" textLength="112" x="1617.5" y="316.1792">crmE8_Acquisition&gt;</text><text fill="#000000" font-family="sans-serif" font-size="11" lengthAdjust="spacingAndGlyphs" textLength="642" x="1353.5" y="328.9839">&lt;http://crmP3_has_note&gt; "Earls of Newport by descent to 4th Earl, who died in 1679, when title became extinct"</text><!--class _http___ycba_org_partiesthird_earl_of_newport_--><rect fill="#FEFECE" filter="url(#fvhwegl)" height="23.9688" style="stroke: #A80036; stroke-width: 1.5;" width="300" x="1533.5" y="445"/><text fill="#000000" font-family="sans-serif" font-size="12" lengthAdjust="spacingAndGlyphs" textLength="294" x="1536.5" y="461.1387">&lt;http://ycba.org/partiesthird_earl_of_newport&gt;</text><!--class _5002_prov_1_--><rect fill="#FEFECE" filter="url(#fvhwegl)" height="23.9688" style="stroke: #A80036; stroke-width: 1.5;" width="103" x="3216" y="445"/><text fill="#000000" font-family="sans-serif" font-size="12" lengthAdjust="spacingAndGlyphs" textLength="97" x="3219" y="461.1387">&lt;5002_prov-1&gt;</text><!--class _http___ycba_org5002_initial_ownership_--><rect fill="#FEFECE" filter="url(#fvhwegl)" height="57.5781" style="stroke: #A80036; stroke-width: 1.5;" width="654" x="2611.5" y="278"/><text fill="#000000" font-family="sans-serif" font-size="12" lengthAdjust="spacingAndGlyphs" textLength="253" x="2812" y="294.1387">&lt;http://ycba.org5002_initial_ownership&gt;</text><line style="stroke: #A80036; stroke-width: 1.5;" x1="2612.5" x2="3264.5" y1="301.9688" y2="301.9688"/><text fill="#000000" font-family="sans-serif" font-size="11" lengthAdjust="spacingAndGlyphs" textLength="46" x="2617.5" y="316.1792">a &lt;http:</text><text fill="#000000" font-family="sans-serif" font-size="11" font-style="italic" lengthAdjust="spacingAndGlyphs" textLength="218" x="2663.5" y="316.1792">crmE10_Transfer_of_Custody&gt;, &lt;http:</text><text fill="#000000" font-family="sans-serif" font-size="11" lengthAdjust="spacingAndGlyphs" textLength="112" x="2881.5" y="316.1792">crmE8_Acquisition&gt;</text><text fill="#000000" font-family="sans-serif" font-size="11" lengthAdjust="spacingAndGlyphs" textLength="642" x="2617.5" y="328.9839">&lt;http://crmP3_has_note&gt; "Earls of Newport by descent to 4th Earl, who died in 1679, when title became extinct"</text><!--class _aaacreation_--><rect fill="#FEFECE" filter="url(#fvhwegl)" height="23.9688" style="stroke: #A80036; stroke-width: 1.5;" width="102" x="3409.5" y="445"/><text fill="#000000" font-family="sans-serif" font-size="12" lengthAdjust="spacingAndGlyphs" textLength="96" x="3412.5" y="461.1387">&lt;aaacreation&gt;</text><!--class _http___ycba_org_parties500303557_--><rect fill="#FEFECE" filter="url(#fvhwegl)" height="57.5781" style="stroke: #A80036; stroke-width: 1.5;" width="279" x="2275" y="578"/><text fill="#000000" font-family="sans-serif" font-size="12" lengthAdjust="spacingAndGlyphs" textLength="232" x="2298.5" y="594.1387">&lt;http://ycba.org/parties500303557&gt;</text><line style="stroke: #A80036; stroke-width: 1.5;" x1="2276" x2="2553" y1="601.9688" y2="601.9688"/><text fill="#000000" font-family="sans-serif" font-size="11" lengthAdjust="spacingAndGlyphs" textLength="176" x="2281" y="616.1792">a &lt;http://crmE40_Legal_Body&gt;</text><text fill="#000000" font-family="sans-serif" font-size="11" lengthAdjust="spacingAndGlyphs" textLength="267" x="2281" y="628.9839">&lt;http://crmrlabel&gt; "Yale Center for British Art"</text><!--class _http___geonames_org4839366_--><rect fill="#FEFECE" filter="url(#fvhwegl)" height="23.9688" style="stroke: #A80036; stroke-width: 1.5;" width="211" x="2309" y="713"/><text fill="#000000" font-family="sans-serif" font-size="12" lengthAdjust="spacingAndGlyphs" textLength="205" x="2312" y="729.1387">&lt;http://geonames.org4839366&gt;</text><!--class _http___museumprovenance_orgprovenance_record_--><rect fill="#FEFECE" filter="url(#fvhwegl)" height="57.5781" style="stroke: #A80036; stroke-width: 1.5;" width="337" x="2783" y="143"/><text fill="#000000" font-family="sans-serif" font-size="12" lengthAdjust="spacingAndGlyphs" textLength="331" x="2786" y="159.1387">&lt;http://museumprovenance.orgprovenance_record&gt;</text><line style="stroke: #A80036; stroke-width: 1.5;" x1="2784" x2="3119" y1="166.9688" y2="166.9688"/><text fill="#000000" font-family="sans-serif" font-size="11" lengthAdjust="spacingAndGlyphs" textLength="139" x="2789" y="181.1792">a &lt;http://crmE55_Type&gt;</text><text fill="#000000" font-family="sans-serif" font-size="11" lengthAdjust="spacingAndGlyphs" textLength="281" x="2789" y="193.9839">&lt;http://crmrlabel&gt; "A written provenance record"</text><!--class _http___ycba_org_partieslady_caroline_damer_and_husband_--><rect fill="#FEFECE" filter="url(#fvhwegl)" height="44.7734" style="stroke: #A80036; stroke-width: 1.5;" width="384" x="3672.5" y="14.5"/><text fill="#000000" font-family="sans-serif" font-size="12" lengthAdjust="spacingAndGlyphs" textLength="378" x="3675.5" y="30.6387">&lt;http://ycba.org/partieslady_caroline_damer_and_husband&gt;</text><line style="stroke: #A80036; stroke-width: 1.5;" x1="3673.5" x2="4055.5" y1="38.4688" y2="38.4688"/><text fill="#000000" font-family="sans-serif" font-size="11" lengthAdjust="spacingAndGlyphs" textLength="176" x="3678.5" y="52.6792">a &lt;http://crmE40_Legal_Body&gt;</text><!--class _http___ycba_orghenry_dawson_damer_--><rect fill="#FEFECE" filter="url(#fvhwegl)" height="23.9688" style="stroke: #A80036; stroke-width: 1.5;" width="251" x="3552" y="160"/><text fill="#000000" font-family="sans-serif" font-size="12" lengthAdjust="spacingAndGlyphs" textLength="245" x="3555" y="176.1387">&lt;http://ycba.orghenry_dawson-damer&gt;</text><!--class _http___ycba_orglady_caroline_damer_--><rect fill="#FEFECE" filter="url(#fvhwegl)" height="23.9688" style="stroke: #A80036; stroke-width: 1.5;" width="245" x="3929" y="160"/><text fill="#000000" font-family="sans-serif" font-size="12" lengthAdjust="spacingAndGlyphs" textLength="239" x="3932" y="176.1387">&lt;http://ycba.orglady_caroline_damer&gt;</text><!--class _http___ycba_org5002_provenance_--><rect fill="#FEFECE" filter="url(#fvhwegl)" height="57.5781" style="stroke: #A80036; stroke-width: 1.5;" width="230" x="2836.5" y="8"/><text fill="#000000" font-family="sans-serif" font-size="12" lengthAdjust="spacingAndGlyphs" textLength="224" x="2839.5" y="24.1387">&lt;http://ycba.org5002_provenance&gt;</text><line style="stroke: #A80036; stroke-width: 1.5;" x1="2837.5" x2="3065.5" y1="31.9688" y2="31.9688"/><text fill="#000000" font-family="sans-serif" font-size="11" lengthAdjust="spacingAndGlyphs" textLength="169" x="2842.5" y="46.1792">a &lt;http://crmE31_Document&gt;</text><text fill="#000000" font-family="sans-serif" font-size="11" lengthAdjust="spacingAndGlyphs" textLength="172" x="2842.5" y="58.9839">&lt;http://crmP3_has_note&gt; "..."</text><!--class _http___ycba_org5002_provenance_period_--><rect fill="#FEFECE" filter="url(#fvhwegl)" height="44.7734" style="stroke: #A80036; stroke-width: 1.5;" width="276" x="3240.5" y="149.5"/><text fill="#000000" font-family="sans-serif" font-size="12" lengthAdjust="spacingAndGlyphs" textLength="270" x="3243.5" y="165.6387">&lt;http://ycba.org5002_provenance_period&gt;</text><line style="stroke: #A80036; stroke-width: 1.5;" x1="3241.5" x2="3515.5" y1="173.4688" y2="173.4688"/><text fill="#000000" font-family="sans-serif" font-size="11" lengthAdjust="spacingAndGlyphs" textLength="141" x="3246.5" y="187.6792">a &lt;http://crmE4_Period&gt;</text><!--class _http___museumprovenance_orgartwork_history_--><rect fill="#FEFECE" filter="url(#fvhwegl)" height="57.5781" style="stroke: #A80036; stroke-width: 1.5;" width="328" x="3300.5" y="278"/><text fill="#000000" font-family="sans-serif" font-size="12" lengthAdjust="spacingAndGlyphs" textLength="305" x="3312" y="294.1387">&lt;http://museumprovenance.orgartwork_history&gt;</text><line style="stroke: #A80036; stroke-width: 1.5;" x1="3301.5" x2="3627.5" y1="301.9688" y2="301.9688"/><text fill="#000000" font-family="sans-serif" font-size="11" lengthAdjust="spacingAndGlyphs" textLength="139" x="3306.5" y="316.1792">a &lt;http://crmE55_Type&gt;</text><text fill="#000000" font-family="sans-serif" font-size="11" lengthAdjust="spacingAndGlyphs" textLength="316" x="3306.5" y="328.9839">&lt;http://crmrlabel&gt; "The period of existence for a work"</text><path d="M822.679,315.784 C1181.67,330.295 1914.04,360.511 1926.5,366 C1944.91,374.11 1940.44,389.144 1958.5,398 C2014.58,425.505 2172.6,441.06 2286.9,448.994 " fill="none" style="stroke: #A80036; stroke-width: 1.0;"/><polygon fill="#A80036" points="2291.97,449.343,2283.2655,444.7351,2286.9818,449.0001,2282.7168,452.7163,2291.97,449.343" style="stroke: #A80036; stroke-width: 1.0;"/><text fill="#000000" font-family="sans-serif" font-size="13" lengthAdjust="spacingAndGlyphs" textLength="221" x="1980.5" y="379.0669">&lt;http://crmP24_acquired_title_of&gt;</text><text fill="#000000" font-family="sans-serif" font-size="13" lengthAdjust="spacingAndGlyphs" textLength="263" x="1959.5" y="394.1997">&lt;http://crmP30_custody_transferred_of&gt;</text><path d="M434.39,327.157 C388.766,335.796 349.119,348.216 334.5,366 C294.338,414.859 362.176,437.346 439.759,447.625 " fill="none" style="stroke: #A80036; stroke-width: 1.0;"/><polygon fill="#A80036" points="444.882,448.285,436.4664,443.1685,439.9229,447.6465,435.4449,451.103,444.882,448.285" style="stroke: #A80036; stroke-width: 1.0;"/><text fill="#000000" font-family="sans-serif" font-size="13" lengthAdjust="spacingAndGlyphs" textLength="238" x="341" y="379.0669">&lt;http://crmP22_transferred_title_to&gt;</text><text fill="#000000" font-family="sans-serif" font-size="13" lengthAdjust="spacingAndGlyphs" textLength="249" x="335.5" y="394.1997">&lt;http://crmP29_custody_received_by&gt;</text><path d="M822.593,313.444 C1013.55,320.516 1282,335.727 1320.5,366 C1343.08,383.756 1348.82,419.093 1350.18,439.814 " fill="none" style="stroke: #A80036; stroke-width: 1.0;"/><polygon fill="#A80036" points="1350.45,444.995,1353.9772,435.7994,1350.1904,440.0017,1345.988,436.2149,1350.45,444.995" style="stroke: #A80036; stroke-width: 1.0;"/><text fill="#000000" font-family="sans-serif" font-size="13" lengthAdjust="spacingAndGlyphs" textLength="255" x="1352.5" y="379.0669">&lt;http://crmP23_transferred_title_from&gt;</text><text fill="#000000" font-family="sans-serif" font-size="13" lengthAdjust="spacingAndGlyphs" textLength="273" x="1343.5" y="394.1997">&lt;http://crmP28_custody_surrendered_by&gt;</text><path d="M620.385,329.854 C614.497,349.875 609.991,379.178 625.5,398 C669.843,451.815 712.126,410.025 779.5,428 C795.431,432.25 812.753,437.994 827.353,443.173 " fill="none" style="stroke: #A80036; stroke-width: 1.0;"/><polygon fill="#A80036" points="832.195,444.905,825.0681,438.1074,827.4871,443.221,822.3736,445.64,832.195,444.905" style="stroke: #A80036; stroke-width: 1.0;"/><text fill="#000000" font-family="sans-serif" font-size="13" lengthAdjust="spacingAndGlyphs" textLength="166" x="626.5" y="386.5669">&lt;http://crmP2_has_type&gt;</text><path d="M434.372,318.608 C296.58,327.976 131.878,343.645 107.5,366 C87.1244,384.685 86.0992,419.381 87.5547,439.804 " fill="none" style="stroke: #A80036; stroke-width: 1.0;"/><polygon fill="#A80036" points="87.9923,444.915,91.2088,435.6062,87.5652,439.9333,83.2381,436.2896,87.9923,444.915" style="stroke: #A80036; stroke-width: 1.0;"/><text fill="#000000" font-family="sans-serif" font-size="13" lengthAdjust="spacingAndGlyphs" textLength="206" x="108.5" y="386.5669">&lt;http://crmP120i_occurs_after&gt;</text><path d="M1671.62,336.039 C1670.28,353.831 1669.38,377.315 1671.5,398 C1672.97,412.37 1676.44,428.435 1679.27,440.007 " fill="none" style="stroke: #A80036; stroke-width: 1.0;"/><polygon fill="#A80036" points="1680.52,444.986,1682.2083,435.2829,1679.3026,440.1365,1674.4491,437.2308,1680.52,444.986" style="stroke: #A80036; stroke-width: 1.0;"/><text fill="#000000" font-family="sans-serif" font-size="13" lengthAdjust="spacingAndGlyphs" textLength="238" x="1678" y="379.0669">&lt;http://crmP22_transferred_title_to&gt;</text><text fill="#000000" font-family="sans-serif" font-size="13" lengthAdjust="spacingAndGlyphs" textLength="249" x="1672.5" y="394.1997">&lt;http://crmP29_custody_received_by&gt;</text><path d="M2001.52,325.25 C2097.47,333.979 2188.24,346.93 2231.5,366 C2251.09,374.635 2249.26,386.788 2267.5,398 C2284.84,408.663 2304.49,418.018 2323.64,425.927 " fill="none" style="stroke: #A80036; stroke-width: 1.0;"/><polygon fill="#A80036" points="2328.49,427.907,2321.6636,420.8077,2323.8593,426.021,2318.646,428.2168,2328.49,427.907" style="stroke: #A80036; stroke-width: 1.0;"/><text fill="#000000" font-family="sans-serif" font-size="13" lengthAdjust="spacingAndGlyphs" textLength="221" x="2289.5" y="379.0669">&lt;http://crmP24_acquired_title_of&gt;</text><text fill="#000000" font-family="sans-serif" font-size="13" lengthAdjust="spacingAndGlyphs" textLength="263" x="2268.5" y="394.1997">&lt;http://crmP30_custody_transferred_of&gt;</text><path d="M1347.3,319.489 C1130.24,328.997 876.869,344.449 829.5,366 C811.192,374.329 814.772,387.694 797.5,398 C759.508,420.668 711.986,435.066 673.485,443.846 " fill="none" style="stroke: #A80036; stroke-width: 1.0;"/><polygon fill="#A80036" points="668.355,444.995,678.0117,446.9309,673.2341,443.902,676.263,439.1244,668.355,444.995" style="stroke: #A80036; stroke-width: 1.0;"/><text fill="#000000" font-family="sans-serif" font-size="13" lengthAdjust="spacingAndGlyphs" textLength="255" x="839.5" y="379.0669">&lt;http://crmP23_transferred_title_from&gt;</text><text fill="#000000" font-family="sans-serif" font-size="13" lengthAdjust="spacingAndGlyphs" textLength="273" x="830.5" y="394.1997">&lt;http://crmP28_custody_surrendered_by&gt;</text><path d="M1347.22,326.313 C1261.71,334.987 1182.79,347.637 1144.5,366 C1126.36,374.698 1130.09,388.247 1112.5,398 C1054.71,430.039 980.032,444.415 927.2,450.844 " fill="none" style="stroke: #A80036; stroke-width: 1.0;"/><polygon fill="#A80036" points="922.157,451.442,931.5653,454.3546,927.1222,450.8533,930.6235,446.4102,922.157,451.442" style="stroke: #A80036; stroke-width: 1.0;"/><text fill="#000000" font-family="sans-serif" font-size="13" lengthAdjust="spacingAndGlyphs" textLength="166" x="1145.5" y="386.5669">&lt;http://crmP2_has_type&gt;</text><path d="M2001.61,317.696 C2434.62,330.955 3146.99,354.413 3173.5,366 C3191.93,374.055 3191.04,384.017 3205.5,398 C3221.05,413.044 3239.16,429.909 3251.77,441.558 " fill="none" style="stroke: #A80036; stroke-width: 1.0;"/><polygon fill="#A80036" points="3255.5,444.998,3251.5902,435.9584,3251.8224,441.6105,3246.1703,441.8426,3255.5,444.998" style="stroke: #A80036; stroke-width: 1.0;"/><text fill="#000000" font-family="sans-serif" font-size="13" lengthAdjust="spacingAndGlyphs" textLength="206" x="3206.5" y="386.5669">&lt;http://crmP120i_occurs_after&gt;</text><path d="M2924.49,336.067 C2912.58,356.793 2893.43,383.778 2868.5,398 C2814.43,428.843 2656.5,443.657 2542.09,450.51 " fill="none" style="stroke: #A80036; stroke-width: 1.0;"/><polygon fill="#A80036" points="2537.01,450.811,2546.2338,454.2638,2542.001,450.511,2545.7538,446.2783,2537.01,450.811" style="stroke: #A80036; stroke-width: 1.0;"/><text fill="#000000" font-family="sans-serif" font-size="13" lengthAdjust="spacingAndGlyphs" textLength="221" x="2925.5" y="379.0669">&lt;http://crmP24_acquired_title_of&gt;</text><text fill="#000000" font-family="sans-serif" font-size="13" lengthAdjust="spacingAndGlyphs" textLength="263" x="2904.5" y="394.1997">&lt;http://crmP30_custody_transferred_of&gt;</text><path d="M2731.62,336.008 C2690.68,343.912 2648.37,353.789 2609.5,366 C2577.25,376.131 2573.4,390.236 2540.5,398 C2318.72,450.339 1742.27,405.55 1515.5,428 C1479.96,431.519 1440.51,438.114 1409.09,444.02 " fill="none" style="stroke: #A80036; stroke-width: 1.0;"/><polygon fill="#A80036" points="1404.12,444.961,1413.7064,447.2194,1409.033,444.0321,1412.2202,439.3587,1404.12,444.961" style="stroke: #A80036; stroke-width: 1.0;"/><text fill="#000000" font-family="sans-serif" font-size="13" lengthAdjust="spacingAndGlyphs" textLength="238" x="2616" y="379.0669">&lt;http://crmP22_transferred_title_to&gt;</text><text fill="#000000" font-family="sans-serif" font-size="13" lengthAdjust="spacingAndGlyphs" textLength="249" x="2610.5" y="394.1997">&lt;http://crmP29_custody_received_by&gt;</text><path d="M3265.81,335.28 C3342.4,344.159 3406.31,354.673 3421.5,366 C3445.31,383.754 3454.78,419.092 3458.4,439.813 " fill="none" style="stroke: #A80036; stroke-width: 1.0;"/><polygon fill="#A80036" points="3459.23,444.995,3461.7444,435.4725,3458.4331,440.0589,3453.8467,436.7476,3459.23,444.995" style="stroke: #A80036; stroke-width: 1.0;"/><text fill="#000000" font-family="sans-serif" font-size="13" lengthAdjust="spacingAndGlyphs" textLength="166" x="3446.5" y="386.5669">&lt;http://crmP2_has_type&gt;</text><path d="M2414.5,636.08 C2414.5,658.4421 2414.5,688.9749 2414.5,707.5464 " fill="none" style="stroke: #A80036; stroke-width: 1.0;"/><polygon fill="#A80036" points="2414.5,712.9037,2418.5,703.9037,2414.5,707.9037,2410.5,703.9037,2414.5,712.9037" style="stroke: #A80036; stroke-width: 1.0;"/><text fill="#000000" font-family="sans-serif" font-size="13" lengthAdjust="spacingAndGlyphs" textLength="319" x="2415.5" y="679.0669">&lt;http://crmP53_has_former_or_current_location&gt;</text><path d="M2414.5,486.186 C2414.5,510.875 2414.5,546.781 2414.5,572.844 " fill="none" style="stroke: #A80036; stroke-width: 1.0;"/><polygon fill="#A80036" points="2414.5,577.919,2418.5,568.919,2414.5,572.919,2410.5,568.919,2414.5,577.919" style="stroke: #A80036; stroke-width: 1.0;"/><text fill="#000000" font-family="sans-serif" font-size="13" lengthAdjust="spacingAndGlyphs" textLength="243" x="2415.5" y="529.0669">&lt;http://crmP50_has_current_keeper&gt;</text><text fill="#000000" font-family="sans-serif" font-size="13" lengthAdjust="spacingAndGlyphs" textLength="237" x="2418.5" y="544.1997">&lt;http://crmP52_has_current_owner&gt;</text><path d="M3720.7,59.565 C3702.66,68.153 3686.4,79.923 3674.5,96 C3661.92,112.99 3666.49,138.563 3671.52,155.02 " fill="none" style="stroke: #A80036; stroke-width: 1.0;"/><polygon fill="#A80036" points="3673.08,159.814,3674.103,150.0184,3671.5349,155.0587,3666.4946,152.4906,3673.08,159.814" style="stroke: #A80036; stroke-width: 1.0;"/><text fill="#000000" font-family="sans-serif" font-size="13" lengthAdjust="spacingAndGlyphs" textLength="332" x="3675.5" y="109.0669">&lt;http://crmP107_has_current_or_former_member&gt;</text><path d="M3949.88,59.617 C3972.1,68.242 3994.75,80.038 4012.5,96 C4030.3,112.008 4041.25,138.067 4046.85,154.869 " fill="none" style="stroke: #A80036; stroke-width: 1.0;"/><polygon fill="#A80036" points="4048.42,159.765,4049.4803,149.9734,4046.893,155.0039,4041.8625,152.4166,4048.42,159.765" style="stroke: #A80036; stroke-width: 1.0;"/><text fill="#000000" font-family="sans-serif" font-size="13" lengthAdjust="spacingAndGlyphs" textLength="332" x="4027.5" y="109.0669">&lt;http://crmP107_has_current_or_former_member&gt;</text><path d="M2951.5,66.206 C2951.5,87.101 2951.5,115.649 2951.5,137.671 " fill="none" style="stroke: #A80036; stroke-width: 1.0;"/><polygon fill="#A80036" points="2951.5,142.835,2955.5,133.835,2951.5,137.835,2947.5,133.835,2951.5,142.835" style="stroke: #A80036; stroke-width: 1.0;"/><text fill="#000000" font-family="sans-serif" font-size="13" lengthAdjust="spacingAndGlyphs" textLength="166" x="2952.5" y="109.0669">&lt;http://crmP2_has_type&gt;</text><path d="M2896.89,66.004 C2859.12,86.049 2808.18,114.44 2765.5,143 C2684.73,197.041 2654.18,202.095 2593.5,278 C2556.63,324.119 2578.24,356.242 2536.5,398 C2525.7,408.804 2512.5,417.864 2498.81,425.37 " fill="none" style="stroke: #A80036; stroke-width: 1.0;"/><polygon fill="#A80036" points="2494.16,427.856,2503.9847,427.166,2498.5756,425.5102,2500.2314,420.1011,2494.16,427.856" style="stroke: #A80036; stroke-width: 1.0;"/><text fill="#000000" font-family="sans-serif" font-size="13" lengthAdjust="spacingAndGlyphs" textLength="178" x="2636.5" y="244.0669">&lt;http://crmP129_is_about&gt;</text><path d="M3041.53,66.043 C3119.55,90.343 3231.08,125.082 3304.12,147.834 " fill="none" style="stroke: #A80036; stroke-width: 1.0;"/><polygon fill="#A80036" points="3309.32,149.451,3301.9156,142.9568,3304.546,147.9649,3299.5378,150.5953,3309.32,149.451" style="stroke: #A80036; stroke-width: 1.0;"/><text fill="#000000" font-family="sans-serif" font-size="13" lengthAdjust="spacingAndGlyphs" textLength="188" x="3192.5" y="109.0669">&lt;http://crmP70_documents&gt;</text><path d="M3307.32,194.517 C3233.75,216.754 3118.38,251.626 3036.28,276.443 " fill="none" style="stroke: #A80036; stroke-width: 1.0;"/><polygon fill="#A80036" points="3031.42,277.914,3041.1915,279.1458,3036.2072,276.4707,3038.8823,271.4863,3031.42,277.914" style="stroke: #A80036; stroke-width: 1.0;"/><text fill="#000000" font-family="sans-serif" font-size="13" lengthAdjust="spacingAndGlyphs" textLength="179" x="3186.5" y="244.0669">&lt;http://crmP9_consists_of&gt;</text><path d="M3392.51,194.665 C3406.31,216.008 3427.57,248.883 3443.41,273.385 " fill="none" style="stroke: #A80036; stroke-width: 1.0;"/><polygon fill="#A80036" points="3446.3,277.858,3444.7745,268.128,3443.5861,273.6586,3438.0555,272.4702,3446.3,277.858" style="stroke: #A80036; stroke-width: 1.0;"/><text fill="#000000" font-family="sans-serif" font-size="13" lengthAdjust="spacingAndGlyphs" textLength="166" x="3428.5" y="244.0669">&lt;http://crmP2_has_type&gt;</text><path d="M3486.13,194.533 C3533.57,205.277 3583.13,218.597 3603.5,231 C3627.43,245.569 3635.51,251.828 3645.5,278 C3654.69,302.083 3650.23,310.661 3645.5,336 C3640.07,365.046 3644.74,379.754 3621.5,398 C3580.96,429.829 3442.25,418.98 3391.5,428 C3366.75,432.398 3339.48,438.425 3316.83,443.76 " fill="none" style="stroke: #A80036; stroke-width: 1.0;"/><polygon fill="#A80036" points="3311.78,444.958,3321.4613,446.7672,3316.6443,443.8012,3319.6104,438.9843,3311.78,444.958" style="stroke: #A80036; stroke-width: 1.0;"/><text fill="#000000" font-family="sans-serif" font-size="13" lengthAdjust="spacingAndGlyphs" textLength="179" x="3652.5" y="311.5669">&lt;http://crmP9_consists_of&gt;</text></g></svg>