<?xml version="1.0" encoding="UTF-8" standalone="no"?><svg xmlns="http://www.w3.org/2000/svg" xmlns:xlink="http://www.w3.org/1999/xlink" contentScriptType="application/ecmascript" contentStyleType="text/css" height="427px" preserveAspectRatio="none" style="width:393px;height:427px;" version="1.1" viewBox="0 0 393 427" width="393px" zoomAndPan="magnify"><defs><filter height="300%" id="flg0q7p" width="300%" x="-1" y="-1"><feGaussianBlur result="blurOut" stdDeviation="2.0"/><feColorMatrix in="blurOut" result="blurOut2" type="matrix" values="0 0 0 0 0 0 0 0 0 0 0 0 0 0 0 0 0 0 .4 0"/><feOffset dx="4.0" dy="4.0" in="blurOut2" result="blurOut3"/><feBlend in="SourceGraphic" in2="blurOut3" mode="normal"/></filter></defs><g><!--class _name_suffix_class_--><rect fill="#FEFECE" filter="url(#flg0q7p)" height="44.7734" style="stroke: #A80036; stroke-width: 1.5;" width="173" x="19" y="130"/><text fill="#000000" font-family="sans-serif" font-size="12" lengthAdjust="spacingAndGlyphs" textLength="131" x="40" y="146.1387">&lt;name_suffix_class&gt;</text><line style="stroke: #A80036; stroke-width: 1.5;" x1="20" x2="191" y1="153.9688" y2="153.9688"/><text fill="#000000" font-family="sans-serif" font-size="11" lengthAdjust="spacingAndGlyphs" textLength="161" x="25" y="168.1792">a crm:E82_Actor_Appellation</text><!--class _name_suffix_--><rect fill="#FEFECE" filter="url(#flg0q7p)" height="23.9688" style="stroke: #A80036; stroke-width: 1.5;" width="99" x="6" y="262.5"/><text fill="#000000" font-family="sans-serif" font-size="12" lengthAdjust="spacingAndGlyphs" textLength="93" x="9" y="278.6387">&lt;name_suffix&gt;</text><!--class _name_suffix_type_class_--><rect fill="#FEFECE" filter="url(#flg0q7p)" height="44.7734" style="stroke: #A80036; stroke-width: 1.5;" width="170" x="140.5" y="252"/><text fill="#000000" font-family="sans-serif" font-size="12" lengthAdjust="spacingAndGlyphs" textLength="164" x="143.5" y="268.1387">&lt;name_suffix_type_class&gt;</text><line style="stroke: #A80036; stroke-width: 1.5;" x1="141.5" x2="309.5" y1="275.9688" y2="275.9688"/><text fill="#000000" font-family="sans-serif" font-size="11" lengthAdjust="spacingAndGlyphs" textLength="91" x="146.5" y="290.1792">a crm:E55_Type</text><!--class _entity_uri_--><rect fill="#FEFECE" filter="url(#flg0q7p)" height="44.7734" style="stroke: #A80036; stroke-width: 1.5;" width="105" x="53" y="8"/><text fill="#000000" font-family="sans-serif" font-size="12" lengthAdjust="spacingAndGlyphs" textLength="77" x="67" y="24.1387">&lt;entity_uri&gt;</text><line style="stroke: #A80036; stroke-width: 1.5;" x1="54" x2="157" y1="31.9688" y2="31.9688"/><text fill="#000000" font-family="sans-serif" font-size="11" lengthAdjust="spacingAndGlyphs" textLength="93" x="59" y="46.1792">a crm:E39_Actor</text><!--class aat_300404662--><rect fill="#FEFECE" filter="url(#flg0q7p)" height="44.7734" style="stroke: #A80036; stroke-width: 1.5;" width="167" x="50" y="374"/><text fill="#000000" font-family="sans-serif" font-size="12" lengthAdjust="spacingAndGlyphs" textLength="97" x="85" y="390.1387">aat:300404662</text><line style="stroke: #A80036; stroke-width: 1.5;" x1="51" x2="216" y1="397.9688" y2="397.9688"/><text fill="#000000" font-family="sans-serif" font-size="11" lengthAdjust="spacingAndGlyphs" textLength="155" x="56" y="412.1792">"suffixes [name additions]"</text><!--class _name_suffix_type_--><rect fill="#FEFECE" filter="url(#flg0q7p)" height="23.9688" style="stroke: #A80036; stroke-width: 1.5;" width="132" x="252.5" y="384.5"/><text fill="#000000" font-family="sans-serif" font-size="12" lengthAdjust="spacingAndGlyphs" textLength="126" x="255.5" y="400.6387">&lt;name_suffix_type&gt;</text><path d="M96.4454,175.231 C86.5452,198.992 70.9191,236.494 62.1097,257.637 " fill="none" style="stroke: #A80036; stroke-width: 1.0;"/><polygon fill="#A80036" points="60.1289,262.391,67.2825,255.6215,62.0518,257.7756,59.8978,252.5449,60.1289,262.391" style="stroke: #A80036; stroke-width: 1.0;"/><text fill="#000000" font-family="sans-serif" font-size="13" lengthAdjust="spacingAndGlyphs" textLength="58" x="84.5" y="218.0669">rdfs:label</text><path d="M127.231,175.231 C147.79,195.79 178.636,226.636 200.272,248.272 " fill="none" style="stroke: #A80036; stroke-width: 1.0;"/><polygon fill="#A80036" points="203.931,251.931,200.3955,242.7386,200.3955,248.3955,194.7386,248.3955,203.931,251.931" style="stroke: #A80036; stroke-width: 1.0;"/><text fill="#000000" font-family="sans-serif" font-size="13" lengthAdjust="spacingAndGlyphs" textLength="110" x="174.5" y="218.0669">crm:P2_has_type</text><path d="M105.5,53.231 C105.5,73.365 105.5,103.366 105.5,124.919 " fill="none" style="stroke: #A80036; stroke-width: 1.0;"/><polygon fill="#A80036" points="105.5,129.931,109.5,120.931,105.5,124.931,101.5,120.931,105.5,129.931" style="stroke: #A80036; stroke-width: 1.0;"/><text fill="#000000" font-family="sans-serif" font-size="13" lengthAdjust="spacingAndGlyphs" textLength="165" x="106.5" y="96.0669">crm:P131_is_identified_by</text><path d="M194.463,297.248 C183.994,305.667 172.858,315.944 164.5,327 C154.965,339.6126 147.513,355.6248 142.308,368.9962 " fill="none" style="stroke: #A80036; stroke-width: 1.0;"/><polygon fill="#A80036" points="140.492,373.7917,147.4202,366.7917,142.2628,369.1158,139.9387,363.9584,140.492,373.7917" style="stroke: #A80036; stroke-width: 1.0;"/><text fill="#000000" font-family="sans-serif" font-size="13" lengthAdjust="spacingAndGlyphs" textLength="109" x="165.5" y="340.0669">skos:broadMatch</text><path d="M251.231,297.18 C260.736,305.894 271.204,316.384 279.5,327 C292.521,343.6629 304.033,365.169 311.113,379.5996 " fill="none" style="stroke: #A80036; stroke-width: 1.0;"/><polygon fill="#A80036" points="313.34,384.205,313.0231,374.3612,311.1633,379.7037,305.8209,377.8439,313.34,384.205" style="stroke: #A80036; stroke-width: 1.0;"/><text fill="#000000" font-family="sans-serif" font-size="13" lengthAdjust="spacingAndGlyphs" textLength="92" x="292.5" y="340.0669">skos:prefLabel</text></g></svg>