<?xml version="1.0" encoding="UTF-8" standalone="no"?><svg xmlns="http://www.w3.org/2000/svg" xmlns:xlink="http://www.w3.org/1999/xlink" contentScriptType="application/ecmascript" contentStyleType="text/css" height="434px" preserveAspectRatio="none" style="width:397px;height:434px;" version="1.1" viewBox="0 0 397 434" width="397px" zoomAndPan="magnify"><defs><filter height="300%" id="f0o8et9" width="300%" x="-1" y="-1"><feGaussianBlur result="blurOut" stdDeviation="2.0"/><feColorMatrix in="blurOut" result="blurOut2" type="matrix" values="0 0 0 0 0 0 0 0 0 0 0 0 0 0 0 0 0 0 .4 0"/><feOffset dx="4.0" dy="4.0" in="blurOut2" result="blurOut3"/><feBlend in="SourceGraphic" in2="blurOut3" mode="normal"/></filter></defs><g><!--class _name_prefix_class_--><rect fill="#FEFECE" filter="url(#f0o8et9)" height="44.7734" style="stroke: #A80036; stroke-width: 1.5;" width="173" x="20" y="132.5"/><text fill="#000000" font-family="sans-serif" font-size="12" lengthAdjust="spacingAndGlyphs" textLength="133" x="40" y="148.6387">&lt;name_prefix_class&gt;</text><line style="stroke: #A80036; stroke-width: 1.5;" x1="21" x2="192" y1="156.4688" y2="156.4688"/><text fill="#000000" font-family="sans-serif" font-size="11" lengthAdjust="spacingAndGlyphs" textLength="161" x="26" y="170.6792">a crm:E82_Actor_Appellation</text><!--class _name_prefix_--><rect fill="#FEFECE" filter="url(#f0o8et9)" height="23.9688" style="stroke: #A80036; stroke-width: 1.5;" width="101" x="6" y="267"/><text fill="#000000" font-family="sans-serif" font-size="12" lengthAdjust="spacingAndGlyphs" textLength="95" x="9" y="283.1387">&lt;name_prefix&gt;</text><!--class _name_prefix_type_class_--><rect fill="#FEFECE" filter="url(#f0o8et9)" height="44.7734" style="stroke: #A80036; stroke-width: 1.5;" width="172" x="142.25" y="256.5"/><text fill="#000000" font-family="sans-serif" font-size="12" lengthAdjust="spacingAndGlyphs" textLength="166" x="145.25" y="272.6387">&lt;name_prefix_type_class&gt;</text><line style="stroke: #A80036; stroke-width: 1.5;" x1="143.25" x2="313.25" y1="280.4688" y2="280.4688"/><text fill="#000000" font-family="sans-serif" font-size="11" lengthAdjust="spacingAndGlyphs" textLength="91" x="148.25" y="294.6792">a crm:E55_Type</text><!--class aat_300404845--><rect fill="#FEFECE" filter="url(#f0o8et9)" height="44.7734" style="stroke: #A80036; stroke-width: 1.5;" width="168" x="51.25" y="380.5"/><text fill="#000000" font-family="sans-serif" font-size="12" lengthAdjust="spacingAndGlyphs" textLength="97" x="86.75" y="396.6387">aat:300404845</text><line style="stroke: #A80036; stroke-width: 1.5;" x1="52.25" x2="218.25" y1="404.4688" y2="404.4688"/><text fill="#000000" font-family="sans-serif" font-size="11" lengthAdjust="spacingAndGlyphs" textLength="156" x="57.25" y="418.6792">"prefixes [name additions]"</text><!--class _entity_uri_--><rect fill="#FEFECE" filter="url(#f0o8et9)" height="44.7734" style="stroke: #A80036; stroke-width: 1.5;" width="105" x="54" y="8.5"/><text fill="#000000" font-family="sans-serif" font-size="12" lengthAdjust="spacingAndGlyphs" textLength="77" x="68" y="24.6387">&lt;entity_uri&gt;</text><line style="stroke: #A80036; stroke-width: 1.5;" x1="55" x2="158" y1="32.4688" y2="32.4688"/><text fill="#000000" font-family="sans-serif" font-size="11" lengthAdjust="spacingAndGlyphs" textLength="93" x="60" y="46.6792">a crm:E39_Actor</text><!--class _name_prefix_type_--><rect fill="#FEFECE" filter="url(#f0o8et9)" height="23.9688" style="stroke: #A80036; stroke-width: 1.5;" width="134" x="254.25" y="391"/><text fill="#000000" font-family="sans-serif" font-size="12" lengthAdjust="spacingAndGlyphs" textLength="128" x="257.25" y="407.1387">&lt;name_prefix_type&gt;</text><path d="M97.4261,177.53 C87.5115,201.722 71.6485,240.428 62.7846,262.056 " fill="none" style="stroke: #A80036; stroke-width: 1.0;"/><polygon fill="#A80036" points="60.7944,266.912,67.9099,260.1025,62.6914,262.2858,60.508,257.0673,60.7944,266.912" style="stroke: #A80036; stroke-width: 1.0;"/><text fill="#000000" font-family="sans-serif" font-size="13" lengthAdjust="spacingAndGlyphs" textLength="58" x="85.25" y="221.0669">rdfs:label</text><path d="M127.78,177.53 C148.732,198.482 180.57,230.32 202.772,252.522 " fill="none" style="stroke: #A80036; stroke-width: 1.0;"/><polygon fill="#A80036" points="206.525,256.275,202.9895,247.0826,202.9895,252.7395,197.3326,252.7395,206.525,256.275" style="stroke: #A80036; stroke-width: 1.0;"/><text fill="#000000" font-family="sans-serif" font-size="13" lengthAdjust="spacingAndGlyphs" textLength="110" x="176.25" y="221.0669">crm:P2_has_type</text><path d="M106.25,53.53 C106.25,74.049 106.25,105.009 106.25,127.134 " fill="none" style="stroke: #A80036; stroke-width: 1.0;"/><polygon fill="#A80036" points="106.25,132.275,110.25,123.275,106.25,127.275,102.25,123.275,106.25,132.275" style="stroke: #A80036; stroke-width: 1.0;"/><text fill="#000000" font-family="sans-serif" font-size="13" lengthAdjust="spacingAndGlyphs" textLength="165" x="107.25" y="97.0669">crm:P131_is_identified_by</text><path d="M196.967,301.634 C186.229,310.175 174.779,320.661 166.25,332 C156.43,345.0549 148.894,361.7093 143.712,375.4978 " fill="none" style="stroke: #A80036; stroke-width: 1.0;"/><polygon fill="#A80036" points="141.91,380.4361,148.7534,373.3531,143.6243,375.7392,141.2383,370.6102,141.91,380.4361" style="stroke: #A80036; stroke-width: 1.0;"/><text fill="#000000" font-family="sans-serif" font-size="13" lengthAdjust="spacingAndGlyphs" textLength="109" x="167.25" y="345.0669">skos:broadMatch</text><path d="M253.746,301.632 C263.329,310.48 273.911,321.173 282.25,332 C295.52,349.23 307.126,371.5199 314.152,386.2649 " fill="none" style="stroke: #A80036; stroke-width: 1.0;"/><polygon fill="#A80036" points="316.355,390.9579,316.1511,381.1112,314.2301,386.4319,308.9094,384.5109,316.355,390.9579" style="stroke: #A80036; stroke-width: 1.0;"/><text fill="#000000" font-family="sans-serif" font-size="13" lengthAdjust="spacingAndGlyphs" textLength="92" x="295.25" y="345.0669">skos:prefLabel</text></g></svg>