<?xml version="1.0" encoding="UTF-8" standalone="no"?><svg xmlns="http://www.w3.org/2000/svg" xmlns:xlink="http://www.w3.org/1999/xlink" contentScriptType="application/ecmascript" contentStyleType="text/css" height="385px" preserveAspectRatio="none" style="width:328px;height:385px;" version="1.1" viewBox="0 0 328 385" width="328px" zoomAndPan="magnify"><defs><filter height="300%" id="fxv5px6" width="300%" x="-1" y="-1"><feGaussianBlur result="blurOut" stdDeviation="2.0"/><feColorMatrix in="blurOut" result="blurOut2" type="matrix" values="0 0 0 0 0 0 0 0 0 0 0 0 0 0 0 0 0 0 .4 0"/><feOffset dx="4.0" dy="4.0" in="blurOut2" result="blurOut3"/><feBlend in="SourceGraphic" in2="blurOut3" mode="normal"/></filter></defs><g><!--class _information_object_--><rect fill="#FEFECE" filter="url(#fxv5px6)" height="44.7734" style="stroke: #A80036; stroke-width: 1.5;" width="183" x="6" y="130"/><text fill="#000000" font-family="sans-serif" font-size="12" lengthAdjust="spacingAndGlyphs" textLength="136" x="29.5" y="146.1387">&lt;information_object&gt;</text><line style="stroke: #A80036; stroke-width: 1.5;" x1="7" x2="188" y1="153.9688" y2="153.9688"/><text fill="#000000" font-family="sans-serif" font-size="11" lengthAdjust="spacingAndGlyphs" textLength="171" x="12" y="168.1792">a crm:E73_Information_Object</text><!--class _concept_class_--><rect fill="#FEFECE" filter="url(#fxv5px6)" height="23.9688" style="stroke: #A80036; stroke-width: 1.5;" width="115" x="125" y="252"/><text fill="#000000" font-family="sans-serif" font-size="12" lengthAdjust="spacingAndGlyphs" textLength="109" x="128" y="268.1387">&lt;concept_class&gt;</text><!--class _entity_uri_--><rect fill="#FEFECE" filter="url(#fxv5px6)" height="44.7734" style="stroke: #A80036; stroke-width: 1.5;" width="175" x="97" y="8"/><text fill="#000000" font-family="sans-serif" font-size="12" lengthAdjust="spacingAndGlyphs" textLength="77" x="146" y="24.1387">&lt;entity_uri&gt;</text><line style="stroke: #A80036; stroke-width: 1.5;" x1="98" x2="271" y1="31.9688" y2="31.9688"/><text fill="#000000" font-family="sans-serif" font-size="11" lengthAdjust="spacingAndGlyphs" textLength="163" x="103" y="46.1792">a crm:E22_Man-Made_Object</text><!--class _concept_name_--><rect fill="#FEFECE" filter="url(#fxv5px6)" height="23.9688" style="stroke: #A80036; stroke-width: 1.5;" width="118" x="123.5" y="353"/><text fill="#000000" font-family="sans-serif" font-size="12" lengthAdjust="spacingAndGlyphs" textLength="112" x="126.5" y="369.1387">&lt;concept_name&gt;</text><path d="M96.6604,175.078 C97.1355,189.56 99.8702,208.403 109.5,222 C118.18,234.255 131.743,243.296 144.834,249.721 " fill="none" style="stroke: #A80036; stroke-width: 1.0;"/><polygon fill="#A80036" points="149.626,251.971,143.1804,244.5243,145.1004,249.8453,139.7793,251.7653,149.626,251.971" style="stroke: #A80036; stroke-width: 1.0;"/><text fill="#000000" font-family="sans-serif" font-size="13" lengthAdjust="spacingAndGlyphs" textLength="122" x="110.5" y="218.0669">crm:P129_is_about</text><path d="M150.587,53.033 C139.742,61.298 128.49,71.533 120.5,83 C111.826,95.448 106.214,111.424 102.7074,124.815 " fill="none" style="stroke: #A80036; stroke-width: 1.0;"/><polygon fill="#A80036" points="101.4199,129.997,107.4722,122.2272,102.6256,125.1446,99.7082,120.298,101.4199,129.997" style="stroke: #A80036; stroke-width: 1.0;"/><text fill="#000000" font-family="sans-serif" font-size="13" lengthAdjust="spacingAndGlyphs" textLength="111" x="121.5" y="96.0669">crm:P128_carries</text><path d="M214.832,53.156 C223.873,61.367 232.655,71.537 237.5,83 C261.55,139.904 265.208,166.785 237.5,222 C231.751,233.456 221.115,242.526 210.717,249.192 " fill="none" style="stroke: #A80036; stroke-width: 1.0; stroke-dasharray: 7.0,7.0;"/><polygon fill="#A80036" points="206.29,251.901,216.0546,250.6158,210.555,249.2914,211.8793,243.7918,206.29,251.901" style="stroke: #A80036; stroke-width: 1.0;"/><text fill="#000000" font-family="sans-serif" font-size="13" lengthAdjust="spacingAndGlyphs" textLength="70" x="257.5" y="157.0669">dct:subject</text><path d="M182.5,276.357 C182.5,293.8868 182.5,327.6117 182.5,347.7298 " fill="none" style="stroke: #A80036; stroke-width: 1.0;"/><polygon fill="#A80036" points="182.5,352.7759,186.5,343.7759,182.5,347.7759,178.5,343.7759,182.5,352.7759" style="stroke: #A80036; stroke-width: 1.0;"/><text fill="#000000" font-family="sans-serif" font-size="13" lengthAdjust="spacingAndGlyphs" textLength="58" x="183.5" y="319.0669">rdfs:label</text></g></svg>