<?xml version="1.0" encoding="UTF-8" standalone="no"?><svg xmlns="http://www.w3.org/2000/svg" xmlns:xlink="http://www.w3.org/1999/xlink" contentScriptType="application/ecmascript" contentStyleType="text/css" height="549px" preserveAspectRatio="none" style="width:1261px;height:549px;" version="1.1" viewBox="0 0 1261 549" width="1261px" zoomAndPan="magnify"><defs><filter height="300%" id="fqnkwd4" width="300%" x="-1" y="-1"><feGaussianBlur result="blurOut" stdDeviation="2.0"/><feColorMatrix in="blurOut" result="blurOut2" type="matrix" values="0 0 0 0 0 0 0 0 0 0 0 0 0 0 0 0 0 0 .4 0"/><feOffset dx="4.0" dy="4.0" in="blurOut2" result="blurOut3"/><feBlend in="SourceGraphic" in2="blurOut3" mode="normal"/></filter></defs><g><!--class _vase_--><rect fill="#FEFECE" filter="url(#fqnkwd4)" height="44.7734" style="stroke: #A80036; stroke-width: 1.5;" width="175" x="819.5" y="8"/><text fill="#000000" font-family="sans-serif" font-size="12" lengthAdjust="spacingAndGlyphs" textLength="49" x="882.5" y="24.1387">&lt;vase&gt;</text><line style="stroke: #A80036; stroke-width: 1.5;" x1="820.5" x2="993.5" y1="31.9688" y2="31.9688"/><text fill="#000000" font-family="sans-serif" font-size="11" lengthAdjust="spacingAndGlyphs" textLength="163" x="825.5" y="46.1792">a crm:E22_Man-Made_Object</text><!--class _lot_--><rect fill="#FEFECE" filter="url(#fqnkwd4)" height="44.7734" style="stroke: #A80036; stroke-width: 1.5;" width="131" x="480.5" y="130"/><text fill="#000000" font-family="sans-serif" font-size="12" lengthAdjust="spacingAndGlyphs" textLength="36" x="528" y="146.1387">&lt;lot&gt;</text><line style="stroke: #A80036; stroke-width: 1.5;" x1="481.5" x2="610.5" y1="153.9688" y2="153.9688"/><text fill="#000000" font-family="sans-serif" font-size="11" lengthAdjust="spacingAndGlyphs" textLength="119" x="486.5" y="168.1792">a crm:E78_Collection</text><!--class _transaction_of_vase_--><rect fill="#FEFECE" filter="url(#fqnkwd4)" height="44.7734" style="stroke: #A80036; stroke-width: 1.5;" width="309" x="943.5" y="374"/><text fill="#000000" font-family="sans-serif" font-size="12" lengthAdjust="spacingAndGlyphs" textLength="145" x="1025.5" y="390.1387">&lt;transaction_of_vase&gt;</text><line style="stroke: #A80036; stroke-width: 1.5;" x1="944.5" x2="1251.5" y1="397.9688" y2="397.9688"/><text fill="#000000" font-family="sans-serif" font-size="11" lengthAdjust="spacingAndGlyphs" textLength="297" x="949.5" y="412.1792">a crm:E8_Acquisition, crm:E10_Transfer_of_Custody</text><!--class _sale_of_lot_--><rect fill="#FEFECE" filter="url(#fqnkwd4)" height="44.7734" style="stroke: #A80036; stroke-width: 1.5;" width="130" x="689" y="252"/><text fill="#000000" font-family="sans-serif" font-size="12" lengthAdjust="spacingAndGlyphs" textLength="86" x="711" y="268.1387">&lt;sale_of_lot&gt;</text><line style="stroke: #A80036; stroke-width: 1.5;" x1="690" x2="818" y1="275.9688" y2="275.9688"/><text fill="#000000" font-family="sans-serif" font-size="11" lengthAdjust="spacingAndGlyphs" textLength="118" x="695" y="290.1792">a crm:E8_Acquisition</text><!--class _transaction_of_candlestick_--><rect fill="#FEFECE" filter="url(#fqnkwd4)" height="44.7734" style="stroke: #A80036; stroke-width: 1.5;" width="309" x="599.5" y="374"/><text fill="#000000" font-family="sans-serif" font-size="12" lengthAdjust="spacingAndGlyphs" textLength="187" x="660.5" y="390.1387">&lt;transaction_of_candlestick&gt;</text><line style="stroke: #A80036; stroke-width: 1.5;" x1="600.5" x2="907.5" y1="397.9688" y2="397.9688"/><text fill="#000000" font-family="sans-serif" font-size="11" lengthAdjust="spacingAndGlyphs" textLength="297" x="605.5" y="412.1792">a crm:E8_Acquisition, crm:E10_Transfer_of_Custody</text><!--class _candlestick_addition_--><rect fill="#FEFECE" filter="url(#fqnkwd4)" height="23.9688" style="stroke: #A80036; stroke-width: 1.5;" width="154" x="6" y="262.5"/><text fill="#000000" font-family="sans-serif" font-size="12" lengthAdjust="spacingAndGlyphs" textLength="148" x="9" y="278.6387">&lt;candlestick_addition&gt;</text><!--class _vase_addition_--><rect fill="#FEFECE" filter="url(#fqnkwd4)" height="23.9688" style="stroke: #A80036; stroke-width: 1.5;" width="112" x="267" y="262.5"/><text fill="#000000" font-family="sans-serif" font-size="12" lengthAdjust="spacingAndGlyphs" textLength="106" x="270" y="278.6387">&lt;vase_addition&gt;</text><!--class _candlestick_--><rect fill="#FEFECE" filter="url(#fqnkwd4)" height="44.7734" style="stroke: #A80036; stroke-width: 1.5;" width="175" x="524.5" y="496"/><text fill="#000000" font-family="sans-serif" font-size="12" lengthAdjust="spacingAndGlyphs" textLength="91" x="566.5" y="512.1387">&lt;candlestick&gt;</text><line style="stroke: #A80036; stroke-width: 1.5;" x1="525.5" x2="698.5" y1="519.9688" y2="519.9688"/><text fill="#000000" font-family="sans-serif" font-size="11" lengthAdjust="spacingAndGlyphs" textLength="163" x="530.5" y="534.1792">a crm:E22_Man-Made_Object</text><path d="M842.044,53.092 C778.239,74.301 681.206,106.556 615.786,128.302 " fill="none" style="stroke: #A80036; stroke-width: 1.0;"/><polygon fill="#A80036" points="610.739,129.98,620.5412,130.9375,615.4838,128.4031,618.0182,123.3458,610.739,129.98" style="stroke: #A80036; stroke-width: 1.0;"/><text fill="#000000" font-family="sans-serif" font-size="13" lengthAdjust="spacingAndGlyphs" textLength="152" x="750" y="96.0669">crm:p46i_forms_part_of</text><path d="M1087.83,373.79 C1081.42,360.262 1072.89,342.535 1065,327 C1013.98,226.556 949.736,108.98 921.47,57.669 " fill="none" style="stroke: #A80036; stroke-width: 1.0;"/><polygon fill="#A80036" points="919.011,53.207,919.8538,63.0197,921.4253,57.5855,926.8595,59.1569,919.011,53.207" style="stroke: #A80036; stroke-width: 1.0;"/><text fill="#000000" font-family="sans-serif" font-size="13" lengthAdjust="spacingAndGlyphs" textLength="181" x="1010" y="218.0669">crm:P24_transferred_title_of</text><path d="M811.85,297.096 C848.946,310.816 898.19,328.791 942,344 C969.394,353.51 999.635,363.589 1026.14,372.286 " fill="none" style="stroke: #A80036; stroke-width: 1.0;"/><polygon fill="#A80036" points="1031.04,373.893,1023.7333,367.2891,1026.2886,372.3359,1021.2419,374.8913,1031.04,373.893" style="stroke: #A80036; stroke-width: 1.0;"/><text fill="#000000" font-family="sans-serif" font-size="13" lengthAdjust="spacingAndGlyphs" textLength="117" x="943" y="340.0669">crm:P10i_contains</text><path d="M754,297.231 C754,317.365 754,347.366 754,368.919 " fill="none" style="stroke: #A80036; stroke-width: 1.0;"/><polygon fill="#A80036" points="754,373.931,758,364.931,754,368.931,750,364.931,754,373.931" style="stroke: #A80036; stroke-width: 1.0;"/><text fill="#000000" font-family="sans-serif" font-size="13" lengthAdjust="spacingAndGlyphs" textLength="117" x="755" y="340.0669">crm:P10i_contains</text><path d="M583.667,175.231 C619.891,196.13 674.542,227.659 712.118,249.337 " fill="none" style="stroke: #A80036; stroke-width: 1.0;"/><polygon fill="#A80036" points="716.613,251.931,710.8158,243.9691,712.2819,249.4326,706.8184,250.8988,716.613,251.931" style="stroke: #A80036; stroke-width: 1.0;"/><text fill="#000000" font-family="sans-serif" font-size="13" lengthAdjust="spacingAndGlyphs" textLength="149" x="664" y="218.0669">crm:P16i_was_used_for</text><path d="M480.376,152.83 C371.997,153.06 161.989,159.567 106,205 C90.3342,217.712 85.2743,241.486 83.6773,257.406 " fill="none" style="stroke: #A80036; stroke-width: 1.0;"/><polygon fill="#A80036" points="83.2582,262.477,87.9852,253.8367,83.6696,257.494,80.0123,253.1784,83.2582,262.477" style="stroke: #A80036; stroke-width: 1.0;"/><text fill="#000000" font-family="sans-serif" font-size="13" lengthAdjust="spacingAndGlyphs" textLength="198" x="107" y="218.0669">crm:P110i_was_augmented_by</text><path d="M480.433,159.47 C421.01,166.399 339.794,180.187 320,205 C308.262,219.714 312.169,242.386 316.872,257.57 " fill="none" style="stroke: #A80036; stroke-width: 1.0;"/><polygon fill="#A80036" points="318.476,262.411,319.4424,252.6097,316.9034,257.6647,311.8484,255.1258,318.476,262.411" style="stroke: #A80036; stroke-width: 1.0;"/><text fill="#000000" font-family="sans-serif" font-size="13" lengthAdjust="spacingAndGlyphs" textLength="198" x="321" y="218.0669">crm:P110i_was_augmented_by</text><path d="M728.285,419.231 C703.857,439.875 667.153,470.8915 641.536,492.5396 " fill="none" style="stroke: #A80036; stroke-width: 1.0;"/><polygon fill="#A80036" points="637.524,495.9306,646.9801,493.1769,641.3431,492.7034,641.8166,487.0664,637.524,495.9306" style="stroke: #A80036; stroke-width: 1.0;"/><text fill="#000000" font-family="sans-serif" font-size="13" lengthAdjust="spacingAndGlyphs" textLength="181" x="693" y="462.0669">crm:P24_transferred_title_of</text><path d="M604.307,495.8581 C597.541,476.0764 587.879,445.8944 582,419 C563.119,332.625 552.43,228.15 548.176,180.069 " fill="none" style="stroke: #A80036; stroke-width: 1.0;"/><polygon fill="#A80036" points="547.737,175.041,544.5364,184.3553,548.1727,180.022,552.506,183.6582,547.737,175.041" style="stroke: #A80036; stroke-width: 1.0;"/><text fill="#000000" font-family="sans-serif" font-size="13" lengthAdjust="spacingAndGlyphs" textLength="152" x="570" y="340.0669">crm:p46i_forms_part_of</text></g></svg>