<?xml version="1.0" encoding="UTF-8" standalone="no"?><svg xmlns="http://www.w3.org/2000/svg" xmlns:xlink="http://www.w3.org/1999/xlink" contentScriptType="application/ecmascript" contentStyleType="text/css" height="406px" preserveAspectRatio="none" style="width:730px;height:406px;" version="1.1" viewBox="0 0 730 406" width="730px" zoomAndPan="magnify"><defs><filter height="300%" id="f6z710f" width="300%" x="-1" y="-1"><feGaussianBlur result="blurOut" stdDeviation="2.0"/><feColorMatrix in="blurOut" result="blurOut2" type="matrix" values="0 0 0 0 0 0 0 0 0 0 0 0 0 0 0 0 0 0 .4 0"/><feOffset dx="4.0" dy="4.0" in="blurOut2" result="blurOut3"/><feBlend in="SourceGraphic" in2="blurOut3" mode="normal"/></filter></defs><g><!--class _birth_location_class_--><rect fill="#FEFECE" filter="url(#f6z710f)" height="44.7734" style="stroke: #A80036; stroke-width: 1.5;" width="149" x="6" y="252"/><text fill="#000000" font-family="sans-serif" font-size="12" lengthAdjust="spacingAndGlyphs" textLength="143" x="9" y="268.1387">&lt;birth_location_class&gt;</text><line style="stroke: #A80036; stroke-width: 1.5;" x1="7" x2="154" y1="275.9688" y2="275.9688"/><text fill="#000000" font-family="sans-serif" font-size="11" lengthAdjust="spacingAndGlyphs" textLength="94" x="12" y="290.1792">a crm:E53_Place</text><!--class _birth_location_--><rect fill="#FEFECE" filter="url(#f6z710f)" height="23.9688" style="stroke: #A80036; stroke-width: 1.5;" width="111" x="14" y="374"/><text fill="#000000" font-family="sans-serif" font-size="12" lengthAdjust="spacingAndGlyphs" textLength="105" x="17" y="390.1387">&lt;birth_location&gt;</text><!--class _birth_timespan_--><rect fill="#FEFECE" filter="url(#f6z710f)" height="44.7734" style="stroke: #A80036; stroke-width: 1.5;" width="137" x="355" y="252"/><text fill="#000000" font-family="sans-serif" font-size="12" lengthAdjust="spacingAndGlyphs" textLength="113" x="367" y="268.1387">&lt;birth_timespan&gt;</text><line style="stroke: #A80036; stroke-width: 1.5;" x1="356" x2="491" y1="275.9688" y2="275.9688"/><text fill="#000000" font-family="sans-serif" font-size="11" lengthAdjust="spacingAndGlyphs" textLength="125" x="361" y="290.1792">a crm:E52_Time-Span</text><!--class _latest_birthdate_--><rect fill="#FEFECE" filter="url(#f6z710f)" height="23.9688" style="stroke: #A80036; stroke-width: 1.5;" width="126" x="160.5" y="374"/><text fill="#000000" font-family="sans-serif" font-size="12" lengthAdjust="spacingAndGlyphs" textLength="120" x="163.5" y="390.1387">&lt;latest_birthdate&gt;</text><!--class _earliest_birthdate_--><rect fill="#FEFECE" filter="url(#f6z710f)" height="23.9688" style="stroke: #A80036; stroke-width: 1.5;" width="137" x="367" y="374"/><text fill="#000000" font-family="sans-serif" font-size="12" lengthAdjust="spacingAndGlyphs" textLength="131" x="370" y="390.1387">&lt;earliest_birthdate&gt;</text><!--class _display_date_--><rect fill="#FEFECE" filter="url(#f6z710f)" height="23.9688" style="stroke: #A80036; stroke-width: 1.5;" width="104" x="617.5" y="374"/><text fill="#000000" font-family="sans-serif" font-size="12" lengthAdjust="spacingAndGlyphs" textLength="98" x="620.5" y="390.1387">&lt;display_date&gt;</text><!--class _entity_uri_--><rect fill="#FEFECE" filter="url(#f6z710f)" height="44.7734" style="stroke: #A80036; stroke-width: 1.5;" width="105" x="165" y="8"/><text fill="#000000" font-family="sans-serif" font-size="12" lengthAdjust="spacingAndGlyphs" textLength="77" x="179" y="24.1387">&lt;entity_uri&gt;</text><line style="stroke: #A80036; stroke-width: 1.5;" x1="166" x2="269" y1="31.9688" y2="31.9688"/><text fill="#000000" font-family="sans-serif" font-size="11" lengthAdjust="spacingAndGlyphs" textLength="93" x="171" y="46.1792">a crm:E39_Actor</text><!--class _birth_event_--><rect fill="#FEFECE" filter="url(#f6z710f)" height="44.7734" style="stroke: #A80036; stroke-width: 1.5;" width="209" x="113" y="130"/><text fill="#000000" font-family="sans-serif" font-size="12" lengthAdjust="spacingAndGlyphs" textLength="90" x="172.5" y="146.1387">&lt;birth_event&gt;</text><line style="stroke: #A80036; stroke-width: 1.5;" x1="114" x2="321" y1="153.9688" y2="153.9688"/><text fill="#000000" font-family="sans-serif" font-size="11" lengthAdjust="spacingAndGlyphs" textLength="197" x="119" y="168.1792">a crm:E63_Beginning_of_Existence</text><path d="M78.3268,297.134 C76.2092,318.213 73.0378,349.783 71.1287,368.7869 " fill="none" style="stroke: #A80036; stroke-width: 1.0;"/><polygon fill="#A80036" points="70.6257,373.7946,75.5054,365.2396,71.1256,368.8196,67.5455,364.4398,70.6257,373.7946" style="stroke: #A80036; stroke-width: 1.0;"/><text fill="#000000" font-family="sans-serif" font-size="13" lengthAdjust="spacingAndGlyphs" textLength="58" x="76.5" y="340.0669">rdfs:label</text><path d="M354.596,282.182 C319.64,288.711 278.55,301.5945 249.5,327 C237.034,337.9022 230.248,355.9552 226.767,369.0279 " fill="none" style="stroke: #A80036; stroke-width: 1.0;"/><polygon fill="#A80036" points="225.55,373.9422,231.5967,366.1681,226.7523,369.0889,223.8314,364.2444,225.55,373.9422" style="stroke: #A80036; stroke-width: 1.0;"/><text fill="#000000" font-family="sans-serif" font-size="13" lengthAdjust="spacingAndGlyphs" textLength="170" x="250.5" y="340.0669">crm:p82b_end_of_the_end</text><path d="M425.871,297.134 C428.181,318.213 431.641,349.783 433.723,368.7869 " fill="none" style="stroke: #A80036; stroke-width: 1.0;"/><polygon fill="#A80036" points="434.272,373.7946,437.2677,364.4124,433.7273,368.8244,429.3153,365.284,434.272,373.7946" style="stroke: #A80036; stroke-width: 1.0;"/><text fill="#000000" font-family="sans-serif" font-size="13" lengthAdjust="spacingAndGlyphs" textLength="192" x="432.5" y="340.0669">crm:p82a_begin_of_the_begin</text><path d="M492.041,280.035 C535.053,285.742 589.864,298.5177 630.5,327 C645.544,337.5447 656.435,355.9043 662.823,369.1465 " fill="none" style="stroke: #A80036; stroke-width: 1.0;"/><polygon fill="#A80036" points="664.972,373.7697,664.8044,363.9223,662.8638,369.2359,657.5502,367.2953,664.972,373.7697" style="stroke: #A80036; stroke-width: 1.0;"/><text fill="#000000" font-family="sans-serif" font-size="13" lengthAdjust="spacingAndGlyphs" textLength="58" x="648.5" y="340.0669">rdfs:label</text><path d="M217.5,53.231 C217.5,73.365 217.5,103.366 217.5,124.919 " fill="none" style="stroke: #A80036; stroke-width: 1.0;"/><polygon fill="#A80036" points="217.5,129.931,221.5,120.931,217.5,124.931,213.5,120.931,217.5,129.931" style="stroke: #A80036; stroke-width: 1.0;"/><text fill="#000000" font-family="sans-serif" font-size="13" lengthAdjust="spacingAndGlyphs" textLength="265" x="218.5" y="96.0669">crm:P92i_was_brought_into_existence_by</text><path d="M256.13,175.112 C272.352,184.252 291.389,195.064 308.5,205 C333.463,219.496 361.277,236.052 383.298,249.257 " fill="none" style="stroke: #A80036; stroke-width: 1.0;"/><polygon fill="#A80036" points="387.622,251.851,381.9633,243.79,383.3348,249.2781,377.8467,250.6496,387.622,251.851" style="stroke: #A80036; stroke-width: 1.0;"/><text fill="#000000" font-family="sans-serif" font-size="13" lengthAdjust="spacingAndGlyphs" textLength="147" x="338.5" y="218.0669">crm:P4_has_time-span</text><path d="M192.69,175.231 C169.122,195.875 133.711,226.891 108.996,248.54 " fill="none" style="stroke: #A80036; stroke-width: 1.0;"/><polygon fill="#A80036" points="105.1251,251.931,114.5304,249.0087,108.8859,248.636,109.2585,242.9915,105.1251,251.931" style="stroke: #A80036; stroke-width: 1.0;"/><text fill="#000000" font-family="sans-serif" font-size="13" lengthAdjust="spacingAndGlyphs" textLength="141" x="158.5" y="218.0669">crm:P7_took_place_at</text></g></svg>