<?xml version="1.0" encoding="UTF-8" standalone="no"?><svg xmlns="http://www.w3.org/2000/svg" xmlns:xlink="http://www.w3.org/1999/xlink" contentScriptType="application/ecmascript" contentStyleType="text/css" height="745px" preserveAspectRatio="none" style="width:6496px;height:745px;" version="1.1" viewBox="0 0 6496 745" width="6496px" zoomAndPan="magnify"><defs><filter height="300%" id="fz5mvuj" width="300%" x="-1" y="-1"><feGaussianBlur result="blurOut" stdDeviation="2.0"/><feColorMatrix in="blurOut" result="blurOut2" type="matrix" values="0 0 0 0 0 0 0 0 0 0 0 0 0 0 0 0 0 0 .4 0"/><feOffset dx="4.0" dy="4.0" in="blurOut2" result="blurOut3"/><feBlend in="SourceGraphic" in2="blurOut3" mode="normal"/></filter></defs><g><!--class _http___ycba_org5002_prov_1_--><rect fill="#FEFECE" filter="url(#fz5mvuj)" height="44.7734" style="stroke: #A80036; stroke-width: 1.5;" width="388" x="434.5" y="284.5"/><text fill="#000000" font-family="sans-serif" font-size="12" lengthAdjust="spacingAndGlyphs" textLength="189" x="534" y="300.6387">&lt;http://ycba.org5002_prov-1&gt;</text><line style="stroke: #A80036; stroke-width: 1.5;" x1="435.5" x2="821.5" y1="308.4688" y2="308.4688"/><text fill="#000000" font-family="sans-serif" font-size="11" lengthAdjust="spacingAndGlyphs" textLength="46" x="440.5" y="322.6792">a &lt;http:</text><text fill="#000000" font-family="sans-serif" font-size="11" font-style="italic" lengthAdjust="spacingAndGlyphs" textLength="218" x="486.5" y="322.6792">crmE10_Transfer_of_Custody&gt;, &lt;http:</text><text fill="#000000" font-family="sans-serif" font-size="11" lengthAdjust="spacingAndGlyphs" textLength="112" x="704.5" y="322.6792">crmE8_Acquisition&gt;</text><!--class _http___ycba_org5002_--><rect fill="#FEFECE" filter="url(#fz5mvuj)" height="57.5781" style="stroke: #A80036; stroke-width: 1.5;" width="245" x="2990" y="428"/><text fill="#000000" font-family="sans-serif" font-size="12" lengthAdjust="spacingAndGlyphs" textLength="144" x="3040.5" y="444.1387">&lt;http://ycba.org5002&gt;</text><line style="stroke: #A80036; stroke-width: 1.5;" x1="2991" x2="3234" y1="451.9688" y2="451.9688"/><text fill="#000000" font-family="sans-serif" font-size="11" lengthAdjust="spacingAndGlyphs" textLength="211" x="2996" y="466.1792">a &lt;http://crmE22_Man-Made_Object&gt;</text><text fill="#000000" font-family="sans-serif" font-size="11" lengthAdjust="spacingAndGlyphs" textLength="233" x="2996" y="478.9839">&lt;http://crmrlabel&gt; "The Earl of Newport"</text><!--class _http___ycba_org_partiessecond_earl_of_newport_--><rect fill="#FEFECE" filter="url(#fz5mvuj)" height="23.9688" style="stroke: #A80036; stroke-width: 1.5;" width="317" x="337" y="445"/><text fill="#000000" font-family="sans-serif" font-size="12" lengthAdjust="spacingAndGlyphs" textLength="311" x="340" y="461.1387">&lt;http://ycba.org/partiessecond_earl_of_newport&gt;</text><!--class _http___ycba_org_partiesfirst_earl_of_newport_--><rect fill="#FEFECE" filter="url(#fz5mvuj)" height="23.9688" style="stroke: #A80036; stroke-width: 1.5;" width="295" x="947" y="445"/><text fill="#000000" font-family="sans-serif" font-size="12" lengthAdjust="spacingAndGlyphs" textLength="289" x="950" y="461.1387">&lt;http://ycba.org/partiesfirst_earl_of_newport&gt;</text><!--class _aaaby_descent_--><rect fill="#FEFECE" filter="url(#fz5mvuj)" height="23.9688" style="stroke: #A80036; stroke-width: 1.5;" width="121" x="1406" y="445"/><text fill="#000000" font-family="sans-serif" font-size="12" lengthAdjust="spacingAndGlyphs" textLength="115" x="1409" y="461.1387">&lt;aaaby_descent&gt;</text><!--class _5002_initial_ownership_--><rect fill="#FEFECE" filter="url(#fz5mvuj)" height="23.9688" style="stroke: #A80036; stroke-width: 1.5;" width="167" x="6" y="445"/><text fill="#000000" font-family="sans-serif" font-size="12" lengthAdjust="spacingAndGlyphs" textLength="161" x="9" y="461.1387">&lt;5002_initial_ownership&gt;</text><!--class _http___ycba_org5002_prov_2_--><rect fill="#FEFECE" filter="url(#fz5mvuj)" height="57.5781" style="stroke: #A80036; stroke-width: 1.5;" width="654" x="1457.5" y="278"/><text fill="#000000" font-family="sans-serif" font-size="12" lengthAdjust="spacingAndGlyphs" textLength="189" x="1690" y="294.1387">&lt;http://ycba.org5002_prov-2&gt;</text><line style="stroke: #A80036; stroke-width: 1.5;" x1="1458.5" x2="2110.5" y1="301.9688" y2="301.9688"/><text fill="#000000" font-family="sans-serif" font-size="11" lengthAdjust="spacingAndGlyphs" textLength="46" x="1463.5" y="316.1792">a &lt;http:</text><text fill="#000000" font-family="sans-serif" font-size="11" font-style="italic" lengthAdjust="spacingAndGlyphs" textLength="218" x="1509.5" y="316.1792">crmE10_Transfer_of_Custody&gt;, &lt;http:</text><text fill="#000000" font-family="sans-serif" font-size="11" lengthAdjust="spacingAndGlyphs" textLength="112" x="1727.5" y="316.1792">crmE8_Acquisition&gt;</text><text fill="#000000" font-family="sans-serif" font-size="11" lengthAdjust="spacingAndGlyphs" textLength="642" x="1463.5" y="328.9839">&lt;http://crmP3_has_note&gt; "Earls of Newport by descent to 4th Earl, who died in 1679, when title became extinct"</text><!--class _http___ycba_org_partiesthird_earl_of_newport_--><rect fill="#FEFECE" filter="url(#fz5mvuj)" height="23.9688" style="stroke: #A80036; stroke-width: 1.5;" width="300" x="3822.5" y="445"/><text fill="#000000" font-family="sans-serif" font-size="12" lengthAdjust="spacingAndGlyphs" textLength="294" x="3825.5" y="461.1387">&lt;http://ycba.org/partiesthird_earl_of_newport&gt;</text><!--class _5002_prov_1_--><rect fill="#FEFECE" filter="url(#fz5mvuj)" height="23.9688" style="stroke: #A80036; stroke-width: 1.5;" width="103" x="2029" y="445"/><text fill="#000000" font-family="sans-serif" font-size="12" lengthAdjust="spacingAndGlyphs" textLength="97" x="2032" y="461.1387">&lt;5002_prov-1&gt;</text><!--class _http___ycba_org5002_initial_ownership_--><rect fill="#FEFECE" filter="url(#fz5mvuj)" height="57.5781" style="stroke: #A80036; stroke-width: 1.5;" width="654" x="2760.5" y="278"/><text fill="#000000" font-family="sans-serif" font-size="12" lengthAdjust="spacingAndGlyphs" textLength="253" x="2961" y="294.1387">&lt;http://ycba.org5002_initial_ownership&gt;</text><line style="stroke: #A80036; stroke-width: 1.5;" x1="2761.5" x2="3413.5" y1="301.9688" y2="301.9688"/><text fill="#000000" font-family="sans-serif" font-size="11" lengthAdjust="spacingAndGlyphs" textLength="46" x="2766.5" y="316.1792">a &lt;http:</text><text fill="#000000" font-family="sans-serif" font-size="11" font-style="italic" lengthAdjust="spacingAndGlyphs" textLength="218" x="2812.5" y="316.1792">crmE10_Transfer_of_Custody&gt;, &lt;http:</text><text fill="#000000" font-family="sans-serif" font-size="11" lengthAdjust="spacingAndGlyphs" textLength="112" x="3030.5" y="316.1792">crmE8_Acquisition&gt;</text><text fill="#000000" font-family="sans-serif" font-size="11" lengthAdjust="spacingAndGlyphs" textLength="642" x="2766.5" y="328.9839">&lt;http://crmP3_has_note&gt; "Earls of Newport by descent to 4th Earl, who died in 1679, when title became extinct"</text><!--class _aaacreation_--><rect fill="#FEFECE" filter="url(#fz5mvuj)" height="23.9688" style="stroke: #A80036; stroke-width: 1.5;" width="102" x="4382.5" y="445"/><text fill="#000000" font-family="sans-serif" font-size="12" lengthAdjust="spacingAndGlyphs" textLength="96" x="4385.5" y="461.1387">&lt;aaacreation&gt;</text><!--class _http___ycba_org_parties500303557_--><rect fill="#FEFECE" filter="url(#fz5mvuj)" height="57.5781" style="stroke: #A80036; stroke-width: 1.5;" width="279" x="2973" y="578"/><text fill="#000000" font-family="sans-serif" font-size="12" lengthAdjust="spacingAndGlyphs" textLength="232" x="2996.5" y="594.1387">&lt;http://ycba.org/parties500303557&gt;</text><line style="stroke: #A80036; stroke-width: 1.5;" x1="2974" x2="3251" y1="601.9688" y2="601.9688"/><text fill="#000000" font-family="sans-serif" font-size="11" lengthAdjust="spacingAndGlyphs" textLength="176" x="2979" y="616.1792">a &lt;http://crmE40_Legal_Body&gt;</text><text fill="#000000" font-family="sans-serif" font-size="11" lengthAdjust="spacingAndGlyphs" textLength="267" x="2979" y="628.9839">&lt;http://crmrlabel&gt; "Yale Center for British Art"</text><!--class _http___geonames_org4839366_--><rect fill="#FEFECE" filter="url(#fz5mvuj)" height="23.9688" style="stroke: #A80036; stroke-width: 1.5;" width="211" x="3007" y="713"/><text fill="#000000" font-family="sans-serif" font-size="12" lengthAdjust="spacingAndGlyphs" textLength="205" x="3010" y="729.1387">&lt;http://geonames.org4839366&gt;</text><!--class _http___museumprovenance_orgprovenance_record_--><rect fill="#FEFECE" filter="url(#fz5mvuj)" height="57.5781" style="stroke: #A80036; stroke-width: 1.5;" width="337" x="3521" y="143"/><text fill="#000000" font-family="sans-serif" font-size="12" lengthAdjust="spacingAndGlyphs" textLength="331" x="3524" y="159.1387">&lt;http://museumprovenance.orgprovenance_record&gt;</text><line style="stroke: #A80036; stroke-width: 1.5;" x1="3522" x2="3857" y1="166.9688" y2="166.9688"/><text fill="#000000" font-family="sans-serif" font-size="11" lengthAdjust="spacingAndGlyphs" textLength="139" x="3527" y="181.1792">a &lt;http://crmE55_Type&gt;</text><text fill="#000000" font-family="sans-serif" font-size="11" lengthAdjust="spacingAndGlyphs" textLength="281" x="3527" y="193.9839">&lt;http://crmrlabel&gt; "A written provenance record"</text><!--class _http___ycba_org5002_prov_4_--><rect fill="#FEFECE" filter="url(#fz5mvuj)" height="57.5781" style="stroke: #A80036; stroke-width: 1.5;" width="748" x="5426.5" y="278"/><text fill="#000000" font-family="sans-serif" font-size="12" lengthAdjust="spacingAndGlyphs" textLength="189" x="5706" y="294.1387">&lt;http://ycba.org5002_prov-4&gt;</text><line style="stroke: #A80036; stroke-width: 1.5;" x1="5427.5" x2="6173.5" y1="301.9688" y2="301.9688"/><text fill="#000000" font-family="sans-serif" font-size="11" lengthAdjust="spacingAndGlyphs" textLength="46" x="5432.5" y="316.1792">a &lt;http:</text><text fill="#000000" font-family="sans-serif" font-size="11" font-style="italic" lengthAdjust="spacingAndGlyphs" textLength="218" x="5478.5" y="316.1792">crmE10_Transfer_of_Custody&gt;, &lt;http:</text><text fill="#000000" font-family="sans-serif" font-size="11" lengthAdjust="spacingAndGlyphs" textLength="112" x="5696.5" y="316.1792">crmE8_Acquisition&gt;</text><text fill="#000000" font-family="sans-serif" font-size="11" lengthAdjust="spacingAndGlyphs" textLength="736" x="5432.5" y="328.9839">&lt;http://crmP3_has_note&gt; " bought [_:] by 1st Earl of Bradford, by descent to 4th Earl, who died 1762, when title became extinct"</text><!--class _aaaacquisition_--><rect fill="#FEFECE" filter="url(#fz5mvuj)" height="23.9688" style="stroke: #A80036; stroke-width: 1.5;" width="118" x="5989.5" y="445"/><text fill="#000000" font-family="sans-serif" font-size="12" lengthAdjust="spacingAndGlyphs" textLength="112" x="5992.5" y="461.1387">&lt;aaaacquisition&gt;</text><!--class _http___ycba_org_partiesfirst_earl_of_bradford_--><rect fill="#FEFECE" filter="url(#fz5mvuj)" height="23.9688" style="stroke: #A80036; stroke-width: 1.5;" width="298" x="6142.5" y="445"/><text fill="#000000" font-family="sans-serif" font-size="12" lengthAdjust="spacingAndGlyphs" textLength="292" x="6145.5" y="461.1387">&lt;http://ycba.org/partiesfirst_earl_of_bradford&gt;</text><!--class _http___ycba_org_partiesfourth_earl_of_newport_--><rect fill="#FEFECE" filter="url(#fz5mvuj)" height="23.9688" style="stroke: #A80036; stroke-width: 1.5;" width="309" x="5033" y="445"/><text fill="#000000" font-family="sans-serif" font-size="12" lengthAdjust="spacingAndGlyphs" textLength="303" x="5036" y="461.1387">&lt;http://ycba.org/partiesfourth_earl_of_newport&gt;</text><!--class _5002_prov_3_--><rect fill="#FEFECE" filter="url(#fz5mvuj)" height="23.9688" style="stroke: #A80036; stroke-width: 1.5;" width="103" x="5749" y="445"/><text fill="#000000" font-family="sans-serif" font-size="12" lengthAdjust="spacingAndGlyphs" textLength="97" x="5752" y="461.1387">&lt;5002_prov-3&gt;</text><!--class _http___ycba_org_partieslady_caroline_damer_and_husband_--><rect fill="#FEFECE" filter="url(#fz5mvuj)" height="44.7734" style="stroke: #A80036; stroke-width: 1.5;" width="384" x="4013.5" y="14.5"/><text fill="#000000" font-family="sans-serif" font-size="12" lengthAdjust="spacingAndGlyphs" textLength="378" x="4016.5" y="30.6387">&lt;http://ycba.org/partieslady_caroline_damer_and_husband&gt;</text><line style="stroke: #A80036; stroke-width: 1.5;" x1="4014.5" x2="4396.5" y1="38.4688" y2="38.4688"/><text fill="#000000" font-family="sans-serif" font-size="11" lengthAdjust="spacingAndGlyphs" textLength="176" x="4019.5" y="52.6792">a &lt;http://crmE40_Legal_Body&gt;</text><!--class _http___ycba_orghenry_dawson_damer_--><rect fill="#FEFECE" filter="url(#fz5mvuj)" height="23.9688" style="stroke: #A80036; stroke-width: 1.5;" width="251" x="3893" y="160"/><text fill="#000000" font-family="sans-serif" font-size="12" lengthAdjust="spacingAndGlyphs" textLength="245" x="3896" y="176.1387">&lt;http://ycba.orghenry_dawson-damer&gt;</text><!--class _http___ycba_orglady_caroline_damer_--><rect fill="#FEFECE" filter="url(#fz5mvuj)" height="23.9688" style="stroke: #A80036; stroke-width: 1.5;" width="245" x="4270" y="160"/><text fill="#000000" font-family="sans-serif" font-size="12" lengthAdjust="spacingAndGlyphs" textLength="239" x="4273" y="176.1387">&lt;http://ycba.orglady_caroline_damer&gt;</text><!--class _http___ycba_org5002_provenance_--><rect fill="#FEFECE" filter="url(#fz5mvuj)" height="57.5781" style="stroke: #A80036; stroke-width: 1.5;" width="230" x="3352.5" y="8"/><text fill="#000000" font-family="sans-serif" font-size="12" lengthAdjust="spacingAndGlyphs" textLength="224" x="3355.5" y="24.1387">&lt;http://ycba.org5002_provenance&gt;</text><line style="stroke: #A80036; stroke-width: 1.5;" x1="3353.5" x2="3581.5" y1="31.9688" y2="31.9688"/><text fill="#000000" font-family="sans-serif" font-size="11" lengthAdjust="spacingAndGlyphs" textLength="169" x="3358.5" y="46.1792">a &lt;http://crmE31_Document&gt;</text><text fill="#000000" font-family="sans-serif" font-size="11" lengthAdjust="spacingAndGlyphs" textLength="172" x="3358.5" y="58.9839">&lt;http://crmP3_has_note&gt; "..."</text><!--class _http___ycba_org5002_provenance_period_--><rect fill="#FEFECE" filter="url(#fz5mvuj)" height="44.7734" style="stroke: #A80036; stroke-width: 1.5;" width="276" x="2596.5" y="149.5"/><text fill="#000000" font-family="sans-serif" font-size="12" lengthAdjust="spacingAndGlyphs" textLength="270" x="2599.5" y="165.6387">&lt;http://ycba.org5002_provenance_period&gt;</text><line style="stroke: #A80036; stroke-width: 1.5;" x1="2597.5" x2="2871.5" y1="173.4688" y2="173.4688"/><text fill="#000000" font-family="sans-serif" font-size="11" lengthAdjust="spacingAndGlyphs" textLength="141" x="2602.5" y="187.6792">a &lt;http://crmE4_Period&gt;</text><!--class _http___museumprovenance_orgartwork_history_--><rect fill="#FEFECE" filter="url(#fz5mvuj)" height="57.5781" style="stroke: #A80036; stroke-width: 1.5;" width="328" x="2397.5" y="278"/><text fill="#000000" font-family="sans-serif" font-size="12" lengthAdjust="spacingAndGlyphs" textLength="305" x="2409" y="294.1387">&lt;http://museumprovenance.orgartwork_history&gt;</text><line style="stroke: #A80036; stroke-width: 1.5;" x1="2398.5" x2="2724.5" y1="301.9688" y2="301.9688"/><text fill="#000000" font-family="sans-serif" font-size="11" lengthAdjust="spacingAndGlyphs" textLength="139" x="2403.5" y="316.1792">a &lt;http://crmE55_Type&gt;</text><text fill="#000000" font-family="sans-serif" font-size="11" lengthAdjust="spacingAndGlyphs" textLength="316" x="2403.5" y="328.9839">&lt;http://crmrlabel&gt; "The period of existence for a work"</text><!--class _http___ycba_org5002_prov_3_--><rect fill="#FEFECE" filter="url(#fz5mvuj)" height="57.5781" style="stroke: #A80036; stroke-width: 1.5;" width="654" x="3791.5" y="278"/><text fill="#000000" font-family="sans-serif" font-size="12" lengthAdjust="spacingAndGlyphs" textLength="189" x="4024" y="294.1387">&lt;http://ycba.org5002_prov-3&gt;</text><line style="stroke: #A80036; stroke-width: 1.5;" x1="3792.5" x2="4444.5" y1="301.9688" y2="301.9688"/><text fill="#000000" font-family="sans-serif" font-size="11" lengthAdjust="spacingAndGlyphs" textLength="46" x="3797.5" y="316.1792">a &lt;http:</text><text fill="#000000" font-family="sans-serif" font-size="11" font-style="italic" lengthAdjust="spacingAndGlyphs" textLength="218" x="3843.5" y="316.1792">crmE10_Transfer_of_Custody&gt;, &lt;http:</text><text fill="#000000" font-family="sans-serif" font-size="11" lengthAdjust="spacingAndGlyphs" textLength="112" x="4061.5" y="316.1792">crmE8_Acquisition&gt;</text><text fill="#000000" font-family="sans-serif" font-size="11" lengthAdjust="spacingAndGlyphs" textLength="642" x="3797.5" y="328.9839">&lt;http://crmP3_has_note&gt; "Earls of Newport by descent to 4th Earl, who died in 1679, when title became extinct"</text><!--class _5002_prov_2_--><rect fill="#FEFECE" filter="url(#fz5mvuj)" height="23.9688" style="stroke: #A80036; stroke-width: 1.5;" width="103" x="4590" y="445"/><text fill="#000000" font-family="sans-serif" font-size="12" lengthAdjust="spacingAndGlyphs" textLength="97" x="4593" y="461.1387">&lt;5002_prov-2&gt;</text><path d="M822.566,314.769 C1231.15,329.087 2145.39,361.5 2178.5,366 C2239.6,374.304 2252.55,388.627 2313.5,398 C2548.76,434.182 2826.56,447.909 2984.87,453.033 " fill="none" style="stroke: #A80036; stroke-width: 1.0;"/><polygon fill="#A80036" points="2989.99,453.197,2981.1202,448.9161,2984.9925,453.0398,2980.8687,456.9121,2989.99,453.197" style="stroke: #A80036; stroke-width: 1.0;"/><text fill="#000000" font-family="sans-serif" font-size="13" lengthAdjust="spacingAndGlyphs" textLength="221" x="2335.5" y="379.0669">&lt;http://crmP24_acquired_title_of&gt;</text><text fill="#000000" font-family="sans-serif" font-size="13" lengthAdjust="spacingAndGlyphs" textLength="263" x="2314.5" y="394.1997">&lt;http://crmP30_custody_transferred_of&gt;</text><path d="M434.39,327.157 C388.766,335.796 349.119,348.216 334.5,366 C302.326,405.141 371.426,430.279 428.903,443.771 " fill="none" style="stroke: #A80036; stroke-width: 1.0;"/><polygon fill="#A80036" points="434.072,444.961,426.1984,439.0444,429.1994,443.8396,424.4042,446.8406,434.072,444.961" style="stroke: #A80036; stroke-width: 1.0;"/><text fill="#000000" font-family="sans-serif" font-size="13" lengthAdjust="spacingAndGlyphs" textLength="238" x="341" y="379.0669">&lt;http://crmP22_transferred_title_to&gt;</text><text fill="#000000" font-family="sans-serif" font-size="13" lengthAdjust="spacingAndGlyphs" textLength="249" x="335.5" y="394.1997">&lt;http://crmP29_custody_received_by&gt;</text><path d="M620.208,329.718 C614.055,349.926 609.244,379.61 625.5,398 C646.486,421.741 812.932,437.95 941.64,447.072 " fill="none" style="stroke: #A80036; stroke-width: 1.0;"/><polygon fill="#A80036" points="946.97,447.447,938.2734,442.8243,941.9824,447.0955,937.7111,450.8045,946.97,447.447" style="stroke: #A80036; stroke-width: 1.0;"/><text fill="#000000" font-family="sans-serif" font-size="13" lengthAdjust="spacingAndGlyphs" textLength="255" x="635.5" y="379.0669">&lt;http://crmP23_transferred_title_from&gt;</text><text fill="#000000" font-family="sans-serif" font-size="13" lengthAdjust="spacingAndGlyphs" textLength="273" x="626.5" y="394.1997">&lt;http://crmP28_custody_surrendered_by&gt;</text><path d="M822.634,318.588 C965.816,327.987 1147.68,343.706 1219.5,366 C1247.62,374.728 1250.39,386.509 1277.5,398 C1323.17,417.359 1377.5,433.344 1416.17,443.595 " fill="none" style="stroke: #A80036; stroke-width: 1.0;"/><polygon fill="#A80036" points="1421.28,444.941,1413.5934,438.7834,1416.4444,443.6692,1411.5586,446.5203,1421.28,444.941" style="stroke: #A80036; stroke-width: 1.0;"/><text fill="#000000" font-family="sans-serif" font-size="13" lengthAdjust="spacingAndGlyphs" textLength="166" x="1278.5" y="386.5669">&lt;http://crmP2_has_type&gt;</text><path d="M434.27,318.991 C297.665,328.523 134.999,344.228 110.5,366 C89.6924,384.492 87.4429,419.256 88.1541,439.744 " fill="none" style="stroke: #A80036; stroke-width: 1.0;"/><polygon fill="#A80036" points="88.4045,444.872,91.9626,435.6883,88.1616,439.8779,83.9721,436.0769,88.4045,444.872" style="stroke: #A80036; stroke-width: 1.0;"/><text fill="#000000" font-family="sans-serif" font-size="13" lengthAdjust="spacingAndGlyphs" textLength="206" x="111.5" y="386.5669">&lt;http://crmP120i_occurs_after&gt;</text><path d="M2111.86,334.609 C2120.83,335.108 2129.73,335.574 2138.5,336 C2230.07,340.45 3704.12,330.146 3788.5,366 C3807.01,373.866 3803.62,387.062 3820.5,398 C3852.67,418.849 3893.46,433.895 3924.68,443.43 " fill="none" style="stroke: #A80036; stroke-width: 1.0;"/><polygon fill="#A80036" points="3929.61,444.913,3922.1472,438.486,3924.8227,443.4701,3919.8386,446.1456,3929.61,444.913" style="stroke: #A80036; stroke-width: 1.0;"/><text fill="#000000" font-family="sans-serif" font-size="13" lengthAdjust="spacingAndGlyphs" textLength="238" x="3827" y="379.0669">&lt;http://crmP22_transferred_title_to&gt;</text><text fill="#000000" font-family="sans-serif" font-size="13" lengthAdjust="spacingAndGlyphs" textLength="249" x="3821.5" y="394.1997">&lt;http://crmP29_custody_received_by&gt;</text><path d="M2111.89,334.038 C2120.85,334.705 2129.74,335.36 2138.5,336 C2337.53,350.534 2390.42,328.93 2586.5,366 C2632.77,374.747 2641.56,387.668 2687.5,398 C2786.16,420.19 2899.74,435.158 2984.64,444.323 " fill="none" style="stroke: #A80036; stroke-width: 1.0;"/><polygon fill="#A80036" points="2989.68,444.864,2981.1533,439.9349,2984.708,444.3354,2980.3075,447.89,2989.68,444.864" style="stroke: #A80036; stroke-width: 1.0;"/><text fill="#000000" font-family="sans-serif" font-size="13" lengthAdjust="spacingAndGlyphs" textLength="221" x="2709.5" y="379.0669">&lt;http://crmP24_acquired_title_of&gt;</text><text fill="#000000" font-family="sans-serif" font-size="13" lengthAdjust="spacingAndGlyphs" textLength="263" x="2688.5" y="394.1997">&lt;http://crmP30_custody_transferred_of&gt;</text><path d="M1457.29,319.396 C1239.21,328.88 984.123,344.341 936.5,366 C918.191,374.327 922.494,389.014 904.5,398 C860.218,420.112 744.785,435.241 647.802,444.489 " fill="none" style="stroke: #A80036; stroke-width: 1.0;"/><polygon fill="#A80036" points="642.614,444.98,651.9501,448.1164,647.5919,444.5101,651.1982,440.1518,642.614,444.98" style="stroke: #A80036; stroke-width: 1.0;"/><text fill="#000000" font-family="sans-serif" font-size="13" lengthAdjust="spacingAndGlyphs" textLength="255" x="946.5" y="379.0669">&lt;http://crmP23_transferred_title_from&gt;</text><text fill="#000000" font-family="sans-serif" font-size="13" lengthAdjust="spacingAndGlyphs" textLength="273" x="937.5" y="394.1997">&lt;http://crmP28_custody_surrendered_by&gt;</text><path d="M1523.64,336 C1495.88,343.698 1473.94,353.506 1463.5,366 C1446.29,386.595 1453.51,420.037 1460.13,439.837 " fill="none" style="stroke: #A80036; stroke-width: 1.0;"/><polygon fill="#A80036" points="1461.88,444.799,1462.669,434.9818,1460.2219,440.0819,1455.1217,437.6348,1461.88,444.799" style="stroke: #A80036; stroke-width: 1.0;"/><text fill="#000000" font-family="sans-serif" font-size="13" lengthAdjust="spacingAndGlyphs" textLength="166" x="1464.5" y="386.5669">&lt;http://crmP2_has_type&gt;</text><path d="M1866.81,336.11 C1887,344.475 1908.08,354.523 1926.5,366 C1944.67,377.321 1944.73,386.059 1962.5,398 C1989.68,416.264 2023.44,432.27 2047.88,442.814 " fill="none" style="stroke: #A80036; stroke-width: 1.0;"/><polygon fill="#A80036" points="2052.64,444.849,2045.926,437.6433,2048.0396,442.8905,2042.7924,445.004,2052.64,444.849" style="stroke: #A80036; stroke-width: 1.0;"/><text fill="#000000" font-family="sans-serif" font-size="13" lengthAdjust="spacingAndGlyphs" textLength="206" x="1963.5" y="386.5669">&lt;http://crmP120i_occurs_after&gt;</text><path d="M3003.73,336.073 C2972.38,351.374 2948.1,372.432 2965.5,398 C2972.99,409.013 2982.93,417.935 2994.12,425.163 " fill="none" style="stroke: #A80036; stroke-width: 1.0;"/><polygon fill="#A80036" points="2998.64,427.953,2993.0663,419.833,2994.38,425.3352,2988.8779,426.649,2998.64,427.953" style="stroke: #A80036; stroke-width: 1.0;"/><text fill="#000000" font-family="sans-serif" font-size="13" lengthAdjust="spacingAndGlyphs" textLength="221" x="2987.5" y="379.0669">&lt;http://crmP24_acquired_title_of&gt;</text><text fill="#000000" font-family="sans-serif" font-size="13" lengthAdjust="spacingAndGlyphs" textLength="263" x="2966.5" y="394.1997">&lt;http://crmP30_custody_transferred_of&gt;</text><path d="M2760.2,334.996 C2754.26,335.346 2748.35,335.681 2742.5,336 C2682.84,339.251 1722.37,342.369 1667.5,366 C1649.03,373.955 1653.64,389.322 1635.5,398 C1626,402.542 1367.26,428.896 1211.1,444.473 " fill="none" style="stroke: #A80036; stroke-width: 1.0;"/><polygon fill="#A80036" points="1206.05,444.977,1215.4048,448.0571,1211.0249,444.4771,1214.605,440.0972,1206.05,444.977" style="stroke: #A80036; stroke-width: 1.0;"/><text fill="#000000" font-family="sans-serif" font-size="13" lengthAdjust="spacingAndGlyphs" textLength="238" x="1674" y="379.0669">&lt;http://crmP22_transferred_title_to&gt;</text><text fill="#000000" font-family="sans-serif" font-size="13" lengthAdjust="spacingAndGlyphs" textLength="249" x="1668.5" y="394.1997">&lt;http://crmP29_custody_received_by&gt;</text><path d="M3414.54,321.677 C3796.78,337.8 4378.36,362.819 4383.5,366 C4410.12,382.477 4423.72,418.539 4429.66,439.672 " fill="none" style="stroke: #A80036; stroke-width: 1.0;"/><polygon fill="#A80036" points="4431,444.702,4432.5361,434.9737,4429.7068,439.8721,4424.8083,437.0428,4431,444.702" style="stroke: #A80036; stroke-width: 1.0;"/><text fill="#000000" font-family="sans-serif" font-size="13" lengthAdjust="spacingAndGlyphs" textLength="166" x="4412.5" y="386.5669">&lt;http://crmP2_has_type&gt;</text><path d="M3112.5,636.08 C3112.5,658.4421 3112.5,688.9749 3112.5,707.5464 " fill="none" style="stroke: #A80036; stroke-width: 1.0;"/><polygon fill="#A80036" points="3112.5,712.9037,3116.5,703.9037,3112.5,707.9037,3108.5,703.9037,3112.5,712.9037" style="stroke: #A80036; stroke-width: 1.0;"/><text fill="#000000" font-family="sans-serif" font-size="13" lengthAdjust="spacingAndGlyphs" textLength="319" x="3113.5" y="679.0669">&lt;http://crmP53_has_former_or_current_location&gt;</text><path d="M3112.5,486.186 C3112.5,510.875 3112.5,546.781 3112.5,572.844 " fill="none" style="stroke: #A80036; stroke-width: 1.0;"/><polygon fill="#A80036" points="3112.5,577.919,3116.5,568.919,3112.5,572.919,3108.5,568.919,3112.5,577.919" style="stroke: #A80036; stroke-width: 1.0;"/><text fill="#000000" font-family="sans-serif" font-size="13" lengthAdjust="spacingAndGlyphs" textLength="243" x="3113.5" y="529.0669">&lt;http://crmP50_has_current_keeper&gt;</text><text fill="#000000" font-family="sans-serif" font-size="13" lengthAdjust="spacingAndGlyphs" textLength="237" x="3116.5" y="544.1997">&lt;http://crmP52_has_current_owner&gt;</text><path d="M5426.3,321.622 C5320.27,330.083 5220.82,343.793 5173.5,366 C5155.29,374.546 5159.99,390.095 5141.5,398 C5073.18,427.2 3878.76,425.665 3804.5,428 C3607.69,434.189 3379.49,443.919 3240.6,450.126 " fill="none" style="stroke: #A80036; stroke-width: 1.0;"/><polygon fill="#A80036" points="3235.29,450.363,3244.4532,453.9735,3240.2854,450.1487,3244.1103,445.9809,3235.29,450.363" style="stroke: #A80036; stroke-width: 1.0;"/><text fill="#000000" font-family="sans-serif" font-size="13" lengthAdjust="spacingAndGlyphs" textLength="221" x="5195.5" y="379.0669">&lt;http://crmP24_acquired_title_of&gt;</text><text fill="#000000" font-family="sans-serif" font-size="13" lengthAdjust="spacingAndGlyphs" textLength="263" x="5174.5" y="394.1997">&lt;http://crmP30_custody_transferred_of&gt;</text><path d="M5960.85,336.097 C5978.51,343.794 5995.23,353.576 6009.5,366 C6031.67,385.296 6041.67,419.477 6045.84,439.705 " fill="none" style="stroke: #A80036; stroke-width: 1.0;"/><polygon fill="#A80036" points="6046.82,444.773,6049.0364,435.1768,6045.8696,439.8642,6041.1822,436.6974,6046.82,444.773" style="stroke: #A80036; stroke-width: 1.0;"/><text fill="#000000" font-family="sans-serif" font-size="13" lengthAdjust="spacingAndGlyphs" textLength="166" x="6031.5" y="386.5669">&lt;http://crmP2_has_type&gt;</text><path d="M6089.64,336.012 C6139.76,344.026 6183.23,353.944 6206.5,366 C6240.21,383.461 6267.87,419.675 6281.78,440.45 " fill="none" style="stroke: #A80036; stroke-width: 1.0;"/><polygon fill="#A80036" points="6284.69,444.883,6283.0935,435.1644,6281.9455,440.7035,6276.4064,439.5555,6284.69,444.883" style="stroke: #A80036; stroke-width: 1.0;"/><text fill="#000000" font-family="sans-serif" font-size="13" lengthAdjust="spacingAndGlyphs" textLength="238" x="6252" y="379.0669">&lt;http://crmP22_transferred_title_to&gt;</text><text fill="#000000" font-family="sans-serif" font-size="13" lengthAdjust="spacingAndGlyphs" textLength="249" x="6246.5" y="394.1997">&lt;http://crmP29_custody_received_by&gt;</text><path d="M5627.85,336.059 C5590.05,344.122 5550.57,354.049 5514.5,366 C5482.79,376.506 5478.1,387.174 5446.5,398 C5385.27,418.979 5313.25,434.398 5260.72,444.042 " fill="none" style="stroke: #A80036; stroke-width: 1.0;"/><polygon fill="#A80036" points="5255.7,444.957,5265.273,447.2717,5260.6183,444.057,5263.833,439.4024,5255.7,444.957" style="stroke: #A80036; stroke-width: 1.0;"/><text fill="#000000" font-family="sans-serif" font-size="13" lengthAdjust="spacingAndGlyphs" textLength="255" x="5524.5" y="379.0669">&lt;http://crmP23_transferred_title_from&gt;</text><text fill="#000000" font-family="sans-serif" font-size="13" lengthAdjust="spacingAndGlyphs" textLength="273" x="5515.5" y="394.1997">&lt;http://crmP28_custody_surrendered_by&gt;</text><path d="M5798.76,336.014 C5798.24,345.528 5797.75,356.223 5797.5,366 C5797.13,380.217 5797.13,383.783 5797.5,398 C5797.87,412.16 5798.73,428.246 5799.44,439.879 " fill="none" style="stroke: #A80036; stroke-width: 1.0;"/><polygon fill="#A80036" points="5799.75,444.888,5803.1811,435.6561,5799.4383,439.8977,5795.1967,436.1549,5799.75,444.888" style="stroke: #A80036; stroke-width: 1.0;"/><text fill="#000000" font-family="sans-serif" font-size="13" lengthAdjust="spacingAndGlyphs" textLength="206" x="5798.5" y="386.5669">&lt;http://crmP120i_occurs_after&gt;</text><path d="M4061.7,59.565 C4043.66,68.153 4027.4,79.923 4015.5,96 C4002.92,112.99 4007.49,138.563 4012.52,155.02 " fill="none" style="stroke: #A80036; stroke-width: 1.0;"/><polygon fill="#A80036" points="4014.08,159.814,4015.103,150.0184,4012.5349,155.0587,4007.4946,152.4906,4014.08,159.814" style="stroke: #A80036; stroke-width: 1.0;"/><text fill="#000000" font-family="sans-serif" font-size="13" lengthAdjust="spacingAndGlyphs" textLength="332" x="4016.5" y="109.0669">&lt;http://crmP107_has_current_or_former_member&gt;</text><path d="M4290.88,59.617 C4313.1,68.242 4335.75,80.038 4353.5,96 C4371.3,112.008 4382.25,138.067 4387.85,154.869 " fill="none" style="stroke: #A80036; stroke-width: 1.0;"/><polygon fill="#A80036" points="4389.42,159.765,4390.4803,149.9734,4387.893,155.0039,4382.8625,152.4166,4389.42,159.765" style="stroke: #A80036; stroke-width: 1.0;"/><text fill="#000000" font-family="sans-serif" font-size="13" lengthAdjust="spacingAndGlyphs" textLength="332" x="4368.5" y="109.0669">&lt;http://crmP107_has_current_or_former_member&gt;</text><path d="M3514.31,66.043 C3550.62,87.794 3600.88,117.908 3638.26,140.303 " fill="none" style="stroke: #A80036; stroke-width: 1.0;"/><polygon fill="#A80036" points="3642.75,142.995,3637.087,134.9371,3638.4614,140.4244,3632.9741,141.7988,3642.75,142.995" style="stroke: #A80036; stroke-width: 1.0;"/><text fill="#000000" font-family="sans-serif" font-size="13" lengthAdjust="spacingAndGlyphs" textLength="166" x="3593.5" y="109.0669">&lt;http://crmP2_has_type&gt;</text><path d="M3473.78,66.206 C3485.03,124.865 3501.38,260.793 3431.5,336 C3384.33,386.764 3342.02,338.302 3278.5,366 C3256.34,375.665 3255.29,385.645 3234.5,398 C3218.01,407.803 3199.6,417.264 3182.18,425.6 " fill="none" style="stroke: #A80036; stroke-width: 1.0;"/><polygon fill="#A80036" points="3177.29,427.921,3187.1358,427.6763,3181.8072,425.7774,3183.7061,420.4488,3177.29,427.921" style="stroke: #A80036; stroke-width: 1.0;"/><text fill="#000000" font-family="sans-serif" font-size="13" lengthAdjust="spacingAndGlyphs" textLength="178" x="3480.5" y="244.0669">&lt;http://crmP129_is_about&gt;</text><path d="M3352.16,58.928 C3217.72,83.322 2996.4,123.479 2858.39,148.52 " fill="none" style="stroke: #A80036; stroke-width: 1.0;"/><polygon fill="#A80036" points="2853.11,149.478,2862.6764,151.8197,2858.0309,148.5919,2861.2586,143.9463,2853.11,149.478" style="stroke: #A80036; stroke-width: 1.0;"/><text fill="#000000" font-family="sans-serif" font-size="13" lengthAdjust="spacingAndGlyphs" textLength="188" x="3146.5" y="109.0669">&lt;http://crmP70_documents&gt;</text><path d="M2791.61,194.517 C2850.39,216.666 2942.45,251.348 3008.26,276.146 " fill="none" style="stroke: #A80036; stroke-width: 1.0;"/><polygon fill="#A80036" points="3012.96,277.914,3005.9403,271.0058,3008.2791,276.1565,3003.1283,278.4953,3012.96,277.914" style="stroke: #A80036; stroke-width: 1.0;"/><text fill="#000000" font-family="sans-serif" font-size="13" lengthAdjust="spacingAndGlyphs" textLength="179" x="2933.5" y="244.0669">&lt;http://crmP9_consists_of&gt;</text><path d="M2706.32,194.665 C2678.1,216.362 2634.37,249.978 2602.35,274.598 " fill="none" style="stroke: #A80036; stroke-width: 1.0;"/><polygon fill="#A80036" points="2598.11,277.858,2607.6796,275.5294,2602.0694,274.8046,2602.7942,269.1944,2598.11,277.858" style="stroke: #A80036; stroke-width: 1.0;"/><text fill="#000000" font-family="sans-serif" font-size="13" lengthAdjust="spacingAndGlyphs" textLength="166" x="2659.5" y="244.0669">&lt;http://crmP2_has_type&gt;</text><path d="M2596.32,182.822 C2456.51,195.679 2253.38,223.336 2198.5,278 C2159.96,316.383 2205.55,353.347 2174.5,398 C2160.21,418.55 2136.05,433.223 2115.81,442.67 " fill="none" style="stroke: #A80036; stroke-width: 1.0;"/><polygon fill="#A80036" points="2111.02,444.841,2120.8687,444.7804,2115.5765,442.7822,2117.5746,437.49,2111.02,444.841" style="stroke: #A80036; stroke-width: 1.0;"/><text fill="#000000" font-family="sans-serif" font-size="13" lengthAdjust="spacingAndGlyphs" textLength="179" x="2199.5" y="311.5669">&lt;http://crmP9_consists_of&gt;</text><path d="M4111.53,336.275 C4105.61,355.511 4095.49,380.544 4079.5,398 C4060.58,418.658 4032.56,433.474 4009.94,442.959 " fill="none" style="stroke: #A80036; stroke-width: 1.0;"/><polygon fill="#A80036" points="4005.2,444.903,4015.0449,445.1835,4009.825,443.0033,4012.0053,437.7835,4005.2,444.903" style="stroke: #A80036; stroke-width: 1.0;"/><text fill="#000000" font-family="sans-serif" font-size="13" lengthAdjust="spacingAndGlyphs" textLength="255" x="4110.5" y="379.0669">&lt;http://crmP23_transferred_title_from&gt;</text><text fill="#000000" font-family="sans-serif" font-size="13" lengthAdjust="spacingAndGlyphs" textLength="273" x="4101.5" y="394.1997">&lt;http://crmP28_custody_surrendered_by&gt;</text><path d="M3791.21,321.859 C3679.31,330.388 3569.71,344.082 3519.5,366 C3499.88,374.564 3502.86,388.865 3483.5,398 C3407.79,433.724 3314.68,448.202 3240.68,453.76 " fill="none" style="stroke: #A80036; stroke-width: 1.0;"/><polygon fill="#A80036" points="3235.38,454.145,3244.6522,457.4655,3240.3662,453.7736,3244.0581,449.4876,3235.38,454.145" style="stroke: #A80036; stroke-width: 1.0;"/><text fill="#000000" font-family="sans-serif" font-size="13" lengthAdjust="spacingAndGlyphs" textLength="221" x="3541.5" y="379.0669">&lt;http://crmP24_acquired_title_of&gt;</text><text fill="#000000" font-family="sans-serif" font-size="13" lengthAdjust="spacingAndGlyphs" textLength="263" x="3520.5" y="394.1997">&lt;http://crmP30_custody_transferred_of&gt;</text><path d="M3791.28,319.439 C3607.29,328.227 3397.02,342.873 3307.5,366 C3274.77,374.456 3271.42,390.315 3238.5,398 C3105.7,429.003 2147.78,422.834 2011.5,428 C1838.56,434.555 1634.94,446.012 1532.47,452.037 " fill="none" style="stroke: #A80036; stroke-width: 1.0;"/><polygon fill="#A80036" points="1527.37,452.338,1536.5839,455.8171,1532.3618,452.0523,1536.1267,447.8302,1527.37,452.338" style="stroke: #A80036; stroke-width: 1.0;"/><text fill="#000000" font-family="sans-serif" font-size="13" lengthAdjust="spacingAndGlyphs" textLength="166" x="3308.5" y="386.5669">&lt;http://crmP2_has_type&gt;</text><path d="M4445.68,317.051 C4601.86,324.827 4770.21,339.254 4842.5,366 C4865.18,374.391 4864.32,388.371 4886.5,398 C4941.47,421.863 5006.31,435.955 5061.72,444.255 " fill="none" style="stroke: #A80036; stroke-width: 1.0;"/><polygon fill="#A80036" points="5066.7,444.991,5058.3791,439.722,5061.7534,444.2623,5057.2131,447.6366,5066.7,444.991" style="stroke: #A80036; stroke-width: 1.0;"/><text fill="#000000" font-family="sans-serif" font-size="13" lengthAdjust="spacingAndGlyphs" textLength="238" x="4893" y="379.0669">&lt;http://crmP22_transferred_title_to&gt;</text><text fill="#000000" font-family="sans-serif" font-size="13" lengthAdjust="spacingAndGlyphs" textLength="249" x="4887.5" y="394.1997">&lt;http://crmP29_custody_received_by&gt;</text><path d="M4445.53,323.062 C4514.3,331.696 4574.51,345.136 4602.5,366 C4626.31,383.751 4635.78,419.09 4639.4,439.812 " fill="none" style="stroke: #A80036; stroke-width: 1.0;"/><polygon fill="#A80036" points="4640.23,444.994,4642.7444,435.4715,4639.4331,440.0579,4634.8467,436.7466,4640.23,444.994" style="stroke: #A80036; stroke-width: 1.0;"/><text fill="#000000" font-family="sans-serif" font-size="13" lengthAdjust="spacingAndGlyphs" textLength="206" x="4627.5" y="386.5669">&lt;http://crmP120i_occurs_after&gt;</text></g></svg>