<?xml version="1.0" encoding="UTF-8" standalone="no"?><svg xmlns="http://www.w3.org/2000/svg" xmlns:xlink="http://www.w3.org/1999/xlink" contentScriptType="application/ecmascript" contentStyleType="text/css" height="385px" preserveAspectRatio="none" style="width:482px;height:385px;" version="1.1" viewBox="0 0 482 385" width="482px" zoomAndPan="magnify"><defs><filter height="300%" id="fn2q9gv" width="300%" x="-1" y="-1"><feGaussianBlur result="blurOut" stdDeviation="2.0"/><feColorMatrix in="blurOut" result="blurOut2" type="matrix" values="0 0 0 0 0 0 0 0 0 0 0 0 0 0 0 0 0 0 .4 0"/><feOffset dx="4.0" dy="4.0" in="blurOut2" result="blurOut3"/><feBlend in="SourceGraphic" in2="blurOut3" mode="normal"/></filter></defs><g><!--class _dimension_type_--><rect fill="#FEFECE" filter="url(#fn2q9gv)" height="23.9688" style="stroke: #A80036; stroke-width: 1.5;" width="123" x="10" y="252"/><text fill="#000000" font-family="sans-serif" font-size="12" lengthAdjust="spacingAndGlyphs" textLength="117" x="13" y="268.1387">&lt;dimension_type&gt;</text><!--class _dimension_name_--><rect fill="#FEFECE" filter="url(#fn2q9gv)" height="23.9688" style="stroke: #A80036; stroke-width: 1.5;" width="131" x="6" y="353"/><text fill="#000000" font-family="sans-serif" font-size="12" lengthAdjust="spacingAndGlyphs" textLength="125" x="9" y="369.1387">&lt;dimension_name&gt;</text><!--class _dimension_class_--><rect fill="#FEFECE" filter="url(#fn2q9gv)" height="44.7734" style="stroke: #A80036; stroke-width: 1.5;" width="136" x="155.5" y="130"/><text fill="#000000" font-family="sans-serif" font-size="12" lengthAdjust="spacingAndGlyphs" textLength="122" x="162.5" y="146.1387">&lt;dimension_class&gt;</text><line style="stroke: #A80036; stroke-width: 1.5;" x1="156.5" x2="290.5" y1="153.9688" y2="153.9688"/><text fill="#000000" font-family="sans-serif" font-size="11" lengthAdjust="spacingAndGlyphs" textLength="124" x="161.5" y="168.1792">a crm:E54_Dimension</text><!--class _value_--><rect fill="#FEFECE" filter="url(#fn2q9gv)" height="23.9688" style="stroke: #A80036; stroke-width: 1.5;" width="59" x="194" y="252"/><text fill="#000000" font-family="sans-serif" font-size="12" lengthAdjust="spacingAndGlyphs" textLength="53" x="197" y="268.1387">&lt;value&gt;</text><!--class _unit_--><rect fill="#FEFECE" filter="url(#fn2q9gv)" height="23.9688" style="stroke: #A80036; stroke-width: 1.5;" width="50" x="364.5" y="252"/><text fill="#000000" font-family="sans-serif" font-size="12" lengthAdjust="spacingAndGlyphs" textLength="44" x="367.5" y="268.1387">&lt;unit&gt;</text><!--class _entity_uri_--><rect fill="#FEFECE" filter="url(#fn2q9gv)" height="44.7734" style="stroke: #A80036; stroke-width: 1.5;" width="175" x="136" y="8"/><text fill="#000000" font-family="sans-serif" font-size="12" lengthAdjust="spacingAndGlyphs" textLength="77" x="185" y="24.1387">&lt;entity_uri&gt;</text><line style="stroke: #A80036; stroke-width: 1.5;" x1="137" x2="310" y1="31.9688" y2="31.9688"/><text fill="#000000" font-family="sans-serif" font-size="11" lengthAdjust="spacingAndGlyphs" textLength="163" x="142" y="46.1792">a crm:E22_Man-Made_Object</text><path d="M71.5,276.357 C71.5,293.8868 71.5,327.6117 71.5,347.7298 " fill="none" style="stroke: #A80036; stroke-width: 1.0;"/><polygon fill="#A80036" points="71.5,352.7759,75.5,343.7759,71.5,347.7759,67.5,343.7759,71.5,352.7759" style="stroke: #A80036; stroke-width: 1.0;"/><text fill="#000000" font-family="sans-serif" font-size="13" lengthAdjust="spacingAndGlyphs" textLength="92" x="72.5" y="319.0669">skos:prefLabel</text><path d="M221.666,175.093 C220.742,188.576 219.926,206.298 220.5,222 C220.795,230.071 221.415,239.017 222.016,246.488 " fill="none" style="stroke: #A80036; stroke-width: 1.0;"/><polygon fill="#A80036" points="222.465,251.875,225.7029,242.5736,222.0493,246.8923,217.7306,243.2387,222.465,251.875" style="stroke: #A80036; stroke-width: 1.0;"/><text fill="#000000" font-family="sans-serif" font-size="13" lengthAdjust="spacingAndGlyphs" textLength="124" x="221.5" y="218.0669">crm:P90_has_value</text><path d="M155.254,172.173 C135.878,179.945 115.888,190.612 100.5,205 C88.3039,216.404 80.5057,234.061 76.1031,246.899 " fill="none" style="stroke: #A80036; stroke-width: 1.0;"/><polygon fill="#A80036" points="74.5271,251.73,81.1221,244.4153,76.0785,246.9768,73.517,241.9331,74.5271,251.73" style="stroke: #A80036; stroke-width: 1.0;"/><text fill="#000000" font-family="sans-serif" font-size="13" lengthAdjust="spacingAndGlyphs" textLength="110" x="101.5" y="218.0669">crm:P2_has_type</text><path d="M291.505,172.584 C311.866,180.441 333.323,191.052 350.5,205 C364.594,216.445 375.536,234.325 382.195,247.208 " fill="none" style="stroke: #A80036; stroke-width: 1.0;"/><polygon fill="#A80036" points="384.453,251.707,383.9907,241.869,382.2101,247.2383,376.8408,245.4577,384.453,251.707" style="stroke: #A80036; stroke-width: 1.0;"/><text fill="#000000" font-family="sans-serif" font-size="13" lengthAdjust="spacingAndGlyphs" textLength="114" x="367.5" y="218.0669">crm:P90_has_unit</text><path d="M223.5,53.231 C223.5,73.365 223.5,103.366 223.5,124.919 " fill="none" style="stroke: #A80036; stroke-width: 1.0;"/><polygon fill="#A80036" points="223.5,129.931,227.5,120.931,223.5,124.931,219.5,120.931,223.5,129.931" style="stroke: #A80036; stroke-width: 1.0;"/><text fill="#000000" font-family="sans-serif" font-size="13" lengthAdjust="spacingAndGlyphs" textLength="156" x="224.5" y="96.0669">crm:P43_has_dimension</text></g></svg>