<?xml version="1.0" encoding="UTF-8" standalone="no"?><svg xmlns="http://www.w3.org/2000/svg" xmlns:xlink="http://www.w3.org/1999/xlink" contentScriptType="application/ecmascript" contentStyleType="text/css" height="305px" preserveAspectRatio="none" style="width:420px;height:305px;" version="1.1" viewBox="0 0 420 305" width="420px" zoomAndPan="magnify"><defs><filter height="300%" id="fjq47dc" width="300%" x="-1" y="-1"><feGaussianBlur result="blurOut" stdDeviation="2.0"/><feColorMatrix in="blurOut" result="blurOut2" type="matrix" values="0 0 0 0 0 0 0 0 0 0 0 0 0 0 0 0 0 0 .4 0"/><feOffset dx="4.0" dy="4.0" in="blurOut2" result="blurOut3"/><feBlend in="SourceGraphic" in2="blurOut3" mode="normal"/></filter></defs><g><!--class aat_300379842--><rect fill="#FEFECE" filter="url(#fjq47dc)" height="44.7734" style="stroke: #A80036; stroke-width: 1.5;" width="103" x="6" y="252"/><text fill="#000000" font-family="sans-serif" font-size="12" lengthAdjust="spacingAndGlyphs" textLength="97" x="9" y="268.1387">aat:300379842</text><line style="stroke: #A80036; stroke-width: 1.5;" x1="7" x2="108" y1="275.9688" y2="275.9688"/><text fill="#000000" font-family="sans-serif" font-size="11" lengthAdjust="spacingAndGlyphs" textLength="68" x="12" y="290.1792">"nationality"</text><!--class _entity_uri_--><rect fill="#FEFECE" filter="url(#fjq47dc)" height="44.7734" style="stroke: #A80036; stroke-width: 1.5;" width="105" x="81" y="8"/><text fill="#000000" font-family="sans-serif" font-size="12" lengthAdjust="spacingAndGlyphs" textLength="77" x="95" y="24.1387">&lt;entity_uri&gt;</text><line style="stroke: #A80036; stroke-width: 1.5;" x1="82" x2="185" y1="31.9688" y2="31.9688"/><text fill="#000000" font-family="sans-serif" font-size="11" lengthAdjust="spacingAndGlyphs" textLength="93" x="87" y="46.1792">a crm:E39_Actor</text><!--class _nationality_class_--><rect fill="#FEFECE" filter="url(#fjq47dc)" height="44.7734" style="stroke: #A80036; stroke-width: 1.5;" width="129" x="69" y="130"/><text fill="#000000" font-family="sans-serif" font-size="12" lengthAdjust="spacingAndGlyphs" textLength="123" x="72" y="146.1387">&lt;nationality_class&gt;</text><line style="stroke: #A80036; stroke-width: 1.5;" x1="70" x2="197" y1="153.9688" y2="153.9688"/><text fill="#000000" font-family="sans-serif" font-size="11" lengthAdjust="spacingAndGlyphs" textLength="99" x="75" y="168.1792">a crm:E74_Group</text><!--class _nationality_--><rect fill="#FEFECE" filter="url(#fjq47dc)" height="23.9688" style="stroke: #A80036; stroke-width: 1.5;" width="91" x="164" y="262.5"/><text fill="#000000" font-family="sans-serif" font-size="12" lengthAdjust="spacingAndGlyphs" textLength="85" x="167" y="278.6387">&lt;nationality&gt;</text><path d="M133.5,53.231 C133.5,73.365 133.5,103.366 133.5,124.919 " fill="none" style="stroke: #A80036; stroke-width: 1.0;"/><polygon fill="#A80036" points="133.5,129.931,137.5,120.931,133.5,124.931,129.5,120.931,133.5,129.931" style="stroke: #A80036; stroke-width: 1.0;"/><text fill="#000000" font-family="sans-serif" font-size="13" lengthAdjust="spacingAndGlyphs" textLength="285" x="134.5" y="96.0669">crm:P107i_is_current_or_former_member_of</text><path d="M84.1301,175.091 C72.324,182.746 61.2076,192.62 54.5,205 C47.6915,217.566 47.9291,233.4122 50.1013,246.6978 " fill="none" style="stroke: #A80036; stroke-width: 1.0;"/><polygon fill="#A80036" points="51.0566,251.8395,53.3451,242.2602,50.1432,246.9236,45.4797,243.7217,51.0566,251.8395" style="stroke: #A80036; stroke-width: 1.0;"/><text fill="#000000" font-family="sans-serif" font-size="13" lengthAdjust="spacingAndGlyphs" textLength="110" x="55.5" y="218.0669">crm:P2_has_type</text><path d="M149.864,175.201 C156.493,184.262 164.081,194.992 170.5,205 C181.784,222.5936 193.486,243.5767 201.09,257.6423 " fill="none" style="stroke: #A80036; stroke-width: 1.0;"/><polygon fill="#A80036" points="203.505,262.1323,202.7635,252.3114,201.1361,257.7291,195.7184,256.1016,203.505,262.1323" style="stroke: #A80036; stroke-width: 1.0;"/><text fill="#000000" font-family="sans-serif" font-size="13" lengthAdjust="spacingAndGlyphs" textLength="58" x="181.5" y="218.0669">rdfs:label</text></g></svg>