<?xml version="1.0" encoding="UTF-8" standalone="no"?><svg xmlns="http://www.w3.org/2000/svg" xmlns:xlink="http://www.w3.org/1999/xlink" contentScriptType="application/ecmascript" contentStyleType="text/css" height="549px" preserveAspectRatio="none" style="width:1105px;height:549px;" version="1.1" viewBox="0 0 1105 549" width="1105px" zoomAndPan="magnify"><defs><filter height="300%" id="fvxkkao" width="300%" x="-1" y="-1"><feGaussianBlur result="blurOut" stdDeviation="2.0"/><feColorMatrix in="blurOut" result="blurOut2" type="matrix" values="0 0 0 0 0 0 0 0 0 0 0 0 0 0 0 0 0 0 .4 0"/><feOffset dx="4.0" dy="4.0" in="blurOut2" result="blurOut3"/><feBlend in="SourceGraphic" in2="blurOut3" mode="normal"/></filter></defs><g><!--class _vase_--><rect fill="#FEFECE" filter="url(#fvxkkao)" height="44.7734" style="stroke: #A80036; stroke-width: 1.5;" width="175" x="6" y="496"/><text fill="#000000" font-family="sans-serif" font-size="12" lengthAdjust="spacingAndGlyphs" textLength="49" x="69" y="512.1387">&lt;vase&gt;</text><line style="stroke: #A80036; stroke-width: 1.5;" x1="7" x2="180" y1="519.9688" y2="519.9688"/><text fill="#000000" font-family="sans-serif" font-size="11" lengthAdjust="spacingAndGlyphs" textLength="163" x="12" y="534.1792">a crm:E22_Man-Made_Object</text><!--class _transaction_of_candlestick_--><rect fill="#FEFECE" filter="url(#fvxkkao)" height="44.7734" style="stroke: #A80036; stroke-width: 1.5;" width="309" x="578" y="374"/><text fill="#000000" font-family="sans-serif" font-size="12" lengthAdjust="spacingAndGlyphs" textLength="187" x="639" y="390.1387">&lt;transaction_of_candlestick&gt;</text><line style="stroke: #A80036; stroke-width: 1.5;" x1="579" x2="886" y1="397.9688" y2="397.9688"/><text fill="#000000" font-family="sans-serif" font-size="11" lengthAdjust="spacingAndGlyphs" textLength="297" x="584" y="412.1792">a crm:E8_Acquisition, crm:E10_Transfer_of_Custody</text><!--class _candlestick_--><rect fill="#FEFECE" filter="url(#fvxkkao)" height="44.7734" style="stroke: #A80036; stroke-width: 1.5;" width="175" x="749" y="496"/><text fill="#000000" font-family="sans-serif" font-size="12" lengthAdjust="spacingAndGlyphs" textLength="91" x="791" y="512.1387">&lt;candlestick&gt;</text><line style="stroke: #A80036; stroke-width: 1.5;" x1="750" x2="923" y1="519.9688" y2="519.9688"/><text fill="#000000" font-family="sans-serif" font-size="11" lengthAdjust="spacingAndGlyphs" textLength="163" x="755" y="534.1792">a crm:E22_Man-Made_Object</text><!--class _sales_price_--><rect fill="#FEFECE" filter="url(#fvxkkao)" height="44.7734" style="stroke: #A80036; stroke-width: 1.5;" width="119" x="424" y="374"/><text fill="#000000" font-family="sans-serif" font-size="12" lengthAdjust="spacingAndGlyphs" textLength="90" x="438.5" y="390.1387">&lt;sales_price&gt;</text><line style="stroke: #A80036; stroke-width: 1.5;" x1="425" x2="542" y1="397.9688" y2="397.9688"/><text fill="#000000" font-family="sans-serif" font-size="11" lengthAdjust="spacingAndGlyphs" textLength="107" x="430" y="412.1792">a crm:E97_Amount</text><!--class _sale_of_lot_--><rect fill="#FEFECE" filter="url(#fvxkkao)" height="44.7734" style="stroke: #A80036; stroke-width: 1.5;" width="108" x="429.5" y="130"/><text fill="#000000" font-family="sans-serif" font-size="12" lengthAdjust="spacingAndGlyphs" textLength="86" x="440.5" y="146.1387">&lt;sale_of_lot&gt;</text><line style="stroke: #A80036; stroke-width: 1.5;" x1="430.5" x2="536.5" y1="153.9688" y2="153.9688"/><text fill="#000000" font-family="sans-serif" font-size="11" lengthAdjust="spacingAndGlyphs" textLength="96" x="435.5" y="168.1792">a crm:E7_Activity</text><!--class _purchase_transaction_--><rect fill="#FEFECE" filter="url(#fvxkkao)" height="44.7734" style="stroke: #A80036; stroke-width: 1.5;" width="163" x="402" y="252"/><text fill="#000000" font-family="sans-serif" font-size="12" lengthAdjust="spacingAndGlyphs" textLength="157" x="405" y="268.1387">&lt;purchase_transaction&gt;</text><line style="stroke: #A80036; stroke-width: 1.5;" x1="403" x2="564" y1="275.9688" y2="275.9688"/><text fill="#000000" font-family="sans-serif" font-size="11" lengthAdjust="spacingAndGlyphs" textLength="117" x="408" y="290.1792">a crm:E96_Purchase</text><!--class _transaction_of_vase_--><rect fill="#FEFECE" filter="url(#fvxkkao)" height="44.7734" style="stroke: #A80036; stroke-width: 1.5;" width="309" x="80" y="374"/><text fill="#000000" font-family="sans-serif" font-size="12" lengthAdjust="spacingAndGlyphs" textLength="145" x="162" y="390.1387">&lt;transaction_of_vase&gt;</text><line style="stroke: #A80036; stroke-width: 1.5;" x1="81" x2="388" y1="397.9688" y2="397.9688"/><text fill="#000000" font-family="sans-serif" font-size="11" lengthAdjust="spacingAndGlyphs" textLength="297" x="86" y="412.1792">a crm:E8_Acquisition, crm:E10_Transfer_of_Custody</text><!--class _lot_--><rect fill="#FEFECE" filter="url(#fvxkkao)" height="44.7734" style="stroke: #A80036; stroke-width: 1.5;" width="131" x="418" y="8"/><text fill="#000000" font-family="sans-serif" font-size="12" lengthAdjust="spacingAndGlyphs" textLength="36" x="465.5" y="24.1387">&lt;lot&gt;</text><line style="stroke: #A80036; stroke-width: 1.5;" x1="419" x2="548" y1="31.9688" y2="31.9688"/><text fill="#000000" font-family="sans-serif" font-size="11" lengthAdjust="spacingAndGlyphs" textLength="119" x="424" y="46.1792">a crm:E78_Collection</text><path d="M726.465,419.18 C723.773,433.527 722.881,452.1721 731.5,466 C738.564,477.3324 748.929,486.2411 760.432,493.2236 " fill="none" style="stroke: #A80036; stroke-width: 1.0;"/><polygon fill="#A80036" points="765.068,495.9035,759.2788,487.9357,760.7395,493.4007,755.2744,494.8614,765.068,495.9035" style="stroke: #A80036; stroke-width: 1.0;"/><text fill="#000000" font-family="sans-serif" font-size="13" lengthAdjust="spacingAndGlyphs" textLength="181" x="732.5" y="462.0669">crm:P24_transferred_title_of</text><path d="M483.5,175.231 C483.5,195.365 483.5,225.366 483.5,246.919 " fill="none" style="stroke: #A80036; stroke-width: 1.0;"/><polygon fill="#A80036" points="483.5,251.931,487.5,242.931,483.5,246.931,479.5,242.931,483.5,251.931" style="stroke: #A80036; stroke-width: 1.0;"/><text fill="#000000" font-family="sans-serif" font-size="13" lengthAdjust="spacingAndGlyphs" textLength="109" x="484.5" y="218.0669">crm:P9i_contains</text><path d="M431.272,297.081 C410.349,305.991 386.122,316.643 364.5,327 C335.368,340.954 303.251,357.862 278.229,371.388 " fill="none" style="stroke: #A80036; stroke-width: 1.0;"/><polygon fill="#A80036" points="273.641,373.873,283.4597,373.1029,278.0373,371.4913,279.6489,366.0688,273.641,373.873" style="stroke: #A80036; stroke-width: 1.0;"/><text fill="#000000" font-family="sans-serif" font-size="13" lengthAdjust="spacingAndGlyphs" textLength="109" x="365.5" y="340.0669">crm:P9i_contains</text><path d="M565.339,290.056 C597.099,297.956 632.88,309.75 662.5,327 C681.437,338.029 699.049,355.314 711.87,369.762 " fill="none" style="stroke: #A80036; stroke-width: 1.0;"/><polygon fill="#A80036" points="715.356,373.754,712.4489,364.344,712.0671,369.9879,706.4232,369.6062,715.356,373.754" style="stroke: #A80036; stroke-width: 1.0;"/><text fill="#000000" font-family="sans-serif" font-size="13" lengthAdjust="spacingAndGlyphs" textLength="109" x="685.5" y="340.0669">crm:P9i_contains</text><path d="M483.5,297.231 C483.5,317.365 483.5,347.366 483.5,368.919 " fill="none" style="stroke: #A80036; stroke-width: 1.0;"/><polygon fill="#A80036" points="483.5,373.931,487.5,364.931,483.5,368.931,479.5,364.931,483.5,373.931" style="stroke: #A80036; stroke-width: 1.0;"/><text fill="#000000" font-family="sans-serif" font-size="13" lengthAdjust="spacingAndGlyphs" textLength="169" x="484.5" y="340.0669">crm:p179_has_sales_price</text><path d="M208.966,419.231 C184.71,439.875 148.265,470.8915 122.828,492.5396 " fill="none" style="stroke: #A80036; stroke-width: 1.0;"/><polygon fill="#A80036" points="118.844,495.9306,128.2906,493.1446,122.652,492.6904,123.1062,487.0518,118.844,495.9306" style="stroke: #A80036; stroke-width: 1.0;"/><text fill="#000000" font-family="sans-serif" font-size="13" lengthAdjust="spacingAndGlyphs" textLength="181" x="173.5" y="462.0669">crm:P24_transferred_title_of</text><path d="M417.536,35.103 C290.979,43.83 26.5,71.623 26.5,151.5 C26.5,151.5 26.5,151.5 26.5,397.5 C26.5,433.589 49.8876,468.9222 69.0271,491.7949 " fill="none" style="stroke: #A80036; stroke-width: 1.0;"/><polygon fill="#A80036" points="72.3008,495.6372,69.5086,486.1924,69.0581,491.8313,63.4192,491.3808,72.3008,495.6372" style="stroke: #A80036; stroke-width: 1.0;"/><text fill="#000000" font-family="sans-serif" font-size="13" lengthAdjust="spacingAndGlyphs" textLength="163" x="27.5" y="279.0669">crm:P46_is_composed_of</text><path d="M483.5,53.231 C483.5,73.365 483.5,103.366 483.5,124.919 " fill="none" style="stroke: #A80036; stroke-width: 1.0;"/><polygon fill="#A80036" points="483.5,129.931,487.5,120.931,483.5,124.931,479.5,120.931,483.5,129.931" style="stroke: #A80036; stroke-width: 1.0;"/><text fill="#000000" font-family="sans-serif" font-size="13" lengthAdjust="spacingAndGlyphs" textLength="149" x="484.5" y="96.0669">crm:P16i_was_used_for</text><path d="M549.464,35.103 C676.021,43.83 940.5,71.623 940.5,151.5 C940.5,151.5 940.5,151.5 940.5,397.5 C940.5,429.476 938.115,440.747 918.5,466 C910.142,476.7602 898.858,485.8691 887.337,493.2937 " fill="none" style="stroke: #A80036; stroke-width: 1.0;"/><polygon fill="#A80036" points="883.087,495.9528,892.8385,494.5711,887.326,493.3012,888.5959,487.7887,883.087,495.9528" style="stroke: #A80036; stroke-width: 1.0;"/><text fill="#000000" font-family="sans-serif" font-size="13" lengthAdjust="spacingAndGlyphs" textLength="163" x="941.5" y="279.0669">crm:P46_is_composed_of</text></g></svg>