<?xml version="1.0" encoding="UTF-8" standalone="no"?><svg xmlns="http://www.w3.org/2000/svg" xmlns:xlink="http://www.w3.org/1999/xlink" contentScriptType="application/ecmascript" contentStyleType="text/css" height="528px" preserveAspectRatio="none" style="width:620px;height:528px;" version="1.1" viewBox="0 0 620 528" width="620px" zoomAndPan="magnify"><defs><filter height="300%" id="fnjxq9x" width="300%" x="-1" y="-1"><feGaussianBlur result="blurOut" stdDeviation="2.0"/><feColorMatrix in="blurOut" result="blurOut2" type="matrix" values="0 0 0 0 0 0 0 0 0 0 0 0 0 0 0 0 0 0 .4 0"/><feOffset dx="4.0" dy="4.0" in="blurOut2" result="blurOut3"/><feBlend in="SourceGraphic" in2="blurOut3" mode="normal"/></filter></defs><g><!--class _author_class_--><rect fill="#FEFECE" filter="url(#fnjxq9x)" height="44.7734" style="stroke: #A80036; stroke-width: 1.5;" width="106" x="404.5" y="374"/><text fill="#000000" font-family="sans-serif" font-size="12" lengthAdjust="spacingAndGlyphs" textLength="100" x="407.5" y="390.1387">&lt;author_class&gt;</text><line style="stroke: #A80036; stroke-width: 1.5;" x1="405.5" x2="509.5" y1="397.9688" y2="397.9688"/><text fill="#000000" font-family="sans-serif" font-size="11" lengthAdjust="spacingAndGlyphs" textLength="93" x="410.5" y="412.1792">a crm:E39_Actor</text><!--class _alt_desc_author_lod_id_--><rect fill="#FEFECE" filter="url(#fnjxq9x)" height="23.9688" style="stroke: #A80036; stroke-width: 1.5;" width="168" x="282.5" y="496"/><text fill="#000000" font-family="sans-serif" font-size="12" lengthAdjust="spacingAndGlyphs" textLength="162" x="285.5" y="512.1387">&lt;alt_desc_author_lod_id&gt;</text><!--class _alt_desc_author_--><rect fill="#FEFECE" filter="url(#fnjxq9x)" height="23.9688" style="stroke: #A80036; stroke-width: 1.5;" width="126" x="485.5" y="496"/><text fill="#000000" font-family="sans-serif" font-size="12" lengthAdjust="spacingAndGlyphs" textLength="120" x="488.5" y="512.1387">&lt;alt_desc_author&gt;</text><!--class _description_class_--><rect fill="#FEFECE" filter="url(#fnjxq9x)" height="44.7734" style="stroke: #A80036; stroke-width: 1.5;" width="171" x="210" y="130"/><text fill="#000000" font-family="sans-serif" font-size="12" lengthAdjust="spacingAndGlyphs" textLength="128" x="231.5" y="146.1387">&lt;description_class&gt;</text><line style="stroke: #A80036; stroke-width: 1.5;" x1="211" x2="380" y1="153.9688" y2="153.9688"/><text fill="#000000" font-family="sans-serif" font-size="11" lengthAdjust="spacingAndGlyphs" textLength="159" x="216" y="168.1792">a crm:E33_Linguistic_Object</text><!--class aac_types_primary_description--><rect fill="#FEFECE" filter="url(#fnjxq9x)" height="23.9688" style="stroke: #A80036; stroke-width: 1.5;" width="195" x="6" y="262.5"/><text fill="#000000" font-family="sans-serif" font-size="12" lengthAdjust="spacingAndGlyphs" textLength="189" x="9" y="278.6387">aac_types:primary_description</text><!--class _alt_description_--><rect fill="#FEFECE" filter="url(#fnjxq9x)" height="23.9688" style="stroke: #A80036; stroke-width: 1.5;" width="118" x="236.5" y="262.5"/><text fill="#000000" font-family="sans-serif" font-size="12" lengthAdjust="spacingAndGlyphs" textLength="112" x="239.5" y="278.6387">&lt;alt_description&gt;</text><!--class _authorship_event_--><rect fill="#FEFECE" filter="url(#fnjxq9x)" height="44.7734" style="stroke: #A80036; stroke-width: 1.5;" width="135" x="390" y="252"/><text fill="#000000" font-family="sans-serif" font-size="12" lengthAdjust="spacingAndGlyphs" textLength="129" x="393" y="268.1387">&lt;authorship_event&gt;</text><line style="stroke: #A80036; stroke-width: 1.5;" x1="391" x2="524" y1="275.9688" y2="275.9688"/><text fill="#000000" font-family="sans-serif" font-size="11" lengthAdjust="spacingAndGlyphs" textLength="112" x="396" y="290.1792">a crm:E65_Creation</text><!--class _entity_uri_--><rect fill="#FEFECE" filter="url(#fnjxq9x)" height="44.7734" style="stroke: #A80036; stroke-width: 1.5;" width="175" x="208" y="8"/><text fill="#000000" font-family="sans-serif" font-size="12" lengthAdjust="spacingAndGlyphs" textLength="77" x="257" y="24.1387">&lt;entity_uri&gt;</text><line style="stroke: #A80036; stroke-width: 1.5;" x1="209" x2="382" y1="31.9688" y2="31.9688"/><text fill="#000000" font-family="sans-serif" font-size="11" lengthAdjust="spacingAndGlyphs" textLength="163" x="214" y="46.1792">a crm:E22_Man-Made_Object</text><path d="M427.095,419.243 C416.568,427.7339 405.231,438.0582 396.5,449 C386.229,461.871 377.956,478.808 372.72,491.0535 " fill="none" style="stroke: #A80036; stroke-width: 1.0;"/><polygon fill="#A80036" points="370.664,495.9889,377.8165,489.2183,372.5862,491.3731,370.4313,486.1428,370.664,495.9889" style="stroke: #A80036; stroke-width: 1.0;"/><text fill="#000000" font-family="sans-serif" font-size="13" lengthAdjust="spacingAndGlyphs" textLength="107" x="397.5" y="462.0669">skos:exactMatch</text><path d="M481.295,419.134 C490.525,428.0088 500.915,438.622 509.5,449 C520.698,462.5369 531.704,479.3134 539.153,491.3354 " fill="none" style="stroke: #A80036; stroke-width: 1.0;"/><polygon fill="#A80036" points="541.924,495.8529,540.629,486.0896,539.3102,491.5905,533.8092,490.2717,541.924,495.8529" style="stroke: #A80036; stroke-width: 1.0;"/><text fill="#000000" font-family="sans-serif" font-size="13" lengthAdjust="spacingAndGlyphs" textLength="58" x="523.5" y="462.0669">rdfs:label</text><path d="M233.838,175.047 C214.419,183.102 193.386,193.206 175.5,205 C152.459,220.193 130.101,243.144 116.569,258.226 " fill="none" style="stroke: #A80036; stroke-width: 1.0;"/><polygon fill="#A80036" points="112.992,262.258,121.9573,258.1809,116.3105,258.518,115.9734,252.8712,112.992,262.258" style="stroke: #A80036; stroke-width: 1.0;"/><text fill="#000000" font-family="sans-serif" font-size="13" lengthAdjust="spacingAndGlyphs" textLength="110" x="176.5" y="218.0669">crm:P2_has_type</text><path d="M295.5,175.231 C295.5,198.891 295.5,236.178 295.5,257.368 " fill="none" style="stroke: #A80036; stroke-width: 1.0;"/><polygon fill="#A80036" points="295.5,262.391,299.5,253.391,295.5,257.391,291.5,253.391,295.5,262.391" style="stroke: #A80036; stroke-width: 1.0;"/><text fill="#000000" font-family="sans-serif" font-size="13" lengthAdjust="spacingAndGlyphs" textLength="111" x="296.5" y="218.0669">crm:p3_has_note</text><path d="M363.447,175.11 C380.961,182.746 398.953,192.606 413.5,205 C427.032,216.53 437.889,233.266 445.432,247.31 " fill="none" style="stroke: #A80036; stroke-width: 1.0;"/><polygon fill="#A80036" points="447.863,251.957,447.2386,242.128,445.5467,247.5259,440.1488,245.834,447.863,251.957" style="stroke: #A80036; stroke-width: 1.0;"/><text fill="#000000" font-family="sans-serif" font-size="13" lengthAdjust="spacingAndGlyphs" textLength="165" x="430.5" y="218.0669">crm:P94i_was_created_by</text><path d="M295.5,53.231 C295.5,73.365 295.5,103.366 295.5,124.919 " fill="none" style="stroke: #A80036; stroke-width: 1.0;"/><polygon fill="#A80036" points="295.5,129.931,299.5,120.931,295.5,124.931,291.5,120.931,295.5,129.931" style="stroke: #A80036; stroke-width: 1.0;"/><text fill="#000000" font-family="sans-serif" font-size="13" lengthAdjust="spacingAndGlyphs" textLength="153" x="296.5" y="96.0669">crm:P129i_is_subject_of</text><path d="M457.5,297.231 C457.5,317.365 457.5,347.366 457.5,368.919 " fill="none" style="stroke: #A80036; stroke-width: 1.0;"/><polygon fill="#A80036" points="457.5,373.931,461.5,364.931,457.5,368.931,453.5,364.931,457.5,373.931" style="stroke: #A80036; stroke-width: 1.0;"/><text fill="#000000" font-family="sans-serif" font-size="13" lengthAdjust="spacingAndGlyphs" textLength="154" x="458.5" y="340.0669">crm:P14_carried_out_by</text></g></svg>