<?xml version="1.0" encoding="UTF-8" standalone="no"?><svg xmlns="http://www.w3.org/2000/svg" xmlns:xlink="http://www.w3.org/1999/xlink" contentScriptType="application/ecmascript" contentStyleType="text/css" height="460px" preserveAspectRatio="none" style="width:1946px;height:460px;" version="1.1" viewBox="0 0 1946 460" width="1946px" zoomAndPan="magnify"><defs><filter height="300%" id="fua39xg" width="300%" x="-1" y="-1"><feGaussianBlur result="blurOut" stdDeviation="2.0"/><feColorMatrix in="blurOut" result="blurOut2" type="matrix" values="0 0 0 0 0 0 0 0 0 0 0 0 0 0 0 0 0 0 .4 0"/><feOffset dx="4.0" dy="4.0" in="blurOut2" result="blurOut3"/><feBlend in="SourceGraphic" in2="blurOut3" mode="normal"/></filter></defs><g><!--class _http___museumprovenance_orgprovenance_record_--><rect fill="#FEFECE" filter="url(#fua39xg)" height="57.5781" style="stroke: #A80036; stroke-width: 1.5;" width="337" x="6" y="143"/><text fill="#000000" font-family="sans-serif" font-size="12" lengthAdjust="spacingAndGlyphs" textLength="331" x="9" y="159.1387">&lt;http://museumprovenance.orgprovenance_record&gt;</text><line style="stroke: #A80036; stroke-width: 1.5;" x1="7" x2="342" y1="166.9688" y2="166.9688"/><text fill="#000000" font-family="sans-serif" font-size="11" lengthAdjust="spacingAndGlyphs" textLength="139" x="12" y="181.1792">a &lt;http://crmE55_Type&gt;</text><text fill="#000000" font-family="sans-serif" font-size="11" lengthAdjust="spacingAndGlyphs" textLength="281" x="12" y="193.9839">&lt;http://crmrlabel&gt; "A written provenance record"</text><!--class _http___ycba_org5002_--><rect fill="#FEFECE" filter="url(#fua39xg)" height="57.5781" style="stroke: #A80036; stroke-width: 1.5;" width="245" x="378" y="143"/><text fill="#000000" font-family="sans-serif" font-size="12" lengthAdjust="spacingAndGlyphs" textLength="144" x="428.5" y="159.1387">&lt;http://ycba.org5002&gt;</text><line style="stroke: #A80036; stroke-width: 1.5;" x1="379" x2="622" y1="166.9688" y2="166.9688"/><text fill="#000000" font-family="sans-serif" font-size="11" lengthAdjust="spacingAndGlyphs" textLength="211" x="384" y="181.1792">a &lt;http://crmE22_Man-Made_Object&gt;</text><text fill="#000000" font-family="sans-serif" font-size="11" lengthAdjust="spacingAndGlyphs" textLength="233" x="384" y="193.9839">&lt;http://crmrlabel&gt; "The Earl of Newport"</text><!--class _http___ycba_org_parties500303557_--><rect fill="#FEFECE" filter="url(#fua39xg)" height="57.5781" style="stroke: #A80036; stroke-width: 1.5;" width="279" x="272" y="293"/><text fill="#000000" font-family="sans-serif" font-size="12" lengthAdjust="spacingAndGlyphs" textLength="232" x="295.5" y="309.1387">&lt;http://ycba.org/parties500303557&gt;</text><line style="stroke: #A80036; stroke-width: 1.5;" x1="273" x2="550" y1="316.9688" y2="316.9688"/><text fill="#000000" font-family="sans-serif" font-size="11" lengthAdjust="spacingAndGlyphs" textLength="176" x="278" y="331.1792">a &lt;http://crmE40_Legal_Body&gt;</text><text fill="#000000" font-family="sans-serif" font-size="11" lengthAdjust="spacingAndGlyphs" textLength="267" x="278" y="343.9839">&lt;http://crmrlabel&gt; "Yale Center for British Art"</text><!--class _http___ycba_org5002_provenance_period_--><rect fill="#FEFECE" filter="url(#fua39xg)" height="44.7734" style="stroke: #A80036; stroke-width: 1.5;" width="276" x="826.5" y="149.5"/><text fill="#000000" font-family="sans-serif" font-size="12" lengthAdjust="spacingAndGlyphs" textLength="270" x="829.5" y="165.6387">&lt;http://ycba.org5002_provenance_period&gt;</text><line style="stroke: #A80036; stroke-width: 1.5;" x1="827.5" x2="1101.5" y1="173.4688" y2="173.4688"/><text fill="#000000" font-family="sans-serif" font-size="11" lengthAdjust="spacingAndGlyphs" textLength="141" x="832.5" y="187.6792">a &lt;http://crmE4_Period&gt;</text><!--class _http___ycba_org5002_initial_ownership_--><rect fill="#FEFECE" filter="url(#fua39xg)" height="23.9688" style="stroke: #A80036; stroke-width: 1.5;" width="259" x="586" y="310"/><text fill="#000000" font-family="sans-serif" font-size="12" lengthAdjust="spacingAndGlyphs" textLength="253" x="589" y="326.1387">&lt;http://ycba.org5002_initial_ownership&gt;</text><!--class _http___museumprovenance_orgartwork_history_--><rect fill="#FEFECE" filter="url(#fua39xg)" height="57.5781" style="stroke: #A80036; stroke-width: 1.5;" width="328" x="880.5" y="293"/><text fill="#000000" font-family="sans-serif" font-size="12" lengthAdjust="spacingAndGlyphs" textLength="305" x="892" y="309.1387">&lt;http://museumprovenance.orgartwork_history&gt;</text><line style="stroke: #A80036; stroke-width: 1.5;" x1="881.5" x2="1207.5" y1="316.9688" y2="316.9688"/><text fill="#000000" font-family="sans-serif" font-size="11" lengthAdjust="spacingAndGlyphs" textLength="139" x="886.5" y="331.1792">a &lt;http://crmE55_Type&gt;</text><text fill="#000000" font-family="sans-serif" font-size="11" lengthAdjust="spacingAndGlyphs" textLength="316" x="886.5" y="343.9839">&lt;http://crmrlabel&gt; "The period of existence for a work"</text><!--class _5002_prov_1_--><rect fill="#FEFECE" filter="url(#fua39xg)" height="23.9688" style="stroke: #A80036; stroke-width: 1.5;" width="103" x="1244" y="310"/><text fill="#000000" font-family="sans-serif" font-size="12" lengthAdjust="spacingAndGlyphs" textLength="97" x="1247" y="326.1387">&lt;5002_prov-1&gt;</text><!--class _http___ycba_org5002_provenance_--><rect fill="#FEFECE" filter="url(#fua39xg)" height="57.5781" style="stroke: #A80036; stroke-width: 1.5;" width="230" x="385.5" y="8"/><text fill="#000000" font-family="sans-serif" font-size="12" lengthAdjust="spacingAndGlyphs" textLength="224" x="388.5" y="24.1387">&lt;http://ycba.org5002_provenance&gt;</text><line style="stroke: #A80036; stroke-width: 1.5;" x1="386.5" x2="614.5" y1="31.9688" y2="31.9688"/><text fill="#000000" font-family="sans-serif" font-size="11" lengthAdjust="spacingAndGlyphs" textLength="169" x="391.5" y="46.1792">a &lt;http://crmE31_Document&gt;</text><text fill="#000000" font-family="sans-serif" font-size="11" lengthAdjust="spacingAndGlyphs" textLength="172" x="391.5" y="58.9839">&lt;http://crmP3_has_note&gt; "..."</text><!--class _http___ycba_org_partieslady_caroline_damer_and_husband_--><rect fill="#FEFECE" filter="url(#fua39xg)" height="44.7734" style="stroke: #A80036; stroke-width: 1.5;" width="384" x="1258.5" y="14.5"/><text fill="#000000" font-family="sans-serif" font-size="12" lengthAdjust="spacingAndGlyphs" textLength="378" x="1261.5" y="30.6387">&lt;http://ycba.org/partieslady_caroline_damer_and_husband&gt;</text><line style="stroke: #A80036; stroke-width: 1.5;" x1="1259.5" x2="1641.5" y1="38.4688" y2="38.4688"/><text fill="#000000" font-family="sans-serif" font-size="11" lengthAdjust="spacingAndGlyphs" textLength="176" x="1264.5" y="52.6792">a &lt;http://crmE40_Legal_Body&gt;</text><!--class _http___ycba_orghenry_dawson_damer_--><rect fill="#FEFECE" filter="url(#fua39xg)" height="23.9688" style="stroke: #A80036; stroke-width: 1.5;" width="251" x="1138" y="160"/><text fill="#000000" font-family="sans-serif" font-size="12" lengthAdjust="spacingAndGlyphs" textLength="245" x="1141" y="176.1387">&lt;http://ycba.orghenry_dawson-damer&gt;</text><!--class _http___ycba_orglady_caroline_damer_--><rect fill="#FEFECE" filter="url(#fua39xg)" height="23.9688" style="stroke: #A80036; stroke-width: 1.5;" width="245" x="1515" y="160"/><text fill="#000000" font-family="sans-serif" font-size="12" lengthAdjust="spacingAndGlyphs" textLength="239" x="1518" y="176.1387">&lt;http://ycba.orglady_caroline_damer&gt;</text><!--class _http___geonames_org4839366_--><rect fill="#FEFECE" filter="url(#fua39xg)" height="23.9688" style="stroke: #A80036; stroke-width: 1.5;" width="211" x="306" y="428"/><text fill="#000000" font-family="sans-serif" font-size="12" lengthAdjust="spacingAndGlyphs" textLength="205" x="309" y="444.1387">&lt;http://geonames.org4839366&gt;</text><path d="M454.592,201.16 C444.23,209.552 434.298,219.6 427.5,231 C417.409,247.923 413.343,269.601 411.831,287.44 " fill="none" style="stroke: #A80036; stroke-width: 1.0;"/><polygon fill="#A80036" points="411.44,292.844,416.0801,284.1567,411.8014,287.8571,408.101,283.5784,411.44,292.844" style="stroke: #A80036; stroke-width: 1.0;"/><text fill="#000000" font-family="sans-serif" font-size="13" lengthAdjust="spacingAndGlyphs" textLength="243" x="428.5" y="244.0669">&lt;http://crmP50_has_current_keeper&gt;</text><text fill="#000000" font-family="sans-serif" font-size="13" lengthAdjust="spacingAndGlyphs" textLength="237" x="431.5" y="259.1997">&lt;http://crmP52_has_current_owner&gt;</text><path d="M887.352,194.613 C861.22,203.737 832.576,215.822 808.5,231 C775.456,251.831 744.403,285.876 727.876,305.58 " fill="none" style="stroke: #A80036; stroke-width: 1.0;"/><polygon fill="#A80036" points="724.38,309.793,733.204,305.4184,727.5716,305.9442,727.0459,300.3118,724.38,309.793" style="stroke: #A80036; stroke-width: 1.0;"/><text fill="#000000" font-family="sans-serif" font-size="13" lengthAdjust="spacingAndGlyphs" textLength="179" x="809.5" y="251.5669">&lt;http://crmP9_consists_of&gt;</text><path d="M976.133,194.52 C989.46,219.177 1011.44,259.848 1026.88,288.398 " fill="none" style="stroke: #A80036; stroke-width: 1.0;"/><polygon fill="#A80036" points="1029.3,292.871,1028.5413,283.0514,1026.9234,288.472,1021.5028,286.854,1029.3,292.871" style="stroke: #A80036; stroke-width: 1.0;"/><text fill="#000000" font-family="sans-serif" font-size="13" lengthAdjust="spacingAndGlyphs" textLength="166" x="1013.5" y="251.5669">&lt;http://crmP2_has_type&gt;</text><path d="M1087.87,194.505 C1121.62,203.143 1157.44,214.975 1188.5,231 C1226.52,250.617 1262.91,285.882 1281.89,305.951 " fill="none" style="stroke: #A80036; stroke-width: 1.0;"/><polygon fill="#A80036" points="1285.45,309.752,1282.2282,300.445,1282.0364,306.0986,1276.3828,305.9068,1285.45,309.752" style="stroke: #A80036; stroke-width: 1.0;"/><text fill="#000000" font-family="sans-serif" font-size="13" lengthAdjust="spacingAndGlyphs" textLength="179" x="1234.5" y="251.5669">&lt;http://crmP9_consists_of&gt;</text><path d="M406.866,66.062 C379.981,74.869 350.823,85.149 324.5,96 C292.82,109.059 258.565,125.962 230.799,140.415 " fill="none" style="stroke: #A80036; stroke-width: 1.0;"/><polygon fill="#A80036" points="226.047,142.898,235.8764,142.2786,230.4793,140.584,232.174,135.1869,226.047,142.898" style="stroke: #A80036; stroke-width: 1.0;"/><text fill="#000000" font-family="sans-serif" font-size="13" lengthAdjust="spacingAndGlyphs" textLength="166" x="325.5" y="109.0669">&lt;http://crmP2_has_type&gt;</text><path d="M500.5,66.206 C500.5,87.101 500.5,115.649 500.5,137.671 " fill="none" style="stroke: #A80036; stroke-width: 1.0;"/><polygon fill="#A80036" points="500.5,142.835,504.5,133.835,500.5,137.835,496.5,133.835,500.5,142.835" style="stroke: #A80036; stroke-width: 1.0;"/><text fill="#000000" font-family="sans-serif" font-size="13" lengthAdjust="spacingAndGlyphs" textLength="178" x="501.5" y="109.0669">&lt;http://crmP129_is_about&gt;</text><path d="M598.335,66.043 C683.281,90.392 804.789,125.221 884.154,147.97 " fill="none" style="stroke: #A80036; stroke-width: 1.0;"/><polygon fill="#A80036" points="889.32,149.451,881.7701,143.1265,884.5135,148.0736,879.5663,150.8169,889.32,149.451" style="stroke: #A80036; stroke-width: 1.0;"/><text fill="#000000" font-family="sans-serif" font-size="13" lengthAdjust="spacingAndGlyphs" textLength="188" x="761.5" y="109.0669">&lt;http://crmP70_documents&gt;</text><path d="M1306.7,59.565 C1288.66,68.153 1272.4,79.923 1260.5,96 C1247.92,112.99 1252.49,138.563 1257.52,155.02 " fill="none" style="stroke: #A80036; stroke-width: 1.0;"/><polygon fill="#A80036" points="1259.08,159.814,1260.103,150.0184,1257.5349,155.0587,1252.4946,152.4906,1259.08,159.814" style="stroke: #A80036; stroke-width: 1.0;"/><text fill="#000000" font-family="sans-serif" font-size="13" lengthAdjust="spacingAndGlyphs" textLength="332" x="1261.5" y="109.0669">&lt;http://crmP107_has_current_or_former_member&gt;</text><path d="M1535.88,59.617 C1558.1,68.242 1580.75,80.038 1598.5,96 C1616.3,112.008 1627.25,138.067 1632.85,154.869 " fill="none" style="stroke: #A80036; stroke-width: 1.0;"/><polygon fill="#A80036" points="1634.42,159.765,1635.4803,149.9734,1632.893,155.0039,1627.8625,152.4166,1634.42,159.765" style="stroke: #A80036; stroke-width: 1.0;"/><text fill="#000000" font-family="sans-serif" font-size="13" lengthAdjust="spacingAndGlyphs" textLength="332" x="1613.5" y="109.0669">&lt;http://crmP107_has_current_or_former_member&gt;</text><path d="M411.5,351.08 C411.5,373.4421 411.5,403.9749 411.5,422.5464 " fill="none" style="stroke: #A80036; stroke-width: 1.0;"/><polygon fill="#A80036" points="411.5,427.9037,415.5,418.9037,411.5,422.9037,407.5,418.9037,411.5,427.9037" style="stroke: #A80036; stroke-width: 1.0;"/><text fill="#000000" font-family="sans-serif" font-size="13" lengthAdjust="spacingAndGlyphs" textLength="319" x="412.5" y="394.0669">&lt;http://crmP53_has_former_or_current_location&gt;</text></g></svg>