<?xml version="1.0" encoding="UTF-8" standalone="no"?><svg xmlns="http://www.w3.org/2000/svg" xmlns:xlink="http://www.w3.org/1999/xlink" contentScriptType="application/ecmascript" contentStyleType="text/css" height="305px" preserveAspectRatio="none" style="width:309px;height:305px;" version="1.1" viewBox="0 0 309 305" width="309px" zoomAndPan="magnify"><defs><filter height="300%" id="fswsfn7" width="300%" x="-1" y="-1"><feGaussianBlur result="blurOut" stdDeviation="2.0"/><feColorMatrix in="blurOut" result="blurOut2" type="matrix" values="0 0 0 0 0 0 0 0 0 0 0 0 0 0 0 0 0 0 .4 0"/><feOffset dx="4.0" dy="4.0" in="blurOut2" result="blurOut3"/><feBlend in="SourceGraphic" in2="blurOut3" mode="normal"/></filter></defs><g><!--class _edition_class_--><rect fill="#FEFECE" filter="url(#fswsfn7)" height="44.7734" style="stroke: #A80036; stroke-width: 1.5;" width="171" x="49" y="130"/><text fill="#000000" font-family="sans-serif" font-size="12" lengthAdjust="spacingAndGlyphs" textLength="101" x="84" y="146.1387">&lt;edition_class&gt;</text><line style="stroke: #A80036; stroke-width: 1.5;" x1="50" x2="219" y1="153.9688" y2="153.9688"/><text fill="#000000" font-family="sans-serif" font-size="11" lengthAdjust="spacingAndGlyphs" textLength="159" x="55" y="168.1792">a crm:E33_Linguistic_Object</text><!--class aat_300121294--><rect fill="#FEFECE" filter="url(#fswsfn7)" height="44.7734" style="stroke: #A80036; stroke-width: 1.5;" width="103" x="6" y="252"/><text fill="#000000" font-family="sans-serif" font-size="12" lengthAdjust="spacingAndGlyphs" textLength="97" x="9" y="268.1387">aat:300121294</text><line style="stroke: #A80036; stroke-width: 1.5;" x1="7" x2="108" y1="275.9688" y2="275.9688"/><text fill="#000000" font-family="sans-serif" font-size="11" lengthAdjust="spacingAndGlyphs" textLength="55" x="12" y="290.1792">"editions"</text><!--class _edition_reference_--><rect fill="#FEFECE" filter="url(#fswsfn7)" height="23.9688" style="stroke: #A80036; stroke-width: 1.5;" width="136" x="144.5" y="262.5"/><text fill="#000000" font-family="sans-serif" font-size="12" lengthAdjust="spacingAndGlyphs" textLength="130" x="147.5" y="278.6387">&lt;edition_reference&gt;</text><!--class _entity_uri_--><rect fill="#FEFECE" filter="url(#fswsfn7)" height="44.7734" style="stroke: #A80036; stroke-width: 1.5;" width="175" x="47" y="8"/><text fill="#000000" font-family="sans-serif" font-size="12" lengthAdjust="spacingAndGlyphs" textLength="77" x="96" y="24.1387">&lt;entity_uri&gt;</text><line style="stroke: #A80036; stroke-width: 1.5;" x1="48" x2="221" y1="31.9688" y2="31.9688"/><text fill="#000000" font-family="sans-serif" font-size="11" lengthAdjust="spacingAndGlyphs" textLength="163" x="53" y="46.1792">a crm:E22_Man-Made_Object</text><path d="M86.7542,175.064 C75.0977,182.758 64.0929,192.659 57.5,205 C50.7721,217.5938 50.3549,233.4417 51.8089,246.7214 " fill="none" style="stroke: #A80036; stroke-width: 1.0;"/><polygon fill="#A80036" points="52.4764,251.8603,55.2836,242.42,51.8323,246.902,47.3503,243.4506,52.4764,251.8603" style="stroke: #A80036; stroke-width: 1.0;"/><text fill="#000000" font-family="sans-serif" font-size="13" lengthAdjust="spacingAndGlyphs" textLength="110" x="58.5" y="218.0669">crm:P2_has_type</text><path d="M151.848,175.096 C158.85,184.141 166.833,194.887 173.5,205 C185.004,222.4504 196.663,243.4611 204.198,257.5724 " fill="none" style="stroke: #A80036; stroke-width: 1.0;"/><polygon fill="#A80036" points="206.588,262.0783,205.9036,252.2533,204.2447,257.6614,198.8365,256.0025,206.588,262.0783" style="stroke: #A80036; stroke-width: 1.0;"/><text fill="#000000" font-family="sans-serif" font-size="13" lengthAdjust="spacingAndGlyphs" textLength="58" x="185.5" y="218.0669">rdfs:label</text><path d="M134.5,53.231 C134.5,73.365 134.5,103.366 134.5,124.919 " fill="none" style="stroke: #A80036; stroke-width: 1.0;"/><polygon fill="#A80036" points="134.5,129.931,138.5,120.931,134.5,124.931,130.5,120.931,134.5,129.931" style="stroke: #A80036; stroke-width: 1.0;"/><text fill="#000000" font-family="sans-serif" font-size="13" lengthAdjust="spacingAndGlyphs" textLength="173" x="135.5" y="96.0669">crm:P67i_is_referred_to_by</text></g></svg>