<?xml version="1.0" encoding="UTF-8" standalone="no"?><svg xmlns="http://www.w3.org/2000/svg" xmlns:xlink="http://www.w3.org/1999/xlink" contentScriptType="application/ecmascript" contentStyleType="text/css" height="427px" preserveAspectRatio="none" style="width:377px;height:427px;" version="1.1" viewBox="0 0 377 427" width="377px" zoomAndPan="magnify"><defs><filter height="300%" id="fe7tb9s" width="300%" x="-1" y="-1"><feGaussianBlur result="blurOut" stdDeviation="2.0"/><feColorMatrix in="blurOut" result="blurOut2" type="matrix" values="0 0 0 0 0 0 0 0 0 0 0 0 0 0 0 0 0 0 .4 0"/><feOffset dx="4.0" dy="4.0" in="blurOut2" result="blurOut3"/><feBlend in="SourceGraphic" in2="blurOut3" mode="normal"/></filter></defs><g><!--class aat_300404670--><rect fill="#FEFECE" filter="url(#fe7tb9s)" height="44.7734" style="stroke: #A80036; stroke-width: 1.5;" width="114" x="103" y="374"/><text fill="#000000" font-family="sans-serif" font-size="12" lengthAdjust="spacingAndGlyphs" textLength="97" x="111.5" y="390.1387">aat:300404670</text><line style="stroke: #A80036; stroke-width: 1.5;" x1="104" x2="216" y1="397.9688" y2="397.9688"/><text fill="#000000" font-family="sans-serif" font-size="11" lengthAdjust="spacingAndGlyphs" textLength="102" x="109" y="412.1792">"preferred terms"</text><!--class _entity_uri_--><rect fill="#FEFECE" filter="url(#fe7tb9s)" height="44.7734" style="stroke: #A80036; stroke-width: 1.5;" width="105" x="60.5" y="8"/><text fill="#000000" font-family="sans-serif" font-size="12" lengthAdjust="spacingAndGlyphs" textLength="77" x="74.5" y="24.1387">&lt;entity_uri&gt;</text><line style="stroke: #A80036; stroke-width: 1.5;" x1="61.5" x2="164.5" y1="31.9688" y2="31.9688"/><text fill="#000000" font-family="sans-serif" font-size="11" lengthAdjust="spacingAndGlyphs" textLength="93" x="66.5" y="46.1792">a crm:E39_Actor</text><!--class _actor_name_--><rect fill="#FEFECE" filter="url(#fe7tb9s)" height="23.9688" style="stroke: #A80036; stroke-width: 1.5;" width="100" x="6" y="262.5"/><text fill="#000000" font-family="sans-serif" font-size="12" lengthAdjust="spacingAndGlyphs" textLength="94" x="9" y="278.6387">&lt;actor_name&gt;</text><!--class _actor_class_--><rect fill="#FEFECE" filter="url(#fe7tb9s)" height="44.7734" style="stroke: #A80036; stroke-width: 1.5;" width="173" x="148.5" y="130"/><text fill="#000000" font-family="sans-serif" font-size="12" lengthAdjust="spacingAndGlyphs" textLength="91" x="189.5" y="146.1387">&lt;actor_class&gt;</text><line style="stroke: #A80036; stroke-width: 1.5;" x1="149.5" x2="320.5" y1="153.9688" y2="153.9688"/><text fill="#000000" font-family="sans-serif" font-size="11" lengthAdjust="spacingAndGlyphs" textLength="161" x="154.5" y="168.1792">a crm:E82_Actor_Appellation</text><!--class _preferred_name_type_url_--><rect fill="#FEFECE" filter="url(#fe7tb9s)" height="44.7734" style="stroke: #A80036; stroke-width: 1.5;" width="181" x="144.5" y="252"/><text fill="#000000" font-family="sans-serif" font-size="12" lengthAdjust="spacingAndGlyphs" textLength="175" x="147.5" y="268.1387">&lt;preferred_name_type_url&gt;</text><line style="stroke: #A80036; stroke-width: 1.5;" x1="145.5" x2="324.5" y1="275.9688" y2="275.9688"/><text fill="#000000" font-family="sans-serif" font-size="11" lengthAdjust="spacingAndGlyphs" textLength="91" x="150.5" y="290.1792">a crm:E55_Type</text><!--class _type_label_--><rect fill="#FEFECE" filter="url(#fe7tb9s)" height="23.9688" style="stroke: #A80036; stroke-width: 1.5;" width="89" x="266.5" y="384.5"/><text fill="#000000" font-family="sans-serif" font-size="12" lengthAdjust="spacingAndGlyphs" textLength="83" x="269.5" y="400.6387">&lt;type_label&gt;</text><path d="M101.5397,53.133 C91.7445,72.661 78.1362,102.466 71,130 C59.3342,175.01 56.6996,230.194 56.1327,257.133 " fill="none" style="stroke: #A80036; stroke-width: 1.0;"/><polygon fill="#A80036" points="56.0448,262.133,60.2036,253.2053,56.1334,257.1338,52.2049,253.0636,56.0448,262.133" style="stroke: #A80036; stroke-width: 1.0;"/><text fill="#000000" font-family="sans-serif" font-size="13" lengthAdjust="spacingAndGlyphs" textLength="58" x="72" y="157.0669">rdfs:label</text><path d="M135.093,53.231 C155.995,73.79 187.355,104.636 209.351,126.272 " fill="none" style="stroke: #A80036; stroke-width: 1.0;"/><polygon fill="#A80036" points="213.071,129.931,209.4613,120.7675,209.507,126.4242,203.8503,126.4699,213.071,129.931" style="stroke: #A80036; stroke-width: 1.0;"/><text fill="#000000" font-family="sans-serif" font-size="13" lengthAdjust="spacingAndGlyphs" textLength="165" x="183" y="96.0669">crm:P131_is_identified_by</text><path d="M186.241,297.211 C174.585,304.866 163.612,314.711 157,327 C150.228,339.5858 150.468,355.4332 152.632,368.7146 " fill="none" style="stroke: #A80036; stroke-width: 1.0;"/><polygon fill="#A80036" points="153.584,373.8543,155.8781,364.2764,152.6734,368.9379,148.0119,365.7332,153.584,373.8543" style="stroke: #A80036; stroke-width: 1.0;"/><text fill="#000000" font-family="sans-serif" font-size="13" lengthAdjust="spacingAndGlyphs" textLength="109" x="158" y="340.0669">skos:broadMatch</text><path d="M251.364,297.201 C257.993,306.262 265.581,316.992 272,327 C283.284,344.5936 294.986,365.5767 302.59,379.6423 " fill="none" style="stroke: #A80036; stroke-width: 1.0;"/><polygon fill="#A80036" points="305.005,384.1323,304.2635,374.3114,302.6361,379.7291,297.2184,378.1016,305.005,384.1323" style="stroke: #A80036; stroke-width: 1.0;"/><text fill="#000000" font-family="sans-serif" font-size="13" lengthAdjust="spacingAndGlyphs" textLength="92" x="284" y="340.0669">skos:prefLabel</text><path d="M202.584,175.231 C166.095,199.693 107.878,238.721 76.9334,259.466 " fill="none" style="stroke: #A80036; stroke-width: 1.0;"/><polygon fill="#A80036" points="72.5715,262.391,82.2744,260.7015,76.7245,259.6066,77.8194,254.0567,72.5715,262.391" style="stroke: #A80036; stroke-width: 1.0;"/><text fill="#000000" font-family="sans-serif" font-size="13" lengthAdjust="spacingAndGlyphs" textLength="58" x="158" y="218.0669">rdfs:label</text><path d="M235,175.231 C235,195.365 235,225.366 235,246.919 " fill="none" style="stroke: #A80036; stroke-width: 1.0;"/><polygon fill="#A80036" points="235,251.931,239,242.931,235,246.931,231,242.931,235,251.931" style="stroke: #A80036; stroke-width: 1.0;"/><text fill="#000000" font-family="sans-serif" font-size="13" lengthAdjust="spacingAndGlyphs" textLength="110" x="236" y="218.0669">crm:P2_has_type</text></g></svg>