<?xml version="1.0" encoding="UTF-8" standalone="no"?><svg xmlns="http://www.w3.org/2000/svg" xmlns:xlink="http://www.w3.org/1999/xlink" contentScriptType="application/ecmascript" contentStyleType="text/css" height="427px" preserveAspectRatio="none" style="width:397px;height:427px;" version="1.1" viewBox="0 0 397 427" width="397px" zoomAndPan="magnify"><defs><filter height="300%" id="fldjv66" width="300%" x="-1" y="-1"><feGaussianBlur result="blurOut" stdDeviation="2.0"/><feColorMatrix in="blurOut" result="blurOut2" type="matrix" values="0 0 0 0 0 0 0 0 0 0 0 0 0 0 0 0 0 0 .4 0"/><feOffset dx="4.0" dy="4.0" in="blurOut2" result="blurOut3"/><feBlend in="SourceGraphic" in2="blurOut3" mode="normal"/></filter></defs><g><!--class _name_prefix_class_--><rect fill="#FEFECE" filter="url(#fldjv66)" height="44.7734" style="stroke: #A80036; stroke-width: 1.5;" width="173" x="20" y="130"/><text fill="#000000" font-family="sans-serif" font-size="12" lengthAdjust="spacingAndGlyphs" textLength="133" x="40" y="146.1387">&lt;name_prefix_class&gt;</text><line style="stroke: #A80036; stroke-width: 1.5;" x1="21" x2="192" y1="153.9688" y2="153.9688"/><text fill="#000000" font-family="sans-serif" font-size="11" lengthAdjust="spacingAndGlyphs" textLength="161" x="26" y="168.1792">a crm:E82_Actor_Appellation</text><!--class _name_prefix_--><rect fill="#FEFECE" filter="url(#fldjv66)" height="23.9688" style="stroke: #A80036; stroke-width: 1.5;" width="101" x="6" y="262.5"/><text fill="#000000" font-family="sans-serif" font-size="12" lengthAdjust="spacingAndGlyphs" textLength="95" x="9" y="278.6387">&lt;name_prefix&gt;</text><!--class _name_prefix_type_class_--><rect fill="#FEFECE" filter="url(#fldjv66)" height="44.7734" style="stroke: #A80036; stroke-width: 1.5;" width="172" x="142.5" y="252"/><text fill="#000000" font-family="sans-serif" font-size="12" lengthAdjust="spacingAndGlyphs" textLength="166" x="145.5" y="268.1387">&lt;name_prefix_type_class&gt;</text><line style="stroke: #A80036; stroke-width: 1.5;" x1="143.5" x2="313.5" y1="275.9688" y2="275.9688"/><text fill="#000000" font-family="sans-serif" font-size="11" lengthAdjust="spacingAndGlyphs" textLength="91" x="148.5" y="290.1792">a crm:E55_Type</text><!--class aat_300404845--><rect fill="#FEFECE" filter="url(#fldjv66)" height="44.7734" style="stroke: #A80036; stroke-width: 1.5;" width="168" x="51.5" y="374"/><text fill="#000000" font-family="sans-serif" font-size="12" lengthAdjust="spacingAndGlyphs" textLength="97" x="87" y="390.1387">aat:300404845</text><line style="stroke: #A80036; stroke-width: 1.5;" x1="52.5" x2="218.5" y1="397.9688" y2="397.9688"/><text fill="#000000" font-family="sans-serif" font-size="11" lengthAdjust="spacingAndGlyphs" textLength="156" x="57.5" y="412.1792">"prefixes [name additions]"</text><!--class _entity_uri_--><rect fill="#FEFECE" filter="url(#fldjv66)" height="44.7734" style="stroke: #A80036; stroke-width: 1.5;" width="105" x="54" y="8"/><text fill="#000000" font-family="sans-serif" font-size="12" lengthAdjust="spacingAndGlyphs" textLength="77" x="68" y="24.1387">&lt;entity_uri&gt;</text><line style="stroke: #A80036; stroke-width: 1.5;" x1="55" x2="158" y1="31.9688" y2="31.9688"/><text fill="#000000" font-family="sans-serif" font-size="11" lengthAdjust="spacingAndGlyphs" textLength="93" x="60" y="46.1792">a crm:E39_Actor</text><!--class _name_prefix_type_--><rect fill="#FEFECE" filter="url(#fldjv66)" height="23.9688" style="stroke: #A80036; stroke-width: 1.5;" width="134" x="254.5" y="384.5"/><text fill="#000000" font-family="sans-serif" font-size="12" lengthAdjust="spacingAndGlyphs" textLength="128" x="257.5" y="400.6387">&lt;name_prefix_type&gt;</text><path d="M97.4454,175.231 C87.5452,198.992 71.9191,236.494 63.1097,257.637 " fill="none" style="stroke: #A80036; stroke-width: 1.0;"/><polygon fill="#A80036" points="61.1289,262.391,68.2825,255.6215,63.0518,257.7756,60.8978,252.5449,61.1289,262.391" style="stroke: #A80036; stroke-width: 1.0;"/><text fill="#000000" font-family="sans-serif" font-size="13" lengthAdjust="spacingAndGlyphs" textLength="58" x="85.5" y="218.0669">rdfs:label</text><path d="M128.593,175.231 C149.495,195.79 180.855,226.636 202.851,248.272 " fill="none" style="stroke: #A80036; stroke-width: 1.0;"/><polygon fill="#A80036" points="206.571,251.931,202.9613,242.7675,203.007,248.4242,197.3503,248.4699,206.571,251.931" style="stroke: #A80036; stroke-width: 1.0;"/><text fill="#000000" font-family="sans-serif" font-size="13" lengthAdjust="spacingAndGlyphs" textLength="110" x="176.5" y="218.0669">crm:P2_has_type</text><path d="M106.5,53.231 C106.5,73.365 106.5,103.366 106.5,124.919 " fill="none" style="stroke: #A80036; stroke-width: 1.0;"/><polygon fill="#A80036" points="106.5,129.931,110.5,120.931,106.5,124.931,102.5,120.931,106.5,129.931" style="stroke: #A80036; stroke-width: 1.0;"/><text fill="#000000" font-family="sans-serif" font-size="13" lengthAdjust="spacingAndGlyphs" textLength="165" x="107.5" y="96.0669">crm:P131_is_identified_by</text><path d="M197.85,297.052 C187.299,305.523 176.009,315.884 167.5,327 C157.836,339.6247 150.153,355.6376 144.74,369.0062 " fill="none" style="stroke: #A80036; stroke-width: 1.0;"/><polygon fill="#A80036" points="142.849,373.8007,149.8722,366.896,144.6835,369.1494,142.4301,363.9608,142.849,373.8007" style="stroke: #A80036; stroke-width: 1.0;"/><text fill="#000000" font-family="sans-serif" font-size="13" lengthAdjust="spacingAndGlyphs" textLength="109" x="168.5" y="340.0669">skos:broadMatch</text><path d="M254.231,297.18 C263.736,305.894 274.204,316.384 282.5,327 C295.521,343.6629 307.033,365.169 314.113,379.5996 " fill="none" style="stroke: #A80036; stroke-width: 1.0;"/><polygon fill="#A80036" points="316.34,384.205,316.0231,374.3612,314.1633,379.7037,308.8209,377.8439,316.34,384.205" style="stroke: #A80036; stroke-width: 1.0;"/><text fill="#000000" font-family="sans-serif" font-size="13" lengthAdjust="spacingAndGlyphs" textLength="92" x="295.5" y="340.0669">skos:prefLabel</text></g></svg>