<?xml version="1.0" encoding="UTF-8" standalone="no"?><svg xmlns="http://www.w3.org/2000/svg" xmlns:xlink="http://www.w3.org/1999/xlink" contentScriptType="application/ecmascript" contentStyleType="text/css" height="299px" preserveAspectRatio="none" style="width:284px;height:299px;" version="1.1" viewBox="0 0 284 299" width="284px" zoomAndPan="magnify"><defs><filter height="300%" id="fp4pgi3" width="300%" x="-1" y="-1"><feGaussianBlur result="blurOut" stdDeviation="2.0"/><feColorMatrix in="blurOut" result="blurOut2" type="matrix" values="0 0 0 0 0 0 0 0 0 0 0 0 0 0 0 0 0 0 .4 0"/><feOffset dx="4.0" dy="4.0" in="blurOut2" result="blurOut3"/><feBlend in="SourceGraphic" in2="blurOut3" mode="normal"/></filter></defs><g><!--class _identifier_url_--><rect fill="#FEFECE" filter="url(#fp4pgi3)" height="44.7734" style="stroke: #A80036; stroke-width: 1.5;" width="126" x="70.5" y="130"/><text fill="#000000" font-family="sans-serif" font-size="12" lengthAdjust="spacingAndGlyphs" textLength="97" x="85" y="146.1387">&lt;identifier_url&gt;</text><line style="stroke: #A80036; stroke-width: 1.5;" x1="71.5" x2="195.5" y1="153.9688" y2="153.9688"/><text fill="#000000" font-family="sans-serif" font-size="11" lengthAdjust="spacingAndGlyphs" textLength="114" x="76.5" y="168.1792">a crm:E42_Identifier</text><!--class aat_300404621--><rect fill="#FEFECE" filter="url(#fp4pgi3)" height="23.9688" style="stroke: #A80036; stroke-width: 1.5;" width="103" x="6" y="267"/><text fill="#000000" font-family="sans-serif" font-size="12" lengthAdjust="spacingAndGlyphs" textLength="97" x="9" y="283.1387">aat:300404621</text><!--class _identifier_--><rect fill="#FEFECE" filter="url(#fp4pgi3)" height="23.9688" style="stroke: #A80036; stroke-width: 1.5;" width="81" x="169" y="267"/><text fill="#000000" font-family="sans-serif" font-size="12" lengthAdjust="spacingAndGlyphs" textLength="75" x="172" y="283.1387">&lt;identifier&gt;</text><!--class _entity_uri_--><rect fill="#FEFECE" filter="url(#fp4pgi3)" height="44.7734" style="stroke: #A80036; stroke-width: 1.5;" width="175" x="46" y="8"/><text fill="#000000" font-family="sans-serif" font-size="12" lengthAdjust="spacingAndGlyphs" textLength="77" x="95" y="24.1387">&lt;entity_uri&gt;</text><line style="stroke: #A80036; stroke-width: 1.5;" x1="47" x2="220" y1="31.9688" y2="31.9688"/><text fill="#000000" font-family="sans-serif" font-size="11" lengthAdjust="spacingAndGlyphs" textLength="163" x="52" y="46.1792">a crm:E22_Man-Made_Object</text><path d="M84.1301,175.091 C72.324,182.746 61.2076,192.6203 54.5,205 C44.945,222.6349 48.3384,246.3357 52.3298,261.8807 " fill="none" style="stroke: #A80036; stroke-width: 1.0;"/><polygon fill="#A80036" points="53.6884,266.8193,55.1575,257.0806,52.362,261.9985,47.4442,259.2029,53.6884,266.8193" style="stroke: #A80036; stroke-width: 1.0;"/><text fill="#000000" font-family="sans-serif" font-size="13" lengthAdjust="spacingAndGlyphs" textLength="110" x="55.5" y="225.5669">crm:P2_has_type</text><path d="M150,175.115 C156.649,184.163 164.216,194.9062 170.5,205 C182.372,224.0692 194.287,247.0708 201.766,262.0911 " fill="none" style="stroke: #A80036; stroke-width: 1.0;"/><polygon fill="#A80036" points="204.126,266.8618,203.7205,257.0213,201.9089,262.3802,196.55,260.5686,204.126,266.8618" style="stroke: #A80036; stroke-width: 1.0;"/><text fill="#000000" font-family="sans-serif" font-size="13" lengthAdjust="spacingAndGlyphs" textLength="58" x="189.5" y="218.0669">rdfs:label</text><text fill="#000000" font-family="sans-serif" font-size="13" lengthAdjust="spacingAndGlyphs" textLength="55" x="191" y="233.1997">rdf:value</text><path d="M133.5,53.231 C133.5,73.365 133.5,103.366 133.5,124.919 " fill="none" style="stroke: #A80036; stroke-width: 1.0;"/><polygon fill="#A80036" points="133.5,129.931,137.5,120.931,133.5,124.931,129.5,120.931,133.5,129.931" style="stroke: #A80036; stroke-width: 1.0;"/><text fill="#000000" font-family="sans-serif" font-size="13" lengthAdjust="spacingAndGlyphs" textLength="149" x="134.5" y="96.0669">crm:P1_is_identified_by</text></g></svg>