<?xml version="1.0" encoding="UTF-8" standalone="no"?><svg xmlns="http://www.w3.org/2000/svg" xmlns:xlink="http://www.w3.org/1999/xlink" contentScriptType="application/ecmascript" contentStyleType="text/css" height="528px" preserveAspectRatio="none" style="width:593px;height:528px;" version="1.1" viewBox="0 0 593 528" width="593px" zoomAndPan="magnify"><defs><filter height="300%" id="fr28xi8" width="300%" x="-1" y="-1"><feGaussianBlur result="blurOut" stdDeviation="2.0"/><feColorMatrix in="blurOut" result="blurOut2" type="matrix" values="0 0 0 0 0 0 0 0 0 0 0 0 0 0 0 0 0 0 .4 0"/><feOffset dx="4.0" dy="4.0" in="blurOut2" result="blurOut3"/><feBlend in="SourceGraphic" in2="blurOut3" mode="normal"/></filter></defs><g><!--class _author_class_--><rect fill="#FEFECE" filter="url(#fr28xi8)" height="44.7734" style="stroke: #A80036; stroke-width: 1.5;" width="106" x="384.5" y="374"/><text fill="#000000" font-family="sans-serif" font-size="12" lengthAdjust="spacingAndGlyphs" textLength="100" x="387.5" y="390.1387">&lt;author_class&gt;</text><line style="stroke: #A80036; stroke-width: 1.5;" x1="385.5" x2="489.5" y1="397.9688" y2="397.9688"/><text fill="#000000" font-family="sans-serif" font-size="11" lengthAdjust="spacingAndGlyphs" textLength="93" x="390.5" y="412.1792">a crm:E39_Actor</text><!--class _author_--><rect fill="#FEFECE" filter="url(#fr28xi8)" height="23.9688" style="stroke: #A80036; stroke-width: 1.5;" width="68" x="341.5" y="496"/><text fill="#000000" font-family="sans-serif" font-size="12" lengthAdjust="spacingAndGlyphs" textLength="62" x="344.5" y="512.1387">&lt;author&gt;</text><!--class _author_lod_id_--><rect fill="#FEFECE" filter="url(#fr28xi8)" height="23.9688" style="stroke: #A80036; stroke-width: 1.5;" width="110" x="444.5" y="496"/><text fill="#000000" font-family="sans-serif" font-size="12" lengthAdjust="spacingAndGlyphs" textLength="104" x="447.5" y="512.1387">&lt;author_lod_id&gt;</text><!--class _description_class_--><rect fill="#FEFECE" filter="url(#fr28xi8)" height="44.7734" style="stroke: #A80036; stroke-width: 1.5;" width="171" x="199" y="130"/><text fill="#000000" font-family="sans-serif" font-size="12" lengthAdjust="spacingAndGlyphs" textLength="128" x="220.5" y="146.1387">&lt;description_class&gt;</text><line style="stroke: #A80036; stroke-width: 1.5;" x1="200" x2="369" y1="153.9688" y2="153.9688"/><text fill="#000000" font-family="sans-serif" font-size="11" lengthAdjust="spacingAndGlyphs" textLength="159" x="205" y="168.1792">a crm:E33_Linguistic_Object</text><!--class aac_types_primary_description--><rect fill="#FEFECE" filter="url(#fr28xi8)" height="23.9688" style="stroke: #A80036; stroke-width: 1.5;" width="195" x="6" y="262.5"/><text fill="#000000" font-family="sans-serif" font-size="12" lengthAdjust="spacingAndGlyphs" textLength="189" x="9" y="278.6387">aac_types:primary_description</text><!--class _description_--><rect fill="#FEFECE" filter="url(#fr28xi8)" height="23.9688" style="stroke: #A80036; stroke-width: 1.5;" width="96" x="236.5" y="262.5"/><text fill="#000000" font-family="sans-serif" font-size="12" lengthAdjust="spacingAndGlyphs" textLength="90" x="239.5" y="278.6387">&lt;description&gt;</text><!--class _authorship_event_--><rect fill="#FEFECE" filter="url(#fr28xi8)" height="44.7734" style="stroke: #A80036; stroke-width: 1.5;" width="135" x="370" y="252"/><text fill="#000000" font-family="sans-serif" font-size="12" lengthAdjust="spacingAndGlyphs" textLength="129" x="373" y="268.1387">&lt;authorship_event&gt;</text><line style="stroke: #A80036; stroke-width: 1.5;" x1="371" x2="504" y1="275.9688" y2="275.9688"/><text fill="#000000" font-family="sans-serif" font-size="11" lengthAdjust="spacingAndGlyphs" textLength="112" x="376" y="290.1792">a crm:E65_Creation</text><!--class _entity_uri_--><rect fill="#FEFECE" filter="url(#fr28xi8)" height="44.7734" style="stroke: #A80036; stroke-width: 1.5;" width="175" x="197" y="8"/><text fill="#000000" font-family="sans-serif" font-size="12" lengthAdjust="spacingAndGlyphs" textLength="77" x="246" y="24.1387">&lt;entity_uri&gt;</text><line style="stroke: #A80036; stroke-width: 1.5;" x1="198" x2="371" y1="31.9688" y2="31.9688"/><text fill="#000000" font-family="sans-serif" font-size="11" lengthAdjust="spacingAndGlyphs" textLength="163" x="203" y="46.1792">a crm:E22_Man-Made_Object</text><path d="M417.437,419.436 C410.155,428.1817 402.301,438.6263 396.5,449 C389,462.4129 383.309,479.0131 379.757,491.0127 " fill="none" style="stroke: #A80036; stroke-width: 1.0;"/><polygon fill="#A80036" points="378.366,495.8511,384.6965,488.3063,379.7472,491.0457,377.0078,486.0963,378.366,495.8511" style="stroke: #A80036; stroke-width: 1.0;"/><text fill="#000000" font-family="sans-serif" font-size="13" lengthAdjust="spacingAndGlyphs" textLength="58" x="397.5" y="462.0669">rdfs:label</text><path d="M449.749,419.134 C461.787,440.3932 479.866,472.3235 490.594,491.2714 " fill="none" style="stroke: #A80036; stroke-width: 1.0;"/><polygon fill="#A80036" points="493.155,495.7946,492.2015,485.992,490.6915,491.4436,485.2399,489.9336,493.155,495.7946" style="stroke: #A80036; stroke-width: 1.0;"/><text fill="#000000" font-family="sans-serif" font-size="13" lengthAdjust="spacingAndGlyphs" textLength="105" x="477.5" y="462.0669">skos:closeMatch</text><path d="M216.98,175.107 C198.05,182.887 178.12,192.822 161.5,205 C141.452,219.69 123.871,242.666 113.465,257.9 " fill="none" style="stroke: #A80036; stroke-width: 1.0;"/><polygon fill="#A80036" points="110.471,262.362,118.8073,257.1174,113.257,258.2101,112.1643,252.6598,110.471,262.362" style="stroke: #A80036; stroke-width: 1.0;"/><text fill="#000000" font-family="sans-serif" font-size="13" lengthAdjust="spacingAndGlyphs" textLength="110" x="162.5" y="218.0669">crm:P2_has_type</text><path d="M282.965,175.037 C282.381,184.259 281.787,195.152 281.5,205 C280.98,222.857 282.101,243.319 283.117,257.195 " fill="none" style="stroke: #A80036; stroke-width: 1.0;"/><polygon fill="#A80036" points="283.512,262.351,286.8138,253.0721,283.1306,257.3656,278.8371,253.6823,283.512,262.351" style="stroke: #A80036; stroke-width: 1.0;"/><text fill="#000000" font-family="sans-serif" font-size="13" lengthAdjust="spacingAndGlyphs" textLength="111" x="282.5" y="218.0669">crm:p3_has_note</text><path d="M350.875,175.099 C367.7,182.716 384.853,192.57 398.5,205 C411.225,216.591 420.861,233.328 427.371,247.357 " fill="none" style="stroke: #A80036; stroke-width: 1.0;"/><polygon fill="#A80036" points="429.459,251.999,429.4144,242.1502,427.4077,247.4392,422.1187,245.4324,429.459,251.999" style="stroke: #A80036; stroke-width: 1.0;"/><text fill="#000000" font-family="sans-serif" font-size="13" lengthAdjust="spacingAndGlyphs" textLength="165" x="414.5" y="218.0669">crm:P94i_was_created_by</text><path d="M284.5,53.231 C284.5,73.365 284.5,103.366 284.5,124.919 " fill="none" style="stroke: #A80036; stroke-width: 1.0;"/><polygon fill="#A80036" points="284.5,129.931,288.5,120.931,284.5,124.931,280.5,120.931,284.5,129.931" style="stroke: #A80036; stroke-width: 1.0;"/><text fill="#000000" font-family="sans-serif" font-size="13" lengthAdjust="spacingAndGlyphs" textLength="153" x="285.5" y="96.0669">crm:P129i_is_subject_of</text><path d="M437.5,297.231 C437.5,317.365 437.5,347.366 437.5,368.919 " fill="none" style="stroke: #A80036; stroke-width: 1.0;"/><polygon fill="#A80036" points="437.5,373.931,441.5,364.931,437.5,368.931,433.5,364.931,437.5,373.931" style="stroke: #A80036; stroke-width: 1.0;"/><text fill="#000000" font-family="sans-serif" font-size="13" lengthAdjust="spacingAndGlyphs" textLength="154" x="438.5" y="340.0669">crm:P14_carried_out_by</text></g></svg>