<?xml version="1.0" encoding="UTF-8" standalone="no"?><svg xmlns="http://www.w3.org/2000/svg" xmlns:xlink="http://www.w3.org/1999/xlink" contentScriptType="application/ecmascript" contentStyleType="text/css" height="412px" preserveAspectRatio="none" style="width:341px;height:412px;" version="1.1" viewBox="0 0 341 412" width="341px" zoomAndPan="magnify"><defs><filter height="300%" id="f55ee2w" width="300%" x="-1" y="-1"><feGaussianBlur result="blurOut" stdDeviation="2.0"/><feColorMatrix in="blurOut" result="blurOut2" type="matrix" values="0 0 0 0 0 0 0 0 0 0 0 0 0 0 0 0 0 0 .4 0"/><feOffset dx="4.0" dy="4.0" in="blurOut2" result="blurOut3"/><feBlend in="SourceGraphic" in2="blurOut3" mode="normal"/></filter></defs><g><!--class _entity_uri_--><rect fill="#FEFECE" filter="url(#f55ee2w)" height="44.7734" style="stroke: #A80036; stroke-width: 1.5;" width="175" x="41" y="8.5"/><text fill="#000000" font-family="sans-serif" font-size="12" lengthAdjust="spacingAndGlyphs" textLength="77" x="90" y="24.6387">&lt;entity_uri&gt;</text><line style="stroke: #A80036; stroke-width: 1.5;" x1="42" x2="215" y1="32.4688" y2="32.4688"/><text fill="#000000" font-family="sans-serif" font-size="11" lengthAdjust="spacingAndGlyphs" textLength="163" x="47" y="46.6792">a crm:E22_Man-Made_Object</text><!--class _object_number_id_--><rect fill="#FEFECE" filter="url(#f55ee2w)" height="44.7734" style="stroke: #A80036; stroke-width: 1.5;" width="136" x="60.25" y="132.5"/><text fill="#000000" font-family="sans-serif" font-size="12" lengthAdjust="spacingAndGlyphs" textLength="130" x="63.25" y="148.6387">&lt;object_number_id&gt;</text><line style="stroke: #A80036; stroke-width: 1.5;" x1="61.25" x2="195.25" y1="156.4688" y2="156.4688"/><text fill="#000000" font-family="sans-serif" font-size="11" lengthAdjust="spacingAndGlyphs" textLength="114" x="66.25" y="170.6792">a crm:E42_Identifier</text><!--class _object_number_--><rect fill="#FEFECE" filter="url(#f55ee2w)" height="23.9688" style="stroke: #A80036; stroke-width: 1.5;" width="119" x="6" y="267"/><text fill="#000000" font-family="sans-serif" font-size="12" lengthAdjust="spacingAndGlyphs" textLength="113" x="9" y="283.1387">&lt;object_number&gt;</text><!--class _identifier_type_--><rect fill="#FEFECE" filter="url(#f55ee2w)" height="44.7734" style="stroke: #A80036; stroke-width: 1.5;" width="114" x="160.25" y="256.5"/><text fill="#000000" font-family="sans-serif" font-size="12" lengthAdjust="spacingAndGlyphs" textLength="108" x="163.25" y="272.6387">&lt;identifier_type&gt;</text><line style="stroke: #A80036; stroke-width: 1.5;" x1="161.25" x2="273.25" y1="280.4688" y2="280.4688"/><text fill="#000000" font-family="sans-serif" font-size="11" lengthAdjust="spacingAndGlyphs" textLength="91" x="166.25" y="294.6792">a crm:E55_Type</text><!--class _object_number_label_--><rect fill="#FEFECE" filter="url(#f55ee2w)" height="23.9688" style="stroke: #A80036; stroke-width: 1.5;" width="155" x="140" y="380"/><text fill="#000000" font-family="sans-serif" font-size="12" lengthAdjust="spacingAndGlyphs" textLength="149" x="143" y="396.1387">&lt;object_number_label&gt;</text><path d="M128.25,53.53 C128.25,74.049 128.25,105.009 128.25,127.134 " fill="none" style="stroke: #A80036; stroke-width: 1.0;"/><polygon fill="#A80036" points="128.25,132.275,132.25,123.275,128.25,127.275,124.25,123.275,128.25,132.275" style="stroke: #A80036; stroke-width: 1.0;"/><text fill="#000000" font-family="sans-serif" font-size="13" lengthAdjust="spacingAndGlyphs" textLength="211" x="129.25" y="97.0669">crm:P48_has_preferred_identifier</text><path d="M108.381,177.54 C100.9509,186.458 92.943,197.225 87.25,208 C78.1335,225.254 72.0499,246.924 68.6338,261.546 " fill="none" style="stroke: #A80036; stroke-width: 1.0;"/><polygon fill="#A80036" points="67.4953,266.593,73.3773,258.6935,68.5953,261.7155,65.5733,256.9335,67.4953,266.593" style="stroke: #A80036; stroke-width: 1.0;"/><text fill="#000000" font-family="sans-serif" font-size="13" lengthAdjust="spacingAndGlyphs" textLength="58" x="88.25" y="221.0669">rdfs:label</text><path d="M143.957,177.53 C159.114,198.309 182.083,229.794 198.261,251.97 " fill="none" style="stroke: #A80036; stroke-width: 1.0;"/><polygon fill="#A80036" points="201.401,256.275,199.3268,246.647,198.4536,252.2361,192.8646,251.3629,201.401,256.275" style="stroke: #A80036; stroke-width: 1.0;"/><text fill="#000000" font-family="sans-serif" font-size="13" lengthAdjust="spacingAndGlyphs" textLength="110" x="178.25" y="221.0669">crm:P2_has_type</text><path d="M217.25,301.665 C217.25,323.1186 217.25,355.4786 217.25,374.7963 " fill="none" style="stroke: #A80036; stroke-width: 1.0;"/><polygon fill="#A80036" points="217.25,379.8791,221.25,370.8791,217.25,374.8791,213.25,370.8791,217.25,379.8791" style="stroke: #A80036; stroke-width: 1.0;"/><text fill="#000000" font-family="sans-serif" font-size="13" lengthAdjust="spacingAndGlyphs" textLength="92" x="218.25" y="345.0669">skos:prefLabel</text></g></svg>