<?xml version="1.0" encoding="UTF-8" standalone="no"?><svg xmlns="http://www.w3.org/2000/svg" xmlns:xlink="http://www.w3.org/1999/xlink" contentScriptType="application/ecmascript" contentStyleType="text/css" height="427px" preserveAspectRatio="none" style="width:376px;height:427px;" version="1.1" viewBox="0 0 376 427" width="376px" zoomAndPan="magnify"><defs><filter height="300%" id="fr6fgtz" width="300%" x="-1" y="-1"><feGaussianBlur result="blurOut" stdDeviation="2.0"/><feColorMatrix in="blurOut" result="blurOut2" type="matrix" values="0 0 0 0 0 0 0 0 0 0 0 0 0 0 0 0 0 0 .4 0"/><feOffset dx="4.0" dy="4.0" in="blurOut2" result="blurOut3"/><feBlend in="SourceGraphic" in2="blurOut3" mode="normal"/></filter></defs><g><!--class aat_300404670--><rect fill="#FEFECE" filter="url(#fr6fgtz)" height="44.7734" style="stroke: #A80036; stroke-width: 1.5;" width="114" x="102" y="374"/><text fill="#000000" font-family="sans-serif" font-size="12" lengthAdjust="spacingAndGlyphs" textLength="97" x="110.5" y="390.1387">aat:300404670</text><line style="stroke: #A80036; stroke-width: 1.5;" x1="103" x2="215" y1="397.9688" y2="397.9688"/><text fill="#000000" font-family="sans-serif" font-size="11" lengthAdjust="spacingAndGlyphs" textLength="102" x="108" y="412.1792">"preferred terms"</text><!--class _entity_uri_--><rect fill="#FEFECE" filter="url(#fr6fgtz)" height="44.7734" style="stroke: #A80036; stroke-width: 1.5;" width="100" x="57" y="8"/><text fill="#000000" font-family="sans-serif" font-size="12" lengthAdjust="spacingAndGlyphs" textLength="77" x="68.5" y="24.1387">&lt;entity_uri&gt;</text><line style="stroke: #A80036; stroke-width: 1.5;" x1="58" x2="156" y1="31.9688" y2="31.9688"/><text fill="#000000" font-family="sans-serif" font-size="11" lengthAdjust="spacingAndGlyphs" textLength="88" x="63" y="46.1792">a crm:E5_Event</text><!--class _event_class_--><rect fill="#FEFECE" filter="url(#fr6fgtz)" height="44.7734" style="stroke: #A80036; stroke-width: 1.5;" width="138" x="38" y="130"/><text fill="#000000" font-family="sans-serif" font-size="12" lengthAdjust="spacingAndGlyphs" textLength="93" x="60.5" y="146.1387">&lt;event_class&gt;</text><line style="stroke: #A80036; stroke-width: 1.5;" x1="39" x2="175" y1="153.9688" y2="153.9688"/><text fill="#000000" font-family="sans-serif" font-size="11" lengthAdjust="spacingAndGlyphs" textLength="126" x="44" y="168.1792">a crm:E41_Appellation</text><!--class _event_name_--><rect fill="#FEFECE" filter="url(#fr6fgtz)" height="23.9688" style="stroke: #A80036; stroke-width: 1.5;" width="102" x="6" y="262.5"/><text fill="#000000" font-family="sans-serif" font-size="12" lengthAdjust="spacingAndGlyphs" textLength="96" x="9" y="278.6387">&lt;event_name&gt;</text><!--class _preferred_name_type_url_--><rect fill="#FEFECE" filter="url(#fr6fgtz)" height="44.7734" style="stroke: #A80036; stroke-width: 1.5;" width="181" x="143.5" y="252"/><text fill="#000000" font-family="sans-serif" font-size="12" lengthAdjust="spacingAndGlyphs" textLength="175" x="146.5" y="268.1387">&lt;preferred_name_type_url&gt;</text><line style="stroke: #A80036; stroke-width: 1.5;" x1="144.5" x2="323.5" y1="275.9688" y2="275.9688"/><text fill="#000000" font-family="sans-serif" font-size="11" lengthAdjust="spacingAndGlyphs" textLength="91" x="149.5" y="290.1792">a crm:E55_Type</text><!--class _type_label_--><rect fill="#FEFECE" filter="url(#fr6fgtz)" height="23.9688" style="stroke: #A80036; stroke-width: 1.5;" width="89" x="265.5" y="384.5"/><text fill="#000000" font-family="sans-serif" font-size="12" lengthAdjust="spacingAndGlyphs" textLength="83" x="268.5" y="400.6387">&lt;type_label&gt;</text><path d="M107,53.231 C107,73.365 107,103.366 107,124.919 " fill="none" style="stroke: #A80036; stroke-width: 1.0;"/><polygon fill="#A80036" points="107,129.931,111,120.931,107,124.931,103,120.931,107,129.931" style="stroke: #A80036; stroke-width: 1.0;"/><text fill="#000000" font-family="sans-serif" font-size="13" lengthAdjust="spacingAndGlyphs" textLength="149" x="108" y="96.0669">crm:P1_is_identified_by</text><path d="M97.9454,175.231 C88.0452,198.992 72.4191,236.494 63.6097,257.637 " fill="none" style="stroke: #A80036; stroke-width: 1.0;"/><polygon fill="#A80036" points="61.6289,262.391,68.7825,255.6215,63.5518,257.7756,61.3978,252.5449,61.6289,262.391" style="stroke: #A80036; stroke-width: 1.0;"/><text fill="#000000" font-family="sans-serif" font-size="13" lengthAdjust="spacingAndGlyphs" textLength="58" x="86" y="218.0669">rdfs:label</text><path d="M129.999,175.231 C151.757,195.79 184.403,226.636 207.3,248.272 " fill="none" style="stroke: #A80036; stroke-width: 1.0;"/><polygon fill="#A80036" points="211.172,251.931,207.3779,242.8423,207.5379,248.4969,201.8833,248.6569,211.172,251.931" style="stroke: #A80036; stroke-width: 1.0;"/><text fill="#000000" font-family="sans-serif" font-size="13" lengthAdjust="spacingAndGlyphs" textLength="110" x="180" y="218.0669">crm:P2_has_type</text><path d="M185.241,297.211 C173.585,304.866 162.612,314.711 156,327 C149.228,339.5858 149.468,355.4332 151.632,368.7146 " fill="none" style="stroke: #A80036; stroke-width: 1.0;"/><polygon fill="#A80036" points="152.584,373.8543,154.8781,364.2764,151.6734,368.9379,147.0119,365.7332,152.584,373.8543" style="stroke: #A80036; stroke-width: 1.0;"/><text fill="#000000" font-family="sans-serif" font-size="13" lengthAdjust="spacingAndGlyphs" textLength="109" x="157" y="340.0669">skos:broadMatch</text><path d="M250.364,297.201 C256.993,306.262 264.581,316.992 271,327 C282.284,344.5936 293.986,365.5767 301.59,379.6423 " fill="none" style="stroke: #A80036; stroke-width: 1.0;"/><polygon fill="#A80036" points="304.005,384.1323,303.2635,374.3114,301.6361,379.7291,296.2184,378.1016,304.005,384.1323" style="stroke: #A80036; stroke-width: 1.0;"/><text fill="#000000" font-family="sans-serif" font-size="13" lengthAdjust="spacingAndGlyphs" textLength="92" x="283" y="340.0669">skos:prefLabel</text></g></svg>