<?xml version="1.0" encoding="UTF-8" standalone="no"?><svg xmlns="http://www.w3.org/2000/svg" xmlns:xlink="http://www.w3.org/1999/xlink" contentScriptType="application/ecmascript" contentStyleType="text/css" height="406px" preserveAspectRatio="none" style="width:341px;height:406px;" version="1.1" viewBox="0 0 341 406" width="341px" zoomAndPan="magnify"><defs><filter height="300%" id="f9vvacq" width="300%" x="-1" y="-1"><feGaussianBlur result="blurOut" stdDeviation="2.0"/><feColorMatrix in="blurOut" result="blurOut2" type="matrix" values="0 0 0 0 0 0 0 0 0 0 0 0 0 0 0 0 0 0 .4 0"/><feOffset dx="4.0" dy="4.0" in="blurOut2" result="blurOut3"/><feBlend in="SourceGraphic" in2="blurOut3" mode="normal"/></filter></defs><g><!--class _entity_uri_--><rect fill="#FEFECE" filter="url(#f9vvacq)" height="44.7734" style="stroke: #A80036; stroke-width: 1.5;" width="175" x="41" y="8"/><text fill="#000000" font-family="sans-serif" font-size="12" lengthAdjust="spacingAndGlyphs" textLength="77" x="90" y="24.1387">&lt;entity_uri&gt;</text><line style="stroke: #A80036; stroke-width: 1.5;" x1="42" x2="215" y1="31.9688" y2="31.9688"/><text fill="#000000" font-family="sans-serif" font-size="11" lengthAdjust="spacingAndGlyphs" textLength="163" x="47" y="46.1792">a crm:E22_Man-Made_Object</text><!--class _object_number_id_--><rect fill="#FEFECE" filter="url(#f9vvacq)" height="44.7734" style="stroke: #A80036; stroke-width: 1.5;" width="136" x="60.5" y="130"/><text fill="#000000" font-family="sans-serif" font-size="12" lengthAdjust="spacingAndGlyphs" textLength="130" x="63.5" y="146.1387">&lt;object_number_id&gt;</text><line style="stroke: #A80036; stroke-width: 1.5;" x1="61.5" x2="195.5" y1="153.9688" y2="153.9688"/><text fill="#000000" font-family="sans-serif" font-size="11" lengthAdjust="spacingAndGlyphs" textLength="114" x="66.5" y="168.1792">a crm:E42_Identifier</text><!--class _object_number_--><rect fill="#FEFECE" filter="url(#f9vvacq)" height="23.9688" style="stroke: #A80036; stroke-width: 1.5;" width="119" x="6" y="262.5"/><text fill="#000000" font-family="sans-serif" font-size="12" lengthAdjust="spacingAndGlyphs" textLength="113" x="9" y="278.6387">&lt;object_number&gt;</text><!--class _identifier_type_--><rect fill="#FEFECE" filter="url(#f9vvacq)" height="44.7734" style="stroke: #A80036; stroke-width: 1.5;" width="114" x="160.5" y="252"/><text fill="#000000" font-family="sans-serif" font-size="12" lengthAdjust="spacingAndGlyphs" textLength="108" x="163.5" y="268.1387">&lt;identifier_type&gt;</text><line style="stroke: #A80036; stroke-width: 1.5;" x1="161.5" x2="273.5" y1="275.9688" y2="275.9688"/><text fill="#000000" font-family="sans-serif" font-size="11" lengthAdjust="spacingAndGlyphs" textLength="91" x="166.5" y="290.1792">a crm:E55_Type</text><!--class _object_number_label_--><rect fill="#FEFECE" filter="url(#f9vvacq)" height="23.9688" style="stroke: #A80036; stroke-width: 1.5;" width="155" x="140" y="374"/><text fill="#000000" font-family="sans-serif" font-size="12" lengthAdjust="spacingAndGlyphs" textLength="149" x="143" y="390.1387">&lt;object_number_label&gt;</text><path d="M128.5,53.231 C128.5,73.365 128.5,103.366 128.5,124.919 " fill="none" style="stroke: #A80036; stroke-width: 1.0;"/><polygon fill="#A80036" points="128.5,129.931,132.5,120.931,128.5,124.931,124.5,120.931,128.5,129.931" style="stroke: #A80036; stroke-width: 1.0;"/><text fill="#000000" font-family="sans-serif" font-size="13" lengthAdjust="spacingAndGlyphs" textLength="211" x="129.5" y="96.0669">crm:P48_has_preferred_identifier</text><path d="M108.825,175.433 C101.7082,184.178 94.0635,194.623 88.5,205 C79.4194,221.936 72.9707,243.131 69.2555,257.424 " fill="none" style="stroke: #A80036; stroke-width: 1.0;"/><polygon fill="#A80036" points="68.0107,262.357,74.0904,254.6087,69.2336,257.5089,66.3334,252.652,68.0107,262.357" style="stroke: #A80036; stroke-width: 1.0;"/><text fill="#000000" font-family="sans-serif" font-size="13" lengthAdjust="spacingAndGlyphs" textLength="58" x="89.5" y="218.0669">rdfs:label</text><path d="M144.617,175.231 C159.739,195.62 182.365,226.127 198.39,247.734 " fill="none" style="stroke: #A80036; stroke-width: 1.0;"/><polygon fill="#A80036" points="201.503,251.931,199.3557,242.3191,198.525,247.9146,192.9295,247.0839,201.503,251.931" style="stroke: #A80036; stroke-width: 1.0;"/><text fill="#000000" font-family="sans-serif" font-size="13" lengthAdjust="spacingAndGlyphs" textLength="110" x="178.5" y="218.0669">crm:P2_has_type</text><path d="M217.5,297.134 C217.5,318.213 217.5,349.783 217.5,368.7869 " fill="none" style="stroke: #A80036; stroke-width: 1.0;"/><polygon fill="#A80036" points="217.5,373.7946,221.5,364.7946,217.5,368.7946,213.5,364.7946,217.5,373.7946" style="stroke: #A80036; stroke-width: 1.0;"/><text fill="#000000" font-family="sans-serif" font-size="13" lengthAdjust="spacingAndGlyphs" textLength="92" x="218.5" y="340.0669">skos:prefLabel</text></g></svg>