<?xml version="1.0" encoding="UTF-8" standalone="no"?><svg xmlns="http://www.w3.org/2000/svg" xmlns:xlink="http://www.w3.org/1999/xlink" contentScriptType="application/ecmascript" contentStyleType="text/css" height="528px" preserveAspectRatio="none" style="width:688px;height:528px;" version="1.1" viewBox="0 0 688 528" width="688px" zoomAndPan="magnify"><defs><filter height="300%" id="ffpp5jf" width="300%" x="-1" y="-1"><feGaussianBlur result="blurOut" stdDeviation="2.0"/><feColorMatrix in="blurOut" result="blurOut2" type="matrix" values="0 0 0 0 0 0 0 0 0 0 0 0 0 0 0 0 0 0 .4 0"/><feOffset dx="4.0" dy="4.0" in="blurOut2" result="blurOut3"/><feBlend in="SourceGraphic" in2="blurOut3" mode="normal"/></filter></defs><g><!--class _author_class_--><rect fill="#FEFECE" filter="url(#ffpp5jf)" height="44.7734" style="stroke: #A80036; stroke-width: 1.5;" width="106" x="49" y="374"/><text fill="#000000" font-family="sans-serif" font-size="12" lengthAdjust="spacingAndGlyphs" textLength="100" x="52" y="390.1387">&lt;author_class&gt;</text><line style="stroke: #A80036; stroke-width: 1.5;" x1="50" x2="154" y1="397.9688" y2="397.9688"/><text fill="#000000" font-family="sans-serif" font-size="11" lengthAdjust="spacingAndGlyphs" textLength="93" x="55" y="412.1792">a crm:E39_Actor</text><!--class _author_--><rect fill="#FEFECE" filter="url(#ffpp5jf)" height="23.9688" style="stroke: #A80036; stroke-width: 1.5;" width="68" x="6" y="496"/><text fill="#000000" font-family="sans-serif" font-size="12" lengthAdjust="spacingAndGlyphs" textLength="62" x="9" y="512.1387">&lt;author&gt;</text><!--class _author_lod_id_--><rect fill="#FEFECE" filter="url(#ffpp5jf)" height="23.9688" style="stroke: #A80036; stroke-width: 1.5;" width="110" x="109" y="496"/><text fill="#000000" font-family="sans-serif" font-size="12" lengthAdjust="spacingAndGlyphs" textLength="104" x="112" y="512.1387">&lt;author_lod_id&gt;</text><!--class _description_class_--><rect fill="#FEFECE" filter="url(#ffpp5jf)" height="44.7734" style="stroke: #A80036; stroke-width: 1.5;" width="171" x="250.5" y="130"/><text fill="#000000" font-family="sans-serif" font-size="12" lengthAdjust="spacingAndGlyphs" textLength="128" x="272" y="146.1387">&lt;description_class&gt;</text><line style="stroke: #A80036; stroke-width: 1.5;" x1="251.5" x2="420.5" y1="153.9688" y2="153.9688"/><text fill="#000000" font-family="sans-serif" font-size="11" lengthAdjust="spacingAndGlyphs" textLength="159" x="256.5" y="168.1792">a crm:E33_Linguistic_Object</text><!--class aac_types_primary_description--><rect fill="#FEFECE" filter="url(#ffpp5jf)" height="23.9688" style="stroke: #A80036; stroke-width: 1.5;" width="195" x="211.5" y="262.5"/><text fill="#000000" font-family="sans-serif" font-size="12" lengthAdjust="spacingAndGlyphs" textLength="189" x="214.5" y="278.6387">aac_types:primary_description</text><!--class _description_--><rect fill="#FEFECE" filter="url(#ffpp5jf)" height="23.9688" style="stroke: #A80036; stroke-width: 1.5;" width="96" x="495" y="262.5"/><text fill="#000000" font-family="sans-serif" font-size="12" lengthAdjust="spacingAndGlyphs" textLength="90" x="498" y="278.6387">&lt;description&gt;</text><!--class _authorship_event_--><rect fill="#FEFECE" filter="url(#ffpp5jf)" height="44.7734" style="stroke: #A80036; stroke-width: 1.5;" width="135" x="34.5" y="252"/><text fill="#000000" font-family="sans-serif" font-size="12" lengthAdjust="spacingAndGlyphs" textLength="129" x="37.5" y="268.1387">&lt;authorship_event&gt;</text><line style="stroke: #A80036; stroke-width: 1.5;" x1="35.5" x2="168.5" y1="275.9688" y2="275.9688"/><text fill="#000000" font-family="sans-serif" font-size="11" lengthAdjust="spacingAndGlyphs" textLength="112" x="40.5" y="290.1792">a crm:E65_Creation</text><!--class _entity_uri_--><rect fill="#FEFECE" filter="url(#ffpp5jf)" height="44.7734" style="stroke: #A80036; stroke-width: 1.5;" width="175" x="392.5" y="8"/><text fill="#000000" font-family="sans-serif" font-size="12" lengthAdjust="spacingAndGlyphs" textLength="77" x="441.5" y="24.1387">&lt;entity_uri&gt;</text><line style="stroke: #A80036; stroke-width: 1.5;" x1="393.5" x2="566.5" y1="31.9688" y2="31.9688"/><text fill="#000000" font-family="sans-serif" font-size="11" lengthAdjust="spacingAndGlyphs" textLength="163" x="398.5" y="46.1792">a crm:E22_Man-Made_Object</text><path d="M81.9371,419.436 C74.6552,428.1817 66.801,438.6263 61,449 C53.4995,462.4129 47.8093,479.0131 44.2566,491.0127 " fill="none" style="stroke: #A80036; stroke-width: 1.0;"/><polygon fill="#A80036" points="42.8659,495.8511,49.1965,488.3064,44.2472,491.0457,41.5079,486.0963,42.8659,495.8511" style="stroke: #A80036; stroke-width: 1.0;"/><text fill="#000000" font-family="sans-serif" font-size="13" lengthAdjust="spacingAndGlyphs" textLength="58" x="62" y="462.0669">rdfs:label</text><path d="M114.249,419.134 C126.287,440.3932 144.366,472.3235 155.094,491.2714 " fill="none" style="stroke: #A80036; stroke-width: 1.0;"/><polygon fill="#A80036" points="157.655,495.7946,156.7015,485.992,155.1915,491.4436,149.7399,489.9336,157.655,495.7946" style="stroke: #A80036; stroke-width: 1.0;"/><text fill="#000000" font-family="sans-serif" font-size="13" lengthAdjust="spacingAndGlyphs" textLength="105" x="142" y="462.0669">skos:closeMatch</text><path d="M319.798,175.42 C314.283,184.163 308.805,194.611 306,205 C301.343,222.247 303.177,242.814 305.492,256.881 " fill="none" style="stroke: #A80036; stroke-width: 1.0;"/><polygon fill="#A80036" points="306.426,262.117,308.7826,252.5542,305.5475,257.1948,300.907,253.9598,306.426,262.117" style="stroke: #A80036; stroke-width: 1.0;"/><text fill="#000000" font-family="sans-serif" font-size="13" lengthAdjust="spacingAndGlyphs" textLength="110" x="307" y="218.0669">crm:P2_has_type</text><path d="M373.486,175.231 C415.857,199.794 483.559,239.042 519.23,259.721 " fill="none" style="stroke: #A80036; stroke-width: 1.0;"/><polygon fill="#A80036" points="523.836,262.391,518.0551,254.4172,519.5101,259.8837,514.0435,261.3387,523.836,262.391" style="stroke: #A80036; stroke-width: 1.0;"/><text fill="#000000" font-family="sans-serif" font-size="13" lengthAdjust="spacingAndGlyphs" textLength="111" x="453" y="218.0669">crm:p3_has_note</text><path d="M250.336,156.97 C209.4,162.729 162.213,175.894 129,205 C116.842,215.655 110.107,232.5 106.404,246.819 " fill="none" style="stroke: #A80036; stroke-width: 1.0;"/><polygon fill="#A80036" points="105.1726,251.964,111.1586,244.143,106.337,247.1015,103.3785,242.2799,105.1726,251.964" style="stroke: #A80036; stroke-width: 1.0;"/><text fill="#000000" font-family="sans-serif" font-size="13" lengthAdjust="spacingAndGlyphs" textLength="165" x="130" y="218.0669">crm:P94i_was_created_by</text><path d="M542.569,53.051 C555.469,60.486 567.418,70.265 575,83 C585.364,100.407 644.594,-34.76 573,222 C569.337,235.138 561.492,248.4 554.744,258.175 " fill="none" style="stroke: #A80036; stroke-width: 1.0;"/><polygon fill="#A80036" points="551.739,262.408,560.2104,257.3846,554.6333,258.3309,553.687,252.7537,551.739,262.408" style="stroke: #A80036; stroke-width: 1.0;"/><text fill="#000000" font-family="sans-serif" font-size="13" lengthAdjust="spacingAndGlyphs" textLength="89" x="598" y="157.0669">dc:description</text><path d="M452.759,53.119 C441.339,62.26 427.961,73.071 416,83 C399.025,97.092 380.28,113.116 365.205,126.122 " fill="none" style="stroke: #A80036; stroke-width: 1.0;"/><polygon fill="#A80036" points="361.054,129.706,370.4797,126.8503,364.838,126.4377,365.2505,120.7959,361.054,129.706" style="stroke: #A80036; stroke-width: 1.0;"/><text fill="#000000" font-family="sans-serif" font-size="13" lengthAdjust="spacingAndGlyphs" textLength="153" x="417" y="96.0669">crm:P129i_is_subject_of</text><path d="M102,297.231 C102,317.365 102,347.366 102,368.919 " fill="none" style="stroke: #A80036; stroke-width: 1.0;"/><polygon fill="#A80036" points="102,373.931,106,364.931,102,368.931,98,364.931,102,373.931" style="stroke: #A80036; stroke-width: 1.0;"/><text fill="#000000" font-family="sans-serif" font-size="13" lengthAdjust="spacingAndGlyphs" textLength="154" x="103" y="340.0669">crm:P14_carried_out_by</text></g></svg>