<?xml version="1.0" encoding="UTF-8" standalone="no"?><svg xmlns="http://www.w3.org/2000/svg" xmlns:xlink="http://www.w3.org/1999/xlink" contentScriptType="application/ecmascript" contentStyleType="text/css" height="305px" preserveAspectRatio="none" style="width:509px;height:305px;" version="1.1" viewBox="0 0 509 305" width="509px" zoomAndPan="magnify"><defs><filter height="300%" id="fyt669y" width="300%" x="-1" y="-1"><feGaussianBlur result="blurOut" stdDeviation="2.0"/><feColorMatrix in="blurOut" result="blurOut2" type="matrix" values="0 0 0 0 0 0 0 0 0 0 0 0 0 0 0 0 0 0 .4 0"/><feOffset dx="4.0" dy="4.0" in="blurOut2" result="blurOut3"/><feBlend in="SourceGraphic" in2="blurOut3" mode="normal"/></filter></defs><g><!--class _sort_name_class_--><rect fill="#FEFECE" filter="url(#fyt669y)" height="44.7734" style="stroke: #A80036; stroke-width: 1.5;" width="173" x="123" y="130"/><text fill="#000000" font-family="sans-serif" font-size="12" lengthAdjust="spacingAndGlyphs" textLength="124" x="147.5" y="146.1387">&lt;sort_name_class&gt;</text><line style="stroke: #A80036; stroke-width: 1.5;" x1="124" x2="295" y1="153.9688" y2="153.9688"/><text fill="#000000" font-family="sans-serif" font-size="11" lengthAdjust="spacingAndGlyphs" textLength="161" x="129" y="168.1792">a crm:E82_Actor_Appellation</text><!--class aat_300404672--><rect fill="#FEFECE" filter="url(#fyt669y)" height="44.7734" style="stroke: #A80036; stroke-width: 1.5;" width="103" x="6" y="252"/><text fill="#000000" font-family="sans-serif" font-size="12" lengthAdjust="spacingAndGlyphs" textLength="97" x="9" y="268.1387">aat:300404672</text><line style="stroke: #A80036; stroke-width: 1.5;" x1="7" x2="108" y1="275.9688" y2="275.9688"/><text fill="#000000" font-family="sans-serif" font-size="11" lengthAdjust="spacingAndGlyphs" textLength="87" x="12" y="290.1792">"inverted term"</text><!--class _name_class_--><rect fill="#FEFECE" filter="url(#fyt669y)" height="23.9688" style="stroke: #A80036; stroke-width: 1.5;" width="99" x="160" y="262.5"/><text fill="#000000" font-family="sans-serif" font-size="12" lengthAdjust="spacingAndGlyphs" textLength="93" x="163" y="278.6387">&lt;name_class&gt;</text><!--class _sort_name_--><rect fill="#FEFECE" filter="url(#fyt669y)" height="23.9688" style="stroke: #A80036; stroke-width: 1.5;" width="92" x="408.5" y="262.5"/><text fill="#000000" font-family="sans-serif" font-size="12" lengthAdjust="spacingAndGlyphs" textLength="86" x="411.5" y="278.6387">&lt;sort_name&gt;</text><!--class _entity_uri_--><rect fill="#FEFECE" filter="url(#fyt669y)" height="44.7734" style="stroke: #A80036; stroke-width: 1.5;" width="105" x="157" y="8"/><text fill="#000000" font-family="sans-serif" font-size="12" lengthAdjust="spacingAndGlyphs" textLength="77" x="171" y="24.1387">&lt;entity_uri&gt;</text><line style="stroke: #A80036; stroke-width: 1.5;" x1="158" x2="261" y1="31.9688" y2="31.9688"/><text fill="#000000" font-family="sans-serif" font-size="11" lengthAdjust="spacingAndGlyphs" textLength="93" x="163" y="46.1792">a crm:E39_Actor</text><path d="M132.353,175.088 C115.71,182.498 99.2937,192.257 86.5,205 C75.0914,216.3636 67.9165,232.9078 63.5577,246.8903 " fill="none" style="stroke: #A80036; stroke-width: 1.0;"/><polygon fill="#A80036" points="62.0766,251.9115,68.4596,244.411,63.4913,247.1158,60.7865,242.1475,62.0766,251.9115" style="stroke: #A80036; stroke-width: 1.0;"/><text fill="#000000" font-family="sans-serif" font-size="13" lengthAdjust="spacingAndGlyphs" textLength="110" x="87.5" y="218.0669">crm:P2_has_type</text><path d="M207.749,175.09 C206.855,188.572 206.043,206.2937 206.5,222 C206.846,233.8926 207.641,247.3104 208.325,257.4681 " fill="none" style="stroke: #A80036; stroke-width: 1.0;"/><polygon fill="#A80036" points="208.67,262.4574,212.0393,253.2028,208.3249,257.4693,204.0584,253.7549,208.67,262.4574" style="stroke: #A80036; stroke-width: 1.0;"/><text fill="#000000" font-family="sans-serif" font-size="13" lengthAdjust="spacingAndGlyphs" textLength="203" x="207.5" y="218.0669">crm:P139_has_alternative_form</text><path d="M296.122,159.627 C335.748,166.098 381.36,179.095 415.5,205 C432.934,218.2288 443.806,241.6614 449.51,257.3868 " fill="none" style="stroke: #A80036; stroke-width: 1.0;"/><polygon fill="#A80036" points="451.249,262.3984,452.0787,252.5846,449.6104,257.6745,444.5205,255.2063,451.249,262.3984" style="stroke: #A80036; stroke-width: 1.0;"/><text fill="#000000" font-family="sans-serif" font-size="13" lengthAdjust="spacingAndGlyphs" textLength="62" x="433.5" y="218.0669">rdfs:value</text><path d="M209.5,53.231 C209.5,73.365 209.5,103.366 209.5,124.919 " fill="none" style="stroke: #A80036; stroke-width: 1.0;"/><polygon fill="#A80036" points="209.5,129.931,213.5,120.931,209.5,124.931,205.5,120.931,209.5,129.931" style="stroke: #A80036; stroke-width: 1.0;"/><text fill="#000000" font-family="sans-serif" font-size="13" lengthAdjust="spacingAndGlyphs" textLength="165" x="210.5" y="96.0669">crm:P131_is_identified_by</text></g></svg>