<?xml version="1.0" encoding="UTF-8" standalone="no"?><svg xmlns="http://www.w3.org/2000/svg" xmlns:xlink="http://www.w3.org/1999/xlink" contentScriptType="application/ecmascript" contentStyleType="text/css" height="528px" preserveAspectRatio="none" style="width:773px;height:528px;" version="1.1" viewBox="0 0 773 528" width="773px" zoomAndPan="magnify"><defs><filter height="300%" id="fotsrpu" width="300%" x="-1" y="-1"><feGaussianBlur result="blurOut" stdDeviation="2.0"/><feColorMatrix in="blurOut" result="blurOut2" type="matrix" values="0 0 0 0 0 0 0 0 0 0 0 0 0 0 0 0 0 0 .4 0"/><feOffset dx="4.0" dy="4.0" in="blurOut2" result="blurOut3"/><feBlend in="SourceGraphic" in2="blurOut3" mode="normal"/></filter></defs><g><!--class _birth_location_class_--><rect fill="#FEFECE" filter="url(#fotsrpu)" height="44.7734" style="stroke: #A80036; stroke-width: 1.5;" width="149" x="174" y="252"/><text fill="#000000" font-family="sans-serif" font-size="12" lengthAdjust="spacingAndGlyphs" textLength="143" x="177" y="268.1387">&lt;birth_location_class&gt;</text><line style="stroke: #A80036; stroke-width: 1.5;" x1="175" x2="322" y1="275.9688" y2="275.9688"/><text fill="#000000" font-family="sans-serif" font-size="11" lengthAdjust="spacingAndGlyphs" textLength="94" x="180" y="290.1792">a crm:E53_Place</text><!--class _birth_location_uri_--><rect fill="#FEFECE" filter="url(#fotsrpu)" height="23.9688" style="stroke: #A80036; stroke-width: 1.5;" width="133" x="6" y="384.5"/><text fill="#000000" font-family="sans-serif" font-size="12" lengthAdjust="spacingAndGlyphs" textLength="127" x="9" y="400.6387">&lt;birth_location_uri&gt;</text><!--class _location_name_--><rect fill="#FEFECE" filter="url(#fotsrpu)" height="44.7734" style="stroke: #A80036; stroke-width: 1.5;" width="174" x="174.5" y="374"/><text fill="#000000" font-family="sans-serif" font-size="12" lengthAdjust="spacingAndGlyphs" textLength="111" x="206" y="390.1387">&lt;location_name&gt;</text><line style="stroke: #A80036; stroke-width: 1.5;" x1="175.5" x2="347.5" y1="397.9688" y2="397.9688"/><text fill="#000000" font-family="sans-serif" font-size="11" lengthAdjust="spacingAndGlyphs" textLength="162" x="180.5" y="412.1792">a crm:E44_Place_Appellation</text><!--class _birth_timespan_--><rect fill="#FEFECE" filter="url(#fotsrpu)" height="44.7734" style="stroke: #A80036; stroke-width: 1.5;" width="137" x="379" y="252"/><text fill="#000000" font-family="sans-serif" font-size="12" lengthAdjust="spacingAndGlyphs" textLength="113" x="391" y="268.1387">&lt;birth_timespan&gt;</text><line style="stroke: #A80036; stroke-width: 1.5;" x1="380" x2="515" y1="275.9688" y2="275.9688"/><text fill="#000000" font-family="sans-serif" font-size="11" lengthAdjust="spacingAndGlyphs" textLength="125" x="385" y="290.1792">a crm:E52_Time-Span</text><!--class _display_date_--><rect fill="#FEFECE" filter="url(#fotsrpu)" height="23.9688" style="stroke: #A80036; stroke-width: 1.5;" width="104" x="395.5" y="384.5"/><text fill="#000000" font-family="sans-serif" font-size="12" lengthAdjust="spacingAndGlyphs" textLength="98" x="398.5" y="400.6387">&lt;display_date&gt;</text><!--class _birth_date_--><rect fill="#FEFECE" filter="url(#fotsrpu)" height="23.9688" style="stroke: #A80036; stroke-width: 1.5;" width="90" x="555.5" y="384.5"/><text fill="#000000" font-family="sans-serif" font-size="12" lengthAdjust="spacingAndGlyphs" textLength="84" x="558.5" y="400.6387">&lt;birth_date&gt;</text><!--class _entity_uri_--><rect fill="#FEFECE" filter="url(#fotsrpu)" height="44.7734" style="stroke: #A80036; stroke-width: 1.5;" width="105" x="303" y="8"/><text fill="#000000" font-family="sans-serif" font-size="12" lengthAdjust="spacingAndGlyphs" textLength="77" x="317" y="24.1387">&lt;entity_uri&gt;</text><line style="stroke: #A80036; stroke-width: 1.5;" x1="304" x2="407" y1="31.9688" y2="31.9688"/><text fill="#000000" font-family="sans-serif" font-size="11" lengthAdjust="spacingAndGlyphs" textLength="93" x="309" y="46.1792">a crm:E39_Actor</text><!--class _birth_event_--><rect fill="#FEFECE" filter="url(#fotsrpu)" height="44.7734" style="stroke: #A80036; stroke-width: 1.5;" width="103" x="304" y="130"/><text fill="#000000" font-family="sans-serif" font-size="12" lengthAdjust="spacingAndGlyphs" textLength="90" x="310.5" y="146.1387">&lt;birth_event&gt;</text><line style="stroke: #A80036; stroke-width: 1.5;" x1="305" x2="406" y1="153.9688" y2="153.9688"/><text fill="#000000" font-family="sans-serif" font-size="11" lengthAdjust="spacingAndGlyphs" textLength="91" x="310" y="168.1792">a crm:E67_Birth</text><!--class _birth_location_--><rect fill="#FEFECE" filter="url(#fotsrpu)" height="23.9688" style="stroke: #A80036; stroke-width: 1.5;" width="111" x="206" y="496"/><text fill="#000000" font-family="sans-serif" font-size="12" lengthAdjust="spacingAndGlyphs" textLength="105" x="209" y="512.1387">&lt;birth_location&gt;</text><path d="M193.166,297.045 C175.285,305.187 155.865,315.343 139.5,327 C117.826,342.438 97.079,365.328 84.5625,380.33 " fill="none" style="stroke: #A80036; stroke-width: 1.0;"/><polygon fill="#A80036" points="81.2566,384.339,90.0687,379.9406,84.4378,380.4816,83.8968,374.8506,81.2566,384.339" style="stroke: #A80036; stroke-width: 1.0;"/><text fill="#000000" font-family="sans-serif" font-size="13" lengthAdjust="spacingAndGlyphs" textLength="105" x="140.5" y="340.0669">skos:closeMatch</text><path d="M250.854,297.231 C253.035,317.365 256.285,347.366 258.62,368.919 " fill="none" style="stroke: #A80036; stroke-width: 1.0;"/><polygon fill="#A80036" points="259.163,373.931,262.1704,364.5525,258.6245,368.9601,254.2169,365.4142,259.163,373.931" style="stroke: #A80036; stroke-width: 1.0;"/><text fill="#000000" font-family="sans-serif" font-size="13" lengthAdjust="spacingAndGlyphs" textLength="157" x="257.5" y="340.0669">crm:P87_is_identified_by</text><path d="M445.749,297.09 C444.855,310.572 444.043,328.294 444.5,344 C444.846,355.893 445.641,369.31 446.325,379.468 " fill="none" style="stroke: #A80036; stroke-width: 1.0;"/><polygon fill="#A80036" points="446.67,384.457,450.0407,375.2029,446.3256,379.4689,442.0597,375.7539,446.67,384.457" style="stroke: #A80036; stroke-width: 1.0;"/><text fill="#000000" font-family="sans-serif" font-size="13" lengthAdjust="spacingAndGlyphs" textLength="111" x="445.5" y="340.0669">crm:P3_has_note</text><path d="M513.875,297.099 C530.7,304.716 547.853,314.57 561.5,327 C577.498,341.571 588.612,364.276 594.772,379.508 " fill="none" style="stroke: #A80036; stroke-width: 1.0;"/><polygon fill="#A80036" points="596.671,384.364,597.1181,374.5253,594.8498,379.7075,589.6676,377.4392,596.671,384.364" style="stroke: #A80036; stroke-width: 1.0;"/><text fill="#000000" font-family="sans-serif" font-size="13" lengthAdjust="spacingAndGlyphs" textLength="195" x="577.5" y="340.0669">crm:P82_at_some_time_within</text><path d="M355.5,53.231 C355.5,73.365 355.5,103.366 355.5,124.919 " fill="none" style="stroke: #A80036; stroke-width: 1.0;"/><polygon fill="#A80036" points="355.5,129.931,359.5,120.931,355.5,124.931,351.5,120.931,355.5,129.931" style="stroke: #A80036; stroke-width: 1.0;"/><text fill="#000000" font-family="sans-serif" font-size="13" lengthAdjust="spacingAndGlyphs" textLength="123" x="356.5" y="96.0669">crm:P98i_was_born</text><path d="M261.5,419.134 C261.5,440.213 261.5,471.783 261.5,490.7869 " fill="none" style="stroke: #A80036; stroke-width: 1.0;"/><polygon fill="#A80036" points="261.5,495.7946,265.5,486.7946,261.5,490.7946,257.5,486.7946,261.5,495.7946" style="stroke: #A80036; stroke-width: 1.0;"/><text fill="#000000" font-family="sans-serif" font-size="13" lengthAdjust="spacingAndGlyphs" textLength="92" x="262.5" y="462.0669">skos:prefLabel</text><path d="M377.987,175.184 C386.693,184.065 396.474,194.67 404.5,205 C414.872,218.349 424.998,234.292 432.816,247.437 " fill="none" style="stroke: #A80036; stroke-width: 1.0;"/><polygon fill="#A80036" points="435.376,251.78,434.2512,241.9956,432.8368,247.4728,427.3596,246.0583,435.376,251.78" style="stroke: #A80036; stroke-width: 1.0;"/><text fill="#000000" font-family="sans-serif" font-size="13" lengthAdjust="spacingAndGlyphs" textLength="147" x="417.5" y="218.0669">crm:P4_has_time-span</text><path d="M303.762,167.692 C284.842,175.556 265.22,187.422 253.5,205 C245.441,217.087 243.92,233.183 244.54,246.735 " fill="none" style="stroke: #A80036; stroke-width: 1.0;"/><polygon fill="#A80036" points="244.889,251.982,248.2836,242.7366,244.5575,246.993,240.3012,243.267,244.889,251.982" style="stroke: #A80036; stroke-width: 1.0;"/><text fill="#000000" font-family="sans-serif" font-size="13" lengthAdjust="spacingAndGlyphs" textLength="141" x="254.5" y="218.0669">crm:P7_took_place_at</text></g></svg>