<?xml version="1.0" encoding="UTF-8" standalone="no"?><svg xmlns="http://www.w3.org/2000/svg" xmlns:xlink="http://www.w3.org/1999/xlink" contentScriptType="application/ecmascript" contentStyleType="text/css" height="427px" preserveAspectRatio="none" style="width:545px;height:427px;" version="1.1" viewBox="0 0 545 427" width="545px" zoomAndPan="magnify"><defs><filter height="300%" id="fn7b2em" width="300%" x="-1" y="-1"><feGaussianBlur result="blurOut" stdDeviation="2.0"/><feColorMatrix in="blurOut" result="blurOut2" type="matrix" values="0 0 0 0 0 0 0 0 0 0 0 0 0 0 0 0 0 0 .4 0"/><feOffset dx="4.0" dy="4.0" in="blurOut2" result="blurOut3"/><feBlend in="SourceGraphic" in2="blurOut3" mode="normal"/></filter></defs><g><!--class aat_300404012--><rect fill="#FEFECE" filter="url(#fn7b2em)" height="44.7734" style="stroke: #A80036; stroke-width: 1.5;" width="103" x="273.5" y="374"/><text fill="#000000" font-family="sans-serif" font-size="12" lengthAdjust="spacingAndGlyphs" textLength="97" x="276.5" y="390.1387">aat:300404012</text><line style="stroke: #A80036; stroke-width: 1.5;" x1="274.5" x2="375.5" y1="397.9688" y2="397.9688"/><text fill="#000000" font-family="sans-serif" font-size="11" lengthAdjust="spacingAndGlyphs" textLength="69" x="279.5" y="412.1792">"unique ids"</text><!--class aat_300404670--><rect fill="#FEFECE" filter="url(#fn7b2em)" height="44.7734" style="stroke: #A80036; stroke-width: 1.5;" width="114" x="6" y="252"/><text fill="#000000" font-family="sans-serif" font-size="12" lengthAdjust="spacingAndGlyphs" textLength="97" x="14.5" y="268.1387">aat:300404670</text><line style="stroke: #A80036; stroke-width: 1.5;" x1="7" x2="119" y1="275.9688" y2="275.9688"/><text fill="#000000" font-family="sans-serif" font-size="11" lengthAdjust="spacingAndGlyphs" textLength="102" x="12" y="290.1792">"preferred terms"</text><!--class _primary_title_class_--><rect fill="#FEFECE" filter="url(#fn7b2em)" height="44.7734" style="stroke: #A80036; stroke-width: 1.5;" width="140" x="151" y="130"/><text fill="#000000" font-family="sans-serif" font-size="12" lengthAdjust="spacingAndGlyphs" textLength="134" x="154" y="146.1387">&lt;primary_title_class&gt;</text><line style="stroke: #A80036; stroke-width: 1.5;" x1="152" x2="290" y1="153.9688" y2="153.9688"/><text fill="#000000" font-family="sans-serif" font-size="11" lengthAdjust="spacingAndGlyphs" textLength="88" x="157" y="168.1792">a crm:E35_Title</text><!--class _primary_title_text_--><rect fill="#FEFECE" filter="url(#fn7b2em)" height="23.9688" style="stroke: #A80036; stroke-width: 1.5;" width="132" x="155" y="262.5"/><text fill="#000000" font-family="sans-serif" font-size="12" lengthAdjust="spacingAndGlyphs" textLength="126" x="158" y="278.6387">&lt;primary_title_text&gt;</text><!--class _primary_title_id_class_--><rect fill="#FEFECE" filter="url(#fn7b2em)" height="44.7734" style="stroke: #A80036; stroke-width: 1.5;" width="157" x="322.5" y="252"/><text fill="#000000" font-family="sans-serif" font-size="12" lengthAdjust="spacingAndGlyphs" textLength="151" x="325.5" y="268.1387">&lt;primary_title_id_class&gt;</text><line style="stroke: #A80036; stroke-width: 1.5;" x1="323.5" x2="478.5" y1="275.9688" y2="275.9688"/><text fill="#000000" font-family="sans-serif" font-size="11" lengthAdjust="spacingAndGlyphs" textLength="114" x="328.5" y="290.1792">a crm:E42_Identifier</text><!--class _entity_uri_--><rect fill="#FEFECE" filter="url(#fn7b2em)" height="44.7734" style="stroke: #A80036; stroke-width: 1.5;" width="175" x="133.5" y="8"/><text fill="#000000" font-family="sans-serif" font-size="12" lengthAdjust="spacingAndGlyphs" textLength="77" x="182.5" y="24.1387">&lt;entity_uri&gt;</text><line style="stroke: #A80036; stroke-width: 1.5;" x1="134.5" x2="307.5" y1="31.9688" y2="31.9688"/><text fill="#000000" font-family="sans-serif" font-size="11" lengthAdjust="spacingAndGlyphs" textLength="163" x="139.5" y="46.1792">a crm:E22_Man-Made_Object</text><!--class _primary_title_id_--><rect fill="#FEFECE" filter="url(#fn7b2em)" height="23.9688" style="stroke: #A80036; stroke-width: 1.5;" width="119" x="417.5" y="384.5"/><text fill="#000000" font-family="sans-serif" font-size="12" lengthAdjust="spacingAndGlyphs" textLength="113" x="420.5" y="400.6387">&lt;primary_title_id&gt;</text><path d="M150.728,174.578 C133.117,182.18 115.213,192.156 101,205 C88.3087,216.469 78.9152,233.204 72.6426,247.262 " fill="none" style="stroke: #A80036; stroke-width: 1.0;"/><polygon fill="#A80036" points="70.6348,251.916,77.8738,245.2379,72.6161,247.3253,70.5287,242.0677,70.6348,251.916" style="stroke: #A80036; stroke-width: 1.0;"/><text fill="#000000" font-family="sans-serif" font-size="13" lengthAdjust="spacingAndGlyphs" textLength="110" x="102" y="218.0669">crm:P2_has_type</text><path d="M221,175.231 C221,198.891 221,236.178 221,257.368 " fill="none" style="stroke: #A80036; stroke-width: 1.0;"/><polygon fill="#A80036" points="221,262.391,225,253.391,221,257.391,217,253.391,221,262.391" style="stroke: #A80036; stroke-width: 1.0;"/><text fill="#000000" font-family="sans-serif" font-size="13" lengthAdjust="spacingAndGlyphs" textLength="55" x="222" y="218.0669">rdf:value</text><path d="M253.597,175.231 C284.817,196.045 331.854,227.403 364.358,249.072 " fill="none" style="stroke: #A80036; stroke-width: 1.0;"/><polygon fill="#A80036" points="368.646,251.931,363.3757,243.6109,364.4855,249.1578,358.9386,250.2677,368.646,251.931" style="stroke: #A80036; stroke-width: 1.0;"/><text fill="#000000" font-family="sans-serif" font-size="13" lengthAdjust="spacingAndGlyphs" textLength="149" x="323" y="218.0669">crm:p1_is_identified_by</text><path d="M221,53.231 C221,73.365 221,103.366 221,124.919 " fill="none" style="stroke: #A80036; stroke-width: 1.0;"/><polygon fill="#A80036" points="221,129.931,225,120.931,221,124.931,217,120.931,221,129.931" style="stroke: #A80036; stroke-width: 1.0;"/><text fill="#000000" font-family="sans-serif" font-size="13" lengthAdjust="spacingAndGlyphs" textLength="122" x="222" y="96.0669">crm:P102_has_title</text><path d="M351.63,297.091 C339.824,304.746 328.708,314.62 322,327 C315.191,339.566 315.429,355.4122 317.601,368.6978 " fill="none" style="stroke: #A80036; stroke-width: 1.0;"/><polygon fill="#A80036" points="318.557,373.8395,320.8455,364.2602,317.6435,368.9236,312.9801,365.7217,318.557,373.8395" style="stroke: #A80036; stroke-width: 1.0;"/><text fill="#000000" font-family="sans-serif" font-size="13" lengthAdjust="spacingAndGlyphs" textLength="110" x="323" y="340.0669">crm:P2_has_type</text><path d="M417.364,297.201 C423.993,306.262 431.581,316.992 438,327 C449.284,344.5936 460.986,365.5767 468.59,379.6423 " fill="none" style="stroke: #A80036; stroke-width: 1.0;"/><polygon fill="#A80036" points="471.005,384.1323,470.2635,374.3114,468.6361,379.7291,463.2184,378.1016,471.005,384.1323" style="stroke: #A80036; stroke-width: 1.0;"/><text fill="#000000" font-family="sans-serif" font-size="13" lengthAdjust="spacingAndGlyphs" textLength="55" x="450" y="340.0669">rdf:value</text></g></svg>