<?xml version="1.0" encoding="UTF-8" standalone="no"?><svg xmlns="http://www.w3.org/2000/svg" xmlns:xlink="http://www.w3.org/1999/xlink" contentScriptType="application/ecmascript" contentStyleType="text/css" height="406px" preserveAspectRatio="none" style="width:442px;height:406px;" version="1.1" viewBox="0 0 442 406" width="442px" zoomAndPan="magnify"><defs><filter height="300%" id="fugf6ty" width="300%" x="-1" y="-1"><feGaussianBlur result="blurOut" stdDeviation="2.0"/><feColorMatrix in="blurOut" result="blurOut2" type="matrix" values="0 0 0 0 0 0 0 0 0 0 0 0 0 0 0 0 0 0 .4 0"/><feOffset dx="4.0" dy="4.0" in="blurOut2" result="blurOut3"/><feBlend in="SourceGraphic" in2="blurOut3" mode="normal"/></filter></defs><g><!--class _entity_uri_--><rect fill="#FEFECE" filter="url(#fugf6ty)" height="44.7734" style="stroke: #A80036; stroke-width: 1.5;" width="105" x="222.5" y="8"/><text fill="#000000" font-family="sans-serif" font-size="12" lengthAdjust="spacingAndGlyphs" textLength="77" x="236.5" y="24.1387">&lt;entity_uri&gt;</text><line style="stroke: #A80036; stroke-width: 1.5;" x1="223.5" x2="326.5" y1="31.9688" y2="31.9688"/><text fill="#000000" font-family="sans-serif" font-size="11" lengthAdjust="spacingAndGlyphs" textLength="93" x="228.5" y="46.1792">a crm:E39_Actor</text><!--class _actor_class_--><rect fill="#FEFECE" filter="url(#fugf6ty)" height="44.7734" style="stroke: #A80036; stroke-width: 1.5;" width="173" x="188.5" y="130"/><text fill="#000000" font-family="sans-serif" font-size="12" lengthAdjust="spacingAndGlyphs" textLength="91" x="229.5" y="146.1387">&lt;actor_class&gt;</text><line style="stroke: #A80036; stroke-width: 1.5;" x1="189.5" x2="360.5" y1="153.9688" y2="153.9688"/><text fill="#000000" font-family="sans-serif" font-size="11" lengthAdjust="spacingAndGlyphs" textLength="161" x="194.5" y="168.1792">a crm:E82_Actor_Appellation</text><!--class _preferred_name_type_url_--><rect fill="#FEFECE" filter="url(#fugf6ty)" height="44.7734" style="stroke: #A80036; stroke-width: 1.5;" width="181" x="84.5" y="252"/><text fill="#000000" font-family="sans-serif" font-size="12" lengthAdjust="spacingAndGlyphs" textLength="175" x="87.5" y="268.1387">&lt;preferred_name_type_url&gt;</text><line style="stroke: #A80036; stroke-width: 1.5;" x1="85.5" x2="264.5" y1="275.9688" y2="275.9688"/><text fill="#000000" font-family="sans-serif" font-size="11" lengthAdjust="spacingAndGlyphs" textLength="91" x="90.5" y="290.1792">a crm:E55_Type</text><!--class aac_types_sort_name_type--><rect fill="#FEFECE" filter="url(#fugf6ty)" height="23.9688" style="stroke: #A80036; stroke-width: 1.5;" width="172" x="6" y="374"/><text fill="#000000" font-family="sans-serif" font-size="12" lengthAdjust="spacingAndGlyphs" textLength="166" x="9" y="390.1387">aac_types:sort_name_type</text><!--class _type_label_--><rect fill="#FEFECE" filter="url(#fugf6ty)" height="23.9688" style="stroke: #A80036; stroke-width: 1.5;" width="89" x="213.5" y="374"/><text fill="#000000" font-family="sans-serif" font-size="12" lengthAdjust="spacingAndGlyphs" textLength="83" x="216.5" y="390.1387">&lt;type_label&gt;</text><!--class _actor_name_--><rect fill="#FEFECE" filter="url(#fugf6ty)" height="23.9688" style="stroke: #A80036; stroke-width: 1.5;" width="100" x="301" y="262.5"/><text fill="#000000" font-family="sans-serif" font-size="12" lengthAdjust="spacingAndGlyphs" textLength="94" x="304" y="278.6387">&lt;actor_name&gt;</text><path d="M275,53.231 C275,73.365 275,103.366 275,124.919 " fill="none" style="stroke: #A80036; stroke-width: 1.0;"/><polygon fill="#A80036" points="275,129.931,279,120.931,275,124.931,271,120.931,275,129.931" style="stroke: #A80036; stroke-width: 1.0;"/><text fill="#000000" font-family="sans-serif" font-size="13" lengthAdjust="spacingAndGlyphs" textLength="165" x="276" y="96.0669">crm:P131_is_identified_by</text><path d="M134.65,297.081 C123.157,305.056 111.685,315.1051 104,327 C95.9669,339.4329 93.1737,356.223 92.2675,368.5387 " fill="none" style="stroke: #A80036; stroke-width: 1.0;"/><polygon fill="#A80036" points="91.9719,373.8507,96.4661,365.087,92.2499,368.8584,88.4785,364.6422,91.9719,373.8507" style="stroke: #A80036; stroke-width: 1.0;"/><text fill="#000000" font-family="sans-serif" font-size="13" lengthAdjust="spacingAndGlyphs" textLength="109" x="105" y="340.0669">skos:broadMatch</text><path d="M194.412,297.094 C202.288,306.1391 211.319,316.8854 219,327 C229.495,340.8203 240.436,357.3006 248.049,369.1555 " fill="none" style="stroke: #A80036; stroke-width: 1.0;"/><polygon fill="#A80036" points="250.895,373.615,249.4236,363.8767,248.2045,369.4006,242.6806,368.1815,250.895,373.615" style="stroke: #A80036; stroke-width: 1.0;"/><text fill="#000000" font-family="sans-serif" font-size="13" lengthAdjust="spacingAndGlyphs" textLength="92" x="232" y="340.0669">skos:prefLabel</text><path d="M288.763,175.231 C303.875,199.092 327.764,236.811 341.122,257.903 " fill="none" style="stroke: #A80036; stroke-width: 1.0;"/><polygon fill="#A80036" points="343.964,262.391,342.5273,252.6475,341.2885,258.1671,335.7689,256.9283,343.964,262.391" style="stroke: #A80036; stroke-width: 1.0;"/><text fill="#000000" font-family="sans-serif" font-size="13" lengthAdjust="spacingAndGlyphs" textLength="58" x="319" y="218.0669">rdfs:label</text><path d="M223.49,175.047 C210.489,182.741 197.753,192.646 189,205 C180.451,217.066 176.868,233.161 175.461,246.718 " fill="none" style="stroke: #A80036; stroke-width: 1.0;"/><polygon fill="#A80036" points="175.009,251.967,179.7657,243.343,175.4376,246.9854,171.7952,242.6573,175.009,251.967" style="stroke: #A80036; stroke-width: 1.0;"/><text fill="#000000" font-family="sans-serif" font-size="13" lengthAdjust="spacingAndGlyphs" textLength="110" x="190" y="218.0669">crm:P2_has_type</text></g></svg>