<?xml version="1.0" encoding="UTF-8" standalone="no"?><svg xmlns="http://www.w3.org/2000/svg" xmlns:xlink="http://www.w3.org/1999/xlink" contentScriptType="application/ecmascript" contentStyleType="text/css" height="406px" preserveAspectRatio="none" style="width:426px;height:406px;" version="1.1" viewBox="0 0 426 406" width="426px" zoomAndPan="magnify"><defs><filter height="300%" id="fsm56ek" width="300%" x="-1" y="-1"><feGaussianBlur result="blurOut" stdDeviation="2.0"/><feColorMatrix in="blurOut" result="blurOut2" type="matrix" values="0 0 0 0 0 0 0 0 0 0 0 0 0 0 0 0 0 0 .4 0"/><feOffset dx="4.0" dy="4.0" in="blurOut2" result="blurOut3"/><feBlend in="SourceGraphic" in2="blurOut3" mode="normal"/></filter></defs><g><!--class _sort_name_type_class_--><rect fill="#FEFECE" filter="url(#fsm56ek)" height="44.7734" style="stroke: #A80036; stroke-width: 1.5;" width="163" x="91.5" y="252"/><text fill="#000000" font-family="sans-serif" font-size="12" lengthAdjust="spacingAndGlyphs" textLength="157" x="94.5" y="268.1387">&lt;sort_name_type_class&gt;</text><line style="stroke: #A80036; stroke-width: 1.5;" x1="92.5" x2="253.5" y1="275.9688" y2="275.9688"/><text fill="#000000" font-family="sans-serif" font-size="11" lengthAdjust="spacingAndGlyphs" textLength="91" x="97.5" y="290.1792">a crm:E55_Type</text><!--class aac_types_sort_name_type--><rect fill="#FEFECE" filter="url(#fsm56ek)" height="23.9688" style="stroke: #A80036; stroke-width: 1.5;" width="172" x="6" y="374"/><text fill="#000000" font-family="sans-serif" font-size="12" lengthAdjust="spacingAndGlyphs" textLength="166" x="9" y="390.1387">aac_types:sort_name_type</text><!--class _sort_type_--><rect fill="#FEFECE" filter="url(#fsm56ek)" height="23.9688" style="stroke: #A80036; stroke-width: 1.5;" width="84" x="213" y="374"/><text fill="#000000" font-family="sans-serif" font-size="12" lengthAdjust="spacingAndGlyphs" textLength="78" x="216" y="390.1387">&lt;sort_type&gt;</text><!--class _sort_name_class_--><rect fill="#FEFECE" filter="url(#fsm56ek)" height="44.7734" style="stroke: #A80036; stroke-width: 1.5;" width="173" x="172.5" y="130"/><text fill="#000000" font-family="sans-serif" font-size="12" lengthAdjust="spacingAndGlyphs" textLength="124" x="197" y="146.1387">&lt;sort_name_class&gt;</text><line style="stroke: #A80036; stroke-width: 1.5;" x1="173.5" x2="344.5" y1="153.9688" y2="153.9688"/><text fill="#000000" font-family="sans-serif" font-size="11" lengthAdjust="spacingAndGlyphs" textLength="161" x="178.5" y="168.1792">a crm:E82_Actor_Appellation</text><!--class _sort_name_--><rect fill="#FEFECE" filter="url(#fsm56ek)" height="23.9688" style="stroke: #A80036; stroke-width: 1.5;" width="92" x="290" y="262.5"/><text fill="#000000" font-family="sans-serif" font-size="12" lengthAdjust="spacingAndGlyphs" textLength="86" x="293" y="278.6387">&lt;sort_name&gt;</text><!--class _entity_uri_--><rect fill="#FEFECE" filter="url(#fsm56ek)" height="44.7734" style="stroke: #A80036; stroke-width: 1.5;" width="105" x="206.5" y="8"/><text fill="#000000" font-family="sans-serif" font-size="12" lengthAdjust="spacingAndGlyphs" textLength="77" x="220.5" y="24.1387">&lt;entity_uri&gt;</text><line style="stroke: #A80036; stroke-width: 1.5;" x1="207.5" x2="310.5" y1="31.9688" y2="31.9688"/><text fill="#000000" font-family="sans-serif" font-size="11" lengthAdjust="spacingAndGlyphs" textLength="93" x="212.5" y="46.1792">a crm:E39_Actor</text><path d="M131.34,297.004 C119.797,304.9229 108.413,314.9603 101,327 C93.3089,339.4907 91.4216,356.2736 91.243,368.5719 " fill="none" style="stroke: #A80036; stroke-width: 1.0;"/><polygon fill="#A80036" points="91.2664,373.8754,95.2265,364.8578,91.2443,368.8754,87.2266,364.8932,91.2664,373.8754" style="stroke: #A80036; stroke-width: 1.0;"/><text fill="#000000" font-family="sans-serif" font-size="13" lengthAdjust="spacingAndGlyphs" textLength="109" x="102" y="340.0669">skos:broadMatch</text><path d="M191.927,297.148 C199.616,306.2008 208.449,316.9388 216,327 C226.417,340.8796 237.367,357.3529 245.003,369.1902 " fill="none" style="stroke: #A80036; stroke-width: 1.0;"/><polygon fill="#A80036" points="247.86,373.6422,246.3665,363.9072,245.1599,369.4339,239.6332,368.2274,247.86,373.6422" style="stroke: #A80036; stroke-width: 1.0;"/><text fill="#000000" font-family="sans-serif" font-size="13" lengthAdjust="spacingAndGlyphs" textLength="92" x="229" y="340.0669">skos:prefLabel</text><path d="M275.857,175.149 C282.672,184.202 290.457,194.94 297,205 C308.395,222.522 320.076,243.519 327.645,257.607 " fill="none" style="stroke: #A80036; stroke-width: 1.0;"/><polygon fill="#A80036" points="330.047,262.105,329.3322,252.2821,327.6901,257.6954,322.2768,256.0532,330.047,262.105" style="stroke: #A80036; stroke-width: 1.0;"/><text fill="#000000" font-family="sans-serif" font-size="13" lengthAdjust="spacingAndGlyphs" textLength="58" x="309" y="218.0669">rdfs:label</text><path d="M208.282,175.007 C196.03,182.662 184.361,192.557 177,205 C169.665,217.401 168.368,233.373 169.041,246.775 " fill="none" style="stroke: #A80036; stroke-width: 1.0;"/><polygon fill="#A80036" points="169.403,251.962,172.7658,242.705,169.0544,246.9742,164.7852,243.2628,169.403,251.962" style="stroke: #A80036; stroke-width: 1.0;"/><text fill="#000000" font-family="sans-serif" font-size="13" lengthAdjust="spacingAndGlyphs" textLength="110" x="178" y="218.0669">crm:P2_has_type</text><path d="M259,53.231 C259,73.365 259,103.366 259,124.919 " fill="none" style="stroke: #A80036; stroke-width: 1.0;"/><polygon fill="#A80036" points="259,129.931,263,120.931,259,124.931,255,120.931,259,129.931" style="stroke: #A80036; stroke-width: 1.0;"/><text fill="#000000" font-family="sans-serif" font-size="13" lengthAdjust="spacingAndGlyphs" textLength="165" x="260" y="96.0669">crm:P131_is_identified_by</text></g></svg>