<?xml version="1.0" encoding="UTF-8" standalone="no"?><svg xmlns="http://www.w3.org/2000/svg" xmlns:xlink="http://www.w3.org/1999/xlink" contentScriptType="application/ecmascript" contentStyleType="text/css" height="549px" preserveAspectRatio="none" style="width:906px;height:549px;" version="1.1" viewBox="0 0 906 549" width="906px" zoomAndPan="magnify"><defs><filter height="300%" id="fxt5837" width="300%" x="-1" y="-1"><feGaussianBlur result="blurOut" stdDeviation="2.0"/><feColorMatrix in="blurOut" result="blurOut2" type="matrix" values="0 0 0 0 0 0 0 0 0 0 0 0 0 0 0 0 0 0 .4 0"/><feOffset dx="4.0" dy="4.0" in="blurOut2" result="blurOut3"/><feBlend in="SourceGraphic" in2="blurOut3" mode="normal"/></filter></defs><g><!--class _vase_--><rect fill="#FEFECE" filter="url(#fxt5837)" height="44.7734" style="stroke: #A80036; stroke-width: 1.5;" width="175" x="35" y="496"/><text fill="#000000" font-family="sans-serif" font-size="12" lengthAdjust="spacingAndGlyphs" textLength="49" x="98" y="512.1387">&lt;vase&gt;</text><line style="stroke: #A80036; stroke-width: 1.5;" x1="36" x2="209" y1="519.9688" y2="519.9688"/><text fill="#000000" font-family="sans-serif" font-size="11" lengthAdjust="spacingAndGlyphs" textLength="163" x="41" y="534.1792">a crm:E22_Man-Made_Object</text><!--class _transaction_of_candlestick_--><rect fill="#FEFECE" filter="url(#fxt5837)" height="44.7734" style="stroke: #A80036; stroke-width: 1.5;" width="309" x="569" y="374"/><text fill="#000000" font-family="sans-serif" font-size="12" lengthAdjust="spacingAndGlyphs" textLength="187" x="630" y="390.1387">&lt;transaction_of_candlestick&gt;</text><line style="stroke: #A80036; stroke-width: 1.5;" x1="570" x2="877" y1="397.9688" y2="397.9688"/><text fill="#000000" font-family="sans-serif" font-size="11" lengthAdjust="spacingAndGlyphs" textLength="297" x="575" y="412.1792">a crm:E8_Acquisition, crm:E10_Transfer_of_Custody</text><!--class _candlestick_--><rect fill="#FEFECE" filter="url(#fxt5837)" height="44.7734" style="stroke: #A80036; stroke-width: 1.5;" width="175" x="636" y="496"/><text fill="#000000" font-family="sans-serif" font-size="12" lengthAdjust="spacingAndGlyphs" textLength="91" x="678" y="512.1387">&lt;candlestick&gt;</text><line style="stroke: #A80036; stroke-width: 1.5;" x1="637" x2="810" y1="519.9688" y2="519.9688"/><text fill="#000000" font-family="sans-serif" font-size="11" lengthAdjust="spacingAndGlyphs" textLength="163" x="642" y="534.1792">a crm:E22_Man-Made_Object</text><!--class _sales_price_--><rect fill="#FEFECE" filter="url(#fxt5837)" height="44.7734" style="stroke: #A80036; stroke-width: 1.5;" width="119" x="71" y="374"/><text fill="#000000" font-family="sans-serif" font-size="12" lengthAdjust="spacingAndGlyphs" textLength="90" x="85.5" y="390.1387">&lt;sales_price&gt;</text><line style="stroke: #A80036; stroke-width: 1.5;" x1="72" x2="189" y1="397.9688" y2="397.9688"/><text fill="#000000" font-family="sans-serif" font-size="11" lengthAdjust="spacingAndGlyphs" textLength="107" x="77" y="412.1792">a crm:E97_Amount</text><!--class _sale_of_lot_--><rect fill="#FEFECE" filter="url(#fxt5837)" height="44.7734" style="stroke: #A80036; stroke-width: 1.5;" width="108" x="121.5" y="130"/><text fill="#000000" font-family="sans-serif" font-size="12" lengthAdjust="spacingAndGlyphs" textLength="86" x="132.5" y="146.1387">&lt;sale_of_lot&gt;</text><line style="stroke: #A80036; stroke-width: 1.5;" x1="122.5" x2="228.5" y1="153.9688" y2="153.9688"/><text fill="#000000" font-family="sans-serif" font-size="11" lengthAdjust="spacingAndGlyphs" textLength="96" x="127.5" y="168.1792">a crm:E7_Activity</text><!--class _purchase_transaction_--><rect fill="#FEFECE" filter="url(#fxt5837)" height="44.7734" style="stroke: #A80036; stroke-width: 1.5;" width="163" x="248" y="252"/><text fill="#000000" font-family="sans-serif" font-size="12" lengthAdjust="spacingAndGlyphs" textLength="157" x="251" y="268.1387">&lt;purchase_transaction&gt;</text><line style="stroke: #A80036; stroke-width: 1.5;" x1="249" x2="410" y1="275.9688" y2="275.9688"/><text fill="#000000" font-family="sans-serif" font-size="11" lengthAdjust="spacingAndGlyphs" textLength="117" x="254" y="290.1792">a crm:E96_Purchase</text><!--class _transaction_of_vase_--><rect fill="#FEFECE" filter="url(#fxt5837)" height="44.7734" style="stroke: #A80036; stroke-width: 1.5;" width="309" x="225" y="374"/><text fill="#000000" font-family="sans-serif" font-size="12" lengthAdjust="spacingAndGlyphs" textLength="145" x="307" y="390.1387">&lt;transaction_of_vase&gt;</text><line style="stroke: #A80036; stroke-width: 1.5;" x1="226" x2="533" y1="397.9688" y2="397.9688"/><text fill="#000000" font-family="sans-serif" font-size="11" lengthAdjust="spacingAndGlyphs" textLength="297" x="231" y="412.1792">a crm:E8_Acquisition, crm:E10_Transfer_of_Custody</text><!--class _lot_--><rect fill="#FEFECE" filter="url(#fxt5837)" height="44.7734" style="stroke: #A80036; stroke-width: 1.5;" width="131" x="6" y="8"/><text fill="#000000" font-family="sans-serif" font-size="12" lengthAdjust="spacingAndGlyphs" textLength="36" x="53.5" y="24.1387">&lt;lot&gt;</text><line style="stroke: #A80036; stroke-width: 1.5;" x1="7" x2="136" y1="31.9688" y2="31.9688"/><text fill="#000000" font-family="sans-serif" font-size="11" lengthAdjust="spacingAndGlyphs" textLength="119" x="12" y="46.1792">a crm:E78_Collection</text><path d="M723.5,419.231 C723.5,439.365 723.5,469.3661 723.5,490.9192 " fill="none" style="stroke: #A80036; stroke-width: 1.0;"/><polygon fill="#A80036" points="723.5,495.9306,727.5,486.9306,723.5,490.9306,719.5,486.9306,723.5,495.9306" style="stroke: #A80036; stroke-width: 1.0;"/><text fill="#000000" font-family="sans-serif" font-size="13" lengthAdjust="spacingAndGlyphs" textLength="181" x="724.5" y="462.0669">crm:P24_transferred_title_of</text><path d="M203.388,175.231 C229.99,195.96 270.014,227.147 297.81,248.806 " fill="none" style="stroke: #A80036; stroke-width: 1.0;"/><polygon fill="#A80036" points="301.819,251.931,297.1776,243.2444,297.8747,248.8581,292.261,249.5553,301.819,251.931" style="stroke: #A80036; stroke-width: 1.0;"/><text fill="#000000" font-family="sans-serif" font-size="13" lengthAdjust="spacingAndGlyphs" textLength="109" x="263.5" y="218.0669">crm:P9i_contains</text><path d="M338.555,297.231 C346.979,317.45 359.55,347.619 368.538,369.192 " fill="none" style="stroke: #A80036; stroke-width: 1.0;"/><polygon fill="#A80036" points="370.513,373.931,370.7444,364.0849,368.5902,369.3155,363.3596,367.1613,370.513,373.931" style="stroke: #A80036; stroke-width: 1.0;"/><text fill="#000000" font-family="sans-serif" font-size="13" lengthAdjust="spacingAndGlyphs" textLength="109" x="358.5" y="340.0669">crm:P9i_contains</text><path d="M400.394,297.092 C470.171,318.344 576.36,350.686 647.764,372.433 " fill="none" style="stroke: #A80036; stroke-width: 1.0;"/><polygon fill="#A80036" points="652.844,373.98,645.3987,367.5328,648.0606,372.5241,643.0693,375.1861,652.844,373.98" style="stroke: #A80036; stroke-width: 1.0;"/><text fill="#000000" font-family="sans-serif" font-size="13" lengthAdjust="spacingAndGlyphs" textLength="109" x="550.5" y="340.0669">crm:P9i_contains</text><path d="M247.715,291.039 C222.095,298.771 194.941,310.203 173.5,327 C159.498,337.97 148.824,354.856 141.613,369.118 " fill="none" style="stroke: #A80036; stroke-width: 1.0;"/><polygon fill="#A80036" points="139.301,373.841,146.8514,367.5171,141.4998,369.3504,139.6665,363.9989,139.301,373.841" style="stroke: #A80036; stroke-width: 1.0;"/><text fill="#000000" font-family="sans-serif" font-size="13" lengthAdjust="spacingAndGlyphs" textLength="169" x="174.5" y="340.0669">crm:p179_has_sales_price</text><path d="M333.257,419.092 C288.268,440.099 220.072,471.941 173.522,493.6763 " fill="none" style="stroke: #A80036; stroke-width: 1.0;"/><polygon fill="#A80036" points="168.805,495.8791,178.6521,495.6952,173.3353,493.7634,175.2671,488.4466,168.805,495.8791" style="stroke: #A80036; stroke-width: 1.0;"/><text fill="#000000" font-family="sans-serif" font-size="13" lengthAdjust="spacingAndGlyphs" textLength="181" x="267.5" y="462.0669">crm:P24_transferred_title_of</text><path d="M55.0048,53.186 C39.1244,76.267 17.5,114.49 17.5,151.5 C17.5,151.5 17.5,151.5 17.5,397.5 C17.5,438.133 52.0184,471.6205 81.4719,492.7986 " fill="none" style="stroke: #A80036; stroke-width: 1.0;"/><polygon fill="#A80036" points="85.7761,495.8333,80.7256,487.378,81.6897,492.9521,76.1156,493.9162,85.7761,495.8333" style="stroke: #A80036; stroke-width: 1.0;"/><text fill="#000000" font-family="sans-serif" font-size="13" lengthAdjust="spacingAndGlyphs" textLength="163" x="18.5" y="279.0669">crm:P46_is_composed_of</text><path d="M90.3336,53.231 C108.078,73.705 134.664,104.382 153.403,126.003 " fill="none" style="stroke: #A80036; stroke-width: 1.0;"/><polygon fill="#A80036" points="156.806,129.931,153.9351,120.5099,153.5316,126.1523,147.8892,125.7489,156.806,129.931" style="stroke: #A80036; stroke-width: 1.0;"/><text fill="#000000" font-family="sans-serif" font-size="13" lengthAdjust="spacingAndGlyphs" textLength="149" x="131.5" y="96.0669">crm:P16i_was_used_for</text></g></svg>