<?xml version="1.0" encoding="UTF-8" standalone="no"?><svg xmlns="http://www.w3.org/2000/svg" xmlns:xlink="http://www.w3.org/1999/xlink" contentScriptType="application/ecmascript" contentStyleType="text/css" height="364px" preserveAspectRatio="none" style="width:289px;height:364px;" version="1.1" viewBox="0 0 289 364" width="289px" zoomAndPan="magnify"><defs><filter height="300%" id="ftm9ps3" width="300%" x="-1" y="-1"><feGaussianBlur result="blurOut" stdDeviation="2.0"/><feColorMatrix in="blurOut" result="blurOut2" type="matrix" values="0 0 0 0 0 0 0 0 0 0 0 0 0 0 0 0 0 0 .4 0"/><feOffset dx="4.0" dy="4.0" in="blurOut2" result="blurOut3"/><feBlend in="SourceGraphic" in2="blurOut3" mode="normal"/></filter></defs><g><!--class _alt_website_url_--><rect fill="#FEFECE" filter="url(#ftm9ps3)" height="23.9688" style="stroke: #A80036; stroke-width: 1.5;" width="118" x="63" y="130"/><text fill="#000000" font-family="sans-serif" font-size="12" lengthAdjust="spacingAndGlyphs" textLength="112" x="66" y="146.1387">&lt;alt_website_url&gt;</text><!--class _alt_website_label_--><rect fill="#FEFECE" filter="url(#ftm9ps3)" height="23.9688" style="stroke: #A80036; stroke-width: 1.5;" width="132" x="6" y="231"/><text fill="#000000" font-family="sans-serif" font-size="12" lengthAdjust="spacingAndGlyphs" textLength="126" x="9" y="247.1387">&lt;alt_website_label&gt;</text><!--class _source_--><rect fill="#FEFECE" filter="url(#ftm9ps3)" height="23.9688" style="stroke: #A80036; stroke-width: 1.5;" width="69" x="173.5" y="231"/><text fill="#000000" font-family="sans-serif" font-size="12" lengthAdjust="spacingAndGlyphs" textLength="63" x="176.5" y="247.1387">&lt;source&gt;</text><!--class _entity_uri_--><rect fill="#FEFECE" filter="url(#ftm9ps3)" height="44.7734" style="stroke: #A80036; stroke-width: 1.5;" width="105" x="69.5" y="8"/><text fill="#000000" font-family="sans-serif" font-size="12" lengthAdjust="spacingAndGlyphs" textLength="77" x="83.5" y="24.1387">&lt;entity_uri&gt;</text><line style="stroke: #A80036; stroke-width: 1.5;" x1="70.5" x2="173.5" y1="31.9688" y2="31.9688"/><text fill="#000000" font-family="sans-serif" font-size="11" lengthAdjust="spacingAndGlyphs" textLength="93" x="75.5" y="46.1792">a crm:E39_Actor</text><!--class _alt_website_author_--><rect fill="#FEFECE" filter="url(#ftm9ps3)" height="23.9688" style="stroke: #A80036; stroke-width: 1.5;" width="144" x="136" y="332"/><text fill="#000000" font-family="sans-serif" font-size="12" lengthAdjust="spacingAndGlyphs" textLength="138" x="139" y="348.1387">&lt;alt_website_author&gt;</text><path d="M110.012,154.138 C102.3865,161.844 92.8758,172.709 87,184 C80.1715,197.121 76.3006,213.564 74.2087,225.588 " fill="none" style="stroke: #A80036; stroke-width: 1.0;"/><polygon fill="#A80036" points="73.3685,230.774,78.7569,222.5299,74.1685,225.8384,70.86,221.25,73.3685,230.774" style="stroke: #A80036; stroke-width: 1.0;"/><text fill="#000000" font-family="sans-serif" font-size="13" lengthAdjust="spacingAndGlyphs" textLength="58" x="88" y="197.0669">rdfs:label</text><path d="M131.865,154.357 C147.418,172.26 177.643,207.054 194.965,226.995 " fill="none" style="stroke: #A80036; stroke-width: 1.0;"/><polygon fill="#A80036" points="198.25,230.776,195.3677,221.3583,194.9711,227.0013,189.3281,226.6047,198.25,230.776" style="stroke: #A80036; stroke-width: 1.0;"/><text fill="#000000" font-family="sans-serif" font-size="13" lengthAdjust="spacingAndGlyphs" textLength="69" x="172" y="197.0669">foaf:maker</text><path d="M122,53.134 C122,74.213 122,105.783 122,124.787 " fill="none" style="stroke: #A80036; stroke-width: 1.0;"/><polygon fill="#A80036" points="122,129.795,126,120.795,122,124.795,118,120.795,122,129.795" style="stroke: #A80036; stroke-width: 1.0;"/><text fill="#000000" font-family="sans-serif" font-size="13" lengthAdjust="spacingAndGlyphs" textLength="60" x="123" y="96.0669">foaf:page</text><path d="M208,255.357 C208,272.8868 208,306.6117 208,326.7298 " fill="none" style="stroke: #A80036; stroke-width: 1.0;"/><polygon fill="#A80036" points="208,331.7759,212,322.7759,208,326.7759,204,322.7759,208,331.7759" style="stroke: #A80036; stroke-width: 1.0;"/><text fill="#000000" font-family="sans-serif" font-size="13" lengthAdjust="spacingAndGlyphs" textLength="65" x="209" y="298.0669">foaf:name</text></g></svg>