<?xml version="1.0" encoding="UTF-8" standalone="no"?><svg xmlns="http://www.w3.org/2000/svg" xmlns:xlink="http://www.w3.org/1999/xlink" contentScriptType="application/ecmascript" contentStyleType="text/css" height="549px" preserveAspectRatio="none" style="width:403px;height:549px;" version="1.1" viewBox="0 0 403 549" width="403px" zoomAndPan="magnify"><defs><filter height="300%" id="f9y9yvj" width="300%" x="-1" y="-1"><feGaussianBlur result="blurOut" stdDeviation="2.0"/><feColorMatrix in="blurOut" result="blurOut2" type="matrix" values="0 0 0 0 0 0 0 0 0 0 0 0 0 0 0 0 0 0 .4 0"/><feOffset dx="4.0" dy="4.0" in="blurOut2" result="blurOut3"/><feBlend in="SourceGraphic" in2="blurOut3" mode="normal"/></filter></defs><g><!--class aat_300404652--><rect fill="#FEFECE" filter="url(#f9y9yvj)" height="44.7734" style="stroke: #A80036; stroke-width: 1.5;" width="103" x="6" y="496"/><text fill="#000000" font-family="sans-serif" font-size="12" lengthAdjust="spacingAndGlyphs" textLength="97" x="9" y="512.1387">aat:300404652</text><line style="stroke: #A80036; stroke-width: 1.5;" x1="7" x2="108" y1="519.9688" y2="519.9688"/><text fill="#000000" font-family="sans-serif" font-size="11" lengthAdjust="spacingAndGlyphs" textLength="74" x="12" y="534.1792">"last names"</text><!--class _family_name_type_class_--><rect fill="#FEFECE" filter="url(#f9y9yvj)" height="44.7734" style="stroke: #A80036; stroke-width: 1.5;" width="173" x="48" y="374"/><text fill="#000000" font-family="sans-serif" font-size="12" lengthAdjust="spacingAndGlyphs" textLength="167" x="51" y="390.1387">&lt;family_name_type_class&gt;</text><line style="stroke: #A80036; stroke-width: 1.5;" x1="49" x2="220" y1="397.9688" y2="397.9688"/><text fill="#000000" font-family="sans-serif" font-size="11" lengthAdjust="spacingAndGlyphs" textLength="91" x="54" y="412.1792">a crm:E55_Type</text><!--class _family_name_type_--><rect fill="#FEFECE" filter="url(#f9y9yvj)" height="23.9688" style="stroke: #A80036; stroke-width: 1.5;" width="135" x="144" y="506.5"/><text fill="#000000" font-family="sans-serif" font-size="12" lengthAdjust="spacingAndGlyphs" textLength="129" x="147" y="522.6387">&lt;family_name_type&gt;</text><!--class _family_name_class_--><rect fill="#FEFECE" filter="url(#f9y9yvj)" height="44.7734" style="stroke: #A80036; stroke-width: 1.5;" width="173" x="144" y="252"/><text fill="#000000" font-family="sans-serif" font-size="12" lengthAdjust="spacingAndGlyphs" textLength="134" x="163.5" y="268.1387">&lt;family_name_class&gt;</text><line style="stroke: #A80036; stroke-width: 1.5;" x1="145" x2="316" y1="275.9688" y2="275.9688"/><text fill="#000000" font-family="sans-serif" font-size="11" lengthAdjust="spacingAndGlyphs" textLength="161" x="150" y="290.1792">a crm:E82_Actor_Appellation</text><!--class _family_name_--><rect fill="#FEFECE" filter="url(#f9y9yvj)" height="23.9688" style="stroke: #A80036; stroke-width: 1.5;" width="102" x="256.5" y="384.5"/><text fill="#000000" font-family="sans-serif" font-size="12" lengthAdjust="spacingAndGlyphs" textLength="96" x="259.5" y="400.6387">&lt;family_name&gt;</text><!--class _name_--><rect fill="#FEFECE" filter="url(#f9y9yvj)" height="44.7734" style="stroke: #A80036; stroke-width: 1.5;" width="173" x="144" y="130"/><text fill="#000000" font-family="sans-serif" font-size="12" lengthAdjust="spacingAndGlyphs" textLength="55" x="203" y="146.1387">&lt;name&gt;</text><line style="stroke: #A80036; stroke-width: 1.5;" x1="145" x2="316" y1="153.9688" y2="153.9688"/><text fill="#000000" font-family="sans-serif" font-size="11" lengthAdjust="spacingAndGlyphs" textLength="161" x="150" y="168.1792">a crm:E82_Actor_Appellation</text><!--class _entity_uri_--><rect fill="#FEFECE" filter="url(#f9y9yvj)" height="44.7734" style="stroke: #A80036; stroke-width: 1.5;" width="105" x="178" y="8"/><text fill="#000000" font-family="sans-serif" font-size="12" lengthAdjust="spacingAndGlyphs" textLength="77" x="192" y="24.1387">&lt;entity_uri&gt;</text><line style="stroke: #A80036; stroke-width: 1.5;" x1="179" x2="282" y1="31.9688" y2="31.9688"/><text fill="#000000" font-family="sans-serif" font-size="11" lengthAdjust="spacingAndGlyphs" textLength="93" x="184" y="46.1792">a crm:E39_Actor</text><path d="M86.7542,419.064 C75.0977,426.758 64.0929,436.659 57.5,449 C50.7721,461.5938 50.3549,477.4417 51.8089,490.7214 " fill="none" style="stroke: #A80036; stroke-width: 1.0;"/><polygon fill="#A80036" points="52.4764,495.8603,55.2836,486.42,51.8323,490.902,47.3503,487.4506,52.4764,495.8603" style="stroke: #A80036; stroke-width: 1.0;"/><text fill="#000000" font-family="sans-serif" font-size="13" lengthAdjust="spacingAndGlyphs" textLength="109" x="58.5" y="462.0669">skos:broadMatch</text><path d="M151.357,419.149 C158.172,428.202 165.957,438.94 172.5,449 C183.895,466.5217 195.576,487.5187 203.145,501.6072 " fill="none" style="stroke: #A80036; stroke-width: 1.0;"/><polygon fill="#A80036" points="205.547,506.1052,204.8342,496.2822,203.1909,501.6951,197.778,500.0519,205.547,506.1052" style="stroke: #A80036; stroke-width: 1.0;"/><text fill="#000000" font-family="sans-serif" font-size="13" lengthAdjust="spacingAndGlyphs" textLength="92" x="184.5" y="462.0669">skos:prefLabel</text><path d="M245.004,297.229 C251.076,306.387 258.178,317.181 264.5,327 C276.11,345.032 289.172,365.93 297.822,379.856 " fill="none" style="stroke: #A80036; stroke-width: 1.0;"/><polygon fill="#A80036" points="300.577,384.297,299.2315,374.5405,297.9411,380.0482,292.4334,378.7578,300.577,384.297" style="stroke: #A80036; stroke-width: 1.0;"/><text fill="#000000" font-family="sans-serif" font-size="13" lengthAdjust="spacingAndGlyphs" textLength="55" x="276.5" y="340.0669">rdf:value</text><path d="M177.632,297.264 C164.945,304.881 152.707,314.693 144.5,327 C136.436,339.094 133.759,355.05 133.18,368.519 " fill="none" style="stroke: #A80036; stroke-width: 1.0;"/><polygon fill="#A80036" points="133.052,373.737,137.2719,364.838,133.1749,368.7385,129.2743,364.6414,133.052,373.737" style="stroke: #A80036; stroke-width: 1.0;"/><text fill="#000000" font-family="sans-serif" font-size="13" lengthAdjust="spacingAndGlyphs" textLength="110" x="145.5" y="340.0669">crm:P2_has_type</text><path d="M230.5,175.231 C230.5,195.365 230.5,225.366 230.5,246.919 " fill="none" style="stroke: #A80036; stroke-width: 1.0;"/><polygon fill="#A80036" points="230.5,251.931,234.5,242.931,230.5,246.931,226.5,242.931,230.5,251.931" style="stroke: #A80036; stroke-width: 1.0;"/><text fill="#000000" font-family="sans-serif" font-size="13" lengthAdjust="spacingAndGlyphs" textLength="171" x="231.5" y="218.0669">crm:P106_is_composed_of</text><path d="M230.5,53.231 C230.5,73.365 230.5,103.366 230.5,124.919 " fill="none" style="stroke: #A80036; stroke-width: 1.0;"/><polygon fill="#A80036" points="230.5,129.931,234.5,120.931,230.5,124.931,226.5,120.931,230.5,129.931" style="stroke: #A80036; stroke-width: 1.0;"/><text fill="#000000" font-family="sans-serif" font-size="13" lengthAdjust="spacingAndGlyphs" textLength="165" x="231.5" y="96.0669">crm:P131_is_identified_by</text></g></svg>