<?xml version="1.0" encoding="UTF-8" standalone="no"?><svg xmlns="http://www.w3.org/2000/svg" xmlns:xlink="http://www.w3.org/1999/xlink" contentScriptType="application/ecmascript" contentStyleType="text/css" height="263px" preserveAspectRatio="none" style="width:160px;height:263px;" version="1.1" viewBox="0 0 160 263" width="160px" zoomAndPan="magnify"><defs><filter height="300%" id="faz4l2t" width="300%" x="-1" y="-1"><feGaussianBlur result="blurOut" stdDeviation="2.0"/><feColorMatrix in="blurOut" result="blurOut2" type="matrix" values="0 0 0 0 0 0 0 0 0 0 0 0 0 0 0 0 0 0 .4 0"/><feOffset dx="4.0" dy="4.0" in="blurOut2" result="blurOut3"/><feBlend in="SourceGraphic" in2="blurOut3" mode="normal"/></filter></defs><g><!--class _entity_uri_--><rect fill="#FEFECE" filter="url(#faz4l2t)" height="44.7734" style="stroke: #A80036; stroke-width: 1.5;" width="105" x="8.5" y="8"/><text fill="#000000" font-family="sans-serif" font-size="12" lengthAdjust="spacingAndGlyphs" textLength="77" x="22.5" y="24.1387">&lt;entity_uri&gt;</text><line style="stroke: #A80036; stroke-width: 1.5;" x1="9.5" x2="112.5" y1="31.9688" y2="31.9688"/><text fill="#000000" font-family="sans-serif" font-size="11" lengthAdjust="spacingAndGlyphs" textLength="93" x="14.5" y="46.1792">a crm:E39_Actor</text><!--class _website_url_--><rect fill="#FEFECE" filter="url(#faz4l2t)" height="23.9688" style="stroke: #A80036; stroke-width: 1.5;" width="96" x="13" y="130"/><text fill="#000000" font-family="sans-serif" font-size="12" lengthAdjust="spacingAndGlyphs" textLength="90" x="16" y="146.1387">&lt;website_url&gt;</text><!--class _website_label_--><rect fill="#FEFECE" filter="url(#faz4l2t)" height="23.9688" style="stroke: #A80036; stroke-width: 1.5;" width="110" x="6" y="231"/><text fill="#000000" font-family="sans-serif" font-size="12" lengthAdjust="spacingAndGlyphs" textLength="104" x="9" y="247.1387">&lt;website_label&gt;</text><path d="M61,53.134 C61,74.213 61,105.783 61,124.787 " fill="none" style="stroke: #A80036; stroke-width: 1.0;"/><polygon fill="#A80036" points="61,129.795,65,120.795,61,124.795,57,120.795,61,129.795" style="stroke: #A80036; stroke-width: 1.0;"/><text fill="#000000" font-family="sans-serif" font-size="13" lengthAdjust="spacingAndGlyphs" textLength="97" x="62" y="96.0669">foaf:homepage</text><path d="M61,154.357 C61,171.8868 61,205.6117 61,225.7298 " fill="none" style="stroke: #A80036; stroke-width: 1.0;"/><polygon fill="#A80036" points="61,230.7759,65,221.7759,61,225.7759,57,221.7759,61,230.7759" style="stroke: #A80036; stroke-width: 1.0;"/><text fill="#000000" font-family="sans-serif" font-size="13" lengthAdjust="spacingAndGlyphs" textLength="58" x="62" y="197.0669">rdfs:label</text></g></svg>