<?xml version="1.0" encoding="UTF-8" standalone="no"?><svg xmlns="http://www.w3.org/2000/svg" xmlns:xlink="http://www.w3.org/1999/xlink" contentScriptType="application/ecmascript" contentStyleType="text/css" height="549px" preserveAspectRatio="none" style="width:397px;height:549px;" version="1.1" viewBox="0 0 397 549" width="397px" zoomAndPan="magnify"><defs><filter height="300%" id="fjcov3z" width="300%" x="-1" y="-1"><feGaussianBlur result="blurOut" stdDeviation="2.0"/><feColorMatrix in="blurOut" result="blurOut2" type="matrix" values="0 0 0 0 0 0 0 0 0 0 0 0 0 0 0 0 0 0 .4 0"/><feOffset dx="4.0" dy="4.0" in="blurOut2" result="blurOut3"/><feBlend in="SourceGraphic" in2="blurOut3" mode="normal"/></filter></defs><g><!--class _name_prefix_class_--><rect fill="#FEFECE" filter="url(#fjcov3z)" height="44.7734" style="stroke: #A80036; stroke-width: 1.5;" width="173" x="18" y="252"/><text fill="#000000" font-family="sans-serif" font-size="12" lengthAdjust="spacingAndGlyphs" textLength="133" x="38" y="268.1387">&lt;name_prefix_class&gt;</text><line style="stroke: #A80036; stroke-width: 1.5;" x1="19" x2="190" y1="275.9688" y2="275.9688"/><text fill="#000000" font-family="sans-serif" font-size="11" lengthAdjust="spacingAndGlyphs" textLength="161" x="24" y="290.1792">a crm:E82_Actor_Appellation</text><!--class _name_prefix_--><rect fill="#FEFECE" filter="url(#fjcov3z)" height="23.9688" style="stroke: #A80036; stroke-width: 1.5;" width="101" x="6" y="384.5"/><text fill="#000000" font-family="sans-serif" font-size="12" lengthAdjust="spacingAndGlyphs" textLength="95" x="9" y="400.6387">&lt;name_prefix&gt;</text><!--class _name_prefix_type_class_--><rect fill="#FEFECE" filter="url(#fjcov3z)" height="44.7734" style="stroke: #A80036; stroke-width: 1.5;" width="172" x="142.5" y="374"/><text fill="#000000" font-family="sans-serif" font-size="12" lengthAdjust="spacingAndGlyphs" textLength="166" x="145.5" y="390.1387">&lt;name_prefix_type_class&gt;</text><line style="stroke: #A80036; stroke-width: 1.5;" x1="143.5" x2="313.5" y1="397.9688" y2="397.9688"/><text fill="#000000" font-family="sans-serif" font-size="11" lengthAdjust="spacingAndGlyphs" textLength="91" x="148.5" y="412.1792">a crm:E55_Type</text><!--class aat_300404845--><rect fill="#FEFECE" filter="url(#fjcov3z)" height="44.7734" style="stroke: #A80036; stroke-width: 1.5;" width="168" x="51.5" y="496"/><text fill="#000000" font-family="sans-serif" font-size="12" lengthAdjust="spacingAndGlyphs" textLength="97" x="87" y="512.1387">aat:300404845</text><line style="stroke: #A80036; stroke-width: 1.5;" x1="52.5" x2="218.5" y1="519.9688" y2="519.9688"/><text fill="#000000" font-family="sans-serif" font-size="11" lengthAdjust="spacingAndGlyphs" textLength="156" x="57.5" y="534.1792">"prefixes [name additions]"</text><!--class _name_--><rect fill="#FEFECE" filter="url(#fjcov3z)" height="44.7734" style="stroke: #A80036; stroke-width: 1.5;" width="173" x="18" y="130"/><text fill="#000000" font-family="sans-serif" font-size="12" lengthAdjust="spacingAndGlyphs" textLength="55" x="77" y="146.1387">&lt;name&gt;</text><line style="stroke: #A80036; stroke-width: 1.5;" x1="19" x2="190" y1="153.9688" y2="153.9688"/><text fill="#000000" font-family="sans-serif" font-size="11" lengthAdjust="spacingAndGlyphs" textLength="161" x="24" y="168.1792">a crm:E82_Actor_Appellation</text><!--class _entity_uri_--><rect fill="#FEFECE" filter="url(#fjcov3z)" height="44.7734" style="stroke: #A80036; stroke-width: 1.5;" width="105" x="52" y="8"/><text fill="#000000" font-family="sans-serif" font-size="12" lengthAdjust="spacingAndGlyphs" textLength="77" x="66" y="24.1387">&lt;entity_uri&gt;</text><line style="stroke: #A80036; stroke-width: 1.5;" x1="53" x2="156" y1="31.9688" y2="31.9688"/><text fill="#000000" font-family="sans-serif" font-size="11" lengthAdjust="spacingAndGlyphs" textLength="93" x="58" y="46.1792">a crm:E39_Actor</text><!--class _name_prefix_type_--><rect fill="#FEFECE" filter="url(#fjcov3z)" height="23.9688" style="stroke: #A80036; stroke-width: 1.5;" width="134" x="254.5" y="506.5"/><text fill="#000000" font-family="sans-serif" font-size="12" lengthAdjust="spacingAndGlyphs" textLength="128" x="257.5" y="522.6387">&lt;name_prefix_type&gt;</text><path d="M95.8076,297.231 C86.3034,320.992 71.3024,358.494 62.8453,379.637 " fill="none" style="stroke: #A80036; stroke-width: 1.0;"/><polygon fill="#A80036" points="60.9438,384.391,68.0004,377.5205,62.8009,379.7487,60.5727,374.5491,60.9438,384.391" style="stroke: #A80036; stroke-width: 1.0;"/><text fill="#000000" font-family="sans-serif" font-size="13" lengthAdjust="spacingAndGlyphs" textLength="55" x="84.5" y="340.0669">rdf:value</text><path d="M126.955,297.231 C148.199,317.79 180.074,348.636 202.431,370.272 " fill="none" style="stroke: #A80036; stroke-width: 1.0;"/><polygon fill="#A80036" points="206.212,373.931,202.5265,364.7977,202.6191,370.4538,196.963,370.5464,206.212,373.931" style="stroke: #A80036; stroke-width: 1.0;"/><text fill="#000000" font-family="sans-serif" font-size="13" lengthAdjust="spacingAndGlyphs" textLength="110" x="175.5" y="340.0669">crm:P2_has_type</text><path d="M104.5,175.231 C104.5,195.365 104.5,225.366 104.5,246.919 " fill="none" style="stroke: #A80036; stroke-width: 1.0;"/><polygon fill="#A80036" points="104.5,251.931,108.5,242.931,104.5,246.931,100.5,242.931,104.5,251.931" style="stroke: #A80036; stroke-width: 1.0;"/><text fill="#000000" font-family="sans-serif" font-size="13" lengthAdjust="spacingAndGlyphs" textLength="171" x="105.5" y="218.0669">crm:P106_is_composed_of</text><path d="M104.5,53.231 C104.5,73.365 104.5,103.366 104.5,124.919 " fill="none" style="stroke: #A80036; stroke-width: 1.0;"/><polygon fill="#A80036" points="104.5,129.931,108.5,120.931,104.5,124.931,100.5,120.931,104.5,129.931" style="stroke: #A80036; stroke-width: 1.0;"/><text fill="#000000" font-family="sans-serif" font-size="13" lengthAdjust="spacingAndGlyphs" textLength="165" x="105.5" y="96.0669">crm:P131_is_identified_by</text><path d="M197.85,419.052 C187.299,427.523 176.009,437.884 167.5,449 C157.836,461.6247 150.153,477.6376 144.74,491.0062 " fill="none" style="stroke: #A80036; stroke-width: 1.0;"/><polygon fill="#A80036" points="142.849,495.8007,149.8722,488.896,144.6835,491.1494,142.4301,485.9608,142.849,495.8007" style="stroke: #A80036; stroke-width: 1.0;"/><text fill="#000000" font-family="sans-serif" font-size="13" lengthAdjust="spacingAndGlyphs" textLength="109" x="168.5" y="462.0669">skos:broadMatch</text><path d="M254.231,419.18 C263.736,427.894 274.204,438.384 282.5,449 C295.521,465.6629 307.033,487.169 314.113,501.5996 " fill="none" style="stroke: #A80036; stroke-width: 1.0;"/><polygon fill="#A80036" points="316.34,506.205,316.0231,496.3612,314.1633,501.7037,308.8209,499.8439,316.34,506.205" style="stroke: #A80036; stroke-width: 1.0;"/><text fill="#000000" font-family="sans-serif" font-size="13" lengthAdjust="spacingAndGlyphs" textLength="92" x="295.5" y="462.0669">skos:prefLabel</text></g></svg>