<?xml version="1.0" encoding="UTF-8" standalone="no"?><svg xmlns="http://www.w3.org/2000/svg" xmlns:xlink="http://www.w3.org/1999/xlink" contentScriptType="application/ecmascript" contentStyleType="text/css" height="421px" preserveAspectRatio="none" style="width:308px;height:421px;" version="1.1" viewBox="0 0 308 421" width="308px" zoomAndPan="magnify"><defs><filter height="300%" id="f60zt4s" width="300%" x="-1" y="-1"><feGaussianBlur result="blurOut" stdDeviation="2.0"/><feColorMatrix in="blurOut" result="blurOut2" type="matrix" values="0 0 0 0 0 0 0 0 0 0 0 0 0 0 0 0 0 0 .4 0"/><feOffset dx="4.0" dy="4.0" in="blurOut2" result="blurOut3"/><feBlend in="SourceGraphic" in2="blurOut3" mode="normal"/></filter></defs><g><!--class _identifier_url_--><rect fill="#FEFECE" filter="url(#f60zt4s)" height="44.7734" style="stroke: #A80036; stroke-width: 1.5;" width="126" x="94" y="130"/><text fill="#000000" font-family="sans-serif" font-size="12" lengthAdjust="spacingAndGlyphs" textLength="97" x="108.5" y="146.1387">&lt;identifier_url&gt;</text><line style="stroke: #A80036; stroke-width: 1.5;" x1="95" x2="219" y1="153.9688" y2="153.9688"/><text fill="#000000" font-family="sans-serif" font-size="11" lengthAdjust="spacingAndGlyphs" textLength="114" x="100" y="168.1792">a crm:E42_Identifier</text><!--class _identifier_type_--><rect fill="#FEFECE" filter="url(#f60zt4s)" height="44.7734" style="stroke: #A80036; stroke-width: 1.5;" width="114" x="24" y="267"/><text fill="#000000" font-family="sans-serif" font-size="12" lengthAdjust="spacingAndGlyphs" textLength="108" x="27" y="283.1387">&lt;identifier_type&gt;</text><line style="stroke: #A80036; stroke-width: 1.5;" x1="25" x2="137" y1="290.9688" y2="290.9688"/><text fill="#000000" font-family="sans-serif" font-size="11" lengthAdjust="spacingAndGlyphs" textLength="91" x="30" y="305.1792">a crm:E55_Type</text><!--class _identifier_--><rect fill="#FEFECE" filter="url(#f60zt4s)" height="23.9688" style="stroke: #A80036; stroke-width: 1.5;" width="81" x="192.5" y="277.5"/><text fill="#000000" font-family="sans-serif" font-size="12" lengthAdjust="spacingAndGlyphs" textLength="75" x="195.5" y="293.6387">&lt;identifier&gt;</text><!--class _entity_uri_--><rect fill="#FEFECE" filter="url(#f60zt4s)" height="44.7734" style="stroke: #A80036; stroke-width: 1.5;" width="175" x="69.5" y="8"/><text fill="#000000" font-family="sans-serif" font-size="12" lengthAdjust="spacingAndGlyphs" textLength="77" x="118.5" y="24.1387">&lt;entity_uri&gt;</text><line style="stroke: #A80036; stroke-width: 1.5;" x1="70.5" x2="243.5" y1="31.9688" y2="31.9688"/><text fill="#000000" font-family="sans-serif" font-size="11" lengthAdjust="spacingAndGlyphs" textLength="163" x="75.5" y="46.1792">a crm:E22_Man-Made_Object</text><!--class _identifier_type_label_--><rect fill="#FEFECE" filter="url(#f60zt4s)" height="23.9688" style="stroke: #A80036; stroke-width: 1.5;" width="150" x="6" y="389"/><text fill="#000000" font-family="sans-serif" font-size="12" lengthAdjust="spacingAndGlyphs" textLength="144" x="9" y="405.1387">&lt;identifier_type_label&gt;</text><path d="M107.63,175.091 C95.824,182.746 84.7076,192.62 78,205 C68.6687,222.222 70.016,244.507 73.3728,261.723 " fill="none" style="stroke: #A80036; stroke-width: 1.0;"/><polygon fill="#A80036" points="74.4695,266.892,76.5156,257.258,73.4323,262.0008,68.6896,258.9175,74.4695,266.892" style="stroke: #A80036; stroke-width: 1.0;"/><text fill="#000000" font-family="sans-serif" font-size="13" lengthAdjust="spacingAndGlyphs" textLength="110" x="79" y="225.5669">crm:P2_has_type</text><path d="M173.96,175.201 C180.604,184.172 188.045,194.836 194,205 C207.194,227.519 219.408,255.243 226.535,272.396 " fill="none" style="stroke: #A80036; stroke-width: 1.0;"/><polygon fill="#A80036" points="228.578,277.362,228.8523,267.517,226.6753,272.7382,221.4541,270.5612,228.578,277.362" style="stroke: #A80036; stroke-width: 1.0;"/><text fill="#000000" font-family="sans-serif" font-size="13" lengthAdjust="spacingAndGlyphs" textLength="58" x="212" y="218.0669">rdfs:label</text><text fill="#000000" font-family="sans-serif" font-size="13" lengthAdjust="spacingAndGlyphs" textLength="55" x="213.5" y="233.1997">rdf:value</text><path d="M157,53.231 C157,73.365 157,103.366 157,124.919 " fill="none" style="stroke: #A80036; stroke-width: 1.0;"/><polygon fill="#A80036" points="157,129.931,161,120.931,157,124.931,153,120.931,157,129.931" style="stroke: #A80036; stroke-width: 1.0;"/><text fill="#000000" font-family="sans-serif" font-size="13" lengthAdjust="spacingAndGlyphs" textLength="149" x="158" y="96.0669">crm:P1_is_identified_by</text><path d="M81,312.134 C81,333.213 81,364.783 81,383.7869 " fill="none" style="stroke: #A80036; stroke-width: 1.0;"/><polygon fill="#A80036" points="81,388.7946,85,379.7946,81,383.7946,77,379.7946,81,388.7946" style="stroke: #A80036; stroke-width: 1.0;"/><text fill="#000000" font-family="sans-serif" font-size="13" lengthAdjust="spacingAndGlyphs" textLength="92" x="82" y="355.0669">skos:prefLabel</text></g></svg>