<?xml version="1.0" encoding="UTF-8" standalone="no"?><svg xmlns="http://www.w3.org/2000/svg" xmlns:xlink="http://www.w3.org/1999/xlink" contentScriptType="application/ecmascript" contentStyleType="text/css" height="549px" preserveAspectRatio="none" style="width:862px;height:549px;" version="1.1" viewBox="0 0 862 549" width="862px" zoomAndPan="magnify"><defs><filter height="300%" id="f3ip1ut" width="300%" x="-1" y="-1"><feGaussianBlur result="blurOut" stdDeviation="2.0"/><feColorMatrix in="blurOut" result="blurOut2" type="matrix" values="0 0 0 0 0 0 0 0 0 0 0 0 0 0 0 0 0 0 .4 0"/><feOffset dx="4.0" dy="4.0" in="blurOut2" result="blurOut3"/><feBlend in="SourceGraphic" in2="blurOut3" mode="normal"/></filter></defs><g><!--class aat_300387567--><rect fill="#FEFECE" filter="url(#f3ip1ut)" height="44.7734" style="stroke: #A80036; stroke-width: 1.5;" width="149" x="144" y="496"/><text fill="#000000" font-family="sans-serif" font-size="12" lengthAdjust="spacingAndGlyphs" textLength="97" x="170" y="512.1387">aat:300387567</text><line style="stroke: #A80036; stroke-width: 1.5;" x1="145" x2="292" y1="519.9688" y2="519.9688"/><text fill="#000000" font-family="sans-serif" font-size="11" lengthAdjust="spacingAndGlyphs" textLength="137" x="150" y="534.1792">"longitude [geographic]"</text><!--class _lng_--><rect fill="#FEFECE" filter="url(#f3ip1ut)" height="44.7734" style="stroke: #A80036; stroke-width: 1.5;" width="190" x="110.5" y="374"/><text fill="#000000" font-family="sans-serif" font-size="12" lengthAdjust="spacingAndGlyphs" textLength="39" x="186" y="390.1387">&lt;lng&gt;</text><line style="stroke: #A80036; stroke-width: 1.5;" x1="111.5" x2="299.5" y1="397.9688" y2="397.9688"/><text fill="#000000" font-family="sans-serif" font-size="11" lengthAdjust="spacingAndGlyphs" textLength="178" x="116.5" y="412.1792">a crm:E47_Spatial_Coordinates</text><!--class _creation_lng_--><rect fill="#FEFECE" filter="url(#f3ip1ut)" height="23.9688" style="stroke: #A80036; stroke-width: 1.5;" width="103" x="6" y="506.5"/><text fill="#000000" font-family="sans-serif" font-size="12" lengthAdjust="spacingAndGlyphs" textLength="97" x="9" y="522.6387">&lt;creation_lng&gt;</text><!--class _entity_uri_--><rect fill="#FEFECE" filter="url(#f3ip1ut)" height="44.7734" style="stroke: #A80036; stroke-width: 1.5;" width="175" x="343" y="8"/><text fill="#000000" font-family="sans-serif" font-size="12" lengthAdjust="spacingAndGlyphs" textLength="77" x="392" y="24.1387">&lt;entity_uri&gt;</text><line style="stroke: #A80036; stroke-width: 1.5;" x1="344" x2="517" y1="31.9688" y2="31.9688"/><text fill="#000000" font-family="sans-serif" font-size="11" lengthAdjust="spacingAndGlyphs" textLength="163" x="349" y="46.1792">a crm:E22_Man-Made_Object</text><!--class _production_event_--><rect fill="#FEFECE" filter="url(#f3ip1ut)" height="44.7734" style="stroke: #A80036; stroke-width: 1.5;" width="136" x="362.5" y="130"/><text fill="#000000" font-family="sans-serif" font-size="12" lengthAdjust="spacingAndGlyphs" textLength="129" x="366" y="146.1387">&lt;production_event&gt;</text><line style="stroke: #A80036; stroke-width: 1.5;" x1="363.5" x2="497.5" y1="153.9688" y2="153.9688"/><text fill="#000000" font-family="sans-serif" font-size="11" lengthAdjust="spacingAndGlyphs" textLength="124" x="368.5" y="168.1792">a crm:E12_Production</text><!--class _creation_lat_--><rect fill="#FEFECE" filter="url(#f3ip1ut)" height="23.9688" style="stroke: #A80036; stroke-width: 1.5;" width="100" x="667.5" y="506.5"/><text fill="#000000" font-family="sans-serif" font-size="12" lengthAdjust="spacingAndGlyphs" textLength="94" x="670.5" y="522.6387">&lt;creation_lat&gt;</text><!--class _creation_location_class_--><rect fill="#FEFECE" filter="url(#f3ip1ut)" height="44.7734" style="stroke: #A80036; stroke-width: 1.5;" width="172" x="344.5" y="252"/><text fill="#000000" font-family="sans-serif" font-size="12" lengthAdjust="spacingAndGlyphs" textLength="166" x="347.5" y="268.1387">&lt;creation_location_class&gt;</text><line style="stroke: #A80036; stroke-width: 1.5;" x1="345.5" x2="515.5" y1="275.9688" y2="275.9688"/><text fill="#000000" font-family="sans-serif" font-size="11" lengthAdjust="spacingAndGlyphs" textLength="94" x="350.5" y="290.1792">a crm:E53_Place</text><!--class aat_300312355--><rect fill="#FEFECE" filter="url(#f3ip1ut)" height="44.7734" style="stroke: #A80036; stroke-width: 1.5;" width="139" x="553" y="8"/><text fill="#000000" font-family="sans-serif" font-size="12" lengthAdjust="spacingAndGlyphs" textLength="97" x="574" y="24.1387">aat:300312355</text><line style="stroke: #A80036; stroke-width: 1.5;" x1="554" x2="691" y1="31.9688" y2="31.9688"/><text fill="#000000" font-family="sans-serif" font-size="11" lengthAdjust="spacingAndGlyphs" textLength="127" x="559" y="46.1792">"latitude [geographic]"</text><!--class _lat_--><rect fill="#FEFECE" filter="url(#f3ip1ut)" height="44.7734" style="stroke: #A80036; stroke-width: 1.5;" width="190" x="335.5" y="374"/><text fill="#000000" font-family="sans-serif" font-size="12" lengthAdjust="spacingAndGlyphs" textLength="36" x="412.5" y="390.1387">&lt;lat&gt;</text><line style="stroke: #A80036; stroke-width: 1.5;" x1="336.5" x2="524.5" y1="397.9688" y2="397.9688"/><text fill="#000000" font-family="sans-serif" font-size="11" lengthAdjust="spacingAndGlyphs" textLength="178" x="341.5" y="412.1792">a crm:E47_Spatial_Coordinates</text><!--class aat_300387565--><rect fill="#FEFECE" filter="url(#f3ip1ut)" height="23.9688" style="stroke: #A80036; stroke-width: 1.5;" width="103" x="379" y="506.5"/><text fill="#000000" font-family="sans-serif" font-size="12" lengthAdjust="spacingAndGlyphs" textLength="97" x="382" y="522.6387">aat:300387565</text><!--class _creation_location_name_--><rect fill="#FEFECE" filter="url(#f3ip1ut)" height="23.9688" style="stroke: #A80036; stroke-width: 1.5;" width="175" x="561" y="384.5"/><text fill="#000000" font-family="sans-serif" font-size="12" lengthAdjust="spacingAndGlyphs" textLength="169" x="564" y="400.6387">&lt;creation_location_name&gt;</text><path d="M207.854,419.231 C210.035,439.365 213.285,469.3661 215.62,490.9192 " fill="none" style="stroke: #A80036; stroke-width: 1.0;"/><polygon fill="#A80036" points="216.163,495.9306,219.1701,486.5521,215.6243,490.9597,211.2167,487.4139,216.163,495.9306" style="stroke: #A80036; stroke-width: 1.0;"/><text fill="#000000" font-family="sans-serif" font-size="13" lengthAdjust="spacingAndGlyphs" textLength="110" x="214.5" y="462.0669">crm:P2_has_type</text><path d="M178.698,419.231 C148.652,443.5931 100.7878,482.4018 75.1238,503.2105 " fill="none" style="stroke: #A80036; stroke-width: 1.0;"/><polygon fill="#A80036" points="71.2016,506.3906,80.7116,503.8295,75.0854,503.2416,75.6733,497.6154,71.2016,506.3906" style="stroke: #A80036; stroke-width: 1.0;"/><text fill="#000000" font-family="sans-serif" font-size="13" lengthAdjust="spacingAndGlyphs" textLength="55" x="141.5" y="462.0669">rdf:value</text><path d="M342.577,41.994 C232.301,57.66 57.5,91.893 57.5,151.5 C57.5,151.5 57.5,151.5 57.5,397.5 C57.5,434.531 57.5,477.9905 57.5,501.0986 " fill="none" style="stroke: #A80036; stroke-width: 1.0;"/><polygon fill="#A80036" points="57.5,506.25,61.5,497.25,57.5,501.25,53.5,497.25,57.5,506.25" style="stroke: #A80036; stroke-width: 1.0;"/><text fill="#000000" font-family="sans-serif" font-size="13" lengthAdjust="spacingAndGlyphs" textLength="82" x="58.5" y="279.0669">schema:long</text><path d="M430.5,53.231 C430.5,73.365 430.5,103.366 430.5,124.919 " fill="none" style="stroke: #A80036; stroke-width: 1.0;"/><polygon fill="#A80036" points="430.5,129.931,434.5,120.931,430.5,124.931,426.5,120.931,430.5,129.931" style="stroke: #A80036; stroke-width: 1.0;"/><text fill="#000000" font-family="sans-serif" font-size="13" lengthAdjust="spacingAndGlyphs" textLength="184" x="431.5" y="96.0669">crm:P108i_was_produced_by</text><path d="M518.321,51.974 C624.603,78.009 789.5,122.996 789.5,151.5 C789.5,151.5 789.5,151.5 789.5,397.5 C789.5,440.499 755.087,481.399 733.844,502.5502 " fill="none" style="stroke: #A80036; stroke-width: 1.0;"/><polygon fill="#A80036" points="730.041,506.2658,739.2729,502.8348,733.6164,502.7706,733.6807,497.1141,730.041,506.2658" style="stroke: #A80036; stroke-width: 1.0;"/><text fill="#000000" font-family="sans-serif" font-size="13" lengthAdjust="spacingAndGlyphs" textLength="71" x="790.5" y="279.0669">schema:lat</text><path d="M430.5,175.231 C430.5,195.365 430.5,225.366 430.5,246.919 " fill="none" style="stroke: #A80036; stroke-width: 1.0;"/><polygon fill="#A80036" points="430.5,251.931,434.5,242.931,430.5,246.931,426.5,242.931,430.5,251.931" style="stroke: #A80036; stroke-width: 1.0;"/><text fill="#000000" font-family="sans-serif" font-size="13" lengthAdjust="spacingAndGlyphs" textLength="141" x="431.5" y="218.0669">crm:P7_took_place_at</text><path d="M430.5,419.231 C430.5,442.8914 430.5,480.1779 430.5,501.3681 " fill="none" style="stroke: #A80036; stroke-width: 1.0;"/><polygon fill="#A80036" points="430.5,506.3906,434.5,497.3906,430.5,501.3906,426.5,497.3906,430.5,506.3906" style="stroke: #A80036; stroke-width: 1.0;"/><text fill="#000000" font-family="sans-serif" font-size="13" lengthAdjust="spacingAndGlyphs" textLength="110" x="431.5" y="462.0669">crm:P2_has_type</text><path d="M482.141,419.092 C541.431,443.8825 636.814,483.7637 685.967,504.3153 " fill="none" style="stroke: #A80036; stroke-width: 1.0;"/><polygon fill="#A80036" points="690.864,506.3629,684.1033,499.201,686.2509,504.4343,681.0176,506.5819,690.864,506.3629" style="stroke: #A80036; stroke-width: 1.0;"/><text fill="#000000" font-family="sans-serif" font-size="13" lengthAdjust="spacingAndGlyphs" textLength="55" x="592.5" y="462.0669">rdf:value</text><path d="M344.393,292.017 C317.057,299.811 287.678,311.032 263.5,327 C246.885,337.973 232.406,355.058 222.07,369.42 " fill="none" style="stroke: #A80036; stroke-width: 1.0;"/><polygon fill="#A80036" points="218.998,373.78,227.4519,368.7271,221.878,369.6928,220.9123,364.119,218.998,373.78" style="stroke: #A80036; stroke-width: 1.0;"/><text fill="#000000" font-family="sans-serif" font-size="13" lengthAdjust="spacingAndGlyphs" textLength="157" x="264.5" y="340.0669">crm:p87_is_identified_by</text><path d="M516.781,291.013 C544.278,298.753 573.71,310.196 597.5,327 C616.925,340.721 632.031,364.141 640.603,379.719 " fill="none" style="stroke: #A80036; stroke-width: 1.0;"/><polygon fill="#A80036" points="643.051,384.282,642.3199,374.4603,640.6867,379.8763,635.2707,378.2432,643.051,384.282" style="stroke: #A80036; stroke-width: 1.0;"/><text fill="#000000" font-family="sans-serif" font-size="13" lengthAdjust="spacingAndGlyphs" textLength="58" x="616.5" y="340.0669">rdfs:label</text><path d="M430.5,297.231 C430.5,317.365 430.5,347.366 430.5,368.919 " fill="none" style="stroke: #A80036; stroke-width: 1.0;"/><polygon fill="#A80036" points="430.5,373.931,434.5,364.931,430.5,368.931,426.5,364.931,430.5,373.931" style="stroke: #A80036; stroke-width: 1.0;"/><text fill="#000000" font-family="sans-serif" font-size="13" lengthAdjust="spacingAndGlyphs" textLength="157" x="431.5" y="340.0669">crm:p87_is_identified_by</text></g></svg>