<?xml version="1.0" encoding="UTF-8" standalone="no"?><svg xmlns="http://www.w3.org/2000/svg" xmlns:xlink="http://www.w3.org/1999/xlink" contentScriptType="application/ecmascript" contentStyleType="text/css" height="284px" preserveAspectRatio="none" style="width:314px;height:284px;" version="1.1" viewBox="0 0 314 284" width="314px" zoomAndPan="magnify"><defs><filter height="300%" id="fe0vdc8" width="300%" x="-1" y="-1"><feGaussianBlur result="blurOut" stdDeviation="2.0"/><feColorMatrix in="blurOut" result="blurOut2" type="matrix" values="0 0 0 0 0 0 0 0 0 0 0 0 0 0 0 0 0 0 .4 0"/><feOffset dx="4.0" dy="4.0" in="blurOut2" result="blurOut3"/><feBlend in="SourceGraphic" in2="blurOut3" mode="normal"/></filter></defs><g><!--class _collection_class_--><rect fill="#FEFECE" filter="url(#fe0vdc8)" height="44.7734" style="stroke: #A80036; stroke-width: 1.5;" width="131" x="92" y="130"/><text fill="#000000" font-family="sans-serif" font-size="12" lengthAdjust="spacingAndGlyphs" textLength="118" x="98.5" y="146.1387">&lt;collection_class&gt;</text><line style="stroke: #A80036; stroke-width: 1.5;" x1="93" x2="222" y1="153.9688" y2="153.9688"/><text fill="#000000" font-family="sans-serif" font-size="11" lengthAdjust="spacingAndGlyphs" textLength="119" x="98" y="168.1792">a crm:E78_Collection</text><!--class _lod_concept_term_--><rect fill="#FEFECE" filter="url(#fe0vdc8)" height="23.9688" style="stroke: #A80036; stroke-width: 1.5;" width="137" x="6" y="252"/><text fill="#000000" font-family="sans-serif" font-size="12" lengthAdjust="spacingAndGlyphs" textLength="131" x="9" y="268.1387">&lt;lod_concept_term&gt;</text><!--class _collection_name_--><rect fill="#FEFECE" filter="url(#fe0vdc8)" height="23.9688" style="stroke: #A80036; stroke-width: 1.5;" width="127" x="178" y="252"/><text fill="#000000" font-family="sans-serif" font-size="12" lengthAdjust="spacingAndGlyphs" textLength="121" x="181" y="268.1387">&lt;collection_name&gt;</text><!--class _entity_uri_--><rect fill="#FEFECE" filter="url(#fe0vdc8)" height="44.7734" style="stroke: #A80036; stroke-width: 1.5;" width="175" x="70" y="8"/><text fill="#000000" font-family="sans-serif" font-size="12" lengthAdjust="spacingAndGlyphs" textLength="77" x="119" y="24.1387">&lt;entity_uri&gt;</text><line style="stroke: #A80036; stroke-width: 1.5;" x1="71" x2="244" y1="31.9688" y2="31.9688"/><text fill="#000000" font-family="sans-serif" font-size="11" lengthAdjust="spacingAndGlyphs" textLength="163" x="76" y="46.1792">a crm:E22_Man-Made_Object</text><path d="M118.198,175.003 C106.752,183.0277 95.2543,193.1255 87.5,205 C79.3778,217.4378 76.2795,234.2273 75.1233,246.5415 " fill="none" style="stroke: #A80036; stroke-width: 1.0;"/><polygon fill="#A80036" points="74.7177,251.8528,79.3916,243.1836,75.0986,246.8673,71.4149,242.5743,74.7177,251.8528" style="stroke: #A80036; stroke-width: 1.0;"/><text fill="#000000" font-family="sans-serif" font-size="13" lengthAdjust="spacingAndGlyphs" textLength="109" x="88.5" y="218.0669">skos:broadMatch</text><path d="M177.398,175.04 C185.458,184.0762 194.688,194.831 202.5,205 C213.072,218.7618 224.003,235.2489 231.593,247.1213 " fill="none" style="stroke: #A80036; stroke-width: 1.0;"/><polygon fill="#A80036" points="234.431,251.5882,232.9813,241.8466,231.7499,247.3678,226.2287,246.1364,234.431,251.5882" style="stroke: #A80036; stroke-width: 1.0;"/><text fill="#000000" font-family="sans-serif" font-size="13" lengthAdjust="spacingAndGlyphs" textLength="92" x="214.5" y="218.0669">skos:prefLabel</text><path d="M157.5,53.231 C157.5,73.365 157.5,103.366 157.5,124.919 " fill="none" style="stroke: #A80036; stroke-width: 1.0;"/><polygon fill="#A80036" points="157.5,129.931,161.5,120.931,157.5,124.931,153.5,120.931,157.5,129.931" style="stroke: #A80036; stroke-width: 1.0;"/><text fill="#000000" font-family="sans-serif" font-size="13" lengthAdjust="spacingAndGlyphs" textLength="152" x="158.5" y="96.0669">crm:P46i_forms_part_of</text></g></svg>