<?xml version="1.0" encoding="UTF-8" standalone="no"?><svg xmlns="http://www.w3.org/2000/svg" xmlns:xlink="http://www.w3.org/1999/xlink" contentScriptType="application/ecmascript" contentStyleType="text/css" height="263px" preserveAspectRatio="none" style="width:168px;height:263px;" version="1.1" viewBox="0 0 168 263" width="168px" zoomAndPan="magnify"><defs><filter height="300%" id="f22zmqs" width="300%" x="-1" y="-1"><feGaussianBlur result="blurOut" stdDeviation="2.0"/><feColorMatrix in="blurOut" result="blurOut2" type="matrix" values="0 0 0 0 0 0 0 0 0 0 0 0 0 0 0 0 0 0 .4 0"/><feOffset dx="4.0" dy="4.0" in="blurOut2" result="blurOut3"/><feBlend in="SourceGraphic" in2="blurOut3" mode="normal"/></filter></defs><g><!--class _entity_uri_--><rect fill="#FEFECE" filter="url(#f22zmqs)" height="44.7734" style="stroke: #A80036; stroke-width: 1.5;" width="105" x="6.5" y="8"/><text fill="#000000" font-family="sans-serif" font-size="12" lengthAdjust="spacingAndGlyphs" textLength="77" x="20.5" y="24.1387">&lt;entity_uri&gt;</text><line style="stroke: #A80036; stroke-width: 1.5;" x1="7.5" x2="110.5" y1="31.9688" y2="31.9688"/><text fill="#000000" font-family="sans-serif" font-size="11" lengthAdjust="spacingAndGlyphs" textLength="93" x="12.5" y="46.1792">a crm:E39_Actor</text><!--class _lod_identifier_--><rect fill="#FEFECE" filter="url(#f22zmqs)" height="23.9688" style="stroke: #A80036; stroke-width: 1.5;" width="106" x="6" y="130"/><text fill="#000000" font-family="sans-serif" font-size="12" lengthAdjust="spacingAndGlyphs" textLength="100" x="9" y="146.1387">&lt;lod_identifier&gt;</text><!--class _label_--><rect fill="#FEFECE" filter="url(#f22zmqs)" height="23.9688" style="stroke: #A80036; stroke-width: 1.5;" width="56" x="31" y="231"/><text fill="#000000" font-family="sans-serif" font-size="12" lengthAdjust="spacingAndGlyphs" textLength="50" x="34" y="247.1387">&lt;label&gt;</text><path d="M59,53.134 C59,74.213 59,105.783 59,124.787 " fill="none" style="stroke: #A80036; stroke-width: 1.0;"/><polygon fill="#A80036" points="59,129.795,63,120.795,59,124.795,55,120.795,59,129.795" style="stroke: #A80036; stroke-width: 1.0;"/><text fill="#000000" font-family="sans-serif" font-size="13" lengthAdjust="spacingAndGlyphs" textLength="107" x="60" y="96.0669">skos:exactMatch</text><path d="M59,154.357 C59,171.8868 59,205.6117 59,225.7298 " fill="none" style="stroke: #A80036; stroke-width: 1.0; stroke-dasharray: 7.0,7.0;"/><polygon fill="#A80036" points="59,230.7759,63,221.7759,59,225.7759,55,221.7759,59,230.7759" style="stroke: #A80036; stroke-width: 1.0;"/><text fill="#000000" font-family="sans-serif" font-size="13" lengthAdjust="spacingAndGlyphs" textLength="58" x="60" y="197.0669">rdfs:label</text></g></svg>