<?xml version="1.0" encoding="UTF-8" standalone="no"?><svg xmlns="http://www.w3.org/2000/svg" xmlns:xlink="http://www.w3.org/1999/xlink" contentScriptType="application/ecmascript" contentStyleType="text/css" height="406px" preserveAspectRatio="none" style="width:491px;height:406px;" version="1.1" viewBox="0 0 491 406" width="491px" zoomAndPan="magnify"><defs><filter height="300%" id="fey047u" width="300%" x="-1" y="-1"><feGaussianBlur result="blurOut" stdDeviation="2.0"/><feColorMatrix in="blurOut" result="blurOut2" type="matrix" values="0 0 0 0 0 0 0 0 0 0 0 0 0 0 0 0 0 0 .4 0"/><feOffset dx="4.0" dy="4.0" in="blurOut2" result="blurOut3"/><feBlend in="SourceGraphic" in2="blurOut3" mode="normal"/></filter></defs><g><!--class aat_300179869--><rect fill="#FEFECE" filter="url(#fey047u)" height="44.7734" style="stroke: #A80036; stroke-width: 1.5;" width="195" x="193.5" y="252"/><text fill="#000000" font-family="sans-serif" font-size="12" lengthAdjust="spacingAndGlyphs" textLength="97" x="242.5" y="268.1387">aat:300179869</text><line style="stroke: #A80036; stroke-width: 1.5;" x1="194.5" x2="387.5" y1="275.9688" y2="275.9688"/><text fill="#000000" font-family="sans-serif" font-size="11" lengthAdjust="spacingAndGlyphs" textLength="183" x="199.5" y="290.1792">"Visual Works [hierarchy name]"</text><!--class _classification_class_--><rect fill="#FEFECE" filter="url(#fey047u)" height="44.7734" style="stroke: #A80036; stroke-width: 1.5;" width="145" x="7.5" y="252"/><text fill="#000000" font-family="sans-serif" font-size="12" lengthAdjust="spacingAndGlyphs" textLength="139" x="10.5" y="268.1387">&lt;classification_class&gt;</text><line style="stroke: #A80036; stroke-width: 1.5;" x1="8.5" x2="151.5" y1="275.9688" y2="275.9688"/><text fill="#000000" font-family="sans-serif" font-size="11" lengthAdjust="spacingAndGlyphs" textLength="91" x="13.5" y="290.1792">a crm:E55_Type</text><!--class _classification_name_--><rect fill="#FEFECE" filter="url(#fey047u)" height="23.9688" style="stroke: #A80036; stroke-width: 1.5;" width="148" x="6" y="374"/><text fill="#000000" font-family="sans-serif" font-size="12" lengthAdjust="spacingAndGlyphs" textLength="142" x="9" y="390.1387">&lt;classification_name&gt;</text><!--class _classification_event_--><rect fill="#FEFECE" filter="url(#fey047u)" height="44.7734" style="stroke: #A80036; stroke-width: 1.5;" width="176" x="203" y="130"/><text fill="#000000" font-family="sans-serif" font-size="12" lengthAdjust="spacingAndGlyphs" textLength="142" x="220" y="146.1387">&lt;classification_event&gt;</text><line style="stroke: #A80036; stroke-width: 1.5;" x1="204" x2="378" y1="153.9688" y2="153.9688"/><text fill="#000000" font-family="sans-serif" font-size="11" lengthAdjust="spacingAndGlyphs" textLength="164" x="209" y="168.1792">a crm:E17_Type_Assignment</text><!--class _entity_uri_--><rect fill="#FEFECE" filter="url(#fey047u)" height="44.7734" style="stroke: #A80036; stroke-width: 1.5;" width="175" x="54.5" y="8"/><text fill="#000000" font-family="sans-serif" font-size="12" lengthAdjust="spacingAndGlyphs" textLength="77" x="103.5" y="24.1387">&lt;entity_uri&gt;</text><line style="stroke: #A80036; stroke-width: 1.5;" x1="55.5" x2="228.5" y1="31.9688" y2="31.9688"/><text fill="#000000" font-family="sans-serif" font-size="11" lengthAdjust="spacingAndGlyphs" textLength="163" x="60.5" y="46.1792">a crm:E22_Man-Made_Object</text><path d="M80,297.134 C80,318.213 80,349.783 80,368.7869 " fill="none" style="stroke: #A80036; stroke-width: 1.0;"/><polygon fill="#A80036" points="80,373.7946,84,364.7946,80,368.7946,76,364.7946,80,373.7946" style="stroke: #A80036; stroke-width: 1.0;"/><text fill="#000000" font-family="sans-serif" font-size="13" lengthAdjust="spacingAndGlyphs" textLength="58" x="81" y="340.0669">rdfs:label</text><path d="M291,175.231 C291,195.365 291,225.366 291,246.919 " fill="none" style="stroke: #A80036; stroke-width: 1.0;"/><polygon fill="#A80036" points="291,251.931,295,242.931,291,246.931,287,242.931,291,251.931" style="stroke: #A80036; stroke-width: 1.0;"/><text fill="#000000" font-family="sans-serif" font-size="13" lengthAdjust="spacingAndGlyphs" textLength="198" x="292" y="218.0669">crm:P21_had_general_purpose</text><path d="M227.214,175.066 C206.426,183.209 183.653,193.361 164,205 C143.402,217.199 122.532,234.19 106.747,248.197 " fill="none" style="stroke: #A80036; stroke-width: 1.0;"/><polygon fill="#A80036" points="102.8463,251.69,112.2191,248.665,106.5708,248.3541,106.8817,242.7058,102.8463,251.69" style="stroke: #A80036; stroke-width: 1.0;"/><text fill="#000000" font-family="sans-serif" font-size="13" lengthAdjust="spacingAndGlyphs" textLength="117" x="165" y="218.0669">crm:P42_assigned</text><path d="M127.89,53.177 C116.094,72.49 99.9598,101.958 92,130 C80.8177,169.395 79.0326,217.128 79.1971,246.399 " fill="none" style="stroke: #A80036; stroke-width: 1.0;"/><polygon fill="#A80036" points="79.2487,251.643,83.1585,242.6035,79.1987,246.6432,75.1589,242.6834,79.2487,251.643" style="stroke: #A80036; stroke-width: 1.0;"/><text fill="#000000" font-family="sans-serif" font-size="13" lengthAdjust="spacingAndGlyphs" textLength="92" x="93" y="157.0669">schema:genre</text><path d="M168.983,53.231 C194.615,73.875 233.128,104.891 260.008,126.54 " fill="none" style="stroke: #A80036; stroke-width: 1.0;"/><polygon fill="#A80036" points="264.218,129.931,259.7186,121.17,260.3243,126.7943,254.6999,127.3999,264.218,129.931" style="stroke: #A80036; stroke-width: 1.0;"/><text fill="#000000" font-family="sans-serif" font-size="13" lengthAdjust="spacingAndGlyphs" textLength="174" x="226" y="96.0669">crm:P41i_was_classified_by</text></g></svg>