<?xml version="1.0" encoding="UTF-8" standalone="no"?><svg xmlns="http://www.w3.org/2000/svg" xmlns:xlink="http://www.w3.org/1999/xlink" contentScriptType="application/ecmascript" contentStyleType="text/css" height="428px" preserveAspectRatio="none" style="width:648px;height:428px;" version="1.1" viewBox="0 0 648 428" width="648px" zoomAndPan="magnify"><defs><filter height="300%" id="fim8rp8" width="300%" x="-1" y="-1"><feGaussianBlur result="blurOut" stdDeviation="2.0"/><feColorMatrix in="blurOut" result="blurOut2" type="matrix" values="0 0 0 0 0 0 0 0 0 0 0 0 0 0 0 0 0 0 .4 0"/><feOffset dx="4.0" dy="4.0" in="blurOut2" result="blurOut3"/><feBlend in="SourceGraphic" in2="blurOut3" mode="normal"/></filter></defs><g><!--class _preferred_title_type_uri_--><rect fill="#FEFECE" filter="url(#fim8rp8)" height="44.7734" style="stroke: #A80036; stroke-width: 1.5;" width="170" x="302" y="256.5"/><text fill="#000000" font-family="sans-serif" font-size="12" lengthAdjust="spacingAndGlyphs" textLength="164" x="305" y="272.6387">&lt;preferred_title_type_uri&gt;</text><line style="stroke: #A80036; stroke-width: 1.5;" x1="303" x2="471" y1="280.4688" y2="280.4688"/><text fill="#000000" font-family="sans-serif" font-size="11" lengthAdjust="spacingAndGlyphs" textLength="91" x="308" y="294.6792">a crm:E55_Type</text><!--class _http___vocab_americanartcollaborative_org_titles_primary_title_type_--><rect fill="#FEFECE" filter="url(#fim8rp8)" height="23.9688" style="stroke: #A80036; stroke-width: 1.5;" width="440" x="6" y="396"/><text fill="#000000" font-family="sans-serif" font-size="12" lengthAdjust="spacingAndGlyphs" textLength="434" x="9" y="412.1387">&lt;http://vocab.americanartcollaborative.org/titles#primary_title_type&gt;</text><!--class _primary_title_type_--><rect fill="#FEFECE" filter="url(#fim8rp8)" height="23.9688" style="stroke: #A80036; stroke-width: 1.5;" width="135" x="481.75" y="396"/><text fill="#000000" font-family="sans-serif" font-size="12" lengthAdjust="spacingAndGlyphs" textLength="129" x="484.75" y="412.1387">&lt;primary_title_type&gt;</text><!--class _entity_uri_--><rect fill="#FEFECE" filter="url(#fim8rp8)" height="44.7734" style="stroke: #A80036; stroke-width: 1.5;" width="175" x="408.75" y="8.5"/><text fill="#000000" font-family="sans-serif" font-size="12" lengthAdjust="spacingAndGlyphs" textLength="77" x="457.75" y="24.6387">&lt;entity_uri&gt;</text><line style="stroke: #A80036; stroke-width: 1.5;" x1="409.75" x2="582.75" y1="32.4688" y2="32.4688"/><text fill="#000000" font-family="sans-serif" font-size="11" lengthAdjust="spacingAndGlyphs" textLength="163" x="414.75" y="46.6792">a crm:E22_Man-Made_Object</text><!--class _primary_title_uri_--><rect fill="#FEFECE" filter="url(#fim8rp8)" height="44.7734" style="stroke: #A80036; stroke-width: 1.5;" width="124" x="434" y="132.5"/><text fill="#000000" font-family="sans-serif" font-size="12" lengthAdjust="spacingAndGlyphs" textLength="118" x="437" y="148.6387">&lt;primary_title_uri&gt;</text><line style="stroke: #A80036; stroke-width: 1.5;" x1="435" x2="557" y1="156.4688" y2="156.4688"/><text fill="#000000" font-family="sans-serif" font-size="11" lengthAdjust="spacingAndGlyphs" textLength="88" x="440" y="170.6792">a crm:E35_Title</text><!--class _primary_title_text_--><rect fill="#FEFECE" filter="url(#fim8rp8)" height="23.9688" style="stroke: #A80036; stroke-width: 1.5;" width="132" x="507" y="267"/><text fill="#000000" font-family="sans-serif" font-size="12" lengthAdjust="spacingAndGlyphs" textLength="126" x="510" y="283.1387">&lt;primary_title_text&gt;</text><path d="M359.689,301.544 C326.682,327.5801 272.082,370.6499 243.963,392.8301 " fill="none" style="stroke: #A80036; stroke-width: 1.0;"/><polygon fill="#A80036" points="240.013,395.9466,249.5563,393.5125,243.9384,392.8497,244.6012,387.2318,240.013,395.9466" style="stroke: #A80036; stroke-width: 1.0;"/><text fill="#000000" font-family="sans-serif" font-size="13" lengthAdjust="spacingAndGlyphs" textLength="109" x="322" y="353.0669">skos:broadMatch</text><path d="M414.481,301.544 C447.693,327.5801 502.632,370.6499 530.925,392.8301 " fill="none" style="stroke: #A80036; stroke-width: 1.0;"/><polygon fill="#A80036" points="534.9,395.9466,530.2842,387.2464,530.9648,392.8621,525.349,393.5427,534.9,395.9466" style="stroke: #A80036; stroke-width: 1.0;"/><text fill="#000000" font-family="sans-serif" font-size="13" lengthAdjust="spacingAndGlyphs" textLength="58" x="515" y="345.5669">rdfs:label</text><text fill="#000000" font-family="sans-serif" font-size="13" lengthAdjust="spacingAndGlyphs" textLength="92" x="498" y="360.6997">skos:prefLabel</text><path d="M496,53.53 C496,74.049 496,105.009 496,127.134 " fill="none" style="stroke: #A80036; stroke-width: 1.0;"/><polygon fill="#A80036" points="496,132.275,500,123.275,496,127.275,492,123.275,496,132.275" style="stroke: #A80036; stroke-width: 1.0;"/><text fill="#000000" font-family="sans-serif" font-size="13" lengthAdjust="spacingAndGlyphs" textLength="122" x="497" y="97.0669">crm:P102_has_title</text><path d="M446.077,177.559 C432.479,185.453 418.813,195.57 409,208 C399.228,220.378 393.762,237.154 390.723,251.18 " fill="none" style="stroke: #A80036; stroke-width: 1.0;"/><polygon fill="#A80036" points="389.71,256.209,395.4104,248.1775,390.6985,251.3077,387.5683,246.5958,389.71,256.209" style="stroke: #A80036; stroke-width: 1.0;"/><text fill="#000000" font-family="sans-serif" font-size="13" lengthAdjust="spacingAndGlyphs" textLength="110" x="410" y="221.0669">crm:P2_has_type</text><path d="M509.589,177.53 C524.986,201.926 549.699,241.082 563.28,262.599 " fill="none" style="stroke: #A80036; stroke-width: 1.0;"/><polygon fill="#A80036" points="566.002,266.912,564.5815,257.1661,563.3335,262.6836,557.8161,261.4357,566.002,266.912" style="stroke: #A80036; stroke-width: 1.0;"/><text fill="#000000" font-family="sans-serif" font-size="13" lengthAdjust="spacingAndGlyphs" textLength="58" x="541" y="221.0669">rdfs:label</text></g></svg>