<?xml version="1.0" encoding="UTF-8" standalone="no"?><svg xmlns="http://www.w3.org/2000/svg" xmlns:xlink="http://www.w3.org/1999/xlink" contentScriptType="application/ecmascript" contentStyleType="text/css" height="745px" preserveAspectRatio="none" style="width:9080px;height:745px;" version="1.1" viewBox="0 0 9080 745" width="9080px" zoomAndPan="magnify"><defs><filter height="300%" id="fo2dfp2" width="300%" x="-1" y="-1"><feGaussianBlur result="blurOut" stdDeviation="2.0"/><feColorMatrix in="blurOut" result="blurOut2" type="matrix" values="0 0 0 0 0 0 0 0 0 0 0 0 0 0 0 0 0 0 .4 0"/><feOffset dx="4.0" dy="4.0" in="blurOut2" result="blurOut3"/><feBlend in="SourceGraphic" in2="blurOut3" mode="normal"/></filter></defs><g><!--class _http___ycba_org5002_prov_1_--><rect fill="#FEFECE" filter="url(#fo2dfp2)" height="44.7734" style="stroke: #A80036; stroke-width: 1.5;" width="388" x="925" y="284.5"/><text fill="#000000" font-family="sans-serif" font-size="12" lengthAdjust="spacingAndGlyphs" textLength="189" x="1024.5" y="300.6387">&lt;http://ycba.org5002_prov-1&gt;</text><line style="stroke: #A80036; stroke-width: 1.5;" x1="926" x2="1312" y1="308.4688" y2="308.4688"/><text fill="#000000" font-family="sans-serif" font-size="11" lengthAdjust="spacingAndGlyphs" textLength="46" x="931" y="322.6792">a &lt;http:</text><text fill="#000000" font-family="sans-serif" font-size="11" font-style="italic" lengthAdjust="spacingAndGlyphs" textLength="218" x="977" y="322.6792">crmE10_Transfer_of_Custody&gt;, &lt;http:</text><text fill="#000000" font-family="sans-serif" font-size="11" lengthAdjust="spacingAndGlyphs" textLength="112" x="1195" y="322.6792">crmE8_Acquisition&gt;</text><!--class _http___ycba_org5002_--><rect fill="#FEFECE" filter="url(#fo2dfp2)" height="57.5781" style="stroke: #A80036; stroke-width: 1.5;" width="245" x="5039.5" y="428"/><text fill="#000000" font-family="sans-serif" font-size="12" lengthAdjust="spacingAndGlyphs" textLength="144" x="5090" y="444.1387">&lt;http://ycba.org5002&gt;</text><line style="stroke: #A80036; stroke-width: 1.5;" x1="5040.5" x2="5283.5" y1="451.9688" y2="451.9688"/><text fill="#000000" font-family="sans-serif" font-size="11" lengthAdjust="spacingAndGlyphs" textLength="211" x="5045.5" y="466.1792">a &lt;http://crmE22_Man-Made_Object&gt;</text><text fill="#000000" font-family="sans-serif" font-size="11" lengthAdjust="spacingAndGlyphs" textLength="233" x="5045.5" y="478.9839">&lt;http://crmrlabel&gt; "The Earl of Newport"</text><!--class _http___ycba_org_partiessecond_earl_of_newport_--><rect fill="#FEFECE" filter="url(#fo2dfp2)" height="23.9688" style="stroke: #A80036; stroke-width: 1.5;" width="317" x="1245.5" y="445"/><text fill="#000000" font-family="sans-serif" font-size="12" lengthAdjust="spacingAndGlyphs" textLength="311" x="1248.5" y="461.1387">&lt;http://ycba.org/partiessecond_earl_of_newport&gt;</text><!--class _http___ycba_org_partiesfirst_earl_of_newport_--><rect fill="#FEFECE" filter="url(#fo2dfp2)" height="23.9688" style="stroke: #A80036; stroke-width: 1.5;" width="295" x="276.5" y="445"/><text fill="#000000" font-family="sans-serif" font-size="12" lengthAdjust="spacingAndGlyphs" textLength="289" x="279.5" y="461.1387">&lt;http://ycba.org/partiesfirst_earl_of_newport&gt;</text><!--class _aaaby_descent_--><rect fill="#FEFECE" filter="url(#fo2dfp2)" height="23.9688" style="stroke: #A80036; stroke-width: 1.5;" width="121" x="2617.5" y="445"/><text fill="#000000" font-family="sans-serif" font-size="12" lengthAdjust="spacingAndGlyphs" textLength="115" x="2620.5" y="461.1387">&lt;aaaby_descent&gt;</text><!--class _5002_initial_ownership_--><rect fill="#FEFECE" filter="url(#fo2dfp2)" height="23.9688" style="stroke: #A80036; stroke-width: 1.5;" width="167" x="787.5" y="445"/><text fill="#000000" font-family="sans-serif" font-size="12" lengthAdjust="spacingAndGlyphs" textLength="161" x="790.5" y="461.1387">&lt;5002_initial_ownership&gt;</text><!--class _http___ycba_org5002_prov_2_--><rect fill="#FEFECE" filter="url(#fo2dfp2)" height="57.5781" style="stroke: #A80036; stroke-width: 1.5;" width="654" x="1771" y="278"/><text fill="#000000" font-family="sans-serif" font-size="12" lengthAdjust="spacingAndGlyphs" textLength="189" x="2003.5" y="294.1387">&lt;http://ycba.org5002_prov-2&gt;</text><line style="stroke: #A80036; stroke-width: 1.5;" x1="1772" x2="2424" y1="301.9688" y2="301.9688"/><text fill="#000000" font-family="sans-serif" font-size="11" lengthAdjust="spacingAndGlyphs" textLength="46" x="1777" y="316.1792">a &lt;http:</text><text fill="#000000" font-family="sans-serif" font-size="11" font-style="italic" lengthAdjust="spacingAndGlyphs" textLength="218" x="1823" y="316.1792">crmE10_Transfer_of_Custody&gt;, &lt;http:</text><text fill="#000000" font-family="sans-serif" font-size="11" lengthAdjust="spacingAndGlyphs" textLength="112" x="2041" y="316.1792">crmE8_Acquisition&gt;</text><text fill="#000000" font-family="sans-serif" font-size="11" lengthAdjust="spacingAndGlyphs" textLength="642" x="1777" y="328.9839">&lt;http://crmP3_has_note&gt; "Earls of Newport by descent to 4th Earl, who died in 1679, when title became extinct"</text><!--class _http___ycba_org_partiesthird_earl_of_newport_--><rect fill="#FEFECE" filter="url(#fo2dfp2)" height="23.9688" style="stroke: #A80036; stroke-width: 1.5;" width="300" x="3294" y="445"/><text fill="#000000" font-family="sans-serif" font-size="12" lengthAdjust="spacingAndGlyphs" textLength="294" x="3297" y="461.1387">&lt;http://ycba.org/partiesthird_earl_of_newport&gt;</text><!--class _5002_prov_1_--><rect fill="#FEFECE" filter="url(#fo2dfp2)" height="23.9688" style="stroke: #A80036; stroke-width: 1.5;" width="103" x="1760.5" y="445"/><text fill="#000000" font-family="sans-serif" font-size="12" lengthAdjust="spacingAndGlyphs" textLength="97" x="1763.5" y="461.1387">&lt;5002_prov-1&gt;</text><!--class _http___ycba_org5002_initial_ownership_--><rect fill="#FEFECE" filter="url(#fo2dfp2)" height="57.5781" style="stroke: #A80036; stroke-width: 1.5;" width="654" x="87" y="278"/><text fill="#000000" font-family="sans-serif" font-size="12" lengthAdjust="spacingAndGlyphs" textLength="253" x="287.5" y="294.1387">&lt;http://ycba.org5002_initial_ownership&gt;</text><line style="stroke: #A80036; stroke-width: 1.5;" x1="88" x2="740" y1="301.9688" y2="301.9688"/><text fill="#000000" font-family="sans-serif" font-size="11" lengthAdjust="spacingAndGlyphs" textLength="46" x="93" y="316.1792">a &lt;http:</text><text fill="#000000" font-family="sans-serif" font-size="11" font-style="italic" lengthAdjust="spacingAndGlyphs" textLength="218" x="139" y="316.1792">crmE10_Transfer_of_Custody&gt;, &lt;http:</text><text fill="#000000" font-family="sans-serif" font-size="11" lengthAdjust="spacingAndGlyphs" textLength="112" x="357" y="316.1792">crmE8_Acquisition&gt;</text><text fill="#000000" font-family="sans-serif" font-size="11" lengthAdjust="spacingAndGlyphs" textLength="642" x="93" y="328.9839">&lt;http://crmP3_has_note&gt; "Earls of Newport by descent to 4th Earl, who died in 1679, when title became extinct"</text><!--class _aaacreation_--><rect fill="#FEFECE" filter="url(#fo2dfp2)" height="23.9688" style="stroke: #A80036; stroke-width: 1.5;" width="102" x="6" y="445"/><text fill="#000000" font-family="sans-serif" font-size="12" lengthAdjust="spacingAndGlyphs" textLength="96" x="9" y="461.1387">&lt;aaacreation&gt;</text><!--class _http___ycba_org_parties500303557_--><rect fill="#FEFECE" filter="url(#fo2dfp2)" height="57.5781" style="stroke: #A80036; stroke-width: 1.5;" width="279" x="5022.5" y="578"/><text fill="#000000" font-family="sans-serif" font-size="12" lengthAdjust="spacingAndGlyphs" textLength="232" x="5046" y="594.1387">&lt;http://ycba.org/parties500303557&gt;</text><line style="stroke: #A80036; stroke-width: 1.5;" x1="5023.5" x2="5300.5" y1="601.9688" y2="601.9688"/><text fill="#000000" font-family="sans-serif" font-size="11" lengthAdjust="spacingAndGlyphs" textLength="176" x="5028.5" y="616.1792">a &lt;http://crmE40_Legal_Body&gt;</text><text fill="#000000" font-family="sans-serif" font-size="11" lengthAdjust="spacingAndGlyphs" textLength="267" x="5028.5" y="628.9839">&lt;http://crmrlabel&gt; "Yale Center for British Art"</text><!--class _http___geonames_org4839366_--><rect fill="#FEFECE" filter="url(#fo2dfp2)" height="23.9688" style="stroke: #A80036; stroke-width: 1.5;" width="211" x="5056.5" y="713"/><text fill="#000000" font-family="sans-serif" font-size="12" lengthAdjust="spacingAndGlyphs" textLength="205" x="5059.5" y="729.1387">&lt;http://geonames.org4839366&gt;</text><!--class _http___museumprovenance_orgprovenance_record_--><rect fill="#FEFECE" filter="url(#fo2dfp2)" height="57.5781" style="stroke: #A80036; stroke-width: 1.5;" width="337" x="6323.5" y="143"/><text fill="#000000" font-family="sans-serif" font-size="12" lengthAdjust="spacingAndGlyphs" textLength="331" x="6326.5" y="159.1387">&lt;http://museumprovenance.orgprovenance_record&gt;</text><line style="stroke: #A80036; stroke-width: 1.5;" x1="6324.5" x2="6659.5" y1="166.9688" y2="166.9688"/><text fill="#000000" font-family="sans-serif" font-size="11" lengthAdjust="spacingAndGlyphs" textLength="139" x="6329.5" y="181.1792">a &lt;http://crmE55_Type&gt;</text><text fill="#000000" font-family="sans-serif" font-size="11" lengthAdjust="spacingAndGlyphs" textLength="281" x="6329.5" y="193.9839">&lt;http://crmrlabel&gt; "A written provenance record"</text><!--class _http___ycba_org5002_prov_6_--><rect fill="#FEFECE" filter="url(#fo2dfp2)" height="57.5781" style="stroke: #A80036; stroke-width: 1.5;" width="748" x="3926" y="278"/><text fill="#000000" font-family="sans-serif" font-size="12" lengthAdjust="spacingAndGlyphs" textLength="189" x="4205.5" y="294.1387">&lt;http://ycba.org5002_prov-6&gt;</text><line style="stroke: #A80036; stroke-width: 1.5;" x1="3927" x2="4673" y1="301.9688" y2="301.9688"/><text fill="#000000" font-family="sans-serif" font-size="11" lengthAdjust="spacingAndGlyphs" textLength="46" x="3932" y="316.1792">a &lt;http:</text><text fill="#000000" font-family="sans-serif" font-size="11" font-style="italic" lengthAdjust="spacingAndGlyphs" textLength="218" x="3978" y="316.1792">crmE10_Transfer_of_Custody&gt;, &lt;http:</text><text fill="#000000" font-family="sans-serif" font-size="11" lengthAdjust="spacingAndGlyphs" textLength="112" x="4196" y="316.1792">crmE8_Acquisition&gt;</text><text fill="#000000" font-family="sans-serif" font-size="11" lengthAdjust="spacingAndGlyphs" textLength="736" x="3932" y="328.9839">&lt;http://crmP3_has_note&gt; " bought [_:] by 1st Earl of Bradford, by descent to 4th Earl, who died 1762, when title became extinct"</text><!--class _http___ycba_org_partiessecond_earl_of_bradford_--><rect fill="#FEFECE" filter="url(#fo2dfp2)" height="23.9688" style="stroke: #A80036; stroke-width: 1.5;" width="320" x="6189" y="445"/><text fill="#000000" font-family="sans-serif" font-size="12" lengthAdjust="spacingAndGlyphs" textLength="314" x="6192" y="461.1387">&lt;http://ycba.org/partiessecond_earl_of_bradford&gt;</text><!--class _http___ycba_org_partiesthird_earl_of_bradford_--><rect fill="#FEFECE" filter="url(#fo2dfp2)" height="23.9688" style="stroke: #A80036; stroke-width: 1.5;" width="303" x="4148.5" y="445"/><text fill="#000000" font-family="sans-serif" font-size="12" lengthAdjust="spacingAndGlyphs" textLength="297" x="4151.5" y="461.1387">&lt;http://ycba.org/partiesthird_earl_of_bradford&gt;</text><!--class _5002_prov_5_--><rect fill="#FEFECE" filter="url(#fo2dfp2)" height="23.9688" style="stroke: #A80036; stroke-width: 1.5;" width="103" x="2378.5" y="445"/><text fill="#000000" font-family="sans-serif" font-size="12" lengthAdjust="spacingAndGlyphs" textLength="97" x="2381.5" y="461.1387">&lt;5002_prov-5&gt;</text><!--class _http___ycba_org5002_prov_4_--><rect fill="#FEFECE" filter="url(#fo2dfp2)" height="57.5781" style="stroke: #A80036; stroke-width: 1.5;" width="748" x="8024" y="278"/><text fill="#000000" font-family="sans-serif" font-size="12" lengthAdjust="spacingAndGlyphs" textLength="189" x="8303.5" y="294.1387">&lt;http://ycba.org5002_prov-4&gt;</text><line style="stroke: #A80036; stroke-width: 1.5;" x1="8025" x2="8771" y1="301.9688" y2="301.9688"/><text fill="#000000" font-family="sans-serif" font-size="11" lengthAdjust="spacingAndGlyphs" textLength="46" x="8030" y="316.1792">a &lt;http:</text><text fill="#000000" font-family="sans-serif" font-size="11" font-style="italic" lengthAdjust="spacingAndGlyphs" textLength="218" x="8076" y="316.1792">crmE10_Transfer_of_Custody&gt;, &lt;http:</text><text fill="#000000" font-family="sans-serif" font-size="11" lengthAdjust="spacingAndGlyphs" textLength="112" x="8294" y="316.1792">crmE8_Acquisition&gt;</text><text fill="#000000" font-family="sans-serif" font-size="11" lengthAdjust="spacingAndGlyphs" textLength="736" x="8030" y="328.9839">&lt;http://crmP3_has_note&gt; " bought [_:] by 1st Earl of Bradford, by descent to 4th Earl, who died 1762, when title became extinct"</text><!--class _aaaacquisition_--><rect fill="#FEFECE" filter="url(#fo2dfp2)" height="23.9688" style="stroke: #A80036; stroke-width: 1.5;" width="118" x="8878" y="445"/><text fill="#000000" font-family="sans-serif" font-size="12" lengthAdjust="spacingAndGlyphs" textLength="112" x="8881" y="461.1387">&lt;aaaacquisition&gt;</text><!--class _http___ycba_org_partiesfirst_earl_of_bradford_--><rect fill="#FEFECE" filter="url(#fo2dfp2)" height="23.9688" style="stroke: #A80036; stroke-width: 1.5;" width="298" x="8091" y="445"/><text fill="#000000" font-family="sans-serif" font-size="12" lengthAdjust="spacingAndGlyphs" textLength="292" x="8094" y="461.1387">&lt;http://ycba.org/partiesfirst_earl_of_bradford&gt;</text><!--class _http___ycba_org_partiesfourth_earl_of_newport_--><rect fill="#FEFECE" filter="url(#fo2dfp2)" height="23.9688" style="stroke: #A80036; stroke-width: 1.5;" width="309" x="6921.5" y="445"/><text fill="#000000" font-family="sans-serif" font-size="12" lengthAdjust="spacingAndGlyphs" textLength="303" x="6924.5" y="461.1387">&lt;http://ycba.org/partiesfourth_earl_of_newport&gt;</text><!--class _5002_prov_3_--><rect fill="#FEFECE" filter="url(#fo2dfp2)" height="23.9688" style="stroke: #A80036; stroke-width: 1.5;" width="103" x="8637.5" y="445"/><text fill="#000000" font-family="sans-serif" font-size="12" lengthAdjust="spacingAndGlyphs" textLength="97" x="8640.5" y="461.1387">&lt;5002_prov-3&gt;</text><!--class _http___ycba_org_partieslady_caroline_damer_and_husband_--><rect fill="#FEFECE" filter="url(#fo2dfp2)" height="44.7734" style="stroke: #A80036; stroke-width: 1.5;" width="384" x="6816" y="14.5"/><text fill="#000000" font-family="sans-serif" font-size="12" lengthAdjust="spacingAndGlyphs" textLength="378" x="6819" y="30.6387">&lt;http://ycba.org/partieslady_caroline_damer_and_husband&gt;</text><line style="stroke: #A80036; stroke-width: 1.5;" x1="6817" x2="7199" y1="38.4688" y2="38.4688"/><text fill="#000000" font-family="sans-serif" font-size="11" lengthAdjust="spacingAndGlyphs" textLength="176" x="6822" y="52.6792">a &lt;http://crmE40_Legal_Body&gt;</text><!--class _http___ycba_orghenry_dawson_damer_--><rect fill="#FEFECE" filter="url(#fo2dfp2)" height="23.9688" style="stroke: #A80036; stroke-width: 1.5;" width="251" x="6695.5" y="160"/><text fill="#000000" font-family="sans-serif" font-size="12" lengthAdjust="spacingAndGlyphs" textLength="245" x="6698.5" y="176.1387">&lt;http://ycba.orghenry_dawson-damer&gt;</text><!--class _http___ycba_orglady_caroline_damer_--><rect fill="#FEFECE" filter="url(#fo2dfp2)" height="23.9688" style="stroke: #A80036; stroke-width: 1.5;" width="245" x="7072.5" y="160"/><text fill="#000000" font-family="sans-serif" font-size="12" lengthAdjust="spacingAndGlyphs" textLength="239" x="7075.5" y="176.1387">&lt;http://ycba.orglady_caroline_damer&gt;</text><!--class _http___ycba_org5002_provenance_--><rect fill="#FEFECE" filter="url(#fo2dfp2)" height="57.5781" style="stroke: #A80036; stroke-width: 1.5;" width="230" x="6155" y="8"/><text fill="#000000" font-family="sans-serif" font-size="12" lengthAdjust="spacingAndGlyphs" textLength="224" x="6158" y="24.1387">&lt;http://ycba.org5002_provenance&gt;</text><line style="stroke: #A80036; stroke-width: 1.5;" x1="6156" x2="6384" y1="31.9688" y2="31.9688"/><text fill="#000000" font-family="sans-serif" font-size="11" lengthAdjust="spacingAndGlyphs" textLength="169" x="6161" y="46.1792">a &lt;http://crmE31_Document&gt;</text><text fill="#000000" font-family="sans-serif" font-size="11" lengthAdjust="spacingAndGlyphs" textLength="172" x="6161" y="58.9839">&lt;http://crmP3_has_note&gt; "..."</text><!--class _http___ycba_org5002_provenance_period_--><rect fill="#FEFECE" filter="url(#fo2dfp2)" height="44.7734" style="stroke: #A80036; stroke-width: 1.5;" width="276" x="1808" y="149.5"/><text fill="#000000" font-family="sans-serif" font-size="12" lengthAdjust="spacingAndGlyphs" textLength="270" x="1811" y="165.6387">&lt;http://ycba.org5002_provenance_period&gt;</text><line style="stroke: #A80036; stroke-width: 1.5;" x1="1809" x2="2083" y1="173.4688" y2="173.4688"/><text fill="#000000" font-family="sans-serif" font-size="11" lengthAdjust="spacingAndGlyphs" textLength="141" x="1814" y="187.6792">a &lt;http://crmE4_Period&gt;</text><!--class _http___museumprovenance_orgartwork_history_--><rect fill="#FEFECE" filter="url(#fo2dfp2)" height="57.5781" style="stroke: #A80036; stroke-width: 1.5;" width="328" x="2460" y="278"/><text fill="#000000" font-family="sans-serif" font-size="12" lengthAdjust="spacingAndGlyphs" textLength="305" x="2471.5" y="294.1387">&lt;http://museumprovenance.orgartwork_history&gt;</text><line style="stroke: #A80036; stroke-width: 1.5;" x1="2461" x2="2787" y1="301.9688" y2="301.9688"/><text fill="#000000" font-family="sans-serif" font-size="11" lengthAdjust="spacingAndGlyphs" textLength="139" x="2466" y="316.1792">a &lt;http://crmE55_Type&gt;</text><text fill="#000000" font-family="sans-serif" font-size="11" lengthAdjust="spacingAndGlyphs" textLength="316" x="2466" y="328.9839">&lt;http://crmrlabel&gt; "The period of existence for a work"</text><!--class _http___ycba_org5002_prov_5_--><rect fill="#FEFECE" filter="url(#fo2dfp2)" height="57.5781" style="stroke: #A80036; stroke-width: 1.5;" width="748" x="6855" y="278"/><text fill="#000000" font-family="sans-serif" font-size="12" lengthAdjust="spacingAndGlyphs" textLength="189" x="7134.5" y="294.1387">&lt;http://ycba.org5002_prov-5&gt;</text><line style="stroke: #A80036; stroke-width: 1.5;" x1="6856" x2="7602" y1="301.9688" y2="301.9688"/><text fill="#000000" font-family="sans-serif" font-size="11" lengthAdjust="spacingAndGlyphs" textLength="46" x="6861" y="316.1792">a &lt;http:</text><text fill="#000000" font-family="sans-serif" font-size="11" font-style="italic" lengthAdjust="spacingAndGlyphs" textLength="218" x="6907" y="316.1792">crmE10_Transfer_of_Custody&gt;, &lt;http:</text><text fill="#000000" font-family="sans-serif" font-size="11" lengthAdjust="spacingAndGlyphs" textLength="112" x="7125" y="316.1792">crmE8_Acquisition&gt;</text><text fill="#000000" font-family="sans-serif" font-size="11" lengthAdjust="spacingAndGlyphs" textLength="736" x="6861" y="328.9839">&lt;http://crmP3_has_note&gt; " bought [_:] by 1st Earl of Bradford, by descent to 4th Earl, who died 1762, when title became extinct"</text><!--class _5002_prov_4_--><rect fill="#FEFECE" filter="url(#fo2dfp2)" height="23.9688" style="stroke: #A80036; stroke-width: 1.5;" width="103" x="7783.5" y="445"/><text fill="#000000" font-family="sans-serif" font-size="12" lengthAdjust="spacingAndGlyphs" textLength="97" x="7786.5" y="461.1387">&lt;5002_prov-4&gt;</text><!--class _http___ycba_org5002_prov_3_--><rect fill="#FEFECE" filter="url(#fo2dfp2)" height="57.5781" style="stroke: #A80036; stroke-width: 1.5;" width="654" x="5092" y="278"/><text fill="#000000" font-family="sans-serif" font-size="12" lengthAdjust="spacingAndGlyphs" textLength="189" x="5324.5" y="294.1387">&lt;http://ycba.org5002_prov-3&gt;</text><line style="stroke: #A80036; stroke-width: 1.5;" x1="5093" x2="5745" y1="301.9688" y2="301.9688"/><text fill="#000000" font-family="sans-serif" font-size="11" lengthAdjust="spacingAndGlyphs" textLength="46" x="5098" y="316.1792">a &lt;http:</text><text fill="#000000" font-family="sans-serif" font-size="11" font-style="italic" lengthAdjust="spacingAndGlyphs" textLength="218" x="5144" y="316.1792">crmE10_Transfer_of_Custody&gt;, &lt;http:</text><text fill="#000000" font-family="sans-serif" font-size="11" lengthAdjust="spacingAndGlyphs" textLength="112" x="5362" y="316.1792">crmE8_Acquisition&gt;</text><text fill="#000000" font-family="sans-serif" font-size="11" lengthAdjust="spacingAndGlyphs" textLength="642" x="5098" y="328.9839">&lt;http://crmP3_has_note&gt; "Earls of Newport by descent to 4th Earl, who died in 1679, when title became extinct"</text><!--class _5002_prov_2_--><rect fill="#FEFECE" filter="url(#fo2dfp2)" height="23.9688" style="stroke: #A80036; stroke-width: 1.5;" width="103" x="5672.5" y="445"/><text fill="#000000" font-family="sans-serif" font-size="12" lengthAdjust="spacingAndGlyphs" textLength="97" x="5675.5" y="461.1387">&lt;5002_prov-2&gt;</text><path d="M1277.85,329.531 C1301.98,332.142 1326.62,334.435 1350,336 C1413.78,340.269 3592.1,341.154 3651,366 C3669.53,373.818 3664.57,389.95 3683,398 C3763.09,432.979 4381.67,424.569 4469,428 C4666.19,435.747 4894.93,445.051 5034,450.743 " fill="none" style="stroke: #A80036; stroke-width: 1.0;"/><polygon fill="#A80036" points="5039.32,450.961,5030.4872,446.6043,5034.324,450.761,5030.1672,454.5979,5039.32,450.961" style="stroke: #A80036; stroke-width: 1.0;"/><text fill="#000000" font-family="sans-serif" font-size="13" lengthAdjust="spacingAndGlyphs" textLength="221" x="3705" y="379.0669">&lt;http://crmP24_acquired_title_of&gt;</text><text fill="#000000" font-family="sans-serif" font-size="13" lengthAdjust="spacingAndGlyphs" textLength="263" x="3684" y="394.1997">&lt;http://crmP30_custody_transferred_of&gt;</text><path d="M1110.91,329.831 C1105.04,349.837 1100.55,379.129 1116,398 C1135.33,421.607 1199.49,435.817 1262.36,444.257 " fill="none" style="stroke: #A80036; stroke-width: 1.0;"/><polygon fill="#A80036" points="1267.66,444.955,1259.2637,439.807,1262.7034,444.2979,1258.2124,447.7376,1267.66,444.955" style="stroke: #A80036; stroke-width: 1.0;"/><text fill="#000000" font-family="sans-serif" font-size="13" lengthAdjust="spacingAndGlyphs" textLength="238" x="1122.5" y="379.0669">&lt;http://crmP22_transferred_title_to&gt;</text><text fill="#000000" font-family="sans-serif" font-size="13" lengthAdjust="spacingAndGlyphs" textLength="249" x="1117" y="394.1997">&lt;http://crmP29_custody_received_by&gt;</text><path d="M924.763,324.618 C782.273,337.503 608.085,354.968 575,366 C561.229,370.592 484.518,418.073 446.031,442.154 " fill="none" style="stroke: #A80036; stroke-width: 1.0;"/><polygon fill="#A80036" points="441.534,444.97,451.2849,443.5843,445.7719,442.3167,447.0396,436.8037,441.534,444.97" style="stroke: #A80036; stroke-width: 1.0;"/><text fill="#000000" font-family="sans-serif" font-size="13" lengthAdjust="spacingAndGlyphs" textLength="255" x="585" y="379.0669">&lt;http://crmP23_transferred_title_from&gt;</text><text fill="#000000" font-family="sans-serif" font-size="13" lengthAdjust="spacingAndGlyphs" textLength="273" x="576" y="394.1997">&lt;http://crmP28_custody_surrendered_by&gt;</text><path d="M1238.02,329.501 C1281.67,338.809 1331.11,351.039 1375,366 C1407,376.907 1411.1,390.249 1444,398 C1672.29,451.775 2265.45,406.5 2499,428 C2537.66,431.559 2580.65,438.195 2614.81,444.114 " fill="none" style="stroke: #A80036; stroke-width: 1.0;"/><polygon fill="#A80036" points="2619.79,444.981,2611.609,439.4973,2614.864,444.1238,2610.2375,447.3788,2619.79,444.981" style="stroke: #A80036; stroke-width: 1.0;"/><text fill="#000000" font-family="sans-serif" font-size="13" lengthAdjust="spacingAndGlyphs" textLength="166" x="1445" y="386.5669">&lt;http://crmP2_has_type&gt;</text><path d="M955.721,329.519 C915.656,338.271 880.597,350.16 868,366 C851.296,387.004 858.342,420.307 864.799,439.97 " fill="none" style="stroke: #A80036; stroke-width: 1.0;"/><polygon fill="#A80036" points="866.498,444.897,867.343,435.0845,864.8668,440.1706,859.7807,437.6944,866.498,444.897" style="stroke: #A80036; stroke-width: 1.0;"/><text fill="#000000" font-family="sans-serif" font-size="13" lengthAdjust="spacingAndGlyphs" textLength="206" x="869" y="386.5669">&lt;http://crmP120i_occurs_after&gt;</text><path d="M2425.28,334.696 C2430.9,335.135 2436.47,335.57 2442,336 C2531.98,342.994 2763.89,330.832 2847,366 C2866.71,374.342 2863.41,389.372 2883,398 C2953.28,428.951 3148.05,443.748 3288.37,450.567 " fill="none" style="stroke: #A80036; stroke-width: 1.0;"/><polygon fill="#A80036" points="3293.76,450.826,3284.9649,446.3936,3288.7659,450.5832,3284.5763,454.3842,3293.76,450.826" style="stroke: #A80036; stroke-width: 1.0;"/><text fill="#000000" font-family="sans-serif" font-size="13" lengthAdjust="spacingAndGlyphs" textLength="238" x="2889.5" y="379.0669">&lt;http://crmP22_transferred_title_to&gt;</text><text fill="#000000" font-family="sans-serif" font-size="13" lengthAdjust="spacingAndGlyphs" textLength="249" x="2884" y="394.1997">&lt;http://crmP29_custody_received_by&gt;</text><path d="M2425.26,335.113 C2430.88,335.424 2436.46,335.72 2442,336 C2610.04,344.496 3792.17,327.67 3956,366 C3988.52,373.609 3991.6,389.886 4024,398 C4072.25,410.082 4747.11,438.98 5034.21,450.813 " fill="none" style="stroke: #A80036; stroke-width: 1.0;"/><polygon fill="#A80036" points="5039.24,451.021,5030.4072,446.6642,5034.244,450.821,5030.0872,454.6578,5039.24,451.021" style="stroke: #A80036; stroke-width: 1.0;"/><text fill="#000000" font-family="sans-serif" font-size="13" lengthAdjust="spacingAndGlyphs" textLength="221" x="4046" y="379.0669">&lt;http://crmP24_acquired_title_of&gt;</text><text fill="#000000" font-family="sans-serif" font-size="13" lengthAdjust="spacingAndGlyphs" textLength="263" x="4025" y="394.1997">&lt;http://crmP30_custody_transferred_of&gt;</text><path d="M1774.02,336.04 C1721.77,343.952 1676.74,353.824 1652,366 C1633.95,374.882 1637.42,387.939 1620,398 C1579.78,421.237 1529.97,435.423 1488.33,443.942 " fill="none" style="stroke: #A80036; stroke-width: 1.0;"/><polygon fill="#A80036" points="1483.29,444.953,1492.902,447.1,1488.1919,443.9672,1491.3247,439.2571,1483.29,444.953" style="stroke: #A80036; stroke-width: 1.0;"/><text fill="#000000" font-family="sans-serif" font-size="13" lengthAdjust="spacingAndGlyphs" textLength="255" x="1662" y="379.0669">&lt;http://crmP23_transferred_title_from&gt;</text><text fill="#000000" font-family="sans-serif" font-size="13" lengthAdjust="spacingAndGlyphs" textLength="273" x="1653" y="394.1997">&lt;http://crmP28_custody_surrendered_by&gt;</text><path d="M2141.57,336.165 C2155.1,345.328 2169.9,355.778 2183,366 C2199.88,379.171 2199.42,389.336 2219,398 C2333.45,448.655 2374.91,411.657 2499,428 C2536.45,432.932 2578.14,439.397 2611.87,444.873 " fill="none" style="stroke: #A80036; stroke-width: 1.0;"/><polygon fill="#A80036" points="2617.21,445.743,2608.9814,440.331,2612.2767,444.9289,2607.6788,448.2242,2617.21,445.743" style="stroke: #A80036; stroke-width: 1.0;"/><text fill="#000000" font-family="sans-serif" font-size="13" lengthAdjust="spacingAndGlyphs" textLength="166" x="2220" y="386.5669">&lt;http://crmP2_has_type&gt;</text><path d="M2026.81,336.007 C2008.06,344.579 1988.26,354.752 1971,366 C1953.06,377.687 1952.86,386.203 1935,398 C1906.72,416.678 1871.47,432.647 1845.97,443.072 " fill="none" style="stroke: #A80036; stroke-width: 1.0;"/><polygon fill="#A80036" points="1841.33,444.954,1851.1739,445.2669,1845.9613,443.0695,1848.1587,437.8569,1841.33,444.954" style="stroke: #A80036; stroke-width: 1.0;"/><text fill="#000000" font-family="sans-serif" font-size="13" lengthAdjust="spacingAndGlyphs" textLength="206" x="1972" y="386.5669">&lt;http://crmP120i_occurs_after&gt;</text><path d="M741.081,328.622 C796.438,331.525 853.345,334.147 907,336 C974.715,338.338 3283.56,339.687 3346,366 C3364.53,373.811 3359.53,390.048 3378,398 C3433.69,421.971 4408.4,425.943 4469,428 C4666.23,434.696 4894.96,444.294 5034.02,450.335 " fill="none" style="stroke: #A80036; stroke-width: 1.0;"/><polygon fill="#A80036" points="5039.34,450.566,5030.5197,446.184,5034.3446,450.3517,5030.1769,454.1766,5039.34,450.566" style="stroke: #A80036; stroke-width: 1.0;"/><text fill="#000000" font-family="sans-serif" font-size="13" lengthAdjust="spacingAndGlyphs" textLength="221" x="3400" y="379.0669">&lt;http://crmP24_acquired_title_of&gt;</text><text fill="#000000" font-family="sans-serif" font-size="13" lengthAdjust="spacingAndGlyphs" textLength="263" x="3379" y="394.1997">&lt;http://crmP30_custody_transferred_of&gt;</text><path d="M301.688,336.108 C267.228,350.482 242.843,370.793 262,398 C278.272,421.109 304.644,435.059 331.427,443.464 " fill="none" style="stroke: #A80036; stroke-width: 1.0;"/><polygon fill="#A80036" points="336.43,444.97,328.9655,438.545,331.6423,443.5284,326.6589,446.2053,336.43,444.97" style="stroke: #A80036; stroke-width: 1.0;"/><text fill="#000000" font-family="sans-serif" font-size="13" lengthAdjust="spacingAndGlyphs" textLength="238" x="268.5" y="379.0669">&lt;http://crmP22_transferred_title_to&gt;</text><text fill="#000000" font-family="sans-serif" font-size="13" lengthAdjust="spacingAndGlyphs" textLength="249" x="263" y="394.1997">&lt;http://crmP29_custody_received_by&gt;</text><path d="M152.755,336.009 C120.108,343.746 93.4498,353.564 80,366 C59.4563,384.996 56.1943,419.581 56.2256,439.901 " fill="none" style="stroke: #A80036; stroke-width: 1.0;"/><polygon fill="#A80036" points="56.3029,444.985,60.1662,435.9255,56.2272,439.9856,52.1671,436.0466,56.3029,444.985" style="stroke: #A80036; stroke-width: 1.0;"/><text fill="#000000" font-family="sans-serif" font-size="13" lengthAdjust="spacingAndGlyphs" textLength="166" x="81" y="386.5669">&lt;http://crmP2_has_type&gt;</text><path d="M5162,636.08 C5162,658.4421 5162,688.9749 5162,707.5464 " fill="none" style="stroke: #A80036; stroke-width: 1.0;"/><polygon fill="#A80036" points="5162,712.9037,5166,703.9037,5162,707.9037,5158,703.9037,5162,712.9037" style="stroke: #A80036; stroke-width: 1.0;"/><text fill="#000000" font-family="sans-serif" font-size="13" lengthAdjust="spacingAndGlyphs" textLength="319" x="5163" y="679.0669">&lt;http://crmP53_has_former_or_current_location&gt;</text><path d="M4674.49,321.598 C4801.33,326.19 4943.82,331.335 5074,336 C5261.78,342.73 5734.37,331.102 5919,366 C5961.13,373.963 5968.5,387.236 6010,398 C6091.54,419.15 6186.16,434.603 6254.68,444.215 " fill="none" style="stroke: #A80036; stroke-width: 1.0;"/><polygon fill="#A80036" points="6259.98,444.955,6251.6138,439.7582,6255.0273,444.2691,6250.5164,447.6826,6259.98,444.955" style="stroke: #A80036; stroke-width: 1.0;"/><text fill="#000000" font-family="sans-serif" font-size="13" lengthAdjust="spacingAndGlyphs" textLength="255" x="6020" y="379.0669">&lt;http://crmP23_transferred_title_from&gt;</text><text fill="#000000" font-family="sans-serif" font-size="13" lengthAdjust="spacingAndGlyphs" textLength="273" x="6011" y="394.1997">&lt;http://crmP28_custody_surrendered_by&gt;</text><path d="M4674.24,328.9 C4755.93,337.454 4829.24,349.395 4867,366 C4886.6,374.617 4883.95,388.239 4903,398 C4943.38,418.687 4991,432.04 5034.34,440.642 " fill="none" style="stroke: #A80036; stroke-width: 1.0;"/><polygon fill="#A80036" points="5039.33,441.615,5031.2622,435.966,5034.4225,440.6578,5029.7307,443.818,5039.33,441.615" style="stroke: #A80036; stroke-width: 1.0;"/><text fill="#000000" font-family="sans-serif" font-size="13" lengthAdjust="spacingAndGlyphs" textLength="221" x="4925" y="379.0669">&lt;http://crmP24_acquired_title_of&gt;</text><text fill="#000000" font-family="sans-serif" font-size="13" lengthAdjust="spacingAndGlyphs" textLength="263" x="4904" y="394.1997">&lt;http://crmP30_custody_transferred_of&gt;</text><path d="M4298.26,336.014 C4297.74,345.528 4297.25,356.223 4297,366 C4296.63,380.217 4296.63,383.783 4297,398 C4297.37,412.16 4298.23,428.246 4298.94,439.879 " fill="none" style="stroke: #A80036; stroke-width: 1.0;"/><polygon fill="#A80036" points="4299.25,444.888,4302.6811,435.6561,4298.9383,439.8977,4294.6967,436.1549,4299.25,444.888" style="stroke: #A80036; stroke-width: 1.0;"/><text fill="#000000" font-family="sans-serif" font-size="13" lengthAdjust="spacingAndGlyphs" textLength="238" x="4303.5" y="379.0669">&lt;http://crmP22_transferred_title_to&gt;</text><text fill="#000000" font-family="sans-serif" font-size="13" lengthAdjust="spacingAndGlyphs" textLength="249" x="4298" y="394.1997">&lt;http://crmP29_custody_received_by&gt;</text><path d="M3925.86,308.372 C3458.37,310.723 2713.96,321.487 2671,366 C2652.14,385.545 2662.02,419.876 2670.38,440.014 " fill="none" style="stroke: #A80036; stroke-width: 1.0;"/><polygon fill="#A80036" points="2672.45,444.811,2672.5495,434.9626,2670.4656,440.2217,2665.2066,438.1377,2672.45,444.811" style="stroke: #A80036; stroke-width: 1.0;"/><text fill="#000000" font-family="sans-serif" font-size="13" lengthAdjust="spacingAndGlyphs" textLength="166" x="2672" y="386.5669">&lt;http://crmP2_has_type&gt;</text><path d="M3925.75,313.788 C3391.86,322.876 2472.49,341.963 2445,366 C2424.31,384.09 2424.77,418.997 2427.22,439.618 " fill="none" style="stroke: #A80036; stroke-width: 1.0;"/><polygon fill="#A80036" points="2427.91,444.782,2430.6819,435.3312,2427.2473,439.8261,2422.7524,436.3916,2427.91,444.782" style="stroke: #A80036; stroke-width: 1.0;"/><text fill="#000000" font-family="sans-serif" font-size="13" lengthAdjust="spacingAndGlyphs" textLength="206" x="2446" y="386.5669">&lt;http://crmP120i_occurs_after&gt;</text><path d="M5162,486.186 C5162,510.875 5162,546.781 5162,572.844 " fill="none" style="stroke: #A80036; stroke-width: 1.0;"/><polygon fill="#A80036" points="5162,577.919,5166,568.919,5162,572.919,5158,568.919,5162,577.919" style="stroke: #A80036; stroke-width: 1.0;"/><text fill="#000000" font-family="sans-serif" font-size="13" lengthAdjust="spacingAndGlyphs" textLength="243" x="5163" y="529.0669">&lt;http://crmP50_has_current_keeper&gt;</text><text fill="#000000" font-family="sans-serif" font-size="13" lengthAdjust="spacingAndGlyphs" textLength="237" x="5166" y="544.1997">&lt;http://crmP52_has_current_owner&gt;</text><path d="M8023.95,321.83 C7587.29,338.091 6923.32,363.234 6917,366 C6898.57,374.059 6903.49,390.077 6885,398 C6822.17,424.926 5723.3,425.228 5655,428 C5530.75,433.042 5389.03,441.36 5289.52,447.622 " fill="none" style="stroke: #A80036; stroke-width: 1.0;"/><polygon fill="#A80036" points="5284.52,447.938,5293.7536,451.3644,5289.5101,447.6237,5293.2508,443.3802,5284.52,447.938" style="stroke: #A80036; stroke-width: 1.0;"/><text fill="#000000" font-family="sans-serif" font-size="13" lengthAdjust="spacingAndGlyphs" textLength="221" x="6939" y="379.0669">&lt;http://crmP24_acquired_title_of&gt;</text><text fill="#000000" font-family="sans-serif" font-size="13" lengthAdjust="spacingAndGlyphs" textLength="263" x="6918" y="394.1997">&lt;http://crmP30_custody_transferred_of&gt;</text><path d="M8772.26,332.974 C8819.99,341.072 8859.88,351.797 8882,366 C8908.99,383.329 8924.79,419.077 8932.08,439.927 " fill="none" style="stroke: #A80036; stroke-width: 1.0;"/><polygon fill="#A80036" points="8933.76,444.887,8934.6786,435.0811,8932.1643,440.1485,8927.0969,437.6342,8933.76,444.887" style="stroke: #A80036; stroke-width: 1.0;"/><text fill="#000000" font-family="sans-serif" font-size="13" lengthAdjust="spacingAndGlyphs" textLength="166" x="8913" y="386.5669">&lt;http://crmP2_has_type&gt;</text><path d="M8391.38,336.078 C8385.6,355.469 8375.48,380.77 8359,398 C8338.52,419.411 8308.5,433.966 8283.73,443.14 " fill="none" style="stroke: #A80036; stroke-width: 1.0;"/><polygon fill="#A80036" points="8278.85,444.903,8288.6739,445.6042,8283.552,443.2028,8285.9535,438.081,8278.85,444.903" style="stroke: #A80036; stroke-width: 1.0;"/><text fill="#000000" font-family="sans-serif" font-size="13" lengthAdjust="spacingAndGlyphs" textLength="238" x="8386.5" y="379.0669">&lt;http://crmP22_transferred_title_to&gt;</text><text fill="#000000" font-family="sans-serif" font-size="13" lengthAdjust="spacingAndGlyphs" textLength="249" x="8381" y="394.1997">&lt;http://crmP29_custody_received_by&gt;</text><path d="M8023.85,321.839 C7804.57,331.833 7561.31,346.913 7513,366 C7492.15,374.239 7494.51,388.941 7474,398 C7427.41,418.579 7304.66,434.539 7207.69,444.462 " fill="none" style="stroke: #A80036; stroke-width: 1.0;"/><polygon fill="#A80036" points="7202.51,444.989,7211.8649,448.0688,7207.4849,444.4889,7211.0648,440.1089,7202.51,444.989" style="stroke: #A80036; stroke-width: 1.0;"/><text fill="#000000" font-family="sans-serif" font-size="13" lengthAdjust="spacingAndGlyphs" textLength="255" x="7523" y="379.0669">&lt;http://crmP23_transferred_title_from&gt;</text><text fill="#000000" font-family="sans-serif" font-size="13" lengthAdjust="spacingAndGlyphs" textLength="273" x="7514" y="394.1997">&lt;http://crmP28_custody_surrendered_by&gt;</text><path d="M8584.5,336.013 C8604,343.751 8622.64,353.565 8639,366 C8663.79,384.846 8678,419.728 8684.54,440.089 " fill="none" style="stroke: #A80036; stroke-width: 1.0;"/><polygon fill="#A80036" points="8686.04,444.934,8687.2051,435.1543,8684.5641,440.1568,8679.5616,437.5158,8686.04,444.934" style="stroke: #A80036; stroke-width: 1.0;"/><text fill="#000000" font-family="sans-serif" font-size="13" lengthAdjust="spacingAndGlyphs" textLength="206" x="8667" y="386.5669">&lt;http://crmP120i_occurs_after&gt;</text><path d="M6864.2,59.565 C6846.16,68.153 6829.9,79.923 6818,96 C6805.42,112.99 6809.99,138.563 6815.02,155.02 " fill="none" style="stroke: #A80036; stroke-width: 1.0;"/><polygon fill="#A80036" points="6816.58,159.814,6817.603,150.0184,6815.0349,155.0587,6809.9946,152.4906,6816.58,159.814" style="stroke: #A80036; stroke-width: 1.0;"/><text fill="#000000" font-family="sans-serif" font-size="13" lengthAdjust="spacingAndGlyphs" textLength="332" x="6819" y="109.0669">&lt;http://crmP107_has_current_or_former_member&gt;</text><path d="M7093.38,59.617 C7115.6,68.242 7138.25,80.038 7156,96 C7173.8,112.008 7184.75,138.067 7190.35,154.869 " fill="none" style="stroke: #A80036; stroke-width: 1.0;"/><polygon fill="#A80036" points="7191.92,159.765,7192.9803,149.9734,7190.393,155.0039,7185.3625,152.4166,7191.92,159.765" style="stroke: #A80036; stroke-width: 1.0;"/><text fill="#000000" font-family="sans-serif" font-size="13" lengthAdjust="spacingAndGlyphs" textLength="332" x="7171" y="109.0669">&lt;http://crmP107_has_current_or_former_member&gt;</text><path d="M6316.81,66.043 C6353.12,87.794 6403.38,117.908 6440.76,140.303 " fill="none" style="stroke: #A80036; stroke-width: 1.0;"/><polygon fill="#A80036" points="6445.25,142.995,6439.587,134.9371,6440.9614,140.4244,6435.4741,141.7988,6445.25,142.995" style="stroke: #A80036; stroke-width: 1.0;"/><text fill="#000000" font-family="sans-serif" font-size="13" lengthAdjust="spacingAndGlyphs" textLength="166" x="6396" y="109.0669">&lt;http://crmP2_has_type&gt;</text><path d="M6279.11,66.154 C6299.15,134.183 6338.46,308.481 6248,398 C6224.55,421.202 5687.94,426.231 5655,428 C5530.83,434.667 5389.1,442.768 5289.57,448.538 " fill="none" style="stroke: #A80036; stroke-width: 1.0;"/><polygon fill="#A80036" points="5284.56,448.828,5293.7838,452.2808,5289.551,448.528,5293.3038,444.2953,5284.56,448.828" style="stroke: #A80036; stroke-width: 1.0;"/><text fill="#000000" font-family="sans-serif" font-size="13" lengthAdjust="spacingAndGlyphs" textLength="178" x="6307" y="244.0669">&lt;http://crmP129_is_about&gt;</text><path d="M6154.9,41.54 C5551.67,60.095 2757.07,146.053 2089.5,166.586 " fill="none" style="stroke: #A80036; stroke-width: 1.0;"/><polygon fill="#A80036" points="2084.16,166.751,2093.2813,170.4661,2089.1575,166.5938,2093.0298,162.4701,2084.16,166.751" style="stroke: #A80036; stroke-width: 1.0;"/><text fill="#000000" font-family="sans-serif" font-size="13" lengthAdjust="spacingAndGlyphs" textLength="188" x="4368" y="109.0669">&lt;http://crmP70_documents&gt;</text><path d="M1807.94,182.674 C1655.6,193.551 1403.2,212.164 1186,231 C1022.59,245.171 839.911,262.836 693.292,277.462 " fill="none" style="stroke: #A80036; stroke-width: 1.0;"/><polygon fill="#A80036" points="688.092,277.981,697.4442,281.0691,693.0674,277.4853,696.6511,273.1085,688.092,277.981" style="stroke: #A80036; stroke-width: 1.0;"/><text fill="#000000" font-family="sans-serif" font-size="13" lengthAdjust="spacingAndGlyphs" textLength="179" x="1187" y="244.0669">&lt;http://crmP9_consists_of&gt;</text><path d="M2055.69,194.517 C2169.82,216.905 2349.23,252.1 2475.9,276.947 " fill="none" style="stroke: #A80036; stroke-width: 1.0;"/><polygon fill="#A80036" points="2481.13,277.974,2473.0625,272.3246,2476.2225,277.0165,2471.5306,280.1765,2481.13,277.974" style="stroke: #A80036; stroke-width: 1.0;"/><text fill="#000000" font-family="sans-serif" font-size="13" lengthAdjust="spacingAndGlyphs" textLength="166" x="2327" y="244.0669">&lt;http://crmP2_has_type&gt;</text><path d="M1807.8,177.288 C1678.41,189.837 1493.59,231.857 1415,366 C1407.81,378.271 1405.7,387.241 1415,398 C1420.54,404.403 1646.63,434.531 1755.09,448.657 " fill="none" style="stroke: #A80036; stroke-width: 1.0;"/><polygon fill="#A80036" points="1760.16,449.317,1751.749,444.1931,1755.2015,448.6742,1750.7204,452.1267,1760.16,449.317" style="stroke: #A80036; stroke-width: 1.0;"/><text fill="#000000" font-family="sans-serif" font-size="13" lengthAdjust="spacingAndGlyphs" textLength="179" x="1493" y="311.5669">&lt;http://crmP9_consists_of&gt;</text><path d="M7224.73,336.049 C7220,356.766 7210.16,383.746 7190,398 C7176.39,407.625 6755.78,432.949 6514.67,446.735 " fill="none" style="stroke: #A80036; stroke-width: 1.0;"/><polygon fill="#A80036" points="6509.36,447.039,6518.5738,450.5183,6514.3518,446.7533,6518.1168,442.5314,6509.36,447.039" style="stroke: #A80036; stroke-width: 1.0;"/><text fill="#000000" font-family="sans-serif" font-size="13" lengthAdjust="spacingAndGlyphs" textLength="238" x="7221.5" y="379.0669">&lt;http://crmP22_transferred_title_to&gt;</text><text fill="#000000" font-family="sans-serif" font-size="13" lengthAdjust="spacingAndGlyphs" textLength="249" x="7216" y="394.1997">&lt;http://crmP29_custody_received_by&gt;</text><path d="M6854.76,319.499 C6626.88,328.669 6370.3,343.713 6321,366 C6302.67,374.286 6307.4,389.866 6289,398 C6224.5,426.521 5725.43,424.334 5655,428 C5530.82,434.464 5389.09,442.592 5289.56,448.424 " fill="none" style="stroke: #A80036; stroke-width: 1.0;"/><polygon fill="#A80036" points="5284.56,448.717,5293.7739,452.1961,5289.5518,448.4313,5293.3167,444.2092,5284.56,448.717" style="stroke: #A80036; stroke-width: 1.0;"/><text fill="#000000" font-family="sans-serif" font-size="13" lengthAdjust="spacingAndGlyphs" textLength="221" x="6343" y="379.0669">&lt;http://crmP24_acquired_title_of&gt;</text><text fill="#000000" font-family="sans-serif" font-size="13" lengthAdjust="spacingAndGlyphs" textLength="263" x="6322" y="394.1997">&lt;http://crmP30_custody_transferred_of&gt;</text><path d="M7603.03,313.663 C7774.73,320.558 7957.4,335.221 8036,366 C8057.2,374.302 8056.1,386.939 8076,398 C8112.73,418.418 8157.99,433.776 8191.65,443.542 " fill="none" style="stroke: #A80036; stroke-width: 1.0;"/><polygon fill="#A80036" points="8196.53,444.943,8188.9901,438.6067,8191.7256,443.5581,8186.7742,446.2937,8196.53,444.943" style="stroke: #A80036; stroke-width: 1.0;"/><text fill="#000000" font-family="sans-serif" font-size="13" lengthAdjust="spacingAndGlyphs" textLength="255" x="8086" y="379.0669">&lt;http://crmP23_transferred_title_from&gt;</text><text fill="#000000" font-family="sans-serif" font-size="13" lengthAdjust="spacingAndGlyphs" textLength="273" x="8077" y="394.1997">&lt;http://crmP28_custody_surrendered_by&gt;</text><path d="M6854.98,315.23 C6280.13,326.828 5241.31,349.918 5204,366 C5185.53,373.962 5190.52,390.156 5172,398 C5074.99,439.083 3381.29,424.703 3276,428 C3082.47,434.06 2853.93,446.128 2743.82,452.251 " fill="none" style="stroke: #A80036; stroke-width: 1.0;"/><polygon fill="#A80036" points="2738.67,452.538,2747.8838,456.0173,2743.6618,452.2523,2747.4268,448.0304,2738.67,452.538" style="stroke: #A80036; stroke-width: 1.0;"/><text fill="#000000" font-family="sans-serif" font-size="13" lengthAdjust="spacingAndGlyphs" textLength="166" x="5205" y="386.5669">&lt;http://crmP2_has_type&gt;</text><path d="M7603.3,332.07 C7697.53,341.04 7777.44,352.411 7796,366 C7819.97,383.544 7829.38,418.958 7832.94,439.749 " fill="none" style="stroke: #A80036; stroke-width: 1.0;"/><polygon fill="#A80036" points="7833.77,444.949,7836.3113,435.4337,7832.987,440.0107,7828.41,436.6864,7833.77,444.949" style="stroke: #A80036; stroke-width: 1.0;"/><text fill="#000000" font-family="sans-serif" font-size="13" lengthAdjust="spacingAndGlyphs" textLength="206" x="7821" y="386.5669">&lt;http://crmP120i_occurs_after&gt;</text><path d="M5091.97,319.795 C4878.31,329.385 4630.53,344.806 4584,366 C4565.7,374.337 4570.37,389.82 4552,398 C4530.56,407.544 3899.46,436.177 3599.49,449.299 " fill="none" style="stroke: #A80036; stroke-width: 1.0;"/><polygon fill="#A80036" points="3594.23,449.529,3603.4034,453.1135,3599.2248,449.3005,3603.0378,445.1218,3594.23,449.529" style="stroke: #A80036; stroke-width: 1.0;"/><text fill="#000000" font-family="sans-serif" font-size="13" lengthAdjust="spacingAndGlyphs" textLength="255" x="4594" y="379.0669">&lt;http://crmP23_transferred_title_from&gt;</text><text fill="#000000" font-family="sans-serif" font-size="13" lengthAdjust="spacingAndGlyphs" textLength="273" x="4585" y="394.1997">&lt;http://crmP28_custody_surrendered_by&gt;</text><path d="M5413.59,336.259 C5408.32,356.255 5398.32,382.22 5380,398 C5354.72,419.772 5322.12,433.477 5289.88,442.072 " fill="none" style="stroke: #A80036; stroke-width: 1.0;"/><polygon fill="#A80036" points="5284.71,443.408,5294.4264,445.0176,5289.5495,442.1514,5292.4158,437.2744,5284.71,443.408" style="stroke: #A80036; stroke-width: 1.0;"/><text fill="#000000" font-family="sans-serif" font-size="13" lengthAdjust="spacingAndGlyphs" textLength="221" x="5425" y="379.0669">&lt;http://crmP24_acquired_title_of&gt;</text><text fill="#000000" font-family="sans-serif" font-size="13" lengthAdjust="spacingAndGlyphs" textLength="263" x="5404" y="394.1997">&lt;http://crmP30_custody_transferred_of&gt;</text><path d="M5091.98,321.878 C4966.59,326.858 4822.17,332.181 4691,336 C4606.74,338.453 3252.49,335.266 3174,366 C3154.07,373.805 3157.49,389.153 3138,398 C3069.18,429.231 2853.84,445.851 2743.95,452.491 " fill="none" style="stroke: #A80036; stroke-width: 1.0;"/><polygon fill="#A80036" points="2738.79,452.8,2748.0138,456.2528,2743.781,452.5,2747.5338,448.2673,2738.79,452.8" style="stroke: #A80036; stroke-width: 1.0;"/><text fill="#000000" font-family="sans-serif" font-size="13" lengthAdjust="spacingAndGlyphs" textLength="166" x="3175" y="386.5669">&lt;http://crmP2_has_type&gt;</text><path d="M5746.21,313.044 C6066.54,319.769 6517.37,334.682 6594,366 C6613.82,374.099 6610.52,389.115 6630,398 C6679.96,420.789 6809.64,436.044 6916.36,445.165 " fill="none" style="stroke: #A80036; stroke-width: 1.0;"/><polygon fill="#A80036" points="6921.43,445.594,6912.7925,440.8618,6916.4472,445.1796,6912.1294,448.8343,6921.43,445.594" style="stroke: #A80036; stroke-width: 1.0;"/><text fill="#000000" font-family="sans-serif" font-size="13" lengthAdjust="spacingAndGlyphs" textLength="238" x="6636.5" y="379.0669">&lt;http://crmP22_transferred_title_to&gt;</text><text fill="#000000" font-family="sans-serif" font-size="13" lengthAdjust="spacingAndGlyphs" textLength="249" x="6631" y="394.1997">&lt;http://crmP29_custody_received_by&gt;</text><path d="M5622.26,336.081 C5641.49,343.856 5659.81,353.659 5676,366 C5700.54,384.707 5713.91,419.64 5719.95,440.046 " fill="none" style="stroke: #A80036; stroke-width: 1.0;"/><polygon fill="#A80036" points="5721.33,444.903,5722.7143,435.1519,5719.9617,440.0939,5715.0197,437.3412,5721.33,444.903" style="stroke: #A80036; stroke-width: 1.0;"/><text fill="#000000" font-family="sans-serif" font-size="13" lengthAdjust="spacingAndGlyphs" textLength="206" x="5704" y="386.5669">&lt;http://crmP120i_occurs_after&gt;</text></g></svg>