<?xml version="1.0" encoding="UTF-8" standalone="no"?><svg xmlns="http://www.w3.org/2000/svg" xmlns:xlink="http://www.w3.org/1999/xlink" contentScriptType="application/ecmascript" contentStyleType="text/css" height="406px" preserveAspectRatio="none" style="width:466px;height:406px;" version="1.1" viewBox="0 0 466 406" width="466px" zoomAndPan="magnify"><defs><filter height="300%" id="fakwass" width="300%" x="-1" y="-1"><feGaussianBlur result="blurOut" stdDeviation="2.0"/><feColorMatrix in="blurOut" result="blurOut2" type="matrix" values="0 0 0 0 0 0 0 0 0 0 0 0 0 0 0 0 0 0 .4 0"/><feOffset dx="4.0" dy="4.0" in="blurOut2" result="blurOut3"/><feBlend in="SourceGraphic" in2="blurOut3" mode="normal"/></filter></defs><g><!--class aat_300015646--><rect fill="#FEFECE" filter="url(#fakwass)" height="44.7734" style="stroke: #A80036; stroke-width: 1.5;" width="230" x="151.5" y="252"/><text fill="#000000" font-family="sans-serif" font-size="12" lengthAdjust="spacingAndGlyphs" textLength="97" x="218" y="268.1387">aat:300015646</text><line style="stroke: #A80036; stroke-width: 1.5;" x1="152.5" x2="380.5" y1="275.9688" y2="275.9688"/><text fill="#000000" font-family="sans-serif" font-size="11" lengthAdjust="spacingAndGlyphs" textLength="218" x="157.5" y="290.1792">"Styles and Periods [hierarchy name]"</text><!--class _style_class_--><rect fill="#FEFECE" filter="url(#fakwass)" height="44.7734" style="stroke: #A80036; stroke-width: 1.5;" width="103" x="6" y="252"/><text fill="#000000" font-family="sans-serif" font-size="12" lengthAdjust="spacingAndGlyphs" textLength="87" x="14" y="268.1387">&lt;style_class&gt;</text><line style="stroke: #A80036; stroke-width: 1.5;" x1="7" x2="108" y1="275.9688" y2="275.9688"/><text fill="#000000" font-family="sans-serif" font-size="11" lengthAdjust="spacingAndGlyphs" textLength="91" x="12" y="290.1792">a crm:E55_Type</text><!--class _style_name_--><rect fill="#FEFECE" filter="url(#fakwass)" height="23.9688" style="stroke: #A80036; stroke-width: 1.5;" width="96" x="9.5" y="374"/><text fill="#000000" font-family="sans-serif" font-size="12" lengthAdjust="spacingAndGlyphs" textLength="90" x="12.5" y="390.1387">&lt;style_name&gt;</text><!--class _style_event_--><rect fill="#FEFECE" filter="url(#fakwass)" height="44.7734" style="stroke: #A80036; stroke-width: 1.5;" width="176" x="178.5" y="130"/><text fill="#000000" font-family="sans-serif" font-size="12" lengthAdjust="spacingAndGlyphs" textLength="90" x="221.5" y="146.1387">&lt;style_event&gt;</text><line style="stroke: #A80036; stroke-width: 1.5;" x1="179.5" x2="353.5" y1="153.9688" y2="153.9688"/><text fill="#000000" font-family="sans-serif" font-size="11" lengthAdjust="spacingAndGlyphs" textLength="164" x="184.5" y="168.1792">a crm:E17_Type_Assignment</text><!--class _entity_uri_--><rect fill="#FEFECE" filter="url(#fakwass)" height="44.7734" style="stroke: #A80036; stroke-width: 1.5;" width="175" x="30" y="8"/><text fill="#000000" font-family="sans-serif" font-size="12" lengthAdjust="spacingAndGlyphs" textLength="77" x="79" y="24.1387">&lt;entity_uri&gt;</text><line style="stroke: #A80036; stroke-width: 1.5;" x1="31" x2="204" y1="31.9688" y2="31.9688"/><text fill="#000000" font-family="sans-serif" font-size="11" lengthAdjust="spacingAndGlyphs" textLength="163" x="36" y="46.1792">a crm:E22_Man-Made_Object</text><path d="M57.5,297.134 C57.5,318.213 57.5,349.783 57.5,368.7869 " fill="none" style="stroke: #A80036; stroke-width: 1.0;"/><polygon fill="#A80036" points="57.5,373.7946,61.5,364.7946,57.5,368.7946,53.5,364.7946,57.5,373.7946" style="stroke: #A80036; stroke-width: 1.0;"/><text fill="#000000" font-family="sans-serif" font-size="13" lengthAdjust="spacingAndGlyphs" textLength="58" x="58.5" y="340.0669">rdfs:label</text><path d="M266.5,175.231 C266.5,195.365 266.5,225.366 266.5,246.919 " fill="none" style="stroke: #A80036; stroke-width: 1.0;"/><polygon fill="#A80036" points="266.5,251.931,270.5,242.931,266.5,246.931,262.5,242.931,266.5,251.931" style="stroke: #A80036; stroke-width: 1.0;"/><text fill="#000000" font-family="sans-serif" font-size="13" lengthAdjust="spacingAndGlyphs" textLength="198" x="267.5" y="218.0669">crm:P21_had_general_purpose</text><path d="M202.308,175.057 C181.602,183.17 158.982,193.306 139.5,205 C119.12,217.233 98.597,234.382 83.1807,248.461 " fill="none" style="stroke: #A80036; stroke-width: 1.0;"/><polygon fill="#A80036" points="79.3746,251.969,88.7029,248.8095,83.0507,248.5799,83.2804,242.9277,79.3746,251.969" style="stroke: #A80036; stroke-width: 1.0;"/><text fill="#000000" font-family="sans-serif" font-size="13" lengthAdjust="spacingAndGlyphs" textLength="117" x="140.5" y="218.0669">crm:P42_assigned</text><path d="M102.9562,53.094 C90.8275,72.355 74.313,101.791 66.5,130 C55.5858,169.406 54.9539,217.135 55.9144,246.403 " fill="none" style="stroke: #A80036; stroke-width: 1.0;"/><polygon fill="#A80036" points="56.1102,251.647,59.7731,242.5046,55.9245,246.6505,51.7787,242.8018,56.1102,251.647" style="stroke: #A80036; stroke-width: 1.0;"/><text fill="#000000" font-family="sans-serif" font-size="13" lengthAdjust="spacingAndGlyphs" textLength="92" x="67.5" y="157.0669">schema:genre</text><path d="M144.483,53.231 C170.115,73.875 208.628,104.891 235.508,126.54 " fill="none" style="stroke: #A80036; stroke-width: 1.0;"/><polygon fill="#A80036" points="239.718,129.931,235.2186,121.17,235.8243,126.7943,230.1999,127.3999,239.718,129.931" style="stroke: #A80036; stroke-width: 1.0;"/><text fill="#000000" font-family="sans-serif" font-size="13" lengthAdjust="spacingAndGlyphs" textLength="174" x="202.5" y="96.0669">crm:P41i_was_classified_by</text></g></svg>