<?xml version="1.0" encoding="UTF-8" standalone="no"?><svg xmlns="http://www.w3.org/2000/svg" xmlns:xlink="http://www.w3.org/1999/xlink" contentScriptType="application/ecmascript" contentStyleType="text/css" height="427px" preserveAspectRatio="none" style="width:589px;height:427px;" version="1.1" viewBox="0 0 589 427" width="589px" zoomAndPan="magnify"><defs><filter height="300%" id="frgt2tb" width="300%" x="-1" y="-1"><feGaussianBlur result="blurOut" stdDeviation="2.0"/><feColorMatrix in="blurOut" result="blurOut2" type="matrix" values="0 0 0 0 0 0 0 0 0 0 0 0 0 0 0 0 0 0 .4 0"/><feOffset dx="4.0" dy="4.0" in="blurOut2" result="blurOut3"/><feBlend in="SourceGraphic" in2="blurOut3" mode="normal"/></filter></defs><g><!--class _rights_statement_class_--><rect fill="#FEFECE" filter="url(#frgt2tb)" height="44.7734" style="stroke: #A80036; stroke-width: 1.5;" width="171" x="49.5" y="252"/><text fill="#000000" font-family="sans-serif" font-size="12" lengthAdjust="spacingAndGlyphs" textLength="165" x="52.5" y="268.1387">&lt;rights_statement_class&gt;</text><line style="stroke: #A80036; stroke-width: 1.5;" x1="50.5" x2="219.5" y1="275.9688" y2="275.9688"/><text fill="#000000" font-family="sans-serif" font-size="11" lengthAdjust="spacingAndGlyphs" textLength="159" x="55.5" y="290.1792">a crm:E33_Linguistic_Object</text><!--class aat_300055547--><rect fill="#FEFECE" filter="url(#frgt2tb)" height="44.7734" style="stroke: #A80036; stroke-width: 1.5;" width="104" x="6" y="374"/><text fill="#000000" font-family="sans-serif" font-size="12" lengthAdjust="spacingAndGlyphs" textLength="97" x="9.5" y="390.1387">aat:300055547</text><line style="stroke: #A80036; stroke-width: 1.5;" x1="7" x2="109" y1="397.9688" y2="397.9688"/><text fill="#000000" font-family="sans-serif" font-size="11" lengthAdjust="spacingAndGlyphs" textLength="92" x="12" y="412.1792">"legal concepts"</text><!--class _rights_statement_--><rect fill="#FEFECE" filter="url(#frgt2tb)" height="23.9688" style="stroke: #A80036; stroke-width: 1.5;" width="133" x="145.5" y="384.5"/><text fill="#000000" font-family="sans-serif" font-size="12" lengthAdjust="spacingAndGlyphs" textLength="127" x="148.5" y="400.6387">&lt;rights_statement&gt;</text><!--class _image_--><rect fill="#FEFECE" filter="url(#frgt2tb)" height="44.7734" style="stroke: #A80036; stroke-width: 1.5;" width="111" x="294.5" y="130"/><text fill="#000000" font-family="sans-serif" font-size="12" lengthAdjust="spacingAndGlyphs" textLength="58" x="321" y="146.1387">&lt;image&gt;</text><line style="stroke: #A80036; stroke-width: 1.5;" x1="295.5" x2="404.5" y1="153.9688" y2="153.9688"/><text fill="#000000" font-family="sans-serif" font-size="11" lengthAdjust="spacingAndGlyphs" textLength="99" x="300.5" y="168.1792">a crm:E38_Image</text><!--class _description_--><rect fill="#FEFECE" filter="url(#frgt2tb)" height="23.9688" style="stroke: #A80036; stroke-width: 1.5;" width="96" x="302" y="262.5"/><text fill="#000000" font-family="sans-serif" font-size="12" lengthAdjust="spacingAndGlyphs" textLength="90" x="305" y="278.6387">&lt;description&gt;</text><!--class _right_--><rect fill="#FEFECE" filter="url(#frgt2tb)" height="44.7734" style="stroke: #A80036; stroke-width: 1.5;" width="104" x="433" y="252"/><text fill="#000000" font-family="sans-serif" font-size="12" lengthAdjust="spacingAndGlyphs" textLength="49" x="460.5" y="268.1387">&lt;right&gt;</text><line style="stroke: #A80036; stroke-width: 1.5;" x1="434" x2="536" y1="275.9688" y2="275.9688"/><text fill="#000000" font-family="sans-serif" font-size="11" lengthAdjust="spacingAndGlyphs" textLength="92" x="439" y="290.1792">a crm:E30_Right</text><!--class _entity_uri_--><rect fill="#FEFECE" filter="url(#frgt2tb)" height="44.7734" style="stroke: #A80036; stroke-width: 1.5;" width="105" x="297.5" y="8"/><text fill="#000000" font-family="sans-serif" font-size="12" lengthAdjust="spacingAndGlyphs" textLength="77" x="311.5" y="24.1387">&lt;entity_uri&gt;</text><line style="stroke: #A80036; stroke-width: 1.5;" x1="298.5" x2="401.5" y1="31.9688" y2="31.9688"/><text fill="#000000" font-family="sans-serif" font-size="11" lengthAdjust="spacingAndGlyphs" textLength="93" x="303.5" y="46.1792">a crm:E39_Actor</text><path d="M86.2412,297.211 C74.5845,304.866 63.6123,314.711 57,327 C50.234,339.5751 50.0343,355.4219 51.7302,368.7055 " fill="none" style="stroke: #A80036; stroke-width: 1.0;"/><polygon fill="#A80036" points="52.4947,373.8463,55.1272,364.3558,51.7591,368.9007,47.2142,365.5327,52.4947,373.8463" style="stroke: #A80036; stroke-width: 1.0;"/><text fill="#000000" font-family="sans-serif" font-size="13" lengthAdjust="spacingAndGlyphs" textLength="110" x="58" y="340.0669">crm:P2_has_type</text><path d="M151.857,297.149 C158.672,306.202 166.457,316.94 173,327 C184.395,344.5217 196.076,365.5187 203.645,379.6072 " fill="none" style="stroke: #A80036; stroke-width: 1.0;"/><polygon fill="#A80036" points="206.047,384.1052,205.3342,374.2822,203.6909,379.6951,198.278,378.0519,206.047,384.1052" style="stroke: #A80036; stroke-width: 1.0;"/><text fill="#000000" font-family="sans-serif" font-size="13" lengthAdjust="spacingAndGlyphs" textLength="55" x="185" y="340.0669">rdf:value</text><path d="M294.285,157.049 C254.752,162.224 202.598,174.769 167,205 C154.436,215.67 146.498,232.355 141.671,246.586 " fill="none" style="stroke: #A80036; stroke-width: 1.0;"/><polygon fill="#A80036" points="140.031,251.703,146.5886,244.3546,141.558,246.9419,138.9708,241.9114,140.031,251.703" style="stroke: #A80036; stroke-width: 1.0;"/><text fill="#000000" font-family="sans-serif" font-size="13" lengthAdjust="spacingAndGlyphs" textLength="173" x="168" y="218.0669">crm:P67i_is_referred_to_by</text><path d="M350,175.231 C350,198.891 350,236.178 350,257.368 " fill="none" style="stroke: #A80036; stroke-width: 1.0;"/><polygon fill="#A80036" points="350,262.391,354,253.391,350,257.391,346,253.391,350,262.391" style="stroke: #A80036; stroke-width: 1.0;"/><text fill="#000000" font-family="sans-serif" font-size="13" lengthAdjust="spacingAndGlyphs" textLength="58" x="351" y="218.0669">rdfs:label</text><path d="M380.549,175.134 C392.54,184.008 406.222,194.622 418,205 C433.287,218.471 449.283,234.732 461.811,248.03 " fill="none" style="stroke: #A80036; stroke-width: 1.0;"/><polygon fill="#A80036" points="465.249,251.698,462.0124,242.3961,461.8296,248.05,456.1757,247.8672,465.249,251.698" style="stroke: #A80036; stroke-width: 1.0;"/><text fill="#000000" font-family="sans-serif" font-size="13" lengthAdjust="spacingAndGlyphs" textLength="151" x="437" y="218.0669">crm:P104_is_subject_to</text><path d="M350,53.231 C350,73.365 350,103.366 350,124.919 " fill="none" style="stroke: #A80036; stroke-width: 1.0;"/><polygon fill="#A80036" points="350,129.931,354,120.931,350,124.931,346,120.931,350,129.931" style="stroke: #A80036; stroke-width: 1.0;"/><text fill="#000000" font-family="sans-serif" font-size="13" lengthAdjust="spacingAndGlyphs" textLength="195" x="351" y="96.0669">crm:P138i_has_representation</text></g></svg>