<?xml version="1.0" encoding="UTF-8" standalone="no"?><svg xmlns="http://www.w3.org/2000/svg" xmlns:xlink="http://www.w3.org/1999/xlink" contentScriptType="application/ecmascript" contentStyleType="text/css" height="305px" preserveAspectRatio="none" style="width:314px;height:305px;" version="1.1" viewBox="0 0 314 305" width="314px" zoomAndPan="magnify"><defs><filter height="300%" id="fht7n88" width="300%" x="-1" y="-1"><feGaussianBlur result="blurOut" stdDeviation="2.0"/><feColorMatrix in="blurOut" result="blurOut2" type="matrix" values="0 0 0 0 0 0 0 0 0 0 0 0 0 0 0 0 0 0 .4 0"/><feOffset dx="4.0" dy="4.0" in="blurOut2" result="blurOut3"/><feBlend in="SourceGraphic" in2="blurOut3" mode="normal"/></filter></defs><g><!--class aat_300266036--><rect fill="#FEFECE" filter="url(#fht7n88)" height="44.7734" style="stroke: #A80036; stroke-width: 1.5;" width="103" x="6" y="252"/><text fill="#000000" font-family="sans-serif" font-size="12" lengthAdjust="spacingAndGlyphs" textLength="97" x="9" y="268.1387">aat:300266036</text><line style="stroke: #A80036; stroke-width: 1.5;" x1="7" x2="108" y1="275.9688" y2="275.9688"/><text fill="#000000" font-family="sans-serif" font-size="11" lengthAdjust="spacingAndGlyphs" textLength="76" x="12" y="290.1792">"dimensions"</text><!--class _dimension_class_--><rect fill="#FEFECE" filter="url(#fht7n88)" height="44.7734" style="stroke: #A80036; stroke-width: 1.5;" width="171" x="54" y="130"/><text fill="#000000" font-family="sans-serif" font-size="12" lengthAdjust="spacingAndGlyphs" textLength="122" x="78.5" y="146.1387">&lt;dimension_class&gt;</text><line style="stroke: #A80036; stroke-width: 1.5;" x1="55" x2="224" y1="153.9688" y2="153.9688"/><text fill="#000000" font-family="sans-serif" font-size="11" lengthAdjust="spacingAndGlyphs" textLength="159" x="60" y="168.1792">a crm:E33_Linguistic_Object</text><!--class _dimension_reference_--><rect fill="#FEFECE" filter="url(#fht7n88)" height="23.9688" style="stroke: #A80036; stroke-width: 1.5;" width="157" x="144" y="262.5"/><text fill="#000000" font-family="sans-serif" font-size="12" lengthAdjust="spacingAndGlyphs" textLength="151" x="147" y="278.6387">&lt;dimension_reference&gt;</text><!--class _entity_uri_--><rect fill="#FEFECE" filter="url(#fht7n88)" height="44.7734" style="stroke: #A80036; stroke-width: 1.5;" width="175" x="52" y="8"/><text fill="#000000" font-family="sans-serif" font-size="12" lengthAdjust="spacingAndGlyphs" textLength="77" x="101" y="24.1387">&lt;entity_uri&gt;</text><line style="stroke: #A80036; stroke-width: 1.5;" x1="53" x2="226" y1="31.9688" y2="31.9688"/><text fill="#000000" font-family="sans-serif" font-size="11" lengthAdjust="spacingAndGlyphs" textLength="163" x="58" y="46.1792">a crm:E22_Man-Made_Object</text><path d="M97.3972,175.222 C85.9812,183.099 74.7792,193.058 67.5,205 C59.9343,217.4116 57.2853,233.385 56.596,246.7844 " fill="none" style="stroke: #A80036; stroke-width: 1.0;"/><polygon fill="#A80036" points="56.4181,251.97,60.7246,243.1126,56.5897,246.9729,52.7293,242.838,56.4181,251.97" style="stroke: #A80036; stroke-width: 1.0;"/><text fill="#000000" font-family="sans-serif" font-size="13" lengthAdjust="spacingAndGlyphs" textLength="110" x="68.5" y="218.0669">crm:P2_has_type</text><path d="M159.516,175.065 C167.395,184.017 176.268,194.703 183.5,205 C195.654,222.3054 207.346,243.6783 214.704,257.9025 " fill="none" style="stroke: #A80036; stroke-width: 1.0;"/><polygon fill="#A80036" points="217.028,262.436,216.4825,252.6023,214.7474,257.9864,209.3632,256.2513,217.028,262.436" style="stroke: #A80036; stroke-width: 1.0;"/><text fill="#000000" font-family="sans-serif" font-size="13" lengthAdjust="spacingAndGlyphs" textLength="58" x="194.5" y="218.0669">rdfs:label</text><path d="M139.5,53.231 C139.5,73.365 139.5,103.366 139.5,124.919 " fill="none" style="stroke: #A80036; stroke-width: 1.0;"/><polygon fill="#A80036" points="139.5,129.931,143.5,120.931,139.5,124.931,135.5,120.931,139.5,129.931" style="stroke: #A80036; stroke-width: 1.0;"/><text fill="#000000" font-family="sans-serif" font-size="13" lengthAdjust="spacingAndGlyphs" textLength="173" x="140.5" y="96.0669">crm:p67i_is_referred_to_by</text></g></svg>