<?xml version="1.0" encoding="UTF-8" standalone="no"?><svg xmlns="http://www.w3.org/2000/svg" xmlns:xlink="http://www.w3.org/1999/xlink" contentScriptType="application/ecmascript" contentStyleType="text/css" height="528px" preserveAspectRatio="none" style="width:390px;height:528px;" version="1.1" viewBox="0 0 390 528" width="390px" zoomAndPan="magnify"><defs><filter height="300%" id="fs6mwf5" width="300%" x="-1" y="-1"><feGaussianBlur result="blurOut" stdDeviation="2.0"/><feColorMatrix in="blurOut" result="blurOut2" type="matrix" values="0 0 0 0 0 0 0 0 0 0 0 0 0 0 0 0 0 0 .4 0"/><feOffset dx="4.0" dy="4.0" in="blurOut2" result="blurOut3"/><feBlend in="SourceGraphic" in2="blurOut3" mode="normal"/></filter></defs><g><!--class _author_class_--><rect fill="#FEFECE" filter="url(#fs6mwf5)" height="44.7734" style="stroke: #A80036; stroke-width: 1.5;" width="106" x="174" y="374"/><text fill="#000000" font-family="sans-serif" font-size="12" lengthAdjust="spacingAndGlyphs" textLength="100" x="177" y="390.1387">&lt;author_class&gt;</text><line style="stroke: #A80036; stroke-width: 1.5;" x1="175" x2="279" y1="397.9688" y2="397.9688"/><text fill="#000000" font-family="sans-serif" font-size="11" lengthAdjust="spacingAndGlyphs" textLength="93" x="180" y="412.1792">a crm:E39_Actor</text><!--class _alt_desc_author_lod_id_--><rect fill="#FEFECE" filter="url(#fs6mwf5)" height="23.9688" style="stroke: #A80036; stroke-width: 1.5;" width="168" x="52" y="496"/><text fill="#000000" font-family="sans-serif" font-size="12" lengthAdjust="spacingAndGlyphs" textLength="162" x="55" y="512.1387">&lt;alt_desc_author_lod_id&gt;</text><!--class _alt_desc_author_--><rect fill="#FEFECE" filter="url(#fs6mwf5)" height="23.9688" style="stroke: #A80036; stroke-width: 1.5;" width="126" x="255" y="496"/><text fill="#000000" font-family="sans-serif" font-size="12" lengthAdjust="spacingAndGlyphs" textLength="120" x="258" y="512.1387">&lt;alt_desc_author&gt;</text><!--class _description_class_--><rect fill="#FEFECE" filter="url(#fs6mwf5)" height="44.7734" style="stroke: #A80036; stroke-width: 1.5;" width="171" x="55.5" y="130"/><text fill="#000000" font-family="sans-serif" font-size="12" lengthAdjust="spacingAndGlyphs" textLength="128" x="77" y="146.1387">&lt;description_class&gt;</text><line style="stroke: #A80036; stroke-width: 1.5;" x1="56.5" x2="225.5" y1="153.9688" y2="153.9688"/><text fill="#000000" font-family="sans-serif" font-size="11" lengthAdjust="spacingAndGlyphs" textLength="159" x="61.5" y="168.1792">a crm:E33_Linguistic_Object</text><!--class _alt_description_--><rect fill="#FEFECE" filter="url(#fs6mwf5)" height="23.9688" style="stroke: #A80036; stroke-width: 1.5;" width="118" x="6" y="262.5"/><text fill="#000000" font-family="sans-serif" font-size="12" lengthAdjust="spacingAndGlyphs" textLength="112" x="9" y="278.6387">&lt;alt_description&gt;</text><!--class _authorship_event_--><rect fill="#FEFECE" filter="url(#fs6mwf5)" height="44.7734" style="stroke: #A80036; stroke-width: 1.5;" width="135" x="159.5" y="252"/><text fill="#000000" font-family="sans-serif" font-size="12" lengthAdjust="spacingAndGlyphs" textLength="129" x="162.5" y="268.1387">&lt;authorship_event&gt;</text><line style="stroke: #A80036; stroke-width: 1.5;" x1="160.5" x2="293.5" y1="275.9688" y2="275.9688"/><text fill="#000000" font-family="sans-serif" font-size="11" lengthAdjust="spacingAndGlyphs" textLength="112" x="165.5" y="290.1792">a crm:E65_Creation</text><!--class _entity_uri_--><rect fill="#FEFECE" filter="url(#fs6mwf5)" height="44.7734" style="stroke: #A80036; stroke-width: 1.5;" width="175" x="53.5" y="8"/><text fill="#000000" font-family="sans-serif" font-size="12" lengthAdjust="spacingAndGlyphs" textLength="77" x="102.5" y="24.1387">&lt;entity_uri&gt;</text><line style="stroke: #A80036; stroke-width: 1.5;" x1="54.5" x2="227.5" y1="31.9688" y2="31.9688"/><text fill="#000000" font-family="sans-serif" font-size="11" lengthAdjust="spacingAndGlyphs" textLength="163" x="59.5" y="46.1792">a crm:E22_Man-Made_Object</text><path d="M196.595,419.243 C186.068,427.7339 174.731,438.0582 166,449 C155.729,461.871 147.456,478.808 142.22,491.0535 " fill="none" style="stroke: #A80036; stroke-width: 1.0;"/><polygon fill="#A80036" points="140.164,495.9889,147.3165,489.2183,142.0862,491.3731,139.9313,486.1428,140.164,495.9889" style="stroke: #A80036; stroke-width: 1.0;"/><text fill="#000000" font-family="sans-serif" font-size="13" lengthAdjust="spacingAndGlyphs" textLength="107" x="167" y="462.0669">skos:exactMatch</text><path d="M250.795,419.134 C260.025,428.0088 270.415,438.622 279,449 C290.198,462.5369 301.204,479.3134 308.653,491.3354 " fill="none" style="stroke: #A80036; stroke-width: 1.0;"/><polygon fill="#A80036" points="311.424,495.8529,310.129,486.0896,308.8102,491.5905,303.3092,490.2717,311.424,495.8529" style="stroke: #A80036; stroke-width: 1.0;"/><text fill="#000000" font-family="sans-serif" font-size="13" lengthAdjust="spacingAndGlyphs" textLength="58" x="293" y="462.0669">rdfs:label</text><path d="M94.9748,175.098 C83.4776,182.834 72.564,192.748 66,205 C57.3959,221.06 58.7309,242.427 61.191,257 " fill="none" style="stroke: #A80036; stroke-width: 1.0;"/><polygon fill="#A80036" points="62.1319,262.039,64.4131,252.458,61.2147,257.1238,56.5489,253.9255,62.1319,262.039" style="stroke: #A80036; stroke-width: 1.0;"/><text fill="#000000" font-family="sans-serif" font-size="13" lengthAdjust="spacingAndGlyphs" textLength="111" x="67" y="218.0669">crm:p3_has_note</text><path d="M159.546,175.123 C167.065,184.172 175.684,194.914 183,205 C192.917,218.671 203.162,234.504 211.269,247.502 " fill="none" style="stroke: #A80036; stroke-width: 1.0;"/><polygon fill="#A80036" points="213.933,251.794,212.5851,242.0378,211.2961,247.5458,205.7881,246.2568,213.933,251.794" style="stroke: #A80036; stroke-width: 1.0;"/><text fill="#000000" font-family="sans-serif" font-size="13" lengthAdjust="spacingAndGlyphs" textLength="165" x="196" y="218.0669">crm:P94i_was_created_by</text><path d="M141,53.231 C141,73.365 141,103.366 141,124.919 " fill="none" style="stroke: #A80036; stroke-width: 1.0;"/><polygon fill="#A80036" points="141,129.931,145,120.931,141,124.931,137,120.931,141,129.931" style="stroke: #A80036; stroke-width: 1.0;"/><text fill="#000000" font-family="sans-serif" font-size="13" lengthAdjust="spacingAndGlyphs" textLength="153" x="142" y="96.0669">crm:P129i_is_subject_of</text><path d="M227,297.231 C227,317.365 227,347.366 227,368.919 " fill="none" style="stroke: #A80036; stroke-width: 1.0;"/><polygon fill="#A80036" points="227,373.931,231,364.931,227,368.931,223,364.931,227,373.931" style="stroke: #A80036; stroke-width: 1.0;"/><text fill="#000000" font-family="sans-serif" font-size="13" lengthAdjust="spacingAndGlyphs" textLength="154" x="228" y="340.0669">crm:P14_carried_out_by</text></g></svg>