<?xml version="1.0" encoding="UTF-8" standalone="no"?><svg xmlns="http://www.w3.org/2000/svg" xmlns:xlink="http://www.w3.org/1999/xlink" contentScriptType="application/ecmascript" contentStyleType="text/css" height="406px" preserveAspectRatio="none" style="width:475px;height:406px;" version="1.1" viewBox="0 0 475 406" width="475px" zoomAndPan="magnify"><defs><filter height="300%" id="f87wazh" width="300%" x="-1" y="-1"><feGaussianBlur result="blurOut" stdDeviation="2.0"/><feColorMatrix in="blurOut" result="blurOut2" type="matrix" values="0 0 0 0 0 0 0 0 0 0 0 0 0 0 0 0 0 0 .4 0"/><feOffset dx="4.0" dy="4.0" in="blurOut2" result="blurOut3"/><feBlend in="SourceGraphic" in2="blurOut3" mode="normal"/></filter></defs><g><!--class aat_300015646--><rect fill="#FEFECE" filter="url(#f87wazh)" height="44.7734" style="stroke: #A80036; stroke-width: 1.5;" width="230" x="160.5" y="252"/><text fill="#000000" font-family="sans-serif" font-size="12" lengthAdjust="spacingAndGlyphs" textLength="97" x="227" y="268.1387">aat:300015646</text><line style="stroke: #A80036; stroke-width: 1.5;" x1="161.5" x2="389.5" y1="275.9688" y2="275.9688"/><text fill="#000000" font-family="sans-serif" font-size="11" lengthAdjust="spacingAndGlyphs" textLength="218" x="166.5" y="290.1792">"Styles and Periods [hierarchy name]"</text><!--class _style_class_--><rect fill="#FEFECE" filter="url(#f87wazh)" height="44.7734" style="stroke: #A80036; stroke-width: 1.5;" width="103" x="6" y="252"/><text fill="#000000" font-family="sans-serif" font-size="12" lengthAdjust="spacingAndGlyphs" textLength="87" x="14" y="268.1387">&lt;style_class&gt;</text><line style="stroke: #A80036; stroke-width: 1.5;" x1="7" x2="108" y1="275.9688" y2="275.9688"/><text fill="#000000" font-family="sans-serif" font-size="11" lengthAdjust="spacingAndGlyphs" textLength="91" x="12" y="290.1792">a crm:E55_Type</text><!--class _style_name_--><rect fill="#FEFECE" filter="url(#f87wazh)" height="23.9688" style="stroke: #A80036; stroke-width: 1.5;" width="96" x="9.5" y="374"/><text fill="#000000" font-family="sans-serif" font-size="12" lengthAdjust="spacingAndGlyphs" textLength="90" x="12.5" y="390.1387">&lt;style_name&gt;</text><!--class _style_event_--><rect fill="#FEFECE" filter="url(#f87wazh)" height="44.7734" style="stroke: #A80036; stroke-width: 1.5;" width="176" x="187.5" y="130"/><text fill="#000000" font-family="sans-serif" font-size="12" lengthAdjust="spacingAndGlyphs" textLength="90" x="230.5" y="146.1387">&lt;style_event&gt;</text><line style="stroke: #A80036; stroke-width: 1.5;" x1="188.5" x2="362.5" y1="153.9688" y2="153.9688"/><text fill="#000000" font-family="sans-serif" font-size="11" lengthAdjust="spacingAndGlyphs" textLength="164" x="193.5" y="168.1792">a crm:E17_Type_Assignment</text><!--class _entity_uri_--><rect fill="#FEFECE" filter="url(#f87wazh)" height="44.7734" style="stroke: #A80036; stroke-width: 1.5;" width="175" x="26" y="8"/><text fill="#000000" font-family="sans-serif" font-size="12" lengthAdjust="spacingAndGlyphs" textLength="77" x="75" y="24.1387">&lt;entity_uri&gt;</text><line style="stroke: #A80036; stroke-width: 1.5;" x1="27" x2="200" y1="31.9688" y2="31.9688"/><text fill="#000000" font-family="sans-serif" font-size="11" lengthAdjust="spacingAndGlyphs" textLength="163" x="32" y="46.1792">a crm:E22_Man-Made_Object</text><path d="M57.5,297.134 C57.5,318.213 57.5,349.783 57.5,368.7869 " fill="none" style="stroke: #A80036; stroke-width: 1.0;"/><polygon fill="#A80036" points="57.5,373.7946,61.5,364.7946,57.5,368.7946,53.5,364.7946,57.5,373.7946" style="stroke: #A80036; stroke-width: 1.0;"/><text fill="#000000" font-family="sans-serif" font-size="13" lengthAdjust="spacingAndGlyphs" textLength="58" x="58.5" y="340.0669">rdfs:label</text><path d="M275.5,175.231 C275.5,195.365 275.5,225.366 275.5,246.919 " fill="none" style="stroke: #A80036; stroke-width: 1.0;"/><polygon fill="#A80036" points="275.5,251.931,279.5,242.931,275.5,246.931,271.5,242.931,275.5,251.931" style="stroke: #A80036; stroke-width: 1.0;"/><text fill="#000000" font-family="sans-serif" font-size="13" lengthAdjust="spacingAndGlyphs" textLength="198" x="276.5" y="218.0669">crm:P21_had_general_purpose</text><path d="M213.27,175.007 C192.156,183.271 168.789,193.511 148.5,205 C126.609,217.396 104.0027,234.388 86.7976,248.347 " fill="none" style="stroke: #A80036; stroke-width: 1.0;"/><polygon fill="#A80036" points="82.5436,251.826,92.0431,249.226,86.4145,248.6612,86.9793,243.0326,82.5436,251.826" style="stroke: #A80036; stroke-width: 1.0;"/><text fill="#000000" font-family="sans-serif" font-size="13" lengthAdjust="spacingAndGlyphs" textLength="117" x="149.5" y="218.0669">crm:P42_assigned</text><path d="M96.7975,53.126 C83.2115,72.174 65.0925,101.283 57.5,130 C47.0688,169.453 49.9867,217.17 53.4413,246.421 " fill="none" style="stroke: #A80036; stroke-width: 1.0; stroke-dasharray: 7.0,7.0;"/><polygon fill="#A80036" points="54.0894,251.662,56.9534,242.2388,53.4751,246.6999,49.014,243.2216,54.0894,251.662" style="stroke: #A80036; stroke-width: 1.0;"/><text fill="#000000" font-family="sans-serif" font-size="13" lengthAdjust="spacingAndGlyphs" textLength="110" x="58.5" y="157.0669">crm:P2_has_type</text><path d="M142.837,53.231 C170.821,73.96 212.923,105.147 242.164,126.806 " fill="none" style="stroke: #A80036; stroke-width: 1.0;"/><polygon fill="#A80036" points="246.381,129.931,241.5285,121.3605,242.3627,126.9555,236.7677,127.7897,246.381,129.931" style="stroke: #A80036; stroke-width: 1.0;"/><text fill="#000000" font-family="sans-serif" font-size="13" lengthAdjust="spacingAndGlyphs" textLength="174" x="205.5" y="96.0669">crm:P41i_was_classified_by</text></g></svg>