<?xml version="1.0" encoding="UTF-8" standalone="no"?><svg xmlns="http://www.w3.org/2000/svg" xmlns:xlink="http://www.w3.org/1999/xlink" contentScriptType="application/ecmascript" contentStyleType="text/css" height="406px" preserveAspectRatio="none" style="width:448px;height:406px;" version="1.1" viewBox="0 0 448 406" width="448px" zoomAndPan="magnify"><defs><filter height="300%" id="f725s2b" width="300%" x="-1" y="-1"><feGaussianBlur result="blurOut" stdDeviation="2.0"/><feColorMatrix in="blurOut" result="blurOut2" type="matrix" values="0 0 0 0 0 0 0 0 0 0 0 0 0 0 0 0 0 0 .4 0"/><feOffset dx="4.0" dy="4.0" in="blurOut2" result="blurOut3"/><feBlend in="SourceGraphic" in2="blurOut3" mode="normal"/></filter></defs><g><!--class _department_class_--><rect fill="#FEFECE" filter="url(#f725s2b)" height="44.7734" style="stroke: #A80036; stroke-width: 1.5;" width="138" x="7.5" y="252"/><text fill="#000000" font-family="sans-serif" font-size="12" lengthAdjust="spacingAndGlyphs" textLength="132" x="10.5" y="268.1387">&lt;department_class&gt;</text><line style="stroke: #A80036; stroke-width: 1.5;" x1="8.5" x2="144.5" y1="275.9688" y2="275.9688"/><text fill="#000000" font-family="sans-serif" font-size="11" lengthAdjust="spacingAndGlyphs" textLength="99" x="13.5" y="290.1792">a crm:E74_Group</text><!--class _department_name_--><rect fill="#FEFECE" filter="url(#f725s2b)" height="23.9688" style="stroke: #A80036; stroke-width: 1.5;" width="141" x="6" y="374"/><text fill="#000000" font-family="sans-serif" font-size="12" lengthAdjust="spacingAndGlyphs" textLength="135" x="9" y="390.1387">&lt;department_name&gt;</text><!--class _collection_class_--><rect fill="#FEFECE" filter="url(#f725s2b)" height="44.7734" style="stroke: #A80036; stroke-width: 1.5;" width="164" x="143.5" y="130"/><text fill="#000000" font-family="sans-serif" font-size="12" lengthAdjust="spacingAndGlyphs" textLength="118" x="166.5" y="146.1387">&lt;collection_class&gt;</text><line style="stroke: #A80036; stroke-width: 1.5;" x1="144.5" x2="306.5" y1="153.9688" y2="153.9688"/><text fill="#000000" font-family="sans-serif" font-size="11" lengthAdjust="spacingAndGlyphs" textLength="152" x="149.5" y="168.1792">a crm:E19_Physical_Object</text><!--class _collection_name_--><rect fill="#FEFECE" filter="url(#f725s2b)" height="23.9688" style="stroke: #A80036; stroke-width: 1.5;" width="127" x="312" y="262.5"/><text fill="#000000" font-family="sans-serif" font-size="12" lengthAdjust="spacingAndGlyphs" textLength="121" x="315" y="278.6387">&lt;collection_name&gt;</text><!--class _entity_uri_--><rect fill="#FEFECE" filter="url(#f725s2b)" height="44.7734" style="stroke: #A80036; stroke-width: 1.5;" width="175" x="138" y="8"/><text fill="#000000" font-family="sans-serif" font-size="12" lengthAdjust="spacingAndGlyphs" textLength="77" x="187" y="24.1387">&lt;entity_uri&gt;</text><line style="stroke: #A80036; stroke-width: 1.5;" x1="139" x2="312" y1="31.9688" y2="31.9688"/><text fill="#000000" font-family="sans-serif" font-size="11" lengthAdjust="spacingAndGlyphs" textLength="163" x="144" y="46.1792">a crm:E22_Man-Made_Object</text><path d="M76.5,297.134 C76.5,318.213 76.5,349.783 76.5,368.7869 " fill="none" style="stroke: #A80036; stroke-width: 1.0;"/><polygon fill="#A80036" points="76.5,373.7946,80.5,364.7946,76.5,368.7946,72.5,364.7946,76.5,373.7946" style="stroke: #A80036; stroke-width: 1.0;"/><text fill="#000000" font-family="sans-serif" font-size="13" lengthAdjust="spacingAndGlyphs" textLength="58" x="77.5" y="340.0669">rdfs:label</text><path d="M143.446,162.232 C116.748,169.417 89.8169,182.244 73.5,205 C64.9747,216.89 65.3269,233.152 67.9975,246.848 " fill="none" style="stroke: #A80036; stroke-width: 1.0;"/><polygon fill="#A80036" points="69.0741,251.765,71.0555,242.1175,68.0041,246.8808,63.2408,243.8295,69.0741,251.765" style="stroke: #A80036; stroke-width: 1.0;"/><text fill="#000000" font-family="sans-serif" font-size="13" lengthAdjust="spacingAndGlyphs" textLength="257" x="74.5" y="218.0669">crm:P49_has_former_or_current_keeper</text><path d="M289.55,175.104 C306.117,182.758 323.055,192.63 336.5,205 C352.424,219.652 363.556,242.338 369.74,257.543 " fill="none" style="stroke: #A80036; stroke-width: 1.0;"/><polygon fill="#A80036" points="371.647,262.39,372.0753,252.5505,369.8169,257.737,364.6304,255.4786,371.647,262.39" style="stroke: #A80036; stroke-width: 1.0;"/><text fill="#000000" font-family="sans-serif" font-size="13" lengthAdjust="spacingAndGlyphs" textLength="58" x="351.5" y="218.0669">rdfs:label</text><path d="M225.5,53.231 C225.5,73.365 225.5,103.366 225.5,124.919 " fill="none" style="stroke: #A80036; stroke-width: 1.0;"/><polygon fill="#A80036" points="225.5,129.931,229.5,120.931,225.5,124.931,221.5,120.931,225.5,129.931" style="stroke: #A80036; stroke-width: 1.0;"/><text fill="#000000" font-family="sans-serif" font-size="13" lengthAdjust="spacingAndGlyphs" textLength="152" x="226.5" y="96.0669">crm:P46i_forms_part_of</text></g></svg>