<?xml version="1.0" encoding="UTF-8" standalone="no"?><svg xmlns="http://www.w3.org/2000/svg" xmlns:xlink="http://www.w3.org/1999/xlink" contentScriptType="application/ecmascript" contentStyleType="text/css" height="549px" preserveAspectRatio="none" style="width:379px;height:549px;" version="1.1" viewBox="0 0 379 549" width="379px" zoomAndPan="magnify"><defs><filter height="300%" id="f61varb" width="300%" x="-1" y="-1"><feGaussianBlur result="blurOut" stdDeviation="2.0"/><feColorMatrix in="blurOut" result="blurOut2" type="matrix" values="0 0 0 0 0 0 0 0 0 0 0 0 0 0 0 0 0 0 .4 0"/><feOffset dx="4.0" dy="4.0" in="blurOut2" result="blurOut3"/><feBlend in="SourceGraphic" in2="blurOut3" mode="normal"/></filter></defs><g><!--class aat_300404651--><rect fill="#FEFECE" filter="url(#f61varb)" height="44.7734" style="stroke: #A80036; stroke-width: 1.5;" width="103" x="99.5" y="496"/><text fill="#000000" font-family="sans-serif" font-size="12" lengthAdjust="spacingAndGlyphs" textLength="97" x="102.5" y="512.1387">aat:300404651</text><line style="stroke: #A80036; stroke-width: 1.5;" x1="100.5" x2="201.5" y1="519.9688" y2="519.9688"/><text fill="#000000" font-family="sans-serif" font-size="11" lengthAdjust="spacingAndGlyphs" textLength="76" x="105.5" y="534.1792">"first names"</text><!--class _given_name_class_--><rect fill="#FEFECE" filter="url(#f61varb)" height="44.7734" style="stroke: #A80036; stroke-width: 1.5;" width="173" x="17.5" y="252"/><text fill="#000000" font-family="sans-serif" font-size="12" lengthAdjust="spacingAndGlyphs" textLength="132" x="38" y="268.1387">&lt;given_name_class&gt;</text><line style="stroke: #A80036; stroke-width: 1.5;" x1="18.5" x2="189.5" y1="275.9688" y2="275.9688"/><text fill="#000000" font-family="sans-serif" font-size="11" lengthAdjust="spacingAndGlyphs" textLength="161" x="23.5" y="290.1792">a crm:E82_Actor_Appellation</text><!--class _given_name_--><rect fill="#FEFECE" filter="url(#f61varb)" height="23.9688" style="stroke: #A80036; stroke-width: 1.5;" width="100" x="6" y="384.5"/><text fill="#000000" font-family="sans-serif" font-size="12" lengthAdjust="spacingAndGlyphs" textLength="94" x="9" y="400.6387">&lt;given_name&gt;</text><!--class _given_name_type_class_--><rect fill="#FEFECE" filter="url(#f61varb)" height="44.7734" style="stroke: #A80036; stroke-width: 1.5;" width="171" x="141.5" y="374"/><text fill="#000000" font-family="sans-serif" font-size="12" lengthAdjust="spacingAndGlyphs" textLength="165" x="144.5" y="390.1387">&lt;given_name_type_class&gt;</text><line style="stroke: #A80036; stroke-width: 1.5;" x1="142.5" x2="311.5" y1="397.9688" y2="397.9688"/><text fill="#000000" font-family="sans-serif" font-size="11" lengthAdjust="spacingAndGlyphs" textLength="91" x="147.5" y="412.1792">a crm:E55_Type</text><!--class _given_name_type_--><rect fill="#FEFECE" filter="url(#f61varb)" height="23.9688" style="stroke: #A80036; stroke-width: 1.5;" width="133" x="237.5" y="506.5"/><text fill="#000000" font-family="sans-serif" font-size="12" lengthAdjust="spacingAndGlyphs" textLength="127" x="240.5" y="522.6387">&lt;given_name_type&gt;</text><!--class _name_--><rect fill="#FEFECE" filter="url(#f61varb)" height="44.7734" style="stroke: #A80036; stroke-width: 1.5;" width="173" x="17.5" y="130"/><text fill="#000000" font-family="sans-serif" font-size="12" lengthAdjust="spacingAndGlyphs" textLength="55" x="76.5" y="146.1387">&lt;name&gt;</text><line style="stroke: #A80036; stroke-width: 1.5;" x1="18.5" x2="189.5" y1="153.9688" y2="153.9688"/><text fill="#000000" font-family="sans-serif" font-size="11" lengthAdjust="spacingAndGlyphs" textLength="161" x="23.5" y="168.1792">a crm:E82_Actor_Appellation</text><!--class _entity_uri_--><rect fill="#FEFECE" filter="url(#f61varb)" height="44.7734" style="stroke: #A80036; stroke-width: 1.5;" width="105" x="51.5" y="8"/><text fill="#000000" font-family="sans-serif" font-size="12" lengthAdjust="spacingAndGlyphs" textLength="77" x="65.5" y="24.1387">&lt;entity_uri&gt;</text><line style="stroke: #A80036; stroke-width: 1.5;" x1="52.5" x2="155.5" y1="31.9688" y2="31.9688"/><text fill="#000000" font-family="sans-serif" font-size="11" lengthAdjust="spacingAndGlyphs" textLength="93" x="57.5" y="46.1792">a crm:E39_Actor</text><path d="M95.3076,297.231 C85.8034,320.992 70.8024,358.494 62.3453,379.637 " fill="none" style="stroke: #A80036; stroke-width: 1.0;"/><polygon fill="#A80036" points="60.4438,384.391,67.5004,377.5205,62.3009,379.7487,60.0727,374.5491,60.4438,384.391" style="stroke: #A80036; stroke-width: 1.0;"/><text fill="#000000" font-family="sans-serif" font-size="13" lengthAdjust="spacingAndGlyphs" textLength="55" x="84" y="340.0669">rdf:value</text><path d="M126.274,297.231 C147.347,317.79 178.965,348.636 201.141,370.272 " fill="none" style="stroke: #A80036; stroke-width: 1.0;"/><polygon fill="#A80036" points="204.891,373.931,201.2406,364.7836,201.3115,370.44,195.6551,370.5109,204.891,373.931" style="stroke: #A80036; stroke-width: 1.0;"/><text fill="#000000" font-family="sans-serif" font-size="13" lengthAdjust="spacingAndGlyphs" textLength="110" x="174" y="340.0669">crm:P2_has_type</text><path d="M179.254,419.064 C167.598,426.758 156.593,436.659 150,449 C143.271,461.5952 143.074,477.4432 144.762,490.7225 " fill="none" style="stroke: #A80036; stroke-width: 1.0;"/><polygon fill="#A80036" points="145.523,495.8613,148.1614,486.3724,144.7905,490.9152,140.2477,487.5444,145.523,495.8613" style="stroke: #A80036; stroke-width: 1.0;"/><text fill="#000000" font-family="sans-serif" font-size="13" lengthAdjust="spacingAndGlyphs" textLength="109" x="151" y="462.0669">skos:broadMatch</text><path d="M243.857,419.149 C250.672,428.202 258.457,438.94 265,449 C276.395,466.5217 288.076,487.5187 295.645,501.6072 " fill="none" style="stroke: #A80036; stroke-width: 1.0;"/><polygon fill="#A80036" points="298.047,506.1052,297.3342,496.2822,295.6909,501.6951,290.278,500.0519,298.047,506.1052" style="stroke: #A80036; stroke-width: 1.0;"/><text fill="#000000" font-family="sans-serif" font-size="13" lengthAdjust="spacingAndGlyphs" textLength="92" x="277" y="462.0669">skos:prefLabel</text><path d="M104,175.231 C104,195.365 104,225.366 104,246.919 " fill="none" style="stroke: #A80036; stroke-width: 1.0;"/><polygon fill="#A80036" points="104,251.931,108,242.931,104,246.931,100,242.931,104,251.931" style="stroke: #A80036; stroke-width: 1.0;"/><text fill="#000000" font-family="sans-serif" font-size="13" lengthAdjust="spacingAndGlyphs" textLength="171" x="105" y="218.0669">crm:P106_is_composed_of</text><path d="M104,53.231 C104,73.365 104,103.366 104,124.919 " fill="none" style="stroke: #A80036; stroke-width: 1.0;"/><polygon fill="#A80036" points="104,129.931,108,120.931,104,124.931,100,120.931,104,129.931" style="stroke: #A80036; stroke-width: 1.0;"/><text fill="#000000" font-family="sans-serif" font-size="13" lengthAdjust="spacingAndGlyphs" textLength="165" x="105" y="96.0669">crm:P131_is_identified_by</text></g></svg>