<?xml version="1.0" encoding="UTF-8" standalone="no"?><svg xmlns="http://www.w3.org/2000/svg" xmlns:xlink="http://www.w3.org/1999/xlink" contentScriptType="application/ecmascript" contentStyleType="text/css" height="284px" preserveAspectRatio="none" style="width:509px;height:284px;" version="1.1" viewBox="0 0 509 284" width="509px" zoomAndPan="magnify"><defs><filter height="300%" id="f475217" width="300%" x="-1" y="-1"><feGaussianBlur result="blurOut" stdDeviation="2.0"/><feColorMatrix in="blurOut" result="blurOut2" type="matrix" values="0 0 0 0 0 0 0 0 0 0 0 0 0 0 0 0 0 0 .4 0"/><feOffset dx="4.0" dy="4.0" in="blurOut2" result="blurOut3"/><feBlend in="SourceGraphic" in2="blurOut3" mode="normal"/></filter></defs><g><!--class _sort_name_class_--><rect fill="#FEFECE" filter="url(#f475217)" height="44.7734" style="stroke: #A80036; stroke-width: 1.5;" width="173" x="123" y="130"/><text fill="#000000" font-family="sans-serif" font-size="12" lengthAdjust="spacingAndGlyphs" textLength="124" x="147.5" y="146.1387">&lt;sort_name_class&gt;</text><line style="stroke: #A80036; stroke-width: 1.5;" x1="124" x2="295" y1="153.9688" y2="153.9688"/><text fill="#000000" font-family="sans-serif" font-size="11" lengthAdjust="spacingAndGlyphs" textLength="161" x="129" y="168.1792">a crm:E82_Actor_Appellation</text><!--class aat_300404672--><rect fill="#FEFECE" filter="url(#f475217)" height="23.9688" style="stroke: #A80036; stroke-width: 1.5;" width="103" x="6" y="252"/><text fill="#000000" font-family="sans-serif" font-size="12" lengthAdjust="spacingAndGlyphs" textLength="97" x="9" y="268.1387">aat:300404672</text><!--class _name_class_--><rect fill="#FEFECE" filter="url(#f475217)" height="23.9688" style="stroke: #A80036; stroke-width: 1.5;" width="99" x="160" y="252"/><text fill="#000000" font-family="sans-serif" font-size="12" lengthAdjust="spacingAndGlyphs" textLength="93" x="163" y="268.1387">&lt;name_class&gt;</text><!--class _sort_name_--><rect fill="#FEFECE" filter="url(#f475217)" height="23.9688" style="stroke: #A80036; stroke-width: 1.5;" width="92" x="408.5" y="252"/><text fill="#000000" font-family="sans-serif" font-size="12" lengthAdjust="spacingAndGlyphs" textLength="86" x="411.5" y="268.1387">&lt;sort_name&gt;</text><!--class _entity_uri_--><rect fill="#FEFECE" filter="url(#f475217)" height="44.7734" style="stroke: #A80036; stroke-width: 1.5;" width="105" x="157" y="8"/><text fill="#000000" font-family="sans-serif" font-size="12" lengthAdjust="spacingAndGlyphs" textLength="77" x="171" y="24.1387">&lt;entity_uri&gt;</text><line style="stroke: #A80036; stroke-width: 1.5;" x1="158" x2="261" y1="31.9688" y2="31.9688"/><text fill="#000000" font-family="sans-serif" font-size="11" lengthAdjust="spacingAndGlyphs" textLength="93" x="163" y="46.1792">a crm:E39_Actor</text><path d="M134.21,175.12 C117.113,182.5783 100.0279,192.351 86.5,205 C74.3039,216.4037 66.5057,234.0613 62.1031,246.8988 " fill="none" style="stroke: #A80036; stroke-width: 1.0;"/><polygon fill="#A80036" points="60.5271,251.7304,67.121,244.4146,62.0777,246.9769,59.5154,241.9336,60.5271,251.7304" style="stroke: #A80036; stroke-width: 1.0;"/><text fill="#000000" font-family="sans-serif" font-size="13" lengthAdjust="spacingAndGlyphs" textLength="110" x="87.5" y="218.0669">crm:P2_has_type</text><path d="M207.666,175.093 C206.742,188.5762 205.926,206.2975 206.5,222 C206.795,230.0707 207.415,239.0171 208.016,246.4883 " fill="none" style="stroke: #A80036; stroke-width: 1.0;"/><polygon fill="#A80036" points="208.465,251.8751,211.7024,242.5735,208.049,246.8924,203.7301,243.2391,208.465,251.8751" style="stroke: #A80036; stroke-width: 1.0;"/><text fill="#000000" font-family="sans-serif" font-size="13" lengthAdjust="spacingAndGlyphs" textLength="203" x="207.5" y="218.0669">crm:P139_has_alternative_form</text><path d="M296.045,160.909 C335.311,167.67 380.647,180.5418 415.5,205 C430.538,215.5533 441.43,233.9113 447.82,247.1507 " fill="none" style="stroke: #A80036; stroke-width: 1.0;"/><polygon fill="#A80036" points="449.97,251.7729,449.8018,241.9255,447.8616,247.2392,442.5478,245.299,449.97,251.7729" style="stroke: #A80036; stroke-width: 1.0;"/><text fill="#000000" font-family="sans-serif" font-size="13" lengthAdjust="spacingAndGlyphs" textLength="62" x="433.5" y="218.0669">rdfs:value</text><path d="M209.5,53.231 C209.5,73.365 209.5,103.366 209.5,124.919 " fill="none" style="stroke: #A80036; stroke-width: 1.0;"/><polygon fill="#A80036" points="209.5,129.931,213.5,120.931,209.5,124.931,205.5,120.931,209.5,129.931" style="stroke: #A80036; stroke-width: 1.0;"/><text fill="#000000" font-family="sans-serif" font-size="13" lengthAdjust="spacingAndGlyphs" textLength="165" x="210.5" y="96.0669">crm:P131_is_identified_by</text></g></svg>