<?xml version="1.0" encoding="UTF-8" standalone="no"?><svg xmlns="http://www.w3.org/2000/svg" xmlns:xlink="http://www.w3.org/1999/xlink" contentScriptType="application/ecmascript" contentStyleType="text/css" height="427px" preserveAspectRatio="none" style="width:609px;height:427px;" version="1.1" viewBox="0 0 609 427" width="609px" zoomAndPan="magnify"><defs><filter height="300%" id="f76b3bc" width="300%" x="-1" y="-1"><feGaussianBlur result="blurOut" stdDeviation="2.0"/><feColorMatrix in="blurOut" result="blurOut2" type="matrix" values="0 0 0 0 0 0 0 0 0 0 0 0 0 0 0 0 0 0 .4 0"/><feOffset dx="4.0" dy="4.0" in="blurOut2" result="blurOut3"/><feBlend in="SourceGraphic" in2="blurOut3" mode="normal"/></filter></defs><g><!--class aat_300404012--><rect fill="#FEFECE" filter="url(#f76b3bc)" height="44.7734" style="stroke: #A80036; stroke-width: 1.5;" width="103" x="6" y="374"/><text fill="#000000" font-family="sans-serif" font-size="12" lengthAdjust="spacingAndGlyphs" textLength="97" x="9" y="390.1387">aat:300404012</text><line style="stroke: #A80036; stroke-width: 1.5;" x1="7" x2="108" y1="397.9688" y2="397.9688"/><text fill="#000000" font-family="sans-serif" font-size="11" lengthAdjust="spacingAndGlyphs" textLength="69" x="12" y="412.1792">"unique ids"</text><!--class aat_300404670--><rect fill="#FEFECE" filter="url(#f76b3bc)" height="44.7734" style="stroke: #A80036; stroke-width: 1.5;" width="114" x="267.5" y="252"/><text fill="#000000" font-family="sans-serif" font-size="12" lengthAdjust="spacingAndGlyphs" textLength="97" x="276" y="268.1387">aat:300404670</text><line style="stroke: #A80036; stroke-width: 1.5;" x1="268.5" x2="380.5" y1="275.9688" y2="275.9688"/><text fill="#000000" font-family="sans-serif" font-size="11" lengthAdjust="spacingAndGlyphs" textLength="102" x="273.5" y="290.1792">"preferred terms"</text><!--class _primary_title_class_--><rect fill="#FEFECE" filter="url(#f76b3bc)" height="44.7734" style="stroke: #A80036; stroke-width: 1.5;" width="140" x="275.5" y="130"/><text fill="#000000" font-family="sans-serif" font-size="12" lengthAdjust="spacingAndGlyphs" textLength="134" x="278.5" y="146.1387">&lt;primary_title_class&gt;</text><line style="stroke: #A80036; stroke-width: 1.5;" x1="276.5" x2="414.5" y1="153.9688" y2="153.9688"/><text fill="#000000" font-family="sans-serif" font-size="11" lengthAdjust="spacingAndGlyphs" textLength="88" x="281.5" y="168.1792">a crm:E35_Title</text><!--class _primary_title_text_--><rect fill="#FEFECE" filter="url(#f76b3bc)" height="23.9688" style="stroke: #A80036; stroke-width: 1.5;" width="132" x="453.5" y="262.5"/><text fill="#000000" font-family="sans-serif" font-size="12" lengthAdjust="spacingAndGlyphs" textLength="126" x="456.5" y="278.6387">&lt;primary_title_text&gt;</text><!--class _primary_title_id_class_--><rect fill="#FEFECE" filter="url(#f76b3bc)" height="44.7734" style="stroke: #A80036; stroke-width: 1.5;" width="157" x="55" y="252"/><text fill="#000000" font-family="sans-serif" font-size="12" lengthAdjust="spacingAndGlyphs" textLength="151" x="58" y="268.1387">&lt;primary_title_id_class&gt;</text><line style="stroke: #A80036; stroke-width: 1.5;" x1="56" x2="211" y1="275.9688" y2="275.9688"/><text fill="#000000" font-family="sans-serif" font-size="11" lengthAdjust="spacingAndGlyphs" textLength="114" x="61" y="290.1792">a crm:E42_Identifier</text><!--class _entity_uri_--><rect fill="#FEFECE" filter="url(#f76b3bc)" height="44.7734" style="stroke: #A80036; stroke-width: 1.5;" width="175" x="374" y="8"/><text fill="#000000" font-family="sans-serif" font-size="12" lengthAdjust="spacingAndGlyphs" textLength="77" x="423" y="24.1387">&lt;entity_uri&gt;</text><line style="stroke: #A80036; stroke-width: 1.5;" x1="375" x2="548" y1="31.9688" y2="31.9688"/><text fill="#000000" font-family="sans-serif" font-size="11" lengthAdjust="spacingAndGlyphs" textLength="163" x="380" y="46.1792">a crm:E22_Man-Made_Object</text><!--class _primary_title_id_--><rect fill="#FEFECE" filter="url(#f76b3bc)" height="23.9688" style="stroke: #A80036; stroke-width: 1.5;" width="119" x="150" y="384.5"/><text fill="#000000" font-family="sans-serif" font-size="12" lengthAdjust="spacingAndGlyphs" textLength="113" x="153" y="400.6387">&lt;primary_title_id&gt;</text><path d="M332.894,175.058 C328.351,184.008 323.783,194.695 321.5,205 C318.503,218.525 318.851,233.909 320.122,246.667 " fill="none" style="stroke: #A80036; stroke-width: 1.0;"/><polygon fill="#A80036" points="320.716,251.961,323.6882,242.5713,320.1588,246.9921,315.738,243.4628,320.716,251.961" style="stroke: #A80036; stroke-width: 1.0;"/><text fill="#000000" font-family="sans-serif" font-size="13" lengthAdjust="spacingAndGlyphs" textLength="110" x="322.5" y="218.0669">crm:P2_has_type</text><path d="M388.167,175.238 C404.047,183.88 421.973,194.306 437.5,205 C461.864,221.781 487.697,244.239 503.712,258.788 " fill="none" style="stroke: #A80036; stroke-width: 1.0;"/><polygon fill="#A80036" points="507.565,262.308,503.6189,253.2842,503.8738,258.9353,498.2227,259.1902,507.565,262.308" style="stroke: #A80036; stroke-width: 1.0;"/><text fill="#000000" font-family="sans-serif" font-size="13" lengthAdjust="spacingAndGlyphs" textLength="55" x="460.5" y="218.0669">rdf:value</text><path d="M275.426,158.029 C237.37,163.862 191.831,176.768 160.5,205 C148.575,215.746 141.852,232.432 138.098,246.645 " fill="none" style="stroke: #A80036; stroke-width: 1.0;"/><polygon fill="#A80036" points="136.844,251.754,142.8734,243.9665,138.0355,246.898,135.1039,242.0601,136.844,251.754" style="stroke: #A80036; stroke-width: 1.0;"/><text fill="#000000" font-family="sans-serif" font-size="13" lengthAdjust="spacingAndGlyphs" textLength="149" x="161.5" y="218.0669">crm:p1_is_identified_by</text><path d="M437.498,53.095 C427.694,62.14 416.364,72.886 406.5,83 C393.099,96.741 378.794,112.727 367.408,125.799 " fill="none" style="stroke: #A80036; stroke-width: 1.0;"/><polygon fill="#A80036" points="363.973,129.756,372.8941,125.583,367.2512,125.9807,366.8536,120.3378,363.973,129.756" style="stroke: #A80036; stroke-width: 1.0;"/><text fill="#000000" font-family="sans-serif" font-size="13" lengthAdjust="spacingAndGlyphs" textLength="122" x="407.5" y="96.0669">crm:P102_has_title</text><path d="M506.056,53.008 C517.389,60.786 528.148,70.745 534.5,83 C564.766,141.392 539.16,223.591 526.066,257.705 " fill="none" style="stroke: #A80036; stroke-width: 1.0;"/><polygon fill="#A80036" points="524.233,262.381,531.2426,255.4625,526.0584,257.7261,523.7948,252.5419,524.233,262.381" style="stroke: #A80036; stroke-width: 1.0;"/><text fill="#000000" font-family="sans-serif" font-size="13" lengthAdjust="spacingAndGlyphs" textLength="58" x="550.5" y="157.0669">rdfs:label</text><path d="M84.1301,297.091 C72.324,304.746 61.2076,314.62 54.5,327 C47.6915,339.566 47.9291,355.4122 50.1013,368.6978 " fill="none" style="stroke: #A80036; stroke-width: 1.0;"/><polygon fill="#A80036" points="51.0566,373.8395,53.3451,364.2602,50.1432,368.9236,45.4797,365.7217,51.0566,373.8395" style="stroke: #A80036; stroke-width: 1.0;"/><text fill="#000000" font-family="sans-serif" font-size="13" lengthAdjust="spacingAndGlyphs" textLength="110" x="55.5" y="340.0669">crm:P2_has_type</text><path d="M149.864,297.201 C156.493,306.262 164.081,316.992 170.5,327 C181.784,344.5936 193.486,365.5767 201.09,379.6423 " fill="none" style="stroke: #A80036; stroke-width: 1.0;"/><polygon fill="#A80036" points="203.505,384.1323,202.7635,374.3114,201.1361,379.7291,195.7184,378.1016,203.505,384.1323" style="stroke: #A80036; stroke-width: 1.0;"/><text fill="#000000" font-family="sans-serif" font-size="13" lengthAdjust="spacingAndGlyphs" textLength="55" x="182.5" y="340.0669">rdf:value</text></g></svg>