<?xml version="1.0" encoding="UTF-8" standalone="no"?><svg xmlns="http://www.w3.org/2000/svg" xmlns:xlink="http://www.w3.org/1999/xlink" contentScriptType="application/ecmascript" contentStyleType="text/css" height="284px" preserveAspectRatio="none" style="width:356px;height:284px;" version="1.1" viewBox="0 0 356 284" width="356px" zoomAndPan="magnify"><defs><filter height="300%" id="fgqqbuq" width="300%" x="-1" y="-1"><feGaussianBlur result="blurOut" stdDeviation="2.0"/><feColorMatrix in="blurOut" result="blurOut2" type="matrix" values="0 0 0 0 0 0 0 0 0 0 0 0 0 0 0 0 0 0 .4 0"/><feOffset dx="4.0" dy="4.0" in="blurOut2" result="blurOut3"/><feBlend in="SourceGraphic" in2="blurOut3" mode="normal"/></filter></defs><g><!--class aat_300404670--><rect fill="#FEFECE" filter="url(#fgqqbuq)" height="44.7734" style="stroke: #A80036; stroke-width: 1.5;" width="114" x="6" y="8"/><text fill="#000000" font-family="sans-serif" font-size="12" lengthAdjust="spacingAndGlyphs" textLength="97" x="14.5" y="24.1387">aat:300404670</text><line style="stroke: #A80036; stroke-width: 1.5;" x1="7" x2="119" y1="31.9688" y2="31.9688"/><text fill="#000000" font-family="sans-serif" font-size="11" lengthAdjust="spacingAndGlyphs" textLength="102" x="12" y="46.1792">"preferred terms"</text><!--class _entity_uri_--><rect fill="#FEFECE" filter="url(#fgqqbuq)" height="44.7734" style="stroke: #A80036; stroke-width: 1.5;" width="100" x="155" y="8"/><text fill="#000000" font-family="sans-serif" font-size="12" lengthAdjust="spacingAndGlyphs" textLength="77" x="166.5" y="24.1387">&lt;entity_uri&gt;</text><line style="stroke: #A80036; stroke-width: 1.5;" x1="156" x2="254" y1="31.9688" y2="31.9688"/><text fill="#000000" font-family="sans-serif" font-size="11" lengthAdjust="spacingAndGlyphs" textLength="88" x="161" y="46.1792">a crm:E5_Event</text><!--class _event_name_class_--><rect fill="#FEFECE" filter="url(#fgqqbuq)" height="44.7734" style="stroke: #A80036; stroke-width: 1.5;" width="140" x="135" y="130"/><text fill="#000000" font-family="sans-serif" font-size="12" lengthAdjust="spacingAndGlyphs" textLength="134" x="138" y="146.1387">&lt;event_name_class&gt;</text><line style="stroke: #A80036; stroke-width: 1.5;" x1="136" x2="274" y1="153.9688" y2="153.9688"/><text fill="#000000" font-family="sans-serif" font-size="11" lengthAdjust="spacingAndGlyphs" textLength="126" x="141" y="168.1792">a crm:E41_Appellation</text><!--class aat_300404012--><rect fill="#FEFECE" filter="url(#fgqqbuq)" height="23.9688" style="stroke: #A80036; stroke-width: 1.5;" width="103" x="77.5" y="252"/><text fill="#000000" font-family="sans-serif" font-size="12" lengthAdjust="spacingAndGlyphs" textLength="97" x="80.5" y="268.1387">aat:300404012</text><!--class _event_name_--><rect fill="#FEFECE" filter="url(#fgqqbuq)" height="23.9688" style="stroke: #A80036; stroke-width: 1.5;" width="102" x="230" y="252"/><text fill="#000000" font-family="sans-serif" font-size="12" lengthAdjust="spacingAndGlyphs" textLength="96" x="233" y="268.1387">&lt;event_name&gt;</text><path d="M205,53.231 C205,73.365 205,103.366 205,124.919 " fill="none" style="stroke: #A80036; stroke-width: 1.0;"/><polygon fill="#A80036" points="205,129.931,209,120.931,205,124.931,201,120.931,205,129.931" style="stroke: #A80036; stroke-width: 1.0;"/><text fill="#000000" font-family="sans-serif" font-size="13" lengthAdjust="spacingAndGlyphs" textLength="149" x="206" y="96.0669">crm:P1_is_identified_by</text><path d="M155.63,175.091 C143.824,182.7462 132.708,192.6203 126,205 C119.023,217.8768 120.929,234.813 123.884,247.0568 " fill="none" style="stroke: #A80036; stroke-width: 1.0;"/><polygon fill="#A80036" points="125.192,251.9913,126.7526,242.2669,123.9109,247.1582,119.0196,244.3166,125.192,251.9913" style="stroke: #A80036; stroke-width: 1.0;"/><text fill="#000000" font-family="sans-serif" font-size="13" lengthAdjust="spacingAndGlyphs" textLength="110" x="127" y="218.0669">crm:P2_has_type</text><path d="M220.813,175.195 C227.426,184.3479 235.15,195.1469 242,205 C251.906,219.2489 262.915,235.6789 270.704,247.406 " fill="none" style="stroke: #A80036; stroke-width: 1.0;"/><polygon fill="#A80036" points="273.625,251.8114,271.9848,242.1001,270.8618,247.6443,265.3175,246.5213,273.625,251.8114" style="stroke: #A80036; stroke-width: 1.0;"/><text fill="#000000" font-family="sans-serif" font-size="13" lengthAdjust="spacingAndGlyphs" textLength="55" x="253" y="218.0669">rdf:value</text></g></svg>