<?xml version="1.0" encoding="UTF-8" standalone="no"?><svg xmlns="http://www.w3.org/2000/svg" xmlns:xlink="http://www.w3.org/1999/xlink" contentScriptType="application/ecmascript" contentStyleType="text/css" height="305px" preserveAspectRatio="none" style="width:462px;height:305px;" version="1.1" viewBox="0 0 462 305" width="462px" zoomAndPan="magnify"><defs><filter height="300%" id="ft9wi76" width="300%" x="-1" y="-1"><feGaussianBlur result="blurOut" stdDeviation="2.0"/><feColorMatrix in="blurOut" result="blurOut2" type="matrix" values="0 0 0 0 0 0 0 0 0 0 0 0 0 0 0 0 0 0 .4 0"/><feOffset dx="4.0" dy="4.0" in="blurOut2" result="blurOut3"/><feBlend in="SourceGraphic" in2="blurOut3" mode="normal"/></filter></defs><g><!--class _entity_uri_--><rect fill="#FEFECE" filter="url(#ft9wi76)" height="44.7734" style="stroke: #A80036; stroke-width: 1.5;" width="175" x="156" y="8"/><text fill="#000000" font-family="sans-serif" font-size="12" lengthAdjust="spacingAndGlyphs" textLength="77" x="205" y="24.1387">&lt;entity_uri&gt;</text><line style="stroke: #A80036; stroke-width: 1.5;" x1="157" x2="330" y1="31.9688" y2="31.9688"/><text fill="#000000" font-family="sans-serif" font-size="11" lengthAdjust="spacingAndGlyphs" textLength="163" x="162" y="46.1792">a crm:E22_Man-Made_Object</text><!--class _material_string_class_--><rect fill="#FEFECE" filter="url(#ft9wi76)" height="44.7734" style="stroke: #A80036; stroke-width: 1.5;" width="171" x="158" y="130"/><text fill="#000000" font-family="sans-serif" font-size="12" lengthAdjust="spacingAndGlyphs" textLength="151" x="168" y="146.1387">&lt;material_string_class&gt;</text><line style="stroke: #A80036; stroke-width: 1.5;" x1="159" x2="328" y1="153.9688" y2="153.9688"/><text fill="#000000" font-family="sans-serif" font-size="11" lengthAdjust="spacingAndGlyphs" textLength="159" x="164" y="168.1792">a crm:E33_Linguistic_Object</text><!--class aat_300264237--><rect fill="#FEFECE" filter="url(#ft9wi76)" height="44.7734" style="stroke: #A80036; stroke-width: 1.5;" width="143" x="6" y="252"/><text fill="#000000" font-family="sans-serif" font-size="12" lengthAdjust="spacingAndGlyphs" textLength="97" x="29" y="268.1387">aat:300264237</text><line style="stroke: #A80036; stroke-width: 1.5;" x1="7" x2="148" y1="275.9688" y2="275.9688"/><text fill="#000000" font-family="sans-serif" font-size="11" lengthAdjust="spacingAndGlyphs" textLength="131" x="12" y="290.1792">"material components"</text><!--class _material_string_--><rect fill="#FEFECE" filter="url(#ft9wi76)" height="23.9688" style="stroke: #A80036; stroke-width: 1.5;" width="119" x="184" y="262.5"/><text fill="#000000" font-family="sans-serif" font-size="12" lengthAdjust="spacingAndGlyphs" textLength="113" x="187" y="278.6387">&lt;material_string&gt;</text><!--class _material_class_--><rect fill="#FEFECE" filter="url(#ft9wi76)" height="23.9688" style="stroke: #A80036; stroke-width: 1.5;" width="115" x="338" y="262.5"/><text fill="#000000" font-family="sans-serif" font-size="12" lengthAdjust="spacingAndGlyphs" textLength="109" x="341" y="278.6387">&lt;material_class&gt;</text><path d="M243.5,53.231 C243.5,73.365 243.5,103.366 243.5,124.919 " fill="none" style="stroke: #A80036; stroke-width: 1.0;"/><polygon fill="#A80036" points="243.5,129.931,247.5,120.931,243.5,124.931,239.5,120.931,243.5,129.931" style="stroke: #A80036; stroke-width: 1.0;"/><text fill="#000000" font-family="sans-serif" font-size="13" lengthAdjust="spacingAndGlyphs" textLength="173" x="244.5" y="96.0669">crm:P67i_is_referred_to_by</text><path d="M174.882,175.003 C156.974,182.657 138.507,192.553 123.5,205 C109.631,216.5028 98.2861,233.2386 90.3327,247.2883 " fill="none" style="stroke: #A80036; stroke-width: 1.0;"/><polygon fill="#A80036" points="87.7667,251.9386,95.6171,245.9913,90.1824,247.5609,88.6128,242.1262,87.7667,251.9386" style="stroke: #A80036; stroke-width: 1.0;"/><text fill="#000000" font-family="sans-serif" font-size="13" lengthAdjust="spacingAndGlyphs" textLength="110" x="124.5" y="218.0669">crm:P2_has_type</text><path d="M243.5,175.231 C243.5,198.8914 243.5,236.1779 243.5,257.3681 " fill="none" style="stroke: #A80036; stroke-width: 1.0;"/><polygon fill="#A80036" points="243.5,262.3906,247.5,253.3906,243.5,257.3906,239.5,253.3906,243.5,262.3906" style="stroke: #A80036; stroke-width: 1.0;"/><text fill="#000000" font-family="sans-serif" font-size="13" lengthAdjust="spacingAndGlyphs" textLength="62" x="244.5" y="218.0669">rdfs:value</text><path d="M275.124,175.224 C287.853,184.199 302.555,194.859 315.5,205 C338.324,222.879 363.565,244.8892 379.473,259.0539 " fill="none" style="stroke: #A80036; stroke-width: 1.0;"/><polygon fill="#A80036" points="383.309,262.4788,379.2593,253.501,379.5792,259.1488,373.9314,259.4687,383.309,262.4788" style="stroke: #A80036; stroke-width: 1.0;"/><text fill="#000000" font-family="sans-serif" font-size="13" lengthAdjust="spacingAndGlyphs" textLength="76" x="336.5" y="218.0669">owl:sameAs</text></g></svg>