<?xml version="1.0" encoding="UTF-8" standalone="no"?><svg xmlns="http://www.w3.org/2000/svg" xmlns:xlink="http://www.w3.org/1999/xlink" contentScriptType="application/ecmascript" contentStyleType="text/css" height="442px" preserveAspectRatio="none" style="width:404px;height:442px;" version="1.1" viewBox="0 0 404 442" width="404px" zoomAndPan="magnify"><defs><filter height="300%" id="f6p7md0" width="300%" x="-1" y="-1"><feGaussianBlur result="blurOut" stdDeviation="2.0"/><feColorMatrix in="blurOut" result="blurOut2" type="matrix" values="0 0 0 0 0 0 0 0 0 0 0 0 0 0 0 0 0 0 .4 0"/><feOffset dx="4.0" dy="4.0" in="blurOut2" result="blurOut3"/><feBlend in="SourceGraphic" in2="blurOut3" mode="normal"/></filter></defs><g><!--class _preferred_title_type_uri_--><rect fill="#FEFECE" filter="url(#f6p7md0)" height="44.7734" style="stroke: #A80036; stroke-width: 1.5;" width="170" x="58" y="252"/><text fill="#000000" font-family="sans-serif" font-size="12" lengthAdjust="spacingAndGlyphs" textLength="164" x="61" y="268.1387">&lt;preferred_title_type_uri&gt;</text><line style="stroke: #A80036; stroke-width: 1.5;" x1="59" x2="227" y1="275.9688" y2="275.9688"/><text fill="#000000" font-family="sans-serif" font-size="11" lengthAdjust="spacingAndGlyphs" textLength="91" x="64" y="290.1792">a crm:E55_Type</text><!--class aat_300404670--><rect fill="#FEFECE" filter="url(#f6p7md0)" height="44.7734" style="stroke: #A80036; stroke-width: 1.5;" width="114" x="6" y="389"/><text fill="#000000" font-family="sans-serif" font-size="12" lengthAdjust="spacingAndGlyphs" textLength="97" x="14.5" y="405.1387">aat:300404670</text><line style="stroke: #A80036; stroke-width: 1.5;" x1="7" x2="119" y1="412.9688" y2="412.9688"/><text fill="#000000" font-family="sans-serif" font-size="11" lengthAdjust="spacingAndGlyphs" textLength="102" x="12" y="427.1792">"preferred terms"</text><!--class _primary_title_type_--><rect fill="#FEFECE" filter="url(#f6p7md0)" height="23.9688" style="stroke: #A80036; stroke-width: 1.5;" width="135" x="155.5" y="399.5"/><text fill="#000000" font-family="sans-serif" font-size="12" lengthAdjust="spacingAndGlyphs" textLength="129" x="158.5" y="415.6387">&lt;primary_title_type&gt;</text><!--class _entity_uri_--><rect fill="#FEFECE" filter="url(#f6p7md0)" height="44.7734" style="stroke: #A80036; stroke-width: 1.5;" width="175" x="165.5" y="8"/><text fill="#000000" font-family="sans-serif" font-size="12" lengthAdjust="spacingAndGlyphs" textLength="77" x="214.5" y="24.1387">&lt;entity_uri&gt;</text><line style="stroke: #A80036; stroke-width: 1.5;" x1="166.5" x2="339.5" y1="31.9688" y2="31.9688"/><text fill="#000000" font-family="sans-serif" font-size="11" lengthAdjust="spacingAndGlyphs" textLength="163" x="171.5" y="46.1792">a crm:E22_Man-Made_Object</text><!--class _primary_title_uri_--><rect fill="#FEFECE" filter="url(#f6p7md0)" height="44.7734" style="stroke: #A80036; stroke-width: 1.5;" width="124" x="191" y="130"/><text fill="#000000" font-family="sans-serif" font-size="12" lengthAdjust="spacingAndGlyphs" textLength="118" x="194" y="146.1387">&lt;primary_title_uri&gt;</text><line style="stroke: #A80036; stroke-width: 1.5;" x1="192" x2="314" y1="153.9688" y2="153.9688"/><text fill="#000000" font-family="sans-serif" font-size="11" lengthAdjust="spacingAndGlyphs" textLength="88" x="197" y="168.1792">a crm:E35_Title</text><!--class _primary_title_text_--><rect fill="#FEFECE" filter="url(#f6p7md0)" height="23.9688" style="stroke: #A80036; stroke-width: 1.5;" width="132" x="263" y="262.5"/><text fill="#000000" font-family="sans-serif" font-size="12" lengthAdjust="spacingAndGlyphs" textLength="126" x="266" y="278.6387">&lt;primary_title_text&gt;</text><path d="M98.4076,297.197 C86.9316,304.978 75.8887,314.892 69,327 C59.2952,344.0578 58.159,366.3522 59.2521,383.6131 " fill="none" style="stroke: #A80036; stroke-width: 1.0;"/><polygon fill="#A80036" points="59.656,388.7969,62.9448,379.5134,59.2676,383.812,54.9689,380.1348,59.656,388.7969" style="stroke: #A80036; stroke-width: 1.0;"/><text fill="#000000" font-family="sans-serif" font-size="13" lengthAdjust="spacingAndGlyphs" textLength="109" x="70" y="347.5669">skos:broadMatch</text><path d="M162.162,297.217 C169.494,306.103 177.62,316.702 184,327 C197.746,349.1868 209.809,377.0021 216.753,394.2644 " fill="none" style="stroke: #A80036; stroke-width: 1.0;"/><polygon fill="#A80036" points="218.739,399.2649,219.1334,389.4239,216.8929,394.6182,211.6986,392.3777,218.739,399.2649" style="stroke: #A80036; stroke-width: 1.0;"/><text fill="#000000" font-family="sans-serif" font-size="13" lengthAdjust="spacingAndGlyphs" textLength="58" x="219" y="340.0669">rdfs:label</text><text fill="#000000" font-family="sans-serif" font-size="13" lengthAdjust="spacingAndGlyphs" textLength="92" x="202" y="355.1997">skos:prefLabel</text><path d="M253,53.231 C253,73.365 253,103.366 253,124.919 " fill="none" style="stroke: #A80036; stroke-width: 1.0;"/><polygon fill="#A80036" points="253,129.931,257,120.931,253,124.931,249,120.931,253,129.931" style="stroke: #A80036; stroke-width: 1.0;"/><text fill="#000000" font-family="sans-serif" font-size="13" lengthAdjust="spacingAndGlyphs" textLength="122" x="254" y="96.0669">crm:P102_has_title</text><path d="M203.9,175.069 C190.467,182.893 176.899,192.862 167,205 C157.212,217.003 151.291,233.269 147.779,246.939 " fill="none" style="stroke: #A80036; stroke-width: 1.0;"/><polygon fill="#A80036" points="146.592,251.845,152.5961,244.0379,147.7677,246.9852,144.8204,242.1568,146.592,251.845" style="stroke: #A80036; stroke-width: 1.0;"/><text fill="#000000" font-family="sans-serif" font-size="13" lengthAdjust="spacingAndGlyphs" textLength="110" x="168" y="218.0669">crm:P2_has_type</text><path d="M266.763,175.231 C281.875,199.092 305.764,236.811 319.122,257.903 " fill="none" style="stroke: #A80036; stroke-width: 1.0;"/><polygon fill="#A80036" points="321.964,262.391,320.5273,252.6475,319.2885,258.1671,313.7689,256.9283,321.964,262.391" style="stroke: #A80036; stroke-width: 1.0;"/><text fill="#000000" font-family="sans-serif" font-size="13" lengthAdjust="spacingAndGlyphs" textLength="58" x="297" y="218.0669">rdfs:label</text></g></svg>