<?xml version="1.0" encoding="UTF-8" standalone="no"?><svg xmlns="http://www.w3.org/2000/svg" xmlns:xlink="http://www.w3.org/1999/xlink" contentScriptType="application/ecmascript" contentStyleType="text/css" height="406px" preserveAspectRatio="none" style="width:328px;height:406px;" version="1.1" viewBox="0 0 328 406" width="328px" zoomAndPan="magnify"><defs><filter height="300%" id="fa56uby" width="300%" x="-1" y="-1"><feGaussianBlur result="blurOut" stdDeviation="2.0"/><feColorMatrix in="blurOut" result="blurOut2" type="matrix" values="0 0 0 0 0 0 0 0 0 0 0 0 0 0 0 0 0 0 .4 0"/><feOffset dx="4.0" dy="4.0" in="blurOut2" result="blurOut3"/><feBlend in="SourceGraphic" in2="blurOut3" mode="normal"/></filter></defs><g><!--class _title_class_--><rect fill="#FEFECE" filter="url(#fa56uby)" height="44.7734" style="stroke: #A80036; stroke-width: 1.5;" width="100" x="44" y="130"/><text fill="#000000" font-family="sans-serif" font-size="12" lengthAdjust="spacingAndGlyphs" textLength="82" x="53" y="146.1387">&lt;title_class&gt;</text><line style="stroke: #A80036; stroke-width: 1.5;" x1="45" x2="143" y1="153.9688" y2="153.9688"/><text fill="#000000" font-family="sans-serif" font-size="11" lengthAdjust="spacingAndGlyphs" textLength="88" x="50" y="168.1792">a crm:E35_Title</text><!--class _title_text_--><rect fill="#FEFECE" filter="url(#fa56uby)" height="23.9688" style="stroke: #A80036; stroke-width: 1.5;" width="80" x="6" y="262.5"/><text fill="#000000" font-family="sans-serif" font-size="12" lengthAdjust="spacingAndGlyphs" textLength="74" x="9" y="278.6387">&lt;title_text&gt;</text><!--class _alternate_title_type_class_--><rect fill="#FEFECE" filter="url(#fa56uby)" height="44.7734" style="stroke: #A80036; stroke-width: 1.5;" width="185" x="121.5" y="252"/><text fill="#000000" font-family="sans-serif" font-size="12" lengthAdjust="spacingAndGlyphs" textLength="179" x="124.5" y="268.1387">&lt;alternate_title_type_class&gt;</text><line style="stroke: #A80036; stroke-width: 1.5;" x1="122.5" x2="305.5" y1="275.9688" y2="275.9688"/><text fill="#000000" font-family="sans-serif" font-size="11" lengthAdjust="spacingAndGlyphs" textLength="91" x="127.5" y="290.1792">a crm:E55_Type</text><!--class aat_300404012--><rect fill="#FEFECE" filter="url(#fa56uby)" height="44.7734" style="stroke: #A80036; stroke-width: 1.5;" width="103" x="216.5" y="8"/><text fill="#000000" font-family="sans-serif" font-size="12" lengthAdjust="spacingAndGlyphs" textLength="97" x="219.5" y="24.1387">aat:300404012</text><line style="stroke: #A80036; stroke-width: 1.5;" x1="217.5" x2="318.5" y1="31.9688" y2="31.9688"/><text fill="#000000" font-family="sans-serif" font-size="11" lengthAdjust="spacingAndGlyphs" textLength="69" x="222.5" y="46.1792">"unique ids"</text><!--class _alternate_title_type_--><rect fill="#FEFECE" filter="url(#fa56uby)" height="23.9688" style="stroke: #A80036; stroke-width: 1.5;" width="147" x="140.5" y="374"/><text fill="#000000" font-family="sans-serif" font-size="12" lengthAdjust="spacingAndGlyphs" textLength="141" x="143.5" y="390.1387">&lt;alternate_title_type&gt;</text><!--class _entity_uri_--><rect fill="#FEFECE" filter="url(#fa56uby)" height="44.7734" style="stroke: #A80036; stroke-width: 1.5;" width="175" x="6.5" y="8"/><text fill="#000000" font-family="sans-serif" font-size="12" lengthAdjust="spacingAndGlyphs" textLength="77" x="55.5" y="24.1387">&lt;entity_uri&gt;</text><line style="stroke: #A80036; stroke-width: 1.5;" x1="7.5" x2="180.5" y1="31.9688" y2="31.9688"/><text fill="#000000" font-family="sans-serif" font-size="11" lengthAdjust="spacingAndGlyphs" textLength="163" x="12.5" y="46.1792">a crm:E22_Man-Made_Object</text><path d="M85.3076,175.231 C75.8034,198.992 60.8024,236.494 52.3453,257.637 " fill="none" style="stroke: #A80036; stroke-width: 1.0;"/><polygon fill="#A80036" points="50.4438,262.391,57.5004,255.5205,52.3009,257.7487,50.0727,252.5491,50.4438,262.391" style="stroke: #A80036; stroke-width: 1.0;"/><text fill="#000000" font-family="sans-serif" font-size="13" lengthAdjust="spacingAndGlyphs" textLength="55" x="74" y="218.0669">rdf:value</text><path d="M115.731,175.231 C136.29,195.79 167.136,226.636 188.772,248.272 " fill="none" style="stroke: #A80036; stroke-width: 1.0;"/><polygon fill="#A80036" points="192.431,251.931,188.8955,242.7386,188.8955,248.3955,183.2386,248.3955,192.431,251.931" style="stroke: #A80036; stroke-width: 1.0;"/><text fill="#000000" font-family="sans-serif" font-size="13" lengthAdjust="spacingAndGlyphs" textLength="110" x="163" y="218.0669">crm:P2_has_type</text><path d="M214,297.134 C214,318.213 214,349.783 214,368.7869 " fill="none" style="stroke: #A80036; stroke-width: 1.0;"/><polygon fill="#A80036" points="214,373.7946,218,364.7946,214,368.7946,210,364.7946,214,373.7946" style="stroke: #A80036; stroke-width: 1.0;"/><text fill="#000000" font-family="sans-serif" font-size="13" lengthAdjust="spacingAndGlyphs" textLength="92" x="215" y="340.0669">skos:prefLabel</text><path d="M94,53.231 C94,73.365 94,103.366 94,124.919 " fill="none" style="stroke: #A80036; stroke-width: 1.0;"/><polygon fill="#A80036" points="94,129.931,98,120.931,94,124.931,90,120.931,94,129.931" style="stroke: #A80036; stroke-width: 1.0;"/><text fill="#000000" font-family="sans-serif" font-size="13" lengthAdjust="spacingAndGlyphs" textLength="122" x="95" y="96.0669">crm:P102_has_title</text></g></svg>